<svg width="288" height="288" viewBox="0 0 288 288" fill="none" xmlns="http://www.w3.org/2000/svg">
<mask id="mask0_28_12845" style="mask-type:luminance" maskUnits="userSpaceOnUse" x="24" y="12" width="241" height="265">
<path d="M264.3 12H24V276.3H264.3V12Z" fill="white"/>
</mask>
<g mask="url(#mask0_28_12845)">
<path d="M188.616 99.5901C201.726 97.7271 215.367 99.5541 226.005 107.825C232.29 112.709 236.229 118.778 238.155 125.636L193.326 134.97C193.653 124.815 192.333 113.226 188.682 100.041L188.616 99.5901Z" fill="var(--illustration-currentColor)"/>
<path d="M193.326 134.97L238.155 125.637C244.632 148.668 228.405 180.597 202.044 206.469C196.602 195.243 187.034 186.552 175.338 182.211C184.368 171.947 192.627 156.75 193.326 134.97Z" fill="url(#paint0_linear_28_12845)"/>
<path d="M226.005 107.825C215.367 99.5538 201.726 97.7268 188.616 99.5898C180.095 100.838 171.838 103.476 164.172 107.4C163.596 107.694 163.029 107.991 162.465 108.291L153.696 74.565L149.982 60.282L229.713 34.236L263.7 120.317L238.155 125.636C236.229 118.778 232.29 112.71 226.005 107.825Z" fill="url(#paint1_linear_28_12845)"/>
<path d="M158.613 179.228C164.321 179.221 169.984 180.231 175.338 182.21C165.81 193.043 155.421 198.38 152.172 200.153C144.405 204.389 129.018 209.894 119.277 202.271C118.869 201.946 118.497 201.576 118.17 201.17C122.547 194.431 128.54 188.893 135.604 185.06C142.667 181.228 150.577 179.223 158.613 179.228Z" fill="var(--illustration-currentColor)"/>
<path d="M158.613 275.687C149.962 275.69 141.471 273.367 134.027 268.959C126.584 264.552 120.463 258.223 116.307 250.637C147.009 247.781 178.554 229.529 202.044 206.468C205.593 213.821 207.219 221.956 206.767 230.108C206.316 238.262 203.802 246.167 199.462 253.083C195.123 260 189.098 265.702 181.954 269.655C174.809 273.608 166.778 275.684 158.613 275.687Z" fill="var(--illustration-currentColor)"/>
<path d="M113.271 181.562C113.16 167.981 117.534 149.93 131.166 133.286L158.877 154.625L113.271 181.562Z" fill="url(#paint2_linear_28_12845)"/>
<path d="M90.5283 101.99L131.166 133.286C117.534 149.93 113.16 167.981 113.271 181.562L48.3633 219.902C42.7143 208.25 40.0443 191.993 43.4643 169.235C48.0933 138.431 68.4663 116.762 90.5283 101.99Z" fill="var(--illustration-currentColor)"/>
<path d="M104.658 21.9139C122.424 10.0489 142.71 9.24487 149.97 20.1169C157.23 30.9888 148.713 49.4208 130.947 61.2828C113.181 73.1448 92.8949 73.9488 85.6379 63.0768C78.3809 52.2048 86.8919 33.7758 104.658 21.9139Z" fill="var(--illustration-currentColor)"/>
<path d="M118.17 201.17C113.423 208.479 110.744 216.937 110.416 225.647C110.088 234.356 112.124 242.991 116.307 250.637C109.536 251.295 102.711 251.125 95.9818 250.13C88.1038 248.93 60.8938 245.762 48.3628 219.902L113.271 181.562C113.343 190.754 115.47 197.894 118.17 201.17Z" fill="url(#paint3_linear_28_12845)"/>
<path d="M154.56 74.3661C154.56 74.3661 154.263 74.4291 153.696 74.5641C148.257 75.8481 118.074 83.5401 90.5283 101.99C68.4663 116.762 48.0933 138.431 43.4643 169.235C40.0443 191.993 42.7143 208.25 48.3633 219.902C60.8943 245.762 88.1043 248.93 95.9823 250.13C102.712 251.125 109.537 251.295 116.307 250.637C147.009 247.781 178.554 229.529 202.044 206.468C228.405 180.596 244.632 148.667 238.155 125.636C236.229 118.778 232.29 112.709 226.005 107.825C215.367 99.5541 201.726 97.7271 188.616 99.5901C180.096 100.838 171.838 103.476 164.172 107.4C163.596 107.694 163.029 107.991 162.465 108.291C148.77 115.572 138.594 124.221 131.166 133.287C117.534 149.931 113.16 167.982 113.271 181.563C113.343 190.755 115.47 197.895 118.17 201.171C118.498 201.578 118.869 201.947 119.277 202.272C129.018 209.895 144.405 204.39 152.172 200.154C155.421 198.381 165.81 193.044 175.338 182.211C184.368 171.948 192.627 156.75 193.326 134.97C193.653 124.815 192.333 113.226 188.682 100.041" stroke="var(--illustration-currentColor)" stroke-width="0.9" stroke-linecap="round" stroke-linejoin="round"/>
<path d="M238.155 125.636L263.7 120.317L229.713 34.2348L149.982 60.2808L153.696 74.5638L162.465 108.29L170.631 139.694L193.326 134.969L238.155 125.636Z" stroke="var(--illustration-currentColor)" stroke-width="0.9" stroke-linecap="round" stroke-linejoin="round"/>
<path d="M131.166 133.286L158.877 154.625L113.271 181.562L48.3629 219.902L29.2769 231.176L36.2009 123.47L37.9649 96.0108L40.0769 63.1398L90.5279 101.99L131.166 133.286Z" stroke="var(--illustration-currentColor)" stroke-width="0.9" stroke-linecap="round" stroke-linejoin="round"/>
<path d="M130.947 61.2831C113.184 73.1451 92.8949 73.9491 85.6379 63.0771C78.3809 52.2051 86.8919 33.7761 104.658 21.914C122.424 10.052 142.71 9.24498 149.97 20.117C157.23 30.9891 148.713 49.4211 130.947 61.2831Z" stroke="var(--illustration-currentColor)" stroke-width="0.9" stroke-linecap="round" stroke-linejoin="round"/>
<path d="M37.965 96.0111C44.364 96.5841 49.395 102.506 49.395 109.73C49.395 117.332 43.821 123.494 36.948 123.494C36.696 123.494 36.447 123.485 36.201 123.47C29.676 123.041 24.501 117.053 24.501 109.73C24.501 102.128 30.075 95.9661 36.948 95.9661C37.29 95.9661 37.629 95.9811 37.965 96.0111Z" stroke="var(--illustration-currentColor)" stroke-width="0.9" stroke-linecap="round" stroke-linejoin="round"/>
<path d="M202.044 206.468C206.905 216.54 208.111 227.991 205.455 238.855C202.798 249.719 196.445 259.321 187.484 266.014C178.523 272.707 167.513 276.074 156.342 275.538C145.17 275.002 134.533 270.597 126.254 263.077C117.975 255.557 112.57 245.391 110.966 234.322C109.361 223.253 111.658 211.971 117.461 202.41C123.264 192.849 132.213 185.605 142.773 181.919C153.333 178.233 164.846 178.336 175.338 182.21C187.056 186.515 196.635 195.217 202.044 206.468Z" stroke="var(--illustration-currentColor)" stroke-width="0.9" stroke-linecap="round" stroke-linejoin="round"/>
<path d="M73.4308 271.517L84.2308 257.54H61.6768L73.4308 271.517Z" stroke="var(--illustration-currentColor)" stroke-width="0.9" stroke-linecap="round" stroke-linejoin="round"/>
<g opacity="0.1">
<path d="M186.918 99.915C179.718 100.655 172.481 103.305 165.929 106.299C159.261 109.4 153 113.311 147.289 117.943C135.626 127.285 126.572 139.578 120.796 153.335C119.192 157.141 117.849 161.052 116.778 165.041C116.224 167.111 115.745 169.208 115.318 171.309C114.861 173.559 114.371 175.741 114.705 178.033C114.855 179.058 116.064 179.798 117.024 179.798C118.171 179.798 118.929 179.024 119.342 178.033C120.032 176.376 120.096 174.477 120.4 172.71C120.709 170.918 121.086 169.141 121.533 167.379C122.378 164.015 123.419 160.704 124.651 157.461C132.178 137.73 146.709 121.463 165.469 111.764C168.886 109.969 172.41 108.387 176.022 107.026C179.758 105.638 183.607 104.68 187.4 103.478C189.248 102.893 189.048 99.696 186.918 99.915Z" fill="var(--illustration-currentColor)"/>
</g>
<g opacity="0.1">
<path d="M201.047 207.766C202.513 205.75 198.925 201.905 197.757 200.398C195.913 197.942 193.921 195.602 191.79 193.391C189.691 191.275 187.461 189.293 185.114 187.455C182.74 185.595 180.186 183.424 177.436 182.153C176.313 181.634 175.015 181.741 174.229 182.793C173.559 183.69 173.44 185.279 174.424 186.057C176.817 187.951 179.518 189.447 181.933 191.334C184.347 193.224 186.654 195.247 188.842 197.394C190.983 199.494 193.03 201.592 194.962 203.891C195.967 205.088 199.207 210.296 201.046 207.767L201.047 207.766Z" fill="var(--illustration-currentColor)"/>
</g>
<g opacity="0.1">
<path d="M90.3546 102.249C88.7088 100.343 86.6607 98.8032 84.7239 97.2003C82.7769 95.5887 80.8314 93.9741 78.8643 92.3871C74.8518 89.1495 70.8117 85.9455 66.7443 82.7745C58.6785 76.4601 50.5341 70.2483 42.3111 64.1388C41.1762 63.2958 39.39 63.9525 38.7324 65.0772C37.9569 66.4026 38.5272 67.8192 39.6705 68.6559C47.8371 74.6298 55.9323 80.6997 63.9561 86.8659C67.9575 89.9424 71.9241 93.0621 75.8976 96.1737C77.8932 97.7364 79.8969 99.2886 81.8892 100.855C83.862 102.407 85.7916 104.092 87.9849 105.319C89.9847 106.438 91.7799 103.901 90.3549 102.249H90.3546Z" fill="var(--illustration-currentColor)"/>
</g>
</g>
<defs>
<linearGradient id="paint0_linear_28_12845" x1="207.459" y1="125.637" x2="207.459" y2="206.469" gradientUnits="userSpaceOnUse">
<stop stop-color="#FF9A34"/>
<stop offset="1" stop-color="#EB6421"/>
</linearGradient>
<linearGradient id="paint1_linear_28_12845" x1="206.841" y1="34.236" x2="206.841" y2="125.636" gradientUnits="userSpaceOnUse">
<stop stop-color="#FF9A34"/>
<stop offset="1" stop-color="#EB6421"/>
</linearGradient>
<linearGradient id="paint2_linear_28_12845" x1="136.073" y1="133.286" x2="136.073" y2="181.562" gradientUnits="userSpaceOnUse">
<stop stop-color="#FF9A34"/>
<stop offset="1" stop-color="#EB6421"/>
</linearGradient>
<linearGradient id="paint3_linear_28_12845" x1="83.2663" y1="181.562" x2="83.2663" y2="251.03" gradientUnits="userSpaceOnUse">
<stop stop-color="#FF9A34"/>
<stop offset="1" stop-color="#EB6421"/>
</linearGradient>
</defs>
</svg>
