<svg width="288" height="288" viewBox="0 0 288 288" fill="none" xmlns="http://www.w3.org/2000/svg">
<mask id="mask0_28_12856" style="mask-type:luminance" maskUnits="userSpaceOnUse" x="11" y="27" width="266" height="234">
<path d="M276.6 27.9H11.3999V260.4H276.6V27.9Z" fill="white"/>
</mask>
<g mask="url(#mask0_28_12856)">
<path fill-rule="evenodd" clip-rule="evenodd" d="M155.836 92.5716C158.062 91.9293 160.288 91.287 162.566 90.6444C163.989 100.326 163.363 110.26 160.656 119.786C160.583 120.043 160.733 120.311 160.99 120.384C161.247 120.457 161.515 120.308 161.588 120.051C164.344 110.351 164.973 100.236 163.506 90.3801C164.144 90.2016 164.786 90.0228 165.435 89.844C166.972 100.18 167.437 113.3 163.584 125.668L158.056 127.463L162.573 127.832L162.538 128.258C158.466 138.255 151.51 146.813 142.556 152.841L142.482 152.867C142.872 154.027 143.264 155.185 143.657 156.342L143.457 156.409C140.674 155.847 137.797 155.968 135.071 156.762C132.345 157.556 129.853 159 127.809 160.969C126.978 161.785 126.211 162.697 125.445 163.609C123.658 165.735 121.877 167.854 119.3 168.72C116.284 169.734 113 168.72 109.997 167.664C106.993 166.608 103.774 165.487 100.7 166.314C97.0699 167.285 94.6939 170.666 92.6299 173.808L92.533 173.822L91.7353 168.5L91.267 168.571C91.267 168.571 62.7763 171.306 39.5266 153.982C29.6865 146.651 25.1955 136.544 23.2905 127.325L23.5005 127.28C28.6088 122.995 34.1638 119.716 40.2451 117.244C42.2554 124.294 46.0588 130.838 51.3172 135.953C60.3184 144.708 73.3867 149.087 85.8457 147.521C86.1112 147.487 86.2993 147.245 86.266 146.98C86.2327 146.715 85.9903 146.527 85.7251 146.56C73.5583 148.089 60.7828 143.809 51.9928 135.258C46.8334 130.24 43.1068 123.808 41.1499 116.884C42.2158 116.467 43.2979 116.075 44.3965 115.706L44.9842 115.532C49.1599 129.795 60.6844 146.344 92.1106 141.662L92.1814 141.652C101.162 140.306 108.828 138.388 115.309 135.998C139.343 127.141 147.148 111.835 145.624 95.4177L145.902 95.3916C149.322 94.4514 152.579 93.5115 155.835 92.5719L155.836 92.5716Z" fill="url(#paint0_linear_28_12856)"/>
<path d="M267.352 255.299L231.451 259.862L227.411 244.791L213.532 193.038L213.551 192.841L224.77 193.871L246.192 190.984L267.352 255.299Z" fill="#171717"/>
<path d="M246.192 187.794L221.876 191.288L219.864 184.758L212.806 161.854L203.348 131.158L212.076 131.872L228.26 127.464L246.192 187.794Z" fill="#171717"/>
<path d="M208.656 63.0618L226.436 123.514L210.481 128.681L208.43 121.732H208.427L199.182 90.4224L190.421 60.753L208.656 63.0618Z" fill="#171717"/>
<path d="M211.266 192.628L196.341 249.257L194.345 239.57L184.267 190.619L184.309 190.151L211.266 192.628Z" fill="#171717"/>
<path d="M195.349 154.811V154.815L187.535 186.576L180.699 187.946L179.43 182.088L174.367 158.69L167.779 128.258L188.933 129.983L195.349 154.811Z" fill="#171717"/>
<path d="M164.582 84.8586C164.886 86.4279 165.176 88.0986 165.435 89.8443C158.725 91.6947 152.631 93.5418 145.902 95.3919L145.624 95.418C145.511 94.188 145.346 92.9544 145.13 91.7172L145.156 91.7142C151.475 88.4946 157.614 86.1792 164.582 84.8586Z" fill="#171717"/>
<path d="M160.791 70.5564C161.845 73.5621 162.737 76.6227 163.461 79.7241C156.71 81.3621 150.238 83.9889 144.254 87.519L144.222 87.5289C143.481 84.6966 142.543 81.9195 141.416 79.2171L141.17 78.81C142.111 78.2352 143.065 77.682 144.035 77.1504C147.563 75.2085 151.253 73.5738 155.062 72.2646C156.919 71.622 158.802 71.0592 160.71 70.5759L160.791 70.5564Z" fill="url(#paint1_linear_28_12856)"/>
<path d="M160.685 228.616L154.831 187.945L154.876 187.445L176.501 189.431L184.309 190.151L184.267 190.619L163.297 246.751L160.685 228.616Z" fill="#171717"/>
<path d="M111.653 184.465C108.323 184.781 105.173 186.241 102.505 188.256C99.8369 190.271 97.9451 192.505 95.9693 195.201L95.7434 195.234L93.9932 183.57L94.145 183.548C94.805 181.76 95.9057 180.168 97.3451 178.919C98.7845 177.671 100.516 176.806 102.379 176.405C105.859 175.691 109.435 176.679 112.893 177.506C116.352 178.333 120.078 178.998 123.385 177.693C128.448 175.694 130.831 169.843 135.274 166.695C136.848 165.595 138.643 164.852 140.534 164.518C142.425 164.185 144.366 164.269 146.221 164.764L146.476 164.676C147.58 167.948 148.687 171.22 149.796 174.493L149.592 174.561C145.27 173.837 140.833 174.737 137.134 177.086C133.463 179.44 130.602 183.186 126.446 184.513C121.719 186.018 116.591 183.993 111.653 184.465Z" fill="#171717"/>
<path d="M146.28 205.98L97.4237 206.432L95.7437 195.233L95.9696 195.201C97.946 192.505 99.8381 190.27 102.505 188.255C105.173 186.241 108.325 184.781 111.654 184.464C116.591 183.993 121.719 186.017 126.446 184.513C130.602 183.185 133.463 179.44 137.135 177.086C140.834 174.736 145.271 173.837 149.593 174.56L149.796 174.493L149.826 174.58L150.023 174.654L147.81 180.438L133.893 185.514L145.721 186.602L154.875 187.445L154.831 187.946L146.629 206.138L146.28 205.98Z" fill="url(#paint2_linear_28_12856)"/>
<path d="M116.774 80.9676C117.84 81.5487 117.834 83.0697 117.588 84.258C116.596 89.0316 114.143 93.3777 110.568 96.6933L110.165 97.068C110.013 97.0734 109.862 97.095 109.715 97.1325C104.745 98.2401 99.8238 99.5868 94.9833 101.175C93.0846 101.795 91.0407 102.58 90.03 104.305C88.9707 106.11 89.3745 108.383 89.8071 110.433C90.2883 112.71 90.7704 114.987 91.2537 117.263C90.5991 118.628 89.829 119.934 88.9515 121.167C88.5573 121.722 88.0602 122.307 87.3819 122.365C86.3424 122.455 85.6512 121.225 85.677 120.182C85.7028 119.139 86.1453 118.132 86.1066 117.089C85.4229 118.368 84.4791 119.49 83.3358 120.382C83.0268 120.679 82.6173 120.847 82.1895 120.854C81.5082 120.786 81.1305 119.959 81.2499 119.285C81.3693 118.61 81.8181 118.051 82.1961 117.479C82.9089 116.384 83.3943 115.156 83.6232 113.869C83.8524 112.582 83.8206 111.262 83.5296 109.988C82.7934 106.838 80.4651 103.817 81.3372 100.701C82.0056 98.3046 84.4113 96.7935 86.7972 96.0864C89.1831 95.3793 91.7283 95.2371 94.0596 94.3653C93.3267 92.4213 92.5926 90.4773 91.8573 88.5333C91.3374 87.1578 90.8595 85.4787 91.7799 84.3333C92.5968 83.3133 94.2243 83.2773 95.3448 83.9457C96.4653 84.6141 97.1595 85.809 97.6794 87.0036C98.1993 88.1982 98.5965 89.4675 99.3327 90.5436C98.4345 88.1064 97.7643 85.5909 97.3308 83.0295C97.1466 81.9444 97.0626 80.6691 97.857 79.9095C98.4996 79.2927 99.5523 79.2573 100.356 79.6416C101.142 80.0742 101.779 80.7336 102.184 81.5337C103.566 83.9622 103.712 86.8779 103.825 89.6712C103.955 86.4735 104.601 83.3178 105.74 80.3262C105.966 79.6077 106.343 78.9459 106.847 78.3855C107.383 77.859 108.203 77.5524 108.907 77.8155C110.073 78.2514 110.244 79.8111 110.17 81.0555C110.001 83.9313 109.583 86.787 108.92 89.5902C109.965 86.8638 111.518 84.36 113.496 82.2117C114.353 81.2838 115.664 80.3637 116.774 80.9676Z" fill="#171717"/>
<path d="M100.145 124.354L100.141 124.38C99.4608 124.292 98.8215 124.005 98.3043 123.553C97.7043 122.991 97.3104 122.244 97.1856 121.431C97.0608 120.618 97.2126 119.787 97.6164 119.071C97.8294 118.716 98.1717 118.367 98.5818 118.4C98.9694 118.432 99.2418 118.774 99.5055 119.06C99.9063 119.482 100.391 119.814 100.93 120.035C100.439 120.627 100.109 121.335 99.972 122.092C99.8346 122.848 99.894 123.627 100.145 124.354Z" fill="#171717"/>
<path d="M44.9842 115.532L44.3965 115.706C36.6658 118.303 29.7491 122.039 23.5007 127.28L23.2907 127.325C22.8968 125.435 22.6157 123.582 22.4189 121.8L22.6931 121.77C29.2259 116.968 36.0262 113.297 43.5274 110.229L43.7116 110.194C44.0317 111.903 44.4481 113.698 44.9842 115.532Z" fill="#171717"/>
<path d="M38.5104 98.082C39.8019 97.6977 41.1087 97.3305 42.4305 96.9807L42.7179 96.9969C42.5931 99.765 42.687 102.539 42.9987 105.293L42.5337 105.328C34.9905 107.647 28.2236 111.105 22.0964 116.078H22.0382C21.8705 108.89 22.8875 103.836 22.8875 103.836L22.9877 103.62C24.5183 102.993 26.0435 102.389 27.5633 101.808C31.1832 100.43 34.7934 99.1863 38.5104 98.082Z" fill="url(#paint3_linear_28_12856)"/>
<path d="M250.978 205.05L275.9 204.811" stroke="#171717" stroke-width="0.9687" stroke-linecap="round" stroke-linejoin="round"/>
<path d="M50.6968 206.862L97.4224 206.432L146.279 205.98" stroke="#171717" stroke-width="0.9687" stroke-linecap="round" stroke-linejoin="round"/>
<path d="M91.2681 165.377L91.7364 168.5L92.5341 173.821L93.9936 183.57L95.7438 195.234L97.4229 206.432V206.439" stroke="#171717" stroke-width="0.9687" stroke-linecap="round" stroke-linejoin="round"/>
<path d="M22.8875 103.836C22.8875 103.836 21.8705 108.89 22.0382 116.078C22.0802 117.867 22.1933 119.788 22.4195 121.8C22.6163 123.582 22.8974 125.436 23.2913 127.325C25.1963 136.544 29.6882 146.651 39.5274 153.982C62.7774 171.306 91.2678 168.571 91.2678 168.571" stroke="#171717" stroke-width="0.9687" stroke-linecap="round" stroke-linejoin="round"/>
<path d="M42.718 96.9969C42.5932 99.765 42.6871 102.539 42.9988 105.293C43.1572 106.801 43.3864 108.451 43.7125 110.194C44.0323 111.903 44.4487 113.698 44.9848 115.532C49.1602 129.795 60.6847 146.344 92.1109 141.662L92.1817 141.652C101.162 140.306 108.828 138.388 115.309 135.998C139.343 127.141 147.148 111.835 145.624 95.4177C145.511 94.1874 145.346 92.9538 145.13 91.7169C144.891 90.3249 144.589 88.929 144.223 87.5289C143.481 84.6966 142.543 81.9192 141.416 79.2171" stroke="#171717" stroke-width="0.9687" stroke-linecap="round" stroke-linejoin="round"/>
<path d="M162.538 128.258C158.466 138.255 151.51 146.813 142.557 152.842" stroke="#171717" stroke-width="0.9687" stroke-linecap="round" stroke-linejoin="round"/>
<path d="M160.792 70.5564C161.845 73.5621 162.737 76.6227 163.461 79.7241C163.839 81.2805 164.221 83.0016 164.582 84.8583C164.886 86.4276 165.176 88.0983 165.435 89.844C166.972 100.18 167.437 113.3 163.584 125.668" stroke="#171717" stroke-width="0.9687" stroke-linecap="round" stroke-linejoin="round"/>
<path d="M198.856 90.5193L192.214 119.329L191.791 121.157L173.101 125.262L173.889 122.326L190.422 60.753L208.657 63.0618L226.436 123.514L235.404 125.946L228.261 127.464L246.192 187.794L254.701 189.16L246.192 190.984L267.353 255.299L231.451 259.862L227.411 244.791L213.533 193.038" stroke="#171717" stroke-width="0.9687" stroke-linecap="round" stroke-linejoin="round"/>
<path d="M208.427 121.732L199.182 90.4224L190.421 60.753" stroke="#171717" stroke-width="0.9687" stroke-linecap="round" stroke-linejoin="round"/>
<path d="M226.437 123.514L210.482 128.681L208.431 121.732" stroke="#171717" stroke-width="0.9687" stroke-linecap="round" stroke-linejoin="round"/>
<path d="M228.261 127.464L212.076 131.872L203.348 131.158L201.21 130.984L188.933 129.983L167.779 128.258L162.573 127.832L158.056 127.464L163.584 125.669L173.889 122.326" stroke="#171717" stroke-width="0.9687" stroke-linecap="round" stroke-linejoin="round"/>
<path d="M192.275 119.343L208.427 121.732H208.431" stroke="#171717" stroke-width="0.9687" stroke-linecap="round" stroke-linejoin="round"/>
<path d="M188.933 129.982L195.35 154.811" stroke="#171717" stroke-width="0.9687" stroke-linecap="round" stroke-linejoin="round"/>
<path d="M201.21 130.984L195.349 154.811V154.815L187.535 186.576L180.699 187.946L179.43 182.088L174.367 158.69L167.779 128.258L150.022 174.654L147.81 180.438L145.808 185.666L164.437 182.475L165.26 180.438L174.011 158.767" stroke="#171717" stroke-width="0.9687" stroke-linecap="round" stroke-linejoin="round"/>
<path d="M212.457 161.961L206.335 183.157L206.225 183.538L187.535 186.576" stroke="#171717" stroke-width="0.9687" stroke-linecap="round" stroke-linejoin="round"/>
<path d="M203.348 131.158L212.806 161.854L219.864 184.758L221.876 191.288L246.192 187.794" stroke="#171717" stroke-width="0.9687" stroke-linecap="round" stroke-linejoin="round"/>
<path d="M147.81 180.438L133.892 185.514L145.72 186.602L154.875 187.445L176.5 189.431L184.309 190.151L211.265 192.628L213.552 192.841L224.77 193.871L246.192 190.984" stroke="#171717" stroke-width="0.9687" stroke-linecap="round" stroke-linejoin="round"/>
<path d="M211.266 192.628L196.341 249.257L195.74 251.54L227.412 244.791" stroke="#171717" stroke-width="0.9687" stroke-linecap="round" stroke-linejoin="round"/>
<path d="M132.526 237.406L146.628 206.138L154.83 187.945L160.684 228.616L163.297 246.751L184.267 190.619L194.345 239.569L196.341 249.257" stroke="#171717" stroke-width="0.9687" stroke-linecap="round" stroke-linejoin="round"/>
<path d="M132.526 237.406L160.336 228.668" stroke="#171717" stroke-width="0.9687" stroke-linecap="round" stroke-linejoin="round"/>
<path d="M163.297 246.751L194.345 239.569H194.348" stroke="#171717" stroke-width="0.9687" stroke-linecap="round" stroke-linejoin="round"/>
<path d="M22.9878 103.62C24.5184 102.993 26.0436 102.389 27.5634 101.808C31.1832 100.428 34.7934 99.1863 38.5104 98.082C39.8019 97.6977 41.1087 97.3305 42.4305 96.9807" stroke="#171717" stroke-width="0.9687" stroke-linecap="round" stroke-linejoin="round"/>
<path d="M38.4648 98.1369C38.481 98.1174 38.4969 98.1012 38.5101 98.082C40.9473 95.1996 42.72 91.8162 43.7025 88.1718C43.8768 87.5193 43.9641 86.6799 43.3989 86.3052C42.6756 85.821 41.7939 86.6313 41.2989 87.3516C39.7458 89.6184 38.1903 91.8852 36.633 94.152C35.8773 89.9865 34.3272 74.619 31.3758 75.1131C29.5386 75.0873 30.2781 86.1309 31.5633 91.6818C30.6033 87.8262 29.319 83.9718 28.3599 80.115C28.092 79.0461 27.1038 75.6264 25.0566 76.635C23.91 77.1969 24.2976 78.9792 24.6303 80.2128C25.7345 84.3072 26.8378 88.4037 27.9402 92.5029C26.5477 88.3905 24.9052 84.3669 23.022 80.4549C22.5378 79.4508 21.708 78.2784 20.6163 78.5109C19.8963 78.6627 19.4379 79.428 19.3959 80.1642C19.3539 80.9004 19.6251 81.6141 19.8963 82.2987C22.4085 88.6953 24.9229 95.0913 27.4395 101.486" stroke="#171717" stroke-width="0.9687" stroke-linecap="round" stroke-linejoin="round"/>
<path d="M141.103 78.8523C141.126 78.8394 141.148 78.8223 141.171 78.8103C142.111 78.2355 143.065 77.6823 144.035 77.1507C147.564 75.2085 151.253 73.5741 155.063 72.2649C156.919 71.6223 158.802 71.0595 160.71 70.5762" stroke="#171717" stroke-width="0.9687" stroke-linecap="round" stroke-linejoin="round"/>
<path d="M155.024 72.1518C154.955 66.3204 154.253 60.5136 152.928 54.8337C152.696 53.8437 152.127 52.6155 151.116 52.7253C150.846 52.7763 150.596 52.9026 150.395 53.0901C150.193 53.2776 150.05 53.5185 149.98 53.7843C149.847 54.3186 149.819 54.8736 149.896 55.4184C150.196 59.277 150.496 63.1347 150.796 66.9915C149.827 63.2424 148.861 59.4912 147.896 55.7379C147.716 55.0404 147.525 54.3204 147.066 53.7648C146.608 53.2092 145.804 52.8705 145.152 53.1675C144.15 53.6262 144.202 55.0437 144.412 56.1222L146.795 68.3769C145.713 64.3758 144.593 60.3006 142.323 56.8359C141.926 56.2287 141.464 55.6185 140.805 55.3149C140.147 55.0113 139.242 55.1211 138.861 55.7412C138.512 56.3031 138.709 57.0327 138.916 57.6612C140.372 62.1174 141.828 66.576 143.282 71.0364C140.853 68.5662 136.097 66.0699 133.724 68.3499C137.085 71.1501 140.448 73.95 143.811 76.7499" stroke="#171717" stroke-width="0.9687" stroke-linecap="round" stroke-linejoin="round"/>
<path d="M92.1848 141.872C92.159 141.801 92.1332 141.734 92.1107 141.662C91.7231 140.58 91.3484 139.472 91.3226 138.326C91.3001 137.102 91.7393 135.804 92.7404 135.101C93.3731 134.717 94.0754 134.461 94.8068 134.348C94.8296 134.345 94.8488 134.339 94.8716 134.335C99.7991 133.244 104.726 132.154 109.651 131.065C110.229 130.936 110.811 130.81 111.388 130.681C111.869 130.544 112.369 130.494 112.867 130.531C113.894 130.676 114.689 131.581 115.015 132.569C115.341 133.556 115.289 134.622 115.234 135.659" stroke="#171717" stroke-width="0.9687" stroke-linecap="round" stroke-linejoin="round"/>
<path d="M94.849 134.232C93.6511 128.575 92.4532 122.918 91.255 117.263C90.7738 114.986 90.2917 112.71 89.8084 110.433C89.3758 108.383 88.972 106.11 90.0313 104.305C91.042 102.58 93.0859 101.795 94.9846 101.175C99.8251 99.5868 104.746 98.2401 109.716 97.1325C109.863 97.095 110.014 97.0734 110.166 97.068C110.285 97.0656 110.403 97.092 110.508 97.1454C110.812 97.3038 110.909 97.6854 110.973 98.0172C112.078 103.623 113.181 109.23 114.283 114.838C114.551 116.198 114.807 117.673 114.209 118.926C113.515 120.386 111.878 121.119 110.796 122.32C109.63 123.608 109.155 125.407 109.149 127.144C109.142 128.882 109.227 129.301 109.637 130.99" stroke="#171717" stroke-width="0.9687" stroke-linecap="round" stroke-linejoin="round"/>
<path d="M102.77 117.42C103.803 117.85 104.995 116.91 105.257 115.818C105.518 114.727 105.137 113.598 104.759 112.541C104.01 110.432 103.26 108.322 102.509 106.211C102.235 105.433 101.973 104.509 102.445 103.831C102.784 103.343 103.397 103.146 103.969 102.982C105.393 102.568 106.817 102.156 108.241 101.745" stroke="#171717" stroke-width="0.9687" stroke-linecap="round" stroke-linejoin="round"/>
<path d="M108 106.478C107.826 106.311 107.618 106.185 107.389 106.109C107.16 106.033 106.917 106.01 106.678 106.04C106.439 106.07 106.21 106.154 106.007 106.284C105.805 106.415 105.634 106.589 105.507 106.794" stroke="#171717" stroke-width="0.9687" stroke-linecap="round" stroke-linejoin="round"/>
<path d="M98.6561 107.837C98.5214 107.592 98.3207 107.389 98.0771 107.251C97.8332 107.114 97.5557 107.047 97.2761 107.059C96.9962 107.071 96.7256 107.16 96.494 107.318C96.2627 107.475 96.0797 107.694 95.9663 107.95" stroke="#171717" stroke-width="0.9687" stroke-linecap="round" stroke-linejoin="round"/>
<path d="M104.026 120.118C103.02 120.478 101.915 120.448 100.93 120.034C100.391 119.813 99.9063 119.48 99.5055 119.058C99.2406 118.774 98.9694 118.432 98.5818 118.398C98.1717 118.366 97.8294 118.715 97.6164 119.07C97.2126 119.786 97.0608 120.617 97.1856 121.43C97.3104 122.243 97.7043 122.99 98.3043 123.552C98.8215 124.003 99.4608 124.291 100.141 124.379C100.612 124.451 101.092 124.43 101.555 124.316C102.017 124.201 102.452 123.997 102.835 123.714" stroke="#171717" stroke-width="0.9687" stroke-linecap="round" stroke-linejoin="round"/>
<path d="M100.145 124.354C99.8937 123.627 99.834 122.848 99.9717 122.092C100.109 121.335 100.439 120.626 100.929 120.034C100.936 120.028 100.942 120.018 100.949 120.012" stroke="#171717" stroke-width="0.9687" stroke-linecap="round" stroke-linejoin="round"/>
<path d="M110.568 96.6933C114.142 93.3777 116.596 89.0316 117.588 84.258C117.834 83.0697 117.84 81.5487 116.774 80.9676C115.664 80.3637 114.353 81.2838 113.497 82.2108C111.519 84.3591 109.966 86.8629 108.921 89.5893C109.584 86.7861 110.002 83.9304 110.171 81.0546C110.245 79.8114 110.074 78.2517 108.908 77.8146C108.204 77.55 107.384 77.8566 106.848 78.3846C106.344 78.945 105.967 79.6068 105.741 80.3253C104.602 83.3169 103.956 86.4726 103.826 89.6703C103.713 86.877 103.567 83.9613 102.185 81.5328C101.78 80.7327 101.143 80.073 100.357 79.6407C99.5533 79.2564 98.5006 79.2918 97.858 79.9086C97.0636 80.6676 97.1476 81.9429 97.3318 83.0286C97.7653 85.59 98.4355 88.1055 99.3337 90.5427C98.5975 89.4675 98.2003 88.2027 97.6804 87.0027C97.1605 85.8027 96.463 84.6132 95.3458 83.9448C94.2286 83.2764 92.5978 83.3118 91.7809 84.3324C90.8605 85.4787 91.3384 87.1578 91.8583 88.5324C92.5945 90.4764 93.3286 92.4204 94.0606 94.3644C91.7293 95.2362 89.1877 95.3751 86.7982 96.0855C84.4087 96.7959 82.0063 98.3037 81.3382 100.7C80.4661 103.816 82.7944 106.838 83.5306 109.987C83.8216 111.261 83.8534 112.581 83.6242 113.868C83.3953 115.155 82.9099 116.383 82.1971 117.478C81.8191 118.048 81.3703 118.609 81.2509 119.284C81.1315 119.959 81.5092 120.784 82.1905 120.853C82.6183 120.846 83.0278 120.678 83.3368 120.381C84.4801 119.489 85.4239 118.367 86.1076 117.088C86.1463 118.131 85.7008 119.138 85.678 120.181C85.6552 121.224 86.3434 122.455 87.3829 122.364C88.0612 122.306 88.5583 121.721 88.9525 121.166C89.83 119.933 90.6001 118.627 91.2547 117.262C91.2775 117.22 91.2967 117.178 91.3147 117.136" stroke="#171717" stroke-width="0.9687" stroke-linecap="round" stroke-linejoin="round"/>
<path d="M142.401 152.629C142.427 152.709 142.456 152.787 142.482 152.869C142.872 154.028 143.264 155.187 143.657 156.343C144.597 159.12 145.537 161.898 146.477 164.677C147.581 167.949 148.688 171.221 149.796 174.494L149.826 174.581" stroke="#171717" stroke-width="0.9687" stroke-linecap="round" stroke-linejoin="round"/>
<path d="M92.6309 173.808C94.6943 170.666 97.0709 167.285 100.701 166.314C103.775 165.487 106.995 166.604 109.998 167.664C113.001 168.723 116.285 169.734 119.301 168.72C122.982 167.483 125.039 163.689 127.809 160.969C129.854 159 132.346 157.556 135.072 156.762C137.798 155.968 140.675 155.847 143.458 156.409" stroke="#171717" stroke-width="0.9687" stroke-linecap="round" stroke-linejoin="round"/>
<path d="M94.1445 183.548C94.8045 181.76 95.9055 180.168 97.3449 178.919C98.7843 177.671 100.516 176.806 102.379 176.405C105.859 175.691 109.434 176.679 112.893 177.506C116.351 178.333 120.078 178.998 123.384 177.693C128.448 175.694 130.831 169.843 135.274 166.695C136.848 165.595 138.643 164.852 140.534 164.518C142.425 164.185 144.366 164.269 146.221 164.764" stroke="#171717" stroke-width="0.9687" stroke-linecap="round" stroke-linejoin="round"/>
<path d="M95.9697 195.201C97.9461 192.505 99.8382 190.271 102.506 188.256C105.173 186.241 108.326 184.781 111.654 184.465C116.591 183.993 121.719 186.018 126.446 184.513C130.602 183.186 133.463 179.44 137.135 177.086C140.834 174.737 145.271 173.837 149.593 174.561" stroke="#171717" stroke-width="0.9687" stroke-linecap="round" stroke-linejoin="round"/>
<path d="M144.254 87.5193C150.238 83.9889 156.71 81.3621 163.461 79.7244C163.484 79.7178 163.51 79.7115 163.532 79.7049" stroke="#171717" stroke-width="0.9687" stroke-linecap="round" stroke-linejoin="round"/>
<path d="M145.156 91.7142C151.475 88.4946 157.614 86.1792 164.582 84.8586C164.589 84.8586 164.592 84.8553 164.598 84.8553" stroke="#171717" stroke-width="0.9687" stroke-linecap="round" stroke-linejoin="round"/>
<path d="M145.901 95.3919C152.631 93.5418 158.724 91.6947 165.434 89.8443C165.515 89.8218 165.599 89.7993 165.68 89.7765" stroke="#171717" stroke-width="0.9687" stroke-linecap="round" stroke-linejoin="round"/>
<path d="M22.0962 116.078C28.2219 111.105 34.9901 107.648 42.5333 105.328" stroke="#171717" stroke-width="0.9687" stroke-linecap="round" stroke-linejoin="round"/>
<path d="M22.6938 121.77C29.2266 116.968 36.0269 113.297 43.5281 110.229" stroke="#171717" stroke-width="0.9687" stroke-linecap="round" stroke-linejoin="round"/>
<path d="M23.501 127.28C29.7494 122.039 36.6662 118.303 44.3969 115.706" stroke="#171717" stroke-width="0.9687" stroke-linecap="round" stroke-linejoin="round"/>
<path d="M165.26 180.438L179.43 182.088" stroke="#171717" stroke-width="0.9687" stroke-linecap="round" stroke-linejoin="round"/>
<path d="M206.338 183.156L219.865 184.758" stroke="#171717" stroke-width="0.9687" stroke-linecap="round" stroke-linejoin="round"/>
<path d="M176.501 189.431L180.699 187.945" stroke="#171717" stroke-width="0.9687" stroke-linecap="round" stroke-linejoin="round"/>
<path d="M239.364 82.7223C236.987 87.7899 236.239 93.4692 237.221 98.9793C237.528 100.672 238.031 102.399 239.173 103.686C240.315 104.973 242.24 105.694 243.816 105.004C245.391 104.313 246.088 101.946 244.841 100.76C243.385 99.3744 240.716 100.747 240.267 102.707C239.819 104.666 240.875 106.651 242.115 108.233C245.502 112.553 250.64 115.738 252.362 120.951C252.929 122.67 253.039 124.674 252.046 126.187C251.053 127.7 248.696 128.343 247.366 127.117" stroke="#171717" stroke-width="0.9687" stroke-linecap="round" stroke-linejoin="round"/>
<path d="M259.149 162.2L259.794 156.269" stroke="#171717" stroke-width="0.9687" stroke-linecap="round" stroke-linejoin="round"/>
<path d="M256.526 158.895L261.996 158.827" stroke="#171717" stroke-width="0.9687" stroke-linecap="round" stroke-linejoin="round"/>
<path d="M227.12 56.1957L224.385 51.8649" stroke="#171717" stroke-width="0.9687" stroke-linecap="round" stroke-linejoin="round"/>
<path d="M223.474 55.74L228.214 51.93C228.186 51.9867 228.147 52.0371 228.098 52.0773C228.05 52.1175 227.993 52.1469 227.932 52.1637C227.871 52.1802 227.807 52.1835 227.745 52.1733C227.682 52.1631 227.623 52.1397 227.57 52.1046" stroke="#171717" stroke-width="0.9687" stroke-linecap="round" stroke-linejoin="round"/>
<path d="M205.934 53.2362C206.553 51.3726 207.552 49.6584 208.868 48.2019" stroke="#171717" stroke-width="0.9687" stroke-linecap="round" stroke-linejoin="round"/>
<path d="M200.046 52.32C199.76 44.4219 199.706 36.5199 199.882 28.6136" stroke="#171717" stroke-width="0.9687" stroke-linecap="round" stroke-linejoin="round"/>
<path d="M194.07 51.18L190.423 45.9375" stroke="#171717" stroke-width="0.9687" stroke-linecap="round" stroke-linejoin="round"/>
<path d="M14.7367 134.93C13.7632 135.728 12.9987 136.751 12.5089 137.911C12.0192 139.071 11.8191 140.332 11.9259 141.586C12.0327 142.841 12.4431 144.05 13.1217 145.11C13.8004 146.17 14.7268 147.049 15.8212 147.671C17.6419 148.706 20.1178 148.891 21.7204 147.543C23.323 146.194 23.2699 143.139 21.3517 142.298C19.765 141.602 17.7922 142.797 17.2882 144.455C16.7842 146.114 17.485 147.954 18.6577 149.23C19.8304 150.506 21.4114 151.319 22.9792 152.057C24.7429 152.887 26.7223 153.856 27.3175 155.712C27.5529 156.446 27.5331 157.238 27.2614 157.959C26.9898 158.681 26.4821 159.289 25.8209 159.686C25.1598 160.082 24.384 160.243 23.6196 160.143C22.8552 160.043 22.1472 159.687 21.6106 159.134" stroke="#171717" stroke-width="0.9687" stroke-linecap="round" stroke-linejoin="round"/>
<path d="M67.9126 54.3C66.7114 55.0326 65.6911 56.0265 64.927 57.2076C64.1632 58.389 63.6754 59.7273 63.4999 61.1232C63.3244 62.5191 63.4657 63.9363 63.9136 65.2701C64.3612 66.6036 65.104 67.8192 66.0862 68.8263C67.0939 69.8586 68.3923 70.6707 69.8263 70.8285C71.2603 70.9863 72.8215 70.3887 73.5646 69.1521C74.3077 67.9155 73.9873 66.075 72.7366 65.3562C71.2528 64.5036 69.199 65.6118 68.668 67.2387C68.137 68.8656 68.818 70.6839 69.928 71.9859C71.1208 73.3836 72.8263 74.4159 73.5124 76.1214C73.8928 77.0673 73.9087 78.1206 73.5571 79.0776C73.2055 80.0343 72.511 80.8266 71.6086 81.3009C70.7062 81.7752 69.6598 81.8979 68.6722 81.6447C67.6846 81.3918 66.826 80.7813 66.2629 79.9314" stroke="#171717" stroke-width="0.9687" stroke-linecap="round" stroke-linejoin="round"/>
<path d="M122.78 62.148L124.814 57.8091" stroke="#171717" stroke-width="0.9687" stroke-linecap="round" stroke-linejoin="round"/>
<path d="M125.89 61.0284L121.794 58.7364" stroke="#171717" stroke-width="0.9687" stroke-linecap="round" stroke-linejoin="round"/>
<path d="M47.689 185.406L49.9627 182.211" stroke="#171717" stroke-width="0.9687" stroke-linecap="round" stroke-linejoin="round"/>
<path d="M50.012 185.665C49.3412 184.479 48.4052 183.465 47.2769 182.702" stroke="#171717" stroke-width="0.9687" stroke-linecap="round" stroke-linejoin="round"/>
<path d="M87.1371 51.4359L89.2158 53.1963C89.2785 53.2494 89.3235 53.3205 89.3445 53.4C89.3658 53.4792 89.3619 53.5632 89.3337 53.6406C89.3058 53.7177 89.2548 53.7846 89.1876 53.832C89.1204 53.8794 89.0403 53.9049 88.9581 53.9055L86.2338 53.9193C86.1543 53.9196 86.0769 53.9436 86.0109 53.9883C85.9449 54.0327 85.8939 54.0957 85.8636 54.1692L84.8316 56.6892C84.8004 56.7654 84.7467 56.8299 84.6777 56.8746C84.6087 56.9193 84.5277 56.9415 84.4455 56.9388C84.3633 56.9358 84.2841 56.9079 84.2181 56.8587C84.1524 56.8095 84.1032 56.7411 84.0774 56.6631L83.2224 54.0765C83.1975 54.0009 83.1507 53.9346 83.088 53.8857C83.0256 53.8368 82.9497 53.8077 82.8705 53.8017L80.1537 53.5992C80.0718 53.5932 79.9935 53.562 79.9296 53.5104C79.866 53.4585 79.8195 53.3883 79.797 53.3091C79.7742 53.2302 79.7763 53.1462 79.8027 53.0682C79.8294 52.9905 79.8792 52.9227 79.9455 52.8741L82.1412 51.2616C82.2054 51.2145 82.254 51.1494 82.2813 51.0747C82.3086 51 82.3128 50.9187 82.2939 50.8416L81.6468 48.1953C81.6273 48.1155 81.6327 48.0315 81.6624 47.955C81.6921 47.8782 81.7446 47.8125 81.8127 47.7666C81.8808 47.7204 81.9615 47.6964 82.0434 47.6976C82.1256 47.6988 82.2057 47.7252 82.2723 47.7732L84.4845 49.3632C84.549 49.4097 84.6258 49.4358 84.7053 49.4388C84.7848 49.4415 84.8634 49.4205 84.9309 49.3788L87.2475 47.9457C87.3174 47.9025 87.399 47.8815 87.4812 47.886C87.5631 47.8905 87.642 47.9202 87.7068 47.9706C87.7716 48.0213 87.8193 48.0906 87.8436 48.1692C87.8679 48.2475 87.8673 48.3318 87.8424 48.4101L87.0138 51.0054C86.9895 51.0813 86.988 51.1626 87.0099 51.2394C87.0318 51.3159 87.0762 51.3843 87.1371 51.4359Z" fill="#171717"/>
<g opacity="0.1">
<path d="M23.8265 104.908C20.5364 111.139 21.0665 119.068 22.5665 125.76C24.1543 132.63 27.1335 139.102 31.32 144.775C40.2819 157.028 53.9937 164.654 68.8131 167.354C77.5248 168.917 86.4351 169.028 95.1831 167.682L91.2798 165.465C93.2445 178.417 95.2335 191.365 97.2468 204.308C97.5123 206.02 99.6588 206.968 101.191 206.547C103.021 206.044 103.694 204.321 103.43 202.603C101.439 189.658 99.4287 176.717 97.4001 163.778C97.1136 161.956 95.0259 161.322 93.4968 161.562C79.9758 163.687 65.6187 162.157 53.3403 155.86C41.535 149.806 32.4108 139.685 28.3448 126.967C27.2525 123.623 26.5597 120.161 26.2808 116.653C26.0108 112.937 26.2187 109.219 26.0819 105.518C26.0399 104.376 24.4133 103.8 23.8283 104.908H23.8265Z" fill="#171717"/>
</g>
<g opacity="0.1">
<path d="M109.939 97.0923C108.832 96.2799 107.419 96.9633 106.219 97.2909C104.728 97.6974 103.254 98.163 101.765 98.5764C99.0104 99.342 96.0284 99.7821 93.3842 100.873C92.2151 101.338 91.1669 102.062 90.3194 102.991C89.4716 103.921 88.847 105.031 88.4921 106.237C87.6788 109.112 88.6721 111.982 88.1654 114.855C87.9185 116.252 88.5422 117.689 90.002 118.09C91.2545 118.434 93.011 117.664 93.2369 116.254C93.6839 113.462 93.1631 110.791 93.2225 107.996C93.2402 107.16 93.3035 106.175 93.8339 105.493C94.4417 104.713 95.5139 104.293 96.4067 103.963C98.8289 103.069 101.361 102.454 103.815 101.65C105.102 101.227 106.392 100.81 107.651 100.309C108.837 99.8388 110.044 99.6075 110.417 98.2674C110.472 98.046 110.455 97.8132 110.37 97.6017C110.284 97.3905 110.133 97.212 109.939 97.092L109.939 97.0923Z" fill="#171717"/>
</g>
</g>
<defs>
<linearGradient id="paint0_linear_28_12856" x1="94.9276" y1="89.844" x2="94.9276" y2="173.822" gradientUnits="userSpaceOnUse">
<stop stop-color="#FF9A34"/>
<stop offset="1" stop-color="#EB6421"/>
</linearGradient>
<linearGradient id="paint1_linear_28_12856" x1="152.316" y1="70.5564" x2="152.316" y2="87.5289" gradientUnits="userSpaceOnUse">
<stop stop-color="#FF9A34"/>
<stop offset="1" stop-color="#EB6421"/>
</linearGradient>
<linearGradient id="paint2_linear_28_12856" x1="125.31" y1="174.317" x2="125.31" y2="206.432" gradientUnits="userSpaceOnUse">
<stop stop-color="#FF9A34"/>
<stop offset="1" stop-color="#EB6421"/>
</linearGradient>
<linearGradient id="paint3_linear_28_12856" x1="32.5092" y1="96.9807" x2="32.5092" y2="116.078" gradientUnits="userSpaceOnUse">
<stop stop-color="#FF9A34"/>
<stop offset="1" stop-color="#EB6421"/>
</linearGradient>
</defs>
</svg>
