<svg width="288" height="288" viewBox="0 0 288 288" fill="none" xmlns="http://www.w3.org/2000/svg">
<mask id="mask0_28_12838" style="mask-type:luminance" maskUnits="userSpaceOnUse" x="12" y="27" width="265" height="234">
<path d="M276.3 27H12V261H276.3V27Z" fill="white"/>
</mask>
<g mask="url(#mask0_28_12838)">
<path fill-rule="evenodd" clip-rule="evenodd" d="M81.8004 176.191C80.7471 176.167 79.6839 176.119 78.6273 176.032C75.6096 175.794 72.6195 175.249 69.8646 174.02C67.2687 172.899 65.0364 171.077 63.4182 168.758C62.7102 167.715 62.1846 166.559 61.8645 165.34C61.5441 164.077 61.4901 162.761 61.7058 161.476L61.7472 161.483L84.1449 131.559L83.9757 131.434C83.9172 130.051 83.8584 128.641 84.1794 127.291C84.4869 125.986 85.1976 124.722 86.3376 124.025C86.3322 124.021 86.328 124.017 86.3235 124.013C86.3193 124.009 86.3148 124.004 86.3097 124.001C85.9854 123.679 85.9197 123.189 85.8678 122.737C85.7307 121.489 85.5948 120.244 85.4604 119.001C85.4112 118.901 85.392 118.789 85.4058 118.679C85.4193 118.569 85.4649 118.465 85.5366 118.38C85.6086 118.295 85.7037 118.234 85.8105 118.202C85.9173 118.171 86.0307 118.171 86.1372 118.204C88.7244 118.308 91.3128 118.414 93.9024 118.521L98.5704 112.286L98.1423 111.964C96.5328 111.893 94.884 111.824 93.2154 111.754C92.6145 111.729 92.0112 111.703 91.4061 111.678C90.1572 111.626 88.9011 111.574 87.645 111.522C84.1494 111.377 80.6538 111.232 77.319 111.088C77.2662 111.086 77.2146 111.083 77.1633 111.081C77.1102 111.078 77.0574 111.075 77.0049 111.074C75.924 111.029 74.7372 111.015 73.8972 111.699C72.9858 112.444 72.8094 113.77 72.8994 114.944C72.9237 115.261 72.9627 115.58 73.0014 115.898C73.083 116.568 73.1649 117.238 73.1136 117.9L72.9375 117.889C61.2396 124.871 49.4214 132.36 41.2347 143.246C33.048 154.132 29.1254 169.238 34.7847 181.627C36.1896 184.662 38.0784 187.449 40.3779 189.879C41.6682 191.249 43.0623 192.517 44.5479 193.673C47.4942 195.956 50.733 197.835 54.1779 199.26C56.0073 200.018 57.8796 200.67 59.7852 201.21C66.4557 203.112 73.4925 203.754 80.4498 203.83C81.6594 203.844 82.8711 203.841 84.0798 203.816C91.5237 203.695 98.9442 202.947 106.263 201.583H106.267C108.362 201.196 110.444 200.757 112.516 200.267C116.729 199.273 120.896 198.074 124.991 196.673C127.384 195.858 129.949 194.805 131.154 192.588C131.931 191.162 131.996 189.536 131.803 187.899C131.679 186.97 131.509 186.049 131.293 185.137C130.388 181.099 129.484 177.061 128.579 173.025C128.441 172.365 128.261 171.715 128.041 171.078C127.664 170.073 127.115 169.172 126.19 168.668C124.65 167.828 122.762 168.454 121.118 169.058C116.061 170.935 110.887 172.481 105.629 173.684C103.15 174.25 100.657 174.724 98.1504 175.107C92.7429 175.949 87.2715 176.312 81.8004 176.191ZM59.2284 158.933C59.3421 158.671 59.2218 158.366 58.9593 158.252C58.6968 158.138 58.3917 158.259 58.278 158.521C55.9173 163.961 57.5364 170.841 62.076 174.656C65.6052 177.623 70.3224 178.614 74.7501 179.154C86.7708 180.61 98.9634 179.523 110.537 175.965C110.811 175.881 110.964 175.591 110.88 175.318C110.796 175.044 110.507 174.891 110.233 174.975C98.7978 178.49 86.7516 179.563 74.8749 178.126C70.4712 177.589 66.0231 176.621 62.7426 173.863C58.5537 170.343 57.0498 163.953 59.2284 158.933Z" fill="url(#paint0_linear_28_12838)"/>
<path d="M244.89 91.7651L248.989 97.6001L230.416 124.68L224.176 133.778L223.93 133.961C223.198 132.903 222.275 131.989 221.21 131.268C220.665 130.9 220.097 130.569 219.507 130.278L219.867 130.257L244.744 93.9722C244.744 93.9722 245.37 92.8598 244.89 91.7651Z" fill="#171717"/>
<path d="M229.44 143.476C230.566 147.289 230.794 151.708 228.501 154.954C226.381 157.961 222.49 159.311 218.809 159.283C215.128 159.256 211.572 158.057 208.088 156.87L208.071 156.856L212.926 149.799L213.147 149.571C213.827 150.223 214.469 150.931 215.108 151.608C216.831 153.438 218.961 155.264 221.475 155.199C223.926 155.13 223.905 153.224 225.105 151.083C226.161 149.205 227.788 146.819 228.975 144.298C229.103 144.025 229.216 143.745 229.313 143.458L229.44 143.476Z" fill="url(#paint1_linear_28_12838)"/>
<path d="M212.002 124.815L213.007 127.004L210.11 131.185L196.831 150.355V146.432L212.002 124.815Z" fill="#171717"/>
<path d="M196.831 150.355L179.702 175.086L179.481 174.935V171.157V171.154L196.831 146.432V150.355Z" fill="#171717"/>
<path d="M208.07 156.856L143.214 251.15L27.4063 214.458L27.3301 208.16C27.4162 208.84 27.8857 209.53 29.0494 210.11C32.9477 212.06 140.838 244.882 140.838 244.882L208.087 147.21L208.117 146.94C208.476 146.98 208.833 147.042 209.184 147.127C210.72 147.506 211.988 148.459 213.144 149.571L212.923 149.799L208.07 156.856Z" fill="#171717"/>
<path d="M179.702 175.086L163.515 198.454L163.281 198.292V194.242L179.481 171.157V174.935L179.702 175.086Z" fill="#171717"/>
<path d="M163.516 198.454L148.61 219.968V215.145V215.141L163.281 194.242V198.292L163.516 198.454Z" fill="#171717"/>
<path d="M148.61 215.141V215.145L134.723 234.932L116.769 229.228V229.225L130.404 209.313L148.61 215.141Z" fill="url(#paint2_linear_28_12838)"/>
<path d="M111.228 70.8279C111.117 72.5268 109.436 73.6524 107.868 74.3151C105.616 75.2343 103.252 75.8508 100.838 76.1487C95.3689 76.8945 89.6203 76.4835 84.0718 76.9842C82.0105 77.1672 79.8214 77.547 78.3229 78.9729C76.2166 80.9721 76.1929 84.2589 76.3129 87.1593C76.4302 89.9283 76.5466 92.6976 76.6615 95.4666C76.0615 96.3885 75.2425 97.2102 74.1997 97.5624C73.1017 97.9317 71.7415 97.6626 71.068 96.7164C70.8031 96.3165 70.6876 95.8359 70.7419 95.3592C70.7962 94.8822 71.0167 94.44 71.365 94.1097C71.5309 94.0233 71.6932 93.9297 71.8519 93.8334C71.6734 93.8937 71.5081 93.9873 71.365 94.1097C70.5043 94.5696 69.5806 94.8999 68.6236 95.0901C68.3785 93.8508 68.9308 92.5905 69.625 91.5339C70.3192 90.4773 71.182 89.5176 71.6725 88.3506C73.195 84.7458 70.7815 80.5233 71.7829 76.7406C72.5803 73.7298 75.4462 71.6373 78.4465 70.8087C81.4468 69.9801 84.6235 70.1871 87.7345 70.2942C89.2984 70.3461 91.0489 70.3047 92.1607 69.2031C92.9929 68.3781 93.2554 67.1631 93.673 66.0681C94.0906 64.9731 94.8781 63.8376 96.0451 63.7308C97.3351 63.6132 98.4067 64.9185 98.5243 66.2097C98.6419 67.5009 98.0926 68.7543 97.5505 69.9351C98.2399 68.8569 99.1735 67.9563 100.276 67.3065C101.379 66.6567 102.619 66.2763 103.897 66.1959C104.1 67.3578 104.004 68.5521 103.618 69.6666C103.232 70.7811 102.569 71.7789 101.69 72.5661C103.061 71.6073 104.623 70.9557 106.269 70.6557C107.915 70.3557 109.607 70.4145 111.228 70.8279Z" fill="#171717"/>
<path d="M96.9643 222.934L116.769 229.229L134.724 234.932L148.61 215.145V219.968L136.194 237.895L38.3095 206.945L36.8491 203.837L53.8744 209.248L75.4057 216.087L96.9643 222.934Z" fill="#171717"/>
<path d="M86.3374 124.024C86.3269 124.017 86.32 124.007 86.3095 124C85.9852 123.679 85.9195 123.188 85.8676 122.736C85.7332 121.49 85.5973 120.245 85.4602 119C85.411 118.901 85.3921 118.789 85.4056 118.679C85.4191 118.568 85.4647 118.464 85.5367 118.379C85.6087 118.295 85.7038 118.233 85.8106 118.201C85.9171 118.17 86.0308 118.171 86.137 118.203C88.7266 118.31 91.315 118.416 93.9022 118.52L89.3896 124.55L89.2411 124.44C89.1478 124.519 89.0512 124.602 88.9543 124.682C88.2016 124.159 87.007 124.635 86.3374 124.024Z" fill="#171717"/>
<path d="M89.3893 124.549L84.1444 131.558L83.9752 131.434C83.9167 130.049 83.8579 128.64 84.1789 127.29C84.4864 125.985 85.1989 124.721 86.3371 124.024C87.0067 124.635 88.2013 124.159 88.954 124.68C89.0509 124.601 89.1475 124.518 89.2408 124.438L89.3893 124.549Z" fill="#171717"/>
<path d="M88.4229 94.9452C89.3139 94.8486 90.2045 94.7496 91.0952 94.6482C90.5354 90.0837 89.9738 85.5192 89.4104 80.9547C89.3504 80.4645 89.3033 79.926 89.576 79.5186C89.8937 79.0488 90.5187 78.9246 91.0815 78.8586C93.0429 78.6402 95.0255 78.7146 96.9647 79.0797" stroke="#171717" stroke-width="1.0359" stroke-linecap="round" stroke-linejoin="round"/>
<path d="M92.9526 83.8827C93.6834 83.52 94.5027 83.3739 95.3136 83.4615C96.1248 83.5488 96.894 83.8665 97.5309 84.3765" stroke="#171717" stroke-width="1.0359" stroke-linecap="round" stroke-linejoin="round"/>
<path d="M85.6293 83.4373C84.8988 82.9339 84.0213 82.6885 83.1357 82.7398C82.2501 82.7911 81.4068 83.1361 80.7393 83.7205" stroke="#171717" stroke-width="1.0359" stroke-linecap="round" stroke-linejoin="round"/>
<path d="M85.0253 100.929C84.5468 101.069 84.0422 101.096 83.5517 101.007C83.0612 100.917 82.5986 100.714 82.2005 100.414C81.8024 100.114 81.4802 99.7241 81.2597 99.2771C81.0392 98.8298 80.9264 98.3372 80.9303 97.8386" stroke="#171717" stroke-width="1.0359" stroke-linecap="round" stroke-linejoin="round"/>
<path d="M71.3657 94.1101C71.0177 94.4404 70.7969 94.8826 70.7426 95.3593C70.6883 95.8363 70.8038 96.3169 71.0687 96.7168C71.7422 97.663 73.1024 97.9321 74.2004 97.5628C75.2432 97.2106 76.0604 96.3889 76.6622 95.467C76.6967 95.4151 76.7279 95.3668 76.7588 95.3149" stroke="#171717" stroke-width="1.0359" stroke-linecap="round" stroke-linejoin="round"/>
<path d="M71.3662 94.11C71.5321 94.0236 71.6944 93.93 71.8531 93.8337C71.6746 93.894 71.5093 93.9876 71.3662 94.11Z" stroke="#171717" stroke-width="1.0359" stroke-linecap="round" stroke-linejoin="round"/>
<path d="M77.3219 111.166C77.3219 111.139 77.3186 111.114 77.3186 111.087C77.0972 105.88 76.8785 100.673 76.6625 95.4666C76.5452 92.6976 76.4291 89.9286 76.3139 87.1593C76.1939 84.2589 76.217 80.9721 78.3239 78.9729C79.8239 77.547 82.0115 77.1672 84.0728 76.9842C89.6228 76.4835 95.3699 76.8942 100.839 76.1487C103.253 75.8508 105.617 75.2343 107.869 74.3151C109.436 73.6524 111.118 72.5268 111.229 70.8279C109.608 70.4142 107.917 70.3554 106.271 70.6551C104.625 70.9548 103.063 71.6061 101.692 72.5646C102.57 71.7774 103.234 70.7796 103.62 69.6651C104.006 68.5506 104.102 67.3563 103.899 66.1944C102.621 66.2748 101.381 66.6552 100.278 67.305C99.1757 67.9545 98.2418 68.8551 97.5527 69.9336C98.0948 68.7528 98.6471 67.5036 98.5265 66.2082C98.4059 64.9128 97.3385 63.6117 96.0473 63.7293C94.8803 63.8361 94.0973 64.9722 93.6752 66.0666C93.2531 67.161 92.9951 68.3766 92.1629 69.2016C91.0511 70.3032 89.3006 70.3446 87.7367 70.2927C84.6257 70.1856 81.4526 69.9819 78.4487 70.8072C75.4448 71.6325 72.5825 73.7283 71.7851 76.7391C70.7837 80.5233 73.1972 84.7458 71.6747 88.3491C71.1842 89.5161 70.3247 90.4791 69.6272 91.5324C68.9297 92.5857 68.3807 93.8493 68.6258 95.0886C69.5828 94.8984 70.5065 94.5681 71.3672 94.1082" stroke="#171717" stroke-width="1.0359" stroke-linecap="round" stroke-linejoin="round"/>
<path d="M91.4102 111.553C91.7702 110.351 91.6202 109.063 91.6001 107.806C91.58 106.55 91.7384 105.196 92.567 104.254C93.2024 103.534 94.138 103.159 95.0569 102.886C96.88 102.344 98.9791 101.975 100.06 100.407C100.833 99.2816 100.864 97.8212 100.864 96.4574C100.868 89.7662 100.872 83.0771 100.875 76.3901" stroke="#171717" stroke-width="1.0359" stroke-linecap="round" stroke-linejoin="round"/>
<path d="M98.1422 111.964C95.9522 111.867 93.6917 111.774 91.406 111.677C86.6825 111.48 81.8522 111.283 77.3189 111.087C77.2118 111.083 77.1089 111.076 77.0048 111.073C75.9248 111.028 74.7362 111.013 73.8971 111.698C72.9857 112.444 72.8096 113.768 72.8993 114.943C72.9752 115.927 73.1894 116.922 73.1135 117.899C73.0991 118.087 73.0724 118.274 73.034 118.458" stroke="#171717" stroke-width="1.0359" stroke-linecap="round" stroke-linejoin="round"/>
<path d="M106.266 201.583C108.358 201.196 110.441 200.758 112.515 200.267C116.728 199.273 120.895 198.074 124.99 196.673C127.383 195.858 129.948 194.805 131.153 192.588C131.93 191.162 131.995 189.536 131.802 187.899C131.679 186.971 131.508 186.049 131.292 185.137C130.387 181.101 129.483 177.064 128.578 173.025C128.44 172.365 128.26 171.715 128.04 171.078C127.663 170.073 127.114 169.172 126.189 168.668C124.649 167.828 122.761 168.454 121.117 169.058C116.06 170.935 110.886 172.481 105.628 173.684C103.153 174.247 100.66 174.721 98.1494 175.107C92.7425 175.949 87.2717 176.312 81.8009 176.191C80.7476 176.167 79.6844 176.119 78.6278 176.032C75.6101 175.794 72.62 175.249 69.8648 174.019C67.2692 172.898 65.0369 171.076 63.4184 168.757C62.7104 167.714 62.1851 166.558 61.8647 165.339C61.5446 164.076 61.4906 162.761 61.706 161.476C62.1479 158.71 63.7604 156.151 66.2981 155.016" stroke="#171717" stroke-width="1.0359" stroke-linecap="round" stroke-linejoin="round"/>
<path d="M72.937 117.889C61.2391 124.87 49.4239 132.362 41.2342 143.245C33.0445 154.128 29.1253 169.238 34.7842 181.626C36.1891 184.661 38.0782 187.448 40.3774 189.878C41.668 191.248 43.0621 192.517 44.5474 193.672C47.4946 195.956 50.7343 197.836 54.1798 199.26C56.0095 200.019 57.8818 200.67 59.7871 201.21C66.4576 203.112 73.4944 203.755 80.4517 203.831C81.6601 203.844 82.8718 203.841 84.0817 203.817C91.5259 203.695 98.9464 202.948 106.265 201.583" stroke="#171717" stroke-width="1.0359" stroke-linecap="round" stroke-linejoin="round"/>
<path d="M147.678 175.58C149.689 174.991 151.809 174.875 153.873 175.242C154.423 175.342 155.384 175.58 155.85 176.55C156.869 178.667 152.315 180.928 148.32 182.862C147.303 183.366 146.25 183.793 145.168 184.139C142.323 185.027 139.357 185.538 136.481 186.297C134.879 186.698 133.313 187.234 131.801 187.899" stroke="#171717" stroke-width="1.0359" stroke-linecap="round" stroke-linejoin="round"/>
<path d="M147.678 175.58C146.701 176.032 145.734 176.433 144.816 176.792C145.718 176.275 146.679 175.869 147.678 175.58Z" stroke="#171717" stroke-width="1.0359" stroke-linecap="round" stroke-linejoin="round"/>
<path d="M146.573 169.548C150.364 168.592 154.65 166.8 155.378 169.983C155.747 171.6 150.52 174.258 147.678 175.58" stroke="#171717" stroke-width="1.0359" stroke-linecap="round" stroke-linejoin="round"/>
<path d="M146.573 169.548C144.957 170.153 143.328 170.722 141.713 171.285C143.27 170.542 144.898 169.96 146.573 169.548Z" stroke="#171717" stroke-width="1.0359" stroke-linecap="round" stroke-linejoin="round"/>
<path d="M128.28 170.985C129.414 166.424 131.848 162.291 135.285 159.087C135.855 158.552 136.452 158.047 137.074 157.574C137.824 157.868 138.078 158.654 138.041 159.698C137.981 161.286 137.246 163.464 136.545 165.391C136.242 166.227 135.945 167.011 135.71 167.68C139.315 165.774 142.947 163.862 146.669 162.18C150.554 160.373 154.609 158.954 158.774 157.944C160.038 157.654 161.74 157.626 162.216 158.831C162.614 159.846 161.774 160.896 160.963 161.621C159.611 162.816 158.157 163.891 156.62 164.835C153.495 166.772 150.063 168.243 146.572 169.548" stroke="#171717" stroke-width="1.0359" stroke-linecap="round" stroke-linejoin="round"/>
<path d="M226.41 138.384C225.711 136.841 224.882 135.362 223.931 133.961C223.198 132.903 222.276 131.99 221.21 131.268C220.666 130.9 220.097 130.569 219.508 130.278C218.303 129.722 217.505 129.794 215.368 129.712C214.159 129.667 212.913 129.625 211.791 130.074C211.17 130.319 210.631 130.736 210.237 131.274C209.912 131.712 209.746 132.248 209.767 132.793C209.833 133.922 210.772 134.833 211.815 135.269C212.395 135.489 213.001 135.637 213.617 135.711C214.26 135.804 214.912 135.866 215.471 135.956C219.439 136.595 220.036 138.386 222.574 141.501" stroke="#171717" stroke-width="1.0359" stroke-linecap="round" stroke-linejoin="round"/>
<path d="M214.554 135.932C214.312 135.877 213.991 135.818 213.611 135.77C211.647 135.522 208.201 135.542 207.331 137.604C206.741 139.009 207.445 140.994 208.726 141.816C210.006 142.638 210.842 142.506 212.279 143.016C215.341 144.114 218.283 145.813 220.279 148.386" stroke="#171717" stroke-width="1.0359" stroke-linecap="round" stroke-linejoin="round"/>
<path d="M208.726 141.816C207.656 141.743 206.547 141.678 205.546 142.068C204.544 142.458 203.691 143.439 203.816 144.505C203.94 145.572 204.972 146.318 206.008 146.608C206.702 146.772 207.407 146.882 208.118 146.938C208.477 146.978 208.833 147.04 209.185 147.125C210.721 147.505 211.988 148.457 213.145 149.569C213.825 150.222 214.467 150.93 215.106 151.606C216.829 153.436 218.959 155.263 221.473 155.197C223.924 155.128 223.903 153.222 225.103 151.081C226.159 149.203 227.786 146.817 228.973 144.297C229.101 144.024 229.214 143.743 229.311 143.457C230.147 140.95 228.969 139.51 230.181 134.842C231.037 131.548 233.837 127.367 230.609 124.812" stroke="#171717" stroke-width="1.0359" stroke-linecap="round" stroke-linejoin="round"/>
<path d="M219.867 130.256L244.744 93.9714C244.744 93.9714 245.369 92.8614 244.889 91.7652C244.579 91.0506 243.795 90.3426 242.062 89.9559C237.676 88.9824 136.194 65.0964 136.194 65.0964C136.194 65.0964 133.839 63.8775 131.896 67.5342C129.952 71.1909 120.688 82.7328 120.688 82.7328L98.5698 112.285L93.9018 118.52L89.3892 124.55L84.1443 131.559L61.7466 161.484" stroke="#171717" stroke-width="1.0359" stroke-linecap="round" stroke-linejoin="round"/>
<path d="M40.3781 189.878L29.0498 204.994C29.0498 204.994 27.1268 206.554 27.3305 208.16C27.4166 208.84 27.8861 209.53 29.0498 210.11C32.948 212.06 140.838 244.882 140.838 244.882L208.087 147.21" stroke="#171717" stroke-width="1.0359" stroke-linecap="round" stroke-linejoin="round"/>
<path d="M224.177 133.778L230.416 124.68L248.988 97.6002L244.889 91.7652L244.551 91.2852" stroke="#171717" stroke-width="1.0359" stroke-linecap="round" stroke-linejoin="round"/>
<path d="M27.3301 208.16L27.406 214.458L143.214 251.15L208.07 156.856L212.924 149.799" stroke="#171717" stroke-width="1.0359" stroke-linecap="round" stroke-linejoin="round"/>
<path d="M133.688 76.3901L120.201 93.9713L220.278 117.889L231.582 99.4475L133.688 76.3901Z" stroke="#171717" stroke-width="1.0359" stroke-linecap="round" stroke-linejoin="round"/>
<path d="M150.443 110.099L171.253 115.071L191.596 119.936L212.002 124.815" stroke="#171717" stroke-width="1.0359" stroke-linecap="round" stroke-linejoin="round"/>
<path d="M63.418 168.757L65.9557 165.405L82.0075 144.208L100.39 119.936L114.373 101.474L131.896 105.662L150.444 110.096" stroke="#171717" stroke-width="1.0359" stroke-linecap="round" stroke-linejoin="round"/>
<path d="M179.481 171.154L196.831 146.432L212.002 124.815L213.007 127.004L210.11 131.185L196.831 150.355L179.702 175.086L163.516 198.454L148.61 219.968L136.194 237.895L38.3095 206.944L36.8491 203.837L44.5486 193.672" stroke="#171717" stroke-width="1.0359" stroke-linecap="round" stroke-linejoin="round"/>
<path d="M148.61 215.141L163.281 194.242L179.481 171.157" stroke="#171717" stroke-width="1.0359" stroke-linecap="round" stroke-linejoin="round"/>
<path d="M36.8491 203.837L53.8744 209.248L75.4057 216.087L96.9643 222.934L116.769 229.229L134.724 234.932L148.61 215.145" stroke="#171717" stroke-width="1.0359" stroke-linecap="round" stroke-linejoin="round"/>
<path d="M153.92 174.962L160.18 165.819L177.157 141.025L191.597 119.936" stroke="#171717" stroke-width="1.0359" stroke-linecap="round" stroke-linejoin="round"/>
<path d="M116.769 229.225L130.404 209.313L144.526 188.683L148.4 183.024" stroke="#171717" stroke-width="1.0359" stroke-linecap="round" stroke-linejoin="round"/>
<path d="M136.588 165.405L140.124 160.274L157.159 135.532L171.253 115.071" stroke="#171717" stroke-width="1.0359" stroke-linecap="round" stroke-linejoin="round"/>
<path d="M96.9644 222.934L110.789 203.033L112.564 200.474" stroke="#171717" stroke-width="1.0359" stroke-linecap="round" stroke-linejoin="round"/>
<path d="M105.603 173.574L119.103 154.463L136.488 129.852L150.443 110.099V110.096" stroke="#171717" stroke-width="1.0359" stroke-linecap="round" stroke-linejoin="round"/>
<path d="M75.4058 216.087L84.0791 203.837" stroke="#171717" stroke-width="1.0359" stroke-linecap="round" stroke-linejoin="round"/>
<path d="M78.6235 176.039L78.6271 176.032L82.8772 170.418L99.1327 148.942L117.529 124.645L131.896 105.662" stroke="#171717" stroke-width="1.0359" stroke-linecap="round" stroke-linejoin="round"/>
<path d="M53.8745 209.248L59.7512 201.33" stroke="#171717" stroke-width="1.0359" stroke-linecap="round" stroke-linejoin="round"/>
<path d="M100.39 119.936L117.529 124.645L136.488 129.852L157.16 135.532L177.158 141.025L196.831 146.432V150.355" stroke="#171717" stroke-width="1.0359" stroke-linecap="round" stroke-linejoin="round"/>
<path d="M156.621 164.835L160.18 165.819L179.481 171.154V171.157V174.935" stroke="#171717" stroke-width="1.0359" stroke-linecap="round" stroke-linejoin="round"/>
<path d="M138.038 159.698H138.042L140.124 160.274L146.618 162.07" stroke="#171717" stroke-width="1.0359" stroke-linecap="round" stroke-linejoin="round"/>
<path d="M82.0073 144.208L99.1328 148.942L119.104 154.463L135.1 158.886" stroke="#171717" stroke-width="1.0359" stroke-linecap="round" stroke-linejoin="round"/>
<path d="M136.474 186.297H136.481L144.526 188.683L163.281 194.242V198.292" stroke="#171717" stroke-width="1.0359" stroke-linecap="round" stroke-linejoin="round"/>
<path d="M65.9556 165.405L82.8774 170.418L98.1213 174.935" stroke="#171717" stroke-width="1.0359" stroke-linecap="round" stroke-linejoin="round"/>
<path d="M106.263 201.583H106.266L110.789 203.032L130.404 209.313L148.61 215.141V215.145V219.968" stroke="#171717" stroke-width="1.0359" stroke-linecap="round" stroke-linejoin="round"/>
<path d="M93.9748 118.524C93.9505 118.524 93.9262 118.52 93.9022 118.52C91.3126 118.414 88.7242 118.308 86.137 118.203C86.0308 118.171 85.9171 118.17 85.8106 118.201C85.7038 118.233 85.6087 118.295 85.5367 118.379C85.4647 118.464 85.4191 118.568 85.4056 118.679C85.3921 118.789 85.411 118.901 85.4602 119C85.5949 120.243 85.7308 121.489 85.8676 122.736C85.9195 123.188 85.9852 123.679 86.3095 124C86.32 124.007 86.3269 124.017 86.3374 124.024C87.007 124.635 88.2016 124.159 88.9543 124.68C89.0512 124.601 89.1478 124.518 89.2411 124.438" stroke="#171717" stroke-width="1.0359" stroke-linecap="round" stroke-linejoin="round"/>
<path d="M86.4581 123.952C86.4167 123.976 86.3753 124 86.3381 124.024C85.1981 124.721 84.4874 125.985 84.1799 127.29C83.8589 128.64 83.9177 130.05 83.9762 131.434" stroke="#171717" stroke-width="1.0359" stroke-linecap="round" stroke-linejoin="round"/>
<path d="M91.8096 116.16C91.6086 115.434 91.6509 114.663 91.9296 113.964" stroke="#171717" stroke-width="1.0359" stroke-linecap="round" stroke-linejoin="round"/>
<path d="M87.2999 116.16C87.2066 115.379 87.2891 114.588 87.5414 113.843" stroke="#171717" stroke-width="1.0359" stroke-linecap="round" stroke-linejoin="round"/>
<path d="M82.2974 116.4C82.4048 115.585 82.5095 114.77 82.6115 113.956" stroke="#171717" stroke-width="1.0359" stroke-linecap="round" stroke-linejoin="round"/>
<path d="M77.8086 116.891C77.8608 116.034 77.9115 115.179 77.9607 114.325" stroke="#171717" stroke-width="1.0359" stroke-linecap="round" stroke-linejoin="round"/>
<path d="M208.087 156.87C211.571 158.058 215.131 159.256 218.808 159.284C222.485 159.311 226.379 157.961 228.5 154.954C230.792 151.708 230.564 147.289 229.439 143.477" stroke="#171717" stroke-width="1.0359" stroke-linecap="round" stroke-linejoin="round"/>
<path d="M36.4814 114.021C33.7352 109.512 32.0189 104.01 33.4601 98.9294C34.7921 94.2341 38.5976 90.6344 42.6956 87.9836C46.7936 85.3328 51.3263 83.3816 55.3013 80.5496C59.2763 77.7176 62.7833 73.7207 63.4733 68.8892C63.7001 67.2992 63.5693 65.5493 62.5667 64.295C61.5641 63.0407 59.4851 62.5883 58.3289 63.7028C56.9144 65.0663 57.9989 67.7708 59.882 68.3273C61.7651 68.8838 63.8039 67.8143 65.0753 66.3173C65.9783 65.2538 66.6077 63.9857 66.9092 62.6237C67.2107 61.2617 67.175 59.8463 66.8057 58.5011C66.4361 57.1559 65.7437 55.9211 64.7888 54.9041C63.8336 53.8874 62.6447 53.1188 61.3253 52.6655" stroke="#171717" stroke-width="1.0359" stroke-linecap="round" stroke-linejoin="round"/>
<path d="M84.8301 43.9255L89.388 48.5101L89.4717 34.9846C92.7978 34.2142 96.0624 33.1975 99.2379 31.9426" stroke="#171717" stroke-width="1.0359" stroke-linecap="round" stroke-linejoin="round"/>
<path d="M93.9321 45.3222C93.0021 43.5255 93.9876 41.0157 95.8917 40.332C96.4707 40.1241 97.2384 40.1307 97.5669 40.6509C97.7286 40.9872 97.776 41.367 97.7016 41.7324L97.1058 48.0042C98.9658 46.692 101.124 45.8655 103.385 45.6" stroke="#171717" stroke-width="1.0359" stroke-linecap="round" stroke-linejoin="round"/>
<path d="M114.06 48.5782L109.964 44.8699" stroke="#171717" stroke-width="1.0359" stroke-linecap="round" stroke-linejoin="round"/>
<path d="M110.144 48.7334L112.886 43.6499" stroke="#171717" stroke-width="1.0359" stroke-linecap="round" stroke-linejoin="round"/>
<path d="M140.94 33.3901C139.941 32.2066 138.885 30.9805 137.451 30.3934C136.018 29.8064 134.097 30.0967 133.332 31.4434C132.539 32.8393 133.31 34.6303 134.393 35.815C135.476 36.9997 136.88 37.9183 137.685 39.3073C138.49 40.6963 138.356 42.8524 136.882 43.489C136.001 43.8694 134.98 43.5709 134.107 43.1725C133.026 42.6793 132.019 42.0394 131.112 41.2711" stroke="#171717" stroke-width="1.0359" stroke-linecap="round" stroke-linejoin="round"/>
<path d="M138.237 27.8101C136.184 33.618 134.54 39.5625 133.317 45.6L133.85 44.8686" stroke="#171717" stroke-width="1.0359" stroke-linecap="round" stroke-linejoin="round"/>
<path d="M158.557 43.05L154.084 37.7976" stroke="#171717" stroke-width="1.0359" stroke-linecap="round" stroke-linejoin="round"/>
<path d="M153.341 42.4253L158.455 37.0601" stroke="#171717" stroke-width="1.0359" stroke-linecap="round" stroke-linejoin="round"/>
<path d="M181.868 61.9273L177.723 53.3977" stroke="#171717" stroke-width="1.0359" stroke-linecap="round" stroke-linejoin="round"/>
<path d="M193.565 63.1501L199.697 29.7673" stroke="#171717" stroke-width="1.0359" stroke-linecap="round" stroke-linejoin="round"/>
<path d="M205.192 66.7346L209.846 62.1272" stroke="#171717" stroke-width="1.0359" stroke-linecap="round" stroke-linejoin="round"/>
<path d="M237.14 70.7035C236.75 69.2671 235.991 67.5274 234.503 67.5094C233.365 67.4956 232.481 68.6494 232.403 69.7837C232.324 70.918 232.843 72.0052 233.41 72.9919C233.976 73.9786 234.617 74.9596 234.826 76.078C234.991 76.9579 234.76 78.0427 233.938 78.3958C233.204 78.7108 232.366 78.2989 231.728 77.8177C230.246 76.6933 229.127 75.1579 228.51 73.4026L229.145 73.3843" stroke="#171717" stroke-width="1.0359" stroke-linecap="round" stroke-linejoin="round"/>
<path d="M227.96 78.0443L237.358 67.2275" stroke="#171717" stroke-width="1.0359" stroke-linecap="round" stroke-linejoin="round"/>
<path d="M256.464 58.5198L257.137 52.6638" stroke="#171717" stroke-width="1.0359" stroke-linecap="round" stroke-linejoin="round"/>
<path d="M253.753 56.0424L259.848 54.8313" stroke="#171717" stroke-width="1.0359" stroke-linecap="round" stroke-linejoin="round"/>
<path d="M242.813 167.274C237.723 168.603 233.333 171.973 230.033 176.069C226.733 180.165 224.429 184.97 222.455 189.846C221.486 192.239 220.577 194.711 220.461 197.291C220.345 199.87 221.132 202.608 223.08 204.303C225.3 206.238 229.038 206.32 231.094 204.213C233.151 202.107 232.756 198.036 230.16 196.644C227.792 195.374 224.657 196.636 223.14 198.854C221.622 201.072 221.413 203.94 221.686 206.614C221.96 209.288 222.663 211.913 222.779 214.598C222.875 217.214 222.419 219.821 221.44 222.249C220.462 224.677 218.981 226.871 217.097 228.688C214.735 230.938 211.494 232.588 208.279 232.036C205.064 231.484 202.32 228.054 203.363 224.964" stroke="#171717" stroke-width="1.0359" stroke-linecap="round" stroke-linejoin="round"/>
<path d="M140.619 260.43C143.193 260.447 145.82 260.456 148.266 259.655C150.713 258.855 152.992 257.089 153.72 254.62" stroke="#171717" stroke-width="1.0359" stroke-linecap="round" stroke-linejoin="round"/>
<path d="M23.9126 225.332C19.6919 224.585 16.4792 220.167 17.0702 215.922" stroke="#171717" stroke-width="1.0359" stroke-linecap="round" stroke-linejoin="round"/>
<path d="M137.125 221.1C135.37 219.725 133.448 218.578 131.404 217.687" stroke="#171717" stroke-width="1.0359" stroke-linecap="round" stroke-linejoin="round"/>
<path d="M134.433 225.026L128.626 221.782" stroke="#171717" stroke-width="1.0359" stroke-linecap="round" stroke-linejoin="round"/>
<path d="M116.367 117.774C116.831 115.116 117.205 112.444 117.489 109.759C115.543 111.585 113.487 113.291 111.333 114.866" stroke="#171717" stroke-width="1.0359" stroke-linecap="round" stroke-linejoin="round"/>
<path d="M130.943 120.923L134.6 115.683" stroke="#171717" stroke-width="1.0359" stroke-linecap="round" stroke-linejoin="round"/>
<path d="M130.44 117.668C132.428 117.633 134.407 117.95 136.285 118.605" stroke="#171717" stroke-width="1.0359" stroke-linecap="round" stroke-linejoin="round"/>
<path d="M150.18 123.093L155.91 123.813" stroke="#171717" stroke-width="1.0359" stroke-linecap="round" stroke-linejoin="round"/>
<path d="M175.066 131.822C173.879 130.125 172.968 128.251 172.366 126.27" stroke="#171717" stroke-width="1.0359" stroke-linecap="round" stroke-linejoin="round"/>
<path d="M170.066 130.71L177.248 127.402" stroke="#171717" stroke-width="1.0359" stroke-linecap="round" stroke-linejoin="round"/>
<path d="M189.295 134.202L198.185 135.582" stroke="#171717" stroke-width="1.0359" stroke-linecap="round" stroke-linejoin="round"/>
<path d="M194.541 132.005C194.666 131.918 194.814 131.869 194.967 131.865C195.12 131.861 195.271 131.901 195.401 131.981" stroke="#171717" stroke-width="1.0359" stroke-linecap="round" stroke-linejoin="round"/>
<path d="M192.221 138.093L193.44 138.214" stroke="#171717" stroke-width="1.0359" stroke-linecap="round" stroke-linejoin="round"/>
<path d="M93.8042 137.165C96.2468 134.767 98.5094 132.193 100.574 129.462C100.72 131.095 100.515 132.74 99.9713 134.286C101.788 133.155 103.703 132.189 105.693 131.4L99.6692 139.541" stroke="#171717" stroke-width="1.0359" stroke-linecap="round" stroke-linejoin="round"/>
<path d="M86.6963 155.707L86.3267 155.745C86.7242 154.918 86.0642 153.885 85.1954 153.591C84.3266 153.296 83.3699 153.547 82.5212 153.894C80.8427 154.581 79.2512 155.735 78.554 157.409C78.3701 157.803 78.2678 158.231 78.2528 158.665C78.2381 159.1 78.311 159.534 78.4676 159.94C78.6575 160.329 78.935 160.669 79.2788 160.933C79.6223 161.197 80.0225 161.377 80.4476 161.459C81.3044 161.617 82.1891 161.49 82.9676 161.099" stroke="#171717" stroke-width="1.0359" stroke-linecap="round" stroke-linejoin="round"/>
<path d="M115.449 138.824L115.134 139.106L121.382 137.198C119.055 139.673 116.863 142.271 114.817 144.982L115.449 144.795" stroke="#171717" stroke-width="1.0359" stroke-linecap="round" stroke-linejoin="round"/>
<path d="M133.716 143.439C134.597 142.724 135.669 142.284 136.798 142.172C137.174 142.136 137.634 142.181 137.806 142.518C137.993 142.883 137.708 143.305 137.432 143.608C135.446 145.798 133.101 147.634 130.5 149.04C132.351 148.975 134.201 149.203 135.981 149.717C135.929 149.673 135.836 149.747 135.867 149.807C135.877 149.819 135.89 149.829 135.905 149.834C135.92 149.839 135.936 149.839 135.951 149.835C135.966 149.83 135.98 149.821 135.99 149.809C136 149.797 136.006 149.782 136.007 149.766" stroke="#171717" stroke-width="1.0359" stroke-linecap="round" stroke-linejoin="round"/>
<path d="M155.937 148.242C157.293 147.594 158.771 147.239 160.273 147.202C160.657 147.171 161.044 147.227 161.404 147.364C161.582 147.436 161.738 147.555 161.853 147.71C161.968 147.864 162.038 148.048 162.056 148.239C162.067 148.801 161.512 149.186 161.017 149.45C159.523 150.247 157.969 150.924 156.37 151.476C157.12 151.427 157.894 151.382 158.596 151.646C159.298 151.91 159.908 152.576 159.858 153.324C159.795 154.277 158.786 154.847 157.887 155.168C155.732 155.936 153.455 156.3 151.168 156.243L152.251 156.128" stroke="#171717" stroke-width="1.0359" stroke-linecap="round" stroke-linejoin="round"/>
<path d="M104.845 156.369L98.3281 161.096L103.23 162.523L102.898 162.586" stroke="#171717" stroke-width="1.0359" stroke-linecap="round" stroke-linejoin="round"/>
<path d="M102.403 160.509L98.4976 165.623" stroke="#171717" stroke-width="1.0359" stroke-linecap="round" stroke-linejoin="round"/>
<path d="M127.14 163.638C125.406 163.524 123.702 163.128 122.096 162.466L119.056 167.223C119.324 167.066 119.63 166.985 119.941 166.988C120.252 166.991 120.556 167.079 120.821 167.242C121.086 167.404 121.302 167.636 121.445 167.911C121.589 168.187 121.655 168.497 121.636 168.807" stroke="#171717" stroke-width="1.0359" stroke-linecap="round" stroke-linejoin="round"/>
<path d="M123.014 201.602C125.801 200.242 128.075 198.019 129.497 195.262" stroke="#171717" stroke-width="1.0359" stroke-linecap="round" stroke-linejoin="round"/>
<path d="M89.5294 209.54C88.4974 210.796 87.7744 212.566 88.4776 214.031C88.7464 214.53 89.1373 214.953 89.6134 215.26C90.0898 215.568 90.6364 215.75 91.2019 215.789C92.3383 215.854 93.4678 215.57 94.4386 214.976C95.5228 214.35 96.4564 213.493 97.174 212.467C97.8913 211.441 98.3749 210.269 98.5906 209.036C99.5965 203.026 91.2067 207.5 89.5294 209.54Z" stroke="#171717" stroke-width="1.0359" stroke-linecap="round" stroke-linejoin="round"/>
<path d="M106.706 219.84C110.983 218.058 115.123 215.962 119.091 213.57" stroke="#171717" stroke-width="1.0359" stroke-linecap="round" stroke-linejoin="round"/>
<path d="M111.106 212.802L112.313 212.209" stroke="#171717" stroke-width="1.0359" stroke-linecap="round" stroke-linejoin="round"/>
<path d="M113.133 222.867L114.758 222.298" stroke="#171717" stroke-width="1.0359" stroke-linecap="round" stroke-linejoin="round"/>
<path d="M72.2781 203.861L70.1655 208.085" stroke="#171717" stroke-width="1.0359" stroke-linecap="round" stroke-linejoin="round"/>
<path d="M44.9351 200.892C46.1717 199.579 47.5316 198.388 48.9956 197.334" stroke="#171717" stroke-width="1.0359" stroke-linecap="round" stroke-linejoin="round"/>
<path d="M53.7932 199.14L53.0801 204.18" stroke="#171717" stroke-width="1.0359" stroke-linecap="round" stroke-linejoin="round"/>
<path d="M172.5 156.365C171.98 158.504 171.358 160.616 170.636 162.697L178.786 153.476C180.715 154.527 182.844 155.161 185.034 155.336" stroke="#171717" stroke-width="1.0359" stroke-linecap="round" stroke-linejoin="round"/>
<path d="M148.148 200.382C147.746 200.082 147.254 199.929 146.752 199.948C146.251 199.968 145.772 200.159 145.395 200.489C145.038 200.842 144.82 201.31 144.78 201.81C144.741 202.31 144.882 202.807 145.179 203.211C145.503 203.594 145.959 203.841 146.456 203.903C146.953 203.965 147.455 203.837 147.863 203.546C148.246 203.224 148.488 202.765 148.536 202.266C148.584 201.768 148.435 201.271 148.12 200.881" stroke="#171717" stroke-width="1.0359" stroke-linecap="round" stroke-linejoin="round"/>
<path d="M168.297 176.116C167.311 176.092 166.411 175.594 165.491 175.242C164.571 174.89 163.472 174.696 162.646 175.233C162.078 175.603 161.758 176.242 161.437 176.838C159.631 180.192 157.045 183.063 153.897 185.208C156.675 185.314 159.427 185.779 162.085 186.594L161.46 186.434" stroke="#171717" stroke-width="1.0359" stroke-linecap="round" stroke-linejoin="round"/>
<path d="M159.364 179.917C160.576 179.681 161.83 179.821 162.96 180.318" stroke="#171717" stroke-width="1.0359" stroke-linecap="round" stroke-linejoin="round"/>
<path d="M72.8771 138.93L72.4346 135.533" stroke="#171717" stroke-width="1.0359" stroke-linecap="round" stroke-linejoin="round"/>
<path d="M63.0137 130.991C63.7781 130.442 64.6715 130.1 65.6069 129.997" stroke="#171717" stroke-width="1.0359" stroke-linecap="round" stroke-linejoin="round"/>
<path d="M60.5699 141.707C59.5415 141.842 58.5488 142.173 57.6455 142.682" stroke="#171717" stroke-width="1.0359" stroke-linecap="round" stroke-linejoin="round"/>
<path d="M49.0351 147.882L48.2227 145.12" stroke="#171717" stroke-width="1.0359" stroke-linecap="round" stroke-linejoin="round"/>
<path d="M59.1083 156.493L58.4585 153.406" stroke="#171717" stroke-width="1.0359" stroke-linecap="round" stroke-linejoin="round"/>
<path d="M46.4003 162.919L43.709 164.206" stroke="#171717" stroke-width="1.0359" stroke-linecap="round" stroke-linejoin="round"/>
<path d="M57.6464 171.116L56.5088 167.705" stroke="#171717" stroke-width="1.0359" stroke-linecap="round" stroke-linejoin="round"/>
<path d="M45.623 178.103L48.2228 176.803" stroke="#171717" stroke-width="1.0359" stroke-linecap="round" stroke-linejoin="round"/>
<path d="M57.969 184.603L57.4824 180.865" stroke="#171717" stroke-width="1.0359" stroke-linecap="round" stroke-linejoin="round"/>
<path d="M71.2997 180.928C70.1039 180.876 68.9081 181.028 67.7627 181.375L68.2145 181.209" stroke="#171717" stroke-width="1.0359" stroke-linecap="round" stroke-linejoin="round"/>
<path d="M67.2739 195.82L67.7485 192.568" stroke="#171717" stroke-width="1.0359" stroke-linecap="round" stroke-linejoin="round"/>
<path d="M79.5146 184.808L81.2021 181.028" stroke="#171717" stroke-width="1.0359" stroke-linecap="round" stroke-linejoin="round"/>
<path d="M88.86 188.314L86.5869 186.687" stroke="#171717" stroke-width="1.0359" stroke-linecap="round" stroke-linejoin="round"/>
<path d="M80.2197 196.941L82.1589 194.496" stroke="#171717" stroke-width="1.0359" stroke-linecap="round" stroke-linejoin="round"/>
<path d="M97.1289 183.14L99.891 179.565" stroke="#171717" stroke-width="1.0359" stroke-linecap="round" stroke-linejoin="round"/>
<path d="M103.466 194.027L101.887 191.587L102.329 191.589" stroke="#171717" stroke-width="1.0359" stroke-linecap="round" stroke-linejoin="round"/>
<path d="M107.201 182.01L110.298 182.952" stroke="#171717" stroke-width="1.0359" stroke-linecap="round" stroke-linejoin="round"/>
<path d="M114.351 194.026L116.951 190.614" stroke="#171717" stroke-width="1.0359" stroke-linecap="round" stroke-linejoin="round"/>
<path d="M122.049 197.601C122.04 188.393 121.179 179.205 119.478 170.156" stroke="#171717" stroke-width="1.0359" stroke-linecap="round" stroke-linejoin="round"/>
<path d="M121.848 192.145L131.735 188.981" stroke="#171717" stroke-width="1.0359" stroke-linecap="round" stroke-linejoin="round"/>
<path d="M121.5 185.569L130.281 183.156" stroke="#171717" stroke-width="1.0359" stroke-linecap="round" stroke-linejoin="round"/>
<path d="M121.012 179.396L129.289 177.373C129.227 177.507 128.972 177.411 129.014 177.27" stroke="#171717" stroke-width="1.0359" stroke-linecap="round" stroke-linejoin="round"/>
<path d="M120.206 173.904L127.999 172.412" stroke="#171717" stroke-width="1.0359" stroke-linecap="round" stroke-linejoin="round"/>
<path d="M78.6053 124.966L75.5186 125.456" stroke="#171717" stroke-width="1.0359" stroke-linecap="round" stroke-linejoin="round"/>
<path d="M22.3481 148.369L25.4783 150.667C25.5727 150.736 25.6437 150.833 25.6815 150.944C25.7194 151.055 25.7224 151.175 25.6901 151.287C25.6578 151.4 25.5918 151.5 25.5009 151.574C25.4101 151.648 25.2988 151.692 25.1819 151.701L21.3095 151.99C21.1966 151.999 21.0886 152.041 20.9993 152.11C20.9101 152.18 20.8435 152.275 20.8079 152.382L19.5899 156.07C19.5531 156.181 19.4831 156.278 19.3893 156.348C19.2955 156.419 19.1825 156.459 19.0654 156.463C18.9483 156.467 18.8327 156.435 18.7343 156.371C18.6358 156.308 18.5592 156.216 18.5147 156.107L17.0429 152.514C16.9999 152.409 16.9269 152.319 16.833 152.256C16.7391 152.192 16.6285 152.158 16.5152 152.158L12.6323 152.139C12.5151 152.138 12.4009 152.102 12.305 152.034C12.2092 151.967 12.1363 151.872 12.0961 151.762C12.056 151.651 12.0506 151.532 12.0807 151.418C12.1107 151.305 12.1748 151.204 12.2642 151.128L15.2267 148.618C15.3133 148.545 15.3762 148.447 15.4074 148.339C15.4387 148.23 15.4368 148.114 15.4022 148.006L14.2199 144.307C14.1842 144.196 14.1835 144.076 14.218 143.964C14.2525 143.852 14.3205 143.753 14.4129 143.681C14.5052 143.608 14.6175 143.566 14.7345 143.56C14.8515 143.554 14.9677 143.583 15.0674 143.645L18.3704 145.687C18.4667 145.747 18.5786 145.776 18.6918 145.772C18.805 145.768 18.9145 145.731 19.0064 145.665L22.1591 143.398C22.2541 143.329 22.3678 143.292 22.4847 143.29C22.6017 143.288 22.7164 143.323 22.8134 143.388C22.9105 143.453 22.9852 143.546 23.0276 143.656C23.07 143.764 23.0781 143.884 23.0507 143.998L22.1294 147.77C22.1023 147.88 22.1086 147.996 22.1476 148.103C22.1865 148.21 22.2563 148.303 22.3481 148.369Z" fill="#171717"/>
<path d="M273.597 80.5737L275.942 83.6684C276.013 83.762 276.054 83.8748 276.059 83.9918C276.063 84.1091 276.032 84.225 275.969 84.3237C275.906 84.4224 275.814 84.4994 275.706 84.5444C275.597 84.5894 275.478 84.6002 275.363 84.575L271.569 83.7483C271.459 83.7243 271.343 83.7332 271.238 83.7746C271.132 83.816 271.042 83.8877 270.977 83.9807L268.757 87.1676C268.69 87.2639 268.595 87.3372 268.485 87.378C268.376 87.4188 268.256 87.4247 268.142 87.3953C268.029 87.3659 267.927 87.3024 267.851 87.2135C267.775 87.1244 267.728 87.0143 267.716 86.8976L267.33 83.0336C267.318 82.9211 267.274 82.8141 267.202 82.7268C267.13 82.6392 267.034 82.575 266.925 82.542L263.209 81.4166C263.097 81.3828 262.998 81.3152 262.925 81.2231C262.853 81.1313 262.81 81.0192 262.803 80.9022C262.796 80.7852 262.825 80.669 262.886 80.5688C262.947 80.4689 263.037 80.39 263.145 80.3429L266.7 78.7799C266.804 78.7346 266.892 78.6593 266.953 78.5636C267.014 78.4682 267.045 78.357 267.043 78.2436L266.965 74.3612C266.962 74.2442 266.996 74.129 267.061 74.0315C267.126 73.934 267.219 73.8587 267.329 73.8158C267.437 73.7729 267.557 73.7645 267.671 73.7918C267.785 73.8191 267.888 73.8806 267.966 73.9682L270.549 76.8671C270.625 76.9517 270.724 77.0124 270.833 77.0409C270.943 77.0694 271.058 77.0645 271.166 77.0273L274.834 75.7532C274.944 75.7148 275.064 75.7112 275.177 75.743C275.29 75.7745 275.39 75.8402 275.465 75.9308C275.539 76.0214 275.584 76.1324 275.594 76.2494C275.603 76.3661 275.576 76.4831 275.517 76.5842L273.558 79.937C273.501 80.0351 273.474 80.1479 273.481 80.2613C273.488 80.3747 273.529 80.4834 273.597 80.5737Z" fill="#171717"/>
<path d="M253.753 140.238L259.848 133.777L248.988 131.822L253.753 140.238Z" stroke="#171717" stroke-width="1.0359" stroke-miterlimit="10"/>
<path d="M229.023 153.203C228.696 151.582 227.889 150.096 226.708 148.938" stroke="#171717" stroke-width="1.0359" stroke-linecap="round" stroke-linejoin="round"/>
<path d="M224.955 157.44L223.755 154.064" stroke="#171717" stroke-width="1.0359" stroke-linecap="round" stroke-linejoin="round"/>
<path d="M217.917 159.051C218.036 157.641 218.329 156.25 218.787 154.911" stroke="#171717" stroke-width="1.0359" stroke-linecap="round" stroke-linejoin="round"/>
<path d="M213.384 155.615C214.021 154.605 214.871 153.746 215.874 153.1" stroke="#171717" stroke-width="1.0359" stroke-linecap="round" stroke-linejoin="round"/>
<path d="M214.073 158.169C212.752 156.438 212.127 154.275 212.324 152.106" stroke="#171717" stroke-width="1.0359" stroke-linecap="round" stroke-linejoin="round"/>
<g opacity="0.1">
<path d="M73.6766 113.675C74.12 116.593 71.789 118.655 69.5366 119.98C67.0001 121.472 64.3712 122.776 61.874 124.339C52.0391 130.618 43.9496 139.28 38.3558 149.52C35.2817 155.148 32.7953 161.272 32.3621 167.73C31.568 179.573 39.2483 190.227 49.1825 195.951C60.2549 202.33 73.8125 203.591 86.3525 203.319C101.378 202.958 116.198 199.748 130.026 193.858C132.839 192.667 130.78 187.672 127.924 188.871C116.117 193.859 103.548 196.803 90.7538 197.575C78.9605 198.258 65.8697 197.758 55.0148 192.601C45.6158 188.134 37.5395 179.227 38.0162 168.262C38.2742 162.332 40.8092 156.625 43.6691 151.519C46.3352 146.799 49.5437 142.407 53.2295 138.432C57.4001 133.901 62.1797 129.971 67.4318 126.756C70.2272 125.049 73.385 123.639 75.3953 120.943C77.1836 118.546 77.9978 115.205 76.2206 112.602C75.2954 111.246 73.4411 112.128 73.676 113.674L73.6766 113.675Z" fill="#171717"/>
</g>
<g opacity="0.1">
<path d="M100.042 76.1795C98.9916 75.6995 97.9062 76.04 96.8016 76.1981C95.4141 76.391 94.0167 76.5017 92.6166 76.5299C90.0066 76.5923 87.4392 75.9884 84.8604 75.6899C82.7355 75.443 80.1945 75.7163 78.5604 77.2376C77.7804 77.9648 77.2188 78.8771 76.5672 79.7114C75.7494 80.7581 75.0408 80.7962 73.9104 81.35C72.5604 82.01 72.5985 84.2 73.9104 84.8714C76.3512 86.1221 78.6855 84.2258 80.0475 82.256C80.6775 81.3449 81.0975 80.1422 81.9945 79.4432C82.92 78.7217 84.2145 78.8732 85.3386 78.9632C88.0392 79.2218 90.7584 79.2254 93.4602 78.974C95.424 78.764 99.0102 78.5903 100.197 76.7783C100.255 76.6784 100.271 76.5596 100.242 76.4477C100.213 76.3361 100.14 76.2404 100.041 76.1819L100.042 76.1795Z" fill="#171717"/>
</g>
</g>
<defs>
<linearGradient id="paint0_linear_28_12838" x1="82.0077" y1="111.056" x2="82.0077" y2="203.838" gradientUnits="userSpaceOnUse">
<stop stop-color="#FF9A34"/>
<stop offset="1" stop-color="#EB6421"/>
</linearGradient>
<linearGradient id="paint1_linear_28_12838" x1="219.169" y1="143.458" x2="219.169" y2="159.284" gradientUnits="userSpaceOnUse">
<stop stop-color="#FF9A34"/>
<stop offset="1" stop-color="#EB6421"/>
</linearGradient>
<linearGradient id="paint2_linear_28_12838" x1="132.69" y1="209.313" x2="132.69" y2="234.932" gradientUnits="userSpaceOnUse">
<stop stop-color="#FF9A34"/>
<stop offset="1" stop-color="#EB6421"/>
</linearGradient>
</defs>
</svg>
