<svg width="288" height="288" viewBox="0 0 288 288" fill="none" xmlns="http://www.w3.org/2000/svg">
<g clip-path="url(#clip0_28_12857)">
<mask id="mask0_28_12857" style="mask-type:luminance" maskUnits="userSpaceOnUse" x="0" y="0" width="288" height="288">
<path d="M288 0H0V288H288V0Z" fill="white"/>
</mask>
<g mask="url(#mask0_28_12857)">
<path fill-rule="evenodd" clip-rule="evenodd" d="M92.8354 167.839C86.7421 166.396 80.6485 164.953 74.7094 163.74C69.4888 162.672 64.0462 161.608 58.8844 162.934C52.6432 164.538 47.7403 169.434 44.2279 174.84C41.4418 179.189 39.274 183.904 37.7863 188.85C36.1384 194.33 35.0941 199.975 34.672 205.682C33.8023 216.521 34.7275 227.415 35.6524 238.251C35.9515 241.745 36.442 245.624 39.1339 247.869C41.3263 249.694 44.3944 249.922 47.2408 250.067C55.6585 250.501 64.0756 250.702 72.4924 250.903C80.8519 251.102 89.2111 251.302 97.5712 251.729L97.5805 251.517C94.4875 236.437 93.4246 221.013 94.4197 205.652C94.7437 200.629 95.2864 195.633 96.0478 190.666C96.7294 186.234 97.6237 181.72 99.9733 177.902C101.364 175.642 102.968 173.28 105.213 172.17C106.506 171.529 107.977 171.346 109.388 171.649L109.394 171.613C103.953 170.471 98.3938 169.155 92.8354 167.839ZM97.1065 176.975C97.2088 176.741 97.102 176.468 96.8677 176.366C96.6337 176.264 96.361 176.371 96.2587 176.605C93.7024 182.456 92.6644 188.83 91.8889 195.102C90.3184 207.808 89.7127 220.615 90.0775 233.413C90.0847 233.668 90.2977 233.869 90.553 233.862C90.8083 233.855 91.0096 233.642 91.0021 233.387C90.6388 220.636 91.2421 207.875 92.8069 195.215C93.5812 188.954 94.6078 182.695 97.1065 176.975Z" fill="url(#paint0_linear_28_12857)"/>
<path d="M129.5 108.532C128.096 107.138 128.747 104.025 130.282 102.777C131.818 101.529 133.816 100.876 135.152 99.4173C136.834 97.5801 137.105 94.8894 137.227 92.4015C137.55 85.7715 137.412 79.1271 136.812 72.5166" stroke="var(--illustration-currentColor)" stroke-width="0.9252" stroke-linecap="round" stroke-linejoin="round"/>
<path d="M133.799 80.3826C133.681 79.9482 133.432 79.5609 133.086 79.2729C132.74 78.9849 132.313 78.8103 131.865 78.7728C131.416 78.7353 130.967 78.8367 130.577 79.0632C130.188 79.2897 129.878 79.6302 129.689 80.0388" stroke="var(--illustration-currentColor)" stroke-width="0.9252" stroke-linecap="round" stroke-linejoin="round"/>
<path d="M133.891 75.4917C131.673 75.5409 129.463 75.7806 127.285 76.2084C126.593 76.3443 125.84 76.5411 125.437 77.1201C124.977 77.7801 125.15 78.6756 125.341 79.458L127.325 87.5904C127.676 89.0283 128.026 90.546 127.613 91.9671C127.2 93.3882 125.728 94.6161 124.305 94.2099" stroke="var(--illustration-currentColor)" stroke-width="0.9252" stroke-linecap="round" stroke-linejoin="round"/>
<path d="M123.787 97.9853C122.313 99.3593 119.437 98.3558 119.137 96.3629" stroke="var(--illustration-currentColor)" stroke-width="0.9252" stroke-linecap="round" stroke-linejoin="round"/>
<path d="M123.15 80.3886C122.887 80.0091 122.52 79.7136 122.093 79.5372C121.667 79.3611 121.198 79.3116 120.744 79.3947C120.29 79.4778 119.87 79.6902 119.533 80.0064C119.197 80.3226 118.959 80.7291 118.848 81.177" stroke="var(--illustration-currentColor)" stroke-width="0.9252" stroke-linecap="round" stroke-linejoin="round"/>
<path d="M115.595 109.071C115.578 100.317 115.561 90.6384 115.544 81.8847C115.54 79.9587 115.598 77.8542 116.843 76.3854C117.996 75.0255 119.873 74.5689 121.624 74.2413C124.524 73.6983 127.446 73.2999 130.391 73.0458C133.601 72.7692 136.888 72.6519 139.887 71.4789C142.886 70.3059 145.609 67.8036 146.001 64.6071C146.077 63.9888 146.036 63.2889 145.592 62.8527C145.128 62.3964 144.362 62.3919 143.762 62.6451C143.182 62.9421 142.648 63.3219 142.177 63.7719C138.294 66.9669 132.945 67.5759 127.922 67.7988C122.899 68.0217 117.644 68.0439 113.199 70.3935C111.205 71.4474 109.394 73.0233 108.543 75.1122C107.631 77.3517 107.917 79.8723 107.673 82.278C107.393 85.0131 106.42 87.6315 104.847 89.8863C103.977 91.1289 102.881 92.6781 103.623 94.0011C104.232 95.0856 105.83 95.2353 106.925 94.6461C108.02 94.0569 108.728 92.9565 109.388 91.9026C108.123 92.7027 107.772 94.5945 108.568 95.8626C109.363 97.1307 111.108 97.6539 112.517 97.1526C113.927 96.6513 115.233 95.2365 115.367 93.7464" stroke="var(--illustration-currentColor)" stroke-width="0.9252" stroke-linecap="round" stroke-linejoin="round"/>
<path d="M108.643 74.1762C108.748 72.4749 107.746 70.9362 106.976 69.4143C106.205 67.8924 105.666 65.9733 106.617 64.5585C107.388 63.4125 108.862 63.0168 110.207 62.7063L128.278 58.5363C129.665 58.2162 131.15 57.9018 132.478 58.4121C133.925 58.968 134.873 60.4221 135.232 61.9308C135.59 63.4395 135.454 65.0142 135.314 66.558" stroke="var(--illustration-currentColor)" stroke-width="0.9252" stroke-linecap="round" stroke-linejoin="round"/>
<path d="M133.47 58.8164C134.377 56.5409 135.291 54.239 135.635 51.8138C135.979 49.3886 135.702 46.7906 134.372 44.7338C133.48 43.3547 132.171 42.2966 130.636 41.7137C129.1 41.1305 127.419 41.0534 125.837 41.4929C124.254 41.9327 122.854 42.866 121.839 44.1575C120.824 45.449 120.248 47.0306 120.196 48.6722C118.982 47.4914 117.457 46.6814 115.799 46.3373C114.141 45.9932 112.419 46.1291 110.836 46.7291C109.252 47.3294 107.873 48.3686 106.859 49.7252C105.846 51.0818 105.241 52.6991 105.114 54.3878C103.376 53.6075 101.474 53.2625 99.5733 53.3834C97.6722 53.504 95.8293 54.0866 94.2042 55.0808C92.5788 56.0747 91.2207 57.4499 90.2472 59.0876C89.2737 60.725 88.7145 62.5751 88.6176 64.4777C88.509 66.6077 89.1831 69.02 91.0725 70.0097C92.6925 70.859 94.716 70.3907 96.3087 69.4895C97.9014 68.5883 99.243 67.2962 100.818 66.3638C102.392 65.4314 104.378 64.8836 106.046 65.6354" stroke="var(--illustration-currentColor)" stroke-width="0.9252" stroke-linecap="round" stroke-linejoin="round"/>
<path d="M108.137 117.843C106.661 116.973 106.208 114.893 106.861 113.309C107.514 111.726 109.037 110.633 110.662 110.091C112.287 109.549 114.026 109.484 115.738 109.422L134.005 108.77C135.055 108.732 136.167 108.71 137.085 109.22C139.167 110.381 139.037 113.369 138.627 115.717" stroke="var(--illustration-currentColor)" stroke-width="0.9252" stroke-linecap="round" stroke-linejoin="round"/>
<path d="M139 115.414C158.193 112.782 176.738 110.148 195.945 112.673C215.153 115.198 234.401 123.556 245.955 139.106C252.401 147.78 256.211 158.895 254.183 169.51C252.154 180.124 243.377 189.691 232.614 190.657C230.171 190.876 227.627 190.651 225.434 189.552C223.241 188.453 221.45 186.379 221.117 183.949" stroke="var(--illustration-currentColor)" stroke-width="0.9252" stroke-linecap="round" stroke-linejoin="round"/>
<path d="M108.569 117.822C94.7394 116.846 80.1894 121.912 68.6799 129.642C57.1704 137.373 47.9799 148.24 41.0307 160.238C38.5092 164.59 36.2406 169.173 35.2707 174.108C34.3008 179.044 34.7346 184.407 37.3377 188.711" stroke="var(--illustration-currentColor)" stroke-width="0.9252" stroke-linecap="round" stroke-linejoin="round"/>
<path d="M94.6592 205.666C104.152 206.255 114.57 206.845 124.063 207.434C126.527 207.587 129.023 207.738 131.446 207.264C133.869 206.79 136.251 205.614 137.669 203.592C139.289 201.282 139.428 198.279 139.465 195.459C139.535 190.102 139.445 184.126 139.195 178.774" stroke="var(--illustration-currentColor)" stroke-width="0.9252" stroke-linecap="round" stroke-linejoin="round"/>
<path d="M139.519 185.525C147.555 185.392 154.974 185.26 163.011 185.127C164.79 185.097 166.625 185.057 168.255 184.343C169.886 183.629 171.277 182.063 171.222 180.283" stroke="var(--illustration-currentColor)" stroke-width="0.9252" stroke-linecap="round" stroke-linejoin="round"/>
<path d="M199.118 178.77C199.377 181.014 207.405 184.905 220.457 183.668C223.849 183.347 227.032 181.221 228.904 178.373C231.044 175.115 231.394 171.823 230.702 167.987C230.252 165.491 224.655 159.057 217.262 160.899C214.802 161.512 214.592 164.172 216.849 165.326" stroke="var(--illustration-currentColor)" stroke-width="0.9252" stroke-linecap="round" stroke-linejoin="round"/>
<path d="M110.903 172.082C105.284 169.977 102.323 174.084 99.974 177.902C97.6253 181.719 96.7292 186.234 96.0482 190.664C92.9516 210.878 93.4694 231.482 97.5782 251.516" stroke="var(--illustration-currentColor)" stroke-width="0.9252" stroke-linecap="round" stroke-linejoin="round"/>
<path d="M111.035 171.953C99.1325 169.523 86.6132 166.168 74.7104 163.738C69.4877 162.672 64.0475 161.608 58.8845 162.935C52.6445 164.538 47.7392 169.436 44.2289 174.838C38.3036 183.958 35.5421 194.841 34.6715 205.681C33.8009 216.521 34.7267 227.416 35.6522 238.252C35.9504 241.744 36.4409 245.624 39.134 247.868C41.324 249.694 44.393 249.922 47.2418 250.069L97.6814 252.66" stroke="var(--illustration-currentColor)" stroke-width="0.9252" stroke-linecap="round" stroke-linejoin="round"/>
<path d="M115.084 172.875C111.846 172.544 108.592 172.397 105.338 172.435" stroke="var(--illustration-currentColor)" stroke-width="0.9252" stroke-linecap="round" stroke-linejoin="round"/>
<path d="M212.443 164.367C221.011 166.03 226.198 168.2 226.198 170.576C226.198 175.805 201.055 180.044 170.04 180.044C139.025 180.044 113.882 175.805 113.882 170.576C113.882 168.637 117.337 166.835 123.265 165.334" stroke="var(--illustration-currentColor)" stroke-width="0.9252" stroke-linecap="round" stroke-linejoin="round"/>
<path d="M121.35 140.842C122.641 142.599 124.585 143.736 126.446 144.872C130.835 147.551 135.062 150.487 139.106 153.662C142.881 156.627 146.514 159.812 150.663 162.226C154.812 164.639 159.608 166.252 164.378 165.721C169.147 165.189 173.814 162.166 175.341 157.617C176.777 153.34 175.268 148.548 172.69 144.845C170.207 141.278 166.652 138.361 162.48 137.144C154.371 134.78 145.56 139.04 137.308 137.237C134.998 136.707 132.814 135.734 130.876 134.371C129.392 133.355 128.102 132.216 126.204 132.323C121.583 132.583 118.28 136.667 121.35 140.842Z" stroke="var(--illustration-currentColor)" stroke-width="0.9252" stroke-linecap="round" stroke-linejoin="round"/>
<path d="M126.237 132.317C126.614 131.17 126.746 129.956 126.625 128.755C126.496 127.546 125.915 126.429 124.998 125.629C124.537 125.241 123.979 124.983 123.384 124.882C122.789 124.782 122.177 124.843 121.614 125.059C120.51 125.537 119.777 126.838 120.094 127.999C118.723 126.922 116.632 126.389 115.285 127.496C114.313 128.295 114.055 129.756 114.467 130.946C114.878 132.136 115.854 133.061 116.953 133.672C118.078 134.238 119.267 134.665 120.495 134.945" stroke="var(--illustration-currentColor)" stroke-width="0.9252" stroke-linecap="round" stroke-linejoin="round"/>
<path d="M140.548 137.492C161.935 110.619 211.728 122.557 213.107 159.034C212.717 183.394 148.862 171.24 131.745 170.444C116.878 169.754 125.407 158.226 132.342 149.106" stroke="var(--illustration-currentColor)" stroke-width="0.9252" stroke-linecap="round" stroke-linejoin="round"/>
<path d="M228.905 178.374C227.034 181.22 223.848 183.348 220.456 183.668C207.406 184.905 199.377 181.013 199.118 178.768L199.108 178.678C215.347 177.019 226.198 174.01 226.198 170.574C226.198 168.641 222.757 166.84 216.849 165.342L216.852 165.326C214.592 164.173 214.801 161.512 217.265 160.898C224.657 159.057 230.25 165.488 230.704 167.987C231.397 171.821 231.045 175.114 228.905 178.374Z" fill="url(#paint1_linear_28_12857)"/>
<path d="M139.228 178.494C148.075 179.475 158.661 180.045 170.038 180.045C170.433 180.045 170.827 180.045 171.222 180.042V180.282C171.278 182.061 169.884 183.627 168.252 184.343C166.621 185.058 164.79 185.1 163.012 185.127C154.976 185.259 147.554 185.392 139.518 185.524L139.422 185.528C139.373 183.227 139.299 180.948 139.197 178.774L139.228 178.494Z" fill="url(#paint2_linear_28_12857)"/>
<path d="M106.927 94.6445C105.833 95.2367 104.232 95.0855 103.625 94.0001C102.882 92.6771 103.979 91.1294 104.849 89.8865C106.421 87.6317 107.393 85.0139 107.673 82.2794C107.917 79.871 107.633 77.3516 108.544 75.113C108.649 74.8526 108.77 74.5994 108.907 74.3546C109.851 72.6368 111.454 71.3141 113.2 70.3919C117.646 68.0453 122.901 68.0219 127.924 67.7987C130.437 67.7339 132.939 67.4387 135.399 66.9167C137.878 66.3401 140.215 65.3867 142.176 63.7715C142.648 63.3215 143.183 62.9426 143.764 62.6459C144.363 62.3933 145.127 62.3963 145.594 62.8526C146.038 63.2873 146.079 63.9875 146.005 64.6073C145.613 67.805 142.89 70.3073 139.89 71.4773C138.884 71.8631 137.845 72.1544 136.785 72.3473C134.691 72.7481 132.526 72.8624 130.392 73.0472C127.453 73.3001 124.531 73.6979 121.626 74.2406C119.874 74.5706 117.999 75.0269 116.846 76.3868C115.6 77.8547 115.542 79.9568 115.545 81.8849C115.554 85.7117 115.56 89.7173 115.569 93.7445H115.372C115.236 95.2337 113.929 96.6491 112.52 97.1519C111.111 97.6547 109.37 97.1303 108.573 95.8619C108.366 95.5154 108.23 95.1308 108.175 94.7309C108.119 94.331 108.144 93.9239 108.249 93.5339C108.669 93.0194 109.05 92.474 109.389 91.9028C108.815 92.2811 108.407 92.8646 108.249 93.5339C107.882 93.9839 107.434 94.3607 106.927 94.6445Z" fill="var(--illustration-currentColor)"/>
<path d="M129.498 108.533C128.096 107.139 128.746 104.025 130.282 102.776C131.817 101.527 133.816 100.877 135.151 99.4182C136.834 97.5804 137.106 94.8882 137.226 92.403C137.549 85.7724 137.411 79.1277 136.813 72.5166" stroke="var(--illustration-currentColor)" stroke-width="0.9252" stroke-linecap="round" stroke-linejoin="round"/>
<path d="M133.798 80.3828C133.679 79.9487 133.431 79.5617 133.085 79.2737C132.739 78.986 132.313 78.8114 131.865 78.7736C131.416 78.7358 130.968 78.8369 130.578 79.0631C130.19 79.289 129.879 79.6292 129.69 80.0375" stroke="var(--illustration-currentColor)" stroke-width="0.9252" stroke-linecap="round" stroke-linejoin="round"/>
<path d="M133.893 75.4923C131.674 75.5424 129.463 75.7818 127.284 76.2078C126.594 76.3434 125.841 76.5408 125.437 77.1207C124.978 77.7807 125.15 78.6747 125.342 79.458C126.002 82.1682 126.663 84.8784 127.325 87.588C127.676 89.028 128.024 90.5451 127.614 91.968C127.204 93.3909 125.727 94.617 124.306 94.2099" stroke="var(--illustration-currentColor)" stroke-width="0.9252" stroke-linecap="round" stroke-linejoin="round"/>
<path d="M123.788 97.9842C122.314 99.3594 119.438 98.3574 119.138 96.3621" stroke="var(--illustration-currentColor)" stroke-width="0.9252" stroke-linecap="round" stroke-linejoin="round"/>
<path d="M123.149 80.3892C122.886 80.01 122.52 79.7145 122.093 79.5381C121.666 79.362 121.198 79.3128 120.744 79.3959C120.29 79.4793 119.869 79.6917 119.533 80.0079C119.197 80.3241 118.959 80.7306 118.848 81.1785" stroke="var(--illustration-currentColor)" stroke-width="0.9252" stroke-linecap="round" stroke-linejoin="round"/>
<path d="M108.247 93.5345C108.142 93.9245 108.117 94.3313 108.172 94.7312C108.228 95.1311 108.363 95.5157 108.57 95.8625C109.366 97.13 111.108 97.6541 112.517 97.1525C113.927 96.6509 115.234 95.2343 115.37 93.7451" stroke="var(--illustration-currentColor)" stroke-width="0.9252" stroke-linecap="round" stroke-linejoin="round"/>
<path d="M108.247 93.5345C108.667 93.02 109.048 92.4746 109.387 91.9034C108.813 92.2814 108.405 92.8652 108.247 93.5345Z" stroke="var(--illustration-currentColor)" stroke-width="0.9252" stroke-linecap="round" stroke-linejoin="round"/>
<path d="M115.595 109.07C115.585 104.145 115.576 98.9277 115.567 93.7443C115.558 89.7171 115.551 85.7115 115.542 81.8847C115.539 79.9575 115.598 77.8545 116.844 76.3866C117.997 75.0267 119.871 74.5704 121.623 74.2404C124.525 73.6977 127.447 73.2999 130.39 73.047C132.524 72.8622 134.688 72.747 136.782 72.3471C137.842 72.1539 138.882 71.8626 139.887 71.4771C142.887 70.3053 145.61 67.8045 146.002 64.6071C146.076 63.9873 146.036 63.2871 145.592 62.8524C145.126 62.3961 144.362 62.3931 143.762 62.6457C143.181 62.9421 142.646 63.3213 142.174 63.7713C140.213 65.3871 137.875 66.3399 135.396 66.9165C132.937 67.4388 130.436 67.7346 127.923 67.8C122.9 68.022 117.645 68.0466 113.199 70.3932C111.453 71.3154 109.85 72.6381 108.906 74.3559C108.769 74.6007 108.648 74.8539 108.543 75.1143C107.633 77.3529 107.916 79.8723 107.673 82.2807C107.392 85.0149 106.42 87.6327 104.848 89.8878C103.978 91.1307 102.881 92.6778 103.624 94.0014C104.231 95.0868 105.832 95.238 106.926 94.6458C107.432 94.362 107.88 93.9852 108.246 93.5358" stroke="var(--illustration-currentColor)" stroke-width="0.9252" stroke-linecap="round" stroke-linejoin="round"/>
<path d="M108.642 74.1755C108.75 72.4736 107.748 70.9355 106.977 69.4145C106.388 68.255 105.935 66.8645 106.175 65.6402C106.248 65.2529 106.399 64.8845 106.619 64.5578C107.387 63.4139 108.861 63.0161 110.208 62.7047C116.231 61.3169 122.254 59.927 128.278 58.5347C129.666 58.214 131.149 57.8996 132.478 58.4114C132.805 58.5371 133.112 58.7105 133.388 58.9262C134.327 59.6882 134.977 60.7478 135.232 61.9298C135.59 63.4376 135.454 65.0132 135.315 66.5552" stroke="var(--illustration-currentColor)" stroke-width="0.9252" stroke-linecap="round" stroke-linejoin="round"/>
<path d="M133.469 58.8161C134.376 56.5406 135.289 54.2402 135.634 51.8132C135.98 49.3862 135.699 46.7903 134.37 44.7332C133.478 43.3541 132.17 42.296 130.634 41.7131C129.099 41.1302 127.418 41.0528 125.835 41.4923C124.253 41.9318 122.852 42.8654 121.838 44.1566C120.823 45.4478 120.248 47.0297 120.195 48.671C118.981 47.4899 117.456 46.6799 115.797 46.3355C114.139 45.9914 112.418 46.1273 110.834 46.7276C109.25 47.3279 107.871 48.3674 106.858 49.7243C105.844 51.0812 105.239 52.6991 105.113 54.3878C103.375 53.6078 101.473 53.2631 99.5722 53.384C97.6714 53.5049 95.8285 54.0875 94.2034 55.0814C92.5783 56.0753 91.2202 57.4505 90.2464 59.0876C89.2729 60.725 88.7131 62.5751 88.6156 64.4774C88.5076 66.6074 89.1799 69.0194 91.0702 70.0094C92.692 70.8575 94.7149 70.3916 96.3061 69.4883C97.8973 68.585 99.2419 67.2959 100.814 66.3647C102.387 65.4335 104.376 64.8845 106.044 65.6369" stroke="var(--illustration-currentColor)" stroke-width="0.9252" stroke-linecap="round" stroke-linejoin="round"/>
<path d="M108.138 117.843C108.111 117.827 108.083 117.809 108.055 117.79C106.645 116.896 106.221 114.861 106.862 113.31C107.512 111.725 109.036 110.633 110.661 110.09C112.246 109.563 113.939 109.486 115.607 109.427C115.65 109.424 115.693 109.424 115.737 109.421L129.514 108.931C131.013 108.875 132.509 108.822 134.004 108.771C135.054 108.733 136.168 108.709 137.084 109.221C139.064 110.324 139.042 113.081 138.685 115.366C138.666 115.483 138.648 115.6 138.625 115.718" stroke="var(--illustration-currentColor)" stroke-width="0.9252" stroke-linecap="round" stroke-linejoin="round"/>
<path d="M138.999 115.413C158.191 112.782 176.736 110.149 195.944 112.671C215.152 115.194 234.4 123.556 245.957 139.107C252.401 147.781 256.213 158.895 254.184 169.508C252.155 180.122 243.379 189.691 232.614 190.656C230.172 190.878 227.628 190.649 225.435 189.552C223.243 188.454 221.451 186.379 221.118 183.949" stroke="var(--illustration-currentColor)" stroke-width="0.9252" stroke-linecap="round" stroke-linejoin="round"/>
<path d="M108.57 117.821C108.397 117.809 108.228 117.796 108.055 117.791C94.3799 116.973 80.0507 122.01 68.6813 129.643C57.1703 137.374 47.9813 148.241 41.0306 160.239C38.5106 164.589 36.242 169.172 35.2706 174.109C34.2992 179.046 34.7339 184.408 37.3364 188.71" stroke="var(--illustration-currentColor)" stroke-width="0.9252" stroke-linecap="round" stroke-linejoin="round"/>
<path d="M94.6602 205.667C104.152 206.256 114.571 206.845 124.062 207.433C126.526 207.588 129.024 207.739 131.444 207.264C133.865 206.789 136.252 205.614 137.67 203.591C139.29 201.285 139.428 198.278 139.465 195.46C139.508 192.28 139.493 188.883 139.422 185.528C139.372 183.227 139.298 180.949 139.197 178.774" stroke="var(--illustration-currentColor)" stroke-width="0.9252" stroke-linecap="round" stroke-linejoin="round"/>
<path d="M139.518 185.524C147.553 185.392 154.976 185.259 163.011 185.127C164.791 185.099 166.626 185.056 168.254 184.344C169.882 183.631 171.279 182.062 171.224 180.283" stroke="var(--illustration-currentColor)" stroke-width="0.9252" stroke-linecap="round" stroke-linejoin="round"/>
<path d="M199.117 178.77C199.376 181.015 207.406 184.906 220.456 183.67C223.848 183.349 227.033 181.221 228.905 178.375C231.045 175.116 231.395 171.823 230.702 167.989C230.249 165.492 224.656 159.059 217.264 160.9C214.8 161.514 214.591 164.175 216.851 165.328" stroke="var(--illustration-currentColor)" stroke-width="0.9252" stroke-linecap="round" stroke-linejoin="round"/>
<path d="M110.902 172.083C110.41 171.896 109.904 171.751 109.388 171.648C107.977 171.345 106.506 171.529 105.213 172.17C102.968 173.28 101.364 175.642 99.9736 177.902C97.624 181.72 96.7297 186.234 96.0481 190.666C95.2867 195.633 94.744 200.629 94.42 205.652C93.4246 221.013 94.4875 236.437 97.5808 251.517" stroke="var(--illustration-currentColor)" stroke-width="0.9252" stroke-linecap="round" stroke-linejoin="round"/>
<path d="M111.034 171.954C110.488 171.843 109.943 171.728 109.394 171.611C97.9878 169.219 86.0664 166.058 74.7096 163.739C69.4896 162.672 64.0464 161.609 58.8846 162.934C52.6446 164.538 47.7405 169.434 44.2281 174.84C41.442 179.189 39.2739 183.904 37.7865 188.85C36.1383 194.331 35.094 199.975 34.6722 205.683C33.8022 216.522 34.7277 227.416 35.6526 238.252C35.9526 241.746 36.4422 245.625 39.1341 247.87C41.3265 249.695 44.3946 249.924 47.241 250.069C64.0188 250.932 80.7936 250.873 97.5714 251.731C97.6083 251.734 97.6455 251.734 97.6824 251.737" stroke="var(--illustration-currentColor)" stroke-width="0.9252" stroke-linecap="round" stroke-linejoin="round"/>
<path d="M115.086 172.876C115.049 172.873 115.015 172.866 114.978 172.863C113.769 172.724 112.338 172.62 110.877 172.546C108.937 172.45 106.942 172.413 105.339 172.435" stroke="var(--illustration-currentColor)" stroke-width="0.9252" stroke-linecap="round" stroke-linejoin="round"/>
<path d="M212.441 164.368C214.03 164.676 215.504 165 216.848 165.342C222.756 166.842 226.197 168.642 226.197 170.575C226.197 174.01 215.346 177.02 199.107 178.679C190.942 179.514 181.417 180.008 171.222 180.042C170.828 180.045 170.433 180.045 170.038 180.045C158.66 180.045 148.074 179.475 139.228 178.494C126.974 177.134 118.062 174.991 115.022 172.484C114.272 171.867 113.882 171.229 113.882 170.575C113.882 168.636 117.338 166.835 123.265 165.333" stroke="var(--illustration-currentColor)" stroke-width="0.9252" stroke-linecap="round" stroke-linejoin="round"/>
<path d="M120.88 135.135C119.872 136.708 119.822 138.762 121.349 140.84C122.641 142.598 124.583 143.736 126.446 144.874C128.512 146.135 130.541 147.452 132.533 148.827C134.775 150.368 136.966 151.981 139.107 153.665C142.881 156.628 146.514 159.815 150.664 162.228C154.815 164.641 159.607 166.255 164.377 165.722C169.147 165.188 173.813 162.166 175.342 157.618C176.776 153.341 175.269 148.549 172.691 144.846C170.208 141.281 166.653 138.361 162.481 137.146C155.419 135.086 147.828 138.049 140.538 137.661C139.452 137.609 138.372 137.468 137.309 137.239C135.001 136.707 132.816 135.735 130.877 134.374C129.4 133.362 128.117 132.231 126.236 132.323H126.206C123.883 132.453 121.897 133.547 120.88 135.135Z" stroke="var(--illustration-currentColor)" stroke-width="0.9252" stroke-linecap="round" stroke-linejoin="round"/>
<path d="M126.237 132.317C126.613 131.17 126.746 129.957 126.625 128.755C126.496 127.546 125.915 126.43 125 125.629C124.537 125.241 123.98 124.983 123.385 124.883C122.789 124.783 122.178 124.843 121.614 125.059C120.51 125.536 119.776 126.838 120.094 128C118.722 126.92 116.631 126.388 115.287 127.495C114.315 128.293 114.057 129.755 114.466 130.945C114.876 132.134 115.854 133.06 116.956 133.67C118.081 134.236 119.269 134.664 120.496 134.944" stroke="var(--illustration-currentColor)" stroke-width="0.9252" stroke-linecap="round" stroke-linejoin="round"/>
<path d="M140.548 137.49C161.936 110.617 211.73 122.556 213.108 159.032C213.103 160.787 212.692 162.516 211.908 164.086C203.046 181.567 147.526 171.178 131.743 170.446C125.842 170.172 123.628 168.189 123.538 165.327C123.399 160.979 128.16 154.606 132.342 149.107" stroke="var(--illustration-currentColor)" stroke-width="0.9252" stroke-linecap="round" stroke-linejoin="round"/>
<path d="M96.8655 184.152C92.6394 178.908 89.2251 173.059 86.7363 166.8" stroke="var(--illustration-currentColor)" stroke-width="0.9252" stroke-linecap="round" stroke-linejoin="round"/>
<path d="M94.6911 196.922C84.267 187.282 75.7488 175.768 69.5811 162.979" stroke="var(--illustration-currentColor)" stroke-width="0.9252" stroke-linecap="round" stroke-linejoin="round"/>
<path d="M93.5827 215.055C76.774 201.892 63.4159 184.842 54.6592 165.371" stroke="var(--illustration-currentColor)" stroke-width="0.9252" stroke-linecap="round" stroke-linejoin="round"/>
<path d="M94.0384 227.785C72.0802 216.85 54.106 199.3 42.6484 177.61" stroke="var(--illustration-currentColor)" stroke-width="0.9252" stroke-linecap="round" stroke-linejoin="round"/>
<path d="M95.2197 242.13C71.6172 231.048 51.6093 213.547 37.4844 191.63" stroke="var(--illustration-currentColor)" stroke-width="0.9252" stroke-linecap="round" stroke-linejoin="round"/>
<path d="M80.377 250.924C62.3788 240.379 46.7653 226.213 34.5244 209.323" stroke="var(--illustration-currentColor)" stroke-width="0.9252" stroke-linecap="round" stroke-linejoin="round"/>
<path d="M57.1922 250.372L35.084 227.058" stroke="var(--illustration-currentColor)" stroke-width="0.9252" stroke-linecap="round" stroke-linejoin="round"/>
<path d="M75.8394 164.351C63.9288 166.044 52.6107 170.616 42.8643 177.668" stroke="var(--illustration-currentColor)" stroke-width="0.9252" stroke-linecap="round" stroke-linejoin="round"/>
<path d="M87.1963 166.702C68.3044 174.003 50.8765 184.635 35.7412 198.094" stroke="var(--illustration-currentColor)" stroke-width="0.9252" stroke-linecap="round" stroke-linejoin="round"/>
<path d="M99.4676 169.424C74.9252 180.7 52.8494 197.001 35.2139 217.457" stroke="var(--illustration-currentColor)" stroke-width="0.9252" stroke-linecap="round" stroke-linejoin="round"/>
<path d="M98.3565 180.648C85.2111 185.612 73.5396 193.955 63.3657 203.648C53.1918 213.341 44.4213 224.394 35.8818 235.554" stroke="var(--illustration-currentColor)" stroke-width="0.9252" stroke-linecap="round" stroke-linejoin="round"/>
<path d="M95.6495 192.746C75.965 209.086 58.7012 228.138 44.375 249.333" stroke="var(--illustration-currentColor)" stroke-width="0.9252" stroke-linecap="round" stroke-linejoin="round"/>
<path d="M93.9195 208.7C81.5931 221.282 70.7244 235.214 61.5195 250.231" stroke="var(--illustration-currentColor)" stroke-width="0.9252" stroke-linecap="round" stroke-linejoin="round"/>
<path d="M93.8108 220.355C85.8419 229.547 79.0043 239.662 73.4453 250.483" stroke="var(--illustration-currentColor)" stroke-width="0.9252" stroke-linecap="round" stroke-linejoin="round"/>
<path d="M94.6165 232.758C89.8531 238.135 86.2219 244.417 83.9395 251.228" stroke="var(--illustration-currentColor)" stroke-width="0.9252" stroke-linecap="round" stroke-linejoin="round"/>
<path d="M134.688 114.817L134.512 111.187" stroke="var(--illustration-currentColor)" stroke-width="0.9252" stroke-linecap="round" stroke-linejoin="round"/>
<path d="M128.908 115.179L128.835 111.406" stroke="var(--illustration-currentColor)" stroke-width="0.9252" stroke-linecap="round" stroke-linejoin="round"/>
<path d="M123.249 115.252L123.363 111.841" stroke="var(--illustration-currentColor)" stroke-width="0.9252" stroke-linecap="round" stroke-linejoin="round"/>
<path d="M117.748 115.687L117.6 111.84" stroke="var(--illustration-currentColor)" stroke-width="0.9252" stroke-linecap="round" stroke-linejoin="round"/>
<path d="M111.964 116.63L111.947 113.148" stroke="var(--illustration-currentColor)" stroke-width="0.9252" stroke-linecap="round" stroke-linejoin="round"/>
<path d="M127.532 58.5899C128.095 56.9576 128.335 55.2317 128.239 53.5079" stroke="var(--illustration-currentColor)" stroke-width="0.9252" stroke-linecap="round" stroke-linejoin="round"/>
<path d="M120.299 60.1233L118.877 55.8333" stroke="var(--illustration-currentColor)" stroke-width="0.9252" stroke-linecap="round" stroke-linejoin="round"/>
<path d="M110.184 62.5008C109.693 62.1042 109.29 61.6092 109.001 61.0473C108.712 60.4857 108.544 59.8698 108.508 59.2395" stroke="var(--illustration-currentColor)" stroke-width="0.9252" stroke-linecap="round" stroke-linejoin="round"/>
<path d="M221.123 180.412L223.608 177.999" stroke="var(--illustration-currentColor)" stroke-width="0.9252" stroke-linecap="round" stroke-linejoin="round"/>
<path d="M226.715 167.33L225.09 165.039" stroke="var(--illustration-currentColor)" stroke-width="0.9252" stroke-linecap="round" stroke-linejoin="round"/>
<path d="M214.004 180.812L211.72 179.395" stroke="var(--illustration-currentColor)" stroke-width="0.9252" stroke-linecap="round" stroke-linejoin="round"/>
<path d="M160.992 182.128L162.724 183.662" stroke="var(--illustration-currentColor)" stroke-width="0.9252" stroke-linecap="round" stroke-linejoin="round"/>
<path d="M145.879 183.418L149.144 182.112" stroke="var(--illustration-currentColor)" stroke-width="0.9252" stroke-linecap="round" stroke-linejoin="round"/>
<path d="M154.435 183.086L155.591 181.993" stroke="var(--illustration-currentColor)" stroke-width="0.9252" stroke-linecap="round" stroke-linejoin="round"/>
<path d="M94.6652 130.329C93.4919 129.413 92.4755 128.312 91.6562 127.069" stroke="var(--illustration-currentColor)" stroke-width="0.9252" stroke-linecap="round" stroke-linejoin="round"/>
<path d="M91.4619 130.344C92.2407 129.336 93.1707 128.455 94.2189 127.732" stroke="var(--illustration-currentColor)" stroke-width="0.9252" stroke-linecap="round" stroke-linejoin="round"/>
<path d="M101.896 156.887L104.208 154.266" stroke="var(--illustration-currentColor)" stroke-width="0.9252" stroke-linecap="round" stroke-linejoin="round"/>
<path d="M103.91 157.075L101.169 154.302" stroke="var(--illustration-currentColor)" stroke-width="0.9252" stroke-linecap="round" stroke-linejoin="round"/>
<path d="M63.4405 153.66C62.1058 153.456 60.8302 152.969 59.6992 152.231" stroke="var(--illustration-currentColor)" stroke-width="0.9252" stroke-linecap="round" stroke-linejoin="round"/>
<path d="M60.2598 154.866C60.5823 153.637 61.179 152.496 62.0055 151.531" stroke="var(--illustration-currentColor)" stroke-width="0.9252" stroke-linecap="round" stroke-linejoin="round"/>
<path d="M124.547 197.385L128.609 193.902" stroke="var(--illustration-currentColor)" stroke-width="0.9252" stroke-linecap="round" stroke-linejoin="round"/>
<path d="M127.046 198.24L124.816 193.462L125.113 193.65" stroke="var(--illustration-currentColor)" stroke-width="0.9252" stroke-linecap="round" stroke-linejoin="round"/>
<path d="M106.698 186.356L110.181 184.325" stroke="var(--illustration-currentColor)" stroke-width="0.9252" stroke-linecap="round" stroke-linejoin="round"/>
<path d="M108.862 187.532C107.874 186.616 107.246 185.377 107.092 184.039" stroke="var(--illustration-currentColor)" stroke-width="0.9252" stroke-linecap="round" stroke-linejoin="round"/>
<path d="M240.128 173.949L244.917 173.732" stroke="var(--illustration-currentColor)" stroke-width="0.9252" stroke-linecap="round" stroke-linejoin="round"/>
<path d="M242.305 176.344V171.773" stroke="var(--illustration-currentColor)" stroke-width="0.9252" stroke-linecap="round" stroke-linejoin="round"/>
<path d="M240.345 143.473L236.645 144.126" stroke="var(--illustration-currentColor)" stroke-width="0.9252" stroke-linecap="round" stroke-linejoin="round"/>
<path d="M238.174 146.523L237.739 142.605" stroke="var(--illustration-currentColor)" stroke-width="0.9252" stroke-linecap="round" stroke-linejoin="round"/>
<path d="M216.562 143.88L218.509 140.173" stroke="var(--illustration-currentColor)" stroke-width="0.9252" stroke-linecap="round" stroke-linejoin="round"/>
<path d="M219.017 143.037L215.583 140.575" stroke="var(--illustration-currentColor)" stroke-width="0.9252" stroke-linecap="round" stroke-linejoin="round"/>
<path d="M200.077 121.057C200.603 119.845 201.524 118.848 202.689 118.227" stroke="var(--illustration-currentColor)" stroke-width="0.9252" stroke-linecap="round" stroke-linejoin="round"/>
<path d="M202.429 120.676L199.854 118.669" stroke="var(--illustration-currentColor)" stroke-width="0.9252" stroke-linecap="round" stroke-linejoin="round"/>
<path d="M171.78 116.05C170.445 116.558 169.251 117.379 168.3 118.444" stroke="var(--illustration-currentColor)" stroke-width="0.9252" stroke-linecap="round" stroke-linejoin="round"/>
<path d="M170.684 118.886L168.506 115.84" stroke="var(--illustration-currentColor)" stroke-width="0.9252" stroke-linecap="round" stroke-linejoin="round"/>
<path d="M140.609 127.555L142.799 124.516" stroke="var(--illustration-currentColor)" stroke-width="0.9252" stroke-linecap="round" stroke-linejoin="round"/>
<path d="M143.063 127.35L140.238 125.167" stroke="var(--illustration-currentColor)" stroke-width="0.9252" stroke-linecap="round" stroke-linejoin="round"/>
<path fill-rule="evenodd" clip-rule="evenodd" d="M123.538 165.327C123.628 168.189 125.842 170.171 131.743 170.446C134.722 170.584 139.116 171.067 144.344 171.641C166.819 174.108 204.718 178.269 211.907 164.087C212.692 162.517 213.102 160.788 213.107 159.033C211.729 122.557 161.935 110.618 140.547 137.491L140.538 137.661C143.459 137.816 146.428 137.434 149.393 137.052C153.827 136.481 158.249 135.911 162.481 137.146C166.653 138.361 170.208 141.281 172.691 144.846C175.269 148.549 176.776 153.341 175.342 157.618C173.813 162.166 169.147 165.188 164.377 165.722C159.607 166.255 154.815 164.641 150.664 162.228C147.43 160.348 144.511 157.998 141.594 155.65C140.767 154.984 139.941 154.319 139.107 153.665C136.966 151.981 134.775 150.368 132.533 148.827L132.342 149.107C128.16 154.605 123.399 160.979 123.538 165.327ZM182.818 127.072C182.566 127.033 182.329 127.205 182.289 127.457C182.249 127.71 182.422 127.947 182.674 127.986C193.642 129.712 203.459 137.523 207.607 147.823C207.702 148.06 207.972 148.174 208.209 148.079C208.446 147.983 208.561 147.714 208.465 147.477C204.196 136.875 194.107 128.849 182.818 127.072Z" fill="var(--illustration-currentColor)"/>
<path fill-rule="evenodd" clip-rule="evenodd" d="M141.591 155.647L141.591 155.647C140.765 154.983 139.939 154.318 139.107 153.665C137.69 152.552 136.249 151.468 134.787 150.415C137.983 152.024 140.852 154.178 143.739 156.346L143.859 156.436C146.862 158.691 149.942 160.985 153.421 162.629C156.905 164.275 160.885 165.259 164.789 164.71C168.69 164.161 172.492 161.9 174.132 158.388C175.346 155.785 175.267 152.792 174.491 150.112L174.49 150.108C173.734 147.57 172.388 145.229 170.555 143.257C168.722 141.285 166.449 139.734 163.904 138.716L163.901 138.715C160.507 137.386 156.769 137.077 153.154 137.307C152.329 137.359 151.548 137.414 150.785 137.468C148.229 137.65 145.858 137.818 142.605 137.818C142.35 137.818 142.142 138.025 142.142 138.28C142.142 138.536 142.35 138.743 142.605 138.743C145.893 138.743 148.303 138.572 150.866 138.39C151.626 138.336 152.399 138.281 153.213 138.23C156.742 138.006 160.333 138.312 163.562 139.576C165.982 140.544 168.139 142.018 169.877 143.887C171.615 145.756 172.888 147.972 173.603 150.371C174.337 152.907 174.385 155.655 173.293 157.996C171.818 161.155 168.336 163.277 164.661 163.793C160.989 164.31 157.195 163.389 153.817 161.792C150.435 160.195 147.427 157.958 144.414 155.696L144.264 155.583C141.311 153.366 138.296 151.102 134.902 149.439C134.673 149.327 134.396 149.422 134.283 149.651C134.219 149.782 134.223 149.929 134.281 150.052C133.702 149.639 133.119 149.23 132.533 148.827C130.541 147.451 128.512 146.134 126.446 144.874C126.361 144.821 126.276 144.769 126.19 144.718C124.407 143.63 122.582 142.517 121.349 140.84C119.822 138.762 119.872 136.708 120.88 135.135C121.897 133.547 123.883 132.453 126.205 132.323H126.235C127.862 132.243 129.042 133.079 130.286 133.96C130.48 134.098 130.677 134.237 130.876 134.374C132.815 135.735 135 136.707 137.308 137.239C138.371 137.468 139.451 137.609 140.537 137.661C143.459 137.817 146.43 137.434 149.395 137.052C153.828 136.481 158.249 135.912 162.48 137.146C166.652 138.361 170.207 141.281 172.69 144.846C175.268 148.549 176.775 153.341 175.341 157.618C173.811 162.166 169.147 165.191 164.376 165.722C159.606 166.252 154.812 164.64 150.664 162.228C147.429 160.346 144.509 157.996 141.591 155.647ZM167.064 143.219C166.846 143.085 166.561 143.154 166.428 143.371C166.294 143.589 166.362 143.874 166.58 144.007C168.171 144.984 169.47 146.369 170.343 148.018C171.215 149.668 171.629 151.522 171.541 153.386C171.528 153.641 171.725 153.858 171.981 153.87C172.236 153.882 172.453 153.685 172.465 153.43C172.561 151.4 172.111 149.382 171.16 147.586C170.21 145.79 168.796 144.282 167.064 143.219Z" fill="var(--illustration-currentColor)"/>
<path d="M181.779 103.671C178.391 101.233 177.975 96.1502 179.532 92.2769C181.09 88.4036 184.134 85.3631 186.798 82.1483C189.461 78.9335 191.898 75.146 191.821 70.9721C191.742 66.6779 189.052 62.9519 187.081 59.1353C185.11 55.3187 183.908 50.3594 186.541 46.9646" stroke="var(--illustration-currentColor)" stroke-width="0.9252" stroke-linecap="round" stroke-linejoin="round"/>
<path d="M165.247 95.3256C162.307 93.9621 161.089 90.2255 161.644 87.0335C162.199 83.8415 164.122 81.0735 166.05 78.4674C167.977 75.8613 170.005 73.2068 170.832 70.0727C171.91 65.9885 170.798 61.6476 169.239 57.7218C167.68 53.7959 165.66 50.0099 164.824 45.8699C163.988 41.7299 164.561 36.995 167.573 34.0334" stroke="var(--illustration-currentColor)" stroke-width="0.9252" stroke-linecap="round" stroke-linejoin="round"/>
<path d="M203.115 90.819C200.087 87.3615 200.473 81.4638 203.925 78.429C205.608 76.9497 207.852 76.1145 209.241 74.3562C210.724 72.4803 210.945 69.8376 210.337 67.5255C209.728 65.2134 208.39 63.1659 206.98 61.2351" stroke="var(--illustration-currentColor)" stroke-width="0.9252" stroke-linecap="round" stroke-linejoin="round"/>
<path d="M257.35 126.028C263.188 130.349 266.572 137.424 267.592 144.616C268.611 151.808 267.476 159.146 265.655 166.178C264.72 169.788 263.596 173.424 263.702 177.151C263.809 180.879 265.418 184.815 268.697 186.591C271.976 188.367 276.906 186.947 277.856 183.341C278.486 180.948 276.855 178.047 274.392 177.805C271.929 177.562 269.734 180.731 271.157 182.755" stroke="var(--illustration-currentColor)" stroke-width="0.9252" stroke-linecap="round" stroke-linejoin="round"/>
<path d="M85.8869 95.3979L80.333 90.1779" stroke="var(--illustration-currentColor)" stroke-width="0.9252" stroke-linecap="round" stroke-linejoin="round"/>
<path d="M80.7158 95.7191L85.2977 89.5238" stroke="var(--illustration-currentColor)" stroke-width="0.9252" stroke-linecap="round" stroke-linejoin="round"/>
<path d="M73.5418 67.8989L70.2676 65.2988" stroke="var(--illustration-currentColor)" stroke-width="0.9252" stroke-linecap="round" stroke-linejoin="round"/>
<path d="M70.2402 69.2519L73.1802 63.7019" stroke="var(--illustration-currentColor)" stroke-width="0.9252" stroke-linecap="round" stroke-linejoin="round"/>
<path d="M56.9937 119.306C46.2198 121.496 35.3511 126.89 30.1473 136.574C29.0101 138.691 28.156 141.071 28.4266 143.459C28.6972 145.846 30.3438 148.197 32.6997 148.67C35.0556 149.143 37.7523 147.08 37.4055 144.701C37.0017 141.932 33.312 140.948 30.6333 141.759C28.2167 142.502 26.1611 144.114 24.8635 146.283C22.8172 149.738 22.9993 154.053 23.6611 158.013C24.3229 161.973 25.4047 165.954 24.9421 169.942C24.4795 173.93 21.9595 178.046 18.019 178.815C16.6858 179.076 15.1105 178.837 14.3212 177.732C13.5319 176.626 14.2432 174.649 15.5995 174.722" stroke="var(--illustration-currentColor)" stroke-width="0.9252" stroke-linecap="round" stroke-linejoin="round"/>
<g opacity="0.1">
<path d="M96.7858 54.0494C93.9145 54.4589 91.1458 57.5111 89.7658 59.8853C88.2175 62.5481 87.8089 65.9582 89.9539 68.4287C92.0095 70.796 95.2747 70.5986 97.5565 68.6891C98.6728 67.7546 99.3628 66.3521 100.55 65.4935C101.149 65.1053 101.803 64.8098 102.489 64.6166C103.446 64.322 104.079 64.5635 104.996 64.8413C105.087 64.8641 105.184 64.8533 105.268 64.811C105.353 64.769 105.419 64.6979 105.456 64.6112C105.492 64.5242 105.497 64.427 105.468 64.3373C105.439 64.2476 105.379 64.1708 105.299 64.1213C104.349 63.6092 103.332 63.2312 102.279 62.9978C101.364 62.7854 100.413 62.7845 99.4975 62.9957C98.3716 63.2318 97.3108 63.7109 96.3895 64.3997C95.7241 64.8524 94.8052 65.8928 93.9772 65.9864C93.1954 66.0764 92.6335 65.2907 92.4628 64.5986C92.1928 63.5045 92.7448 62.2973 93.271 61.3715C93.8836 60.2735 94.612 59.2445 95.4442 58.3022C96.2758 57.3812 97.2463 56.5724 97.9189 55.5224C98.4436 54.7031 97.579 53.936 96.7861 54.0491L96.7858 54.0494Z" fill="var(--illustration-currentColor)"/>
</g>
<g opacity="0.1">
<path d="M106.537 64.1531C105.743 65.3198 106.263 66.7679 106.591 68.0201L107.699 72.2453C108.533 75.4253 113.489 72.7598 111.103 70.2653L110.949 70.1051C110.096 69.2126 108.652 69.4928 108.028 70.4816L107.905 70.6772L111.626 71.1638L110.279 67.0031C109.889 65.7944 109.559 64.247 108.287 63.6941C107.992 63.5345 107.646 63.4934 107.321 63.5786C106.996 63.6638 106.716 63.869 106.536 64.1531H106.537Z" fill="var(--illustration-currentColor)"/>
</g>
<g opacity="0.1">
<path d="M135.885 72.0876C131.306 72.0126 126.718 72.9318 122.177 73.4916C120.369 73.7145 118.937 74.097 117.447 75.1686C115.806 76.3482 115.393 78.2496 115.268 80.1807C114.963 84.9069 115.088 89.6589 115.108 94.3917L115.138 101.27C115.148 103.566 114.635 106.574 115.738 108.636C116.486 110.033 118.708 110.041 119.454 108.636C120.451 106.758 120.031 104.249 120.033 102.167L120.04 95.8872C120.045 91.6071 120.164 87.3033 119.968 83.0274C119.89 81.3117 119.674 79.5279 119.975 77.8335C120.125 76.9962 120.315 77.0235 121.299 76.7184C122.079 76.4754 122.902 76.3473 123.699 76.1829C127.838 75.3303 132.068 74.8119 136.062 73.4133C136.764 73.1676 136.673 72.1005 135.882 72.0876H135.885Z" fill="var(--illustration-currentColor)"/>
</g>
<g opacity="0.1">
<path d="M110.165 109.438C105.679 110.908 106.229 116.646 107.115 120.293L109.425 117.263C94.8235 117.08 80.3137 121.069 67.99 128.954C56.1706 136.518 46.7398 147.279 40.7929 159.989C37.4611 167.161 35.4016 174.858 34.7071 182.736C34.4911 185.248 38.8114 185.872 39.1546 183.338C42.7426 156.839 61.1938 133.857 86.7622 125.508C94.069 123.092 101.73 121.924 109.425 122.052C111.033 122.085 112.08 120.499 111.735 119.022C111.093 116.282 110.805 113.823 111.915 111.187C112.337 110.183 111.113 109.13 110.168 109.44L110.165 109.438Z" fill="var(--illustration-currentColor)"/>
</g>
<g opacity="0.1">
<path d="M94.8775 205.297C96.6436 206.347 98.8375 206.332 100.833 206.497C102.889 206.665 104.946 206.797 107.006 206.922C111.12 207.176 115.235 207.445 119.352 207.658C123.293 207.861 127.336 208.331 131.247 207.605C133.921 207.109 138.904 205.282 138.502 201.772C138.432 201.158 138.004 200.513 137.292 200.563C135.836 200.664 134.59 201.53 133.3 202.145C131.919 202.763 130.43 203.103 128.917 203.147C125.16 203.348 121.332 202.808 117.588 202.526C113.868 202.246 110.141 202.027 106.418 201.781C104.459 201.652 102.501 201.535 100.538 201.445C98.5753 201.355 96.7168 201.231 94.8766 202.019C93.5128 202.604 93.7687 204.639 94.8766 205.298L94.8775 205.297Z" fill="var(--illustration-currentColor)"/>
</g>
<g opacity="0.1">
<path d="M221.419 185.914C222.183 187.659 224.745 188.732 226.427 189.389C228.257 190.092 230.187 190.498 232.145 190.593C235.535 190.773 240.601 189.908 242.259 186.489C242.335 186.352 242.374 186.197 242.372 186.04C242.371 185.884 242.329 185.73 242.251 185.593C242.173 185.457 242.061 185.344 241.926 185.263C241.792 185.183 241.638 185.139 241.481 185.135C240.009 185.03 238.487 185.465 237.032 185.697C235.503 185.976 233.948 186.091 232.394 186.039C230.932 185.943 229.494 185.619 228.132 185.079C226.662 184.513 225.227 183.163 223.698 182.949C221.882 182.697 220.675 184.215 221.418 185.914L221.419 185.914Z" fill="var(--illustration-currentColor)"/>
</g>
<g opacity="0.1">
<path d="M68.0525 162.58C66.8135 161.971 65.8145 162.034 64.4408 162.156C62.9108 162.293 61.4579 162.274 59.9708 162.721C57.2183 163.547 54.6278 164.839 52.3112 166.54C47.2136 170.333 43.5137 175.454 40.9673 181.247C38.2577 187.411 36.7109 193.872 35.7452 200.519C34.6796 207.829 34.2293 215.215 34.3991 222.6C34.6238 230.771 35.4677 238.912 36.9233 246.956C37.1972 248.505 39.0905 249.377 40.5041 248.989C42.1373 248.539 42.8141 246.961 42.5372 245.408C40.2062 232.282 39.4901 218.854 40.841 205.577C41.471 199.388 42.5225 193.181 44.5535 187.286C46.3835 181.978 49.0556 176.392 52.8995 172.237C54.8606 170.075 57.1763 168.264 59.7467 166.882C61.0916 166.156 62.4821 165.52 63.9098 164.975C65.2976 164.465 66.7043 164.592 68.0525 163.964C68.1725 163.892 68.2715 163.791 68.3405 163.669C68.4095 163.548 68.4455 163.411 68.4455 163.271C68.4455 163.132 68.4095 162.995 68.3405 162.874C68.2715 162.752 68.1725 162.651 68.0525 162.58Z" fill="var(--illustration-currentColor)"/>
</g>
</g>
</g>
<defs>
<linearGradient id="paint0_linear_28_12857" x1="71.8591" y1="162.316" x2="71.8591" y2="251.729" gradientUnits="userSpaceOnUse">
<stop stop-color="#FF9A34"/>
<stop offset="1" stop-color="#EB6421"/>
</linearGradient>
<linearGradient id="paint1_linear_28_12857" x1="215.067" y1="160.572" x2="215.067" y2="183.905" gradientUnits="userSpaceOnUse">
<stop stop-color="#FF9A34"/>
<stop offset="1" stop-color="#EB6421"/>
</linearGradient>
<linearGradient id="paint2_linear_28_12857" x1="155.211" y1="178.494" x2="155.211" y2="185.528" gradientUnits="userSpaceOnUse">
<stop stop-color="#FF9A34"/>
<stop offset="1" stop-color="#EB6421"/>
</linearGradient>
<clipPath id="clip0_28_12857">
<rect width="288" height="288" fill="white"/>
</clipPath>
</defs>
</svg>
