<svg width="288" height="288" viewBox="0 0 288 288" fill="none" xmlns="http://www.w3.org/2000/svg">
<mask id="mask0_28_12836" style="mask-type:luminance" maskUnits="userSpaceOnUse" x="34" y="11" width="221" height="266">
<path d="M254.1 11.4H34.2002V276.9H254.1V11.4Z" fill="white"/>
</mask>
<g mask="url(#mask0_28_12836)">
<path fill-rule="evenodd" clip-rule="evenodd" d="M170.956 89.6073L170.824 89.508C166.83 85.4424 161.739 82.6266 156.173 81.4041L155.551 81.4941C155.888 81.9009 156.202 82.3272 156.49 82.7706C158.469 85.8234 159.149 89.5401 159.396 93.1701C159.486 94.5036 159.524 95.8416 159.562 97.1793C159.627 99.4833 159.693 101.786 160.027 104.064L160.059 104.17C161.345 103.765 162.763 103.387 164.296 103.034L164.446 103.073C165.674 98.1867 167.889 93.6042 170.956 89.6073ZM160.295 84.8676C160.043 84.7821 159.77 84.9165 159.684 85.1682C159.599 85.4196 159.733 85.6929 159.985 85.7784C162.587 86.6637 164.871 88.2942 166.553 90.4674C166.716 90.6774 167.018 90.7158 167.228 90.5532C167.438 90.3906 167.477 90.0885 167.314 89.8782C165.516 87.5562 163.075 85.8138 160.295 84.8676Z" fill="url(#paint0_linear_28_12836)"/>
<path d="M161.165 118.087H161.135C161.138 117.869 161.142 117.654 161.145 117.436L161.196 117.282C168.96 119.527 180.565 120.954 193.533 120.954C196.711 120.954 199.809 120.867 202.785 120.704L202.788 120.764C202.58 124.429 202.368 128.136 201.111 131.66C199.854 135.184 197.436 138.571 193.649 140.6C188.297 143.47 181.053 143.146 175.191 141.017C169.329 138.888 162.676 131.241 161.165 118.087Z" fill="url(#paint1_linear_28_12836)"/>
<path d="M130.065 63.9435C130.864 63.3729 131.834 63.0963 132.813 63.1608C133.846 63.1908 134.853 63.459 135.869 63.6549C139.82 64.4085 143.901 64.0839 147.683 62.7153L148.019 62.7C148.093 64.4316 148.168 66.1623 148.246 67.8918C148.394 71.1981 148.513 74.6388 147.554 77.7618C147.349 78.4338 147.089 79.0878 146.778 79.7178C146.775 79.7244 146.771 79.7274 146.771 79.734C146.085 81.1008 145.137 82.32 143.981 83.3223C142.296 84.8118 140.209 85.773 137.981 86.0865C136.498 86.2713 134.992 86.1555 133.554 85.7454C132.116 85.3356 130.775 84.6402 129.611 83.7009C129.002 83.2092 128.452 82.6485 127.972 82.0299C127.756 81.7494 127.554 81.4584 127.366 81.1578C124.91 77.2488 125.09 72.1338 125.394 67.452C125.658 63.3825 125.922 59.3154 126.186 55.2501C126.254 54.2046 126.336 53.1201 126.501 52.0656C126.831 49.8948 127.495 47.8167 129.047 46.3254C132.475 43.029 138.227 44.3277 142.519 42.2784C143.32 41.8938 144.067 41.3934 144.859 40.9959C145.217 40.8123 145.591 40.6587 145.975 40.5372C147.209 40.1556 148.768 40.3479 149.473 41.4318C149.635 41.7216 149.715 42.0504 149.703 42.3825C149.691 42.7143 149.588 43.0365 149.406 43.3143C148.952 43.6047 148.461 43.8345 147.947 43.9974C148.547 44.1774 149.087 43.8369 149.406 43.3143C150.111 42.8847 150.786 42.378 151.525 42.0156C152.754 41.4126 154.492 41.3454 155.252 42.4839C155.951 43.5339 155.354 45.0492 154.319 45.7707C153.283 46.4922 151.962 46.6335 150.705 46.7487C149.576 46.8546 148.45 46.9572 147.322 47.0631C144.307 47.343 141.293 47.6232 138.278 47.9031C135.79 48.1341 133.042 48.4932 131.419 50.3931C130.342 51.6504 129.979 53.3631 129.784 55.0077C129.443 57.9009 129.502 60.8274 129.96 63.7047L130.065 63.9435ZM137.794 71.0784C138.877 70.527 139.673 69.3384 139.544 68.1282C139.192 64.7997 133.423 63.6771 131.521 66.1977C130.841 67.1022 130.915 68.4297 131.515 69.3885C132.163 70.3278 133.131 70.9998 134.237 71.2806C135.406 71.6622 136.676 71.5902 137.794 71.0784Z" fill="#171717"/>
<path d="M120.391 82.5779L120.279 82.6079C120.266 82.5719 120.251 82.5365 120.234 82.5023L120.497 82.4723C122.715 81.8309 124.99 81.4082 127.29 81.2099L127.37 81.1586C127.557 81.4592 127.759 81.7502 127.976 82.0307C128.455 82.6493 129.006 83.21 129.615 83.7017L129.505 83.8361C129.36 84.6485 129.38 85.4819 129.565 86.2865C129.75 87.0908 130.097 87.8492 130.583 88.5161C131.568 89.849 132.928 90.8585 134.49 91.4159C137.017 92.3684 140.04 92.2241 142.221 90.6302C144.403 89.0363 145.447 85.8809 144.264 83.4533L143.985 83.3219C145.14 82.3196 146.088 81.1004 146.775 79.7336L146.919 79.8074C149.097 79.5122 151.171 81.2216 151.944 83.2772C152.717 85.3328 152.457 87.632 151.976 89.7773C151.425 92.2373 150.581 94.6673 149.145 96.7391C147.708 98.8109 145.63 100.504 143.193 101.139C140.278 101.896 137.167 101.084 134.448 99.7985C130.987 98.1317 127.935 95.7257 125.506 92.7503C123.077 89.7746 121.331 86.3021 120.391 82.5779Z" fill="url(#paint2_linear_28_12836)"/>
<path d="M144.262 83.4533C145.446 85.8809 144.397 89.0366 142.219 90.6302C140.042 92.2238 137.015 92.3699 134.489 91.4159C132.928 90.8576 131.568 89.8475 130.584 88.5137C130.097 87.8468 129.751 87.0884 129.565 86.2841C129.38 85.4795 129.36 84.6461 129.506 83.8337L129.615 83.6993C130.779 84.6386 132.119 85.334 133.557 85.7438C134.995 86.1539 136.501 86.2697 137.985 86.0849C140.213 85.7714 142.299 84.8102 143.985 83.3207L144.262 83.4533Z" fill="url(#paint3_linear_28_12836)"/>
<path d="M112.428 168.261C110.562 170.887 108.307 173.215 106.213 175.659C106.202 175.668 106.191 175.678 106.183 175.691C106.116 172.077 106.048 168.434 106.725 164.884C107.405 161.314 108.896 157.797 111.525 155.289L111.573 155.25C112.606 156.543 113.876 157.68 114.523 159.195C115.805 162.18 114.307 165.615 112.428 168.261Z" fill="#171717"/>
<path d="M86.761 108.527C93.3184 96.6318 104.22 87.7317 117.187 83.6874L117.325 83.7003C117.313 83.8422 117.312 83.9847 117.322 84.1266C117.38 84.9732 117.748 85.7652 118.095 86.5446C121.738 94.7379 123.181 103.804 123.043 112.77C122.905 121.784 121.215 130.696 119.533 139.553C118.795 143.43 118.058 147.308 117.32 151.187C117.267 151.604 117.133 152.005 116.926 152.371C116.191 153.461 114.363 153.14 113.566 152.101C112.867 151.134 112.453 149.991 112.37 148.801C112.357 148.647 112.347 148.493 112.344 148.339L112.264 148.332C113.127 134.322 113.992 120.625 114.858 106.612C108.576 108.352 103.333 113.664 100.553 119.722C97.1695 127.088 96.727 135.419 96.4705 143.523C96.3934 145.928 96.2005 148.625 94.3987 150.218C93.9376 150.619 93.4102 150.936 92.8402 151.155C91.8658 151.507 90.8563 151.753 89.8291 151.889C88.2865 152.143 86.5891 152.367 85.2016 151.758C84.9787 151.66 84.766 151.541 84.5668 151.402C83.332 150.542 82.7836 149.006 82.3768 147.557C78.7489 134.468 80.3197 120.484 86.761 108.527Z" fill="url(#paint4_linear_28_12836)"/>
<path d="M60.9625 207.861C61.2538 207.661 61.5556 207.477 61.867 207.31C65.3206 205.453 69.4765 205.828 73.3984 205.716C83.731 205.383 93.6049 201.37 101.24 194.4L101.362 194.326C103.78 198.421 108.911 200.236 113.692 200.759C118.669 201.307 123.809 200.879 128.587 202.372C129.751 202.753 130.892 203.198 132.006 203.706C117.674 223.694 92.9692 235.79 68.3923 234.846C65.4613 234.734 62.3413 234.343 59.7373 233.118C58.3642 232.492 57.1474 231.57 56.1745 230.418C53.0191 226.595 53.5738 220.916 55.2412 216.25C56.3995 213.011 58.1533 209.776 60.9625 207.861Z" fill="#171717"/>
<path d="M144.856 50.372C143.606 50.1821 142.333 50.2058 141.091 50.4425C140.716 50.471 140.367 50.6429 140.116 50.9225C139.892 51.2462 139.94 51.6794 139.997 52.0706C140.477 55.2905 140.96 58.5122 141.443 61.7357L138.525 61.8896" stroke="#171717" stroke-width="0.9621" stroke-linecap="round" stroke-linejoin="round"/>
<path d="M145.269 54.2877C144.656 53.364 143.082 53.3418 142.444 54.246" stroke="#171717" stroke-width="0.9621" stroke-linecap="round" stroke-linejoin="round"/>
<path d="M136.226 54.8841C136.032 54.6018 135.764 54.3783 135.451 54.2388C135.138 54.099 134.793 54.048 134.453 54.0918C134.113 54.1356 133.792 54.2721 133.525 54.4866C133.258 54.7011 133.055 54.9849 132.939 55.3074" stroke="#171717" stroke-width="0.9621" stroke-linecap="round" stroke-linejoin="round"/>
<path d="M137.756 67.9646C137.435 68.2748 137.039 68.4959 136.607 68.6063C136.175 68.7164 135.721 68.7122 135.291 68.5937C134.861 68.4752 134.469 68.2466 134.155 67.9304C133.84 67.6142 133.613 67.2215 133.496 66.791" stroke="#171717" stroke-width="0.9621" stroke-linecap="round" stroke-linejoin="round"/>
<path d="M149.409 43.3139C150.114 42.8843 150.789 42.3776 151.528 42.0152C152.757 41.4122 154.495 41.345 155.255 42.4835C155.954 43.5335 155.357 45.0488 154.322 45.7703C153.286 46.4918 151.965 46.6331 150.708 46.7483C149.579 46.8542 148.453 46.9568 147.325 47.0627C144.31 47.3426 141.296 47.6225 138.281 47.9027C135.793 48.1337 133.045 48.4928 131.422 50.3927C130.345 51.65 129.982 53.3627 129.787 55.0073C129.446 57.9005 129.505 60.827 129.963 63.7043" stroke="#171717" stroke-width="0.9621" stroke-linecap="round" stroke-linejoin="round"/>
<path d="M149.409 43.314C149.089 43.8366 148.55 44.1765 147.95 43.9971C148.464 43.8342 148.955 43.6044 149.409 43.314Z" stroke="#171717" stroke-width="0.9621" stroke-linecap="round" stroke-linejoin="round"/>
<path d="M147.334 47.1525C147.562 52.3347 147.79 57.5172 148.019 62.7C148.093 64.4316 148.168 66.1623 148.246 67.8918C148.394 71.1981 148.513 74.6388 147.554 77.7618C147.349 78.4338 147.089 79.0878 146.778 79.7178C146.775 79.7244 146.771 79.7274 146.771 79.734C146.085 81.1008 145.137 82.32 143.981 83.3223C142.296 84.8118 140.209 85.773 137.981 86.0865C136.498 86.2713 134.992 86.1555 133.554 85.7454C132.116 85.3356 130.775 84.6402 129.611 83.7009C129.002 83.2092 128.452 82.6485 127.972 82.0299C127.756 81.7494 127.554 81.4584 127.366 81.1578C124.91 77.2488 125.09 72.1338 125.394 67.452C125.658 63.3825 125.922 59.3154 126.186 55.2501C126.254 54.2046 126.336 53.1201 126.501 52.0656C126.831 49.8948 127.495 47.8167 129.047 46.3254C132.475 43.029 138.227 44.3277 142.519 42.2784C143.32 41.8938 144.067 41.3934 144.859 40.9959C145.217 40.8123 145.591 40.6587 145.975 40.5372C147.209 40.1556 148.768 40.3479 149.473 41.4318C149.635 41.7216 149.715 42.0504 149.703 42.3825C149.691 42.7143 149.588 43.0365 149.406 43.3143" stroke="#171717" stroke-width="0.9621" stroke-linecap="round" stroke-linejoin="round"/>
<path d="M129.929 64.062C129.974 64.0203 130.022 63.9819 130.067 63.9435C130.865 63.3729 131.836 63.0963 132.815 63.1608C133.848 63.1908 134.855 63.459 135.871 63.6549C139.822 64.4085 143.903 64.0839 147.685 62.7153" stroke="#171717" stroke-width="0.9621" stroke-linecap="round" stroke-linejoin="round"/>
<path d="M131.522 66.1977C130.842 67.1022 130.915 68.4297 131.515 69.3885C132.164 70.3275 133.131 70.9998 134.238 71.2806C135.407 71.6622 136.676 71.5899 137.794 71.0784C138.878 70.527 139.673 69.3384 139.545 68.1282C139.192 64.8 133.423 63.6771 131.522 66.1977Z" stroke="#171717" stroke-width="0.9621" stroke-linecap="round" stroke-linejoin="round"/>
<path d="M144.692 40.53C144.813 40.2018 144.86 39.8514 144.83 39.5031C144.799 39.1551 144.692 38.8179 144.516 38.5161C144.099 37.7472 143.417 37.1565 142.596 36.855C141.108 36.3258 139.473 36.624 137.927 36.9351C135.278 37.4643 132.613 38.0127 130.105 39.0195C126.963 40.2765 123.846 42.6687 123.464 46.0296C123.365 46.8879 123.436 47.7573 123.673 48.5886C123.865 49.332 124.214 50.0259 124.695 50.6244C125.177 51.2226 125.781 51.7113 126.466 52.0584" stroke="#171717" stroke-width="0.9621" stroke-linecap="round" stroke-linejoin="round"/>
<path d="M144.545 38.5004C145.651 36.9404 146.767 35.3504 147.408 33.5504C148.05 31.7504 148.152 29.6639 147.255 27.9737C145.875 25.3667 142.05 24.4592 139.645 26.1683C138.747 26.8064 138.077 27.7109 137.262 28.4549C136.448 29.1989 135.386 29.8112 134.296 29.6444C133.006 29.4458 132.141 28.2623 131.079 27.5057C128.69 25.7933 124.919 26.5499 123.369 29.048C122.359 30.677 122.253 32.7872 121.064 34.2911C119.739 35.9711 117.459 36.4589 115.468 37.2311C112.72 38.2928 110.215 40.1303 108.699 42.6506C107.182 45.1709 106.742 48.4106 107.889 51.1232C109.035 53.8358 111.865 55.8467 114.806 55.6928C118.721 55.4906 121.896 52.2038 123.493 48.6218" stroke="#171717" stroke-width="0.9621" stroke-linecap="round" stroke-linejoin="round"/>
<path d="M129.504 83.835C129.359 84.6474 129.379 85.4808 129.564 86.2851C129.749 87.0897 130.095 87.8481 130.582 88.515C131.567 89.8485 132.927 90.8583 134.489 91.416C137.016 92.3685 140.039 92.2242 142.221 90.6303C144.402 89.0364 145.447 85.881 144.263 83.4534" stroke="#171717" stroke-width="0.9621" stroke-linecap="round" stroke-linejoin="round"/>
<path d="M120.326 82.8315C120.319 82.755 120.303 82.6794 120.278 82.6068C120.265 82.5708 120.25 82.5354 120.233 82.5012C120.047 82.1892 119.751 81.9585 119.403 81.8553C119.054 81.7518 118.68 81.7833 118.354 81.9432C118.051 82.128 117.798 82.3851 117.618 82.6917C117.438 82.9983 117.338 83.3448 117.325 83.7C117.312 83.8416 117.311 83.9841 117.321 84.1263C117.379 84.9729 117.748 85.7649 118.094 86.5443C121.737 94.7376 123.18 103.803 123.042 112.769C122.904 121.784 121.214 130.696 119.532 139.553C118.795 143.43 118.058 147.308 117.32 151.187C117.266 151.603 117.133 152.005 116.925 152.37C116.191 153.46 114.363 153.14 113.565 152.1C112.867 151.133 112.453 149.99 112.369 148.8C112.357 148.646 112.347 148.492 112.344 148.338" stroke="#171717" stroke-width="0.9621" stroke-linecap="round" stroke-linejoin="round"/>
<path d="M120.385 82.5491C120.388 82.5587 120.388 82.5683 120.391 82.5791C121.331 86.303 123.077 89.7752 125.505 92.7506C127.934 95.7263 130.986 98.1323 134.446 99.7991C137.166 101.085 140.277 101.896 143.191 101.139C145.629 100.505 147.707 98.8082 149.143 96.7397C150.58 94.6712 151.423 92.2376 151.975 89.7779C152.455 87.6326 152.712 85.3364 151.943 83.2778C151.173 81.2192 149.095 79.5128 146.918 79.808" stroke="#171717" stroke-width="0.9621" stroke-linecap="round" stroke-linejoin="round"/>
<path d="M147.693 77.8065C150.788 77.5017 153.572 79.1148 155.55 81.4941C155.888 81.9009 156.202 82.3272 156.49 82.7706C158.47 85.8234 159.148 89.5401 159.395 93.1701C159.642 96.8001 159.497 100.462 160.027 104.064" stroke="#171717" stroke-width="0.9621" stroke-linecap="round" stroke-linejoin="round"/>
<path d="M112.448 148.8C112.422 148.8 112.393 148.803 112.367 148.803C110.254 148.935 109.655 152.055 110.684 153.944C110.942 154.405 111.241 154.843 111.575 155.252C112.608 156.544 113.878 157.682 114.526 159.197C115.805 162.182 114.308 165.616 112.428 168.262C110.562 170.888 108.308 173.217 106.214 175.66C106.202 175.669 106.192 175.68 106.184 175.692C105.051 176.984 104.004 178.348 103.049 179.776C100.333 183.92 98.8165 189.403 101.077 193.812C101.167 193.989 101.26 194.159 101.363 194.326C103.781 198.421 108.911 200.236 113.693 200.758C118.67 201.307 123.81 200.878 128.588 202.371C129.752 202.752 130.893 203.197 132.007 203.705C135.884 205.437 139.68 207.55 143.772 206.883C146.597 206.422 148.868 204.751 151.007 202.785C152.793 201.143 154.493 199.296 156.343 197.775C158.833 195.765 161.709 194.289 164.793 193.438C167.878 192.587 171.104 192.38 174.272 192.83C174.59 192.875 174.907 192.93 175.225 192.991C176.806 193.295 178.393 193.771 179.996 193.635C181.6 193.499 183.287 192.561 183.674 190.995C183.963 189.831 183.485 188.622 182.96 187.545C179.281 180.041 172.832 174.259 168.5 167.111C164.1 159.842 162.025 151.36 161.313 142.894C160.621 134.633 160.976 126.827 161.137 118.086C161.14 117.868 161.143 117.653 161.147 117.435" stroke="#171717" stroke-width="0.9621" stroke-linecap="round" stroke-linejoin="round"/>
<path d="M101.24 194.4C93.6055 201.37 83.7319 205.384 73.3996 205.717C69.4777 205.829 65.3218 205.454 61.8682 207.311C61.5571 207.478 61.2553 207.662 60.9637 207.862C58.1545 209.777 56.4004 213.012 55.2427 216.251C53.5753 220.917 53.0206 226.596 56.176 230.419C57.1492 231.571 58.366 232.494 59.7388 233.119C62.3428 234.344 65.4628 234.735 68.3938 234.847C92.9707 235.79 117.676 223.694 132.007 203.707C132.014 203.698 132.023 203.685 132.03 203.675" stroke="#171717" stroke-width="0.9621" stroke-linecap="round" stroke-linejoin="round"/>
<path d="M150.974 202.631C150.984 202.682 150.993 202.734 151.006 202.785C154.191 218.777 157.377 234.769 160.566 250.762C160.836 252.121 161.149 253.565 162.118 254.556C162.884 255.3 163.893 255.742 164.959 255.8C166.279 255.928 167.73 255.684 169.039 255.402C173.474 254.446 177.91 253.49 182.347 252.532C183.666 252.292 184.951 251.892 186.173 251.339C187.086 250.913 187.866 250.245 188.427 249.409C189.63 247.526 189.261 245.08 188.817 242.889C185.423 225.955 180.532 209.355 174.201 193.286" stroke="#171717" stroke-width="0.9621" stroke-linecap="round" stroke-linejoin="round"/>
<path d="M51.063 207.111C49.4955 207.394 48.0129 208.03 46.7274 208.971C43.9503 211.046 42.6066 214.474 41.3913 217.716C39.8841 221.747 38.376 225.778 36.8667 229.809C35.7954 232.672 34.7085 235.629 34.8015 238.685C34.8945 241.741 36.456 244.961 39.3015 246.083C40.599 246.582 42.0234 246.647 43.3611 246.269C45.9459 245.599 48.4011 243.62 50.2269 241.529C52.9944 238.354 55.5825 234.516 59.655 233.435" stroke="#171717" stroke-width="0.9621" stroke-linecap="round" stroke-linejoin="round"/>
<path d="M60.7765 207.445C57.5986 206.944 54.1576 206.502 51.0664 207.111" stroke="#171717" stroke-width="0.9621" stroke-linecap="round" stroke-linejoin="round"/>
<path d="M164.956 255.909C165.036 259.718 165.115 263.527 165.193 267.335C165.196 267.511 165.199 267.691 165.206 267.873C165.257 269.365 165.433 270.917 166.408 272.02C167.441 273.19 169.099 273.537 170.635 273.82C180.669 275.661 191.097 277.489 200.952 274.856C202.978 274.314 205.009 273.557 206.58 272.165C208.151 270.774 209.194 268.638 208.818 266.573C208.724 266.062 208.553 265.57 208.312 265.11C207.292 263.151 205.105 261.804 203.092 260.685C197.736 257.712 192.38 254.738 187.022 251.764" stroke="#171717" stroke-width="0.9621" stroke-linecap="round" stroke-linejoin="round"/>
<path d="M117.187 83.6876C104.189 87.6731 93.2675 96.5888 86.7611 108.526C80.2544 120.463 78.6797 134.474 82.3739 147.558C82.781 149.007 83.3294 150.543 84.5639 151.403C84.7634 151.542 84.9761 151.661 85.199 151.758C86.5877 152.368 88.2839 152.143 89.8265 151.89C90.8537 151.753 91.8632 151.507 92.8376 151.156C93.4076 150.936 93.935 150.619 94.3961 150.219C96.1985 148.625 96.3908 145.929 96.4679 143.523C96.7244 135.42 97.1669 127.088 100.55 119.722C103.33 113.665 108.573 108.354 114.855 106.612C116.226 106.227 117.64 106.024 119.063 106.009" stroke="#171717" stroke-width="0.9621" stroke-linecap="round" stroke-linejoin="round"/>
<path d="M114.859 106.552C114.859 106.571 114.856 106.594 114.856 106.612C113.99 120.626 113.124 134.322 112.262 148.333C112.259 148.406 112.252 148.48 112.249 148.554" stroke="#171717" stroke-width="0.9621" stroke-linecap="round" stroke-linejoin="round"/>
<path d="M111.528 155.289C108.898 157.797 107.407 161.315 106.728 164.884C106.051 168.434 106.118 172.077 106.185 175.691V175.755L106.215 175.659L106.389 175.053" stroke="#171717" stroke-width="0.9621" stroke-linecap="round" stroke-linejoin="round"/>
<path d="M156.172 81.4043C161.739 82.6265 166.83 85.4423 170.824 89.5079" stroke="#171717" stroke-width="0.9621" stroke-linecap="round" stroke-linejoin="round"/>
<path d="M161.166 118.087C162.676 131.241 169.333 138.893 175.192 141.019C181.051 143.145 188.298 143.472 193.65 140.602C197.438 138.572 199.856 135.189 201.113 131.662C202.37 128.135 202.583 124.432 202.79 120.765" stroke="#171717" stroke-width="0.9" stroke-linecap="round" stroke-linejoin="round"/>
<path d="M88.7109 165.21C89.058 167.341 89.5215 169.452 90.0996 171.534C90.3753 172.515 91.0101 173.705 92.0172 173.547C92.9568 173.403 93.3288 172.214 93.3159 171.264C93.2583 166.679 92.0493 162.301 91.1448 158.078C92.652 163.359 94.1625 173.923 96.1764 173.692C97.9368 173.015 95.3811 162.682 93.6108 157.154" stroke="#171717" stroke-width="0.9621" stroke-linecap="round" stroke-linejoin="round"/>
<path d="M88.7108 165.21C88.5494 162.777 88.2119 160.359 87.7007 157.975C88.0022 160.391 88.3067 162.812 88.7108 165.21Z" stroke="#171717" stroke-width="0.9621" stroke-linecap="round" stroke-linejoin="round"/>
<path d="M85.0132 152.06C85.1833 159.814 85.1833 165.621 86.4307 173.096C86.5366 173.722 86.9278 174.446 87.5626 174.456C88.3036 174.469 88.6018 173.52 88.6594 172.782C88.864 170.263 88.8811 167.732 88.7107 165.211" stroke="#171717" stroke-width="0.9621" stroke-linecap="round" stroke-linejoin="round"/>
<path d="M93.6109 157.155C95.3644 158.482 97.4869 159.23 99.6847 159.298C100.249 159.313 100.89 159.243 101.227 158.791C101.357 158.58 101.424 158.337 101.421 158.089C101.418 157.842 101.346 157.6 101.211 157.393C100.935 156.983 100.582 156.63 100.172 156.354C97.9522 154.635 95.7322 152.916 93.5122 151.197" stroke="#171717" stroke-width="0.9621" stroke-linecap="round" stroke-linejoin="round"/>
<path d="M120.497 82.4724C122.715 81.831 124.99 81.4083 127.29 81.21" stroke="#171717" stroke-width="0.9621" stroke-linecap="round" stroke-linejoin="round"/>
<path d="M225.991 103.855C232.347 105.667 235.864 108.025 235.864 110.599C235.864 115.541 221.716 119.674 202.786 120.704C199.81 120.867 196.713 120.954 193.535 120.954C180.566 120.954 168.961 119.527 161.197 117.282C154.963 115.477 151.205 113.145 151.205 110.599C151.205 108.169 154.412 105.936 160.059 104.17C161.345 103.766 162.762 103.387 164.295 103.034" stroke="#171717" stroke-width="1.029" stroke-linecap="round" stroke-linejoin="round"/>
<path d="M206.039 76.1964C207.269 76.4805 208.478 76.8459 209.66 77.2902C214.829 79.2333 219.411 82.8795 222.112 87.696C224.837 92.5704 225.511 98.2338 225.783 103.866C225.841 105.04 225.88 106.217 225.918 107.381C225.956 108.647 225.963 110.026 225.19 111.03C224.417 112.034 223.08 112.387 221.839 112.653C210.245 115.127 198.348 115.876 186.535 114.875C180.614 114.376 174.737 113.437 168.955 112.066C167.256 111.662 165.014 111.277 164.084 109.59C163.097 107.801 163.924 105.232 164.363 103.404C164.389 103.292 164.418 103.183 164.447 103.074C165.674 98.1882 167.89 93.6057 170.957 89.6088C171.425 88.9995 171.912 88.4031 172.422 87.8259C177.878 81.6615 185.245 77.5071 193.343 76.0281C193.513 75.9981 193.686 75.9705 193.856 75.9414" stroke="#171717" stroke-width="1.029" stroke-linecap="round" stroke-linejoin="round"/>
<path d="M198.137 75.5232C199.828 75.4323 201.523 75.5043 203.2 75.738" stroke="#171717" stroke-width="1.029" stroke-linecap="round" stroke-linejoin="round"/>
<path d="M51.0662 207.111H51.0629C44.8385 214.894 40.8911 224.37 39.044 234.167C38.6141 236.434 38.3 238.791 38.858 241.029C39.416 243.268 41.0321 245.379 43.28 245.889" stroke="#171717" stroke-width="0.9621" stroke-linecap="round" stroke-linejoin="round"/>
<path d="M51.1018 207.063C51.0889 207.078 51.0769 207.094 51.0664 207.111" stroke="#171717" stroke-width="1.029" stroke-linecap="round" stroke-linejoin="round"/>
<path d="M165.405 267.867C171.348 269.153 177.369 270.044 183.43 270.535C187.695 270.878 192.012 271.022 196.235 270.333C200.458 269.643 204.617 268.075 207.882 265.308" stroke="#171717" stroke-width="1.029" stroke-linecap="round" stroke-linejoin="round"/>
<path d="M205.531 79.1469C205.701 78.1656 205.871 77.181 205.955 76.1901C205.994 75.7389 206.01 75.2862 206.002 74.8338C206.018 73.3749 205.613 71.9424 204.838 70.7064C204.028 69.5064 202.677 68.619 201.228 68.5965C199.858 68.5707 198.575 69.2922 197.537 70.1838C195.783 71.7027 194.53 73.7172 193.943 75.9624C193.701 76.8672 193.575 77.7993 193.568 78.7362" stroke="#171717" stroke-width="1.029" stroke-linecap="round" stroke-linejoin="round"/>
<path d="M203.008 78.9672C203.128 77.9796 203.421 77.0172 203.454 76.0272C203.457 75.9309 203.457 75.8349 203.454 75.7353C203.424 74.8278 203.117 73.8948 202.389 73.3752C201.981 73.1157 201.508 72.9765 201.025 72.9738C200.542 72.9708 200.067 73.1043 199.657 73.359C198.883 73.8558 198.298 74.5974 197.996 75.4659C197.974 75.5127 197.954 75.561 197.938 75.6102C197.646 76.5297 197.462 77.4798 197.39 78.4419" stroke="#171717" stroke-width="1.029" stroke-linecap="round" stroke-linejoin="round"/>
<path d="M180.871 120.66C181.092 123.02 181.315 125.382 181.538 127.747" stroke="#171717" stroke-width="1.029" stroke-linecap="round" stroke-linejoin="round"/>
<path d="M127.815 106.92L129.023 112.956L134.154 108.58L127.815 106.92Z" stroke="#171717" stroke-width="0.9621" stroke-linecap="round" stroke-linejoin="round"/>
<path d="M144.415 117.634H137.926L139.737 124.425L144.415 117.634Z" stroke="#171717" stroke-width="0.9621" stroke-linecap="round" stroke-linejoin="round"/>
<path d="M150.451 130.461L155.733 136.799L148.641 139.818L150.451 130.461Z" stroke="#171717" stroke-width="0.9621" stroke-linecap="round" stroke-linejoin="round"/>
<path d="M133.248 141.025L125.551 138.46V147.212L133.248 141.025Z" stroke="#171717" stroke-width="0.9621" stroke-linecap="round" stroke-linejoin="round"/>
<path d="M138.681 156.568L147.886 156.116L142.604 162.756L138.681 156.568Z" stroke="#171717" stroke-width="0.9621" stroke-linecap="round" stroke-linejoin="round"/>
<path d="M122.835 180.261L127.362 187.656L118.006 187.052L122.835 180.261Z" stroke="#171717" stroke-width="0.9621" stroke-linecap="round" stroke-linejoin="round"/>
<path d="M157.091 181.619L157.393 172.263L164.486 177.243L157.091 181.619Z" stroke="#171717" stroke-width="0.9621" stroke-linecap="round" stroke-linejoin="round"/>
<path d="M138.783 36.5253L139.213 33.9183" stroke="#171717" stroke-width="0.9621" stroke-linecap="round" stroke-linejoin="round"/>
<path d="M131.775 38.4333L130.854 35.6088" stroke="#171717" stroke-width="0.9621" stroke-linecap="round" stroke-linejoin="round"/>
<path d="M124.475 42.5564L122.112 41.2859" stroke="#171717" stroke-width="0.9621" stroke-linecap="round" stroke-linejoin="round"/>
<path d="M93.9543 69.6819L93.6543 64.8267" stroke="#171717" stroke-width="0.9621" stroke-linecap="round" stroke-linejoin="round"/>
<path d="M91.2046 67.3542L96.4174 66.1368" stroke="#171717" stroke-width="0.9621" stroke-linecap="round" stroke-linejoin="round"/>
<path d="M174.873 73.7625C175.56 72.1794 176.386 70.6608 177.342 69.2241" stroke="#171717" stroke-width="0.9621" stroke-linecap="round" stroke-linejoin="round"/>
<path d="M177.986 73.0065C176.902 71.8542 175.737 70.7811 174.5 69.7947" stroke="#171717" stroke-width="0.9621" stroke-linecap="round" stroke-linejoin="round"/>
<path d="M234.766 31.7793L233.429 26.9442" stroke="#171717" stroke-width="0.9621" stroke-linecap="round" stroke-linejoin="round"/>
<path d="M231.929 30.2373C233.271 29.3647 234.699 28.6341 236.192 28.0571" stroke="#171717" stroke-width="0.9621" stroke-linecap="round" stroke-linejoin="round"/>
<path d="M198.989 56.532C196.252 55.9428 194.669 52.872 194.706 50.0706C194.744 47.2692 195.974 44.6481 196.989 42.0384C198.004 39.4287 198.828 36.5484 198.039 33.8604C197.099 30.6705 194.163 28.5717 191.595 26.46C189.026 24.3483 186.465 21.5067 186.772 18.1956" stroke="#171717" stroke-width="0.9621" stroke-linecap="round" stroke-linejoin="round"/>
<path d="M184.21 54.3702C182.69 53.7807 181.384 52.7442 180.464 51.3972C179.544 50.0505 179.054 48.4563 179.059 46.8255C179.147 42.768 182.329 38.8395 181.03 34.9953C180.166 32.4453 177.623 30.9453 175.556 29.2196C173.1 27.1357 171.158 24.5133 169.881 21.5565C168.604 18.5996 168.026 15.388 168.193 12.1715" stroke="#171717" stroke-width="0.9621" stroke-linecap="round" stroke-linejoin="round"/>
<path d="M170.897 57.9299C167.717 55.9244 166.167 51.6581 167.321 48.0791C167.69 46.9349 168.302 45.8633 168.5 44.678C168.883 42.3917 167.683 40.1702 166.526 38.1617" stroke="#171717" stroke-width="0.9621" stroke-linecap="round" stroke-linejoin="round"/>
<path d="M231.562 86.9127L236.782 80.9727" stroke="#171717" stroke-width="0.9621" stroke-linecap="round" stroke-linejoin="round"/>
<path d="M233.604 92.6274C240.265 92.7201 246.91 91.9491 253.374 90.3336" stroke="#171717" stroke-width="0.9621" stroke-linecap="round" stroke-linejoin="round"/>
<path d="M235.476 99.4413L244.338 106.136" stroke="#171717" stroke-width="0.9621" stroke-linecap="round" stroke-linejoin="round"/>
<path d="M216.403 23.5858C214.642 25.18 213.652 27.5242 213.463 29.8921C213.274 32.2601 213.842 34.6469 214.823 36.8108C215.749 38.8544 217.085 40.769 218.946 42.0224C220.807 43.2758 223.244 43.7903 225.354 43.0256C227.463 42.2609 229.076 40.0736 228.84 37.8422C228.604 35.6108 226.257 33.7352 224.084 34.2929C222.502 34.6985 221.384 36.1679 220.878 37.7204C220.236 39.7238 220.408 41.8994 221.356 43.7774C222.962 46.9181 226.384 48.5915 229.131 50.804C232.351 53.3969 234.815 57.0071 235.697 61.0457C236.147 63.0995 236.17 65.315 235.312 67.2344C234.453 69.1538 232.585 70.7021 230.484 70.7663C228.382 70.8305 226.264 69.1025 226.269 67.0001C226.275 64.8977 228.847 63.1478 230.672 64.1924" stroke="url(#paint5_linear_28_12836)" stroke-width="0.9621" stroke-linecap="round" stroke-linejoin="round"/>
<path d="M56.2438 84.3359L53.0938 81.8972" stroke="url(#paint6_linear_28_12836)" stroke-width="0.9621" stroke-linecap="round" stroke-linejoin="round"/>
<path d="M53.082 85.47L56.8488 79.5807" stroke="url(#paint7_linear_28_12836)" stroke-width="0.9621" stroke-linecap="round" stroke-linejoin="round"/>
<path d="M51.0815 145.125L48.146 139.743" stroke="#171717" stroke-width="0.9621" stroke-linecap="round" stroke-linejoin="round"/>
<path d="M47.0791 144.496C48.5053 143.408 49.7311 142.081 50.701 140.572" stroke="#171717" stroke-width="0.9621" stroke-linecap="round" stroke-linejoin="round"/>
<path d="M73.1771 92.9007C70.6853 90.0441 65.8343 90.4746 62.9012 92.8761C59.9681 95.2776 58.5422 99.0327 57.4877 102.674C55.3022 110.222 54.1933 118.361 56.3978 125.903C56.8688 127.514 57.5062 129.116 58.5991 130.39C59.692 131.664 61.3051 132.578 62.9822 132.499C65.1563 132.397 66.9122 130.733 68.2922 129.049C69.3494 127.756 70.337 126.341 70.7129 124.714C71.0888 123.087 70.7357 121.2 69.464 120.118C67.3274 118.298 63.8876 119.63 62.0987 121.793C58.5767 126.05 58.9487 132.38 60.8564 137.566C62.7641 142.752 65.9705 147.395 67.7501 152.626C69.77 158.615 69.8405 165.09 67.9514 171.122C67.4498 172.709 66.743 174.345 65.3672 175.28C62.9306 176.937 59.3588 175.555 57.7343 173.097C56.1098 170.639 55.9601 167.51 56.0681 164.566" stroke="#171717" stroke-width="0.9621" stroke-linecap="round" stroke-linejoin="round"/>
<path d="M203.994 150.993C206.11 152.016 207.969 153.502 209.434 155.34C210.899 157.179 211.932 159.322 212.458 161.614C212.983 163.905 212.987 166.284 212.469 168.577C211.952 170.87 210.926 173.017 209.467 174.861C208.245 176.405 206.419 177.811 204.483 177.446C202.548 177.082 201.379 175.147 200.46 173.402C199.802 172.154 199.13 170.692 199.676 169.39C200.267 167.979 202.187 167.465 203.586 168.088C204.984 168.712 205.855 170.182 206.159 171.682C206.864 175.157 204.959 178.662 202.54 181.255C200.121 183.849 197.145 185.902 194.916 188.66C193.203 190.811 191.988 193.316 191.359 195.993C190.731 198.67 190.703 201.454 191.28 204.143C191.839 206.663 193.219 209.317 195.694 210.047C198.617 210.909 201.629 208.624 203.054 205.93C203.789 204.541 204.264 202.915 203.857 201.397C203.449 199.88 201.923 198.597 200.38 198.894" stroke="#171717" stroke-width="0.9621" stroke-linecap="round" stroke-linejoin="round"/>
<path d="M193.37 180.703L192.447 175.726" stroke="url(#paint8_linear_28_12836)" stroke-width="0.9621" stroke-linecap="round" stroke-linejoin="round"/>
<path d="M190.593 179.355C191.858 179.046 193.026 178.424 193.988 177.545" stroke="url(#paint9_linear_28_12836)" stroke-width="0.9621" stroke-linecap="round" stroke-linejoin="round"/>
<path d="M218.209 176.413L216.172 171.886" stroke="#171717" stroke-width="0.9621" stroke-linecap="round" stroke-linejoin="round"/>
<path d="M214.819 175.969L219.349 173.257" stroke="#171717" stroke-width="0.9621" stroke-linecap="round" stroke-linejoin="round"/>
<path fill-rule="evenodd" clip-rule="evenodd" d="M188.427 249.408C189.627 247.526 189.26 245.079 188.817 242.889C185.424 225.955 180.532 209.355 174.201 193.285L174.272 192.83C171.104 192.38 167.877 192.587 164.793 193.438C161.709 194.289 158.832 195.765 156.342 197.775C155.195 198.718 154.105 199.787 153.017 200.855C152.35 201.508 151.685 202.161 151.006 202.785C154.192 218.777 157.379 234.769 160.566 250.762C160.835 252.121 161.149 253.565 162.118 254.555C162.884 255.3 163.893 255.742 164.959 255.8C166.281 255.928 167.731 255.684 169.039 255.402C173.477 254.444 177.913 253.487 182.347 252.532C183.667 252.293 184.952 251.892 186.173 251.339C187.086 250.913 187.866 250.245 188.427 249.408ZM172.331 195.157C172.226 194.913 171.942 194.801 171.699 194.906C171.455 195.012 171.343 195.295 171.448 195.539C177.998 210.665 182.652 226.543 185.305 242.812C185.348 243.074 185.595 243.252 185.857 243.209C186.12 243.167 186.297 242.919 186.255 242.657C183.589 226.31 178.913 210.356 172.331 195.157Z" fill="#171717"/>
<path d="M198.269 258.13C195.173 258.573 192.353 260.152 190.357 262.56" stroke="#171717" stroke-width="0.9621" stroke-linecap="round" stroke-linejoin="round"/>
<path d="M185.566 259.73C187.96 257.841 190.68 256.408 193.592 255.503" stroke="#171717" stroke-width="0.9621" stroke-linecap="round" stroke-linejoin="round"/>
<path d="M182.435 257.214C184.352 255.459 186.623 254.135 189.095 253.33" stroke="#171717" stroke-width="0.9621" stroke-linecap="round" stroke-linejoin="round"/>
<path d="M56.1398 234.808L50.7344 229.348" stroke="#171717" stroke-width="0.9621" stroke-linecap="round" stroke-linejoin="round"/>
<path d="M52.3088 238.642C50.9438 237.07 49.4339 235.63 47.7998 234.339" stroke="#171717" stroke-width="0.9621" stroke-linecap="round" stroke-linejoin="round"/>
<g opacity="0.1">
<path d="M127.817 80.97C121.961 81.0018 115.895 83.2239 110.681 85.7214C102.349 89.6616 95.1919 95.7099 89.9173 103.267C84.6424 110.824 81.4333 119.628 80.6077 128.807C79.9105 136.08 80.7427 143.418 83.0509 150.35C84.1789 153.718 89.5531 152.258 88.3936 148.877C86.5006 143.371 85.6279 137.566 85.8184 131.747C86.008 125.83 87.4684 120.314 89.3788 114.747C91.1488 109.59 94.561 104.711 98.2207 100.72C101.888 96.7014 106.151 93.2706 110.86 90.5469C113.471 89.0361 116.211 87.7611 119.048 86.7369C122.074 85.653 125.164 84.969 128.235 84.0642C129.92 83.568 129.624 80.9607 127.815 80.9703L127.817 80.97Z" fill="#171717"/>
</g>
<g opacity="0.1">
<path d="M115.312 106.823C114.292 108.17 114.234 110.227 114.019 111.86C113.777 113.705 113.588 115.557 113.408 117.41C113.057 121.016 112.787 124.629 112.598 128.248C112.222 135.478 112.122 142.744 112.462 149.977C112.612 153.145 117.513 153.177 117.415 149.977C117.196 142.827 117.149 135.689 117.485 128.542C117.65 125.022 117.892 121.506 118.212 117.995C118.371 116.24 118.557 114.488 118.748 112.736C118.933 111.043 119.428 108.894 118.781 107.276C118.142 105.681 116.335 105.472 115.311 106.823L115.312 106.823Z" fill="#171717"/>
</g>
<g opacity="0.1">
<path d="M193.31 76.362C191.46 76.3155 189.487 76.878 187.705 77.313C185.862 77.7498 184.078 78.4095 182.395 79.2777C178.874 81.0435 175.685 83.4051 172.969 86.2584C167.215 92.4186 164.05 100.512 163.513 108.88C163.285 112.427 168.897 112.448 169.053 108.88C169.405 101.698 172.086 94.827 176.689 89.3031C178.907 86.5944 181.521 84.2361 184.443 82.3077C185.837 81.4185 187.271 80.4978 188.709 79.6959C190.289 78.8139 192.016 78.3159 193.622 77.5152C194.195 77.2296 193.89 76.3767 193.31 76.362H193.31Z" fill="#171717"/>
</g>
<g opacity="0.1">
<path d="M163.42 103.925C161.68 103.237 159.802 104.098 158.133 104.662C156.328 105.289 154.596 106.111 152.969 107.114C151.236 108.16 151.658 110.692 153.516 111.296C156.316 112.206 159.69 111.61 162.518 111.12C163.91 110.88 164.693 109.17 164.344 107.902C163.94 106.43 162.524 105.832 161.127 106.076C158.622 106.51 155.981 106.316 153.516 106.883L155.279 111.065C156.698 110.084 158.176 109.188 159.702 108.383C161.147 107.61 162.902 107.327 163.972 106.017C164.121 105.859 164.227 105.667 164.28 105.457C164.333 105.247 164.333 105.027 164.277 104.817C164.222 104.608 164.114 104.416 163.964 104.26C163.814 104.104 163.627 103.989 163.42 103.925Z" fill="#171717"/>
</g>
<g opacity="0.1">
<path d="M146.777 46.544C144.28 45.7079 141.209 46.1603 138.647 46.4867C136.277 46.7885 133.974 47.1152 132.036 48.6407C130.164 50.1146 129.216 52.3307 128.714 54.6194C128.148 57.1862 127.507 60.3767 128.555 62.8439C129.389 64.8089 132.187 63.9599 132.745 62.2964C133.373 60.4205 132.922 58.1292 133.259 56.1512C133.514 54.6588 133.619 52.2962 134.888 51.2552C136.178 50.1974 138.51 49.8488 140.087 49.5608C142.256 49.1642 144.698 49.1186 146.777 48.4154C146.977 48.3539 147.152 48.2297 147.276 48.0611C147.401 47.8928 147.468 47.6891 147.468 47.4797C147.468 47.2706 147.401 47.0666 147.276 46.8983C147.152 46.73 146.977 46.6058 146.777 46.544H146.777Z" fill="#171717"/>
</g>
<g opacity="0.1">
<path d="M143.393 25.3476C142.352 24.2535 140.398 25.0014 139.283 25.6143C138.09 26.2701 136.798 27.5025 136.255 28.7685C135.819 29.784 136.022 30.9285 137.143 31.4016C137.385 31.5036 137.645 31.5528 137.908 31.5462C138.171 31.5399 138.429 31.4778 138.666 31.3641C138.902 31.2504 139.112 31.0878 139.282 30.8868C139.451 30.6861 139.576 30.4515 139.648 30.1989C139.91 29.2632 140.212 28.6518 141.059 28.0806C141.907 27.5094 142.925 27.5106 143.561 26.6484C143.679 26.4433 143.727 26.2047 143.697 25.9697C143.666 25.7346 143.56 25.516 143.393 25.3476Z" fill="#171717"/>
</g>
<g opacity="0.1">
<path d="M127.418 26.4502C125.834 26.7259 124.448 27.772 123.491 29.0572C122.432 30.4783 121.925 31.9183 121.257 33.5452C119.979 36.6559 126.468 37.7005 125.623 33.5452C125.443 32.6656 126.053 31.3468 126.507 30.5911C127.093 29.614 127.804 28.7449 128.482 27.8344C129.028 27.1015 128.129 26.3266 127.418 26.4502Z" fill="#171717"/>
</g>
<g opacity="0.1">
<path d="M114.813 37.6146C112.857 37.6785 111.04 39.2025 109.689 40.4742C107.894 42.0756 106.786 44.307 106.594 46.7046C106.071 51.8646 110.823 55.779 115.726 55.0119C118.699 54.5469 118.029 49.3089 115.008 49.7085C112.527 50.0367 111.102 48.0243 111.427 45.6285C111.607 44.3127 111.967 43.0632 112.864 42.054C113.75 41.0559 114.942 40.2276 115.688 39.1389C116.121 38.5065 115.547 37.5915 114.813 37.6152V37.6146Z" fill="#171717"/>
</g>
<g opacity="0.1">
<path d="M126.184 41.7965C124.58 42.0095 123.534 43.7447 123.284 45.2444C123.15 46.2023 123.176 47.1755 123.362 48.1244C123.555 49.3202 123.977 50.0945 124.989 50.8085C126.832 52.1093 128.799 49.9685 128.459 48.1403C128.325 47.4182 127.808 47.0303 127.529 46.4111C127.414 46.1009 127.345 45.7754 127.323 45.4451C127.203 44.5079 127.453 43.4366 127.173 42.5513C127.053 42.167 126.633 41.738 126.183 41.7977L126.184 41.7965Z" fill="#171717"/>
</g>
<g opacity="0.1">
<path d="M164.83 257.747C164.071 262.182 165.1 266.938 166.388 271.189C167.378 274.457 172.551 273.045 171.514 269.776C170.257 265.814 169.977 261.766 169.072 257.746C168.613 255.71 165.202 255.586 164.83 257.746V257.747Z" fill="#171717"/>
</g>
<g opacity="0.1">
<path d="M123.126 99.1757C122.725 101.18 122.836 103.385 122.946 105.421C123.06 107.553 123.136 109.683 123.156 111.819C123.197 116.2 122.785 120.549 122.346 124.906C121.468 133.626 119.396 142.091 116.484 150.346C115.397 153.427 120.373 154.816 121.393 151.699C124.159 143.098 125.884 134.196 126.53 125.184C126.867 120.732 126.705 116.271 126.464 111.819C126.242 107.709 126.167 102.747 124.207 99.0353C124.146 98.9372 124.059 98.8586 123.955 98.8091C123.851 98.7596 123.735 98.741 123.621 98.756C123.507 98.771 123.399 98.8187 123.312 98.8931C123.224 98.9678 123.16 99.0662 123.127 99.1763L123.126 99.1757Z" fill="#171717"/>
</g>
<g opacity="0.1">
<path d="M105.336 195.696C106.583 194.936 107.276 193.749 107.63 192.362C107.75 191.727 107.834 191.086 107.882 190.442C107.912 190.123 107.912 190.102 107.882 190.378L107.977 189.879C108.221 188.88 108.49 187.888 108.809 186.909C109.139 185.896 109.251 185.816 109.758 184.615C110.465 182.941 111.046 181.361 112.072 179.556C113.126 177.702 114.252 175.731 114.449 173.576C114.606 171.866 112.688 170.717 111.201 171.101C108.662 171.758 106.695 173.911 104.896 175.687C102.919 177.594 101.358 179.888 100.31 182.427C99.3664 184.726 98.8963 187.191 98.9278 189.676C98.9596 191.464 99.2485 193.313 100.51 194.679C101.712 195.982 103.679 196.708 105.337 195.698L105.336 195.696Z" fill="#171717"/>
</g>
<g opacity="0.1">
<path d="M161.149 119.929C160.743 121.567 161.417 122.963 162.068 124.434C162.678 125.813 163.346 127.161 164.072 128.479C165.52 131.182 167.293 133.697 169.352 135.969C171.2 137.961 173.389 139.607 175.816 140.827C177.847 141.833 181.947 143.691 183.83 141.561C184.096 141.278 184.266 140.918 184.315 140.532C184.365 140.147 184.292 139.756 184.107 139.414C183.517 138.223 182.14 137.893 180.981 137.464C180.032 137.132 179.111 136.727 178.224 136.253C176.2 135.08 174.385 133.579 172.851 131.813C171.187 129.896 169.75 127.791 168.57 125.543C167.93 124.382 167.333 123.198 166.721 122.021C166.061 120.751 165.459 119.394 164.115 118.721C162.988 118.158 161.479 118.593 161.149 119.928L161.149 119.929Z" fill="#171717"/>
</g>
</g>
<defs>
<linearGradient id="paint0_linear_28_12836" x1="163.253" y1="81.4041" x2="163.253" y2="104.17" gradientUnits="userSpaceOnUse">
<stop stop-color="#FF9A34"/>
<stop offset="1" stop-color="#EB6421"/>
</linearGradient>
<linearGradient id="paint1_linear_28_12836" x1="181.962" y1="117.282" x2="181.962" y2="142.684" gradientUnits="userSpaceOnUse">
<stop stop-color="#FF9A34"/>
<stop offset="1" stop-color="#EB6421"/>
</linearGradient>
<linearGradient id="paint2_linear_28_12836" x1="136.334" y1="79.7336" x2="136.334" y2="101.431" gradientUnits="userSpaceOnUse">
<stop stop-color="#FF9A34"/>
<stop offset="1" stop-color="#EB6421"/>
</linearGradient>
<linearGradient id="paint3_linear_28_12836" x1="137.082" y1="83.3207" x2="137.082" y2="92.0105" gradientUnits="userSpaceOnUse">
<stop stop-color="#FF9A34"/>
<stop offset="1" stop-color="#EB6421"/>
</linearGradient>
<linearGradient id="paint4_linear_28_12836" x1="101.758" y1="83.6874" x2="101.758" y2="153.049" gradientUnits="userSpaceOnUse">
<stop stop-color="#FF9A34"/>
<stop offset="1" stop-color="#EB6421"/>
</linearGradient>
<linearGradient id="paint5_linear_28_12836" x1="224.716" y1="23.5858" x2="224.716" y2="70.7678" gradientUnits="userSpaceOnUse">
<stop stop-color="#FF9A34"/>
<stop offset="1" stop-color="#EB6421"/>
</linearGradient>
<linearGradient id="paint6_linear_28_12836" x1="54.6688" y1="81.8972" x2="54.6688" y2="84.3359" gradientUnits="userSpaceOnUse">
<stop stop-color="#FF9A34"/>
<stop offset="1" stop-color="#EB6421"/>
</linearGradient>
<linearGradient id="paint7_linear_28_12836" x1="54.9654" y1="79.5807" x2="54.9654" y2="85.47" gradientUnits="userSpaceOnUse">
<stop stop-color="#FF9A34"/>
<stop offset="1" stop-color="#EB6421"/>
</linearGradient>
<linearGradient id="paint8_linear_28_12836" x1="192.909" y1="175.726" x2="192.909" y2="180.703" gradientUnits="userSpaceOnUse">
<stop stop-color="#FF9A34"/>
<stop offset="1" stop-color="#EB6421"/>
</linearGradient>
<linearGradient id="paint9_linear_28_12836" x1="192.29" y1="177.545" x2="192.29" y2="179.355" gradientUnits="userSpaceOnUse">
<stop stop-color="#FF9A34"/>
<stop offset="1" stop-color="#EB6421"/>
</linearGradient>
</defs>
</svg>
