<svg width="288" height="288" viewBox="0 0 288 288" fill="none" xmlns="http://www.w3.org/2000/svg">
<mask id="mask0_28_12835" style="mask-type:luminance" maskUnits="userSpaceOnUse" x="16" y="11" width="256" height="266">
<path d="M271.8 11.4H16.2002V276.6H271.8V11.4Z" fill="white"/>
</mask>
<g mask="url(#mask0_28_12835)">
<path fill-rule="evenodd" clip-rule="evenodd" d="M139.716 26.4842C139.722 26.4054 139.723 26.3263 139.719 26.2475C139.769 24.3257 140.427 22.3712 141.822 21.0518C143.28 19.6718 145.613 19.1564 147.372 20.1218C148.193 20.5925 148.808 21.353 149.096 22.2539C148.598 23.1736 148.468 24.2481 148.732 25.2602C149.029 24.8244 149.217 24.324 149.28 23.8008C149.344 23.2775 149.281 22.7467 149.097 22.2527C149.559 21.3416 150.342 20.6345 151.296 20.2685C152.276 19.947 153.339 19.9908 154.29 20.3917C155.241 20.7926 156.014 21.5237 156.468 22.4501C156.861 23.403 156.897 24.4659 156.57 25.4434C156.242 26.4209 155.573 27.2473 154.685 27.7709C156.114 27.7709 157.167 26.6586 158.218 25.5499C159.289 24.4191 160.357 23.292 161.815 23.3519C163.25 23.4119 164.395 24.77 164.573 26.1947C164.75 27.6194 164.135 29.0411 163.28 30.1928C161.3 32.8514 158.071 34.3487 154.806 34.9376L154.757 34.9475C151.697 35.4911 148.562 35.3294 145.449 35.1689C145.229 35.1575 145.008 35.1461 144.787 35.135C141.207 34.9574 137.081 35.0858 134.81 37.8596C132.99 40.0841 133.037 43.2461 133.181 46.1156C133.303 48.488 133.43 50.8616 133.563 53.2361L133.402 53.246C131.733 53.8679 129.982 54.4406 128.206 54.299C126.43 54.1574 124.613 53.1308 124.053 51.4394C123.494 49.748 124.741 47.5601 126.521 47.5994C125.486 47.2727 124.588 46.6109 123.971 45.7178C123.353 44.825 123.05 43.7516 123.109 42.6674C123.169 41.5832 123.588 40.5497 124.3 39.7298C125.012 38.9099 125.976 38.3504 127.041 38.1392C124.675 36.7013 123.889 33.1892 125.412 30.8792C126.936 28.5692 130.473 27.9113 132.727 29.5202C130.654 27.6053 131.309 23.6006 133.897 22.4819C136.405 21.4019 139.659 23.5514 139.717 26.2463C139.716 26.3263 139.716 26.4054 139.716 26.4842ZM161.432 24.0318C161.623 23.8372 161.935 23.8342 162.13 24.0251C162.831 24.7123 163.275 25.6184 163.389 26.593C163.503 27.5676 163.281 28.552 162.758 29.3825C162.613 29.6133 162.308 29.6826 162.077 29.5374C161.847 29.3922 161.777 29.0875 161.922 28.8567C162.325 28.2169 162.496 27.4587 162.408 26.708C162.32 25.9572 161.978 25.2592 161.439 24.7299C161.244 24.539 161.241 24.2264 161.432 24.0318ZM153.913 21.4217C153.426 21.2009 152.894 21.096 152.36 21.1152C152.087 21.125 151.874 21.3538 151.884 21.6262C151.894 21.8987 152.123 22.1116 152.395 22.1019C152.777 22.0881 153.157 22.1631 153.506 22.321C153.854 22.4788 154.161 22.7152 154.403 23.0117C154.645 23.3081 154.815 23.6565 154.899 24.0295C154.983 24.4026 154.98 24.7901 154.89 25.1618C154.826 25.4267 154.988 25.6937 155.253 25.7581C155.518 25.8225 155.785 25.66 155.85 25.3951C155.976 24.8752 155.98 24.3332 155.862 23.8114C155.744 23.2896 155.506 22.8024 155.168 22.3878C154.83 21.9731 154.401 21.6425 153.913 21.4217Z" fill="#171717"/>
<path fill-rule="evenodd" clip-rule="evenodd" d="M207.498 124.837C209.535 121.33 210.775 117.417 211.13 113.377C211.31 111.389 211.266 109.388 210.999 107.41C210.662 104.859 209.924 102.377 208.81 100.056C205.592 93.406 199.561 88.6183 193.013 85.0645L192.703 84.9493C190.558 90.7636 188.324 96.8083 186.109 102.761L186.757 103.001C190.117 104.212 191.19 106.689 190.795 109.374C190.36 112.356 188.116 115.59 185.188 117.634C184.054 118.464 183.061 119.47 182.246 120.615C179.952 123.705 178.258 127.986 177.936 131.52C177.876 132.099 177.861 132.682 177.889 133.263C177.991 135.218 178.485 137.308 179.976 138.578C181.848 140.177 184.641 139.973 187.044 139.423C194.724 137.67 201.828 133.143 206.31 126.693C206.73 126.09 207.126 125.472 207.498 124.837ZM196.048 89.5729C195.816 89.4286 195.512 89.4997 195.368 89.731C195.224 89.9626 195.295 90.2668 195.526 90.4111C200.563 93.5464 204.266 98.431 205.924 104.128C207.583 109.825 207.08 115.933 204.513 121.283C204.408 121.499 204.476 121.759 204.672 121.899C204.867 122.038 205.135 122.016 205.305 121.846L205.686 121.468C205.843 121.312 205.873 121.078 205.777 120.891C208.121 115.524 208.515 109.494 206.872 103.852C205.146 97.9216 201.292 92.8369 196.048 89.5729Z" fill="#171717"/>
<path fill-rule="evenodd" clip-rule="evenodd" d="M181.163 101.844L188.465 82.8439L188.323 82.792C177.813 77.9872 166.56 75.4372 155.07 74.4472C146.716 73.7716 138.322 73.777 129.969 74.4637C128.012 74.614 126.06 74.7928 124.116 75.0001C114.343 76.0366 104.386 77.8102 95.9293 82.8151C87.4729 87.82 80.7142 96.6484 80.5693 106.474V106.477C99.2389 102.051 120.907 99.517 144.019 99.517C156.365 99.4837 168.699 100.233 180.949 101.761L181.163 101.844ZM160.224 76.2394C159.953 76.2067 159.707 76.3993 159.674 76.6699C159.642 76.9405 159.834 77.1868 160.105 77.2195C168.704 78.2644 177.072 80.7223 184.87 84.4939C185.115 84.6127 185.411 84.5098 185.529 84.2644C185.648 84.019 185.545 83.7238 185.3 83.605C177.404 79.786 168.931 77.2975 160.224 76.2394Z" fill="#171717"/>
<path d="M186.758 103.002C190.118 104.213 191.19 106.692 190.795 109.375L190.472 109.329C188.577 109.014 185.987 108.615 184.092 108.3L184.053 108.283C184.733 106.457 185.418 104.617 186.109 102.763L186.758 103.002Z" fill="url(#paint0_linear_28_12835)"/>
<path d="M271.07 151.68C271.073 159.165 270.389 166.634 269.027 173.993C258.28 208.518 206.4 234.698 144.02 234.698C81.6408 234.698 29.7575 208.518 19.0106 173.994C17.648 166.635 16.964 159.165 16.9673 151.68C16.9673 132.358 42.5511 115.491 80.5695 106.475C99.24 102.05 120.908 99.5152 144.019 99.5152C156.364 99.4819 168.699 100.231 180.949 101.759L181.163 101.842L178.857 107.844L178.741 107.797C167.44 106.585 156.081 105.992 144.715 106.02C78.0753 106.02 24.0518 125.987 24.0518 150.616C24.0518 157.543 28.3262 164.104 35.9502 169.951C55.4367 184.897 96.8181 195.211 144.715 195.211C196.78 195.211 241.143 183.023 258.059 165.949C262.795 161.168 265.379 156.005 265.379 150.615C265.379 135.054 243.817 121.356 211.129 113.376C211.309 111.389 211.264 109.388 210.997 107.411L211.162 107.388C247.135 116.598 271.07 132.99 271.07 151.68Z" fill="url(#paint1_linear_28_12835)"/>
<path d="M260.37 201.388C245.052 232.782 198.709 255.602 143.915 255.602C89.9938 255.602 44.2552 233.503 28.2178 202.878C27.2504 200.786 26.3404 198.662 25.4878 196.508L25.6951 196.426C27.7681 195.083 30.6409 196.824 31.6312 199.088C32.6215 201.351 32.434 203.928 32.8225 206.363C33.211 208.798 34.5697 211.453 36.9946 211.913C38.6269 212.219 40.2886 211.436 41.9446 211.571C45.4819 211.857 47.2948 215.888 48.1372 219.336C48.9796 222.785 50.0623 226.852 53.4022 228.053C58.3378 229.823 63.6061 223.617 68.4955 225.506C74.2771 227.744 72.8029 238.526 78.8113 240.047C83.8393 241.32 87.4096 234.341 92.569 233.818C97.1527 233.357 100.45 238.007 102.49 242.139C104.53 246.272 107.202 251.103 111.795 251.462C115.938 251.787 119.219 248.24 122.029 245.18C124.839 242.12 128.837 239.007 132.746 240.415C138.086 242.34 138.564 251.123 144.069 252.515C148.11 253.535 151.647 249.76 154.003 246.322C156.359 242.883 159.478 238.925 163.621 239.376C169.274 239.991 171.663 248.415 177.342 248.744C185.549 249.221 186.506 233.403 194.726 233.189C200.198 233.051 203.824 240.498 209.264 239.902C217.266 239.027 216.154 223.324 224.176 222.679C228.181 222.357 231.731 226.542 235.647 225.641C242.127 224.144 239.418 212.647 245.048 209.106C247.621 207.486 251.112 208.182 253.794 206.75C257.055 205.01 257.999 200.89 258.894 197.307C259.788 193.723 261.572 189.633 265.205 188.972L265.245 188.985C263.885 193.221 262.294 197.379 260.477 201.439L260.37 201.388Z" fill="#171717"/>
<path d="M260.37 201.388L260.475 201.441C240.857 245.3 196.095 275.944 144.021 275.944C92.5147 275.944 48.1654 245.968 28.2183 202.878C44.2564 233.503 89.9944 255.602 143.916 255.602C198.709 255.602 245.052 232.782 260.37 201.388Z" fill="url(#paint2_linear_28_12835)"/>
<path d="M265.38 150.615C265.38 156.005 262.794 161.168 258.06 165.949L257.675 165.377C255.244 152.323 245.139 141.705 233.398 135.509C225.004 131.079 215.8 128.579 206.442 126.786L206.311 126.693C206.732 126.091 207.128 125.472 207.499 124.838C209.536 121.33 210.776 117.418 211.131 113.378C243.818 121.356 265.38 135.054 265.38 150.615Z" fill="#171717"/>
<path d="M203.48 43.7725L207.198 45.3982C207.198 45.3982 200.555 63.6682 192.704 84.9499C190.558 90.7642 188.324 96.8089 186.109 102.761C185.422 104.614 184.736 106.454 184.053 108.281C182.625 112.112 181.22 115.866 179.867 119.453L179.857 119.472C178.095 118.612 176.266 117.896 174.389 117.33L175.261 117.205L178.857 107.844L181.164 101.842L188.466 82.8424L203.48 43.7725Z" fill="url(#paint3_linear_28_12835)"/>
<path d="M190.472 109.329L190.795 109.375C190.36 112.357 188.116 115.591 185.188 117.635C184.054 118.464 183.061 119.471 182.246 120.616L182.19 120.576C181.914 120.484 181.035 120.033 179.857 119.474L179.867 119.454C181.219 115.868 182.624 112.113 184.052 108.283L184.092 108.299C185.987 108.615 188.577 109.013 190.472 109.329Z" fill="#171717"/>
<path d="M178.857 107.845L175.26 117.207L174.388 117.332C172.279 116.756 170.357 116.657 169.544 117.809C168.914 118.697 169.429 120.096 170.341 120.691C169.829 120.608 169.305 120.649 168.811 120.808C168.318 120.968 167.87 121.243 167.504 121.61L167.33 121.29C138.472 118.292 109.37 117.829 80.8455 122.715C68.6376 124.805 56.1303 128.095 46.6539 136.071C37.1775 144.047 31.6161 157.825 36.4566 169.223L35.9496 169.95C28.3257 164.103 24.0513 157.542 24.0513 150.615C24.0513 125.985 78.0747 106.019 144.714 106.019C156.08 105.992 167.44 106.586 178.741 107.799L178.857 107.845Z" fill="#171717"/>
<path d="M175.405 131.204V131.27C170.39 144.202 166.593 153.336 165.853 153.402L165.849 153.725C164.636 153.699 163.427 153.559 162.24 153.307L162.368 152.707L170.163 132.053L170.153 131.924C171.126 131.843 172.092 131.701 173.046 131.496C173.823 131.337 174.612 131.239 175.405 131.204Z" fill="url(#paint4_linear_28_12835)"/>
<path d="M155.392 71.4622C155.504 72.4297 155.29 73.4035 155.076 74.3545L155.07 74.4466C146.717 73.771 138.322 73.7764 129.97 74.4631L129.94 74.0683C128.88 73.3444 129.176 71.5642 130.183 70.7614C131.19 69.9586 132.562 69.8563 133.845 69.7906L134.576 69.751C138.827 69.5311 143.08 69.3094 147.333 69.0865C148.817 69.0106 150.3 68.9338 151.782 68.8561C152.496 68.8198 153.246 68.7904 153.894 69.0961C154.774 69.5143 155.28 70.4947 155.392 71.4622Z" fill="url(#paint5_linear_28_12835)"/>
<path d="M145.136 51.808C145.485 52.5484 146.722 52.3081 147.104 51.5842C147.485 50.8603 147.291 49.9816 147.084 49.1887C146.501 46.9183 145.917 44.6467 145.33 42.3742C145.06 41.3344 144.797 40.2025 145.205 39.2086C145.695 38.0242 147.041 37.3786 148.321 37.3363C149.601 37.294 150.839 37.741 152.039 38.1787" stroke="#171717" stroke-width="0.9873" stroke-linecap="round" stroke-linejoin="round"/>
<path d="M148.407 40.9822C148.404 41.236 148.458 41.4874 148.563 41.7181C148.67 41.9488 148.825 42.1534 149.02 42.3166C149.214 42.4798 149.442 42.598 149.688 42.6625C149.934 42.7273 150.19 42.7366 150.44 42.6898C150.69 42.6433 150.926 42.5419 151.132 42.3931C151.337 42.2443 151.508 42.0517 151.63 41.8294C151.752 41.6068 151.824 41.3599 151.84 41.1067C151.855 40.8532 151.815 40.5994 151.72 40.3636" stroke="#171717" stroke-width="0.9873" stroke-linecap="round" stroke-linejoin="round"/>
<path d="M137.972 40.7485C137.888 40.9807 137.858 41.2291 137.885 41.4748C137.912 41.7205 137.995 41.9566 138.127 42.1651C138.26 42.3733 138.439 42.5482 138.651 42.6763C138.862 42.8044 139.1 42.8821 139.347 42.9031C139.593 42.9244 139.84 42.8887 140.071 42.7987C140.301 42.7087 140.507 42.5668 140.674 42.3844C140.84 42.2017 140.962 41.9833 141.031 41.7457C141.099 41.5084 141.112 41.2582 141.069 41.0152" stroke="#171717" stroke-width="0.9873" stroke-linecap="round" stroke-linejoin="round"/>
<path d="M136.903 54.4501C137.015 56.7337 139.562 58.5532 141.757 57.9148" stroke="#171717" stroke-width="0.9873" stroke-linecap="round" stroke-linejoin="round"/>
<path d="M139.717 26.5137V26.4837C139.723 26.405 139.724 26.3259 139.72 26.247C139.66 23.5521 136.406 21.4032 133.9 22.4826C131.31 23.6013 130.656 27.606 132.73 29.5209C130.476 27.912 126.938 28.5666 125.415 30.88C123.892 33.1933 124.678 36.7 127.044 38.14C125.979 38.3512 125.014 38.9107 124.302 39.7306C123.59 40.5505 123.172 41.584 123.112 42.6682C123.052 43.7524 123.355 44.8255 123.973 45.7186C124.591 46.6117 125.488 47.2735 126.524 47.6002C124.744 47.5609 123.497 49.7491 124.056 51.4402C124.615 53.1313 126.435 54.1582 128.209 54.2998C129.982 54.4414 131.736 53.8687 133.404 53.2468" stroke="#171717" stroke-width="0.9873" stroke-linecap="round" stroke-linejoin="round"/>
<path d="M149.098 22.2525C148.809 21.3516 148.194 20.5911 147.374 20.1204C145.613 19.1562 143.28 19.6728 141.824 21.0504C140.429 22.3704 139.771 24.3243 139.721 26.2461C139.718 26.325 139.718 26.4039 139.718 26.4828" stroke="#171717" stroke-width="0.9873" stroke-linecap="round" stroke-linejoin="round"/>
<path d="M149.098 22.2526C148.599 23.1725 148.469 24.2475 148.733 25.2601C149.029 24.8243 149.217 24.3239 149.281 23.8007C149.344 23.2775 149.282 22.7466 149.098 22.2526Z" stroke="#171717" stroke-width="0.9873" stroke-linecap="round" stroke-linejoin="round"/>
<path d="M154.685 27.7707C155.573 27.2471 156.242 26.4207 156.57 25.4432C156.898 24.4658 156.862 23.4029 156.468 22.4499C156.014 21.5235 155.241 20.7925 154.29 20.3915C153.34 19.9906 152.276 19.9469 151.296 20.2683C150.342 20.6343 149.559 21.3415 149.098 22.2525" stroke="#171717" stroke-width="0.9873" stroke-linecap="round" stroke-linejoin="round"/>
<path d="M134.567 69.5504C134.202 64.1147 133.867 58.6766 133.563 53.2361C133.428 50.8637 133.301 48.4901 133.181 46.1156C133.037 43.2461 132.991 40.0856 134.81 37.8596C137.081 35.0858 141.207 34.9574 144.787 35.135C148.117 35.303 151.48 35.5298 154.757 34.9475L154.806 34.9376C158.071 34.3487 161.299 32.8514 163.28 30.1928C164.135 29.041 164.747 27.6196 164.573 26.1946C164.398 24.7696 163.25 23.4109 161.815 23.3518C158.926 23.2333 157.571 27.7708 154.685 27.7708H154.682" stroke="#171717" stroke-width="0.9873" stroke-linecap="round" stroke-linejoin="round"/>
<path d="M147.317 68.7937C146.087 67.7209 145.757 65.0557 146.564 63.6337C147.371 62.2117 148.778 61.258 150.17 60.4057C151.562 59.5534 153.02 58.7143 154.02 57.4246C155.501 55.5127 155.735 52.9363 155.804 50.5177C155.952 45.3112 155.619 40.1023 154.81 34.957" stroke="#171717" stroke-width="0.9873" stroke-linecap="round" stroke-linejoin="round"/>
<path d="M129.941 74.0683C128.881 73.3444 129.177 71.5642 130.184 70.7614C131.191 69.9586 132.563 69.8563 133.846 69.7906L134.577 69.751C138.828 69.5311 143.081 69.3094 147.334 69.0865C148.818 69.0106 150.301 68.9338 151.783 68.8561C152.497 68.8198 153.247 68.7904 153.895 69.0961C154.774 69.514 155.281 70.4944 155.393 71.4619C155.505 72.4294 155.291 73.4032 155.077 74.3542" stroke="#171717" stroke-width="0.9873" stroke-linecap="round" stroke-linejoin="round"/>
<path d="M211.087 113.367L211.13 113.377C243.818 121.356 265.38 135.054 265.38 150.615C265.38 156.005 262.793 161.168 258.06 165.949C241.143 183.024 196.781 195.212 144.715 195.212C96.8185 195.212 55.4371 184.896 35.9506 169.952C28.3266 164.104 24.0522 157.543 24.0522 150.617C24.0522 125.987 78.0757 106.02 144.715 106.02C156.081 105.993 167.441 106.587 178.742 107.8" stroke="#171717" stroke-width="0.9873" stroke-linecap="round" stroke-linejoin="round"/>
<path d="M271.07 151.68C271.073 159.165 270.389 166.634 269.027 173.993C267.27 183.448 264.399 192.66 260.475 201.439C240.857 245.299 196.095 275.943 144.02 275.943C92.514 275.943 48.1647 245.967 28.2176 202.877C27.2502 200.784 26.3402 198.661 25.4876 196.507C19.8441 182.236 16.9531 167.026 16.9673 151.68" stroke="#171717" stroke-width="0.9873" stroke-linecap="round" stroke-linejoin="round"/>
<path d="M211.163 107.388C247.135 116.598 271.07 132.991 271.07 151.681" stroke="#171717" stroke-width="0.9873" stroke-linecap="round" stroke-linejoin="round"/>
<path d="M16.9673 151.68C16.9673 132.358 42.5511 115.491 80.5695 106.475C99.24 102.05 120.908 99.5152 144.02 99.5152C156.365 99.4819 168.699 100.231 180.949 101.759" stroke="#171717" stroke-width="0.9873" stroke-linecap="round" stroke-linejoin="round"/>
<path d="M206.441 126.786C215.8 128.579 225.003 131.079 233.397 135.509C245.138 141.705 255.243 152.323 257.675 165.377" stroke="#171717" stroke-width="0.9873" stroke-linecap="round" stroke-linejoin="round"/>
<path d="M36.4574 169.223C31.6169 157.823 37.1813 144.047 46.6547 136.071C56.1281 128.095 68.6384 124.805 80.8463 122.715C109.371 117.829 138.473 118.292 167.331 121.29" stroke="#171717" stroke-width="0.9873" stroke-linecap="round" stroke-linejoin="round"/>
<path d="M271.07 160.71C271.066 165.216 270.376 169.695 269.027 173.994C258.28 208.518 206.4 234.698 144.02 234.698C81.6408 234.698 29.7575 208.518 19.0106 173.994C17.6606 169.695 16.9716 165.216 16.9673 160.71" stroke="#171717" stroke-width="0.9873" stroke-linecap="round" stroke-linejoin="round"/>
<path d="M260.386 201.352C260.379 201.363 260.373 201.375 260.369 201.388C245.052 232.782 198.708 255.602 143.915 255.602C89.9935 255.602 44.2549 233.503 28.2176 202.878C27.9938 202.454 27.7799 202.029 27.5693 201.605" stroke="#171717" stroke-width="0.9873" stroke-linecap="round" stroke-linejoin="round"/>
<path d="M25.6938 196.426C27.7668 195.083 30.6398 196.824 31.6301 199.088C32.6204 201.351 32.4329 203.928 32.8214 206.363C33.2099 208.798 34.5686 211.453 36.9935 211.913C38.6258 212.219 40.2875 211.436 41.9435 211.571C45.4808 211.857 47.2937 215.888 48.1361 219.336C48.9785 222.785 50.0612 226.852 53.4011 228.053C58.3367 229.823 63.605 223.617 68.4944 225.506C74.276 227.744 72.8018 238.526 78.8102 240.047C83.8382 241.32 87.4085 234.341 92.5679 233.818C97.1516 233.357 100.449 238.007 102.489 242.139C104.529 246.272 107.201 251.103 111.794 251.462C115.937 251.787 119.218 248.24 122.028 245.18C124.838 242.12 128.836 239.007 132.745 240.415C138.085 242.34 138.563 251.123 144.068 252.515C148.108 253.535 151.646 249.76 154.002 246.322C156.358 242.883 159.477 238.925 163.62 239.376C169.273 239.991 171.662 248.415 177.341 248.744C185.548 249.221 186.505 233.403 194.725 233.189C200.197 233.051 203.823 240.498 209.263 239.902C217.265 239.027 216.153 223.324 224.175 222.679C228.18 222.357 231.73 226.542 235.645 225.641C242.125 224.144 239.416 212.647 245.046 209.106C247.62 207.486 251.111 208.182 253.792 206.75C257.053 205.01 257.998 200.89 258.892 197.307C259.787 193.723 261.571 189.633 265.204 188.972" stroke="#171717" stroke-width="0.9873" stroke-linecap="round" stroke-linejoin="round"/>
<path d="M36.2564 187.541C35.7791 186.554 35.3018 185.566 34.8248 184.577C34.2161 183.32 33.6086 182.063 33.002 180.809" stroke="#171717" stroke-width="0.9873" stroke-linecap="round" stroke-linejoin="round"/>
<path d="M31.3696 186.396C33.3037 185.724 35.0521 184.606 36.4729 183.132" stroke="#171717" stroke-width="0.9873" stroke-linecap="round" stroke-linejoin="round"/>
<path d="M64.5874 209.144C64.0675 208.394 63.5509 207.644 63.031 206.894C62.317 205.86 61.6018 204.827 60.8857 203.794" stroke="#171717" stroke-width="0.9873" stroke-linecap="round" stroke-linejoin="round"/>
<path d="M60.1685 209.614C61.1225 208.709 62.0765 207.802 63.0311 206.893C63.6266 206.33 64.2191 205.764 64.8146 205.198" stroke="#171717" stroke-width="0.9873" stroke-linecap="round" stroke-linejoin="round"/>
<path d="M101.977 219.6C100.913 217.576 99.5855 215.701 98.0288 214.026" stroke="#171717" stroke-width="0.9873" stroke-linecap="round" stroke-linejoin="round"/>
<path d="M97.624 219.657C98.5159 218.719 99.4066 217.779 100.296 216.837C101.023 216.066 101.752 215.298 102.481 214.53" stroke="#171717" stroke-width="0.9873" stroke-linecap="round" stroke-linejoin="round"/>
<path d="M145.452 221.664C144.84 220.766 144.164 219.914 143.428 219.114C142.604 218.207 141.708 217.367 140.75 216.603" stroke="#171717" stroke-width="0.9873" stroke-linecap="round" stroke-linejoin="round"/>
<path d="M140.568 222.648C141.522 221.47 142.476 220.292 143.428 219.114C144.172 218.196 144.914 217.278 145.655 216.36" stroke="#171717" stroke-width="0.9873" stroke-linecap="round" stroke-linejoin="round"/>
<path d="M189.558 216.33C188.695 215.659 187.834 214.986 186.975 214.313L184.467 212.358" stroke="#171717" stroke-width="0.9873" stroke-linecap="round" stroke-linejoin="round"/>
<path d="M185.353 217.505C185.893 216.442 186.433 215.378 186.975 214.313C187.58 213.122 188.185 211.932 188.788 210.743" stroke="#171717" stroke-width="0.9873" stroke-linecap="round" stroke-linejoin="round"/>
<path d="M233.907 199.858C233.035 199.249 232.162 198.638 231.288 198.025C230.613 197.551 229.935 197.081 229.261 196.607" stroke="#171717" stroke-width="0.9873" stroke-linecap="round" stroke-linejoin="round"/>
<path d="M230.021 201.046C230.442 200.039 230.864 199.031 231.287 198.025C231.774 196.857 232.264 195.689 232.755 194.52" stroke="#171717" stroke-width="0.9873" stroke-linecap="round" stroke-linejoin="round"/>
<path d="M261.314 179.427C260.524 179.13 259.734 178.835 258.944 178.542C258.424 178.347 257.906 178.153 257.391 177.959" stroke="#171717" stroke-width="0.9873" stroke-linecap="round" stroke-linejoin="round"/>
<path d="M258.326 181.283C258.53 180.368 258.737 179.457 258.945 178.542C259.119 177.752 259.3 176.959 259.478 176.169" stroke="#171717" stroke-width="0.9873" stroke-linecap="round" stroke-linejoin="round"/>
<path d="M193.013 85.0652C199.561 88.619 205.592 93.4067 208.81 100.057C209.924 102.377 210.662 104.859 210.999 107.411C211.266 109.388 211.31 111.39 211.13 113.377C210.775 117.417 209.535 121.329 207.498 124.837C207.126 125.472 206.73 126.09 206.31 126.693C201.828 133.143 194.724 137.67 187.044 139.423C184.641 139.973 181.848 140.177 179.976 138.578C178.485 137.308 177.991 135.218 177.889 133.263C177.861 132.682 177.876 132.099 177.936 131.52C178.258 127.986 179.952 123.705 182.246 120.615C183.061 119.47 184.054 118.464 185.188 117.634C188.116 115.59 190.36 112.356 190.795 109.374C191.19 106.689 190.117 104.212 186.757 103.001" stroke="#171717" stroke-width="0.9873" stroke-linecap="round" stroke-linejoin="round"/>
<path d="M80.5693 106.473C80.7142 96.6478 87.4729 87.8194 95.9293 82.8145C104.386 77.8096 114.343 76.036 124.116 74.9995C126.06 74.7922 128.012 74.6134 129.969 74.4631C138.322 73.7764 146.716 73.771 155.07 74.4466C166.56 75.4366 177.813 77.9866 188.323 82.7914" stroke="#171717" stroke-width="0.9873" stroke-linecap="round" stroke-linejoin="round"/>
<path d="M177.521 131.481C176.837 131.266 176.121 131.172 175.405 131.205C174.612 131.24 173.823 131.338 173.046 131.497C172.092 131.702 171.126 131.844 170.153 131.925C169.62 131.96 169.085 131.933 168.557 131.846C167.07 131.593 165.596 130.583 165.306 129.102C165.017 127.622 166.465 125.937 167.906 126.381C167.336 125.948 166.925 125.34 166.734 124.65C166.543 123.961 166.584 123.228 166.85 122.564C167.005 122.206 167.227 121.883 167.504 121.61C167.87 121.243 168.318 120.968 168.811 120.808C169.304 120.648 169.828 120.608 170.34 120.69C169.428 120.095 168.915 118.696 169.544 117.808C170.356 116.656 172.278 116.755 174.387 117.331C176.265 117.896 178.094 118.612 179.856 119.473C181.034 120.032 181.913 120.483 182.189 120.575" stroke="#171717" stroke-width="0.9873" stroke-linecap="round" stroke-linejoin="round"/>
<path d="M170.163 132.053L162.368 152.708" stroke="#171717" stroke-width="0.9873" stroke-linecap="round" stroke-linejoin="round"/>
<path d="M179.867 119.454C181.22 115.868 182.625 112.113 184.053 108.283C184.733 106.457 185.419 104.617 186.109 102.763C188.324 96.8105 190.558 90.7657 192.704 84.9514C200.555 63.6685 207.198 45.3997 207.198 45.3997L203.48 43.774L188.466 82.8439L181.164 101.844L178.857 107.845L175.26 117.207" stroke="#171717" stroke-width="0.9873" stroke-linecap="round" stroke-linejoin="round"/>
<path d="M165.853 153.402C166.593 153.336 170.391 144.202 175.405 131.271" stroke="#171717" stroke-width="0.9873" stroke-linecap="round" stroke-linejoin="round"/>
<path d="M157.646 151.694C159.1 152.43 160.645 152.972 162.24 153.307C163.427 153.559 164.636 153.699 165.849 153.725C168.557 153.792 171.248 153.282 173.743 152.228" stroke="#171717" stroke-width="0.9873" stroke-linecap="round" stroke-linejoin="round"/>
<path d="M149.973 155.926C161.883 161.056 176.244 160.086 187.356 153.399" stroke="#171717" stroke-width="0.9873" stroke-linecap="round" stroke-linejoin="round"/>
<path d="M186.985 149.233C189.795 147.845 193.132 148.651 196.185 149.365C199.238 150.079 202.717 150.586 205.27 148.769" stroke="#171717" stroke-width="0.9873" stroke-linecap="round" stroke-linejoin="round"/>
<path d="M205.28 136.058C206.092 134.978 207.731 134.913 208.981 135.413C210.232 135.913 211.258 136.848 212.427 137.516C213.595 138.184 215.092 138.575 216.27 137.917" stroke="#171717" stroke-width="0.9873" stroke-linecap="round" stroke-linejoin="round"/>
<path d="M151.796 149.602C151.006 148.342 149.213 148.095 147.785 148.516C146.357 148.937 145.132 149.859 143.79 150.5C142.447 151.142 140.786 151.471 139.509 150.704" stroke="#171717" stroke-width="0.9873" stroke-linecap="round" stroke-linejoin="round"/>
<path d="M173.428 176.525C170.256 173.981 165.939 173.129 161.914 173.688C158.384 174.179 155.07 175.666 151.594 176.469C148.119 177.272 144.168 177.279 141.334 175.11" stroke="#171717" stroke-width="0.9873" stroke-linecap="round" stroke-linejoin="round"/>
<path d="M93.442 168.038C92.0302 166.522 89.602 166.729 87.5716 167.15C85.5412 167.571 83.2216 168.029 81.5566 166.795" stroke="#171717" stroke-width="0.9873" stroke-linecap="round" stroke-linejoin="round"/>
<path d="M81.5864 136.68C83.972 133.469 88.4207 132.495 92.4023 132.85C96.3839 133.205 100.198 134.627 104.153 135.222C109.729 136.056 115.426 135.238 120.543 132.87" stroke="#171717" stroke-width="0.9873" stroke-linecap="round" stroke-linejoin="round"/>
<path d="M78.1739 153.202C76.8413 151.222 74.12 150.632 71.7608 151.007C69.4016 151.382 67.2494 152.52 65.0021 153.327C62.7548 154.133 60.2021 154.59 58.0229 153.62" stroke="#171717" stroke-width="0.9873" stroke-linecap="round" stroke-linejoin="round"/>
<path d="M112.639 159.75C114.985 158.704 117.505 157.628 120.036 158.072C121.434 158.319 122.711 159.013 124.08 159.381C125.316 159.705 126.606 159.763 127.866 159.553C129.126 159.343 130.328 158.868 131.391 158.161" stroke="#171717" stroke-width="0.9873" stroke-linecap="round" stroke-linejoin="round"/>
<path d="M184.092 108.3C185.987 108.616 188.577 109.014 190.472 109.33" stroke="#171717" stroke-width="0.9873" stroke-linecap="round" stroke-linejoin="round"/>
<path d="M65.4946 91.3342C62.4979 88.7809 61.7725 84.3232 62.5792 80.4697C63.3859 76.6162 65.4559 73.1701 67.2976 69.6907C69.1393 66.2113 70.8166 62.4625 70.723 58.5268C70.5529 51.3805 64.753 45.7168 62.4247 38.959C61.3504 35.7421 61.0636 32.3146 61.5883 28.9639C62.113 25.6133 63.4336 22.4374 65.4397 19.7029" stroke="#171717" stroke-width="0.9873" stroke-linecap="round" stroke-linejoin="round"/>
<path d="M95.8661 60.6424C97.1099 59.6089 98.0513 58.2583 98.5907 56.7337C99.1301 55.2091 99.2474 53.5672 98.9303 51.9814C98.0603 47.9119 94.4846 44.9941 92.804 41.1871C92.0033 39.3256 91.6649 37.2982 91.8173 35.2777C91.97 33.2572 92.609 31.3036 93.68 29.5834" stroke="#171717" stroke-width="0.9873" stroke-linecap="round" stroke-linejoin="round"/>
<path d="M176.455 56.1877C174.202 53.7058 174.126 49.54 176.286 46.9777C177.711 45.2869 179.834 44.3725 181.567 42.9994C185.855 39.6022 187.332 33.1102 184.937 28.1919" stroke="#171717" stroke-width="0.9873" stroke-linecap="round" stroke-linejoin="round"/>
<path d="M226.494 99.9502C222.914 94.2124 223.254 86.2873 227.31 80.8759C230.557 76.5451 235.789 73.8835 238.512 69.2059C241.486 64.0969 240.834 57.6505 239.162 51.9802C237.489 46.3099 234.886 40.8646 234.166 34.9972C233.445 29.1297 235.13 22.4229 240.171 19.3353" stroke="#171717" stroke-width="0.9873" stroke-linecap="round" stroke-linejoin="round"/>
<path d="M108.751 65.7239C107.912 65.4359 107.139 64.9805 106.481 64.3853C105.822 63.7904 105.291 63.0677 104.919 62.2616" stroke="#171717" stroke-width="0.9873" stroke-linecap="round" stroke-linejoin="round"/>
<path d="M104.472 66.7201L108.108 62.0128" stroke="#171717" stroke-width="0.9873" stroke-linecap="round" stroke-linejoin="round"/>
<path d="M115.484 53.9608L111.79 49.7308" stroke="#171717" stroke-width="0.9873" stroke-linecap="round" stroke-linejoin="round"/>
<path d="M111.501 53.7601L114.52 49.8115" stroke="#171717" stroke-width="0.9873" stroke-linecap="round" stroke-linejoin="round"/>
<path d="M171.212 25.2857L176.055 24.3992" stroke="#171717" stroke-width="0.9873" stroke-linecap="round" stroke-linejoin="round"/>
<path d="M170.01 21.4533C172.558 18.3632 175.366 15.4982 178.405 12.8901" stroke="#171717" stroke-width="0.9873" stroke-linecap="round" stroke-linejoin="round"/>
<path d="M166.53 17.5233L166.95 11.9454" stroke="#171717" stroke-width="0.9873" stroke-linecap="round" stroke-linejoin="round"/>
<path d="M193.725 37.7323L192.099 34.0159" stroke="#171717" stroke-width="0.9873" stroke-linecap="round" stroke-linejoin="round"/>
<path d="M190.707 37.5025L195.12 34.4836" stroke="#171717" stroke-width="0.9873" stroke-linecap="round" stroke-linejoin="round"/>
<path d="M207.18 32.3956L205.488 27.54" stroke="#171717" stroke-width="0.9873" stroke-linecap="round" stroke-linejoin="round"/>
<path d="M203.712 31.4612C205.636 30.6317 207.434 29.5369 209.055 28.2091" stroke="#171717" stroke-width="0.9873" stroke-linecap="round" stroke-linejoin="round"/>
<path d="M149.902 73.8959C150.04 72.3221 150.136 70.7453 150.192 69.1658" stroke="#171717" stroke-width="0.9873" stroke-linecap="round" stroke-linejoin="round"/>
<path d="M144.72 73.7344L144.846 69.5527" stroke="#171717" stroke-width="0.9873" stroke-linecap="round" stroke-linejoin="round"/>
<path d="M138.46 73.888C138.357 72.5416 138.41 71.188 138.617 69.8539" stroke="#171717" stroke-width="0.9873" stroke-linecap="round" stroke-linejoin="round"/>
<path d="M132.752 74.1163C132.568 72.7798 132.537 71.4268 132.66 70.0834" stroke="#171717" stroke-width="0.9873" stroke-linecap="round" stroke-linejoin="round"/>
<path d="M103.217 95.7991C102.476 95.2834 101.844 94.6264 101.357 93.8656" stroke="url(#paint6_linear_28_12835)" stroke-width="0.9873" stroke-linecap="round" stroke-linejoin="round"/>
<path d="M110.457 87.4657L112.149 84.9808" stroke="url(#paint7_linear_28_12835)" stroke-width="0.9873" stroke-linecap="round" stroke-linejoin="round"/>
<path d="M127.966 93.5881C127.194 92.9782 126.612 92.161 126.289 91.2322" stroke="url(#paint8_linear_28_12835)" stroke-width="0.9873" stroke-linecap="round" stroke-linejoin="round"/>
<path d="M137.267 82.8582L139.208 80.3082" stroke="url(#paint9_linear_28_12835)" stroke-width="0.9873" stroke-linecap="round" stroke-linejoin="round"/>
<path d="M152.227 92.9339C151.615 92.2442 151.111 91.4651 150.732 90.6239" stroke="url(#paint10_linear_28_12835)" stroke-width="0.9873" stroke-linecap="round" stroke-linejoin="round"/>
<path d="M162.499 81.9202C163.105 81.2335 163.854 80.6866 164.692 80.3182" stroke="url(#paint11_linear_28_12835)" stroke-width="0.9873" stroke-linecap="round" stroke-linejoin="round"/>
<path d="M176.106 95.5202C175.182 94.8605 174.494 93.9209 174.146 92.84" stroke="url(#paint12_linear_28_12835)" stroke-width="0.9873" stroke-linecap="round" stroke-linejoin="round"/>
<path d="M198.37 97.5421C198.957 96.871 199.666 96.319 200.461 95.9161" stroke="url(#paint13_linear_28_12835)" stroke-width="0.9873" stroke-linecap="round" stroke-linejoin="round"/>
<path d="M202.058 121.477L200.781 118.11" stroke="url(#paint14_linear_28_12835)" stroke-width="0.9873" stroke-linecap="round" stroke-linejoin="round"/>
<path d="M185.816 128.649C186.71 128.052 187.501 127.315 188.158 126.466" stroke="url(#paint15_linear_28_12835)" stroke-width="0.9873" stroke-linecap="round" stroke-linejoin="round"/>
<g opacity="0.1">
<path d="M153.56 34.1938C151.4 34.003 149.321 34.4071 147.181 34.7059C145.132 34.9921 143.078 35.2963 141.039 35.6515C137.801 36.2152 134.455 37.6423 133.672 41.164C133.224 43.1815 133.291 45.2761 133.271 47.3281C133.249 49.5181 133.281 51.7027 133.329 53.8921C133.376 56.0815 133.434 58.2682 133.509 60.4564C133.55 61.6489 133.569 62.845 133.633 64.0366C133.697 65.2429 133.977 66.4141 134.058 67.6171C134.191 69.6172 137.07 69.634 137.179 67.6171C137.288 65.6176 137.567 63.6637 137.612 61.6498C137.656 59.6605 137.703 57.6721 137.721 55.6825C137.756 51.7225 137.919 47.7007 137.612 43.7476C137.492 42.2116 137.202 40.3405 138.632 39.2854C139.71 38.4898 141.392 38.3098 142.671 38.0638C146.379 37.3513 150.438 36.9808 153.886 35.3992C154.526 35.1055 154.128 34.2442 153.559 34.1938H153.56Z" fill="#171717"/>
</g>
<g opacity="0.1">
<path d="M17.8872 152.136C17.4801 154.875 17.7831 157.622 18.0342 160.371C18.2886 163.153 18.6666 165.921 19.1244 168.678C20.0649 174.341 20.9313 180.212 22.5117 185.733C25.6413 196.753 30.2547 207.297 36.225 217.074C47.9037 236.123 64.8912 252.009 84.7698 262.248C87.5469 263.678 90.3747 264.996 93.2532 266.203C96.0543 267.379 99.0021 268.207 101.893 269.143C104.917 270.123 108.142 270.059 111.144 270.98C114.047 271.871 116.987 272.825 120.02 273.09C120.835 273.161 120.896 271.979 120.203 271.737C117.619 270.833 114.906 270.365 112.259 269.664C109.69 268.985 107.528 267.487 105.141 266.37C102.665 265.211 100.18 264.21 97.7718 262.904C95.5158 261.68 93.1596 260.63 90.8829 259.441C81.5088 254.578 72.729 248.647 64.7181 241.767C48.1383 227.353 35.4015 209.044 27.6534 188.487C25.4745 182.691 23.2557 176.822 22.0485 170.732C21.4335 167.629 20.9553 164.507 20.5452 161.372C20.1432 158.3 20.1042 155.148 19.38 152.136C19.2117 151.435 18.0036 151.363 17.8884 152.136L17.8872 152.136Z" fill="#171717"/>
</g>
<g opacity="0.1">
<path d="M147.924 157.058L147.92 157.08C147.835 157.596 147.964 158.287 148.51 158.531C154.026 160.995 160.256 161.909 166.26 161.876C169.234 161.851 172.203 161.604 175.14 161.137C176.659 160.9 178.166 160.601 179.662 160.24C181.074 159.898 182.899 159.592 183.864 158.427C184.563 157.581 184.359 156.262 183.206 155.937C181.866 155.556 180.484 156.09 179.172 156.424C177.77 156.781 176.355 157.082 174.929 157.328C172.153 157.798 169.344 158.047 166.529 158.072C160.746 158.14 155.161 157.212 149.498 156.184C148.973 156.089 148.302 156.237 148.047 156.775C148 156.868 147.958 156.963 147.921 157.06L147.924 157.058Z" fill="#171717"/>
</g>
<g opacity="0.1">
<path d="M155.481 153.546C156.152 154.234 156.695 154.896 157.577 155.322C158.477 155.72 159.41 156.038 160.366 156.273C162.233 156.776 164.148 157.083 166.08 157.188C168.022 157.297 169.971 157.217 171.898 156.948C173.668 156.708 176.018 156.441 176.998 154.751C177.47 153.936 176.982 153.133 176.208 152.809C174.745 152.197 172.899 153.017 171.424 153.318C169.666 153.67 167.873 153.819 166.081 153.762C164.361 153.712 162.651 153.492 160.975 153.107C160.147 152.919 159.344 152.63 158.517 152.447C157.666 152.26 156.86 152.345 155.997 152.297C155.346 152.26 155.058 153.112 155.48 153.545L155.481 153.546Z" fill="#171717"/>
</g>
<g opacity="0.1">
<path d="M186.246 151.505C188.102 151.934 190.131 151.848 192.033 152.196C193.907 152.539 195.756 153.006 197.645 153.265C200.141 153.605 205.395 153.986 206.707 151.176C207.136 150.258 206.624 149.237 205.567 149.187C204.732 149.148 204.19 149.502 203.415 149.773C202.643 150.039 201.838 150.197 201.022 150.244C199.426 150.305 197.828 150.167 196.267 149.833C193.25 149.261 188.83 147.844 186.012 149.706C185.344 150.147 185.378 151.304 186.247 151.506L186.246 151.505Z" fill="#171717"/>
</g>
<g opacity="0.1">
<path d="M205.183 139.38C206.812 137.003 210.33 139.44 212.048 140.396C213.855 141.401 217.04 142.934 218.708 140.94C219.218 140.33 218.983 139.588 218.274 139.295C217.517 138.982 216.753 139.035 215.962 138.875C215.179 138.698 214.423 138.42 213.712 138.047C212.345 137.367 211.017 136.531 209.528 136.131C207.287 135.528 204.616 136.269 203.411 138.344C202.74 139.501 204.445 140.459 205.184 139.38L205.183 139.38Z" fill="#171717"/>
</g>
<g opacity="0.1">
<path d="M138.952 178.482C141.136 180.882 144.54 180.749 147.541 180.305C150.905 179.808 154.167 178.846 157.566 178.563C160.854 178.277 164.165 178.423 167.415 178.996C169.071 179.313 170.708 179.717 172.32 180.208C173.938 180.681 175.573 181.32 177.278 181.188C177.968 181.135 178.7 180.308 178.178 179.622C176.274 177.129 172.63 176.334 169.698 175.713C166.324 174.991 162.874 174.689 159.426 174.813C156.043 174.945 152.793 175.629 149.502 176.373C147.852 176.783 146.172 177.061 144.479 177.207C142.838 177.312 141.165 177.127 139.52 177.114C139.363 177.118 139.211 177.167 139.082 177.256C138.952 177.344 138.852 177.469 138.792 177.614C138.732 177.758 138.715 177.918 138.744 178.072C138.772 178.226 138.845 178.368 138.953 178.482H138.952Z" fill="#171717"/>
</g>
<g opacity="0.1">
<path d="M138.202 153.773C139.415 153.765 140.376 153.813 141.588 153.595C142.818 153.374 144.04 153.103 145.265 152.856C147.611 152.381 150.06 152.099 152.075 150.766C152.804 150.284 152.459 149.316 151.655 149.22C149.252 148.933 146.909 149.792 144.592 150.418C143.482 150.718 142.364 151.001 141.258 151.318C140.009 151.678 139.076 152.184 137.924 152.75C137.424 152.996 137.68 153.775 138.201 153.772L138.202 153.773Z" fill="#171717"/>
</g>
<g opacity="0.1">
<path d="M111.147 162.915C111.936 163.426 112.662 162.96 113.427 162.63C114.275 162.22 115.18 161.943 116.112 161.808C118.378 161.565 120.327 162.745 122.457 163.285C126.671 164.352 131.391 162.445 133.831 158.902C134.331 158.175 133.508 157.402 132.783 157.539C130.788 157.914 129.052 158.916 127.113 159.504C124.945 160.16 123.167 159.652 121.08 158.972C117.452 157.79 113.237 157.866 110.799 161.217C110.681 161.415 110.62 161.64 110.62 161.871C110.62 162.1 110.681 162.326 110.799 162.524C110.88 162.682 111.001 162.817 111.15 162.914L111.147 162.915Z" fill="#171717"/>
</g>
<g opacity="0.1">
<path d="M80.4132 140.561C83.1684 138.6 85.7313 136.991 89.2542 137.163C93.5862 137.373 97.7352 138.458 102.037 138.916C106.073 139.303 110.142 139.18 114.148 138.549C117.824 138.009 122.558 137.161 125.22 134.322C125.367 134.166 125.466 133.971 125.505 133.76C125.544 133.55 125.521 133.332 125.439 133.134C125.357 132.936 125.219 132.766 125.043 132.644C124.867 132.523 124.658 132.455 124.444 132.449C122.327 132.283 120.181 132.948 118.123 133.358C116.157 133.75 114.191 134.168 112.198 134.399C107.884 134.87 103.528 134.817 99.2262 134.242C95.0916 133.717 90.942 133.17 86.8527 134.219C83.8428 134.991 80.3561 136.58 79.3598 139.751C79.1816 140.318 79.8981 140.928 80.4132 140.561Z" fill="#171717"/>
</g>
<g opacity="0.1">
<path d="M55.0024 156.034C58.1296 158.771 63.3301 155.895 66.7204 155.008C68.8525 154.45 71.0809 154.367 73.2487 154.764C74.3098 154.961 75.3502 155.257 76.3558 155.649C77.4763 156.073 78.2308 156.551 79.4587 156.365C80.1634 156.258 80.7322 155.257 80.4607 154.6C79.6261 152.582 76.9285 151.874 74.932 151.459C72.7561 151.021 70.516 151.008 68.335 151.419C66.055 151.823 63.949 152.799 61.7899 153.593C59.6221 154.39 57.394 154.573 55.2133 155.235C55.1335 155.258 55.0612 155.302 55.0033 155.361C54.9451 155.421 54.9037 155.495 54.8824 155.575C54.8614 155.655 54.8614 155.74 54.8827 155.82C54.9037 155.901 54.9454 155.974 55.0033 156.034H55.0024Z" fill="#171717"/>
</g>
<g opacity="0.1">
<path d="M78.2251 169.729C79.3687 170.935 81.1609 170.561 82.669 170.477C84.5869 170.369 86.5279 170.171 88.4497 170.219C90.2245 170.264 91.7182 170.959 93.3772 171.491C94.8613 171.968 96.6355 172.301 97.834 171.101C98.3998 170.535 98.3878 169.298 97.555 168.937C96.8131 168.616 96.232 168.642 95.4442 168.517C94.6477 168.352 93.8686 168.11 93.1186 167.795C91.462 167.162 89.6935 166.877 87.9223 166.956C86.0743 167.042 84.226 167.285 82.3849 167.464C80.8396 167.614 79.0882 167.543 78.1216 168.927C78.049 169.053 78.0199 169.2 78.0388 169.345C78.0574 169.49 78.1228 169.624 78.2251 169.728V169.729Z" fill="#171717"/>
</g>
</g>
<defs>
<linearGradient id="paint0_linear_28_12835" x1="187.463" y1="102.763" x2="187.463" y2="109.375" gradientUnits="userSpaceOnUse">
<stop stop-color="#FF9A34"/>
<stop offset="1" stop-color="#EB6421"/>
</linearGradient>
<linearGradient id="paint1_linear_28_12835" x1="144.019" y1="99.514" x2="144.019" y2="234.698" gradientUnits="userSpaceOnUse">
<stop stop-color="#FF9A34"/>
<stop offset="1" stop-color="#EB6421"/>
</linearGradient>
<linearGradient id="paint2_linear_28_12835" x1="144.347" y1="201.388" x2="144.347" y2="275.944" gradientUnits="userSpaceOnUse">
<stop stop-color="#FF9A34"/>
<stop offset="1" stop-color="#EB6421"/>
</linearGradient>
<linearGradient id="paint3_linear_28_12835" x1="190.793" y1="43.7725" x2="190.793" y2="119.472" gradientUnits="userSpaceOnUse">
<stop stop-color="#FF9A34"/>
<stop offset="1" stop-color="#EB6421"/>
</linearGradient>
<linearGradient id="paint4_linear_28_12835" x1="168.822" y1="131.204" x2="168.822" y2="153.725" gradientUnits="userSpaceOnUse">
<stop stop-color="#FF9A34"/>
<stop offset="1" stop-color="#EB6421"/>
</linearGradient>
<linearGradient id="paint5_linear_28_12835" x1="142.348" y1="68.8342" x2="142.348" y2="74.4631" gradientUnits="userSpaceOnUse">
<stop stop-color="#FF9A34"/>
<stop offset="1" stop-color="#EB6421"/>
</linearGradient>
<linearGradient id="paint6_linear_28_12835" x1="102.287" y1="93.8656" x2="102.287" y2="95.7991" gradientUnits="userSpaceOnUse">
<stop stop-color="#FF9A34"/>
<stop offset="1" stop-color="#EB6421"/>
</linearGradient>
<linearGradient id="paint7_linear_28_12835" x1="111.303" y1="84.9808" x2="111.303" y2="87.4657" gradientUnits="userSpaceOnUse">
<stop stop-color="#FF9A34"/>
<stop offset="1" stop-color="#EB6421"/>
</linearGradient>
<linearGradient id="paint8_linear_28_12835" x1="127.127" y1="91.2322" x2="127.127" y2="93.5881" gradientUnits="userSpaceOnUse">
<stop stop-color="#FF9A34"/>
<stop offset="1" stop-color="#EB6421"/>
</linearGradient>
<linearGradient id="paint9_linear_28_12835" x1="138.237" y1="80.3082" x2="138.237" y2="82.8582" gradientUnits="userSpaceOnUse">
<stop stop-color="#FF9A34"/>
<stop offset="1" stop-color="#EB6421"/>
</linearGradient>
<linearGradient id="paint10_linear_28_12835" x1="151.48" y1="90.6239" x2="151.48" y2="92.9339" gradientUnits="userSpaceOnUse">
<stop stop-color="#FF9A34"/>
<stop offset="1" stop-color="#EB6421"/>
</linearGradient>
<linearGradient id="paint11_linear_28_12835" x1="163.596" y1="80.3182" x2="163.596" y2="81.9202" gradientUnits="userSpaceOnUse">
<stop stop-color="#FF9A34"/>
<stop offset="1" stop-color="#EB6421"/>
</linearGradient>
<linearGradient id="paint12_linear_28_12835" x1="175.126" y1="92.84" x2="175.126" y2="95.5202" gradientUnits="userSpaceOnUse">
<stop stop-color="#FF9A34"/>
<stop offset="1" stop-color="#EB6421"/>
</linearGradient>
<linearGradient id="paint13_linear_28_12835" x1="199.416" y1="95.9161" x2="199.416" y2="97.5421" gradientUnits="userSpaceOnUse">
<stop stop-color="#FF9A34"/>
<stop offset="1" stop-color="#EB6421"/>
</linearGradient>
<linearGradient id="paint14_linear_28_12835" x1="201.419" y1="118.11" x2="201.419" y2="121.477" gradientUnits="userSpaceOnUse">
<stop stop-color="#FF9A34"/>
<stop offset="1" stop-color="#EB6421"/>
</linearGradient>
<linearGradient id="paint15_linear_28_12835" x1="186.987" y1="126.466" x2="186.987" y2="128.649" gradientUnits="userSpaceOnUse">
<stop stop-color="#FF9A34"/>
<stop offset="1" stop-color="#EB6421"/>
</linearGradient>
</defs>
</svg>
