<svg width="288" height="288" viewBox="0 0 288 288" fill="none" xmlns="http://www.w3.org/2000/svg">
<g clip-path="url(#clip0_28_12817)">
<mask id="mask0_28_12817" style="mask-type:luminance" maskUnits="userSpaceOnUse" x="0" y="0" width="288" height="288">
<path d="M288 0H0V288H288V0Z" fill="white"/>
</mask>
<g mask="url(#mask0_28_12817)">
<mask id="mask1_28_12817" style="mask-type:luminance" maskUnits="userSpaceOnUse" x="21" y="11" width="246" height="266">
<path d="M266.7 11.7H21.2998V276.6H266.7V11.7Z" fill="white"/>
</mask>
<g mask="url(#mask1_28_12817)">
<path fill-rule="evenodd" clip-rule="evenodd" d="M165.667 115.744C167.551 106.278 168 98.2507 165.007 89.0776C162.017 79.9009 157.492 71.314 152.99 62.7817C152.044 60.9865 150.82 58.9867 148.813 58.6867C146.302 58.312 144.38 60.7936 143.063 62.9671C139.807 68.3554 136.55 73.7425 133.293 79.1284C132.194 80.9461 131.06 82.9045 131.163 85.0261C131.255 86.815 132.201 88.3654 133.152 89.9233C133.589 90.6391 134.027 91.3567 134.383 92.0998C135.15 93.7033 135.544 95.4598 135.537 97.2376L135.492 97.2676C137.574 100.443 139.268 103.843 141.021 107.36C141.207 107.734 141.394 108.108 141.582 108.485C145.652 117.127 149.891 125.595 154.187 134.13C157.532 131.148 159.227 129.242 161.427 126.207C163.657 123.14 164.929 119.464 165.667 115.744ZM156.332 77.3095C156.164 77.0515 155.82 76.9777 155.562 77.1448C155.304 77.3119 155.231 77.6563 155.397 77.9143C161.358 87.1192 163.684 98.2117 161.922 109.036C161.873 109.339 162.078 109.625 162.382 109.674C162.685 109.724 162.971 109.518 163.02 109.215C164.826 98.1181 162.442 86.7463 156.332 77.3095Z" fill="url(#paint0_linear_28_12817)"/>
<path fill-rule="evenodd" clip-rule="evenodd" d="M106.081 97.8388C104.953 95.3164 103.744 92.8348 102.431 90.394C102.034 89.6374 101.619 88.8844 101.196 88.1398C99.8383 85.7398 98.3431 83.3515 96.2179 81.5968C94.0927 79.8421 91.2061 78.8035 88.5361 79.486C85.5094 80.2651 83.3542 83.1061 82.5493 86.1256C81.7444 89.1451 82.0588 92.3425 82.4788 95.4361C82.6792 96.9133 82.9018 98.3881 83.1466 99.8611C83.5768 102.467 84.0814 105.057 84.6598 107.631C88.153 123.284 94.3078 138.348 103.273 151.627C105.788 155.344 109.475 159.231 114.475 158.229C117.882 157.55 120.377 153.003 120.762 149.861C121.111 147.035 120.417 144.197 119.727 141.434C116.041 126.649 112.287 111.696 106.081 97.8388ZM97.2943 87.7231C97.1452 87.4543 96.8065 87.3574 96.5377 87.5068C96.2692 87.6559 96.1723 87.9946 96.3214 88.2631C105.807 105.348 111.976 124.073 114.504 143.451C114.544 143.755 114.823 143.97 115.128 143.93C115.432 143.89 115.647 143.611 115.607 143.307C113.061 123.79 106.848 104.931 97.2943 87.7231Z" fill="url(#paint1_linear_28_12817)"/>
<path fill-rule="evenodd" clip-rule="evenodd" d="M173.197 242.738C175.936 236.489 177.766 229.88 178.631 223.112C178.92 220.873 179.114 218.627 179.211 216.376C179.259 215.278 179.285 214.184 179.293 213.086C155.409 210.812 130.716 219.069 113 235.242C114.521 237.026 116.09 238.769 117.707 240.471C118.691 241.505 119.688 242.523 120.701 243.524L120.708 243.699C123.643 243.583 126.583 243.476 129.528 243.376L133.531 234.533L139.988 230.957L147.321 233.661L147.414 233.665L147.581 230.171L150.637 223.012L157.881 222.314L165.474 229.907L167.655 238.461L170.99 242.831H170.993L171.101 242.745H171.108C171.803 242.745 172.502 242.745 173.197 242.749V242.738ZM176.107 218.021C176.097 217.714 175.84 217.473 175.532 217.484C175.225 217.494 174.985 217.751 174.995 218.058C175.206 224.369 173.939 230.642 171.296 236.377C171.167 236.656 171.289 236.986 171.568 237.115C171.847 237.243 172.178 237.122 172.306 236.843C175.022 230.95 176.324 224.505 176.107 218.021Z" fill="url(#paint2_linear_28_12817)"/>
<path fill-rule="evenodd" clip-rule="evenodd" d="M130.24 169.465C133.815 169.464 137.311 170.524 140.284 172.511C143.257 174.497 145.574 177.32 146.943 180.623C148.311 183.926 148.669 187.562 147.972 191.068C147.275 194.575 145.553 197.797 143.025 200.325C140.496 202.853 137.275 204.575 133.768 205.272C130.261 205.97 126.626 205.612 123.323 204.243C120.02 202.874 117.196 200.557 115.21 197.584C113.224 194.611 112.164 191.116 112.165 187.54C112.165 182.746 114.07 178.149 117.459 174.76C120.849 171.37 125.446 169.465 130.24 169.465ZM137.96 174.848C138.202 174.518 138.666 174.446 138.997 174.688C141.766 176.714 143.784 179.604 144.733 182.902C145.683 186.2 145.51 189.72 144.241 192.909C144.09 193.29 143.659 193.476 143.278 193.325C142.897 193.173 142.711 192.742 142.863 192.361C144.01 189.477 144.166 186.295 143.308 183.312C142.449 180.33 140.625 177.718 138.121 175.885C137.79 175.643 137.718 175.179 137.96 174.848ZM123.775 177.226C123.793 177.022 123.643 176.841 123.439 176.823C123.235 176.805 123.054 176.956 123.036 177.16L122.781 180.011L120.723 178.712L120.528 178.589L120.332 178.709L117.975 180.149C117.8 180.256 117.745 180.484 117.852 180.659C117.959 180.834 118.187 180.889 118.362 180.782L120.522 179.462L122.706 180.842L122.251 185.931L122.224 186.221L122.5 186.315L124.303 186.929L123.385 189.454L117.416 191.105L117.07 191.2L117.154 191.549L118.201 195.87C118.25 196.069 118.45 196.191 118.649 196.143C118.849 196.095 118.971 195.894 118.923 195.695L117.96 191.724L123.766 190.118L123.951 190.067L124.016 189.887L125.005 187.168L128.36 188.31L127.946 191.027C127.928 191.076 127.92 191.127 127.923 191.178L127.49 194.025C127.459 194.227 127.598 194.417 127.801 194.447C128.003 194.478 128.192 194.339 128.223 194.136L128.58 191.794L130.837 193.298L131.072 193.455L131.285 193.27L133.249 191.568C133.404 191.434 133.42 191.2 133.286 191.045C133.152 190.89 132.918 190.873 132.763 191.008L131.013 192.524L128.703 190.984L129.14 188.114L129.187 187.808L128.893 187.708L123.016 185.707L123.161 184.083L129.335 183.453L129.734 183.412L129.663 183.018L129.298 183.084C129.663 183.018 129.663 183.018 129.663 183.018L129.662 183.017L129.662 183.014L129.66 183.005L129.654 182.968L129.628 182.83C129.606 182.71 129.574 182.537 129.535 182.327C129.458 181.907 129.351 181.338 129.237 180.74C129.009 179.554 128.744 178.224 128.607 177.745C128.551 177.548 128.345 177.434 128.149 177.491C127.951 177.547 127.837 177.752 127.894 177.949C128.019 178.388 128.277 179.676 128.508 180.879C128.622 181.475 128.728 182.043 128.806 182.462C128.826 182.571 128.845 182.669 128.86 182.756L123.228 183.33L123.775 177.226Z" fill="#171717"/>
<path d="M218.539 228.513L223.847 243.673C219.132 243.491 214.42 243.338 209.711 243.213L205.361 237.326L207.367 231.74L203.527 226.243L206.684 225.512L214.088 223.8L218.539 228.513Z" fill="url(#paint3_linear_28_12817)"/>
<path d="M205.36 237.326L209.71 243.213C205.496 243.105 201.281 243.018 197.065 242.95L197.239 232.003L203.526 226.243L207.366 231.741L205.36 237.326Z" fill="#171717"/>
<path d="M206.799 264.775L208.598 269.404L201.517 269.27L201.606 264.905L208.153 260.02L206.799 264.775Z" fill="#171717"/>
<path d="M193.227 230.52L194.788 242.912C194.08 242.901 193.368 242.894 192.658 242.886L192.725 239.181L186.965 234.861L185.263 228.054L178.63 223.113C178.92 220.873 179.112 218.628 179.209 216.377L179.261 216.381L184.5 209.658L189.912 216.817L189.3 224.759L193.227 230.52Z" fill="#171717"/>
<path d="M185.263 228.053L181.795 233.093L182.97 239.769L182.188 242.715V242.781C179.191 242.763 176.194 242.752 173.197 242.748V242.737C175.936 236.488 177.766 229.879 178.631 223.111L185.263 228.053Z" fill="#171717"/>
<path d="M176.821 249.196L179.873 256.615L178.39 262.638L178.408 262.731L173.938 263.684C173.938 263.684 168.964 263.247 168.441 263.247C167.918 263.247 171.06 254.782 171.06 254.782L174.287 254.344L176.821 249.196Z" fill="#171717"/>
<path d="M167.355 246.031L168.638 248.083L163.271 249.325L159.539 244.485L154.762 241.013L160.192 239.051L164.054 240.753L167.355 246.031Z" fill="url(#paint4_linear_28_12817)"/>
<path d="M159.539 244.485L163.27 249.326L151.553 247.886L152.113 246.684L154.761 241.013L159.539 244.485Z" fill="#171717"/>
<path d="M154.302 266.388L157.967 274.767L142.258 275.991L146.012 269.793L143.478 266.477L144.528 261.24L150.374 266.388H154.302Z" fill="url(#paint5_linear_28_12817)"/>
<path d="M150.637 223.012L154.476 229.121L152.729 237.764L146.446 247.189L140.336 244.57L147.321 235.668L147.414 233.665L147.581 230.171L150.637 223.012Z" fill="#171717"/>
<path d="M143.478 266.477L146.011 269.793L142.257 275.991C142.257 275.991 134.924 272.849 134.665 272.675L140.774 262.812L144.527 261.24L143.478 266.477Z" fill="#171717"/>
<path d="M138.752 250.672L141.864 254.737L140.681 257.616L132.636 257.312L134.338 251.685L138.752 250.672Z" fill="#171717"/>
<path d="M140.685 239.507L134.576 245.008L129.342 243.784L129.527 243.376L133.529 234.533L139.987 230.957L137.369 236.191L140.685 239.507Z" fill="#171717"/>
<path d="M124.235 270.535L124.535 274.089L120.851 273.677L118.429 273.351L119.806 270.799L122.751 267.523L124.235 270.535Z" fill="#171717"/>
<path d="M113.782 243.895L113.785 243.981C109.045 244.185 104.311 244.411 99.5825 244.659L99.5786 244.615L99.7085 240.883L100.703 239.296L102.973 235.661L103.963 234.077L106.059 238.725L111.689 240.95L113.782 243.895Z" fill="#171717"/>
<path d="M111.307 252.063L112.198 254.341L108.711 254.274L108.752 252.126L111.975 249.719L111.307 252.063Z" fill="#171717"/>
<path d="M95.8024 231.169L96.5665 226.547L99.8419 233.16L102.85 235.583L102.973 235.661L100.703 239.296L100.625 239.247L95.1274 235.253L95.4835 233.108L95.6689 231.985L95.8024 231.169Z" fill="#171717"/>
<path d="M98.3361 214.636L86.0289 216.862L85.1793 226.547L79.3521 230.28V241.467L75.4575 237.45L75.4908 237.416L77.9808 218.696C77.9808 218.696 84.3942 214.111 84.7875 213.982C85.1808 213.852 86.6199 204.95 86.6199 204.95C86.6199 204.95 78.3699 195.784 78.1107 195.391L85.9632 189.894H85.9668C89.5353 198.195 93.4596 206.348 98.0406 214.141C98.136 214.306 98.2359 214.473 98.3361 214.636Z" fill="url(#paint6_linear_28_12817)"/>
<path d="M93.0316 258.884L98.2693 264.381L95.2573 267.523H88.0909L87.7978 263.859L83.3467 260.717L93.0316 258.884Z" fill="url(#paint7_linear_28_12817)"/>
<path d="M97.9428 244.615L97.95 244.745C94.2333 244.941 90.5214 245.154 86.8149 245.382L87.0114 243.109L89.8914 236.302L93.8196 239.77L97.0896 240.686L97.9428 244.615Z" fill="#171717"/>
<path d="M79.352 241.466V230.28L85.1792 226.548L86.0288 216.863L89.8271 223.8L89.3669 231.522L91.7891 234.534L91.8491 234.605L89.8907 236.304L87.0107 243.11L86.8142 245.384C84.3251 245.536 81.8372 245.696 79.3511 245.864L79.352 241.466Z" fill="#171717"/>
<path d="M87.798 263.858L88.0911 267.523H83.6067L80.0718 266.084L83.3469 260.717L87.798 263.858Z" fill="#171717"/>
<path d="M86.6184 204.948C86.6184 204.948 85.1784 213.85 84.786 213.98C84.3936 214.11 77.9793 218.694 77.9793 218.694L75.4893 237.414L75.456 237.448L73.2636 235.189L69.7536 236.813L69.7275 236.758L72.606 218.3L81.3783 210.574L78.1083 195.388C78.3687 195.782 86.6184 204.948 86.6184 204.948Z" fill="#171717"/>
<path d="M76.1434 165.804C70.6981 166.164 42.6034 159.108 35.8234 138.44C33.0751 130.065 28.9726 120.766 27.3997 112.16C27.118 110.617 26.8729 108.95 27.5554 107.542C28.6387 105.306 31.5097 104.69 33.991 104.534C40.0186 104.159 44.9224 106.559 50.683 108.384C53.3944 109.245 57.2929 110.454 58.9213 112.784C60.6721 115.287 60.7351 118.548 61.0096 121.589C61.2841 124.631 60.9169 127.977 63.4318 129.713L63.6022 129.69C64.1551 133.74 65.4568 137.706 66.9022 141.497C68.215 144.935 69.6097 148.344 70.9786 151.761C71.6203 153.359 72.2584 154.962 72.8776 156.568C74.0497 159.613 75.2146 162.663 76.3717 165.718L76.1434 165.804Z" fill="url(#paint8_linear_28_12817)"/>
<path d="M64.3627 239.31L67.4191 246.724C64.396 246.955 61.3729 247.2 58.3501 247.459L64.3627 239.31Z" fill="#171717"/>
<path d="M56.8995 247.56L56.9034 247.586C54.6777 247.779 52.4523 247.979 50.2266 248.186L50.7459 240.619L55.5903 232.308L56.1798 239.9L56.8995 247.56Z" fill="#171717"/>
<path d="M82.9949 99.8862C73.9814 105.439 64.0181 112.75 63.3653 124.282C63.2942 125.586 63.3176 126.894 63.4358 128.195C63.4802 128.696 63.536 129.193 63.6026 129.69C64.1555 133.74 65.4572 137.706 66.9026 141.497C68.2154 144.935 69.6101 148.344 70.979 151.76C71.6207 153.359 72.2588 154.961 72.878 156.568C74.0501 159.613 75.2147 162.663 76.3721 165.718C77.7374 169.319 79.1174 172.916 80.5121 176.508C81.7319 179.631 82.9808 182.744 84.2585 185.848C84.8183 187.198 85.3871 188.546 85.9646 189.891C89.5331 198.193 93.4574 206.345 98.0384 214.139C98.135 214.306 98.2349 214.472 98.3351 214.636C100.037 217.514 101.833 220.336 103.721 223.1C105.835 226.194 108.066 229.199 110.413 232.118C111.255 233.171 112.116 234.212 112.998 235.241C114.518 237.025 116.087 238.768 117.705 240.471C118.688 241.502 119.685 242.52 120.698 243.524" stroke="#171717" stroke-width="1.1127" stroke-miterlimit="10" stroke-linecap="round"/>
<path d="M173.197 242.738C175.936 236.489 177.766 229.88 178.63 223.112C178.92 220.872 179.113 218.627 179.209 216.376C179.257 215.278 179.283 214.184 179.291 213.086C179.291 212.126 179.278 211.164 179.254 210.2C179.106 205.416 178.615 200.648 177.784 195.934C175.755 184.179 171.845 172.532 167.176 161.404C164.957 156.122 162.568 150.955 160.128 145.948C158.748 143.184 157.368 140.438 155.988 137.709C155.388 136.511 154.787 135.318 154.185 134.13C149.89 125.595 145.65 117.127 141.581 108.484C139.622 104.567 137.794 100.78 135.491 97.267C135.328 97.0186 135.164 96.7738 134.994 96.529C133.47 94.2652 131.699 92.1787 129.712 90.3085C121.922 83.2609 110.798 87.3412 102.43 90.3937H102.426" stroke="#171717" stroke-width="1.1127" stroke-miterlimit="10" stroke-linecap="round"/>
<path d="M171.101 242.746C171.798 242.746 172.499 242.746 173.197 242.749C176.194 242.753 179.191 242.764 182.188 242.783C185.678 242.805 189.168 242.84 192.658 242.886C193.366 242.894 194.079 242.901 194.788 242.912C195.549 242.923 196.309 242.935 197.066 242.95C201.283 243.016 205.498 243.104 209.71 243.213C214.421 243.339 219.133 243.492 223.847 243.673C237.883 244.222 251.918 245.06 265.984 246.306" stroke="#171717" stroke-width="1.1127" stroke-miterlimit="10" stroke-linecap="round"/>
<path d="M22.0361 251.21C31.436 250.06 40.8329 249.052 50.2268 248.187C52.4522 247.975 54.6779 247.775 56.9036 247.587C57.3857 247.542 57.8678 247.502 58.3502 247.461C61.373 247.201 64.3961 246.956 67.4192 246.726C71.3957 246.418 75.3731 246.13 79.352 245.862C81.8408 245.695 84.3284 245.536 86.8151 245.384C90.5243 245.154 94.2359 244.941 97.9502 244.746C98.4956 244.716 99.0371 244.686 99.5825 244.66C104.312 244.412 109.046 244.185 113.785 243.981C116.089 243.885 118.396 243.791 120.707 243.699C123.641 243.585 126.581 243.477 129.527 243.377" stroke="#171717" stroke-width="1.1127" stroke-miterlimit="10" stroke-linecap="round"/>
<path d="M154.057 134.245C154.101 134.208 154.142 134.167 154.187 134.13C157.532 131.148 159.227 129.24 161.427 126.207C163.657 123.14 164.929 119.464 165.667 115.743C167.551 106.277 168 98.2503 165.007 89.0772C162.014 79.9041 157.492 71.3136 152.989 62.7822C152.043 60.987 150.819 58.9875 148.812 58.6872C146.301 58.3125 144.38 60.7941 143.063 62.9676C139.806 68.3571 136.55 73.7442 133.293 79.1289C132.195 80.9466 131.06 82.905 131.163 85.0266C131.296 87.6381 133.251 89.7411 134.382 92.1003C135.149 93.7041 135.544 95.4603 135.536 97.2378" stroke="#171717" stroke-width="1.1127" stroke-miterlimit="10" stroke-linecap="round"/>
<path d="M63.4318 129.713C60.9169 127.977 61.2841 124.631 61.0096 121.589C60.7351 118.548 60.6721 115.287 58.9213 112.783C57.2929 110.454 53.3944 109.243 50.683 108.384C44.923 106.559 40.0186 104.159 33.9913 104.534C31.5097 104.69 28.6387 105.306 27.5557 107.542C26.8729 108.952 27.118 110.617 27.3997 112.16C28.9726 120.766 33.0751 130.065 35.8234 138.44C42.6034 159.108 70.6981 166.163 76.1434 165.804" stroke="#171717" stroke-width="1.1127" stroke-miterlimit="10" stroke-linecap="round"/>
<path d="M84.6605 107.631C88.1546 123.284 94.3085 138.348 103.274 151.627C105.789 155.344 109.476 159.231 114.476 158.229C117.885 157.551 120.377 153.003 120.763 149.861C121.112 147.035 120.418 144.197 119.728 141.434C116.041 126.649 112.288 111.696 106.082 97.8385C104.954 95.3164 103.745 92.8348 102.432 90.394C102.035 89.6374 101.619 88.8844 101.196 88.1389C99.839 85.7389 98.3465 83.3464 96.2186 81.5956C94.0907 79.8448 91.2086 78.8026 88.5368 79.4851C85.5101 80.2651 83.3549 83.1055 82.55 86.1247C81.7451 89.1439 82.0604 92.3416 82.4795 95.4349C82.6796 96.9112 82.9022 98.3863 83.1473 99.8602C83.5772 102.464 84.0815 105.054 84.6605 107.631Z" stroke="#171717" stroke-width="1.1127" stroke-miterlimit="10" stroke-linecap="round"/>
<path d="M106.219 97.7795C115.473 94.7801 125.374 94.385 134.839 96.6371" stroke="#171717" stroke-width="1.1127" stroke-miterlimit="10" stroke-linecap="round"/>
<path d="M63.4507 128.195C69.6232 120.725 75.9289 113.306 84.4897 107.668" stroke="#171717" stroke-width="1.1127" stroke-miterlimit="10" stroke-linecap="round"/>
<path d="M112.832 235.394C112.888 235.341 112.943 235.293 112.999 235.242C130.714 219.069 155.407 210.812 179.291 213.086C179.317 213.09 179.339 213.089 179.365 213.093" stroke="#171717" stroke-width="1.1127" stroke-miterlimit="10" stroke-linecap="round"/>
<path d="M148.319 187.54C148.319 191.115 147.26 194.611 145.273 197.584C143.287 200.557 140.464 202.874 137.161 204.243C133.858 205.611 130.223 205.97 126.717 205.273C123.21 204.575 119.989 202.854 117.46 200.326C114.932 197.798 113.21 194.577 112.512 191.071C111.814 187.564 112.172 183.929 113.539 180.626C114.907 177.323 117.224 174.499 120.197 172.512C123.169 170.526 126.664 169.465 130.24 169.465C135.034 169.464 139.632 171.369 143.022 174.758C146.413 178.148 148.318 182.746 148.319 187.54Z" stroke="#171717" stroke-width="1.1127" stroke-miterlimit="10" stroke-linecap="round"/>
<path d="M152.061 187.54C152.062 191.855 150.782 196.074 148.385 199.663C145.988 203.251 142.58 206.048 138.593 207.7C134.607 209.352 130.219 209.785 125.986 208.943C121.754 208.102 117.866 206.024 114.814 202.973C111.762 199.921 109.683 196.034 108.841 191.801C107.999 187.568 108.431 183.181 110.082 179.194C111.733 175.207 114.529 171.798 118.117 169.4C121.705 167.003 125.924 165.722 130.239 165.722C133.105 165.722 135.942 166.286 138.59 167.382C141.237 168.479 143.643 170.085 145.669 172.112C147.696 174.137 149.303 176.543 150.4 179.19C151.497 181.837 152.061 184.675 152.061 187.54Z" stroke="#171717" stroke-width="1.1127" stroke-miterlimit="10" stroke-linecap="round"/>
<path d="M155.874 137.765C149.829 137.492 143.865 139.239 138.923 142.732" stroke="#171717" stroke-width="1.1127" stroke-miterlimit="10" stroke-linecap="round"/>
<path d="M138.923 142.732C142.1 150.654 145.808 158.352 150.021 165.774C150.021 165.778 150.025 165.778 150.025 165.782" stroke="#171717" stroke-width="1.1127" stroke-miterlimit="10" stroke-linecap="round"/>
<path d="M149.921 165.83L150.021 165.774C155.23 162.815 161.139 161.312 167.128 161.424" stroke="#171717" stroke-width="1.1127" stroke-miterlimit="10" stroke-linecap="round"/>
<path d="M80.4648 176.583C80.4798 176.557 80.4948 176.535 80.5131 176.509C82.8981 172.555 87.7611 168.185 92.2269 166.987C92.2752 166.976 92.3235 166.961 92.3718 166.95" stroke="#171717" stroke-width="1.1127" stroke-miterlimit="10" stroke-linecap="round"/>
<path d="M92.2123 166.932C88.2433 159.394 85.1275 150.993 81.1624 143.452C81.1474 143.426 81.1363 143.4 81.1216 143.374" stroke="#171717" stroke-width="1.1127" stroke-miterlimit="10" stroke-linecap="round"/>
<path d="M81.2509 143.418L81.1609 143.452C77.4331 144.835 73.0819 148.2 71.1904 151.675" stroke="#171717" stroke-width="1.1127" stroke-miterlimit="10" stroke-linecap="round"/>
<path d="M177.863 195.945L177.785 195.934C174.255 195.461 170.667 195.651 167.206 196.494C167.136 196.509 167.065 196.524 166.996 196.542" stroke="#171717" stroke-width="1.1127" stroke-miterlimit="10" stroke-linecap="round"/>
<path d="M179.039 210.208C175.409 209.513 171.681 209.504 168.048 210.182" stroke="#171717" stroke-width="1.1127" stroke-miterlimit="10" stroke-linecap="round"/>
<path d="M167.807 210.182C167.359 205.634 167.158 201.064 167.207 196.494V196.439" stroke="#171717" stroke-width="1.1127" stroke-miterlimit="10" stroke-linecap="round"/>
<path d="M150.778 163.967C150.733 163.834 150.688 163.704 150.648 163.574" stroke="#171717" stroke-width="1.1127" stroke-miterlimit="10" stroke-linecap="round"/>
<path d="M140.637 142.992C140.641 142.999 140.646 143.007 140.652 143.014C140.659 143.021 140.663 143.029 140.67 143.036" stroke="#171717" stroke-width="1.1127" stroke-miterlimit="10" stroke-linecap="round"/>
<path d="M141.048 143.57C140.889 143.344 140.703 143.084 140.651 143.014" stroke="#171717" stroke-width="1.1127" stroke-miterlimit="10" stroke-linecap="round"/>
<path d="M168.334 198.134C168.301 197.96 168.263 197.781 168.227 197.607" stroke="#171717" stroke-width="1.1127" stroke-miterlimit="10" stroke-linecap="round"/>
<path d="M89.8749 165.941C89.7414 165.681 89.7453 165.689 89.6118 165.426" stroke="#171717" stroke-width="1.1127" stroke-miterlimit="10" stroke-linecap="round"/>
<path d="M80.4204 145.729C80.2905 145.425 80.3127 145.436 80.1831 145.132" stroke="#171717" stroke-width="1.1127" stroke-miterlimit="10" stroke-linecap="round"/>
<path d="M110.443 232.111L110.413 232.118L103.963 234.077L102.973 235.661L100.703 239.296L99.7085 240.883L99.5786 244.615" stroke="#171717" stroke-width="1.1127" stroke-miterlimit="10" stroke-linecap="round"/>
<path d="M103.767 223.079L103.722 223.101L96.5665 226.547L95.8024 231.169L95.6689 231.985L95.4835 233.109L95.1274 235.253L100.625 239.247" stroke="#171717" stroke-width="1.1127" stroke-miterlimit="10" stroke-linecap="round"/>
<path d="M95.847 231.132L95.8023 231.169L91.8483 234.603L89.8899 236.302L87.0114 243.109L86.8149 245.383V245.401" stroke="#171717" stroke-width="1.1127" stroke-miterlimit="10" stroke-linecap="round"/>
<path d="M98.336 214.636L86.0288 216.862L85.1792 226.547L79.3521 230.278V241.466V245.861V245.924" stroke="#171717" stroke-width="1.1127" stroke-miterlimit="10" stroke-linecap="round"/>
<path d="M67.4378 246.773L67.4192 246.725L64.3628 239.31L66.7517 238.205L69.7562 236.814L73.265 235.189L75.4574 237.448L79.352 241.465L79.4189 241.536" stroke="#171717" stroke-width="1.1127" stroke-miterlimit="10" stroke-linecap="round"/>
<path d="M64.3629 239.311L58.3503 247.46L58.2759 247.56" stroke="#171717" stroke-width="1.1127" stroke-miterlimit="10" stroke-linecap="round"/>
<path d="M66.7183 238.135L62.9239 231.914L55.5907 232.307L50.7463 240.62L50.227 248.187L50.2231 248.212" stroke="#171717" stroke-width="1.1127" stroke-miterlimit="10" stroke-linecap="round"/>
<path d="M56.8995 247.56L56.1798 239.9L55.5903 232.308" stroke="#171717" stroke-width="1.1127" stroke-miterlimit="10" stroke-linecap="round"/>
<path d="M89.8901 236.302L93.8183 239.77L97.0898 240.686L97.943 244.615" stroke="#171717" stroke-width="1.1127" stroke-miterlimit="10" stroke-linecap="round"/>
<path d="M96.5664 226.547L99.8418 233.16L102.85 235.583" stroke="#171717" stroke-width="1.1127" stroke-miterlimit="10" stroke-linecap="round"/>
<path d="M103.963 234.077L106.059 238.725L111.689 240.95L113.781 243.895" stroke="#171717" stroke-width="1.1127" stroke-miterlimit="10" stroke-linecap="round"/>
<path d="M86.0288 216.862L89.8271 223.798L89.3669 231.521L91.7891 234.533" stroke="#171717" stroke-width="1.1127" stroke-miterlimit="10" stroke-linecap="round"/>
<path d="M178.586 223.079L178.631 223.112L185.263 228.053L186.966 234.859L192.726 239.181L192.659 242.886V242.912" stroke="#171717" stroke-width="1.1127" stroke-miterlimit="10" stroke-linecap="round"/>
<path d="M185.263 228.053L181.795 233.094L182.971 239.77L182.188 242.716" stroke="#171717" stroke-width="1.1127" stroke-miterlimit="10" stroke-linecap="round"/>
<path d="M197.066 243.001V242.949L197.24 232.003L203.527 226.243L206.684 225.512L214.088 223.798L218.539 228.513L223.847 243.673L223.947 243.958" stroke="#171717" stroke-width="1.1127" stroke-miterlimit="10" stroke-linecap="round"/>
<path d="M203.527 226.243L207.366 231.74L205.36 237.326L209.711 243.213L209.811 243.35" stroke="#171717" stroke-width="1.1127" stroke-miterlimit="10" stroke-linecap="round"/>
<path d="M206.669 225.456L203.702 216.469L196.02 213.501L193.227 209.135L184.499 209.658L179.261 216.38" stroke="#171717" stroke-width="1.1127" stroke-miterlimit="10" stroke-linecap="round"/>
<path d="M184.499 209.658L189.911 216.817L189.299 224.759L193.227 230.52L194.788 242.912L194.8 243.001" stroke="#171717" stroke-width="1.1127" stroke-miterlimit="10" stroke-linecap="round"/>
<path d="M144.527 261.24L140.774 262.812L134.665 272.675C134.924 272.85 142.257 275.991 142.257 275.991L157.966 274.767L154.301 266.388H150.373L144.527 261.24Z" stroke="#171717" stroke-width="1.1127" stroke-miterlimit="10" stroke-linecap="round"/>
<path d="M144.528 261.24L143.478 266.477L146.012 269.793L142.258 275.991" stroke="#171717" stroke-width="1.1127" stroke-miterlimit="10" stroke-linecap="round"/>
<path d="M147.321 235.668L140.336 244.57L146.446 247.189L152.076 246.666" stroke="#171717" stroke-width="1.1127" stroke-miterlimit="10" stroke-linecap="round"/>
<path d="M150.637 223.012L154.476 229.121L152.729 237.764L146.446 247.189" stroke="#171717" stroke-width="1.1127" stroke-miterlimit="10" stroke-linecap="round"/>
<path d="M147.321 233.661L139.987 230.957L133.529 234.533L129.527 243.376L129.342 243.784L134.576 245.008L140.336 244.57" stroke="#171717" stroke-width="1.1127" stroke-miterlimit="10" stroke-linecap="round"/>
<path d="M139.987 230.957L137.369 236.191L140.685 239.507L134.576 245.008" stroke="#171717" stroke-width="1.1127" stroke-miterlimit="10" stroke-linecap="round"/>
<path d="M163.27 249.325L168.638 248.083L167.354 246.031L164.053 240.753L160.192 239.051L154.761 241.013L152.113 246.684L151.553 247.886L163.27 249.325Z" stroke="#171717" stroke-width="1.1127" stroke-miterlimit="10" stroke-linecap="round"/>
<path d="M154.762 241.013L159.539 244.485L163.271 249.326" stroke="#171717" stroke-width="1.1127" stroke-miterlimit="10" stroke-linecap="round"/>
<path d="M176.821 249.196L186.769 250.854L192.266 260.542L184.15 261.502L179.113 262.578L178.408 262.73L173.938 263.683C173.938 263.683 168.964 263.246 168.441 263.246C167.918 263.246 171.06 254.781 171.06 254.781L174.287 254.343L176.821 249.196Z" stroke="#171717" stroke-width="1.1127" stroke-miterlimit="10" stroke-linecap="round"/>
<path d="M176.821 249.196L179.873 256.615L178.39 262.638" stroke="#171717" stroke-width="1.1127" stroke-miterlimit="10" stroke-linecap="round"/>
<path d="M122.751 267.523L119.806 270.799L118.429 273.351L120.851 273.677L124.535 274.089L130.28 274.727L131.653 272.041L129.754 267.197L122.751 267.523Z" stroke="#171717" stroke-width="1.1127" stroke-miterlimit="10" stroke-linecap="round"/>
<path d="M208.153 260.02L201.606 264.905L201.517 269.27L208.598 269.404L219.759 269.619L221.855 268.135L219.933 265.342L208.153 260.02Z" stroke="#171717" stroke-width="1.1127" stroke-miterlimit="10" stroke-linecap="round"/>
<path d="M83.3469 260.717L80.0718 266.084L83.6067 267.523H88.0911H95.2575L98.2695 264.381L93.0318 258.884L83.3469 260.717Z" stroke="#171717" stroke-width="1.1127" stroke-miterlimit="10" stroke-linecap="round"/>
<path d="M167.262 246.054L167.354 246.032L172.455 244.745L170.993 242.831H170.99L167.655 238.461L165.474 229.907L157.881 222.314L150.637 223.012L147.58 230.171L147.414 233.665L147.321 235.668" stroke="#171717" stroke-width="1.1127" stroke-miterlimit="10" stroke-linecap="round"/>
<path d="M168.92 209.006C168.879 208.876 168.834 208.742 168.79 208.613" stroke="#171717" stroke-width="1.1127" stroke-miterlimit="10" stroke-linecap="round"/>
<path d="M85.9623 189.892L78.1098 195.389L81.3813 210.574L72.609 218.301L69.7305 236.759" stroke="#171717" stroke-width="1.1127" stroke-miterlimit="10" stroke-linecap="round"/>
<path d="M78.1092 195.389C78.3687 195.783 86.6184 204.948 86.6184 204.948C86.6184 204.948 85.1784 213.851 84.786 213.98C84.3936 214.11 77.9793 218.695 77.9793 218.695L75.4893 237.415" stroke="#171717" stroke-width="1.1127" stroke-miterlimit="10" stroke-linecap="round"/>
<path d="M138.752 250.672L134.338 251.684L132.636 257.311L140.681 257.616L144.809 257.771L147.232 256.265V252.534L142.061 249.915L138.752 250.672Z" stroke="#171717" stroke-width="1.1127" stroke-miterlimit="10" stroke-linecap="round"/>
<path d="M138.723 250.635L138.752 250.672L141.865 254.737L140.681 257.616L140.644 257.705" stroke="#171717" stroke-width="1.1127" stroke-miterlimit="10" stroke-linecap="round"/>
<path d="M111.975 249.719L108.752 252.126L108.711 254.274L112.198 254.341L117.691 254.448L118.722 253.717L117.776 252.341L111.975 249.719Z" stroke="#171717" stroke-width="1.1127" stroke-miterlimit="10" stroke-linecap="round"/>
<path d="M111.975 249.719L111.308 252.063L112.198 254.341L112.213 254.381" stroke="#171717" stroke-width="1.1127" stroke-miterlimit="10" stroke-linecap="round"/>
<path d="M83.3467 260.717L87.7978 263.858L88.0909 267.523" stroke="#171717" stroke-width="1.1127" stroke-miterlimit="10" stroke-linecap="round"/>
<path d="M208.153 260.02L206.799 264.775L208.598 269.404L208.631 269.489" stroke="#171717" stroke-width="1.1127" stroke-miterlimit="10" stroke-linecap="round"/>
<path d="M122.75 267.523L124.234 270.535L124.535 274.089L124.538 274.115" stroke="#171717" stroke-width="1.1127" stroke-miterlimit="10" stroke-linecap="round"/>
<path d="M187.056 11.9915L186.002 13.0865C185.656 13.4564 185.287 13.8032 184.968 14.1965L183.981 15.3491C183.819 15.5426 183.648 15.7289 183.492 15.9284L183.033 16.5314C178.26 22.6885 175.08 29.9282 173.775 37.6084C173.127 41.4016 172.959 45.2614 173.277 49.0966C173.645 52.9129 174.425 56.6779 175.604 60.3262C176.792 63.9736 178.293 67.5112 180.092 70.8991C181.878 74.3071 183.838 77.6212 185.962 80.8291C190.206 87.2791 194.902 93.4354 199.465 99.8011C202.937 105.686 206.149 111.761 208.665 118.103C211.171 124.431 212.983 131.072 213.327 137.749C213.647 139.394 213.879 141.055 214.023 142.725C214.153 144.41 214.183 146.102 214.113 147.791C213.935 151.218 213.33 154.609 212.313 157.887L212.054 158.037C211.888 158.134 211.647 158.278 211.329 158.454C210.693 158.806 209.839 159.32 208.824 159.913C206.802 161.115 204.207 162.602 201.937 164.386C199.666 166.179 197.685 168.326 196.933 171.101C196.186 173.868 196.677 177.271 199.523 181.323C200.951 183.346 201.541 185.35 201.543 187.268C201.542 187.746 201.503 188.224 201.426 188.696C201.361 189.16 201.262 189.62 201.132 190.07C200.858 190.992 200.483 191.88 200.014 192.719C198.115 196.175 194.749 199.277 191.362 202.492C189.686 204.101 187.964 205.746 186.425 207.446C184.963 209.042 183.624 210.747 182.419 212.546C182.149 212.958 181.868 213.363 181.629 213.755C181.399 214.158 181.182 214.538 180.978 214.895C180.77 215.267 180.576 215.613 180.395 215.935C180.225 216.261 180.089 216.565 179.953 216.844L179.109 218.644C177.954 215.703 177.209 212.617 176.895 209.473C176.575 206.244 176.594 202.989 176.951 199.764C177.014 199.156 177.119 198.554 177.264 197.961C177.465 197.096 177.714 196.243 178.011 195.406C178.797 193.141 179.746 190.935 180.85 188.806C182.17 186.236 183.627 183.739 185.215 181.325C185.622 180.689 186.039 180.06 186.467 179.439C186.893 178.812 187.323 178.179 187.743 177.588C188.592 176.373 189.44 175.191 190.275 174.028C193.635 169.395 196.598 165.21 198.456 162.118C199.404 160.574 200.09 159.313 200.55 158.436C200.794 157.997 200.957 157.656 201.067 157.421L201.24 157.065C202.311 155.401 203.247 153.653 204.037 151.839C204.133 151.618 204.243 151.397 204.33 151.175L204.582 150.506C204.743 150.058 204.944 149.614 205.073 149.156C205.215 148.699 205.378 148.245 205.491 147.776C205.617 147.31 205.751 146.844 205.845 146.366C206.706 142.365 206.879 138.247 206.359 134.188C205.786 129.76 204.723 125.409 203.19 121.214C201.588 116.789 199.697 112.473 197.531 108.295C196.464 106.443 195.357 104.603 194.209 102.775L192.46 100.018L190.686 97.246C188.312 93.5428 185.914 89.8039 183.622 85.9639C181.29 82.1122 179.155 78.1438 177.228 74.0743C175.279 69.9562 173.711 65.6683 172.542 61.2643C171.383 56.8354 170.79 52.2775 170.777 47.6992C170.76 47.1292 170.796 46.5571 170.825 45.9871C170.853 45.4171 170.878 44.8471 170.915 44.2795L171.097 42.5818L171.187 41.7346L171.323 40.8946L171.6 39.2161C171.705 38.6593 171.84 38.1085 171.96 37.5556C172.18 36.4456 172.516 35.3638 172.816 34.2769C172.954 33.73 173.167 33.2044 173.339 32.6689C173.527 32.1376 173.687 31.5985 173.898 31.0762C174.329 30.0358 174.706 28.9763 175.206 27.9701L175.919 26.4473L176.71 24.9647L177.105 24.2252C177.242 23.9816 177.393 23.7452 177.536 23.5052L178.404 22.0727C180.804 18.3255 183.716 14.9323 187.056 11.9915Z" fill="#171717"/>
<path d="M120.3 243.756L117.276 242.296C116.269 241.805 115.286 241.268 114.289 240.756C110.474 238.725 106.762 236.508 103.151 234.103C92.3044 226.83 82.6192 217.96 74.4229 207.793C71.6314 204.409 69.1105 200.81 66.8833 197.03C64.6852 193.202 62.8741 189.048 61.9786 184.583C61.5181 182.342 61.3267 180.053 61.4086 177.766C61.4119 177.194 61.4476 176.622 61.5148 176.053L61.5946 175.197C61.6144 174.912 61.6489 174.628 61.6981 174.346C61.8649 173.216 62.089 172.095 62.3695 170.988C63.4495 166.543 65.4181 162.433 67.6444 158.577C72.1165 152.224 77.4466 146.843 82.3918 141.215C87.3352 135.57 92.0287 129.654 95.872 123.079C97.3249 119.576 98.4595 115.949 99.262 112.243C99.6448 110.408 99.9214 108.553 100.09 106.686C100.264 104.841 100.307 102.985 100.218 101.134C100.218 101.134 100.294 101.05 100.439 100.891C100.583 100.731 100.786 100.494 101.024 100.183C101.262 99.8711 101.553 99.4856 101.871 99.0275C102.185 98.5694 102.501 98.0393 102.847 97.4375C103.208 96.7883 103.537 96.1211 103.83 95.4383C104.156 94.6658 104.44 93.8765 104.682 93.074C104.82 92.6495 104.929 92.2202 105.025 91.7816C105.121 91.343 105.215 90.8912 105.298 90.4316C105.452 89.504 105.548 88.5674 105.584 87.6275C105.723 83.8241 104.749 80.0297 102.455 77.5004C100.15 74.9558 96.5476 73.6502 91.0837 74.27C88.3519 74.5787 86.0752 74.1041 84.1753 72.953C82.2757 71.8196 80.746 69.9611 79.5799 67.5671C79.2913 66.9557 79.0249 66.3386 78.7762 65.6597C78.5173 64.9367 78.295 64.2011 78.1102 63.4556C77.7265 61.8881 77.4838 60.2894 77.3857 58.6787C77.182 55.2641 77.5306 51.8393 78.418 48.5357C79.2577 45.3017 80.6419 42.2345 82.5115 39.4655C83.3473 38.2445 84.2953 37.1042 85.3429 36.0596C86.2501 35.1695 87.2395 34.3673 88.2982 33.6638C89.7787 32.687 91.417 31.9739 93.1408 31.5554C93.5935 31.445 94.0525 31.3628 94.5151 31.3088L94.9951 31.2539C93.805 33.4706 93.1852 35.9489 93.1918 38.465C93.2098 40.871 93.6217 43.2578 94.4104 45.5309C94.6726 46.1792 94.8928 47.2901 95.2204 48.7709C95.548 50.2517 95.9761 52.1009 96.6268 54.1673C96.9499 55.1993 97.3234 56.2823 97.7524 57.3869C97.8607 57.6629 97.966 57.9422 98.0845 58.2188C98.203 58.4954 98.3086 58.7699 98.4493 59.087C98.7232 59.7041 98.9674 60.3155 99.2656 60.9596C100.403 63.5096 101.748 66.263 103.127 69.1331C104.507 72.0032 105.909 74.9945 107.125 77.9744C108.284 80.7764 109.271 83.6471 110.079 86.5697L110.565 88.4951C110.715 89.1086 110.822 89.7167 110.939 90.2735C111.179 91.3835 111.311 92.393 111.429 93.2135C111.486 93.6248 111.542 93.9905 111.579 94.3103C111.609 94.6319 111.635 94.9049 111.656 95.126C111.695 95.5685 111.716 95.8034 111.716 95.8034C111.754 99.2345 111.435 102.661 110.764 106.025C110.128 109.252 109.204 112.415 108.004 115.477C106.86 118.397 105.519 121.236 103.991 123.974C102.515 126.597 100.908 129.143 99.1741 131.603C95.8282 136.296 92.1883 140.772 88.2763 145.005C86.3887 147.085 84.4312 149.131 82.5727 151.071C80.7076 153.025 78.8929 154.964 77.1607 156.934C75.6937 158.767 74.3323 160.63 73.0768 162.524C71.8288 164.379 70.7176 166.324 69.7525 168.341C69.5302 168.839 69.2701 169.331 69.073 169.836L68.4751 171.349C68.2846 171.856 68.1451 172.369 67.9729 172.879C67.8961 173.136 67.7956 173.389 67.7362 173.649L67.5514 174.424C67.2997 175.456 67.1032 176.5 66.9625 177.552C66.8971 178.602 66.7729 179.659 66.8092 180.717C66.8497 184.961 68.0938 189.314 70.0018 193.485C71.9125 197.667 74.4508 201.691 77.2288 205.604C88.4803 221.447 103.215 234.499 120.3 243.756Z" fill="#171717"/>
<path d="M184.196 123.392C184.335 124.729 184.601 126.05 184.992 127.336C185.37 128.623 185.851 129.877 186.432 131.086C187.58 133.479 188.925 135.718 190.13 137.979C190.996 139.474 191.757 141.028 192.408 142.629C193.037 144.186 193.444 145.824 193.617 147.494C193.861 149.231 193.819 150.996 193.492 152.718C193.146 154.49 192.601 156.216 191.867 157.865C190.481 160.492 188.714 162.892 186.847 165.228C185.192 167.387 183.464 169.513 181.881 171.771C181.018 173.347 180.264 174.981 179.625 176.661C178.608 178.16 177.804 179.791 177.234 181.51C177.001 182.673 176.841 183.85 176.756 185.033C176.683 186.211 176.67 187.393 176.719 188.573C176.775 189.751 176.889 190.923 177.049 192.09C177.22 193.255 177.438 194.412 177.702 195.559C177.252 192.562 177.18 189.521 177.485 186.507C177.807 183.541 178.565 180.622 179.959 178.152C180.86 176.232 181.936 174.399 183.173 172.675C184.403 170.919 185.746 169.215 187.091 167.49C188.833 165.126 190.596 162.701 192.024 160.058C193.452 157.428 194.593 154.579 195.011 151.573C195.108 150.594 195.122 149.609 195.055 148.627C194.976 147.656 194.809 146.694 194.558 145.753C194.048 143.906 193.298 142.133 192.328 140.48C191.042 137.034 189.185 133.756 187.84 130.379C186.397 127.818 185.494 124.987 185.189 122.063C185.048 120.6 185.166 119.124 185.538 117.702C185.922 116.267 186.657 114.951 187.679 113.872C186.453 114.904 185.515 116.236 184.957 117.739C184.392 119.277 184.108 120.903 184.119 122.541" fill="#171717"/>
<path d="M45.465 113.334C44.7771 114.851 44.2305 116.428 43.8318 118.045C43.4424 119.689 43.2435 121.372 43.239 123.061C43.2294 124.776 43.4665 126.483 43.9423 128.131C44.4184 129.822 45.2005 131.412 46.2496 132.822C46.9819 133.75 47.8051 134.602 48.7072 135.366C49.57 136.116 50.4472 136.807 51.2971 137.49C52.147 138.172 52.9714 138.849 53.707 139.563C54.424 140.225 55.0387 140.99 55.5316 141.832C56.053 142.615 56.3494 143.526 56.3884 144.466C56.3971 145.459 56.1667 146.44 55.717 147.325C54.8122 149.241 53.2411 150.985 52.0621 153.022C50.9605 154.626 50.2318 156.457 49.9291 158.38C49.6285 160.299 49.6798 162.256 50.0812 164.157C50.8735 167.58 52.5012 170.753 54.8193 173.394C55.6536 174.161 56.5483 174.859 57.4945 175.483C58.4302 176.085 59.4067 176.622 60.4168 177.089C62.1718 178.473 64.0663 179.669 66.0697 180.66C67.4404 181.177 68.8464 181.57 70.2519 181.952C71.6644 182.302 73.0824 182.627 74.5086 182.885C77.3587 183.425 80.2239 183.795 83.077 184.167C79.4268 183.368 75.757 182.549 72.2136 181.419C68.6805 180.279 65.2537 178.839 62.29 176.831C61.9984 176.688 61.7317 176.505 61.45 176.345C61.1755 176.175 60.889 176.023 60.6241 175.839C60.0972 175.473 59.5414 175.126 59.0512 174.735C58.0477 173.956 57.124 173.079 56.2939 172.118C54.6187 170.196 53.3296 167.968 52.4974 165.557C51.8941 163.974 51.5511 162.303 51.4824 160.61C51.3594 158.069 52.0522 155.556 53.4592 153.437C53.932 152.711 54.4722 151.999 55.0191 151.269C55.566 150.54 56.1253 149.791 56.6275 148.979C57.1558 148.154 57.5635 147.259 57.838 146.319C58.147 145.055 58.0822 143.728 57.6514 142.5C57.2086 141.341 56.5113 140.297 55.6114 139.443C53.8914 137.748 51.856 136.541 49.9318 135.13C49.1011 134.33 48.3376 133.464 47.6488 132.539C46.9855 131.618 46.4512 130.611 46.0603 129.546C45.3076 127.458 45.0108 125.233 45.1902 123.021C45.1416 122.13 45.1531 121.236 45.2236 120.346C45.2998 119.45 45.4342 118.56 45.6259 117.682C46.0264 115.902 46.5993 114.165 47.3373 112.497C48.8034 109.123 50.7873 105.96 52.7703 102.812C50.3178 105.843 47.8531 108.888 45.8857 112.38" fill="#171717"/>
<path d="M115.279 23.3352C115.4 24.3721 115.614 25.3961 115.917 26.3952C116.228 27.3877 116.609 28.3569 117.057 29.2956C117.982 31.1606 119.077 32.8601 120.091 34.5844C121.521 36.8983 122.859 39.2663 123.351 41.8169C124.069 44.4125 123.691 47.2667 122.725 49.9169C121.744 52.0106 120.58 54.013 119.245 55.9015C118.096 57.6769 116.913 59.4544 115.909 61.3552C115.391 62.6533 114.998 63.9976 114.733 65.3695C114.143 66.6514 113.767 68.021 113.619 69.4237C113.636 70.3573 113.755 71.2864 113.971 72.1945C114.201 73.1047 114.542 73.9828 114.987 74.809C115.878 76.5149 117.359 77.8378 119.155 78.5308C118.046 78.0154 117.087 77.2279 116.365 76.2415C115.676 75.2956 115.175 74.2261 114.888 73.0915C114.324 70.9 114.43 68.59 115.191 66.4589C115.968 63.3143 117.751 60.4567 119.581 57.6304C120.828 55.6912 121.957 53.6782 122.962 51.6028C123.931 49.4941 124.669 47.2145 124.769 44.8528C124.761 43.3295 124.484 41.8196 123.952 40.3919C123.409 39.0074 122.721 37.6838 121.9 36.4436C120.745 33.8336 119.225 31.3313 118.15 28.7409C117.022 26.7571 116.306 24.5663 116.045 22.2996C115.925 21.1653 116.01 20.0189 116.296 18.9147C116.593 17.8011 117.159 16.7773 117.943 15.9324C116.995 16.7379 116.27 17.7752 115.841 18.9435C115.407 20.1399 115.194 21.4049 115.211 22.6773" fill="#171717"/>
<path d="M67.6464 63.0426C67.9026 64.2021 68.3538 65.3094 68.9814 66.3171C69.5814 67.3152 70.239 68.2545 70.797 69.225C71.5938 70.5249 72.1917 71.9358 72.126 73.3935C72.1704 74.9154 71.553 76.4481 70.8639 77.907C70.1694 79.0479 69.5394 80.2269 68.9769 81.4383C68.5026 82.5864 68.2677 83.8191 68.2869 85.0611C68.3889 85.8531 68.5866 86.6298 68.8758 87.3738C68.9907 88.1637 69.1929 88.9386 69.4785 89.6838C70.4523 91.5687 72.0165 93.0828 73.9323 93.9945C72.7635 93.3234 71.757 92.403 70.9845 91.2984C70.2321 90.2388 69.7029 89.0373 69.4293 87.7665C68.8488 86.0103 68.832 84.1164 69.3813 82.35C70.0854 79.9596 71.7675 77.8359 72.4995 75.258C72.7053 74.4153 72.7491 73.5411 72.6279 72.6819C72.489 71.8461 72.2004 71.0424 71.7756 70.3092C71.2185 68.7843 70.3038 67.3818 69.5697 65.9478C68.8191 64.887 68.292 63.6849 68.0205 62.4141C67.8897 61.779 67.8765 61.1253 67.9815 60.4854C68.0913 59.8392 68.3724 59.2341 68.7957 58.7334C68.28 59.22 67.9098 59.8404 67.7259 60.525C67.5408 61.2258 67.4874 61.9548 67.5684 62.6751" fill="#171717"/>
<path d="M176.558 139.489L171.845 133.467" stroke="#171717" stroke-width="1.1127" stroke-linecap="round" stroke-linejoin="round"/>
<path d="M177.058 133.447L171.609 140.034" stroke="#171717" stroke-width="1.1127" stroke-linecap="round" stroke-linejoin="round"/>
<path d="M137.788 56.7704L133.865 53.0996" stroke="#171717" stroke-width="1.1127" stroke-linecap="round" stroke-linejoin="round"/>
<path d="M133.549 57.4915C134.787 55.5814 136.024 53.6716 137.262 51.7615" stroke="#171717" stroke-width="1.1127" stroke-linecap="round" stroke-linejoin="round"/>
<path d="M50.8785 81.1005C49.1322 80.4621 47.5302 79.4832 46.1655 78.2205" stroke="#171717" stroke-width="1.1127" stroke-linecap="round" stroke-linejoin="round"/>
<path d="M46.2222 82.4449C47.2542 80.7769 48.2859 79.1089 49.3173 77.4409" stroke="#171717" stroke-width="1.1127" stroke-linecap="round" stroke-linejoin="round"/>
<path d="M230.816 107.575C228.583 107.258 226.342 108.561 225.043 110.404C223.744 112.247 223.25 114.542 223.073 116.79C222.626 122.645 224.106 128.485 227.287 133.421C228.474 135.251 230.055 137.042 232.189 137.496C234.324 137.95 236.936 136.359 236.745 134.185C236.551 131.971 233.814 130.885 231.609 131.159C227.142 131.717 223.696 135.774 222.671 140.157C221.647 144.541 222.614 149.15 224.077 153.407C225.54 157.663 227.502 161.76 228.554 166.137C229.606 170.514 229.658 175.359 227.438 179.274C225.218 183.19 220.268 185.752 216.044 184.199" stroke="url(#paint9_linear_28_12817)" stroke-width="1.1127" stroke-linecap="round" stroke-linejoin="round"/>
<path d="M32.7969 167.232C36.4887 166.75 40.2348 168.376 42.969 170.903C45.7032 173.43 47.5446 176.776 48.999 180.203C50.0052 182.573 50.8629 185.093 50.709 187.664C50.5551 190.234 49.1856 192.873 46.8132 193.874C43.7043 195.185 40.2168 193.382 37.4124 191.506C35.8017 190.429 34.0386 188.949 34.1763 187.016C34.3518 184.552 37.4505 183.459 39.9132 183.662C41.9889 183.833 43.9968 184.484 45.7782 185.563C47.5599 186.641 49.0671 188.119 50.1813 189.879C51.2952 191.639 51.9858 193.633 52.1985 195.705C52.4115 197.777 52.1406 199.87 51.4074 201.819C50.2545 204.885 47.9853 207.539 47.4504 210.771C46.5678 216.103 51.738 221.529 57.1071 220.906" stroke="#171717" stroke-width="1.1127" stroke-linecap="round" stroke-linejoin="round"/>
<path d="M157.945 39.4943L155.054 36.8882" stroke="url(#paint10_linear_28_12817)" stroke-width="1.1127" stroke-linecap="round" stroke-linejoin="round"/>
<path d="M154.887 39.7763C155.845 38.4659 156.803 37.1552 157.761 35.8445" stroke="url(#paint11_linear_28_12817)" stroke-width="1.1127" stroke-linecap="round" stroke-linejoin="round"/>
<path d="M32.2881 180.858L29.4082 178.24" stroke="url(#paint12_linear_28_12817)" stroke-width="1.1127" stroke-linecap="round" stroke-linejoin="round"/>
<path d="M28.8442 181.868C30.2424 180.363 31.3371 178.604 32.0685 176.685" stroke="url(#paint13_linear_28_12817)" stroke-width="1.1127" stroke-linecap="round" stroke-linejoin="round"/>
<path d="M219.45 172.803C218.51 172.079 217.57 171.356 216.63 170.631" stroke="url(#paint14_linear_28_12817)" stroke-width="1.1127" stroke-linecap="round" stroke-linejoin="round"/>
<path d="M216.637 173.537L219.263 168.567" stroke="url(#paint15_linear_28_12817)" stroke-width="1.1127" stroke-linecap="round" stroke-linejoin="round"/>
<path d="M217.084 96.1289C215.321 95.1542 213.823 93.764 212.719 92.0789" stroke="#171717" stroke-width="1.1127" stroke-linecap="round" stroke-linejoin="round"/>
<path d="M212.711 95.78L216.392 91.0793" stroke="#171717" stroke-width="1.1127" stroke-linecap="round" stroke-linejoin="round"/>
<path d="M228.767 222.924L226.359 220.088" stroke="#171717" stroke-width="1.1127" stroke-linecap="round" stroke-linejoin="round"/>
<path d="M225.52 223.537L229.447 218.824" stroke="#171717" stroke-width="1.1127" stroke-linecap="round" stroke-linejoin="round"/>
<path d="M35.7796 85.2991L38.1115 85.489L36.2161 86.8606L36.7564 89.1373L34.8661 87.7588L32.8675 88.9756L33.5944 86.752L31.8193 85.2274L34.1593 85.2316L35.0605 83.0725L35.7796 85.2991Z" fill="url(#paint16_linear_28_12817)"/>
<path d="M204.802 78.6627L207.807 77.9085L206.014 80.4357L207.66 83.0616L204.702 82.1367L202.713 84.5133L202.679 81.4146L199.804 80.2578L202.741 79.2678L202.952 76.176L204.802 78.6627Z" fill="#171717"/>
<path d="M141.802 39.0858L144.19 39.6699L141.996 40.7784L142.179 43.2297L140.446 41.4858L138.171 42.4164L139.295 40.23L137.707 38.3544L140.133 38.7471L141.426 36.6567L141.802 39.0858Z" fill="#171717"/>
<path d="M191.682 118.863L194.069 119.448L191.875 120.556L192.057 123.007L190.325 121.263L188.05 122.194L189.174 120.008L187.585 118.132L190.012 118.525L191.305 116.434L191.682 118.863Z" fill="url(#paint17_linear_28_12817)"/>
<path d="M27.6436 191.733L30.0309 192.318L27.8371 193.426L28.0192 195.877L26.2873 194.133L24.0121 195.064L25.1356 192.878L23.5474 191.002L25.9735 191.395L27.2671 189.305L27.6436 191.733Z" fill="#171717"/>
<g opacity="0.1">
<path d="M87.6261 79.2876C82.1781 81.0399 80.9508 88.0303 81.2412 92.9677C81.6312 99.5944 83.4312 106.061 85.3158 112.4C87.2331 118.808 89.4825 125.113 92.055 131.288C94.3146 136.737 96.6225 142.268 99.7476 147.291C101.344 149.857 103.261 152.613 105.644 154.508C107.97 156.358 110.764 158.185 113.714 158.781C115.82 159.207 116.725 156.696 115.112 155.465C113.228 154.028 111.446 152.703 109.91 150.871C108.395 149.137 106.985 147.314 105.688 145.411C102.845 141.072 100.708 136.323 98.6676 131.567C93.9276 120.523 90.4125 109.077 86.9928 97.5751C86.0547 94.42 84.8223 91.2909 84.9927 87.9429C85.1349 85.1445 86.5464 82.6266 88.3917 80.6031C88.8942 80.0523 88.4127 79.0338 87.6255 79.287L87.6261 79.2876Z" fill="#171717"/>
</g>
<g opacity="0.1">
<path d="M28.4885 106.722C27.1985 111.817 27.8948 117.382 28.8764 122.485C29.9463 127.79 31.8454 132.893 34.5037 137.607C39.5002 146.63 46.6537 154.3 55.5838 159.496C58.0633 160.927 60.6604 162.144 63.3466 163.133C66.1087 164.164 68.6698 165.134 71.6035 164.281C71.8144 164.219 72.0058 164.104 72.1588 163.946C72.3121 163.788 72.4219 163.594 72.478 163.381C72.5341 163.168 72.5347 162.945 72.4792 162.732C72.424 162.52 72.3148 162.325 72.1621 162.166C70.4701 160.369 68.4856 159.637 66.2563 158.679C64.156 157.737 62.1085 156.68 60.1231 155.514C56.1187 153.228 52.3873 150.494 49.0009 147.364C45.5365 144.25 42.5158 140.677 40.0228 136.742C37.4137 132.509 35.3311 127.974 33.8221 123.236C32.9221 120.586 32.2201 117.873 31.7221 115.119C31.2658 112.314 30.9604 109.506 30.3874 106.722C30.1891 105.758 28.7198 105.81 28.4891 106.722H28.4885Z" fill="#171717"/>
</g>
<g opacity="0.1">
<path d="M130.743 84.3675C131.092 86.6052 132.08 88.959 132.839 91.0929C133.598 93.2268 134.465 95.3139 135.338 97.3998C137.138 101.697 139.135 105.923 141.143 110.126C143.098 114.222 145.12 118.285 147.207 122.316C148.245 124.322 149.215 126.408 150.496 128.272C151.203 129.3 151.908 130.269 152.534 131.351C153.164 132.441 153.67 133.245 154.748 133.94C155.788 134.611 157.223 133.734 157.202 132.532C157.164 130.392 155.682 128.37 154.889 126.42C154.025 124.292 152.897 122.301 151.839 120.265C149.703 116.153 147.636 112.007 145.636 107.827C143.677 103.731 141.831 99.5871 139.957 95.4525C139.024 93.3924 138.094 91.3281 137.103 89.295C136.107 87.2508 135.176 84.9063 133.879 83.0454C132.731 81.3984 130.444 82.4454 130.743 84.3675Z" fill="#171717"/>
</g>
<g opacity="0.1">
<path d="M70.9875 107.854C67.7322 111.1 65.6646 115.317 64.3728 119.7C62.9328 124.587 63.5604 129.992 64.5855 134.894C65.6892 140.172 67.596 145.194 69.513 150.216C71.313 154.932 73.1295 159.642 74.9622 164.344C82.3188 183.092 90.3357 201.732 100.822 218.972C103.684 223.677 106.731 228.27 109.992 232.707C111.702 235.033 113.454 237.327 115.328 239.523C117.222 241.742 119.043 244.143 121.541 245.686C123.725 247.036 125.818 244.439 124.831 242.396C123.766 240.189 122.014 238.42 120.503 236.5C119.088 234.703 117.694 232.888 116.32 231.056C113.418 227.198 110.675 223.225 108.094 219.139C102.976 210.999 98.3403 202.566 94.2087 193.885C85.8114 176.443 78.6801 158.272 72.0258 140.102C70.083 134.796 68.7597 129.505 68.7174 123.842C68.679 118.663 69.4647 113.852 72.8778 109.744C73.9578 108.444 72.2286 106.618 70.9878 107.854L70.9875 107.854Z" fill="#171717"/>
</g>
</g>
</g>
</g>
<defs>
<linearGradient id="paint0_linear_28_12817" x1="149.162" y1="58.6489" x2="149.162" y2="134.13" gradientUnits="userSpaceOnUse">
<stop stop-color="#FFB800"/>
<stop offset="1" stop-color="#FF7F0A"/>
</linearGradient>
<linearGradient id="paint1_linear_28_12817" x1="101.453" y1="79.2745" x2="101.453" y2="158.389" gradientUnits="userSpaceOnUse">
<stop stop-color="#FFB800"/>
<stop offset="1" stop-color="#FF7F0A"/>
</linearGradient>
<linearGradient id="paint2_linear_28_12817" x1="146.147" y1="212.714" x2="146.147" y2="243.699" gradientUnits="userSpaceOnUse">
<stop stop-color="#FFB800"/>
<stop offset="1" stop-color="#FF7F0A"/>
</linearGradient>
<linearGradient id="paint3_linear_28_12817" x1="213.687" y1="223.8" x2="213.687" y2="243.673" gradientUnits="userSpaceOnUse">
<stop stop-color="#FFB800"/>
<stop offset="1" stop-color="#FF7F0A"/>
</linearGradient>
<linearGradient id="paint4_linear_28_12817" x1="161.7" y1="239.051" x2="161.7" y2="249.325" gradientUnits="userSpaceOnUse">
<stop stop-color="#FFB800"/>
<stop offset="1" stop-color="#FF7F0A"/>
</linearGradient>
<linearGradient id="paint5_linear_28_12817" x1="150.112" y1="261.24" x2="150.112" y2="275.991" gradientUnits="userSpaceOnUse">
<stop stop-color="#FFB800"/>
<stop offset="1" stop-color="#FF7F0A"/>
</linearGradient>
<linearGradient id="paint6_linear_28_12817" x1="86.8968" y1="189.894" x2="86.8968" y2="241.467" gradientUnits="userSpaceOnUse">
<stop stop-color="#FFB800"/>
<stop offset="1" stop-color="#FF7F0A"/>
</linearGradient>
<linearGradient id="paint7_linear_28_12817" x1="90.808" y1="258.884" x2="90.808" y2="267.523" gradientUnits="userSpaceOnUse">
<stop stop-color="#FFB800"/>
<stop offset="1" stop-color="#FF7F0A"/>
</linearGradient>
<linearGradient id="paint8_linear_28_12817" x1="51.7435" y1="104.495" x2="51.7435" y2="165.817" gradientUnits="userSpaceOnUse">
<stop stop-color="#FFB800"/>
<stop offset="1" stop-color="#FF7F0A"/>
</linearGradient>
<linearGradient id="paint9_linear_28_12817" x1="226.399" y1="107.527" x2="226.399" y2="184.659" gradientUnits="userSpaceOnUse">
<stop stop-color="#FFB800"/>
<stop offset="1" stop-color="#FF7F0A"/>
</linearGradient>
<linearGradient id="paint10_linear_28_12817" x1="156.499" y1="36.8882" x2="156.499" y2="39.4943" gradientUnits="userSpaceOnUse">
<stop stop-color="#FFB800"/>
<stop offset="1" stop-color="#FF7F0A"/>
</linearGradient>
<linearGradient id="paint11_linear_28_12817" x1="156.324" y1="35.8445" x2="156.324" y2="39.7763" gradientUnits="userSpaceOnUse">
<stop stop-color="#FFB800"/>
<stop offset="1" stop-color="#FF7F0A"/>
</linearGradient>
<linearGradient id="paint12_linear_28_12817" x1="30.8481" y1="178.24" x2="30.8481" y2="180.858" gradientUnits="userSpaceOnUse">
<stop stop-color="#FFB800"/>
<stop offset="1" stop-color="#FF7F0A"/>
</linearGradient>
<linearGradient id="paint13_linear_28_12817" x1="30.4563" y1="176.685" x2="30.4563" y2="181.868" gradientUnits="userSpaceOnUse">
<stop stop-color="#FFB800"/>
<stop offset="1" stop-color="#FF7F0A"/>
</linearGradient>
<linearGradient id="paint14_linear_28_12817" x1="218.04" y1="170.631" x2="218.04" y2="172.803" gradientUnits="userSpaceOnUse">
<stop stop-color="#FFB800"/>
<stop offset="1" stop-color="#FF7F0A"/>
</linearGradient>
<linearGradient id="paint15_linear_28_12817" x1="217.95" y1="168.567" x2="217.95" y2="173.537" gradientUnits="userSpaceOnUse">
<stop stop-color="#FFB800"/>
<stop offset="1" stop-color="#FF7F0A"/>
</linearGradient>
<linearGradient id="paint16_linear_28_12817" x1="34.9654" y1="83.0725" x2="34.9654" y2="89.1373" gradientUnits="userSpaceOnUse">
<stop stop-color="#FFB800"/>
<stop offset="1" stop-color="#FF7F0A"/>
</linearGradient>
<linearGradient id="paint17_linear_28_12817" x1="190.828" y1="116.434" x2="190.828" y2="123.007" gradientUnits="userSpaceOnUse">
<stop stop-color="#FFB800"/>
<stop offset="1" stop-color="#FF7F0A"/>
</linearGradient>
<clipPath id="clip0_28_12817">
<rect width="288" height="288" fill="white"/>
</clipPath>
</defs>
</svg>
