<svg width="288" height="288" viewBox="0 0 288 288" fill="none" xmlns="http://www.w3.org/2000/svg">
<mask id="mask0_28_12830" style="mask-type:luminance" maskUnits="userSpaceOnUse" x="11" y="37" width="266" height="214">
<path d="M276.6 37.8H11.7002V250.5H276.6V37.8Z" fill="white"/>
</mask>
<g mask="url(#mask0_28_12830)">
<path fill-rule="evenodd" clip-rule="evenodd" d="M203.972 130.933C196.988 134.04 191.636 141.786 189.182 149.456C187.716 154.036 187.724 159.812 187.733 165.655C187.738 169.171 187.744 172.712 187.427 176.03C187.072 179.789 186.305 183.263 184.658 186.098L185.498 186.93H185.5C189.879 187.082 195.241 187.034 200.604 186.985C205.964 186.937 211.324 186.889 215.7 187.041C216.619 187.071 217.587 187.093 218.389 186.644C218.393 186.641 218.397 186.639 218.401 186.637C218.405 186.635 218.409 186.633 218.413 186.631C219.998 185.725 220.145 183.53 220.093 181.7C220.017 178.926 219.941 175.678 219.865 172.429C219.789 169.162 219.713 165.894 219.636 163.103L219.658 163.093C222.118 167.966 224.36 172.954 225.535 178.267C227.041 185.076 226.611 192.602 222.841 198.47C222.468 199.05 222.069 199.61 221.645 200.15C220.465 201.668 219.121 203.059 217.776 204.451C216.391 205.884 215.006 207.319 213.795 208.894C212.76 210.232 211.918 211.709 211.295 213.281C210.923 214.216 210.658 215.19 210.504 216.184C210.172 218.073 210.458 220.02 211.319 221.734C211.549 222.172 211.818 222.588 212.124 222.976C214.537 226.047 219 227.192 223.02 227.102C235.265 226.826 246.277 217.735 250.826 206.366C255.374 194.997 254.132 181.896 249.536 170.543C246.187 162.272 241.192 154.813 235.505 147.899C233.387 145.322 231.175 142.822 228.917 140.383C224.534 135.649 219.451 130.854 213.167 129.753C212.838 129.694 212.504 129.647 212.169 129.609C209.368 129.307 206.536 129.764 203.972 130.933ZM227.138 144.775C226.948 144.653 226.696 144.709 226.575 144.899C226.454 145.088 226.509 145.34 226.699 145.462C243.056 155.917 252.25 176.558 249.082 195.71C249.045 195.932 249.195 196.142 249.417 196.179C249.639 196.216 249.849 196.066 249.886 195.843C253.108 176.369 243.77 155.406 227.138 144.775Z" fill="url(#paint0_linear_28_12830)"/>
<path fill-rule="evenodd" clip-rule="evenodd" d="M185.133 123.941C184.706 125.728 184.279 127.515 183.903 129.307C183.789 129.851 183.686 130.405 183.598 130.977C182.633 136.921 182.801 144.237 183.519 151.617C184.373 160.405 186.006 169.28 187.433 176.03C187.747 172.715 187.741 169.179 187.735 165.667C187.726 159.82 187.716 154.039 189.183 149.456C191.636 141.786 196.988 134.04 203.973 130.933C206.406 126.811 204.408 122.487 203.215 120.283C202.694 119.32 202.091 118.404 201.488 117.487C200.711 116.306 199.934 115.125 199.333 113.846C196.705 108.242 197.826 101.681 198.996 95.6003L198.966 95.4503C200.827 95.093 202.523 94.1435 203.799 92.7431C206.408 98.1521 211.597 102.175 217.406 103.618C214.9 111.632 213.473 121.311 213.179 129.688L213.168 129.753C219.451 130.854 224.534 135.648 228.918 140.383C231.177 142.821 233.389 145.322 235.507 147.898L235.702 147.738C236.433 142.193 234.536 135.732 232.719 129.546C231.719 126.141 230.744 122.819 230.245 119.781C229.658 116.211 229.735 112.565 229.811 108.926C229.905 104.474 229.999 100.032 228.878 95.7506C226.518 86.7596 218.264 79.4615 208.99 78.812C199.715 78.1625 190.265 84.6251 188.05 93.6551C187.209 97.0778 187.347 100.612 187.485 104.154C187.556 105.993 187.628 107.834 187.563 109.662C187.391 114.499 186.262 119.22 185.133 123.941ZM211.748 81.2372C211.535 81.1646 211.303 81.2783 211.23 81.4913C211.157 81.7043 211.271 81.9362 211.484 82.0088C219.494 84.7436 225.62 92.3585 226.575 100.767C226.6 100.991 226.802 101.152 227.026 101.126C227.25 101.101 227.411 100.899 227.385 100.675C226.394 91.9532 220.055 84.0737 211.748 81.2372Z" fill="currentColor"/>
<path fill-rule="evenodd" clip-rule="evenodd" d="M167.247 149.383C168.832 153.586 170.034 157.925 170.837 162.345C172.666 172.158 172.872 183.767 173.05 193.796L173.057 194.209L171.227 196.459H164.257V186.098H154.855V196.459H116.001V203.556H146.223V212.482H146.128L70.4675 211.642V211.555C70.9568 207.913 71.5193 204.283 72.1553 200.666L72.161 200.634C67.211 199.661 62.4902 197.859 58.9079 194.401C54.4883 190.137 52.466 183.956 51.4712 177.895C49.5812 166.37 51.0212 153.976 57.326 144.145C62.2619 136.442 69.9131 130.718 78.3062 127.078C86.6993 123.439 95.5577 121.77 104.676 121.023L104.858 121.028C104.826 121.977 104.815 122.924 104.826 123.871L104.831 123.953C114.143 123.319 123.464 122.854 132.794 122.556L132.786 122.341C132.838 121.771 132.87 121.197 132.887 120.623L132.955 120.626C136.285 120.809 139.566 121.518 142.675 122.726C148.98 125.147 154.631 129.442 158.928 134.701C162.51 139.087 165.225 144.085 167.247 149.383ZM114.833 164.009C114.859 163.996 114.884 163.983 114.91 163.97C114.989 163.929 115.068 163.888 115.147 163.848L115.204 163.943C111.82 166.006 108.966 168.832 106.87 172.195L106.715 172.258C107.637 173.573 107.938 175.348 108.115 176.992C108.349 179.175 108.486 181.365 108.528 183.562L108.949 183.554C112.315 187.424 117.072 189.807 122.186 190.184C123.893 190.301 126.049 189.853 126.446 188.192C126.816 186.646 125.315 185.365 123.733 184.898L123.777 184.756L143.219 186.115V166.672L130.833 165.805V165.797C132.529 165.884 134.493 164.979 134.606 163.305C134.674 162.258 133.953 161.282 133.04 160.771C132.393 160.431 131.686 160.22 130.958 160.152L130.98 159.997C130.871 158.945 130.11 158.037 129.175 157.54C128.215 157.082 127.158 156.867 126.096 156.912C123.723 156.955 121.408 157.646 119.399 158.909C117.39 160.172 115.764 161.96 114.697 164.079C114.742 164.056 114.787 164.033 114.833 164.009ZM78.041 149.822C78.2438 149.92 78.3284 150.164 78.23 150.367C76.589 153.751 75.4142 157.342 74.738 161.043C74.5175 162.25 74.3858 163.422 74.8085 164.426C75.1547 165.249 75.8177 165.851 76.6616 166.307C77.5079 166.765 78.5099 167.061 79.4867 167.282C85.4261 168.621 91.5635 168.837 97.5824 167.918C97.805 167.884 98.0129 168.037 98.0468 168.26C98.0807 168.483 97.9277 168.691 97.7054 168.724C91.586 169.658 85.346 169.438 79.3073 168.077H79.307C78.3041 167.851 77.2172 167.535 76.2737 167.024C75.3272 166.512 74.498 165.79 74.057 164.743C73.5305 163.492 73.7168 162.096 73.9358 160.896C74.6255 157.123 75.8231 153.462 77.4965 150.011C77.5946 149.808 77.8385 149.724 78.041 149.822ZM152.287 130.299C152.118 130.15 151.861 130.166 151.711 130.335C151.562 130.504 151.578 130.761 151.747 130.91C160.454 138.601 166.123 149.152 167.73 160.657C167.761 160.88 167.967 161.035 168.19 161.005C168.413 160.973 168.568 160.767 168.537 160.544C166.904 148.846 161.14 138.118 152.287 130.299Z" fill="currentColor"/>
<path d="M243.879 227.363L253.678 238.284H237.611L243.879 227.363Z" fill="currentColor"/>
<path d="M222.776 238.284H193.229V242.312H222.776V238.284Z" fill="url(#paint1_linear_28_12830)"/>
<path d="M218.498 186.769C220.373 190.961 221.406 195.48 221.54 200.07L221.649 200.152C219.254 203.231 216.185 205.789 213.799 208.895C212.764 210.233 211.922 211.71 211.298 213.282L211.088 213.201L177.99 212.821V212.751C178.42 209.56 178.855 206.747 179.284 203.556H195.144V196.459L185.504 186.93C194.259 187.234 206.95 186.737 215.704 187.041C216.623 187.071 217.591 187.093 218.392 186.645C218.401 186.639 218.409 186.636 218.417 186.631L218.498 186.769Z" fill="currentColor"/>
<path d="M178.263 222.552V244.231H159.46V222.552H167.712H178.263Z" fill="currentColor"/>
<path d="M167.712 212.705V222.552H159.46H155.573H146.223V212.482V203.556H167.712V212.705Z" fill="url(#paint2_linear_28_12830)"/>
<path d="M166.465 122.972C171.248 127.94 176.445 130.876 183.343 130.933L183.596 130.976C182.631 136.921 182.8 144.236 183.517 151.616L183.395 151.627C178.467 151.918 171.871 151.147 167.247 149.382C165.225 144.085 162.51 139.086 158.927 134.702C154.63 129.443 148.979 125.148 142.674 122.727L142.725 122.593C141.432 116.331 140.769 109.954 140.745 103.559C140.742 102.594 140.788 101.531 141.441 100.822C142.186 100.007 143.431 99.9576 144.531 99.966L145.708 99.9741C148.92 99.9957 152.132 100.018 155.343 100.039C155.466 100.039 155.588 100.042 155.71 100.042C156.643 100.047 157.667 100.085 158.366 100.705C159.287 101.521 159.238 102.942 159.203 104.173C159.118 107.63 159.716 111.07 160.962 114.296C162.208 117.521 164.078 120.469 166.465 122.972Z" fill="url(#paint3_linear_28_12830)"/>
<path d="M143.217 166.672V186.114L123.774 184.755V165.313L130.83 165.805L143.217 166.672Z" fill="url(#paint4_linear_28_12830)"/>
<path d="M132.826 117.756C132.896 118.71 132.916 119.667 132.886 120.623C132.869 121.197 132.837 121.771 132.785 122.341L132.793 122.556C123.462 122.856 114.141 123.322 104.83 123.953L104.825 123.871C104.814 122.926 104.825 121.978 104.857 121.028C104.887 120.134 104.937 119.242 105.007 118.351C105.008 117.721 105.168 117.1 105.475 116.549C105.983 115.794 106.961 115.505 107.872 115.462C108.782 115.418 109.698 115.56 110.598 115.421L110.729 115.244C112.027 116.163 113.428 116.927 114.903 117.522C118.035 118.81 121.489 119.495 124.833 118.946C127.153 118.579 129.318 117.554 131.073 115.995L131.231 116.169C131.591 115.869 132.177 116.052 132.457 116.424C132.706 116.823 132.834 117.286 132.826 117.756Z" fill="url(#paint5_linear_28_12830)"/>
<path d="M121.123 99.7845C122.846 100.241 124.626 100.502 126.36 100.931C127.914 101.275 129.398 101.883 130.747 102.728C131.314 103.102 131.831 103.546 132.285 104.052C134.539 106.579 134.696 110.592 133.038 113.546C132.518 114.462 131.855 115.289 131.073 115.995C129.318 117.554 127.152 118.579 124.833 118.946C121.49 119.495 118.036 118.81 114.903 117.522C113.428 116.927 112.027 116.163 110.729 115.244C109.112 114.122 107.76 112.659 106.77 110.958C105.033 107.862 104.954 103.679 107.227 100.953C108.058 99.978 109.113 99.2181 110.301 98.7381C111.442 98.2686 112.658 98.0079 113.891 97.9689C116.397 97.8846 118.868 98.6049 121.17 99.597L121.123 99.7845ZM120.141 105.96C120.359 105.534 120.47 105.062 120.465 104.584C120.46 104.106 120.34 103.636 120.114 103.215C119.25 101.532 117.078 100.932 115.306 100.877C114.284 100.819 113.278 101.154 112.496 101.815C112.113 102.149 111.83 102.582 111.677 103.066C111.525 103.55 111.509 104.067 111.631 104.56C112.001 105.805 113.3 106.51 114.523 106.947C115.487 107.341 116.525 107.521 117.565 107.474C118.598 107.381 119.639 106.865 120.141 105.96Z" fill="currentColor"/>
<path d="M128.127 240.298H117.252V249.988H128.127V240.298Z" fill="currentColor"/>
<path d="M119.119 168.178C120.6 166.139 122.959 164.578 125.479 164.683C127.23 164.753 128.866 165.601 130.609 165.781C130.683 165.789 130.756 165.794 130.832 165.797V165.805L123.776 165.313V184.755L123.732 184.897C123.522 184.836 123.308 184.788 123.091 184.755C121.308 184.492 119.359 184.761 117.813 183.834C116.451 183.016 115.722 181.401 115.593 179.817C115.463 178.232 115.84 176.656 116.248 175.12C116.89 172.684 117.638 170.216 119.119 168.178Z" fill="currentColor"/>
<path d="M112.523 71.5304C114.969 71.5523 117.399 71.9381 119.845 71.9951C122.292 72.0521 124.827 71.7452 126.933 70.5029C128.699 69.4037 130.113 67.8221 131.008 65.945C131.161 65.5658 131.392 65.2223 131.685 64.9364C131.835 64.7981 132.03 64.7159 132.234 64.7036C132.438 64.6913 132.641 64.7495 132.807 64.8686C133.09 65.1269 133.082 65.567 133.041 65.9486C132.797 68.1245 132.114 70.2281 131.032 72.1319C133.249 70.1756 135.985 68.903 138.909 68.468C138.974 69.9821 138.281 71.4497 137.308 72.6104C136.335 73.7711 135.096 74.6708 133.87 75.5594C136.283 74.9354 138.734 74.4746 141.209 74.1794C142.084 74.0732 143.206 74.1278 143.535 74.9459C143.861 75.7559 143.097 76.574 142.375 77.0657C139.287 79.1657 135.591 80.1182 131.842 80.4089C130.779 80.4932 129.714 80.5205 128.657 80.507C123.87 80.4443 119.13 79.58 114.354 79.232C113.02 79.1342 111.531 79.1288 110.538 80.0231C109.391 81.056 109.391 82.8227 109.481 84.3638C109.715 88.4924 109.951 92.6225 110.19 96.7538L110.152 96.7565C108.906 97.9682 107.389 98.8664 105.727 99.3767C105.529 98.9069 105.478 98.3882 105.581 97.8887C105.684 97.3892 105.936 96.9326 106.304 96.5798C105.492 97.2842 104.555 97.8299 103.542 98.1887C103.2 98.3111 102.781 98.3987 102.504 98.1617C102.123 97.8437 102.316 97.2347 102.526 96.7835C104.348 92.8496 105.09 88.5014 104.676 84.1856C104.502 82.4135 104.136 80.6549 104.124 78.8756C104.112 77.0963 104.507 75.2309 105.67 73.88C107.296 71.9843 110.028 71.5061 112.523 71.5304Z" fill="currentColor"/>
<path d="M103.822 222.552H81.9497V240.586H103.822V222.552Z" fill="currentColor"/>
<path d="M62.9535 222.552L69.8628 232.823L52.9785 233.392L62.9535 222.552Z" fill="url(#paint6_linear_28_12830)"/>
<path d="M119.942 97.9851C120.445 97.8192 120.989 97.9335 121.516 97.9743C122.043 98.0151 122.641 97.9497 122.976 97.5393C123.205 97.1853 123.304 96.7629 123.258 96.3435C123.215 93.1686 122.152 90.0621 122.088 86.901C122.08 86.5938 122.086 86.2812 122.099 85.971C122.074 85.572 122.208 85.1793 122.472 84.8784C122.755 84.6762 123.099 84.5766 123.447 84.5958C125.016 84.5229 126.588 84.6498 128.125 84.9735" stroke="currentColor" stroke-width="0.8154" stroke-linecap="round" stroke-linejoin="round"/>
<path d="M118.23 88.7466C118.051 88.4886 117.815 88.2753 117.541 88.1235C117.266 87.9714 116.96 87.8853 116.646 87.8712C116.332 87.8574 116.02 87.9159 115.732 88.0428C115.445 88.1697 115.191 88.3611 114.99 88.6023" stroke="currentColor" stroke-width="0.8154" stroke-linecap="round" stroke-linejoin="round"/>
<path d="M125.006 88.5807C125.182 88.3878 125.399 88.236 125.64 88.1355C125.881 88.035 126.141 87.9885 126.402 87.999C126.663 88.0095 126.918 88.0773 127.15 88.197C127.383 88.3167 127.586 88.4856 127.746 88.692" stroke="currentColor" stroke-width="0.8154" stroke-linecap="round" stroke-linejoin="round"/>
<path d="M121.17 99.597C118.868 98.6049 116.397 97.8846 113.891 97.9689C112.658 98.0079 111.442 98.2686 110.301 98.7381C109.113 99.2181 108.058 99.978 107.227 100.953C104.954 103.679 105.033 107.862 106.77 110.958C107.761 112.659 109.113 114.122 110.73 115.244C112.029 116.163 113.43 116.927 114.905 117.522C118.037 118.81 121.491 119.495 124.835 118.946C127.154 118.579 129.32 117.554 131.075 115.995C131.857 115.289 132.52 114.462 133.04 113.546C134.698 110.591 134.54 106.579 132.287 104.052C131.833 103.546 131.316 103.102 130.749 102.728C129.4 101.883 127.916 101.275 126.362 100.931C124.628 100.502 122.848 100.241 121.124 99.7845C120.659 99.6645 120.203 99.5289 119.749 99.3714" stroke="currentColor" stroke-width="0.8154" stroke-linecap="round" stroke-linejoin="round"/>
<path d="M115.306 100.877C114.283 100.818 113.277 101.154 112.495 101.815C112.113 102.149 111.83 102.582 111.677 103.066C111.525 103.55 111.509 104.067 111.631 104.56C112.001 105.805 113.3 106.51 114.523 106.946C115.486 107.341 116.524 107.521 117.564 107.474C118.597 107.381 119.638 106.865 120.141 105.96C120.358 105.534 120.469 105.062 120.465 104.584C120.46 104.106 120.339 103.636 120.114 103.214C119.25 101.532 117.078 100.931 115.306 100.877Z" stroke="currentColor" stroke-width="0.8154" stroke-linecap="round" stroke-linejoin="round"/>
<path d="M130.793 102.663C131.796 95.2895 132.147 87.8423 131.843 80.4074C131.843 80.3804 131.84 80.3504 131.84 80.3231" stroke="currentColor" stroke-width="0.8154" stroke-linecap="round" stroke-linejoin="round"/>
<path d="M110.31 98.8629C110.308 98.8221 110.305 98.7786 110.302 98.7381C110.264 98.0748 110.226 97.4142 110.191 96.7512C109.951 92.6223 109.714 88.4922 109.481 84.3612C109.391 82.8201 109.391 81.0534 110.539 80.0205C111.531 79.1262 113.02 79.1316 114.355 79.2294C119.13 79.5774 123.87 80.4417 128.657 80.5044C129.714 80.5179 130.78 80.4906 131.842 80.4063C135.591 80.1156 139.287 79.1616 142.375 77.0631C143.098 76.5714 143.861 75.7533 143.535 74.9433C143.205 74.1252 142.084 74.0706 141.209 74.1768C138.734 74.472 136.282 74.9331 133.87 75.5568C135.096 74.6682 136.338 73.7685 137.308 72.6078C138.279 71.4471 138.974 69.9795 138.909 68.4654C135.985 68.9004 133.249 70.173 131.032 72.1293C132.114 70.2255 132.797 68.1219 133.041 65.946C133.082 65.5653 133.09 65.1252 132.807 64.866C132.64 64.7469 132.438 64.6887 132.234 64.701C132.029 64.7136 131.836 64.7955 131.685 64.9338C131.392 65.2197 131.161 65.5632 131.008 65.9424C130.113 67.8195 128.699 69.4011 126.934 70.5003C124.827 71.7426 122.291 72.0471 119.845 71.9925C117.399 71.9379 114.969 71.5497 112.523 71.5278C110.028 71.5035 107.296 71.9817 105.67 73.8735C104.507 75.2235 104.116 77.0862 104.124 78.8691C104.132 80.652 104.502 82.4091 104.676 84.1791C105.09 88.4949 104.348 92.8431 102.526 96.777C102.316 97.227 102.124 97.8372 102.504 98.1552C102.781 98.3916 103.2 98.3052 103.542 98.1822C104.555 97.8237 105.492 97.2777 106.304 96.5733C105.936 96.9264 105.683 97.3827 105.58 97.8822C105.478 98.3817 105.529 98.9004 105.727 99.3702C107.389 98.8599 108.906 97.9617 110.152 96.75" stroke="currentColor" stroke-width="0.8154" stroke-linecap="round" stroke-linejoin="round"/>
<path d="M110.598 115.421C109.698 115.56 108.78 115.416 107.872 115.462C106.964 115.508 105.982 115.794 105.475 116.549C105.168 117.1 105.008 117.721 105.007 118.351C104.936 119.243 104.886 120.135 104.857 121.028C104.825 121.977 104.814 122.925 104.825 123.872" stroke="currentColor" stroke-width="0.8154" stroke-linecap="round" stroke-linejoin="round"/>
<path d="M131.23 116.169C131.59 115.869 132.176 116.052 132.456 116.424C132.705 116.823 132.834 117.286 132.826 117.756C132.896 118.71 132.916 119.667 132.886 120.623C132.869 121.197 132.837 121.771 132.785 122.341" stroke="currentColor" stroke-width="0.8154" stroke-linecap="round" stroke-linejoin="round"/>
<path d="M104.675 121.023C95.5551 121.771 86.6982 123.439 78.3051 127.079C69.912 130.718 62.2608 136.442 57.3249 144.145C51.0189 153.976 49.581 166.37 51.4701 177.895C52.4649 183.955 54.4872 190.137 58.9068 194.402C62.4891 197.859 67.2102 199.661 72.1599 200.634C74.4966 201.078 76.8573 201.384 79.2294 201.55C86.3376 202.094 93.4809 201.971 100.566 201.181C102.324 200.985 104.178 200.707 105.548 199.591C107.372 198.101 107.856 195.546 108.106 193.206C108.45 190.003 108.59 186.782 108.526 183.562C108.486 181.369 108.348 179.179 108.112 176.992C107.936 175.348 107.634 173.572 106.713 172.258C106.453 171.884 106.138 171.553 105.778 171.274C103.873 169.8 101.179 170.233 98.8005 170.618C92.9784 171.562 87.0621 171.784 81.1851 171.282C79.008 171.094 76.4802 170.564 75.5424 168.591" stroke="currentColor" stroke-width="0.8154" stroke-linecap="round" stroke-linejoin="round"/>
<path d="M132.954 120.626C136.284 120.809 139.565 121.518 142.674 122.726C148.98 125.148 154.631 129.442 158.928 134.701C162.51 139.086 165.226 144.084 167.248 149.382C168.833 153.585 170.035 157.924 170.838 162.344C172.692 172.292 172.878 184.085 173.058 194.207V194.275" stroke="currentColor" stroke-width="0.8154" stroke-linecap="round" stroke-linejoin="round"/>
<path d="M106.869 172.195C108.965 168.832 111.819 166.006 115.203 163.943C119.631 161.186 124.791 159.836 130.002 160.07C130.32 160.087 130.638 160.111 130.956 160.152C131.684 160.22 132.391 160.431 133.038 160.772C133.951 161.282 134.672 162.258 134.604 163.305C134.492 164.979 132.527 165.885 130.831 165.797C130.755 165.794 130.681 165.789 130.608 165.781C128.866 165.601 127.23 164.753 125.478 164.683C122.958 164.579 120.599 166.139 119.118 168.178C117.637 170.216 116.889 172.685 116.245 175.12C115.838 176.656 115.457 178.232 115.59 179.817C115.723 181.401 116.449 183.016 117.81 183.834C119.357 184.761 121.305 184.492 123.088 184.755C123.305 184.789 123.519 184.836 123.73 184.897C125.312 185.364 126.812 186.644 126.442 188.191C126.046 189.851 123.89 190.3 122.182 190.183C117.069 189.806 112.311 187.423 108.946 183.553" stroke="currentColor" stroke-width="0.8154" stroke-linecap="round" stroke-linejoin="round"/>
<path d="M130.978 159.997C130.869 158.945 130.108 158.037 129.173 157.54C128.213 157.082 127.156 156.867 126.093 156.912C123.721 156.956 121.406 157.647 119.398 158.91C117.39 160.173 115.764 161.96 114.697 164.079C114.847 164.003 114.997 163.924 115.147 163.848" stroke="currentColor" stroke-width="0.8154" stroke-linecap="round" stroke-linejoin="round"/>
<path d="M142.725 122.594C141.432 116.331 140.769 109.955 140.745 103.56C140.742 102.595 140.788 101.532 141.441 100.823C142.186 100.007 143.431 99.9582 144.531 99.9666L145.708 99.9747C148.92 99.9963 152.132 100.018 155.343 100.04C155.466 100.04 155.588 100.042 155.71 100.042C156.643 100.048 157.667 100.086 158.366 100.706C159.287 101.521 159.238 102.943 159.203 104.174C159.118 107.631 159.716 111.07 160.962 114.296C162.207 117.521 164.077 120.469 166.463 122.972C171.247 127.94 176.444 130.876 183.342 130.933" stroke="currentColor" stroke-width="0.8154" stroke-linecap="round" stroke-linejoin="round"/>
<path d="M204.967 107.014C204.757 107.064 204.561 107.166 204.4 107.311C204.238 107.455 204.114 107.637 204.04 107.841C203.967 108.045 203.945 108.264 203.977 108.478C204.009 108.693 204.094 108.896 204.223 109.07C204.353 109.243 204.524 109.382 204.721 109.473C204.918 109.564 205.135 109.604 205.351 109.591C205.567 109.577 205.777 109.51 205.961 109.396C206.145 109.281 206.298 109.123 206.405 108.934" stroke="currentColor" stroke-width="0.8154" stroke-linecap="round" stroke-linejoin="round"/>
<path d="M207.42 115.707C207.783 115.797 208.16 115.812 208.529 115.752C208.898 115.692 209.251 115.557 209.567 115.357C209.883 115.156 210.154 114.894 210.365 114.585C210.577 114.277 210.723 113.929 210.796 113.562" stroke="currentColor" stroke-width="0.8154" stroke-linecap="round" stroke-linejoin="round"/>
<path d="M202.834 102.255C202.899 101.551 202.962 100.848 203.024 100.146" stroke="currentColor" stroke-width="0.8154" stroke-linecap="round" stroke-linejoin="round"/>
<path d="M211.072 103.214C211.007 102.573 210.944 101.934 210.879 101.294" stroke="currentColor" stroke-width="0.8154" stroke-linecap="round" stroke-linejoin="round"/>
<path d="M200.334 99C200.908 98.4405 201.647 98.0811 202.442 97.9758C203.237 97.8705 204.044 98.0247 204.744 98.4156" stroke="currentColor" stroke-width="0.8154" stroke-linecap="round" stroke-linejoin="round"/>
<path d="M195.145 95.3513C196.394 95.6738 197.701 95.708 198.966 95.4518C200.827 95.0945 202.522 94.1447 203.799 92.7446C206.409 98.1536 211.597 102.176 217.405 103.619C219.159 104.063 220.967 104.257 222.775 104.196" stroke="currentColor" stroke-width="0.8154" stroke-linecap="round" stroke-linejoin="round"/>
<path d="M198.996 95.6013C197.826 101.682 196.705 108.243 199.333 113.847C200.399 116.117 202.021 118.079 203.215 120.284C204.408 122.488 206.406 126.812 203.973 130.934" stroke="currentColor" stroke-width="0.8154" stroke-linecap="round" stroke-linejoin="round"/>
<path d="M217.449 103.481C217.436 103.527 217.419 103.573 217.406 103.619C214.9 111.632 213.473 121.311 213.179 129.689" stroke="currentColor" stroke-width="0.8154" stroke-linecap="round" stroke-linejoin="round"/>
<path d="M187.431 176.03C186.004 169.28 184.371 160.405 183.517 151.617C182.799 144.237 182.631 136.921 183.596 130.977C183.686 130.407 183.789 129.852 183.903 129.308C185.27 122.777 187.325 116.33 187.563 109.662C187.753 104.313 186.772 98.8554 188.049 93.6558C190.264 84.6258 199.715 78.1633 208.989 78.8128C218.263 79.4623 226.518 86.7603 228.877 95.7513C230.916 103.533 228.94 111.845 230.244 119.781C231.649 128.34 236.835 139.142 235.702 147.739" stroke="currentColor" stroke-width="0.8154" stroke-linecap="round" stroke-linejoin="round"/>
<path d="M184.661 186.098C186.308 183.263 187.075 179.789 187.431 176.03C188.268 167.197 186.833 156.792 189.181 149.456C191.636 141.786 196.988 134.04 203.971 130.933C206.536 129.764 209.367 129.307 212.169 129.609C212.503 129.647 212.837 129.694 213.166 129.753C219.45 130.854 224.533 135.649 228.916 140.383C231.175 142.822 233.386 145.322 235.505 147.899C241.191 154.813 246.187 162.272 249.535 170.543C254.132 181.896 255.374 194.997 250.825 206.366C246.277 217.735 235.265 226.826 223.02 227.102C219 227.192 214.537 226.047 212.123 222.976C211.817 222.588 211.548 222.172 211.319 221.734C210.457 220.02 210.171 218.073 210.503 216.184C210.657 215.19 210.923 214.216 211.294 213.281C211.918 211.709 212.759 210.232 213.795 208.894C216.181 205.788 219.25 203.23 221.645 200.15C222.068 199.61 222.467 199.05 222.84 198.47C226.61 192.602 227.04 185.076 225.534 178.267C224.36 172.954 222.117 167.966 219.658 163.093C218.964 161.72 218.255 160.355 217.546 158.996" stroke="currentColor" stroke-width="0.8154" stroke-linecap="round" stroke-linejoin="round"/>
<path d="M185.504 186.93C194.259 187.234 206.95 186.737 215.704 187.041C216.623 187.071 217.591 187.093 218.392 186.645C218.401 186.639 218.409 186.636 218.417 186.631C220.001 185.726 220.148 183.53 220.097 181.7C219.945 176.137 219.793 168.67 219.64 163.104" stroke="currentColor" stroke-width="0.8154" stroke-linecap="round" stroke-linejoin="round"/>
<path d="M247.277 213.577L276.113 213.917" stroke="currentColor" stroke-width="0.8154" stroke-linecap="round" stroke-linejoin="round"/>
<path d="M167.836 212.705L177.991 212.822L211.088 213.2" stroke="currentColor" stroke-width="0.8154" stroke-linecap="round" stroke-linejoin="round"/>
<path d="M12.1133 210.992L70.4666 211.642L146.128 212.482" stroke="currentColor" stroke-width="0.8154" stroke-linecap="round" stroke-linejoin="round"/>
<path d="M146.223 203.556H116.001V196.459H154.855H164.257H171.229H195.145V203.556H179.285H167.712" stroke="currentColor" stroke-width="0.8154" stroke-linecap="round" stroke-linejoin="round"/>
<path d="M146.223 222.552V212.482V203.556H167.712V212.705V222.552" stroke="currentColor" stroke-width="0.8154" stroke-linecap="round" stroke-linejoin="round"/>
<path d="M159.46 222.552H155.573" stroke="currentColor" stroke-width="0.8154" stroke-linecap="round" stroke-linejoin="round"/>
<path d="M155.573 222.552V244.231H135.286V222.552H146.224H155.573Z" stroke="currentColor" stroke-width="0.8154" stroke-linecap="round" stroke-linejoin="round"/>
<path d="M159.46 222.552H167.712H178.263V244.231H159.46V222.552Z" stroke="currentColor" stroke-width="0.8154" stroke-linecap="round" stroke-linejoin="round"/>
<path d="M130.83 165.805L143.217 166.672V186.114L123.774 184.755V165.313L130.83 165.805Z" stroke="currentColor" stroke-width="0.8154" stroke-linecap="round" stroke-linejoin="round"/>
<path d="M103.822 222.552H81.9497V240.586H103.822V222.552Z" stroke="currentColor" stroke-width="0.8154" stroke-linecap="round" stroke-linejoin="round"/>
<path d="M124.321 222.552H114.697V232.174H124.321V222.552Z" stroke="currentColor" stroke-width="0.8154" stroke-linecap="round" stroke-linejoin="round"/>
<path d="M222.776 238.284H193.229V242.312H222.776V238.284Z" stroke="currentColor" stroke-width="0.8154" stroke-linecap="round" stroke-linejoin="round"/>
<path d="M195.145 196.459L185.504 186.93H185.502L184.662 186.098L181.878 183.347L173.058 194.209L171.229 196.459" stroke="currentColor" stroke-width="0.8154" stroke-linecap="round" stroke-linejoin="round"/>
<path d="M164.257 196.459V186.098H154.855V196.459" stroke="currentColor" stroke-width="0.8154" stroke-linecap="round" stroke-linejoin="round"/>
<path d="M128.127 240.298H117.252V249.988H128.127V240.298Z" stroke="currentColor" stroke-width="0.8154" stroke-linecap="round" stroke-linejoin="round"/>
<path d="M237.611 238.284L243.879 227.363L253.678 238.284H237.611Z" stroke="currentColor" stroke-width="0.8154" stroke-linecap="round" stroke-linejoin="round"/>
<path d="M69.8628 232.823L62.9535 222.552L52.9785 233.392L69.8628 232.823Z" stroke="currentColor" stroke-width="0.8154" stroke-linecap="round" stroke-linejoin="round"/>
<path d="M167.177 149.356C167.201 149.364 167.223 149.375 167.247 149.383C171.871 151.147 178.467 151.919 183.395 151.628" stroke="currentColor" stroke-width="0.8154" stroke-linecap="round" stroke-linejoin="round"/>
<path d="M150.167 91.4019C150.398 88.6404 150.628 85.8798 150.857 83.1201C150.914 82.4271 150.922 81.609 150.373 81.1821C149.821 80.7501 148.963 80.9892 148.495 81.5121C148.027 82.035 147.853 82.7487 147.704 83.4321C146.548 88.7388 145.881 94.1406 145.711 99.5691" stroke="currentColor" stroke-width="0.8154" stroke-linecap="round" stroke-linejoin="round"/>
<path d="M150.167 91.402C150.053 92.2801 149.982 93.1606 149.947 94.0441L150.167 91.402Z" stroke="currentColor" stroke-width="0.8154" stroke-linecap="round" stroke-linejoin="round"/>
<path d="M155.348 99.7818C158.967 97.9758 161.946 95.1021 163.88 91.5489C163.2 89.4 159.3 91.2519 158.1 93.45C157.452 94.6362 155.7 94.35 155.27 93.8646C156.997 89.7957 159.006 85.8702 159 81.45C158.997 79.5 157.95 79.9374 157.488 80.0841C157.35 80.1279 156.6 80.4 156.3 82.2C155.349 86.0298 154.632 88.6821 153.684 92.5137C154.715 88.3977 155.55 79.9374 154.051 79.9374C151.8 79.5 150.684 87.3594 150.167 91.4019" stroke="currentColor" stroke-width="0.8154" stroke-linecap="round" stroke-linejoin="round"/>
<path d="M210.388 216.165C209.551 217.404 208.143 217.948 206.8 218.287C204.395 218.896 201.927 219.065 199.508 219.57C197.088 220.076 194.64 220.965 192.758 222.78C192.529 223 192.29 223.32 192.398 223.628C192.46 223.766 192.569 223.877 192.705 223.942C192.841 224.007 192.996 224.022 193.142 223.984C201.582 222.261 205.284 222.96 212.03 223.049" stroke="currentColor" stroke-width="0.8154" stroke-linecap="round" stroke-linejoin="round"/>
<path d="M72.1546 200.667C71.5186 204.284 70.9558 207.914 70.4668 211.555" stroke="currentColor" stroke-width="0.8154" stroke-linecap="round" stroke-linejoin="round"/>
<path d="M119.943 85.5148H111.928V92.6605H119.943V85.5148Z" stroke="currentColor" stroke-width="0.8154" stroke-linecap="round" stroke-linejoin="round"/>
<path d="M130.793 86.2812H124.253V92.3724H130.793V86.2812Z" stroke="currentColor" stroke-width="0.8154" stroke-linecap="round" stroke-linejoin="round"/>
<path d="M119.964 87.5479C120.566 87.1237 121.284 86.8972 122.021 86.9002C122.756 86.9032 123.473 87.1354 124.071 87.5644" stroke="currentColor" stroke-width="0.8154" stroke-linecap="round" stroke-linejoin="round"/>
<path d="M118.554 104.862C117.932 104.967 117.296 104.954 116.678 104.824C116.123 104.726 115.604 104.479 115.178 104.109C114.962 103.903 114.787 103.657 114.665 103.384C114.544 103.111 114.477 102.817 114.469 102.519" stroke="currentColor" stroke-width="0.8154" stroke-linecap="round" stroke-linejoin="round"/>
<path d="M104.781 123.956C104.797 123.956 104.814 123.953 104.83 123.953C114.142 123.32 123.463 122.854 132.793 122.556H132.796" stroke="currentColor" stroke-width="0.8154" stroke-linecap="round" stroke-linejoin="round"/>
<path d="M218.498 186.769C220.372 190.961 221.406 195.48 221.539 200.07C221.651 199.825 221.762 199.581 221.871 199.336" stroke="currentColor" stroke-width="0.8154" stroke-linecap="round" stroke-linejoin="round"/>
<path d="M179.285 203.556C178.856 206.747 178.421 209.56 177.991 212.751" stroke="currentColor" stroke-width="0.8154" stroke-linecap="round" stroke-linejoin="round"/>
<path d="M153.006 140.611L153.705 146.766H157.542L158.693 151.687" stroke="url(#paint7_linear_28_12830)" stroke-width="0.8154" stroke-linecap="round" stroke-linejoin="round"/>
<path d="M122.838 135.638L118.789 137.94L119.82 140.115L116.612 142.801" stroke="url(#paint8_linear_28_12830)" stroke-width="0.8154" stroke-linecap="round" stroke-linejoin="round"/>
<path d="M89.624 134.359L92.8856 136.278L90.3914 139.219L93.461 142.801" stroke="url(#paint9_linear_28_12830)" stroke-width="0.8154" stroke-linecap="round" stroke-linejoin="round"/>
<path d="M66.6003 148.173L61.4199 149.355L62.3793 154.824L58.2861 155.464" stroke="url(#paint10_linear_28_12830)" stroke-width="0.8154" stroke-linecap="round" stroke-linejoin="round"/>
<path d="M65.4492 171.708H69.4143L67.4319 178.31L71.3112 178.743" stroke="url(#paint11_linear_28_12830)" stroke-width="0.8154" stroke-linecap="round" stroke-linejoin="round"/>
<path d="M95.1234 182.068L98.1933 178.743L91.542 176.031L93.4605 174.138" stroke="url(#paint12_linear_28_12830)" stroke-width="0.8154" stroke-linecap="round" stroke-linejoin="round"/>
<path d="M106.869 154.44L108.542 152.65L103.182 149.355L104.82 147.277" stroke="url(#paint13_linear_28_12830)" stroke-width="0.8154" stroke-linecap="round" stroke-linejoin="round"/>
<path d="M147.565 155.464L145.43 156.359L147.565 159.173L144.319 161.453" stroke="url(#paint14_linear_28_12830)" stroke-width="0.8154" stroke-linecap="round" stroke-linejoin="round"/>
<path d="M159.46 175.713L162.044 172.22L165.472 173.966V167.487" stroke="url(#paint15_linear_28_12830)" stroke-width="0.8154" stroke-linecap="round" stroke-linejoin="round"/>
<path d="M87.7051 206.11L90.5191 208.153L94.8679 205.475L98.1937 208.673" stroke="url(#paint16_linear_28_12830)" stroke-width="0.8154" stroke-linecap="round" stroke-linejoin="round"/>
<path d="M39.012 128.865C38.802 127.34 40.3893 125.958 41.922 126.09C43.4547 126.221 44.7051 127.55 45.0915 129.039C45.4779 130.529 45.1344 132.124 44.5137 133.532C42.4923 138.12 37.8969 140.911 33.7221 143.686C29.5472 146.462 25.232 149.986 24.4043 154.931C24.2039 156.128 24.2345 157.402 24.7619 158.494C25.2893 159.587 26.3873 160.453 27.6002 160.46C28.8131 160.466 30.0099 159.431 29.9618 158.219C29.9138 157.008 28.3718 156.065 27.359 156.734" stroke="currentColor" stroke-width="0.8154" stroke-linecap="round" stroke-linejoin="round"/>
<path d="M69.3982 119.73C68.7682 117.636 68.3065 115.444 68.5564 113.272C68.8063 111.1 69.8596 108.935 71.7088 107.768C74.305 106.131 77.6998 106.784 80.6656 105.995C84.6871 104.923 87.6988 100.867 87.5605 96.7072C87.5305 95.8072 87.3115 94.8157 86.5759 94.2958C85.6036 93.6085 84.1738 94.1158 83.4148 95.0323C81.6892 97.1179 82.9 100.686 85.3903 101.747C87.8806 102.808 90.9421 101.642 92.5876 99.4924C94.2331 97.3429 94.6387 94.4488 94.2925 91.7641C93.9781 89.4517 93.1642 87.235 91.9078 85.2682C90.6511 83.3017 88.9819 81.6316 87.0157 80.3743" stroke="currentColor" stroke-width="0.8154" stroke-linecap="round" stroke-linejoin="round"/>
<path d="M143.589 90.5313C143.294 89.7114 143.177 88.8381 143.246 87.9693C143.315 87.1005 143.568 86.2566 143.989 85.4934" stroke="currentColor" stroke-width="0.8154" stroke-linecap="round" stroke-linejoin="round"/>
<path d="M175.777 107.417C174.209 106.723 172.862 105.614 171.878 104.21" stroke="currentColor" stroke-width="0.8154" stroke-linecap="round" stroke-linejoin="round"/>
<path d="M172.124 107.818C173.261 106.628 174.23 105.287 175.004 103.834L174.809 104.365" stroke="currentColor" stroke-width="0.8154" stroke-linecap="round" stroke-linejoin="round"/>
<path d="M170.205 120.673L168.67 117.987" stroke="currentColor" stroke-width="0.8154" stroke-linecap="round" stroke-linejoin="round"/>
<path d="M167.903 120.289L170.205 118.562" stroke="currentColor" stroke-width="0.8154" stroke-linecap="round" stroke-linejoin="round"/>
<path d="M181.709 89.0433L176.925 88.0293" stroke="currentColor" stroke-width="0.8154" stroke-linecap="round" stroke-linejoin="round"/>
<path d="M183.729 84.8628C181.28 81.3048 178.564 77.9382 175.604 74.7927" stroke="currentColor" stroke-width="0.8154" stroke-linecap="round" stroke-linejoin="round"/>
<path d="M187.149 82.29L186.33 77.1195" stroke="currentColor" stroke-width="0.8154" stroke-linecap="round" stroke-linejoin="round"/>
<path d="M251.485 103.088C247.599 111.712 245.011 120.864 243.805 130.246C243.479 132.792 243.299 135.554 244.63 137.749C245.35 138.936 246.455 139.841 247.762 140.314C249.068 140.786 250.496 140.798 251.81 140.347C253.124 139.896 254.244 139.009 254.984 137.834C255.724 136.658 256.04 135.265 255.88 133.886C255.679 132.171 254.43 130.394 252.704 130.368C251.549 130.35 250.505 131.126 249.854 132.08C247.994 134.802 248.889 138.626 250.791 141.318C252.693 144.01 255.431 145.984 257.654 148.418C259.877 150.852 261.646 154.132 260.912 157.345C260.672 158.389 260.132 159.419 259.21 159.966C258.289 160.513 256.953 160.422 256.298 159.576C255.644 158.729 256.098 157.209 257.158 157.06" stroke="currentColor" stroke-width="0.8154" stroke-linecap="round" stroke-linejoin="round"/>
<path d="M261.152 109.8L260.126 105.196" stroke="currentColor" stroke-width="0.8154" stroke-linecap="round" stroke-linejoin="round"/>
<path d="M258.336 107.77L262.294 107.09" stroke="currentColor" stroke-width="0.8154" stroke-linecap="round" stroke-linejoin="round"/>
<path d="M259.626 127.449L258.982 123.997" stroke="currentColor" stroke-width="0.8154" stroke-linecap="round" stroke-linejoin="round"/>
<path d="M257.568 125.887C258.702 126.012 259.85 125.896 260.936 125.544" stroke="currentColor" stroke-width="0.8154" stroke-linecap="round" stroke-linejoin="round"/>
<path d="M40.5304 195.57L37.4146 192.548" stroke="currentColor" stroke-width="0.8154" stroke-linecap="round" stroke-linejoin="round"/>
<path d="M37.5151 196.058C38.3527 195.079 39.1009 194.027 39.7504 192.914" stroke="currentColor" stroke-width="0.8154" stroke-linecap="round" stroke-linejoin="round"/>
<path d="M43.5453 180.987C42.5898 180.555 41.7489 179.905 41.0898 179.089" stroke="currentColor" stroke-width="0.8154" stroke-linecap="round" stroke-linejoin="round"/>
<path d="M41.0488 181.47C41.7178 180.432 42.5773 179.53 43.582 178.813" stroke="currentColor" stroke-width="0.8154" stroke-linecap="round" stroke-linejoin="round"/>
<path d="M37.0344 135.277L34.9692 133.507" stroke="currentColor" stroke-width="0.8154" stroke-linecap="round" stroke-linejoin="round"/>
<path d="M34.7422 136.013C35.5732 135.123 36.2389 134.092 36.709 132.968" stroke="currentColor" stroke-width="0.8154" stroke-linecap="round" stroke-linejoin="round"/>
<path d="M94.8623 104.933L97.0379 103.144" stroke="currentColor" stroke-width="0.8154" stroke-linecap="round" stroke-linejoin="round"/>
<path d="M96.6489 105.968L95.25 102.895" stroke="currentColor" stroke-width="0.8154" stroke-linecap="round" stroke-linejoin="round"/>
<path d="M74.7299 100.303L73.3799 97.266" stroke="currentColor" stroke-width="0.8154" stroke-linecap="round" stroke-linejoin="round"/>
<path d="M72.2422 99.7238L75.4246 98.1578" stroke="currentColor" stroke-width="0.8154" stroke-linecap="round" stroke-linejoin="round"/>
<path d="M110.721 59.7927C111.629 61.7448 112.29 63.8019 112.69 65.9169C114.06 64.9767 115.675 64.4601 117.336 64.4322C117.656 64.4274 118.068 64.3758 118.146 64.065C118.165 63.9414 118.151 63.8151 118.105 63.6987L116.397 57.9" stroke="currentColor" stroke-width="0.8154" stroke-linecap="round" stroke-linejoin="round"/>
<path d="M116.07 58.1117C117.136 55.0097 118.205 51.6086 117.087 48.5249C116.749 47.5955 116.223 46.7453 115.544 46.0265C114.864 45.308 114.045 44.7359 113.136 44.3459C112.227 43.9559 111.248 43.7561 110.259 43.7588C109.27 43.7615 108.292 43.9667 107.385 44.3618C106.478 44.7569 105.662 45.3332 104.986 46.0556C104.311 46.7783 103.79 47.6312 103.457 48.5624C103.124 49.4936 102.985 50.4833 103.048 51.4703C103.112 52.4573 103.377 53.4209 103.827 54.3017C105.227 57.0317 108.165 58.5764 110.995 59.7644" stroke="currentColor" stroke-width="0.8154" stroke-linecap="round" stroke-linejoin="round"/>
<path d="M110.718 59.64C112.317 58.9386 114 58.4487 115.725 58.1832" stroke="currentColor" stroke-width="0.8154" stroke-linecap="round" stroke-linejoin="round"/>
<path d="M112.284 61.89L115.718 60.5625" stroke="currentColor" stroke-width="0.8154" stroke-linecap="round" stroke-linejoin="round"/>
<path d="M114.341 57.75L113.711 50.4336C113.441 51.0573 113.138 51.7236 112.549 52.0626C111.961 52.4016 111.019 52.1826 110.902 51.5127C110.917 51.8199 110.829 52.1235 110.651 52.3743C110.472 52.6254 110.215 52.8087 109.92 52.8951C109.624 52.9818 109.308 52.9662 109.023 52.851C108.738 52.7358 108.499 52.5279 108.347 52.2609L110.914 56.685" stroke="currentColor" stroke-width="0.8154" stroke-linecap="round" stroke-linejoin="round"/>
<path d="M99.6031 52.7166L97.4312 52.5546" stroke="currentColor" stroke-width="0.8154" stroke-linecap="round" stroke-linejoin="round"/>
<path d="M100.556 44.2827L95.25 40.6071" stroke="currentColor" stroke-width="0.8154" stroke-linecap="round" stroke-linejoin="round"/>
<path d="M109.92 40.5953L109.716 38.3" stroke="currentColor" stroke-width="0.8154" stroke-linecap="round" stroke-linejoin="round"/>
<path d="M116.706 43.1399L119.4 38.6699" stroke="currentColor" stroke-width="0.8154" stroke-linecap="round" stroke-linejoin="round"/>
<path d="M119.683 49.9617L121.73 49.8444" stroke="currentColor" stroke-width="0.8154" stroke-linecap="round" stroke-linejoin="round"/>
<path d="M206.405 58.1826L203.996 65.9169L197.726 59.6394L206.405 58.1826Z" stroke="currentColor" stroke-width="0.8154" stroke-linecap="round" stroke-linejoin="round"/>
<path d="M224.31 69.8604L230.065 75.3225V65.9169L224.31 69.8604Z" stroke="currentColor" stroke-width="0.8154" stroke-linecap="round" stroke-linejoin="round"/>
<path d="M153.612 64.6954L154.21 66.9091C154.228 66.976 154.225 67.0465 154.201 67.1119C154.178 67.177 154.135 67.2334 154.079 67.2733C154.022 67.3135 153.955 67.3354 153.886 67.336C153.817 67.3366 153.749 67.3159 153.691 67.2769L151.798 65.9836C151.743 65.9458 151.678 65.9251 151.611 65.9245C151.544 65.9236 151.478 65.9428 151.422 65.9794L149.502 67.2319C149.444 67.2697 149.376 67.2889 149.307 67.2865C149.238 67.2844 149.171 67.2613 149.115 67.2199C149.06 67.1788 149.018 67.1215 148.996 67.0558C148.974 66.9901 148.973 66.9193 148.992 66.853L149.637 64.6528C149.656 64.5883 149.656 64.5199 149.636 64.4557C149.616 64.3915 149.578 64.3348 149.525 64.2928L147.74 62.8528C147.687 62.8093 147.647 62.7505 147.628 62.6839C147.608 62.6176 147.61 62.5468 147.632 62.4811C147.654 62.4157 147.696 62.3584 147.751 62.3173C147.807 62.2759 147.874 62.2528 147.943 62.251L150.235 62.1844C150.302 62.1823 150.367 62.1607 150.421 62.122C150.476 62.0833 150.518 62.029 150.541 61.9666L151.359 59.8246C151.384 59.7598 151.428 59.7043 151.485 59.6653C151.542 59.6263 151.61 59.6056 151.679 59.6065C151.748 59.6071 151.816 59.629 151.872 59.6692C151.929 59.7094 151.971 59.7658 151.994 59.8312L152.766 61.9912C152.788 62.0542 152.829 62.1091 152.883 62.149C152.937 62.1889 153.001 62.212 153.068 62.2153L155.358 62.3311C155.427 62.3344 155.493 62.359 155.548 62.4013C155.603 62.4436 155.643 62.5018 155.664 62.5678C155.685 62.6338 155.685 62.7046 155.664 62.7706C155.643 62.8366 155.602 62.8948 155.548 62.9371L153.732 64.3381C153.679 64.3789 153.639 64.4347 153.618 64.4983C153.596 64.5619 153.594 64.6306 153.612 64.6954Z" fill="currentColor"/>
<path d="M138.219 53.3976L138.665 55.0476C138.678 55.0974 138.676 55.1502 138.658 55.1988C138.641 55.2474 138.609 55.2897 138.567 55.3197C138.525 55.3494 138.475 55.3659 138.423 55.3662C138.371 55.3668 138.321 55.3512 138.278 55.3221L136.866 54.3576C136.825 54.3294 136.776 54.3141 136.726 54.3135C136.676 54.3132 136.628 54.3273 136.586 54.3546L135.153 55.29C135.11 55.3182 135.059 55.3326 135.008 55.3311C134.956 55.3296 134.906 55.3122 134.864 55.2813C134.823 55.2507 134.792 55.2078 134.776 55.1589C134.759 55.1097 134.759 55.0569 134.773 55.0074L135.253 53.3664C135.267 53.3187 135.267 53.2677 135.252 53.22C135.237 53.1723 135.208 53.1303 135.17 53.0988L133.838 52.0254C133.798 51.9933 133.768 51.9492 133.754 51.8997C133.739 51.8502 133.74 51.7971 133.756 51.7482C133.772 51.699 133.804 51.6561 133.845 51.6252C133.887 51.5943 133.937 51.5769 133.988 51.5754L135.698 51.5259C135.748 51.5244 135.797 51.5082 135.837 51.4794C135.878 51.4506 135.909 51.4101 135.927 51.3636L136.537 49.7658C136.555 49.7178 136.588 49.6764 136.631 49.6473C136.673 49.6182 136.724 49.6029 136.775 49.6035C136.827 49.6041 136.877 49.6206 136.919 49.6503C136.961 49.6803 136.993 49.7223 137.01 49.7709L137.586 51.3813C137.603 51.4284 137.633 51.4692 137.673 51.4989C137.713 51.5286 137.761 51.546 137.811 51.5484L139.519 51.6348C139.57 51.6375 139.62 51.6558 139.661 51.6876C139.701 51.7191 139.731 51.7626 139.747 51.8118C139.762 51.861 139.762 51.9138 139.747 51.963C139.731 52.0122 139.701 52.0554 139.66 52.0869L138.307 53.1318C138.267 53.1624 138.238 53.2041 138.222 53.2515C138.207 53.2986 138.205 53.3496 138.219 53.3976Z" fill="currentColor"/>
<path d="M176.39 138.305L175.242 135.617" stroke="currentColor" stroke-width="0.8154" stroke-linecap="round" stroke-linejoin="round"/>
<path d="M162.723 131.993L164.833 130.073" stroke="currentColor" stroke-width="0.8154" stroke-linecap="round" stroke-linejoin="round"/>
<path d="M155.832 120.27C155.022 119.504 154.462 118.511 154.226 117.422" stroke="currentColor" stroke-width="0.8154" stroke-linecap="round" stroke-linejoin="round"/>
<path d="M146.589 109.897C147.048 109.641 147.447 109.291 147.759 108.868C148.071 108.446 148.29 107.962 148.4 107.448" stroke="currentColor" stroke-width="0.8154" stroke-linecap="round" stroke-linejoin="round"/>
<path d="M214.71 141.589L213.173 138.712" stroke="currentColor" stroke-width="0.8154" stroke-linecap="round" stroke-linejoin="round"/>
<path d="M202.311 150.486L204.571 148.52" stroke="currentColor" stroke-width="0.8154" stroke-linecap="round" stroke-linejoin="round"/>
<path d="M212.726 129.48C211.572 133.69 208.889 137.319 205.202 139.657C204.306 140.22 203.288 140.715 202.235 140.608C200.692 140.45 199.528 138.982 199.273 137.452C199.018 135.922 199.486 134.365 200.088 132.935" stroke="currentColor" stroke-width="0.8154" stroke-linecap="round" stroke-linejoin="round"/>
<path d="M196.298 164.033L194.763 161.731" stroke="currentColor" stroke-width="0.8154" stroke-linecap="round" stroke-linejoin="round"/>
<path d="M209.524 167.091L211.624 164.97" stroke="currentColor" stroke-width="0.8154" stroke-linecap="round" stroke-linejoin="round"/>
<path d="M200.801 180.266L199.215 178.39" stroke="currentColor" stroke-width="0.8154" stroke-linecap="round" stroke-linejoin="round"/>
<path d="M227.96 152.336L230.261 150.416" stroke="currentColor" stroke-width="0.8154" stroke-linecap="round" stroke-linejoin="round"/>
<path d="M230.64 167.487L228.337 164.801" stroke="currentColor" stroke-width="0.8154" stroke-linecap="round" stroke-linejoin="round"/>
<path d="M240.618 168.638L243.112 167.678" stroke="currentColor" stroke-width="0.8154" stroke-linecap="round" stroke-linejoin="round"/>
<path d="M245.01 184.386L242.898 181.701" stroke="currentColor" stroke-width="0.8154" stroke-linecap="round" stroke-linejoin="round"/>
<path d="M232.943 191.661L235.246 189.743" stroke="currentColor" stroke-width="0.8154" stroke-linecap="round" stroke-linejoin="round"/>
<path d="M246.854 201.592L245.663 199.117" stroke="currentColor" stroke-width="0.8154" stroke-linecap="round" stroke-linejoin="round"/>
<path d="M232.752 208.545C233.768 208.396 234.709 207.926 235.438 207.202" stroke="currentColor" stroke-width="0.8154" stroke-linecap="round" stroke-linejoin="round"/>
<path d="M222.422 214.288L221.452 211.99" stroke="currentColor" stroke-width="0.8154" stroke-linecap="round" stroke-linejoin="round"/>
<path d="M234.096 219.673L233.712 216.987" stroke="currentColor" stroke-width="0.8154" stroke-linecap="round" stroke-linejoin="round"/>
<g opacity="0.1">
<path d="M130.631 79.5788C129.596 78.9119 128.433 79.1015 127.254 79.1105C125.893 79.1207 124.529 79.0757 123.171 78.9965C120.448 78.8381 117.741 78.0449 115.024 78.0212C112.791 78.002 110.61 78.8066 109.274 80.6657C108.612 81.5873 108.286 82.6361 107.924 83.699C107.668 84.5405 107.132 85.2698 106.406 85.7663C104.704 87.0992 106.556 89.9063 108.468 89.3078C110.511 88.6676 111.477 86.765 112.073 84.8429C112.356 83.9288 112.433 82.7522 113.31 82.2029C114.217 81.6329 115.482 81.7859 116.484 81.8636C119.01 82.0592 121.508 82.31 124.046 82.2728C126.063 82.2428 129.277 82.5368 130.819 81.0368C130.917 80.9354 130.991 80.813 131.036 80.6792C131.08 80.5451 131.094 80.4029 131.076 80.2628C131.058 80.1227 131.009 79.9883 130.932 79.8701C130.854 79.7516 130.752 79.6523 130.631 79.5791V79.5788Z" fill="currentColor"/>
</g>
<g opacity="0.1">
<path d="M198.779 98.79C201.018 99.1047 202.931 97.905 204.402 96.2877L201.142 95.8677C203.256 99.0216 205.916 101.645 209.289 103.445C210.887 104.3 212.573 104.979 214.318 105.468C215.998 105.935 218.524 106.704 219.714 104.964C220.725 103.487 219.48 102.029 218.006 101.574C216.284 101.044 214.539 100.785 212.878 100.029C209.558 98.5158 206.65 96.225 204.402 93.3504C203.767 92.5317 202.1 92.5476 201.466 93.3504C200.509 94.5624 199.209 95.1312 198.078 96.1332C197.252 96.8652 197.6 98.6232 198.779 98.7891V98.79Z" fill="currentColor"/>
</g>
<g opacity="0.1">
<path d="M142.899 100.269C140.814 100.92 140.963 103.752 140.866 105.556C140.755 107.898 140.814 110.244 141.039 112.576C141.45 117.089 142.284 121.851 143.936 126.087C145.002 128.821 149.259 127.807 148.436 124.846C147.199 120.393 146.077 116.072 145.602 111.456C145.371 109.21 145.332 106.967 145.264 104.713C145.225 103.394 145.38 99.4925 142.898 100.268L142.899 100.269Z" fill="currentColor"/>
</g>
<g opacity="0.1">
<path d="M166.406 148.548C167.196 149.923 168.516 150.244 169.989 150.465C171.567 150.701 173.147 150.901 174.738 151.026C177.888 151.275 181.043 151.369 184.201 151.334C187.312 151.301 187.321 146.463 184.201 146.497C181.141 146.53 178.084 146.443 175.033 146.211C173.56 146.099 172.087 145.978 170.615 145.847C169.109 145.711 167.801 145.657 166.637 146.759C166.409 146.992 166.264 147.292 166.222 147.615C166.181 147.938 166.245 148.265 166.406 148.548Z" fill="currentColor"/>
</g>
<g opacity="0.1">
<path d="M204.028 130.721C201.983 130.739 199.897 132.824 198.478 134.141C196.802 135.77 195.318 137.585 194.055 139.551C191.377 143.555 189.58 148.083 188.784 152.835C187.827 158.633 188.22 164.388 187.995 170.229C187.9 172.698 187.76 175.149 187.231 177.57C186.975 178.782 186.627 179.973 186.187 181.132C185.717 182.346 184.989 183.419 184.48 184.609C183.625 186.603 185.914 188.849 187.682 187.08C189.411 185.349 190.418 182.753 191.171 180.46C191.926 178.027 192.423 175.521 192.654 172.984C193.247 167.469 192.753 161.868 192.99 156.331C193.221 151.586 194.566 146.961 196.917 142.832C198.055 140.834 199.394 138.957 200.912 137.23C201.622 136.409 202.337 135.612 203.094 134.833C203.888 134.017 204.781 133.279 205.127 132.165C205.172 131.996 205.177 131.819 205.143 131.647C205.109 131.476 205.036 131.314 204.93 131.175C204.824 131.036 204.687 130.922 204.531 130.844C204.375 130.765 204.202 130.723 204.027 130.721H204.028Z" fill="currentColor"/>
</g>
<g opacity="0.1">
<path d="M218.037 158.917C218.197 160.316 218.302 161.497 218.937 162.798C219.481 163.912 220.137 164.979 220.712 166.079C221.839 168.239 222.966 170.418 223.883 172.679C225.786 177.367 226.916 182.438 226.241 187.507C224.838 198.051 217.33 206.402 210.521 214.011C208.477 216.297 211.832 219.683 213.902 217.392C221.51 208.973 229.502 199.84 231.102 188.165C231.866 182.593 230.882 177.058 228.814 171.861C227.763 169.199 226.52 166.617 225.094 164.135C224.389 162.916 223.706 161.638 222.894 160.486C222.056 159.295 221.09 158.636 219.92 157.838C219.184 157.336 217.93 157.99 218.036 158.918L218.037 158.917Z" fill="currentColor"/>
</g>
<g opacity="0.1">
<path d="M191.047 226.275C192.604 227.584 194.662 227.217 196.54 227.094C198.764 226.948 200.983 226.79 203.213 226.803C207.688 226.829 212.09 227.636 216.498 228.325C223.918 229.485 232.833 230.573 239.238 225.738C240.694 224.639 239.484 222.442 237.79 223.261C230.442 226.815 222.684 225.393 215.012 223.909C210.815 223.098 206.625 222.589 202.342 222.727C200.218 222.795 198.098 222.971 195.991 223.253C194.136 223.503 192.103 223.65 190.919 225.287C190.828 225.443 190.791 225.624 190.814 225.803C190.837 225.982 190.919 226.148 191.047 226.275H191.047Z" fill="currentColor"/>
</g>
</g>
<defs>
<linearGradient id="paint0_linear_28_12830" x1="219.166" y1="129.519" x2="219.166" y2="227.107" gradientUnits="userSpaceOnUse">
<stop stop-color="#FF9A34"/>
<stop offset="1" stop-color="#EB6421"/>
</linearGradient>
<linearGradient id="paint1_linear_28_12830" x1="208.002" y1="238.284" x2="208.002" y2="242.312" gradientUnits="userSpaceOnUse">
<stop stop-color="#FF9A34"/>
<stop offset="1" stop-color="#EB6421"/>
</linearGradient>
<linearGradient id="paint2_linear_28_12830" x1="156.968" y1="203.556" x2="156.968" y2="222.552" gradientUnits="userSpaceOnUse">
<stop stop-color="#FF9A34"/>
<stop offset="1" stop-color="#EB6421"/>
</linearGradient>
<linearGradient id="paint3_linear_28_12830" x1="162.171" y1="99.9654" x2="162.171" y2="151.687" gradientUnits="userSpaceOnUse">
<stop stop-color="#FF9A34"/>
<stop offset="1" stop-color="#EB6421"/>
</linearGradient>
<linearGradient id="paint4_linear_28_12830" x1="133.496" y1="165.313" x2="133.496" y2="186.114" gradientUnits="userSpaceOnUse">
<stop stop-color="#FF9A34"/>
<stop offset="1" stop-color="#EB6421"/>
</linearGradient>
<linearGradient id="paint5_linear_28_12830" x1="118.86" y1="115.244" x2="118.86" y2="123.953" gradientUnits="userSpaceOnUse">
<stop stop-color="#FF9A34"/>
<stop offset="1" stop-color="#EB6421"/>
</linearGradient>
<linearGradient id="paint6_linear_28_12830" x1="61.4205" y1="222.552" x2="61.4205" y2="233.392" gradientUnits="userSpaceOnUse">
<stop stop-color="#FF9A34"/>
<stop offset="1" stop-color="#EB6421"/>
</linearGradient>
<linearGradient id="paint7_linear_28_12830" x1="155.85" y1="140.611" x2="155.85" y2="151.687" gradientUnits="userSpaceOnUse">
<stop stop-color="#FF9A34"/>
<stop offset="1" stop-color="#EB6421"/>
</linearGradient>
<linearGradient id="paint8_linear_28_12830" x1="119.725" y1="135.638" x2="119.725" y2="142.801" gradientUnits="userSpaceOnUse">
<stop stop-color="#FF9A34"/>
<stop offset="1" stop-color="#EB6421"/>
</linearGradient>
<linearGradient id="paint9_linear_28_12830" x1="91.5425" y1="134.359" x2="91.5425" y2="142.801" gradientUnits="userSpaceOnUse">
<stop stop-color="#FF9A34"/>
<stop offset="1" stop-color="#EB6421"/>
</linearGradient>
<linearGradient id="paint10_linear_28_12830" x1="62.4432" y1="148.173" x2="62.4432" y2="155.464" gradientUnits="userSpaceOnUse">
<stop stop-color="#FF9A34"/>
<stop offset="1" stop-color="#EB6421"/>
</linearGradient>
<linearGradient id="paint11_linear_28_12830" x1="68.3802" y1="171.708" x2="68.3802" y2="178.743" gradientUnits="userSpaceOnUse">
<stop stop-color="#FF9A34"/>
<stop offset="1" stop-color="#EB6421"/>
</linearGradient>
<linearGradient id="paint12_linear_28_12830" x1="94.8675" y1="174.138" x2="94.8675" y2="182.068" gradientUnits="userSpaceOnUse">
<stop stop-color="#FF9A34"/>
<stop offset="1" stop-color="#EB6421"/>
</linearGradient>
<linearGradient id="paint13_linear_28_12830" x1="105.862" y1="147.277" x2="105.862" y2="154.44" gradientUnits="userSpaceOnUse">
<stop stop-color="#FF9A34"/>
<stop offset="1" stop-color="#EB6421"/>
</linearGradient>
<linearGradient id="paint14_linear_28_12830" x1="145.942" y1="155.464" x2="145.942" y2="161.453" gradientUnits="userSpaceOnUse">
<stop stop-color="#FF9A34"/>
<stop offset="1" stop-color="#EB6421"/>
</linearGradient>
<linearGradient id="paint15_linear_28_12830" x1="162.466" y1="167.487" x2="162.466" y2="175.713" gradientUnits="userSpaceOnUse">
<stop stop-color="#FF9A34"/>
<stop offset="1" stop-color="#EB6421"/>
</linearGradient>
<linearGradient id="paint16_linear_28_12830" x1="92.9494" y1="205.475" x2="92.9494" y2="208.673" gradientUnits="userSpaceOnUse">
<stop stop-color="#FF9A34"/>
<stop offset="1" stop-color="#EB6421"/>
</linearGradient>
</defs>
</svg>
