<svg width="288" height="288" viewBox="0 0 288 288" fill="none" xmlns="http://www.w3.org/2000/svg">
<mask id="mask0_28_12842" style="mask-type:luminance" maskUnits="userSpaceOnUse" x="11" y="12" width="266" height="264">
<path d="M276.599 12.8999H11.3994V275.4H276.599V12.8999Z" fill="white"/>
</mask>
<g mask="url(#mask0_28_12842)">
<path fill-rule="evenodd" clip-rule="evenodd" d="M129.87 209.786C129.87 209.786 133.564 196.776 135.048 186.876L134.639 186.816C133.025 183.372 128.962 185.678 128.812 185.763L128.672 185.722C128.593 185.99 128.515 186.261 128.437 186.535C128.511 186.482 128.602 186.45 128.7 186.45C130.62 186.449 132.532 186.674 134.399 187.121C134.641 187.179 134.79 187.421 134.732 187.663C134.674 187.905 134.431 188.054 134.19 187.996C132.392 187.566 130.549 187.349 128.701 187.35C128.514 187.35 128.353 187.236 128.285 187.073C125.543 196.915 123.51 209.697 123.51 209.697L123.514 209.764C125.63 209.655 127.751 209.682 129.864 209.846L129.87 209.786Z" fill="#171717"/>
<path fill-rule="evenodd" clip-rule="evenodd" d="M222.535 93.6678C222.268 92.5482 221.566 91.5806 220.586 90.9779L200.025 78.3416C199.539 78.0428 199 77.8424 198.437 77.7521C197.874 77.6621 197.299 77.6837 196.744 77.8157C196.19 77.948 195.667 78.1883 195.205 78.5228C194.744 78.8573 194.353 79.2794 194.055 79.7651L181.417 100.326C180.814 101.306 180.625 102.486 180.892 103.606C181.159 104.725 181.86 105.693 182.841 106.296L203.401 118.933C203.886 119.232 204.426 119.432 204.989 119.522C205.551 119.612 206.127 119.59 206.681 119.458C207.235 119.326 207.758 119.086 208.22 118.751C208.681 118.417 209.073 117.995 209.371 117.51L222.012 96.9479C222.615 95.9672 222.803 94.7873 222.535 93.6678ZM202.894 88.742C203.029 88.5335 202.97 88.2548 202.761 88.1198C202.553 87.9845 202.274 88.0439 202.139 88.2524L191.639 104.442C191.503 104.651 191.563 104.929 191.772 105.065C191.98 105.2 192.258 105.14 192.394 104.932L202.894 88.742ZM211.956 92.9627C212.17 93.0893 212.241 93.3653 212.114 93.5792C208.674 99.3908 204.963 105.028 200.983 110.49C200.944 110.543 200.895 110.585 200.842 110.616C200.794 110.643 200.742 110.661 200.689 110.669C200.609 110.682 200.526 110.673 200.448 110.641C200.42 110.629 200.391 110.614 200.365 110.596C199.577 110.062 198.749 109.588 197.889 109.18C197.887 109.179 197.884 109.177 197.882 109.176C197.88 109.175 197.877 109.174 197.874 109.172C197.494 108.974 197.153 108.769 196.88 108.484C196.598 108.187 196.414 107.832 196.294 107.367V107.367C196.113 106.663 196.368 105.968 196.589 105.455C197.366 103.644 198.617 101.884 200.457 100.959C202.219 100.073 204.596 100.123 206.12 101.487C207.924 98.7398 209.664 95.9511 211.34 93.1209C211.467 92.907 211.743 92.8361 211.956 92.9627ZM205.617 102.249C204.44 101.103 202.42 100.979 200.861 101.763C199.282 102.557 198.148 104.104 197.416 105.81C197.195 106.323 197.067 106.762 197.165 107.142C197.255 107.489 197.376 107.699 197.532 107.863C197.696 108.035 197.925 108.183 198.283 108.37C199.051 108.736 199.794 109.15 200.508 109.612C202.264 107.192 203.967 104.737 205.617 102.249Z" fill="#171717"/>
<path fill-rule="evenodd" clip-rule="evenodd" d="M204.476 224.104L204.482 224.231L175.342 225.743L175.336 225.623C177.597 219.957 183.329 215.851 189.419 215.534C195.51 215.218 201.638 218.704 204.476 224.104ZM74.5322 268.209C86.9669 273.773 100.999 274.972 114.572 273.815H114.573C125.223 272.908 136.069 270.454 144.855 264.436L145.102 264.798C168.009 275.673 196.572 275.942 219.184 264.468C234.97 256.459 248.379 242.752 253.392 225.774C258.404 208.796 253.829 188.676 240.171 177.412C231.261 170.065 219.619 166.984 208.228 165.1C195.438 162.989 183.71 162.13 170.756 162.545L170.622 162.431C170.657 159.187 170.188 158.373 168.393 157.143C166.599 155.913 164.291 155.802 162.119 155.733L157.141 155.571L157.078 155.46C153.615 157.325 149.737 158.285 145.804 158.25C141.127 158.25 136.841 156.975 133.499 154.848L133.458 154.911C131.709 154.917 129.984 155.325 128.418 156.103C125.59 157.441 123.393 160.669 124.302 163.662C109.899 163.925 97.3754 168.858 84.9662 174.53C72.557 180.202 61.1654 188.706 53.7749 200.176C46.3844 211.647 43.3598 226.27 47.3927 239.307C51.416 252.322 62.0975 262.645 74.5322 268.209ZM135.048 186.876C133.565 196.775 129.871 209.786 129.871 209.786L129.865 209.848C130.931 209.927 132.047 210.035 133.217 210.178C141.585 211.198 141.133 217.488 140.471 226.723C140.454 226.956 140.437 227.191 140.42 227.428L140.426 227.558L136.826 227.745L111.576 229.057C112.356 226.293 114.538 225.356 116.205 225.056C114.414 224.981 112.245 224.388 113.073 221.816C113.935 219.131 116.091 218.11 117.521 217.723C116.028 217.828 113.812 217.492 113.52 214.654C113.276 212.291 116.611 210.16 123.513 209.764L123.51 209.698C123.51 209.698 125.736 195.7 128.672 185.722C130.356 179.993 132.272 175.589 134.132 175.916C136.028 176.249 135.927 181.017 135.048 186.876ZM232.577 175.665C232.363 175.537 232.087 175.608 231.96 175.821C231.833 176.035 231.903 176.311 232.117 176.438C245.304 184.28 251.65 201.034 249.718 216.333C247.786 231.63 238.71 245.359 227.224 255.752C227.04 255.919 227.026 256.203 227.193 256.387C227.36 256.572 227.644 256.586 227.828 256.419C239.416 245.933 248.643 232.021 250.611 216.446C252.577 200.872 246.136 183.728 232.577 175.665Z" fill="url(#paint0_linear_28_12842)"/>
<path d="M157.108 95.7023C153.009 97.094 134.078 103.514 129.693 104.909C124.769 106.476 126.483 111.475 126.483 111.475L128.807 122.48C128.807 122.48 122.606 129.005 118.351 125.499V125.052C122.606 123.26 120.44 113.714 120.44 113.714C120.44 113.714 119.1 106.029 121.41 100.509C123.72 94.9886 140.284 90.734 145.804 88.3499C151.324 85.9658 153.563 76.0388 153.563 76.0388L156.546 83.3501L165.126 74.9957L161.695 86.4824C161.695 86.4824 175.795 77.3069 170.798 81.5588C165.833 85.7849 160.32 109.101 160.243 109.424C158.61 102.1 157.108 95.7023 157.108 95.7023Z" fill="#171717"/>
<path d="M161.563 134.807C163.808 137.232 165.126 140.2 165.126 143.402C165.126 148.367 161.953 152.765 157.08 155.46C153.617 157.325 149.739 158.285 145.806 158.25C141.129 158.25 136.842 156.975 133.501 154.848C129.214 152.124 126.484 148.008 126.484 143.402C126.484 139.658 128.289 136.234 131.269 133.625C134.81 130.518 140.01 128.558 145.806 128.558C152.308 128.558 158.059 131.025 161.563 134.807ZM151.176 137.81C151.176 134.925 148.155 132.585 144.426 132.585C140.698 132.585 137.676 134.925 137.676 137.81C137.676 140.695 140.698 143.031 144.426 143.031C148.155 143.031 151.176 140.691 151.176 137.81Z" fill="#171717"/>
<path d="M134.131 175.916C136.027 176.249 135.925 181.016 135.047 186.876L134.638 186.816C133.024 183.373 128.96 185.678 128.811 185.763L128.671 185.722C130.356 179.993 132.271 175.59 134.131 175.916Z" fill="#171717"/>
<path d="M102.142 104.852C103.23 105.228 104.125 106.02 104.63 107.055C105.135 108.09 105.208 109.284 104.833 110.372L96.9707 133.19C96.5951 134.279 95.8025 135.174 94.7675 135.678C93.7322 136.182 92.5394 136.254 91.4507 135.879L68.636 128.016C67.5476 127.641 66.6527 126.849 66.1478 125.815C65.6429 124.78 65.5697 123.588 65.9441 122.499L73.8071 99.6812C73.9931 99.1424 74.2832 98.645 74.6612 98.2181C75.0392 97.7912 75.4976 97.4432 76.0103 97.1936C76.5227 96.9437 77.0795 96.7976 77.6486 96.7631C78.2177 96.7286 78.7883 96.8066 79.3271 96.9926L102.142 104.852Z" fill="url(#paint1_linear_28_12842)"/>
<path d="M40.6592 172.609L48.3572 173.059C48.2204 175.791 47.4719 178.457 46.1663 180.86C44.8607 183.264 43.0319 185.343 40.8149 186.944C38.5979 188.546 36.0494 189.629 33.3575 190.113C30.6656 190.597 27.8994 190.471 25.2632 189.742L26.7437 182.006C28.2825 182.53 29.9218 182.69 31.5329 182.474C33.1442 182.258 34.6835 181.672 36.0302 180.762C37.3769 179.852 38.4944 178.642 39.2954 177.227C40.0964 175.813 40.559 174.232 40.6466 172.609L40.6592 172.609Z" fill="url(#paint2_linear_28_12842)"/>
<path d="M26.7437 182.006L25.2632 189.742C21.6356 188.735 18.4085 186.63 16.0243 183.717C13.6402 180.803 12.2157 177.223 11.9462 173.468C11.6768 169.713 12.5756 165.966 14.5193 162.742C16.463 159.518 19.3566 156.975 22.8032 155.46L26.1545 162.314C24.1724 163.126 22.4851 164.522 21.3182 166.318C20.1513 168.114 19.5605 170.223 19.6246 172.364C19.6886 174.505 20.4046 176.575 21.6768 178.298C22.949 180.021 24.7166 181.315 26.7437 182.006Z" fill="#171717"/>
<path d="M133.46 154.911C131.711 154.918 129.986 155.326 128.42 156.103C125.592 157.441 123.395 160.669 124.304 163.662C109.901 163.925 97.3776 168.862 84.9681 174.53C72.5586 180.199 61.1673 188.706 53.7768 200.176C46.3863 211.647 43.3617 226.27 47.3946 239.307C51.4179 252.322 62.0994 262.642 74.5341 268.209C86.9688 273.777 101.001 274.972 114.574 273.815C125.224 272.908 136.07 270.455 144.856 264.436C145.274 264.154 145.686 263.859 146.092 263.558C158.353 254.481 164.092 240.28 169.57 226.045" stroke="#171717" stroke-width="0.9" stroke-linecap="round" stroke-linejoin="round"/>
<path d="M170.624 162.432C170.659 159.188 170.186 158.373 168.395 157.143C166.604 155.913 164.293 155.802 162.121 155.733L157.143 155.572" stroke="#171717" stroke-width="0.9" stroke-linecap="round" stroke-linejoin="round"/>
<path d="M170.758 162.546C183.712 162.13 195.44 162.99 208.23 165.101C219.621 166.984 231.264 170.066 240.173 177.412C253.831 188.677 258.406 208.797 253.394 225.775C248.381 242.753 234.97 256.459 219.184 264.468C196.572 275.942 168.009 275.672 145.102 264.798" stroke="#171717" stroke-width="0.9" stroke-linecap="round" stroke-linejoin="round"/>
<path d="M136.827 227.744L140.425 227.557L169.569 226.044L175.342 225.744L204.482 224.231L206.505 224.127L207.849 193.094" stroke="#171717" stroke-width="0.9" stroke-linecap="round" stroke-linejoin="round"/>
<path d="M116.206 225.056C114.538 225.356 112.357 226.292 111.577 229.057" stroke="#171717" stroke-width="0.9" stroke-linecap="round" stroke-linejoin="round"/>
<path d="M116.206 225.055C116.904 225.082 117.603 225.046 118.295 224.948C117.597 224.893 116.895 224.929 116.206 225.055Z" stroke="#171717" stroke-width="0.9" stroke-linecap="round" stroke-linejoin="round"/>
<path d="M117.522 217.722C116.092 218.109 113.936 219.13 113.074 221.815C112.246 224.386 114.415 224.979 116.206 225.055" stroke="#171717" stroke-width="0.9" stroke-linecap="round" stroke-linejoin="round"/>
<path d="M117.521 217.722C117.985 217.69 118.444 217.611 118.891 217.488C118.428 217.518 117.969 217.596 117.521 217.722Z" stroke="#171717" stroke-width="0.9" stroke-linecap="round" stroke-linejoin="round"/>
<path d="M140.419 227.427C141.104 217.807 141.795 211.222 133.216 210.177C132.046 210.034 130.93 209.926 129.864 209.847C127.752 209.683 125.631 209.655 123.514 209.764C116.612 210.16 113.277 212.291 113.521 214.654C113.812 217.492 116.028 217.828 117.522 217.723" stroke="#171717" stroke-width="0.9" stroke-linecap="round" stroke-linejoin="round"/>
<path d="M96.0986 199.507L94.4561 229.944L111.577 229.056L136.827 227.744" stroke="#171717" stroke-width="0.9" stroke-linecap="round" stroke-linejoin="round"/>
<path d="M175.335 225.623C177.596 219.957 183.328 215.851 189.419 215.534C195.51 215.217 201.638 218.705 204.476 224.104" stroke="#171717" stroke-width="0.9" stroke-linecap="round" stroke-linejoin="round"/>
<path d="M161.563 134.807C163.808 137.232 165.126 140.2 165.126 143.402C165.126 148.367 161.953 152.765 157.08 155.46C153.617 157.325 149.739 158.285 145.806 158.25C141.129 158.25 136.842 156.975 133.501 154.848C129.214 152.124 126.484 148.008 126.484 143.402C126.484 139.658 128.289 136.234 131.269 133.625C134.81 130.518 140.01 128.558 145.806 128.558C152.308 128.558 158.059 131.025 161.563 134.807Z" stroke="#171717" stroke-width="0.9" stroke-linecap="round" stroke-linejoin="round"/>
<path d="M151.176 137.81C151.176 140.691 148.155 143.031 144.426 143.031C140.698 143.031 137.676 140.691 137.676 137.81C137.676 134.928 140.698 132.585 144.426 132.585C148.155 132.585 151.176 134.925 151.176 137.81Z" stroke="#171717" stroke-width="0.9" stroke-linecap="round" stroke-linejoin="round"/>
<path d="M131.123 133.453L128.809 122.48L126.485 111.475C126.485 111.475 124.77 106.475 129.695 104.909C134.08 103.514 153.011 97.0938 157.11 95.7021L157.893 95.4357" stroke="#171717" stroke-width="0.9" stroke-linecap="round" stroke-linejoin="round"/>
<path d="M160.244 109.424C158.611 102.1 157.108 95.7023 157.108 95.7023" stroke="#171717" stroke-width="0.9" stroke-linecap="round" stroke-linejoin="round"/>
<path d="M162.041 134.706C162.041 134.706 164.156 133.853 164.308 130.422C164.39 128.542 162.222 118.305 160.244 109.427" stroke="#171717" stroke-width="0.9" stroke-linecap="round" stroke-linejoin="round"/>
<path d="M155.206 102.56C155.206 102.56 145.286 104.798 144.426 105.543C143.567 106.289 142.749 106.961 143.418 108.453C144.087 109.946 149.984 124.043 149.984 124.043C149.984 124.043 150.954 125.311 149.537 126.208C148.12 127.105 146.852 127.476 146.18 127.476" stroke="#171717" stroke-width="0.9" stroke-linecap="round" stroke-linejoin="round"/>
<path d="M137.677 114.446L136.779 111.773" stroke="#171717" stroke-width="0.9" stroke-linecap="round" stroke-linejoin="round"/>
<path d="M151.699 111.101L151.176 108.714" stroke="#171717" stroke-width="0.9" stroke-linecap="round" stroke-linejoin="round"/>
<path d="M140.66 136.224C140.66 136.224 140.958 138.924 145.806 138.257" stroke="#171717" stroke-width="0.9" stroke-linecap="round" stroke-linejoin="round"/>
<path d="M128.808 122.48C128.808 122.48 122.607 129.005 118.352 125.499" stroke="#171717" stroke-width="0.9" stroke-linecap="round" stroke-linejoin="round"/>
<path d="M160.244 109.427V109.424C160.32 109.101 165.833 85.7843 170.798 81.5588C175.795 77.3069 161.696 86.4824 161.696 86.4824L165.126 74.9957L156.546 83.3501L153.563 76.0388C153.563 76.0388 151.325 85.9625 145.805 88.3499C140.285 90.7373 123.725 94.9889 121.411 100.509C119.097 106.028 120.441 113.714 120.441 113.714C120.441 113.714 122.606 123.26 118.352 125.052" stroke="#171717" stroke-width="0.9" stroke-linecap="round" stroke-linejoin="round"/>
<path d="M91.4507 135.879L68.636 128.016C67.5476 127.641 66.6527 126.849 66.1478 125.815C65.6429 124.78 65.5697 123.588 65.9441 122.499L73.8071 99.6812C73.9931 99.1424 74.2832 98.645 74.6612 98.2181C75.0392 97.7912 75.4976 97.4432 76.0103 97.1936C76.5227 96.9437 77.0795 96.7976 77.6486 96.7631C78.2177 96.7286 78.7883 96.8066 79.3271 96.9926L102.142 104.853C103.231 105.228 104.126 106.021 104.63 107.056C105.135 108.091 105.208 109.284 104.834 110.373L96.971 133.191C96.5954 134.279 95.8028 135.174 94.7675 135.678C93.7322 136.182 92.5394 136.254 91.4507 135.879Z" stroke="#171717" stroke-width="0.9" stroke-linecap="round" stroke-linejoin="round"/>
<path d="M130.812 72.5327L115.392 53.9726C115.028 53.534 114.753 53.0282 114.584 52.4837C114.416 51.9392 114.356 51.3668 114.408 50.7992C114.461 50.2316 114.624 49.6796 114.89 49.1753C115.156 48.671 115.518 48.224 115.957 47.8598L134.52 32.4353C135.406 31.7006 136.547 31.3475 137.693 31.4534C138.838 31.5593 139.895 32.1155 140.631 33.0002L156.051 51.5636C156.416 52.0016 156.691 52.5074 156.86 53.0519C157.029 53.5964 157.089 54.1691 157.037 54.7367C156.984 55.3043 156.82 55.8563 156.554 56.3606C156.288 56.8649 155.926 57.3119 155.487 57.6761L136.927 73.1006C136.04 73.8353 134.899 74.1884 133.752 74.0819C132.605 73.9754 131.548 73.4183 130.812 72.5327Z" stroke="#171717" stroke-width="0.9" stroke-linecap="round" stroke-linejoin="round"/>
<path d="M222.012 96.9479L209.371 117.51C209.072 117.995 208.681 118.417 208.219 118.751C207.758 119.086 207.235 119.326 206.68 119.458C206.126 119.59 205.551 119.612 204.988 119.522C204.426 119.432 203.886 119.232 203.401 118.933L182.84 106.296C181.86 105.693 181.159 104.725 180.892 103.606C180.625 102.486 180.814 101.306 181.416 100.326L194.054 79.7651C194.352 79.2794 194.743 78.8573 195.205 78.5228C195.667 78.1883 196.189 77.948 196.744 77.8157C197.299 77.6837 197.873 77.6621 198.436 77.7521C198.999 77.8424 199.539 78.0428 200.024 78.3416L220.585 90.9791C221.565 91.5818 222.266 92.549 222.534 93.6683C222.802 94.7876 222.614 95.9672 222.012 96.9479Z" stroke="#171717" stroke-width="0.9" stroke-linecap="round" stroke-linejoin="round"/>
<path d="M123.51 209.697C123.51 209.697 125.736 195.7 128.672 185.722C130.355 179.992 132.272 175.589 134.132 175.916C136.028 176.249 135.927 181.016 135.049 186.876C133.565 196.776 129.871 209.786 129.871 209.786" stroke="#171717" stroke-width="0.9" stroke-linecap="round" stroke-linejoin="round"/>
<path d="M128.808 185.767L128.811 185.764C128.961 185.678 133.025 183.373 134.639 186.817" stroke="#171717" stroke-width="0.9" stroke-linecap="round" stroke-linejoin="round"/>
<path d="M22.8029 155.46C25.5795 154.242 28.6159 153.734 31.6376 153.984C34.6595 154.234 37.5713 155.233 40.1102 156.891C42.6488 158.549 44.7344 160.813 46.1783 163.479C47.6222 166.146 48.3785 169.13 48.3794 172.162C48.3794 172.462 48.3731 172.762 48.3572 173.059C48.197 176.304 47.1731 179.447 45.3914 182.163C43.61 184.879 41.1353 187.071 38.2235 188.51C35.3114 189.95 32.0678 190.586 28.8278 190.352C25.5878 190.119 22.4689 189.024 19.7936 187.182C17.1183 185.339 14.9835 182.815 13.6101 179.871C12.2366 176.928 11.6741 173.671 11.981 170.437C12.2877 167.203 13.4526 164.109 15.3551 161.477C17.2577 158.844 19.8288 156.766 22.8029 155.46Z" stroke="#171717" stroke-width="0.9" stroke-linecap="round" stroke-linejoin="round"/>
<path d="M26.1544 162.314C27.7522 161.661 29.4861 161.41 31.2034 161.585C32.9206 161.76 34.5685 162.355 36.0019 163.317C37.435 164.279 38.6095 165.579 39.4219 167.102C40.234 168.625 40.6591 170.325 40.6594 172.051C40.6594 172.238 40.6531 172.425 40.6468 172.609C40.5469 174.49 39.9439 176.309 38.9011 177.877C37.858 179.445 36.4132 180.705 34.7173 181.524C33.0214 182.343 31.1368 182.692 29.26 182.535C27.3832 182.377 25.5832 181.719 24.0478 180.628C22.5124 179.537 21.2979 178.054 20.5311 176.334C19.7643 174.614 19.4733 172.719 19.6886 170.848C19.9038 168.977 20.6173 167.199 21.7547 165.697C22.892 164.196 24.4115 163.028 26.1544 162.314Z" stroke="#171717" stroke-width="0.9" stroke-linecap="round" stroke-linejoin="round"/>
<path d="M26.154 162.314L22.8027 155.46" stroke="#171717" stroke-width="0.9" stroke-linecap="round" stroke-linejoin="round"/>
<path d="M26.7437 182.006L25.2632 189.742" stroke="#171717" stroke-width="0.9" stroke-linecap="round" stroke-linejoin="round"/>
<path d="M40.6592 172.609L48.3572 173.059" stroke="#171717" stroke-width="0.9" stroke-linecap="round" stroke-linejoin="round"/>
<path d="M135.39 65.9995L125.907 51.8065" stroke="#171717" stroke-width="0.9" stroke-linecap="round" stroke-linejoin="round"/>
<path d="M123.858 53.7124C124.991 51.7507 126.631 50.1298 128.607 49.0195C130.024 48.2263 131.806 47.7238 133.243 48.4795C135.013 49.4119 135.421 51.9148 134.651 53.7625C133.882 55.6102 132.27 56.95 130.717 58.2127" stroke="#171717" stroke-width="0.9" stroke-linecap="round" stroke-linejoin="round"/>
<path d="M140.933 51.2201C140.266 51.9455 139.567 52.733 139.42 53.7077C139.273 54.6824 139.969 55.8425 140.953 55.7819C141.595 55.7426 142.137 55.2185 142.78 55.2086C143.584 55.1963 144.203 56.0804 144.1 56.879C143.996 57.6776 143.35 58.3214 142.613 58.6466C141.857 58.9292 141.059 59.0804 140.252 59.0936" stroke="#171717" stroke-width="0.9" stroke-linecap="round" stroke-linejoin="round"/>
<path d="M71.2061 123.484L84.3806 105.143C83.3876 112.11 82.763 119.124 82.5089 126.157" stroke="#171717" stroke-width="0.9" stroke-linecap="round" stroke-linejoin="round"/>
<path d="M76.5542 115.5L82.8224 117.508" stroke="#171717" stroke-width="0.9" stroke-linecap="round" stroke-linejoin="round"/>
<path d="M86.2158 127.967L88.6851 121.703" stroke="#171717" stroke-width="0.9" stroke-linecap="round" stroke-linejoin="round"/>
<path d="M91.1245 116.323L91.5721 114.757" stroke="#171717" stroke-width="0.9" stroke-linecap="round" stroke-linejoin="round"/>
<path d="M45.0555 254.832C40.0926 247.699 37.6041 239.137 37.9704 230.456" stroke="#171717" stroke-width="0.9" stroke-linecap="round" stroke-linejoin="round"/>
<path d="M242.046 257.223C252.221 250.815 259.735 240.945 263.205 229.433L263.901 229.117" stroke="#171717" stroke-width="0.9" stroke-linecap="round" stroke-linejoin="round"/>
<path d="M128.715 163.395L129.158 158.919" stroke="#171717" stroke-width="0.9" stroke-linecap="round" stroke-linejoin="round"/>
<path d="M134.406 163.845L134.823 159.813" stroke="#171717" stroke-width="0.9" stroke-linecap="round" stroke-linejoin="round"/>
<path d="M139.764 165.037L140.212 161.158" stroke="#171717" stroke-width="0.9" stroke-linecap="round" stroke-linejoin="round"/>
<path d="M144.375 165.334L144.964 161.155" stroke="#171717" stroke-width="0.9" stroke-linecap="round" stroke-linejoin="round"/>
<path d="M150.684 164.892L151.269 161.011" stroke="#171717" stroke-width="0.9" stroke-linecap="round" stroke-linejoin="round"/>
<path d="M157.09 164.144L157.51 159.367" stroke="#171717" stroke-width="0.9" stroke-linecap="round" stroke-linejoin="round"/>
<path d="M163.486 163.695V159.368" stroke="#171717" stroke-width="0.9" stroke-linecap="round" stroke-linejoin="round"/>
<path d="M242.862 206.739L243.38 207.101L240.673 202.901" stroke="#171717" stroke-width="0.9" stroke-linecap="round" stroke-linejoin="round"/>
<path d="M224.112 218.645L227.934 214.409" stroke="#171717" stroke-width="0.9" stroke-linecap="round" stroke-linejoin="round"/>
<path d="M226.246 191.918L230.623 187.11" stroke="#171717" stroke-width="0.9" stroke-linecap="round" stroke-linejoin="round"/>
<path d="M217.629 200.878L215.379 197.754" stroke="#171717" stroke-width="0.9" stroke-linecap="round" stroke-linejoin="round"/>
<path d="M210.811 181.74C209.334 180.689 208.067 179.371 207.076 177.854" stroke="#171717" stroke-width="0.9" stroke-linecap="round" stroke-linejoin="round"/>
<path d="M194.274 196.659C194.923 194.979 195.924 193.457 197.211 192.197" stroke="#171717" stroke-width="0.9" stroke-linecap="round" stroke-linejoin="round"/>
<path d="M185.345 178.316L182.211 174.511" stroke="#171717" stroke-width="0.9" stroke-linecap="round" stroke-linejoin="round"/>
<path d="M170.573 192.639C171.179 191.19 172.095 189.891 173.259 188.835" stroke="#171717" stroke-width="0.9" stroke-linecap="round" stroke-linejoin="round"/>
<path d="M165.432 208.073L161.215 204.893" stroke="#171717" stroke-width="0.9" stroke-linecap="round" stroke-linejoin="round"/>
<path d="M189.573 210.786L187.566 208.318" stroke="#171717" stroke-width="0.9" stroke-linecap="round" stroke-linejoin="round"/>
<path d="M148.454 221.765L151.801 217.95" stroke="#171717" stroke-width="0.9" stroke-linecap="round" stroke-linejoin="round"/>
<path d="M142.579 199.564L146.024 194.107" stroke="#171717" stroke-width="0.9" stroke-linecap="round" stroke-linejoin="round"/>
<path d="M152.36 180.882L147.92 177.256" stroke="#171717" stroke-width="0.9" stroke-linecap="round" stroke-linejoin="round"/>
<path d="M112.833 187.268C113.284 185.913 114.051 184.686 115.071 183.687" stroke="#171717" stroke-width="0.9" stroke-linecap="round" stroke-linejoin="round"/>
<path d="M107.416 205.45L103.881 202.486" stroke="#171717" stroke-width="0.9" stroke-linecap="round" stroke-linejoin="round"/>
<path d="M91.8003 185.48L94.4838 181.227" stroke="#171717" stroke-width="0.9" stroke-linecap="round" stroke-linejoin="round"/>
<path d="M82.3964 205.843L79.2632 203.382" stroke="#171717" stroke-width="0.9" stroke-linecap="round" stroke-linejoin="round"/>
<path d="M56.4004 216.791L58.8733 212.097" stroke="#171717" stroke-width="0.9" stroke-linecap="round" stroke-linejoin="round"/>
<path d="M76.1659 234.676L72.0859 230.702" stroke="#171717" stroke-width="0.9" stroke-linecap="round" stroke-linejoin="round"/>
<path d="M76.0718 255.487L79.4378 250.569" stroke="#171717" stroke-width="0.9" stroke-linecap="round" stroke-linejoin="round"/>
<path d="M107.269 243.639L103.68 239.394" stroke="#171717" stroke-width="0.9" stroke-linecap="round" stroke-linejoin="round"/>
<path d="M105.842 265.107L108.54 261.76" stroke="#171717" stroke-width="0.9" stroke-linecap="round" stroke-linejoin="round"/>
<path d="M134.308 243.002L130.729 238.525" stroke="#171717" stroke-width="0.9" stroke-linecap="round" stroke-linejoin="round"/>
<path d="M137.477 254.655L141.971 249.75" stroke="#171717" stroke-width="0.9" stroke-linecap="round" stroke-linejoin="round"/>
<path d="M178.156 236.302L175.246 232.721" stroke="#171717" stroke-width="0.9" stroke-linecap="round" stroke-linejoin="round"/>
<path d="M165.004 265.63L168.591 262.729" stroke="#171717" stroke-width="0.9" stroke-linecap="round" stroke-linejoin="round"/>
<path d="M184.601 256.244L181.652 251.568" stroke="#171717" stroke-width="0.9" stroke-linecap="round" stroke-linejoin="round"/>
<path d="M199.891 242.995L203.881 239.617L203.47 240.085" stroke="#171717" stroke-width="0.9" stroke-linecap="round" stroke-linejoin="round"/>
<path d="M217.144 255.737C216.215 254.399 215.519 252.914 215.084 251.344" stroke="#171717" stroke-width="0.9" stroke-linecap="round" stroke-linejoin="round"/>
<path d="M229.657 245.01C230.755 243.74 232.134 242.743 233.685 242.1" stroke="#171717" stroke-width="0.9" stroke-linecap="round" stroke-linejoin="round"/>
<path d="M239.827 228.978L236.791 224.438" stroke="#171717" stroke-width="0.9" stroke-linecap="round" stroke-linejoin="round"/>
<path d="M90.0191 69.2399L88.6958 73.253C88.6559 73.3742 88.58 73.4804 88.478 73.5569C88.376 73.6334 88.253 73.6769 88.1255 73.6814C87.998 73.6862 87.872 73.6514 87.7649 73.5824C87.6578 73.5131 87.5744 73.4129 87.5258 73.2947L85.9205 69.3842C85.8737 69.2702 85.7942 69.1727 85.6919 69.1037C85.5896 69.035 85.4693 68.9978 85.346 68.9972L81.1205 68.9789C80.993 68.9783 80.8688 68.9387 80.7644 68.8655C80.6603 68.792 80.5808 68.6885 80.5373 68.5685C80.4935 68.4488 80.4878 68.3186 80.5202 68.1953C80.5529 68.072 80.6225 67.9616 80.7197 67.8791L83.9423 65.1455C84.0365 65.0657 84.1049 64.9598 84.1388 64.8413C84.1727 64.7228 84.1706 64.5968 84.1331 64.4792L82.8431 60.4547C82.8047 60.3335 82.8041 60.203 82.8419 60.0815C82.8794 59.9597 82.9535 59.8526 83.054 59.774C83.1542 59.6957 83.2763 59.6498 83.4035 59.6429C83.5307 59.636 83.657 59.6678 83.7653 59.7347L87.3608 61.9547C87.4658 62.0195 87.5876 62.0516 87.7109 62.0474C87.8342 62.0429 87.9533 62.0021 88.0532 61.9301L91.4828 59.4611C91.5863 59.3867 91.7102 59.3456 91.8377 59.3438C91.9652 59.3417 92.0903 59.3789 92.1959 59.45C92.3018 59.5214 92.3831 59.6234 92.4293 59.7422C92.4752 59.861 92.4839 59.9912 92.4536 60.1151L91.4531 64.2209C91.424 64.3409 91.4309 64.4666 91.4732 64.5824C91.5155 64.6982 91.5911 64.799 91.6904 64.8719L95.1005 67.3697C95.2034 67.4453 95.2805 67.5503 95.3219 67.6709C95.363 67.7915 95.3666 67.922 95.3315 68.0444C95.2964 68.1671 95.2247 68.276 95.1257 68.3564C95.027 68.4371 94.9058 68.4854 94.7786 68.495L90.5645 68.8124C90.4415 68.8217 90.3242 68.8673 90.227 68.9435C90.1301 69.0197 90.0578 69.1229 90.0191 69.2399Z" fill="#171717"/>
<path d="M252.341 127.43H246.401C245.925 127.43 245.539 127.815 245.539 128.292V134.232C245.539 134.709 245.925 135.095 246.401 135.095H252.341C252.817 135.095 253.204 134.709 253.204 134.232V128.292C253.204 127.815 252.817 127.43 252.341 127.43Z" stroke="#171717" stroke-width="0.9" stroke-miterlimit="10"/>
<path d="M268.175 105.797L262.733 103.415C262.297 103.224 261.788 103.423 261.597 103.859L259.215 109.301C259.024 109.737 259.223 110.246 259.659 110.437L265.101 112.819C265.537 113.01 266.046 112.811 266.237 112.375L268.619 106.933C268.81 106.497 268.611 105.988 268.175 105.797Z" stroke="#171717" stroke-width="0.9" stroke-miterlimit="10"/>
<path d="M275.037 123.643H269.097C268.62 123.643 268.234 124.029 268.234 124.506V130.446C268.234 130.922 268.62 131.308 269.097 131.308H275.037C275.514 131.308 275.899 130.922 275.899 130.446V124.506C275.899 124.029 275.514 123.643 275.037 123.643Z" stroke="#171717" stroke-width="0.9" stroke-miterlimit="10"/>
<path d="M253.204 131.309L268.235 127.967" stroke="#171717" stroke-width="0.9" stroke-miterlimit="10"/>
<path d="M265.913 112.312L272.067 123.643" stroke="#171717" stroke-width="0.9" stroke-miterlimit="10"/>
<path d="M184.252 42.2858C183.538 44.6933 182.528 47.003 181.246 49.1615C183.169 49.3961 184.98 50.1917 186.454 51.4493C186.738 51.6923 187.138 51.9653 187.445 51.7532C187.558 51.6602 187.643 51.5387 187.693 51.4019L190.676 45.0119" stroke="#171717" stroke-width="0.9" stroke-linecap="round" stroke-linejoin="round"/>
<path d="M190.227 44.945C193.554 43.055 197.115 40.907 198.517 37.3469C198.94 36.2726 199.139 35.123 199.101 33.9686C199.063 32.8145 198.789 31.6805 198.295 30.6362C197.802 29.5922 197.1 28.6603 196.232 27.8981C195.365 27.1359 194.35 26.5596 193.251 26.2047C192.152 25.8499 190.992 25.724 189.843 25.8348C188.693 25.9457 187.578 26.2909 186.568 26.8492C185.557 27.4076 184.671 28.1671 183.965 29.081C183.259 29.995 182.748 31.0439 182.463 32.1629C181.58 35.6318 182.957 39.2501 184.514 42.4733" stroke="#171717" stroke-width="0.9" stroke-linecap="round" stroke-linejoin="round"/>
<path d="M184.368 42.1499C186.307 42.7703 188.157 43.6415 189.871 44.7413" stroke="#171717" stroke-width="0.9" stroke-linecap="round" stroke-linejoin="round"/>
<path d="M184 45.3245L188.028 46.8152" stroke="#171717" stroke-width="0.9" stroke-linecap="round" stroke-linejoin="round"/>
<path d="M188.995 43.2956L194.092 36.4112C193.375 36.749 192.595 37.0958 191.818 36.9389C191.041 36.782 190.389 35.8619 190.802 35.186C190.579 35.4665 190.267 35.6636 189.917 35.7455C189.568 35.8274 189.201 35.789 188.876 35.6366C188.551 35.4842 188.287 35.2268 188.126 34.9058C187.965 34.5848 187.917 34.2191 187.99 33.8678L186.82 39.7178" stroke="#171717" stroke-width="0.9" stroke-linecap="round" stroke-linejoin="round"/>
<path d="M179.992 27.5154L178.218 25.6968" stroke="#171717" stroke-width="0.9" stroke-linecap="round" stroke-linejoin="round"/>
<path d="M187.336 20.8753L185.533 13.5643" stroke="#171717" stroke-width="0.9" stroke-linecap="round" stroke-linejoin="round"/>
<path d="M198.371 24.8801L199.964 22.715" stroke="#171717" stroke-width="0.9" stroke-linecap="round" stroke-linejoin="round"/>
<path d="M202.34 32.3444L208.148 30.5144" stroke="#171717" stroke-width="0.9" stroke-linecap="round" stroke-linejoin="round"/>
<path d="M199.678 40.6077L201.559 42.0855" stroke="#171717" stroke-width="0.9" stroke-linecap="round" stroke-linejoin="round"/>
<path d="M45.5961 98.636C47.5134 112.057 30.1389 121.648 30.1389 121.648C30.1389 121.648 23.2388 101.016 42.7836 98.636" stroke="#171717" stroke-width="0.9" stroke-linecap="round" stroke-linejoin="round"/>
<path d="M39.7772 111.054C40.5056 110.325 39.6377 108.276 37.8386 106.477C36.0398 104.678 33.9911 103.81 33.2627 104.539C32.5343 105.267 33.4022 107.316 35.201 109.115C37.0001 110.914 39.0488 111.782 39.7772 111.054Z" fill="#171717"/>
<path d="M36.2386 97.7414L35.4844 95.5061" stroke="#171717" stroke-width="0.9" stroke-linecap="round" stroke-linejoin="round"/>
<path d="M29.6648 101.165C28.5167 100.336 27.4815 99.3616 26.585 98.2657" stroke="#171717" stroke-width="0.9" stroke-linecap="round" stroke-linejoin="round"/>
<path d="M25.4981 107.938C25.1253 108.117 24.7195 108.219 24.3059 108.235C23.8923 108.251 23.4798 108.181 23.0942 108.031" stroke="#171717" stroke-width="0.9" stroke-linecap="round" stroke-linejoin="round"/>
<path d="M61.1887 148.14L57.8755 143.386" stroke="#171717" stroke-width="0.9" stroke-linecap="round" stroke-linejoin="round"/>
<path d="M56.9785 147.459L61.3504 144.116L61.2526 143.703" stroke="#171717" stroke-width="0.9" stroke-linecap="round" stroke-linejoin="round"/>
<path d="M91.2979 141.113C92.3833 141.578 93.5941 141.661 94.7326 141.349C95.8714 141.036 96.8701 140.346 97.5655 139.392" stroke="#171717" stroke-width="0.9" stroke-linecap="round" stroke-linejoin="round"/>
<path d="M117.236 132.107C116.296 132.121 115.381 131.794 114.662 131.187C113.943 130.58 113.467 129.734 113.322 128.804" stroke="#171717" stroke-width="0.9" stroke-linecap="round" stroke-linejoin="round"/>
<path d="M130.498 77.5613C129.584 77.8553 128.596 77.8151 127.71 77.4473C126.824 77.0798 126.097 76.409 125.66 75.5549" stroke="#171717" stroke-width="0.9" stroke-linecap="round" stroke-linejoin="round"/>
<path d="M161.174 47.8409L157.844 42.6311L158.246 42.2279" stroke="#171717" stroke-width="0.9" stroke-linecap="round" stroke-linejoin="round"/>
<path d="M223.274 66.2834L228.631 61.5989" stroke="#171717" stroke-width="0.9" stroke-linecap="round" stroke-linejoin="round"/>
<path d="M227.71 66.3646L223.852 61.2595" stroke="#171717" stroke-width="0.9" stroke-linecap="round" stroke-linejoin="round"/>
<path d="M233.006 98.8618C233.92 97.4026 234.462 95.7409 234.584 94.0231C234.706 92.3053 234.404 90.5839 233.706 89.0101" stroke="#171717" stroke-width="0.9" stroke-linecap="round" stroke-linejoin="round"/>
<path d="M217.68 151.877L215.771 144.972" stroke="#171717" stroke-width="0.9" stroke-linecap="round" stroke-linejoin="round"/>
<path d="M213.323 150.345C215.308 148.968 217.496 147.906 219.807 147.198" stroke="#171717" stroke-width="0.9" stroke-linecap="round" stroke-linejoin="round"/>
<g opacity="0.1">
<path d="M132.664 154.057C127.92 155.008 124.156 159.412 123.295 164.102L126.28 161.829C123.984 161.994 121.681 162.596 119.428 163.057C117.244 163.504 115.065 163.972 112.896 164.488C108.567 165.517 104.266 166.675 100.03 168.039C91.9949 170.624 84.1232 173.938 76.928 178.378C63.5216 186.652 52.2608 198.98 48.1244 214.465C46.028 222.313 45.8234 230.785 48.0821 238.622C50.1443 245.779 54.2366 252.247 59.4821 257.499C71.4041 269.436 88.2077 274.261 104.676 275.134C122.715 276.088 145.033 273.156 155.156 256.153C156.705 253.552 152.886 250.383 150.849 252.83C146.359 258.148 140.604 262.252 134.114 264.765C126.431 267.69 118.223 268.485 110.058 268.455C95.381 268.401 79.6898 265.547 67.9964 256.065C62.8301 251.876 58.4204 246.615 55.835 240.439C53.1704 234.074 52.5788 226.888 53.7326 220.114C56.1575 205.875 65.2676 194.181 76.9745 186.121C83.9489 181.321 91.649 177.726 99.6473 174.994C104.121 173.466 108.675 172.184 113.264 171.055C115.518 170.502 117.778 169.974 120.044 169.472C122.37 168.954 124.844 168.651 127.104 167.91C128.385 167.49 129.406 166.327 129.377 164.924C129.317 162.004 131.17 159.531 133.861 158.395C136.476 157.292 135.581 153.471 132.665 154.056L132.664 154.057Z" fill="#171717"/>
</g>
<g opacity="0.1">
<path d="M177.838 226.576C180.57 225.805 182.784 223.748 185.22 222.335C186.426 221.636 187.706 221.035 188.866 220.261C189.921 219.558 191.365 218.595 191.658 217.303C191.738 216.989 191.715 216.658 191.593 216.358C191.471 216.058 191.255 215.804 190.979 215.636C189.772 214.941 188.236 215.383 186.965 215.753C185.451 216.194 184.001 217.158 182.688 218.003C180.224 219.589 177.21 221.367 175.932 224.097C175.335 225.373 176.324 227.004 177.838 226.576Z" fill="#171717"/>
</g>
<g opacity="0.1">
<path d="M155.871 94.0748C153.713 94.337 151.663 95.4914 149.575 96.1022C147.38 96.7442 145.126 97.2122 142.9 97.7339C138.476 98.7716 133.43 99.7502 129.956 102.89C126.349 106.149 126.123 111.3 126.948 115.761C127.388 118.138 128.248 120.404 128.877 122.731C129.22 123.87 129.447 125.04 129.553 126.224C129.631 127.507 129.389 128.697 129.262 129.967C128.968 132.896 133.762 134.253 134.948 131.508C137.022 126.703 135.038 121.494 133.625 116.79C132.711 113.743 131.652 109.32 134.489 106.935C135.983 105.678 138.059 105.033 139.883 104.445C141.92 103.787 143.995 103.257 146.057 102.683C148.155 102.094 150.205 101.347 152.19 100.448C154.05 99.6107 156.306 98.4572 157.316 96.5942C157.858 95.5949 157.205 93.914 155.871 94.076V94.0748Z" fill="#171717"/>
</g>
</g>
<defs>
<linearGradient id="paint0_linear_28_12842" x1="150.481" y1="154.848" x2="150.481" y2="274.215" gradientUnits="userSpaceOnUse">
<stop stop-color="#FF9A34"/>
<stop offset="1" stop-color="#EB6421"/>
</linearGradient>
<linearGradient id="paint1_linear_28_12842" x1="85.3889" y1="96.7553" x2="85.3889" y2="136.116" gradientUnits="userSpaceOnUse">
<stop stop-color="#FF9A34"/>
<stop offset="1" stop-color="#EB6421"/>
</linearGradient>
<linearGradient id="paint2_linear_28_12842" x1="36.8102" y1="172.609" x2="36.8102" y2="190.401" gradientUnits="userSpaceOnUse">
<stop stop-color="#FF9A34"/>
<stop offset="1" stop-color="#EB6421"/>
</linearGradient>
</defs>
</svg>
