<svg width="288" height="288" viewBox="0 0 288 288" fill="none" xmlns="http://www.w3.org/2000/svg">
<path fill-rule="evenodd" clip-rule="evenodd" d="M209.833 225.132L181.617 226.597L181.61 226.48C183.799 220.994 189.348 217.015 195.246 216.709C201.145 216.402 207.079 219.778 209.826 225.007L209.833 225.132ZM176.03 226.887C170.725 240.671 165.165 254.417 153.297 263.207C152.901 263.5 152.502 263.785 152.097 264.058L152.34 264.412C174.516 274.941 202.173 275.199 224.067 264.092C239.351 256.337 252.342 243.065 257.193 226.626C262.043 210.187 257.613 190.708 244.389 179.801C235.761 172.685 224.492 169.704 213.459 167.881C201.48 165.834 189.325 165.004 177.179 165.403L177.047 165.296V165.21L176.801 165.207C173.285 169.374 170.238 173.915 167.714 178.748C165.977 171.847 164.205 164.86 160.779 158.622L160.782 158.545C158.937 158.488 157.092 158.428 155.247 158.367L155.238 158.625C156.404 181.622 156.864 204.624 156.618 227.63L156.633 227.897L176.03 226.887ZM177.169 196.085L177.166 196.155C176.776 198.975 176.386 201.828 176.641 204.664C176.896 207.501 177.847 210.364 179.821 212.419C181.794 214.474 184.902 215.559 187.603 214.657C189.294 214.092 190.688 212.815 191.658 211.317C192.629 209.818 193.209 208.099 193.644 206.371C194.458 203.146 194.811 199.822 194.694 196.498L194.492 196.504C193.955 196.492 193.418 196.479 192.882 196.465C192.36 196.453 191.838 196.44 191.318 196.428C191.403 195.403 191.477 194.371 191.539 193.342C191.601 192.842 191.564 192.334 191.428 191.848C191.356 191.605 191.217 191.388 191.026 191.222C190.835 191.056 190.601 190.948 190.35 190.911C189.62 190.862 189.098 191.605 188.834 192.289C188.367 193.505 188.206 194.816 188.364 196.108L188.358 196.354C184.628 196.266 180.898 196.176 177.169 196.085ZM228.657 174.741C228.418 174.651 228.153 174.772 228.063 175.009C227.973 175.247 228.094 175.513 228.332 175.603C239.74 179.9 248.855 189.874 252.11 201.623C255.366 213.372 252.684 226.615 245.113 236.171C244.955 236.37 244.989 236.66 245.188 236.818C245.388 236.976 245.677 236.942 245.835 236.743C253.588 226.956 256.332 213.409 252.998 201.377C249.664 189.345 240.339 179.142 228.657 174.741Z" fill="url(#paint0_linear_28_12819)"/>
<path d="M191.317 196.429C192.373 196.454 193.432 196.481 194.491 196.506L194.694 196.5C194.811 199.824 194.457 203.148 193.644 206.373C193.208 208.101 192.628 209.82 191.658 211.318C190.688 212.816 189.294 214.093 187.602 214.658C184.902 215.561 181.794 214.474 179.82 212.42C177.846 210.366 176.892 207.502 176.64 204.666C176.389 201.829 176.775 198.977 177.165 196.156L177.168 196.085C180.898 196.174 184.628 196.264 188.358 196.355L191.317 196.429Z" fill="url(#paint1_linear_28_12819)"/>
<path d="M188.364 196.11C188.205 194.817 188.366 193.506 188.834 192.291C189.098 191.606 189.62 190.863 190.35 190.912C190.6 190.95 190.835 191.057 191.025 191.223C191.217 191.389 191.356 191.606 191.428 191.849C191.563 192.335 191.601 192.843 191.538 193.344C191.478 194.372 191.403 195.404 191.317 196.429L188.358 196.355L188.364 196.11Z" fill="currentColor"/>
<path d="M176.802 165.205C173.287 169.372 170.24 173.913 167.716 178.746C165.978 171.846 164.206 164.858 160.781 158.62L160.784 158.543C161.659 158.573 162.537 158.602 163.412 158.629L168.815 158.804C170.921 158.875 173.153 158.982 174.89 160.173C176.612 161.352 177.076 162.135 177.048 165.208L176.802 165.205Z" fill="currentColor"/>
<path d="M139.095 169.654C137.152 167.934 134.773 166.605 132.195 166.338L132.158 166.347C131.385 163.486 133.488 160.437 136.183 159.164C138.381 158.123 140.852 157.966 143.305 157.994C143.91 158 144.511 158.018 145.107 158.037C147.17 158.104 149.232 158.17 151.293 158.236L151.29 158.328C148.324 163.793 146.234 169.684 144.155 175.548C142.604 173.466 141.042 171.37 139.095 169.654Z" fill="currentColor"/>
<path d="M129.048 243.997C129.112 244.444 129.275 244.871 129.527 245.246C129.778 245.621 130.11 245.935 130.5 246.164C131.485 246.689 132.738 246.471 133.692 245.888C134.647 245.305 135.362 244.414 136.038 243.527C139.068 239.558 141.751 235.291 143.623 230.664C143.911 229.973 144.146 229.261 144.326 228.534C144.707 226.935 144.726 225.289 143.811 223.979C142.671 222.352 140.511 221.863 138.546 221.584C133.109 220.814 127.522 220.684 122.166 221.888C116.81 223.092 111.27 226.097 107.595 230.177L107.607 230.441L118.557 229.873C117.191 232.62 115.825 235.369 114.459 238.119C114.011 239.024 113.553 239.949 113.415 240.949C113.277 241.949 113.517 243.061 114.269 243.736C115.015 244.406 116.135 244.522 117.111 244.286C118.088 244.05 118.96 243.503 119.811 242.966L120.131 243.07C119.972 243.525 119.938 244.014 120.033 244.486C120.349 245.794 121.908 246.376 123.253 246.376C124.266 246.374 125.268 246.169 126.201 245.773C127.134 245.377 127.977 244.798 128.683 244.07L129.048 243.997ZM57.7279 239.727C53.8231 227.106 56.755 212.945 63.9109 201.841C71.0668 190.737 82.0936 182.498 94.1092 177.009C106.125 171.52 118.251 166.737 132.197 166.482C132.185 166.436 132.17 166.392 132.157 166.347L132.194 166.338C134.774 166.605 137.152 167.934 139.094 169.654C141.036 171.373 142.604 173.466 144.153 175.548C146.232 169.684 148.323 163.793 151.288 158.328L151.291 158.236C152.611 158.282 153.928 158.322 155.248 158.365L155.239 158.623C156.402 181.604 156.863 204.605 156.619 227.627L156.634 227.894L176.03 226.888C170.724 240.672 165.165 254.419 153.297 263.207C152.901 263.499 152.502 263.784 152.097 264.057C143.591 269.887 133.086 272.263 122.78 273.141C109.635 274.261 96.0475 273.101 84.0073 267.711C71.9671 262.321 61.6267 252.328 57.7279 239.727Z" fill="url(#paint2_linear_28_12819)"/>
<path d="M157.122 135.151C158.537 134.911 159.951 134.67 161.364 134.427C161.162 128.941 160.957 123.454 160.75 117.966C160.707 116.826 160.759 115.492 161.69 114.838C162.285 114.42 163.071 114.423 163.802 114.442C166.629 114.515 169.455 114.59 172.281 114.666" stroke="currentColor" stroke-width="1.2" stroke-linecap="round" stroke-linejoin="round"/>
<path d="M166.862 121.667V118.847" stroke="currentColor" stroke-width="0.921" stroke-linecap="round" stroke-linejoin="round"/>
<path d="M152.919 121.021C152.864 120.152 152.809 119.284 152.753 118.417" stroke="currentColor" stroke-width="0.921" stroke-linecap="round" stroke-linejoin="round"/>
<path d="M156.422 142.107C155.482 142.366 154.486 142.342 153.56 142.039C152.633 141.735 151.816 141.166 151.211 140.401C150.606 139.636 150.239 138.711 150.156 137.739C150.073 136.768 150.278 135.793 150.746 134.938" stroke="currentColor" stroke-width="0.921" stroke-linecap="round" stroke-linejoin="round"/>
<path d="M143.308 157.417L143.584 136.687C143.658 131.278 143.73 125.868 143.802 120.459C143.848 116.911 144.109 112.892 146.829 110.614C148.732 109.024 151.366 108.72 153.837 108.533C161.46 107.956 169.112 107.848 176.748 108.207L177.699 108.254" stroke="currentColor" stroke-width="1.2" stroke-linecap="round" stroke-linejoin="round"/>
<path d="M163.421 158.341C162.595 155.71 163.571 152.818 165.112 150.531C166.654 148.245 168.72 146.372 170.433 144.213C174.252 139.397 176.167 133.297 176.873 127.191C176.901 126.948 176.929 126.709 176.95 126.467C177.546 120.597 177.13 114.669 176.72 108.781" stroke="currentColor" stroke-width="1.2" stroke-linecap="round" stroke-linejoin="round"/>
<path d="M186.184 93.8889C186.667 93.3585 187.287 92.9724 187.976 92.7729C188.664 92.5734 189.395 92.5686 190.086 92.7591C192.057 93.3669 193.322 95.4759 193.353 97.536C193.383 99.5961 192.358 101.563 190.967 103.086C189.576 104.608 187.83 105.754 186.105 106.88C187.999 105.877 190.553 106.711 191.745 108.492C192.936 110.272 192.831 112.741 191.766 114.598C190.701 116.455 188.788 117.737 186.74 118.365C189.288 120.698 189.29 125.248 186.746 127.587C184.203 129.926 179.366 129.232 177.251 126.5" stroke="currentColor" stroke-width="0.921" stroke-linecap="round" stroke-linejoin="round"/>
<path d="M186.184 93.8889C185.988 94.4589 185.734 95.0079 185.429 95.5281C185.503 94.9161 185.767 94.3425 186.184 93.8889Z" stroke="currentColor" stroke-width="0.921" stroke-linecap="round" stroke-linejoin="round"/>
<path d="M177.846 88.412C178.139 87.5879 178.685 86.8778 179.406 86.3837C180.128 85.8896 180.988 85.6367 181.861 85.6616C183.958 85.769 185.775 87.4634 186.374 89.4743C186.772 90.9296 186.706 92.4731 186.184 93.8888" stroke="currentColor" stroke-width="0.921" stroke-linecap="round" stroke-linejoin="round"/>
<path d="M177.847 88.4121C177.838 88.7556 177.787 89.097 177.697 89.4285C177.689 89.0838 177.739 88.74 177.847 88.4121Z" stroke="currentColor" stroke-width="0.921" stroke-linecap="round" stroke-linejoin="round"/>
<path d="M143.212 136.68C141.345 139.688 136.753 140.542 133.929 138.408C131.104 136.275 130.671 131.621 133.057 129.002C129.913 128.047 128.535 124.066 129.367 120.885C130.199 117.705 132.612 115.212 135.031 112.99C131.488 111.866 129.164 107.808 129.991 104.182C130.817 100.557 134.663 97.9043 138.344 98.42C135.796 96.6518 135.464 92.6486 137.276 90.1313C139.087 87.614 142.507 86.5826 145.571 87.0644C148.635 87.5462 151.363 89.333 153.583 91.5065C152.229 89.3792 153.294 86.294 155.44 84.977C157.586 83.66 160.416 83.8778 162.682 84.983C164.948 86.0882 166.734 87.9608 168.34 89.903C167.198 86.9987 169.57 83.318 172.687 83.1584C175.459 83.0201 177.924 85.7033 177.847 88.4108" stroke="currentColor" stroke-width="0.921" stroke-linecap="round" stroke-linejoin="round"/>
<path d="M177.048 165.294V165.208C177.076 162.135 176.612 161.353 174.89 160.174C173.153 158.983 170.921 158.875 168.815 158.805L163.412 158.629C162.537 158.602 161.659 158.574 160.784 158.544C158.939 158.485 157.094 158.426 155.249 158.365C153.929 158.323 152.612 158.283 151.292 158.236C149.229 158.172 147.167 158.106 145.106 158.037C144.511 158.019 143.909 158 143.304 157.994C140.851 157.966 138.38 158.123 136.182 159.164C133.487 160.438 131.384 163.486 132.157 166.348C132.17 166.393 132.185 166.438 132.197 166.483C118.251 166.737 106.127 171.517 94.1093 177.009C82.0913 182.501 71.0675 190.734 63.911 201.841C56.7545 212.948 53.8232 227.106 57.728 239.727C61.628 252.328 71.9663 262.324 84.0062 267.712C96.0461 273.099 109.634 274.263 122.779 273.142C133.084 272.264 143.59 269.887 152.096 264.058C152.502 263.785 152.901 263.499 153.296 263.207C165.164 254.417 170.724 240.671 176.029 226.888" stroke="currentColor" stroke-width="1.2" stroke-linecap="round" stroke-linejoin="round"/>
<path d="M177.18 165.402C189.326 165.002 201.481 165.833 213.46 167.879C224.493 169.703 235.763 172.684 244.39 179.8C257.615 190.707 262.045 210.185 257.195 226.625C252.344 243.064 239.352 256.337 224.068 264.092C202.173 275.199 174.517 274.941 152.34 264.412" stroke="currentColor" stroke-width="1.2" stroke-linecap="round" stroke-linejoin="round"/>
<path d="M144.323 228.534H144.326L156.633 227.895L176.029 226.888L181.616 226.596L209.832 225.132L211.793 225.031L213.092 194.98" stroke="currentColor" stroke-width="1.2" stroke-linecap="round" stroke-linejoin="round"/>
<path d="M104.888 201.194L103.297 230.665L107.607 230.441L118.558 229.873" stroke="currentColor" stroke-width="1.2" stroke-linecap="round" stroke-linejoin="round"/>
<path d="M107.595 230.177C111.27 226.097 116.808 223.091 122.165 221.888C127.522 220.685 133.109 220.814 138.545 221.584C140.51 221.864 142.671 222.352 143.81 223.979C144.725 225.29 144.706 226.935 144.325 228.534C144.145 229.261 143.911 229.973 143.623 230.664C141.75 235.291 139.067 239.558 136.037 243.527C135.361 244.414 134.643 245.308 133.691 245.888C132.739 246.468 131.484 246.689 130.499 246.164C130.11 245.935 129.778 245.621 129.526 245.246C129.275 244.871 129.111 244.444 129.047 243.997C128.977 243.63 128.958 243.255 128.992 242.882C129.102 241.612 129.701 240.442 130.29 239.309C132.279 235.469 134.271 231.628 136.264 227.785" stroke="currentColor" stroke-width="1.2" stroke-linecap="round" stroke-linejoin="round"/>
<path d="M128.682 244.07C127.977 244.798 127.133 245.376 126.2 245.772C125.268 246.168 124.265 246.373 123.252 246.376C121.908 246.376 120.348 245.793 120.032 244.486C119.937 244.014 119.971 243.525 120.13 243.07C120.225 242.772 120.335 242.479 120.46 242.193C122.607 237.088 125.08 232.127 127.865 227.341" stroke="currentColor" stroke-width="1.2" stroke-linecap="round" stroke-linejoin="round"/>
<path d="M119.81 242.965C118.96 243.503 118.088 244.045 117.11 244.285C116.132 244.525 115.014 244.405 114.268 243.736C113.516 243.06 113.278 241.952 113.414 240.948C113.551 239.944 114.01 239.023 114.458 238.118C115.824 235.37 117.19 232.622 118.556 229.872C118.974 229.034 119.388 228.199 119.806 227.361" stroke="currentColor" stroke-width="1.2" stroke-linecap="round" stroke-linejoin="round"/>
<path d="M181.61 226.48C183.8 220.994 189.35 217.019 195.246 216.708C201.143 216.398 207.078 219.778 209.826 225.006" stroke="currentColor" stroke-width="1.2" stroke-linecap="round" stroke-linejoin="round"/>
<path d="M132.194 166.337C134.774 166.604 137.152 167.933 139.094 169.652C141.037 171.372 142.604 173.465 144.154 175.546C146.232 169.683 148.324 163.792 151.288 158.326" stroke="currentColor" stroke-width="0.921" stroke-linecap="round" stroke-linejoin="round"/>
<path d="M160.781 158.621C164.207 164.859 165.978 171.846 167.716 178.747C170.24 173.914 173.287 169.373 176.802 165.205" stroke="currentColor" stroke-width="0.921" stroke-linecap="round" stroke-linejoin="round"/>
<path d="M155.24 158.624C156.403 181.605 156.863 204.606 156.62 227.628" stroke="currentColor" stroke-width="1.2" stroke-linecap="round" stroke-linejoin="round"/>
<path d="M177.165 196.157C176.775 198.977 176.385 201.83 176.64 204.666C176.895 207.503 177.847 210.366 179.82 212.421C181.794 214.476 184.901 215.562 187.602 214.659C189.294 214.094 190.688 212.817 191.658 211.319C192.628 209.821 193.208 208.102 193.644 206.373C194.457 203.148 194.811 199.825 194.694 196.501C194.694 196.476 194.691 196.452 194.691 196.427" stroke="currentColor" stroke-width="0.921" stroke-linecap="round" stroke-linejoin="round"/>
<path d="M176.833 196.076L177.168 196.085C180.898 196.174 184.628 196.264 188.358 196.355L191.318 196.429C192.374 196.453 193.433 196.481 194.492 196.505" stroke="currentColor" stroke-width="0.921" stroke-linecap="round" stroke-linejoin="round"/>
<path d="M190.037 206.827C190.599 203.382 191.025 199.916 191.317 196.429C191.403 195.404 191.477 194.372 191.538 193.344C191.601 192.843 191.563 192.335 191.428 191.849C191.356 191.606 191.217 191.389 191.025 191.223C190.835 191.057 190.6 190.95 190.35 190.912C189.62 190.863 189.098 191.606 188.834 192.291C188.366 193.506 188.205 194.817 188.364 196.11C188.459 196.08 188.554 196.051 188.649 196.02" stroke="currentColor" stroke-width="1.2" stroke-linecap="round" stroke-linejoin="round"/>
<path d="M238.228 210.149L241.55 207.259" stroke="currentColor" stroke-width="0.8352" stroke-linecap="round" stroke-linejoin="round"/>
<path d="M241.188 210.351L238.833 207.241" stroke="currentColor" stroke-width="0.8352" stroke-linecap="round" stroke-linejoin="round"/>
<path d="M205.283 198.905C204.196 198.496 203.248 197.785 202.551 196.856" stroke="currentColor" stroke-width="0.8352" stroke-linecap="round" stroke-linejoin="round"/>
<path d="M202.419 199.329L204.871 196.292" stroke="currentColor" stroke-width="0.8352" stroke-linecap="round" stroke-linejoin="round"/>
<path d="M168.608 187.481L171.985 184.324L171.777 184.435" stroke="currentColor" stroke-width="0.8352" stroke-linecap="round" stroke-linejoin="round"/>
<path d="M171.053 188.191C170.603 186.843 169.863 185.611 168.886 184.58" stroke="currentColor" stroke-width="0.8352" stroke-linecap="round" stroke-linejoin="round"/>
<path d="M139.105 207.684C139.566 206.785 140.277 206.038 141.153 205.534" stroke="currentColor" stroke-width="0.8352" stroke-linecap="round" stroke-linejoin="round"/>
<path d="M140.831 208.004L139.063 205.574" stroke="currentColor" stroke-width="0.8352" stroke-linecap="round" stroke-linejoin="round"/>
<path d="M113.102 186.449C113.807 184.724 114.832 183.148 116.124 181.803" stroke="currentColor" stroke-width="0.8352" stroke-linecap="round" stroke-linejoin="round"/>
<path d="M115.798 185.947L112.285 182.527" stroke="currentColor" stroke-width="0.8352" stroke-linecap="round" stroke-linejoin="round"/>
<path d="M95.7711 222.301L93.6084 220.275" stroke="currentColor" stroke-width="0.8352" stroke-linecap="round" stroke-linejoin="round"/>
<path d="M92.897 223.441L95.642 219.685" stroke="currentColor" stroke-width="0.8352" stroke-linecap="round" stroke-linejoin="round"/>
<path d="M94.631 258.69C93.896 260.018 92.9156 261.195 91.7417 262.157" stroke="currentColor" stroke-width="0.8352" stroke-linecap="round" stroke-linejoin="round"/>
<path d="M94.2396 261.983L92.415 259.448" stroke="currentColor" stroke-width="0.8352" stroke-linecap="round" stroke-linejoin="round"/>
<path d="M152.307 245.522L150.375 242.492C150.397 242.486 150.421 242.487 150.443 242.495C150.465 242.503 150.484 242.517 150.497 242.537C150.51 242.556 150.517 242.579 150.516 242.602C150.516 242.625 150.508 242.648 150.494 242.667C150.48 242.685 150.46 242.699 150.438 242.706C150.416 242.713 150.392 242.713 150.37 242.706C150.348 242.699 150.328 242.685 150.314 242.666C150.301 242.648 150.293 242.625 150.292 242.602" stroke="currentColor" stroke-width="0.8352" stroke-linecap="round" stroke-linejoin="round"/>
<path d="M149.554 245.426L152.294 242.676" stroke="currentColor" stroke-width="0.8352" stroke-linecap="round" stroke-linejoin="round"/>
<path d="M203.261 243.241L201.101 241.21" stroke="currentColor" stroke-width="0.8352" stroke-linecap="round" stroke-linejoin="round"/>
<path d="M200.957 243.81L202.979 241.354" stroke="currentColor" stroke-width="0.8352" stroke-linecap="round" stroke-linejoin="round"/>
<path d="M77.6973 207.146L74.8809 205.085" stroke="currentColor" stroke-width="0.8352" stroke-linecap="round" stroke-linejoin="round"/>
<path d="M75.106 207.81L77.041 204.334" stroke="currentColor" stroke-width="0.8352" stroke-linecap="round" stroke-linejoin="round"/>
<path d="M238.785 241.733L236.438 238.671" stroke="currentColor" stroke-width="0.8352" stroke-linecap="round" stroke-linejoin="round"/>
<path d="M235.762 241.804C237.141 240.99 238.42 240.018 239.575 238.908" stroke="currentColor" stroke-width="0.8352" stroke-linecap="round" stroke-linejoin="round"/>
<path d="M216.993 178.801L219.015 175.623" stroke="currentColor" stroke-width="0.8352" stroke-linecap="round" stroke-linejoin="round"/>
<path d="M219.156 178.517L216.093 175.951" stroke="currentColor" stroke-width="0.8352" stroke-linecap="round" stroke-linejoin="round"/>
<path d="M18.989 141.31C14.3288 153.887 11.2058 167.275 12.1775 180.652C12.4691 184.669 13.1582 188.749 15.0992 192.278C17.0402 195.807 20.4119 198.732 24.3992 199.301C28.3865 199.871 32.8329 197.591 33.9891 193.733C35.1453 189.874 31.9896 185.136 27.968 185.359C24.8897 185.529 22.4213 188.329 21.8066 191.35C21.1919 194.371 22.0766 197.507 23.3615 200.31C25.049 203.993 27.416 207.322 29.3222 210.898C31.2285 214.473 32.6961 218.458 32.3472 222.495C31.9983 226.532 29.4458 230.58 25.5428 231.668C21.6398 232.757 16.8323 229.828 16.8575 225.776" stroke="currentColor" stroke-width="1.2" stroke-linecap="round" stroke-linejoin="round"/>
<path d="M274.648 102.367C274.289 112.387 273.827 122.809 269.081 131.641C267.731 134.15 265.991 136.546 263.559 138.031C261.126 139.515 257.899 139.93 255.429 138.509C252.958 137.089 251.718 133.591 253.234 131.179C254.944 128.457 259.261 128.408 261.705 130.497C264.148 132.586 264.963 136.061 264.817 139.273C264.623 143.555 263.005 147.628 261.403 151.603C259.801 155.578 258.173 159.647 257.958 163.928C257.743 168.209 259.201 172.822 262.696 175.304C266.191 177.787 271.846 177.212 273.957 173.48C276.067 169.749 272.427 164.016 268.284 165.114C267.118 165.451 266.089 166.148 265.344 167.105C263.079 169.912 263.496 174.497 266.231 176.849C268.966 179.201 273.561 178.927 275.998 176.267" stroke="currentColor" stroke-width="1.2" stroke-linecap="round" stroke-linejoin="round"/>
<path d="M152.715 72.9167L149.437 46.0229" stroke="currentColor" stroke-width="1.2" stroke-linecap="round" stroke-linejoin="round"/>
<path d="M142.084 75.314C139.285 73.8761 136.71 72.0377 134.442 69.8567" stroke="currentColor" stroke-width="0.8352" stroke-linecap="round" stroke-linejoin="round"/>
<path d="M162.272 72.2417L164.447 66.8276" stroke="currentColor" stroke-width="1.2" stroke-linecap="round" stroke-linejoin="round"/>
<path d="M188.294 58.041C191.064 56.8974 191.543 53.121 190.86 50.2041C190.178 47.2872 188.769 44.3697 189.354 41.4309C189.968 38.3523 192.669 36.0843 195.541 34.818C198.691 33.4302 202.296 32.9523 205.621 33.8433C208.945 34.7343 211.927 37.0779 213.254 40.2525C214.581 43.4271 214.067 47.3829 211.714 49.8939C209.477 52.2816 206.089 53.0901 203.037 54.2688C199.985 55.4475 196.792 57.5412 196.33 60.7806" stroke="currentColor" stroke-width="1.2" stroke-linecap="round" stroke-linejoin="round"/>
<path d="M198.501 54.2723C199.952 52.5623 201.013 50.5568 201.61 48.3953C200.841 49.019 199.734 49.6583 198.949 49.0553C198.178 48.4634 198.48 47.2553 198.855 46.3583C198.8 46.5914 198.697 46.8104 198.553 47.0012C198.408 47.192 198.224 47.3501 198.015 47.4653C197.805 47.5805 197.573 47.6504 197.335 47.6702C197.096 47.69 196.856 47.6594 196.63 47.5802C196.404 47.501 196.197 47.3753 196.023 47.2112C195.849 47.0468 195.711 46.8476 195.619 46.6268C195.527 46.4057 195.482 46.1678 195.488 45.9284C195.493 45.6893 195.55 45.4538 195.652 45.2375L194.224 51.8675" stroke="currentColor" stroke-width="1.2" stroke-linecap="round" stroke-linejoin="round"/>
<path d="M218.037 128.117C225.021 124.807 231.504 121.685 237.99 117.484C238.652 117.111 239.235 116.614 239.708 116.019C240.141 115.398 240.315 114.535 239.934 113.879C239.557 113.229 238.755 112.954 238.006 112.886C236.001 112.706 234.079 113.633 232.29 114.558C227.07 117.257 221.848 119.788 216.837 122.867" stroke="currentColor" stroke-width="1.2" stroke-linecap="round" stroke-linejoin="round"/>
<path d="M216.575 123.05L210.92 128.585L218.003 128.147" stroke="currentColor" stroke-width="1.2" stroke-linecap="round" stroke-linejoin="round"/>
<path d="M215.188 128.267L213.988 125.867" stroke="currentColor" stroke-width="1.2" stroke-linecap="round" stroke-linejoin="round"/>
<path d="M234.902 119.067L233.166 114.3" stroke="currentColor" stroke-width="1.2" stroke-linecap="round" stroke-linejoin="round"/>
<path d="M226.887 85.9101L226.022 80.9268" stroke="currentColor" stroke-width="1.2" stroke-linecap="round" stroke-linejoin="round"/>
<path d="M224.061 84.1511L228.614 82.208" stroke="currentColor" stroke-width="1.2" stroke-linecap="round" stroke-linejoin="round"/>
<path d="M231.439 82.0098L231.991 85.1949L231.83 84.1833" stroke="currentColor" stroke-width="1.2" stroke-linecap="round" stroke-linejoin="round"/>
<path d="M234.325 83.3994L227.812 88.3686" stroke="currentColor" stroke-width="1.2" stroke-linecap="round" stroke-linejoin="round"/>
<path d="M227.247 143.372L225.347 139.663" stroke="currentColor" stroke-width="1.2" stroke-linecap="round" stroke-linejoin="round"/>
<path d="M223.004 143.573L229.353 138.893" stroke="currentColor" stroke-width="1.2" stroke-linecap="round" stroke-linejoin="round"/>
<path d="M174.881 54.2723L172.714 49.9382" stroke="currentColor" stroke-width="1.2" stroke-linecap="round" stroke-linejoin="round"/>
<path d="M171.403 53.3887L175.523 50.7925" stroke="currentColor" stroke-width="1.2" stroke-linecap="round" stroke-linejoin="round"/>
<path d="M232.96 53.8331L228.844 51.0149" stroke="currentColor" stroke-width="1.2" stroke-linecap="round" stroke-linejoin="round"/>
<path d="M231.721 50.4167L228.95 54.3491" stroke="currentColor" stroke-width="1.2" stroke-linecap="round" stroke-linejoin="round"/>
<path d="M83.8641 87.127C83.9439 88.6375 84.8034 90.1456 86.1843 90.7627C90.645 92.7559 93.8094 86.179 91.1694 82.9372C88.0563 79.1143 83.6559 83.1991 83.8641 87.127Z" stroke="currentColor" stroke-width="1.2" stroke-linecap="round" stroke-linejoin="round"/>
<path d="M105.527 111.704L103.124 108.251" stroke="currentColor" stroke-width="1.2" stroke-linecap="round" stroke-linejoin="round"/>
<path d="M102.291 111.701L106.41 108.454" stroke="currentColor" stroke-width="1.2" stroke-linecap="round" stroke-linejoin="round"/>
<path d="M62.8392 92.8564L58.9971 89.7505" stroke="currentColor" stroke-width="1.2" stroke-linecap="round" stroke-linejoin="round"/>
<path d="M58.9536 93.2811L61.5528 88.5129" stroke="currentColor" stroke-width="1.2" stroke-linecap="round" stroke-linejoin="round"/>
<path d="M57.3291 253.752C55.0818 251.78 53.2632 249.368 51.9861 246.665C50.7087 243.962 50.0001 241.025 49.9038 238.037" stroke="currentColor" stroke-width="1.2" stroke-linecap="round" stroke-linejoin="round"/>
<path d="M246.816 256.217C251.517 253.728 255.628 250.259 258.872 246.043C262.115 241.827 264.416 236.964 265.617 231.782" stroke="currentColor" stroke-width="1.2" stroke-linecap="round" stroke-linejoin="round"/>
<path d="M47.3132 157.53C46.4567 156.866 45.7649 156.013 45.2912 155.038C44.8178 154.063 44.5754 152.992 44.5832 151.908C44.5907 150.824 44.8481 149.756 45.3353 148.788C45.8225 147.82 46.5263 146.976 47.3921 146.324C48.9539 145.148 51.0095 144.611 52.2593 143.107C53.7356 141.331 53.6468 138.742 53.1893 136.477C52.5578 133.366 51.3842 130.389 49.7222 127.684" stroke="currentColor" stroke-width="1.2" stroke-linecap="round" stroke-linejoin="round"/>
<path d="M82.7613 141.786C79.9809 135.576 77.1948 129.348 75.1005 122.872C74.3256 120.477 73.6824 117.72 74.9742 115.558C75.3342 114.958 75.8964 114.407 76.5942 114.352C77.4882 114.282 78.2187 115.022 78.7842 115.717C84.1542 122.304 87.4173 130.317 90.5265 138.226" stroke="currentColor" stroke-width="1.2" stroke-linecap="round" stroke-linejoin="round"/>
<path d="M82.8877 141.767L90.3877 138.467" stroke="currentColor" stroke-width="1.2" stroke-linecap="round" stroke-linejoin="round"/>
<path d="M79.3237 126.097C79.6486 125.514 79.9273 125.258 80.4562 124.85C80.9101 124.475 81.6563 124.65 82.0163 125.116C82.181 125.361 82.2869 125.641 82.3253 125.933C82.3637 126.226 82.3337 126.524 82.2377 126.803C82.163 127.091 82.0301 127.361 81.8471 127.596C81.6644 127.832 81.4355 128.027 81.1745 128.171C80.9096 128.308 80.6096 128.361 80.3138 128.324C80.018 128.286 79.7405 128.16 79.5182 127.961C79.0472 127.49 79.0411 126.7 79.3237 126.097Z" stroke="currentColor" stroke-width="1.2" stroke-linecap="round" stroke-linejoin="round"/>
<path d="M79.2466 134.73C77.9359 136.861 77.218 139.303 77.167 141.804C77.1157 144.305 77.7337 146.775 78.9562 148.957C79.0114 147.5 79.3573 146.07 79.9738 144.748C80.5903 143.427 81.4645 142.243 82.5454 141.265" stroke="currentColor" stroke-width="1.2" stroke-linecap="round" stroke-linejoin="round"/>
<path d="M86.957 129.281C89.9366 128.423 93.2363 129.764 95.3657 132.019C97.4951 134.273 98.6225 137.295 99.3206 140.316C96.7457 138.493 93.6404 137.572 90.4877 137.695" stroke="currentColor" stroke-width="1.2" stroke-linecap="round" stroke-linejoin="round"/>
<path d="M90.3044 143.029C88.6829 143.579 87.1037 144.245 85.5791 145.024" stroke="currentColor" stroke-width="1.2" stroke-linecap="round" stroke-linejoin="round"/>
<path d="M85.611 144.852L85.3662 157.502L88.2393 151.491L92.0301 160.875L91.8417 152.421C93.7242 154.605 95.8395 156.577 98.1501 158.303L94.2705 151.579C96.7803 151.869 99.3231 151.604 101.719 150.803C99.3285 149.807 96.849 149.041 94.314 148.514L97.632 146.432C95.232 145.346 92.8374 144.249 90.4482 143.141" stroke="currentColor" stroke-width="1.2" stroke-linecap="round" stroke-linejoin="round"/>
<path d="M36.8447 160.875L49.9034 165.305L58.9967 140.409" stroke="currentColor" stroke-width="1.2" stroke-linecap="round" stroke-linejoin="round"/>
<path d="M62.8394 49.9383L80.7347 62.5068L82.3355 37.98L62.8394 49.9383Z" stroke="currentColor" stroke-width="1.2" stroke-linecap="round" stroke-linejoin="round"/>
<path d="M155.96 26.9684L160.502 14.3999L164.701 24.8015L155.96 26.9684Z" stroke="currentColor" stroke-width="1.2" stroke-linecap="round" stroke-linejoin="round"/>
<path d="M216.093 77.6758L216.944 85.9102L226.455 72.9163L239.575 80.9263" stroke="currentColor" stroke-width="1.2" stroke-linecap="round" stroke-linejoin="round"/>
<path d="M246.816 91.3035L256.216 98.9121L261.344 88.3687L246.816 91.3035Z" stroke="currentColor" stroke-width="1.2" stroke-linecap="round" stroke-linejoin="round"/>
<path d="M132.194 59.4693L115.798 37.98L99.3203 52.0905L110.928 72.2418L132.194 59.4693Z" stroke="currentColor" stroke-width="1.2" stroke-linecap="round" stroke-linejoin="round"/>
<path d="M106.41 55.111L118.558 47.086L114.613 43.6543L103.299 52.0906L106.41 55.111Z" stroke="currentColor" stroke-width="1.2" stroke-linecap="round" stroke-linejoin="round"/>
<path d="M108.789 57.8479L119.623 50.7925" stroke="currentColor" stroke-width="1.2" stroke-linecap="round" stroke-linejoin="round"/>
<path d="M111.605 60.9901L122.332 54.2725" stroke="currentColor" stroke-width="1.2" stroke-linecap="round" stroke-linejoin="round"/>
<path d="M113.664 64.8907L124.499 57.8479" stroke="currentColor" stroke-width="1.2" stroke-linecap="round" stroke-linejoin="round"/>
<path d="M119.975 155.579L115.798 145.071L124.499 145.024L119.975 155.579Z" stroke="currentColor" stroke-width="1.2" stroke-linecap="round" stroke-linejoin="round"/>
<path d="M187.828 58.3765C186.914 61.372 185.715 64.273 184.247 67.0396L190.633 70.5595L193.453 65.9914C193.99 65.1214 196.305 62.4646 196.201 61.4914C196.101 60.5503 193.404 59.8114 192.601 59.5249C191.056 58.9714 189.456 58.5865 187.828 58.3765Z" stroke="currentColor" stroke-width="1.2" stroke-linecap="round" stroke-linejoin="round"/>
<path d="M194.417 64.5468C192.353 62.8392 190.04 61.4574 187.558 60.4497" stroke="currentColor" stroke-width="0.8352" stroke-linecap="round" stroke-linejoin="round"/>
<path d="M192.099 67.3916L186.733 62.0315" stroke="currentColor" stroke-width="0.8352" stroke-linecap="round" stroke-linejoin="round"/>
<path d="M190.854 69.6209C189.01 67.9976 187.308 66.2207 185.765 64.3091" stroke="currentColor" stroke-width="0.8352" stroke-linecap="round" stroke-linejoin="round"/>
<path d="M216.905 40.1404L220.159 39.0664" stroke="currentColor" stroke-width="0.8352" stroke-linecap="round" stroke-linejoin="round"/>
<path d="M210.648 32.3913L214.102 24.4114V25.0198" stroke="currentColor" stroke-width="0.8352" stroke-linecap="round" stroke-linejoin="round"/>
<path d="M197.439 30.6523C197.435 29.7127 197.119 28.8009 196.541 28.0601" stroke="currentColor" stroke-width="1.2" stroke-linecap="round" stroke-linejoin="round"/>
<path d="M187.666 36.5031L183.116 33.4695" stroke="currentColor" stroke-width="1.2" stroke-linecap="round" stroke-linejoin="round"/>
<path d="M186.367 46.9067L183.766 47.3399" stroke="currentColor" stroke-width="1.2" stroke-linecap="round" stroke-linejoin="round"/>
<path d="M216.896 48.4792L222.227 50.7751" stroke="currentColor" stroke-width="0.8352" stroke-linecap="round" stroke-linejoin="round"/>
<path d="M210.348 54.7368L210.993 56.256" stroke="currentColor" stroke-width="1.2" stroke-linecap="round" stroke-linejoin="round"/>
<path d="M204.352 58.1731L204.315 65.9407C204.28 65.9626 204.24 65.9749 204.198 65.9764C204.157 65.9782 204.116 65.9692 204.079 65.9503C204.043 65.9314 204.011 65.9032 203.988 65.8687C203.965 65.8342 203.952 65.7946 203.949 65.7532" stroke="currentColor" stroke-width="1.2" stroke-linecap="round" stroke-linejoin="round"/>
<path fill-rule="evenodd" clip-rule="evenodd" d="M146.829 110.614C148.733 109.023 151.366 108.719 153.838 108.532C161.461 107.956 169.112 107.847 176.748 108.207L176.721 108.781L176.723 108.822C177.133 114.697 177.545 120.61 176.951 126.466L177.251 126.5C179.366 129.232 184.203 129.926 186.746 127.587C189.29 125.248 189.288 120.698 186.74 118.365C188.788 117.737 190.702 116.454 191.767 114.597C192.832 112.739 192.937 110.271 191.746 108.491C190.554 106.71 188 105.875 186.106 106.879C187.831 105.752 189.577 104.607 190.968 103.085C192.359 101.562 193.384 99.5948 193.354 97.5347C193.323 95.4746 192.058 93.3656 190.087 92.7578C189.396 92.5676 188.665 92.5724 187.977 92.7716C187.288 92.9711 186.668 93.3575 186.185 93.8876C186.707 92.4719 186.774 90.9284 186.376 89.4731C185.777 87.4622 183.96 85.7678 181.863 85.6604C180.989 85.6355 180.129 85.8884 179.408 86.3825C178.687 86.8766 178.14 87.5867 177.848 88.4108C177.925 85.7033 175.46 83.0201 172.688 83.1584C169.571 83.318 167.199 86.9987 168.341 89.903C166.735 87.9608 164.949 86.0882 162.683 84.983C160.417 83.8778 157.587 83.66 155.441 84.977C153.295 86.294 152.23 89.3792 153.584 91.5065C151.364 89.333 148.636 87.5462 145.572 87.0644C142.508 86.5826 139.088 87.614 137.277 90.1313C135.465 92.6486 135.797 96.6518 138.345 98.42C134.664 97.9043 130.818 100.557 129.992 104.182C129.165 107.808 131.489 111.866 135.032 112.99C132.613 115.212 130.2 117.705 129.368 120.885C128.536 124.066 129.914 128.047 133.058 129.002C130.672 131.621 131.105 136.275 133.93 138.408C136.754 140.542 141.346 139.688 143.213 136.68L143.584 136.686C143.656 131.277 143.728 125.868 143.802 120.459C143.848 116.91 144.109 112.891 146.829 110.614ZM177.698 89.4272C177.788 89.0957 177.839 88.7543 177.848 88.4108C177.741 88.7387 177.69 89.0822 177.698 89.4272ZM185.43 95.5268C185.735 95.0066 185.988 94.4576 186.185 93.8876C185.768 94.3412 185.503 94.9145 185.43 95.5268ZM179.375 89.0711C179.145 88.9634 178.871 89.0633 178.763 89.2937C178.656 89.5241 178.755 89.798 178.986 89.9057C181.674 91.1603 183.034 94.7321 181.86 97.457C181.773 97.6595 181.841 97.8953 182.023 98.0195C182.206 98.1437 182.451 98.1212 182.607 97.9661C183.664 96.9182 185.65 97.0151 186.764 98.1107C187.874 99.2015 188.124 101.058 187.495 102.554C186.868 104.047 185.482 105.179 183.903 105.754C183.664 105.841 183.541 106.105 183.628 106.344C183.715 106.583 183.979 106.706 184.218 106.619C185.978 105.979 187.596 104.693 188.345 102.91C189.093 101.13 188.834 98.8535 187.41 97.4537C186.309 96.3722 184.52 96.008 183.088 96.5771C183.656 93.6437 182.118 90.3509 179.375 89.0711Z" fill="currentColor"/>
<g opacity="0.1">
<path d="M135.886 166.454C119.404 166.459 102.87 171.37 88.5935 179.511C75.6452 186.894 63.8051 197.495 58.4168 211.718C55.7012 218.888 54.7802 226.719 56.1023 234.281C57.4292 241.869 61.3694 248.688 66.9143 253.984C77.7527 264.336 92.8145 270.173 107.499 272.104C115.833 273.186 124.285 272.984 132.558 271.504C136.641 270.785 140.659 269.733 144.571 268.359C148.513 266.97 152.596 265.414 156.001 262.962C157.011 262.235 157.557 261.048 157.025 259.837C156.568 258.797 155.249 257.923 154.072 258.387C150.82 259.671 147.715 261.271 144.436 262.493C134.772 266.093 124.47 267.664 114.172 267.107C100.466 266.425 86.8304 261.991 75.6635 253.945C70.0616 249.908 65.1065 244.54 62.8007 237.931C60.5696 231.537 60.4007 224.355 62.0243 217.797C65.3996 204.165 75.7601 193.549 87.2594 186.122C101.875 176.681 118.649 171.578 135.886 169.856C138.021 169.642 138.121 166.451 135.886 166.452L135.886 166.454Z" fill="currentColor"/>
</g>
<g opacity="0.1">
<path d="M215.969 223.642C216.798 219.136 216.904 214.387 217.243 209.822L217.743 203.072C217.914 200.769 218.423 198.226 217.977 195.953C217.471 193.366 213.913 193.818 213.177 195.953C212.469 198.007 212.675 200.614 212.536 202.778L212.101 209.528C211.815 213.972 211.248 218.579 211.443 223.028C211.551 225.491 215.477 226.319 215.969 223.641L215.969 223.642Z" fill="currentColor"/>
</g>
<g opacity="0.1">
<path d="M155.023 264.437C155.653 265.468 156.097 266.224 157.21 266.833C158.435 267.504 159.803 267.902 161.131 268.31C163.457 269.024 165.813 269.644 168.198 270.126C173.129 271.124 178.135 271.711 183.163 271.882C193.243 272.253 203.304 270.752 212.836 267.454C218.094 265.614 223.246 263.515 227.359 259.667C227.915 259.147 227.329 258.287 226.648 258.445C222.09 259.495 217.793 261.24 213.32 262.585C208.727 263.949 204.036 264.957 199.288 265.602C190.063 266.879 180.553 266.852 171.384 265.174C168.827 264.706 166.281 264.141 163.771 263.469C162.475 263.122 161.2 262.678 159.897 262.371C159.202 262.184 158.49 262.075 157.772 262.044C157.035 262.04 156.461 262.361 155.779 262.576C155.594 262.63 155.423 262.726 155.279 262.855C155.136 262.984 155.024 263.145 154.951 263.323C154.878 263.502 154.847 263.695 154.859 263.888C154.872 264.081 154.927 264.268 155.023 264.436L155.023 264.437Z" fill="currentColor"/>
</g>
<defs>
<linearGradient id="paint0_linear_28_12819" x1="205.6" y1="158.367" x2="205.6" y2="272.365" gradientUnits="userSpaceOnUse">
<stop stop-color="#FF9A34"/>
<stop offset="1" stop-color="#EB6421"/>
</linearGradient>
<linearGradient id="paint1_linear_28_12819" x1="185.638" y1="196.085" x2="185.638" y2="214.978" gradientUnits="userSpaceOnUse">
<stop stop-color="#FF9A34"/>
<stop offset="1" stop-color="#EB6421"/>
</linearGradient>
<linearGradient id="paint2_linear_28_12819" x1="116.009" y1="158.236" x2="116.009" y2="273.529" gradientUnits="userSpaceOnUse">
<stop stop-color="#FF9A34"/>
<stop offset="1" stop-color="#EB6421"/>
</linearGradient>
</defs>
</svg>
