<svg xmlns="http://www.w3.org/2000/svg" width="960" height="960" fill="none"><path fill="url(#a)" fill-rule="evenodd" d="m699.443 750.441-94.051 4.881-.025-.388c7.296-18.287 25.794-31.549 45.455-32.572 19.661-1.023 39.442 10.233 48.6 27.66l.021.419Zm-112.676 5.85c-17.683 45.945-36.215 91.765-75.775 121.065a117.485 117.485 0 0 1-4.001 2.839l.808 1.177c73.923 35.099 166.111 35.958 239.093-1.064 50.946-25.852 94.25-70.09 110.418-124.888 16.168-54.798 1.402-119.726-42.681-156.083-28.758-23.72-66.323-33.657-103.1-39.735a600.776 600.776 0 0 0-120.933-8.258l-.44-.358v-.287l-.819-.01a248.12 248.12 0 0 0-30.289 45.138c-5.792-23.004-11.696-46.294-23.116-67.087l.01-.256c-6.15-.191-12.3-.389-18.45-.594l-.031.86a3750.992 3750.992 0 0 1 4.6 230.016l.051.89 64.655-3.365Zm3.796-102.674-.01.232c-1.3 9.4-2.6 18.91-1.75 28.365.85 9.455 4.022 19 10.6 25.849 6.578 6.849 16.936 10.468 25.941 7.46 5.638-1.883 10.284-6.14 13.518-11.134 3.234-4.994 5.167-10.724 6.62-16.485a117.659 117.659 0 0 0 3.5-32.909l-.675.02c-1.79-.042-3.579-.086-5.367-.13-1.74-.043-3.478-.086-5.214-.126.286-3.417.532-6.856.737-10.284a12.699 12.699 0 0 0-.369-4.983 4.423 4.423 0 0 0-3.592-3.121c-2.435-.164-4.175 2.312-5.055 4.594a26.484 26.484 0 0 0-1.565 12.73l-.021.819c-12.433-.294-24.866-.593-37.298-.897Zm171.626-71.147a1.535 1.535 0 0 0-1.083 2.873c38.027 14.324 68.41 47.572 79.262 86.734 10.852 39.162 1.911 83.306-23.324 115.159a1.535 1.535 0 0 0 2.407 1.906c25.843-32.621 34.99-77.778 23.876-117.885-11.114-40.106-42.195-74.117-81.138-88.787Z" clip-rule="evenodd"/><path fill="url(#b)" d="M637.723 654.763c3.52.082 7.05.174 10.581.256l.675-.02c.39 11.08-.789 22.159-3.5 32.909-1.453 5.761-3.387 11.491-6.62 16.485s-7.88 9.251-13.518 11.134c-9 3.008-19.361-.614-25.941-7.46-6.58-6.846-9.762-16.393-10.6-25.849-.838-9.456.45-18.961 1.75-28.365l.01-.236c12.433.297 24.866.597 37.3.9l9.863.246Z"/><path fill="#171717" d="M627.88 653.699a26.46 26.46 0 0 1 1.565-12.73c.88-2.282 2.62-4.758 5.055-4.594a4.424 4.424 0 0 1 3.592 3.121c.451 1.62.576 3.314.369 4.983-.2 3.428-.451 6.867-.737 10.284l-9.865-.245.021-.819ZM589.341 550.684a248.12 248.12 0 0 0-30.289 45.138c-5.792-23-11.699-46.294-23.115-67.087l.01-.256c2.916.1 5.843.194 8.759.286l18.01.584c7.02.235 14.459.593 20.25 4.563 5.741 3.93 7.287 6.539 7.195 16.782l-.82-.01ZM463.651 565.512c-6.477-5.731-14.408-10.162-23-11.052l-.123.031c-2.579-9.537 4.431-19.7 13.415-23.945 7.327-3.469 15.565-3.991 23.741-3.9 2.016.021 4.021.082 6.006.143 6.877.225 13.75.446 20.62.665l-.01.307c-9.885 18.215-16.854 37.852-23.782 57.4-5.17-6.94-10.379-13.929-16.867-19.649Z"/><path fill="url(#c)" d="M430.159 813.323a10.04 10.04 0 0 0 4.84 7.224c3.285 1.75 7.46 1.023 10.642-.921 3.182-1.944 5.567-4.912 7.818-7.869 10.1-13.231 19.044-27.455 25.286-42.876a49.215 49.215 0 0 0 2.343-7.1c1.269-5.331 1.331-10.816-1.719-15.185-3.8-5.424-11-7.051-17.549-7.982-18.123-2.568-36.747-3-54.6 1.013s-36.32 14.029-48.569 27.629l.041.88 36.5-1.893c-4.554 9.158-9.108 18.32-13.661 27.486-1.494 3.018-3.019 6.1-3.479 9.434-.46 3.334.338 7.041 2.845 9.292 2.486 2.231 6.221 2.62 9.475 1.832 3.254-.788 6.161-2.61 9-4.4l1.064.348a8.951 8.951 0 0 0-.327 4.718c1.054 4.359 6.252 6.3 10.734 6.3a25.275 25.275 0 0 0 18.1-7.685l1.216-.245Zm-237.732-14.234c-13.016-42.068-3.243-89.272 20.61-126.285 23.853-37.013 60.609-64.478 100.661-82.774 40.052-18.296 80.472-34.24 126.96-35.089-.041-.153-.092-.3-.133-.45l.123-.031c8.6.89 16.526 5.321 23 11.052s11.7 12.709 16.864 19.647c6.928-19.545 13.9-39.182 23.782-57.4l.01-.307c4.4.154 8.79.287 13.19.43l-.031.86a3759.65 3759.65 0 0 1 4.6 230.016l.051.89 64.652-3.356c-17.685 45.948-36.217 91.772-75.774 121.064-1.32.973-2.65 1.924-4 2.835-28.356 19.432-63.373 27.353-97.725 30.279-43.817 3.735-89.108-.133-129.242-18.1-40.134-17.967-74.602-51.275-87.598-93.281Z"/><path stroke="#171717" stroke-linecap="round" stroke-linejoin="round" stroke-width="4" d="M523.738 450.504c4.718-.8 9.432-1.605 14.142-2.415-.675-18.286-1.357-36.575-2.047-54.869-.143-3.8.031-8.248 3.132-10.427 1.985-1.392 4.605-1.382 7.04-1.321 9.425.246 18.846.495 28.263.747"/><path stroke="#171717" stroke-linecap="round" stroke-linejoin="round" stroke-width="3.07" d="M556.208 405.556v-9.4M509.73 403.402l-.552-8.678M521.406 473.692a16.56 16.56 0 0 1-18.921-23.9"/><path stroke="#171717" stroke-linecap="round" stroke-linejoin="round" stroke-width="4" d="m477.691 524.723.921-69.1c.246-18.03.488-36.061.726-54.091.154-11.829 1.024-25.224 10.09-32.817 6.345-5.3 15.124-6.314 23.362-6.938a623.534 623.534 0 0 1 76.368-1.085l3.172.154"/><path stroke="#171717" stroke-linecap="round" stroke-linejoin="round" stroke-width="4" d="M544.736 527.803c-2.753-8.769.5-18.409 5.638-26.032 5.138-7.623 12.024-13.866 17.734-21.06 12.73-16.055 19.115-36.388 21.469-56.741.092-.809.184-1.607.256-2.415 1.985-19.566.6-39.325-.768-58.952"/><path stroke="#171717" stroke-linecap="round" stroke-linejoin="round" stroke-width="3.07" d="M620.614 312.963a12.944 12.944 0 0 1 13.006-3.766c6.57 2.026 10.786 9.056 10.888 15.923.102 6.867-3.315 13.425-7.951 18.5-4.636 5.075-10.458 8.892-16.209 12.648 6.314-3.346 14.828-.563 18.8 5.372 3.972 5.935 3.623 14.162.072 20.353-3.551 6.191-9.928 10.463-16.754 12.557 8.494 7.777 8.5 22.942.021 30.74-8.479 7.798-24.6 5.485-31.651-3.623M620.614 312.963c-.656 1.9-1.5 3.73-2.517 5.464a9.79 9.79 0 0 1 2.517-5.464ZM592.821 294.707a13.788 13.788 0 0 1 13.384-9.168c6.989.358 13.047 6.006 15.043 12.709a24.131 24.131 0 0 1-.635 14.715"/><path stroke="#171717" stroke-linecap="round" stroke-linejoin="round" stroke-width="3.07" d="M592.822 294.707a14.272 14.272 0 0 1-.5 3.388 10.173 10.173 0 0 1 .5-3.388v0ZM477.374 455.6c-6.222 10.028-21.53 12.873-30.945 5.761-9.415-7.112-10.857-22.625-2.906-31.354-10.478-3.182-15.073-16.454-12.3-27.056 2.773-10.602 10.816-18.91 18.88-26.319-11.809-3.745-19.555-17.273-16.8-29.358 2.755-12.085 15.575-20.926 27.844-19.207-8.493-5.894-9.6-19.238-3.561-27.629 6.039-8.391 17.437-11.829 27.65-10.223 10.213 1.606 19.309 7.562 26.708 14.807-4.513-7.091-.962-17.375 6.19-21.765 7.152-4.39 16.588-3.664 24.14.02s13.507 9.926 18.859 16.4c-3.806-9.681 4.1-21.95 14.49-22.482 9.24-.461 17.457 8.483 17.2 17.508"/><path stroke="#171717" stroke-linecap="round" stroke-linejoin="round" stroke-width="4" d="M590.16 550.981v-.287c.092-10.243-1.453-12.852-7.194-16.782-5.791-3.97-13.231-4.328-20.251-4.563l-18.01-.584c-2.916-.092-5.843-.184-8.759-.286-6.15-.195-12.3-.393-18.45-.594-4.4-.143-8.79-.276-13.19-.43-6.877-.214-13.75-.435-20.62-.665-1.985-.061-3.99-.122-6.006-.143-8.176-.092-16.414.43-23.741 3.9-8.984 4.247-15.994 14.408-13.415 23.945.041.153.092.3.133.45-46.488.849-86.9 16.782-126.96 35.089-40.06 18.307-76.806 45.75-100.661 82.773-23.855 37.023-33.626 84.217-20.61 126.285 13 42.006 47.461 75.324 87.594 93.283 40.133 17.959 85.425 21.837 129.242 18.1 34.352-2.926 69.369-10.847 97.725-30.279a115.988 115.988 0 0 0 4-2.835c39.56-29.3 58.092-75.12 75.775-121.065"/><path stroke="#171717" stroke-linecap="round" stroke-linejoin="round" stroke-width="4" d="M590.601 551.339a600.86 600.86 0 0 1 120.933 8.258c36.777 6.078 74.342 16.015 103.1 39.735 44.083 36.357 58.849 101.285 42.681 156.083s-59.477 99.041-110.423 124.893c-72.982 37.022-165.17 36.163-239.093 1.064"/><path stroke="#171717" stroke-linecap="round" stroke-linejoin="round" stroke-width="4" d="M481.077 761.779h.01l41.024-2.128 64.652-3.356 18.624-.973 94.051-4.881 6.538-.337 4.329-100.171M349.625 670.646l-5.301 98.236 14.367-.747 36.501-1.893"/><path stroke="#171717" stroke-linecap="round" stroke-linejoin="round" stroke-width="4" d="M358.65 767.256c12.249-13.6 30.709-23.618 48.566-27.629 17.857-4.011 36.48-3.581 54.6-1.013 6.549.931 13.753 2.558 17.549 7.982 3.05 4.369 2.988 9.854 1.719 15.185a49.215 49.215 0 0 1-2.343 7.1c-6.242 15.421-15.186 29.645-25.286 42.876-2.251 2.957-4.645 5.935-7.818 7.869-3.173 1.934-7.357 2.671-10.642.921a10.048 10.048 0 0 1-4.84-7.224 13.377 13.377 0 0 1-.184-3.715c.368-4.236 2.364-8.135 4.328-11.911 6.631-12.8 13.269-25.605 19.914-38.414"/><path stroke="#171717" stroke-linecap="round" stroke-linejoin="round" stroke-width="4" d="M428.941 813.568a25.298 25.298 0 0 1-18.1 7.685c-4.482 0-9.68-1.944-10.734-6.3a8.95 8.95 0 0 1 .327-4.718c.315-.994.682-1.971 1.1-2.926a429.83 429.83 0 0 1 24.682-49.507M399.367 809.884c-2.834 1.791-5.741 3.6-9 4.4-3.259.8-6.988.4-9.474-1.832-2.507-2.251-3.3-5.945-2.845-9.292.455-3.347 1.984-6.416 3.478-9.434a88064.87 88064.87 0 0 0 13.661-27.486c1.392-2.794 2.774-5.577 4.166-8.371M605.366 754.934c7.3-18.287 25.8-31.538 45.455-32.572 19.655-1.034 39.438 10.233 48.6 27.66"/><path stroke="#171717" stroke-linecap="round" stroke-linejoin="round" stroke-width="3.07" d="M440.647 554.456c8.6.89 16.526 5.321 23 11.052s11.7 12.709 16.864 19.647c6.928-19.545 13.9-39.182 23.782-57.4M535.937 528.735c11.42 20.793 17.323 44.083 23.115 67.087a248.154 248.154 0 0 1 30.289-45.138"/><path stroke="#171717" stroke-linecap="round" stroke-linejoin="round" stroke-width="4" d="M517.466 528.745a3760.45 3760.45 0 0 1 4.6 230.016"/><path stroke="#171717" stroke-linecap="round" stroke-linejoin="round" stroke-width="3.07" d="M590.55 653.856c-1.3 9.4-2.6 18.91-1.75 28.365.85 9.455 4.022 19 10.6 25.849 6.578 6.849 16.936 10.468 25.941 7.46 5.638-1.883 10.284-6.14 13.518-11.134 3.234-4.994 5.167-10.724 6.62-16.485a117.655 117.655 0 0 0 3.5-32.909c0-.082-.01-.164-.01-.246"/><path stroke="#171717" stroke-linecap="round" stroke-linejoin="round" stroke-width="3.07" d="m589.444 653.587 1.115.03c12.433.297 24.866.597 37.3.9l9.865.245c3.52.082 7.05.174 10.581.256"/><path stroke="#171717" stroke-linecap="round" stroke-linejoin="round" stroke-width="4" d="M633.456 689.422a446.929 446.929 0 0 0 4.268-34.659c.286-3.417.532-6.856.737-10.284a12.736 12.736 0 0 0-.369-4.983 4.418 4.418 0 0 0-3.592-3.121c-2.435-.164-4.175 2.312-5.055 4.594a26.46 26.46 0 0 0-1.565 12.73c.317-.1.634-.194.951-.3"/><path stroke="#171717" stroke-linecap="round" stroke-linejoin="round" stroke-width="2.784" d="m794.092 700.496 11.074-9.633M803.96 701.171l-7.851-10.367M684.276 663.015a20.321 20.321 0 0 1-9.107-6.828M674.73 664.431l8.172-10.125M562.026 624.935l11.256-10.521-.693.368"/><path stroke="#171717" stroke-linecap="round" stroke-linejoin="round" stroke-width="2.784" d="M570.176 627.305a32.41 32.41 0 0 0-7.223-12.039M463.685 692.279a17.458 17.458 0 0 1 6.824-7.167M469.436 693.348l-5.893-8.1M377.007 621.498a49.266 49.266 0 0 1 10.072-15.486M385.991 619.824l-11.708-11.4M319.237 741.005l-7.209-6.756M309.657 744.803l9.15-12.521M315.437 862.301a39.973 39.973 0 0 1-9.631 11.557M314.132 873.276l-6.082-8.449M507.692 818.406l-6.441-10.1a.375.375 0 0 1 .406.15.372.372 0 0 1-.195.565.37.37 0 0 1-.413-.133.369.369 0 0 1-.073-.215M498.514 818.086l9.133-9.166M677.536 810.803l-7.2-6.77M669.857 812.701l6.741-8.186M258.992 690.485l-9.388-6.867M250.353 692.701l6.45-11.586M795.951 805.775l-7.825-10.205M785.872 806.013a68.76 68.76 0 0 0 12.71-9.653M723.31 596.004l6.741-10.594M730.52 595.056l-10.211-8.552"/><path stroke="#171717" stroke-linecap="round" stroke-linejoin="round" stroke-width="4" d="M63.297 471.032c-15.534 41.924-25.944 86.55-22.705 131.14.972 13.39 3.269 26.991 9.739 38.754 6.47 11.763 17.709 21.513 31 23.412 13.29 1.899 28.112-5.7 31.966-18.562 3.854-12.862-6.665-28.655-20.07-27.914-10.261.567-18.49 9.9-20.538 19.971-2.05 10.071.9 20.523 5.183 29.866 5.625 12.279 13.515 23.375 19.869 35.293 6.354 11.918 11.246 25.2 10.083 38.657-1.163 13.457-9.671 26.951-22.681 30.579-13.01 3.628-29.035-6.136-28.951-19.642M915.491 341.223c-1.194 33.4-2.736 68.141-18.554 97.579-4.5 8.365-10.3 16.351-18.409 21.3-8.109 4.949-18.866 6.33-27.1 1.595-8.234-4.735-12.37-16.394-7.317-24.434 5.7-9.074 20.093-9.237 28.238-2.274s10.86 18.549 10.375 29.254c-.647 14.275-6.042 27.851-11.382 41.1-5.34 13.249-10.766 26.813-11.483 41.083-.717 14.27 4.145 29.647 15.794 37.922 11.649 8.275 30.5 6.358 37.535-6.08 7.035-12.438-5.1-31.549-18.91-27.889a19.167 19.167 0 0 0-9.8 6.637c-7.55 9.357-6.159 24.639 2.958 32.479s24.434 6.928 32.556-1.938M509.049 243.056l-10.925-89.646"/><path stroke="#171717" stroke-linecap="round" stroke-linejoin="round" stroke-width="2.784" d="M473.613 251.047a107.889 107.889 0 0 1-25.473-18.191"/><path stroke="#171717" stroke-linecap="round" stroke-linejoin="round" stroke-width="4" d="m540.906 240.806 7.251-18.047M627.647 193.47c9.233-3.812 10.83-16.4 8.555-26.123-2.275-9.723-6.972-19.448-5.02-29.244 2.044-10.262 11.047-17.822 20.621-22.043 10.5-4.626 22.518-6.219 33.6-3.249s21.02 10.782 25.444 21.364c4.424 10.582 2.709 23.768-5.132 32.138-7.457 7.959-18.751 10.654-28.925 14.583-10.174 3.929-20.817 10.908-22.355 21.706"/><path stroke="#171717" stroke-linecap="round" stroke-linejoin="round" stroke-width="4" d="M661.67 180.908a51.444 51.444 0 0 0 10.363-19.59c-2.564 2.079-6.253 4.21-8.871 2.2-2.569-1.973-1.562-6-.314-8.99a5.694 5.694 0 0 1-5.067 4.373 5.68 5.68 0 0 1-4.373-1.53 5.7 5.7 0 0 1-1.783-4.276 5.677 5.677 0 0 1 .549-2.303l-4.761 22.1M726.792 427.056c23.279-11.031 44.888-21.438 66.508-35.443a19.637 19.637 0 0 0 5.727-4.882c1.445-2.071 2.022-4.949.755-7.133-1.258-2.168-3.932-3.086-6.428-3.31-6.685-.6-13.091 2.49-19.054 5.573-17.4 8.996-34.806 17.433-51.508 27.695M721.916 410.165l-18.849 18.453 23.609-1.462M717.292 427.556l-4-8M783.006 396.889l-5.788-15.888M756.291 286.367l-2.885-16.611M746.869 280.504l15.178-6.477M771.465 273.366l1.839 10.617-.538-3.372M781.083 277.998l-21.708 16.564M757.491 477.908l-6.334-12.364M743.346 478.577l21.164-15.6M582.938 180.908l-7.223-14.447M571.345 177.962l13.733-8.654M776.534 179.444l-13.722-9.394M772.405 168.056l-9.239 13.108M279.546 290.423c.266 5.035 3.131 10.062 7.734 12.119 14.869 6.644 25.417-15.279 16.617-26.085-10.377-12.743-25.045.873-24.351 13.966ZM351.758 372.348l-8.013-11.51M340.969 372.337l13.733-10.825M209.463 309.521l-12.807-10.353M196.513 310.937l8.664-15.894M191.097 845.84a72.81 72.81 0 0 1-24.751-52.384M822.72 854.056a123.789 123.789 0 0 0 62.67-81.448M157.711 525.101a23.51 23.51 0 0 1 .263-37.354c5.206-3.922 12.058-5.712 16.224-10.724 4.921-5.921 4.625-14.551 3.1-22.1a90.302 90.302 0 0 0-11.557-29.309M275.871 472.619c-9.268-20.7-18.555-41.46-25.536-63.045-2.583-7.985-4.727-17.176-.421-24.38 1.2-2 3.074-3.839 5.4-4.021 2.98-.233 5.415 2.233 7.3 4.55 17.9 21.957 28.777 48.666 39.141 75.03M276.292 472.556l25-11"/><path stroke="#171717" stroke-linecap="round" stroke-linejoin="round" stroke-width="4" d="M264.413 420.323c1.083-1.944 2.012-2.797 3.775-4.156 1.513-1.252 4-.668 5.2.886a6.37 6.37 0 0 1 .738 5.623 7.281 7.281 0 0 1-1.302 2.645 7.28 7.28 0 0 1-2.242 1.915 4.9 4.9 0 0 1-5.521-.7c-1.57-1.568-1.59-4.203-.648-6.213ZM264.155 449.102a46.822 46.822 0 0 0-.968 47.422 36.437 36.437 0 0 1 11.964-25.639M289.856 430.936c9.932-2.859 20.931 1.612 28.029 9.126 7.098 7.514 10.856 17.588 13.183 27.658a47.718 47.718 0 0 0-29.443-8.736M301.015 476.765a117.486 117.486 0 0 0-15.751 6.648"/><path stroke="#171717" stroke-linecap="round" stroke-linejoin="round" stroke-width="4" d="m285.37 482.84-.816 42.168 9.577-20.037 12.636 31.28-.628-28.181a132.124 132.124 0 0 0 21.028 19.605l-12.932-22.411a57.493 57.493 0 0 0 24.829-2.589 136.686 136.686 0 0 0-24.684-7.63l11.06-6.938c-8-3.62-15.982-7.277-23.946-10.97M122.816 536.251l43.529 14.764 30.311-82.985M209.464 166.461l59.651 41.895 5.336-81.756-64.987 39.861ZM519.867 89.895 535.008 48l13.996 34.672-29.137 7.223ZM720.309 258.919l2.839 27.448 31.703-43.313 43.731 26.7M822.72 304.345l31.335 25.362 17.091-35.145-48.426 9.783ZM440.646 198.231 385.993 126.6l-54.925 47.035 38.693 67.171 70.885-42.575Z"/><path stroke="#171717" stroke-linecap="round" stroke-linejoin="round" stroke-width="4" d="m354.701 183.703 40.492-26.75-13.151-11.439-37.713 28.121 10.372 10.068ZM362.629 192.826l36.116-23.518M372.019 203.3l35.755-22.392M378.881 216.302l36.116-23.476M399.917 518.595l-13.924-35.026 29.003-.156-15.079 35.182ZM626.091 194.588a163.302 163.302 0 0 1-11.935 28.877l21.285 11.733 9.4-15.227c1.79-2.9 9.508-11.756 9.162-15-.335-3.137-9.325-5.6-12-6.555a76.025 76.025 0 0 0-15.912-3.828v0Z"/><path stroke="#171717" stroke-linecap="round" stroke-linejoin="round" stroke-width="2.784" d="M648.057 215.156a87.498 87.498 0 0 0-22.866-13.657M640.331 224.639l-17.888-17.867M636.18 232.07a144.457 144.457 0 0 1-16.962-17.706M723.017 133.801l10.846-3.58M702.162 107.971l11.513-26.6V83.4"/><path stroke="#171717" stroke-linecap="round" stroke-linejoin="round" stroke-width="4" d="M658.13 102.174a14.141 14.141 0 0 0-2.993-8.64M625.555 121.677l-15.169-10.112M621.222 156.356l-8.668 1.444"/><path stroke="#171717" stroke-linecap="round" stroke-linejoin="round" stroke-width="2.784" d="m722.985 161.597 17.773 7.653"/><path stroke="#171717" stroke-linecap="round" stroke-linejoin="round" stroke-width="4" d="m701.16 182.456 2.148 5.064M681.173 193.91l-.123 25.892a.795.795 0 0 1-1.219-.625"/><path fill="#171717" fill-rule="evenodd" d="M489.431 368.712c6.345-5.301 15.124-6.314 23.362-6.938a623.528 623.528 0 0 1 76.368-1.085l-.092 1.914.009.137c1.365 19.582 2.739 39.294.759 58.815l1 .112c7.051 9.108 23.172 11.421 31.651 3.623 8.479-7.798 8.473-22.963-.021-30.74 6.826-2.094 13.206-6.37 16.757-12.561 3.551-6.191 3.9-14.418-.072-20.353-3.972-5.935-12.486-8.718-18.8-5.372 5.751-3.756 11.573-7.573 16.209-12.648 4.636-5.075 8.053-11.633 7.951-18.5-.102-6.867-4.318-13.897-10.888-15.923a12.942 12.942 0 0 0-13.006 3.766 24.146 24.146 0 0 0 .635-14.715c-1.996-6.703-8.054-12.351-15.043-12.709a13.79 13.79 0 0 0-13.384 9.168c.257-9.025-7.96-17.969-17.2-17.508-10.39.532-18.296 12.801-14.49 22.482-5.352-6.474-11.307-12.716-18.859-16.4-7.552-3.684-16.988-4.41-24.14-.02-7.152 4.39-10.703 14.674-6.19 21.765-7.399-7.245-16.495-13.201-26.708-14.807-10.213-1.606-21.611 1.832-27.65 10.223-6.039 8.391-4.932 21.735 3.561 27.629-12.269-1.719-25.089 7.122-27.844 19.207-2.755 12.085 4.991 25.613 16.8 29.358-8.064 7.409-16.107 15.717-18.88 26.319-2.773 10.602 1.822 23.874 12.3 27.056-7.951 8.729-6.509 24.242 2.906 31.354 9.415 7.112 24.723 4.267 30.945-5.761l1.238.02c.238-18.031.48-36.061.726-54.091.154-11.829 1.024-25.224 10.09-32.817Zm102.895-70.621c.302-1.105.47-2.243.5-3.388a10.169 10.169 0 0 0-.5 3.388Zm25.775 20.332a30.505 30.505 0 0 0 2.517-5.464 9.78 9.78 0 0 0-2.517 5.464Zm-20.183-21.519a1.534 1.534 0 1 0-1.299 2.782c8.962 4.182 13.494 16.088 9.581 25.171a1.534 1.534 0 0 0 2.491 1.697c3.521-3.493 10.141-3.17 13.857.482 3.699 3.636 4.532 9.825 2.437 14.81-2.091 4.978-6.713 8.752-11.975 10.667a1.535 1.535 0 0 0 1.049 2.885c5.868-2.135 11.26-6.42 13.757-12.363 2.493-5.935 1.63-13.523-3.116-18.189-3.669-3.605-9.634-4.819-14.407-2.922 1.895-9.778-3.233-20.754-12.375-25.02Z" clip-rule="evenodd"/><path fill="#171717" d="M452.957 554.845c-54.942.018-110.055 16.389-157.643 43.525-43.161 24.611-82.628 59.948-100.589 107.356-9.052 23.9-12.122 50.005-7.715 75.212 4.423 25.291 17.557 48.022 36.04 65.676 36.128 34.506 86.334 53.964 135.281 60.4a274.118 274.118 0 0 0 83.531-2 253.532 253.532 0 0 0 40.043-10.485c13.14-4.628 26.75-9.816 38.1-17.988 3.367-2.424 5.188-6.383 3.414-10.419-1.523-3.465-5.921-6.379-9.843-4.831-10.84 4.277-21.191 9.611-32.121 13.684a250.229 250.229 0 0 1-100.88 15.38c-45.687-2.271-91.138-17.051-128.361-43.872-18.673-13.455-35.19-31.351-42.876-53.381-7.437-21.312-8-45.254-2.588-67.111 11.251-45.442 45.786-80.827 84.117-105.585 48.719-31.469 104.632-48.478 162.088-54.221 7.116-.712 7.45-11.347 0-11.344l.002.004ZM719.897 745.473c2.762-15.02 3.117-30.848 4.246-46.067l1.669-22.5c.57-7.677 2.264-16.154.78-23.73-1.688-8.622-13.547-7.116-16 0-2.361 6.849-1.675 15.539-2.139 22.751l-1.45 22.5c-.954 14.813-2.843 30.17-2.193 45 .359 8.21 13.447 10.969 15.088 2.042l-.001.004Z" opacity=".1"/><path fill="#171717" d="M516.742 881.455c2.1 3.437 3.582 5.958 7.292 7.989 4.082 2.235 8.642 3.562 13.069 4.921 7.752 2.38 15.605 4.447 23.555 6.053a303.455 303.455 0 0 0 49.884 5.856 271.921 271.921 0 0 0 98.911-14.76c17.525-6.135 34.7-13.13 48.41-25.957 1.853-1.734-.1-4.6-2.372-4.074-15.191 3.5-29.515 9.317-44.426 13.8a311.626 311.626 0 0 1-46.773 10.057c-30.748 4.255-62.449 4.167-93.013-1.426a322.596 322.596 0 0 1-25.378-5.686c-4.317-1.156-8.567-2.635-12.913-3.66a32.696 32.696 0 0 0-7.082-1.088c-2.458-.014-4.37 1.057-6.643 1.774a4.274 4.274 0 0 0-3.067 4.373c.042.642.228 1.267.545 1.827l.001.001Z" opacity=".1"/><defs><linearGradient id="a" x1="685.334" x2="685.334" y1="527.89" y2="907.885" gradientUnits="userSpaceOnUse"><stop stop-color="#FF9A34"/><stop offset="1" stop-color="#EB6421"/></linearGradient><linearGradient id="b" x1="618.792" x2="618.792" y1="653.617" y2="716.594" gradientUnits="userSpaceOnUse"><stop stop-color="#FF9A34"/><stop offset="1" stop-color="#EB6421"/></linearGradient><linearGradient id="c" x1="386.698" x2="386.698" y1="527.452" y2="911.763" gradientUnits="userSpaceOnUse"><stop stop-color="#FF9A34"/><stop offset="1" stop-color="#EB6421"/></linearGradient></defs></svg>