<svg width="288" height="288" viewBox="0 0 288 288" fill="none" xmlns="http://www.w3.org/2000/svg">
<mask id="mask0_28_12837" style="mask-type:luminance" maskUnits="userSpaceOnUse" x="23" y="11" width="243" height="266">
<path d="M265.201 11.6997H23.1006V276.3H265.201V11.6997Z" fill="white"/>
</mask>
<g mask="url(#mask0_28_12837)">
<path fill-rule="evenodd" clip-rule="evenodd" d="M146.87 43.75C146.87 43.75 144.352 38.2336 141.864 35.3257C139.378 32.4145 137.739 32.0428 134.459 31.6741C131.18 31.3054 117.104 36.4378 114.301 40.5631C111.497 44.6884 118.128 53.4727 118.128 53.4727L118.161 53.5444C123.773 51.1192 129.507 48.9877 135.34 47.1589C139.843 45.7258 143.666 44.5924 146.87 43.75ZM135.918 33.6322C135.687 33.5401 135.425 33.6523 135.333 33.883C135.241 34.1137 135.353 34.3756 135.584 34.468C136.534 34.8481 138.062 35.7043 139.496 37.0216C140.929 38.3374 142.244 40.0918 142.815 42.2647C142.879 42.505 143.125 42.6484 143.365 42.5854C143.606 42.5221 143.749 42.2758 143.686 42.0355C143.058 39.6484 141.623 37.7527 140.105 36.3586C138.589 34.966 136.967 34.0522 135.918 33.6322Z" fill="url(#paint0_linear_28_12837)"/>
<path fill-rule="evenodd" clip-rule="evenodd" d="M105.947 119.677L134.422 113.396L137.384 114.668L138.361 122.702L138.46 122.69C138.46 122.69 140.204 123.164 142.744 121.737C143.741 121.177 144.168 120.412 144.574 119.684C145.203 118.557 145.783 117.517 148.354 117.453C150.473 117.4 151.915 118.632 153.278 119.796C154.638 120.958 155.92 122.053 157.717 121.737C161.315 121.104 162.253 118.652 162.253 118.652L162.271 118.649C162.055 117.546 161.932 116.922 161.932 116.922C161.932 116.922 219.071 113.115 212.725 44.8276C209.882 44.0686 206.968 43.6036 204.03 43.4395C199.304 43.1641 194.567 43.7554 190.054 45.1837C188.374 45.6967 186.751 46.3819 185.212 47.2282C187.436 94.9357 147.707 93.9673 146.579 93.9283C146.612 92.2975 146.615 88.8229 146.097 87.7015C145.605 86.6374 142.055 86.3674 137.843 86.3374C136.188 86.3254 134.428 86.3494 132.71 86.3794C129.967 86.4277 126.816 86.5627 124.073 86.7694C120.728 87.0184 117.984 87.3721 117.316 87.8098C116.437 88.3795 116.827 91.3165 117.112 92.9065L116.929 92.9395C93.1366 94.8325 83.9404 109.823 80.9617 125.193C77.9548 140.712 81.2977 156.623 82.3618 159.813C84.0946 165.013 87.6265 163.589 88.8496 162.903C88.9969 162.823 89.1391 162.734 89.2753 162.636L104.253 157.695C104.253 157.695 109.335 156.637 107.617 150.644C106.703 147.451 106.01 144.48 105.506 141.713C105.074 139.372 104.761 137.01 104.571 134.637C104.085 128.41 104.67 123.485 105.752 119.623L105.947 119.677ZM209.703 47.7505C211.54 63.9361 205.676 99.7552 167.547 113.577L167.854 114.423C206.525 100.404 212.46 64.0636 210.597 47.6491L209.703 47.7505Z" fill="#171717"/>
<path d="M262.204 256.38C262.204 256.38 263.442 260.439 260.267 266.576C257.092 272.713 239.002 275.345 239.002 275.345V275.348C233.96 274.388 229.621 271.451 227.679 265.623C226.741 262.808 225.058 259.453 222.879 255.789L223.164 255.622C223.164 255.622 230.754 256.395 233.027 246.445C235.66 252.027 237.344 255.867 237.836 256.525C239.74 259.064 254.979 255.256 254.979 255.256C254.979 255.256 259.377 254.157 262.204 256.38Z" fill="url(#paint1_linear_28_12837)"/>
<path d="M165.511 136.008L165.247 136.023C165.247 136.023 164.279 138.475 160.555 139.108C156.831 139.74 155.245 134.718 150.868 134.823C146.492 134.928 147.693 137.681 145.064 139.108C142.435 140.535 140.63 140.061 140.63 140.061L140.48 140.079L139.425 131.412L139.638 131.385C139.638 131.385 141.413 131.858 143.991 130.431C146.569 129.004 145.388 126.252 149.687 126.144C153.986 126.036 155.545 131.067 159.2 130.431C162.855 129.796 163.805 127.346 163.805 127.346L163.925 127.325C164.418 129.96 164.961 132.923 165.511 136.008Z" fill="#171717"/>
<path d="M118.764 62.0646C117.789 62.3703 106.712 65.7789 105.501 62.676C104.7 60.6315 109.89 57.1896 118.161 53.544C123.772 51.1191 129.506 48.9882 135.34 47.1597C139.843 45.7266 143.665 44.5932 146.87 43.7508C155.966 41.3583 160.089 41.2776 160.664 43.1781C161.441 45.7476 153.82 48.5835 153.82 48.5835L153.796 48.7455C152.223 48.5667 150.637 48.5376 149.059 48.6585C149.059 48.6585 118.587 53.3325 119.609 56.5764C119.978 57.7515 119.675 59.8413 119.189 62.0664L118.764 62.0646Z" fill="url(#paint2_linear_28_12837)"/>
<path d="M124.391 56.6101L124.232 71.6062L124.088 71.6032C124.088 71.6032 121.513 75.4105 119.927 73.9297C118.413 72.5176 120.458 69.4384 120.653 69.1537C120.473 69.3906 118.77 71.5612 117.669 70.8265C116.926 70.3318 118.335 65.9908 119.189 62.0665C119.675 59.842 119.978 57.7522 119.609 56.5765C118.587 53.3326 149.059 48.6586 149.059 48.6586C150.637 48.5377 152.223 48.5668 153.796 48.7456C154.966 48.9136 155.958 49.2493 156.203 49.876C156.89 51.6208 150.381 52.4661 150.381 52.4661C150.381 52.4661 156.467 58.1293 151.706 59.9281C147.473 61.5262 147.251 54.9781 147.257 53.5006V53.4976C147.257 53.3146 147.26 53.2096 147.26 53.2096C147.26 53.2096 135.41 50.826 124.583 56.6124L124.391 56.6101Z" fill="#171717"/>
<path d="M138.461 122.691C138.461 122.691 140.206 123.167 142.745 121.737C145.284 120.307 144.121 117.558 148.355 117.453C152.589 117.349 154.12 122.373 157.718 121.737C161.315 121.101 162.254 118.652 162.254 118.652L162.272 118.649C162.622 120.457 163.222 123.554 163.923 127.326L163.804 127.347C163.804 127.347 162.853 129.796 159.198 130.432C155.544 131.067 153.985 126.04 149.686 126.144C145.387 126.249 146.571 129.001 143.989 130.432C141.408 131.862 139.636 131.385 139.636 131.385L139.423 131.412L138.362 122.703L138.461 122.691Z" fill="url(#paint3_linear_28_12837)"/>
<path d="M109.141 178.271C121.079 176.226 156.573 169.388 166.55 166.645C165.901 182.981 155.658 190.533 142.745 194.73C128.427 199.386 116.045 200.444 107.051 196.424C105.201 195.596 102.83 194.628 100.107 193.696C104.946 185.806 109.14 178.274 109.14 178.274L109.141 178.271Z" fill="url(#paint4_linear_28_12837)"/>
<path d="M107.051 196.424C116.045 200.444 128.427 199.386 142.745 194.73C155.658 190.533 165.902 182.981 166.549 166.645C166.861 166.558 167.149 166.477 167.41 166.399C167.41 166.399 191.703 182.528 193.678 185.068C194.089 185.598 193.63 187.268 192.617 189.589C190.782 193.795 187.137 200.133 183.569 205.679C179.666 211.753 175.855 216.883 174.632 217.233C171.667 218.082 143.312 199.881 143.312 199.881C143.312 199.881 131.32 225.277 128.637 230.074C127.147 232.739 112.977 228.128 101.721 222.537C97.715 220.543 94.0785 218.43 91.5153 216.469C88.3224 214.037 86.7933 211.852 88.2894 210.461C91.1256 207.823 95.8623 200.621 100.108 193.696C102.829 194.628 105.201 195.597 107.051 196.424Z" fill="url(#paint5_linear_28_12837)"/>
<path d="M42.7208 259.277C34.6769 263.084 28.0123 259.913 27.0589 252.822C26.1055 245.732 42.8048 225.633 42.8048 225.633C44.6303 225.999 47.6255 226.581 50.6204 227.108C52.0433 227.345 53.483 227.467 54.9257 227.471V227.474C51.7478 232.844 55.5101 238.364 56.4275 239.568C52.8479 239.808 50.6204 239.808 50.6204 239.808C45.2588 243.615 45.1178 253.35 42.7208 259.277Z" fill="url(#paint6_linear_28_12837)"/>
<path d="M116.929 92.9402C93.1366 94.8332 83.9404 109.823 80.9617 125.19C77.9548 140.711 81.2977 156.621 82.3618 159.81C84.0946 165.012 87.6265 163.588 88.8496 162.9C88.9969 162.82 89.1391 162.731 89.2753 162.633L104.253 157.693C104.253 157.693 109.335 156.634 107.617 150.641C106.703 147.448 106.01 144.477 105.506 141.71C105.074 139.369 104.761 137.008 104.571 134.635C104.085 128.408 104.67 123.482 105.752 119.621C108.481 109.883 114.39 106.903 114.39 106.903" stroke="#171717" stroke-width="0.9" stroke-linecap="round" stroke-linejoin="round"/>
<path d="M146.556 93.9275H146.58C147.707 93.9665 187.436 94.9349 185.212 47.2274C186.751 46.3808 188.374 45.6959 190.054 45.1829C194.567 43.7549 199.304 43.1642 204.031 43.4399C206.968 43.6037 209.882 44.069 212.725 44.828" stroke="#171717" stroke-width="0.9" stroke-linecap="round" stroke-linejoin="round"/>
<path d="M105.219 173.076C105.219 173.076 103.666 178.718 105.219 178.859C105.441 178.88 106.862 178.664 109.14 178.271C121.079 176.227 156.572 169.388 166.55 166.645C166.861 166.558 167.15 166.477 167.41 166.399C168.351 166.12 168.948 165.895 169.128 165.739C170.324 164.702 167.872 149.25 165.509 136.009C164.96 132.924 164.418 129.962 163.923 127.327C163.222 123.555 162.622 120.458 162.271 118.651C162.055 117.547 161.933 116.924 161.933 116.924C161.933 116.924 219.072 113.115 212.725 44.8296" stroke="#171717" stroke-width="0.9" stroke-linecap="round" stroke-linejoin="round"/>
<path d="M109.141 178.274C109.141 178.274 104.946 185.804 100.108 193.696C95.8623 200.621 91.1256 207.823 88.2894 210.461C86.7933 211.852 88.3224 214.037 91.5153 216.469C94.0785 218.43 97.7151 220.543 101.721 222.537C112.975 228.128 127.147 232.739 128.637 230.074C131.32 225.277 143.311 199.881 143.311 199.881C143.311 199.881 171.666 218.082 174.631 217.233C175.854 216.883 179.664 211.753 183.568 205.679C187.135 200.133 190.781 193.795 192.616 189.589C193.629 187.268 194.088 185.599 193.677 185.068C191.701 182.528 167.408 166.399 167.408 166.399" stroke="#171717" stroke-width="0.9" stroke-linecap="round" stroke-linejoin="round"/>
<path d="M117.316 93.9336C117.316 93.9336 117.223 93.5199 117.112 92.9055C116.827 91.3155 116.437 88.3785 117.316 87.8088C117.984 87.3711 120.728 87.0174 124.073 86.7684C126.816 86.5617 129.967 86.4267 132.711 86.3784C134.428 86.3484 136.188 86.3244 137.843 86.3364C142.056 86.3664 145.605 86.6364 146.097 87.7005C146.616 88.8219 146.613 92.2965 146.58 93.9273C146.571 94.455 146.556 94.7907 146.556 94.7907" stroke="#171717" stroke-width="0.9" stroke-linecap="round" stroke-linejoin="round"/>
<path d="M124.073 86.7658L124.232 71.605L124.391 56.6089L124.406 55.2178" stroke="#171717" stroke-width="0.9" stroke-linecap="round" stroke-linejoin="round"/>
<path d="M147.257 53.4967C147.259 53.4889 147.26 53.4808 147.26 53.4727" stroke="#171717" stroke-width="0.9" stroke-linecap="round" stroke-linejoin="round"/>
<path d="M137.843 86.3336C137.843 86.3336 136.575 80.8772 138.161 79.6061C139.747 78.335 143.452 78.443 144.826 74.5274C146.169 70.7051 147.209 54.2699 147.257 53.4995" stroke="#171717" stroke-width="0.9" stroke-linecap="round" stroke-linejoin="round"/>
<path d="M120.668 69.1307C120.662 69.1373 120.657 69.1442 120.653 69.1517C120.473 69.3887 118.77 71.5592 117.669 70.8245C116.926 70.3298 118.335 65.9888 119.189 62.0645C119.675 59.84 119.978 57.7502 119.609 56.5745C118.587 53.3306 149.059 48.6566 149.059 48.6566C150.637 48.5357 152.223 48.5648 153.796 48.7436C154.966 48.9116 155.957 49.2473 156.203 49.874C156.89 51.6188 150.381 52.4642 150.381 52.4642C150.381 52.4642 156.467 58.1273 151.706 59.9261C147.473 61.5242 147.251 54.9761 147.257 53.4986V53.4956C147.257 53.3126 147.26 53.2076 147.26 53.2076C147.26 53.2076 135.41 50.8241 124.583 56.6105" stroke="#171717" stroke-width="0.9" stroke-linecap="round" stroke-linejoin="round"/>
<path d="M124.089 71.6018C124.089 71.6018 121.514 75.4091 119.928 73.9283C118.414 72.5162 120.458 69.437 120.653 69.1523" stroke="#171717" stroke-width="0.9" stroke-linecap="round" stroke-linejoin="round"/>
<path d="M118.833 62.0436C118.833 62.0436 118.809 62.0526 118.764 62.0646C117.789 62.3703 106.712 65.7789 105.501 62.676C104.7 60.6315 109.89 57.1896 118.161 53.544C123.772 51.1191 129.506 48.9882 135.34 47.1597C139.843 45.7266 143.665 44.5932 146.87 43.7508C155.966 41.3583 160.089 41.2776 160.664 43.1781C161.441 45.7476 153.82 48.5835 153.82 48.5835" stroke="#171717" stroke-width="0.9" stroke-linecap="round" stroke-linejoin="round"/>
<path d="M118.128 53.4727C118.128 53.4727 111.497 44.6884 114.301 40.5631C117.104 36.4378 131.18 31.3054 134.459 31.6741C137.739 32.0428 139.379 32.4145 141.864 35.3257C144.35 38.2369 146.871 43.75 146.871 43.75" stroke="#171717" stroke-width="0.9" stroke-linecap="round" stroke-linejoin="round"/>
<path d="M198.967 36.3657C198.966 36.3618 198.965 36.3576 198.964 36.3537C198.88 35.8173 196.268 18.9565 199.389 18.2368C202.564 17.5054 204.045 43.1772 204.045 43.1772" stroke="#171717" stroke-width="0.9" stroke-linecap="round" stroke-linejoin="round"/>
<path d="M194.806 37.2114C194.806 37.2063 194.804 37.2012 194.803 37.1964C194.683 36.6207 191.175 19.7064 193.183 19.0134C195.197 18.3177 198.853 35.8173 198.963 36.3534" stroke="#171717" stroke-width="0.9" stroke-linecap="round" stroke-linejoin="round"/>
<path d="M190.713 39.6816L190.71 39.6786C190.62 39.3729 185.728 22.8836 188.105 21.8342C190.462 20.7941 194.656 36.6387 194.803 37.1964" stroke="#171717" stroke-width="0.9" stroke-linecap="round" stroke-linejoin="round"/>
<path d="M190.09 45.2163C190.09 45.2163 190.078 45.2043 190.054 45.1833C189.463 44.6616 181.605 37.6464 183.167 36.0843C184.768 34.4835 190.555 39.5409 190.71 39.6789" stroke="#171717" stroke-width="0.9" stroke-linecap="round" stroke-linejoin="round"/>
<path d="M88.8496 162.903C89.3029 164.278 89.9092 165.597 90.6574 166.836C91.1611 167.689 91.7452 168.491 92.4022 169.232C94.5817 171.666 97.8526 173.504 102.449 171.822" stroke="#171717" stroke-width="0.9" stroke-linecap="round" stroke-linejoin="round"/>
<path d="M98.9053 169.231C99.9037 170.315 101.12 171.176 102.475 171.756C103.36 172.138 104.302 172.369 105.263 172.439C106.867 172.553 108.713 172.206 110.717 170.991" stroke="#171717" stroke-width="0.9" stroke-linecap="round" stroke-linejoin="round"/>
<path d="M104.529 168.015C104.529 168.015 107.435 170.182 110.717 170.992H110.72C112.864 171.522 115.169 171.472 116.93 169.865C119.644 167.385 117.812 163.611 117.812 163.611" stroke="#171717" stroke-width="0.9" stroke-linecap="round" stroke-linejoin="round"/>
<path d="M104.253 157.696C104.253 157.696 108.361 159.923 111.674 162.244C112.545 162.842 113.382 163.49 114.18 164.183C115.394 165.263 116.081 166.219 115.658 166.798C113.331 169.972 104.961 162.903 104.961 162.903" stroke="#171717" stroke-width="0.9" stroke-linecap="round" stroke-linejoin="round"/>
<path d="M80.9618 125.191L66.9851 128.276L65.4683 172.314L67.9025 174.098L92.3993 169.232" stroke="#171717" stroke-width="0.9" stroke-linecap="round" stroke-linejoin="round"/>
<path d="M114.459 164.099L117.783 163.463L142.745 158.685L141.708 150.17L141.039 144.687L140.478 140.079L139.423 131.412L138.362 122.702L137.385 114.668L134.422 113.396L105.947 119.677" stroke="#171717" stroke-width="0.9" stroke-linecap="round" stroke-linejoin="round"/>
<path d="M111.674 162.243L139.747 156.64L134.423 113.396" stroke="#171717" stroke-width="0.9" stroke-linecap="round" stroke-linejoin="round"/>
<path d="M90.6575 166.837L65.4683 172.314" stroke="#171717" stroke-width="0.9" stroke-linecap="round" stroke-linejoin="round"/>
<path d="M119.942 93.3337H143.699" stroke="#171717" stroke-width="0.9" stroke-linecap="round" stroke-linejoin="round"/>
<path d="M91.5117 216.472C91.5117 216.472 89.3052 222.312 76.1703 224.85C66.4086 226.739 59.6961 227.536 54.9234 227.47C53.481 227.466 52.041 227.345 50.6181 227.108C47.6232 226.58 44.628 225.998 42.8025 225.632C41.7021 225.413 41.0244 225.276 41.0244 225.276C41.0244 225.276 21.5545 246.295 23.9545 255.466C26.3545 264.637 40.3206 265.2 42.7191 259.276C45.1176 253.351 45.2583 243.614 50.6187 239.806C50.6187 239.806 52.8462 239.806 56.4258 239.566C61.8522 239.203 70.3908 238.292 78.9771 235.996C93.1158 232.218 101.591 222.681 101.72 222.535L101.723 222.532" stroke="#171717" stroke-width="0.9" stroke-linecap="round" stroke-linejoin="round"/>
<path d="M56.6148 239.811C56.6148 239.811 56.5428 239.727 56.4258 239.568C55.5084 238.363 51.7458 232.844 54.924 227.474" stroke="#171717" stroke-width="0.9" stroke-linecap="round" stroke-linejoin="round"/>
<path d="M233.028 246.443C225.47 230.418 210.09 200.057 192.618 189.588" stroke="#171717" stroke-width="0.9" stroke-linecap="round" stroke-linejoin="round"/>
<path d="M183.571 205.68C183.571 205.68 210.823 235.486 222.881 255.792C225.06 259.455 226.742 262.81 227.681 265.625C229.623 271.453 233.961 274.391 239.004 275.351C249.894 277.426 264.067 270.287 264.502 263.155C264.718 259.587 263.675 257.536 262.206 256.382C259.379 254.158 254.98 255.258 254.98 255.258C254.98 255.258 239.74 259.066 237.838 256.526C237.346 255.87 235.661 252.029 233.029 246.446" stroke="#171717" stroke-width="0.9" stroke-linecap="round" stroke-linejoin="round"/>
<path d="M223.164 255.623C223.164 255.623 230.754 256.397 233.027 246.446V246.443" stroke="#171717" stroke-width="0.9" stroke-linecap="round" stroke-linejoin="round"/>
<path d="M133.61 68.8134C133.61 68.8134 136.203 69.6198 136.308 68.5554C136.413 67.491 135.198 56.1708 135.198 56.1708C135.198 56.1708 140.594 54.3708 143.398 55.5351" stroke="#171717" stroke-width="0.9" stroke-linecap="round" stroke-linejoin="round"/>
<path d="M138.506 59.8735C138.9 59.6308 139.353 59.5024 139.815 59.5024C140.277 59.5024 140.73 59.6308 141.124 59.8735" stroke="#171717" stroke-width="0.9" stroke-linecap="round" stroke-linejoin="round"/>
<path d="M128.427 59.4988C128.427 59.4988 130.28 58.021 131.811 59.2381" stroke="#171717" stroke-width="0.9" stroke-linecap="round" stroke-linejoin="round"/>
<path d="M126.787 73.6821C126.787 73.6821 128.587 76.1166 131.071 75.5349" stroke="#171717" stroke-width="0.9" stroke-linecap="round" stroke-linejoin="round"/>
<path d="M79.5526 58.2156C79.5529 60.0186 79.0186 61.7811 78.0172 63.2805C77.0155 64.7796 75.592 65.9484 73.9261 66.6384C72.2605 67.3284 70.4275 67.5093 68.659 67.1574C66.8908 66.8058 65.2663 65.9376 63.9916 64.6626C62.7166 63.3876 61.8484 61.7631 61.4968 59.9949C61.1452 58.2264 61.3258 56.3934 62.0158 54.7278C62.7061 53.0622 63.8746 51.6384 65.374 50.637C66.8734 49.6356 68.6359 49.1013 70.4389 49.1016C71.6359 49.1016 72.8209 49.3374 73.9267 49.7952C75.0325 50.2533 76.0372 50.9247 76.8835 51.771C77.7298 52.6173 78.4009 53.622 78.859 54.7278C79.3171 55.8336 79.5526 57.0186 79.5526 58.2156Z" stroke="#171717" stroke-width="0.9" stroke-linecap="round" stroke-linejoin="round"/>
<path d="M72.9453 45.5604L75.0648 37.1064" stroke="#171717" stroke-width="0.9" stroke-linecap="round" stroke-linejoin="round"/>
<path d="M66.1725 69.6978L63.4233 79.7472" stroke="#171717" stroke-width="0.9" stroke-linecap="round" stroke-linejoin="round"/>
<path d="M58.9774 62.8708L54.7441 65.1223" stroke="#171717" stroke-width="0.9" stroke-linecap="round" stroke-linejoin="round"/>
<path d="M58.9778 54.459L40.7798 50.4387" stroke="#171717" stroke-width="0.9" stroke-linecap="round" stroke-linejoin="round"/>
<path d="M63.4234 48.2139L60.2485 44.8413" stroke="#171717" stroke-width="0.9" stroke-linecap="round" stroke-linejoin="round"/>
<path d="M80.9858 50.4387L84.7124 49.1016" stroke="#171717" stroke-width="0.9" stroke-linecap="round" stroke-linejoin="round"/>
<path d="M82.8506 62.4966L90.7205 64.4241" stroke="#171717" stroke-width="0.9" stroke-linecap="round" stroke-linejoin="round"/>
<path d="M75.937 69.6978L78.0238 72.8997" stroke="#171717" stroke-width="0.9" stroke-linecap="round" stroke-linejoin="round"/>
<path d="M144.403 146.321C144.403 146.321 164.721 140.661 166.412 160.979C166.575 162.863 166.621 164.755 166.55 166.645C165.901 182.981 155.658 190.533 142.745 194.73C128.427 199.386 116.045 200.444 107.051 196.424C105.201 195.597 102.83 194.628 100.107 193.696C89.5933 190.101 73.8478 187.085 62.7373 195.156" stroke="#171717" stroke-width="0.9" stroke-linecap="round" stroke-linejoin="round"/>
<path d="M61.9877 194.661C62.3246 194.913 62.6192 195.216 62.8601 195.561C64.5122 197.911 63.3848 201.681 60.3659 204.798C59.6372 205.549 58.8392 206.229 57.9824 206.83C53.2484 210.16 47.7623 210.512 45.7265 207.619C43.6907 204.726 45.8735 199.677 50.6042 196.349C50.8802 196.155 51.1589 195.972 51.4376 195.801C55.3892 193.345 59.6852 192.916 61.9877 194.661Z" stroke="#171717" stroke-width="0.9" stroke-linecap="round" stroke-linejoin="round"/>
<path d="M138.461 122.691C138.461 122.691 140.206 123.167 142.745 121.737C145.284 120.307 144.121 117.558 148.355 117.453C152.589 117.349 154.12 122.373 157.718 121.737C161.316 121.101 162.254 118.652 162.254 118.652" stroke="#171717" stroke-width="0.9" stroke-linecap="round" stroke-linejoin="round"/>
<path d="M139.636 131.385C139.636 131.385 141.411 131.858 143.989 130.431C146.567 129.004 145.386 126.252 149.686 126.144C153.985 126.036 155.544 131.067 159.198 130.431C162.853 129.796 163.803 127.346 163.803 127.346" stroke="#171717" stroke-width="0.9" stroke-linecap="round" stroke-linejoin="round"/>
<path d="M140.628 140.061C140.628 140.061 142.436 140.538 145.062 139.108C147.689 137.678 146.487 134.929 150.867 134.824C155.247 134.719 156.833 139.744 160.553 139.108C164.274 138.472 165.245 136.023 165.245 136.023" stroke="#171717" stroke-width="0.9" stroke-linecap="round" stroke-linejoin="round"/>
<path d="M140.346 150.395L139.747 144.894L141.039 144.687L142.745 144.417L143.611 149.709L141.708 150.17L140.772 150.395" stroke="#171717" stroke-width="0.9" stroke-linecap="round" stroke-linejoin="round"/>
<path d="M104.571 134.638C104.571 134.638 107.635 134.788 108.109 137.435C108.577 140.022 105.636 141.641 105.507 141.713H105.504" stroke="#171717" stroke-width="0.9" stroke-linecap="round" stroke-linejoin="round"/>
<path d="M42.8038 225.633C42.8038 225.633 26.1045 245.733 27.0579 252.822C28.0113 259.911 34.6759 263.084 42.7198 259.277" stroke="#171717" stroke-width="0.9" stroke-linecap="round" stroke-linejoin="round"/>
<path d="M239.002 275.347C239.002 275.347 257.095 272.714 260.267 266.577C263.439 260.44 262.204 256.381 262.204 256.381" stroke="#171717" stroke-width="0.9" stroke-linecap="round" stroke-linejoin="round"/>
<path d="M51.4375 195.797V195.8C51.4435 195.923 51.6145 199.392 53.872 201.985C55.192 203.505 57.2269 204.725 60.3658 204.797" stroke="#171717" stroke-width="0.9" stroke-linecap="round" stroke-linejoin="round"/>
<path d="M61.9877 194.661C61.9877 194.661 55.9259 197.036 53.8721 201.986" stroke="#171717" stroke-width="0.9" stroke-linecap="round" stroke-linejoin="round"/>
<path d="M75.9492 243.47C80.2569 243.045 84.3459 241.37 87.7131 238.65" stroke="#171717" stroke-width="0.9" stroke-linecap="round" stroke-linejoin="round"/>
<path d="M124.264 219.35L123.559 215.964" stroke="#171717" stroke-width="0.9" stroke-linecap="round" stroke-linejoin="round"/>
<path d="M102.396 204.819L104.936 203.831" stroke="#171717" stroke-width="0.9" stroke-linecap="round" stroke-linejoin="round"/>
<path d="M121.858 192.969L121.392 190.155" stroke="#171717" stroke-width="0.9" stroke-linecap="round" stroke-linejoin="round"/>
<path d="M136.115 180.687L139.927 180.297" stroke="#171717" stroke-width="0.9" stroke-linecap="round" stroke-linejoin="round"/>
<path d="M115.094 183.938L114.671 181.822" stroke="#171717" stroke-width="0.9" stroke-linecap="round" stroke-linejoin="round"/>
<path d="M156.672 199.782L160.228 198.298" stroke="#171717" stroke-width="0.9" stroke-linecap="round" stroke-linejoin="round"/>
<path d="M175.093 204.52C174.553 203.263 174.516 201.846 174.99 200.562" stroke="#171717" stroke-width="0.9" stroke-linecap="round" stroke-linejoin="round"/>
<path d="M180.132 186.467C181.409 186.294 182.708 186.397 183.942 186.767" stroke="#171717" stroke-width="0.9" stroke-linecap="round" stroke-linejoin="round"/>
<path d="M167.946 184.666C167.55 183.657 167.568 182.534 167.996 181.539" stroke="#171717" stroke-width="0.9" stroke-linecap="round" stroke-linejoin="round"/>
<path d="M155.596 174.615L158.345 177.23" stroke="#171717" stroke-width="0.9" stroke-linecap="round" stroke-linejoin="round"/>
<path d="M40.1831 200.873C39.3407 201.779 38.8217 202.939 38.7065 204.171C38.5913 205.403 38.8865 206.638 39.5462 207.685" stroke="#171717" stroke-width="0.9" stroke-linecap="round" stroke-linejoin="round"/>
<path d="M70.9321 187.322C72.1321 186.226 73.5805 185.439 75.1525 185.028C76.7245 184.617 78.3727 184.595 79.9552 184.963" stroke="#171717" stroke-width="0.9" stroke-linecap="round" stroke-linejoin="round"/>
<path d="M137.522 127.082L136.951 122.569" stroke="#171717" stroke-width="0.9" stroke-linecap="round" stroke-linejoin="round"/>
<path d="M138.655 135.547L138.373 132.725" stroke="#171717" stroke-width="0.9" stroke-linecap="round" stroke-linejoin="round"/>
<path d="M213.08 33.82C213.591 28.2015 211.858 22.609 208.261 18.2632" stroke="#171717" stroke-width="0.9" stroke-linecap="round" stroke-linejoin="round"/>
<path d="M216.549 26.6306C216.522 25.6297 216.222 24.6552 215.681 23.813" stroke="#171717" stroke-width="0.9" stroke-linecap="round" stroke-linejoin="round"/>
<path d="M77.9692 118.189C79.1452 113.54 81.1735 109.149 83.9509 105.24" stroke="#171717" stroke-width="0.9" stroke-linecap="round" stroke-linejoin="round"/>
<path d="M172.707 145.554L171.125 135.344C170.991 134.691 170.954 134.021 171.015 133.357" stroke="#171717" stroke-width="0.9" stroke-linecap="round" stroke-linejoin="round"/>
<path d="M219.615 264.998C217.037 257.281 213.195 250.046 208.247 243.588" stroke="#171717" stroke-width="0.9" stroke-linecap="round" stroke-linejoin="round"/>
<path d="M247.984 256.731C246.118 259.928 245.36 263.653 245.829 267.325" stroke="#171717" stroke-width="0.9" stroke-linecap="round" stroke-linejoin="round"/>
<path d="M253.079 255.682C251.477 258.962 250.958 262.666 251.596 266.26" stroke="#171717" stroke-width="0.9" stroke-linecap="round" stroke-linejoin="round"/>
<path d="M47.175 243.686C45.9648 243.256 44.8728 242.547 43.9881 241.615C43.1034 240.684 42.4506 239.557 42.0825 238.327" stroke="#171717" stroke-width="0.9" stroke-linecap="round" stroke-linejoin="round"/>
<path d="M44.8306 250.299C43.2775 249.882 41.8549 249.079 40.6951 247.964C39.5356 246.85 38.6764 245.461 38.1973 243.926" stroke="#171717" stroke-width="0.9" stroke-linecap="round" stroke-linejoin="round"/>
<path d="M110.037 47.2172C109.392 45.9398 109.075 44.522 109.112 43.0916C109.15 41.6609 109.543 40.262 110.254 39.0203" stroke="#171717" stroke-width="0.9" stroke-linecap="round" stroke-linejoin="round"/>
<path d="M150.643 32.2012L152.548 28.8159" stroke="#171717" stroke-width="0.9" stroke-linecap="round" stroke-linejoin="round"/>
<path d="M153.397 31.5702L149.84 28.7678" stroke="#171717" stroke-width="0.9" stroke-linecap="round" stroke-linejoin="round"/>
<path d="M136.045 20.1407V16.7549" stroke="#171717" stroke-width="0.9" stroke-linecap="round" stroke-linejoin="round"/>
<path d="M133.5 18.6341L137.944 17.7844" stroke="#171717" stroke-width="0.9" stroke-linecap="round" stroke-linejoin="round"/>
<path d="M190.239 113.506C198.268 109.5 204.727 102.923 208.585 94.8223" stroke="#171717" stroke-width="0.9" stroke-linecap="round" stroke-linejoin="round"/>
<path d="M58.402 117.89L55.4341 114.51" stroke="#171717" stroke-width="0.9" stroke-linecap="round" stroke-linejoin="round"/>
<path d="M55.002 117.713C56.1399 116.922 57.018 115.812 57.5256 114.523" stroke="#171717" stroke-width="0.9" stroke-linecap="round" stroke-linejoin="round"/>
<path d="M36.8817 121.65C32.958 124.597 30.3657 129.48 30.7986 134.367C31.2315 139.254 35.0286 143.834 39.8814 144.562C41.5821 144.816 43.4235 144.587 44.8101 143.57C46.1967 142.553 46.9869 140.64 46.3803 139.031C45.4869 136.661 41.9025 136.205 40.0245 137.906C38.1465 139.606 37.9392 142.622 38.9643 144.939C39.9894 147.256 41.9991 148.986 44.0943 150.412C46.1895 151.838 48.4443 153.055 50.3205 154.757C51.8715 156.163 53.2062 158.164 52.8105 160.219C52.3758 162.475 49.8972 163.9 47.6013 163.808C45.3054 163.716 43.2186 162.454 41.4378 161.002" stroke="#171717" stroke-width="0.9" stroke-linecap="round" stroke-linejoin="round"/>
<path d="M35.5345 153.023C34.7029 152.525 34.024 151.807 33.5728 150.949" stroke="#171717" stroke-width="0.9" stroke-linecap="round" stroke-linejoin="round"/>
<path d="M33.1826 153.667L35.3594 150.535" stroke="#171717" stroke-width="0.9" stroke-linecap="round" stroke-linejoin="round"/>
<path d="M51.395 134.63L53.723 131.667" stroke="#171717" stroke-width="0.9" stroke-linecap="round" stroke-linejoin="round"/>
<path d="M53.3559 134.578L51.021 132.045" stroke="#171717" stroke-width="0.9" stroke-linecap="round" stroke-linejoin="round"/>
<path d="M223.794 109.604C227.072 117.748 227.083 126.842 223.824 134.994C222.573 138.079 220.508 141.253 217.263 141.996C214.243 142.687 211.093 140.97 209.137 138.568C207.404 136.442 206.444 133.162 208.181 131.04C209.599 129.305 212.227 129.113 214.391 129.699C219.227 131.011 222.798 135.446 224.071 140.293C225.343 145.139 224.608 150.316 223.083 155.089C222.031 158.383 219.988 162.036 216.545 162.34C214.269 162.542 212.152 161.158 209.881 160.91C206.54 160.546 203.17 162.979 202.295 166.224C201.42 169.47 203.001 173.165 205.861 174.931C208.722 176.696 212.611 176.51 215.398 174.633" stroke="#171717" stroke-width="0.9" stroke-linecap="round" stroke-linejoin="round"/>
<path d="M198.686 161.506L201.648 158.544" stroke="#171717" stroke-width="0.9" stroke-linecap="round" stroke-linejoin="round"/>
<path d="M201.225 160.871C200.656 159.752 199.804 158.802 198.753 158.116L199.321 157.696" stroke="#171717" stroke-width="0.9" stroke-linecap="round" stroke-linejoin="round"/>
<path d="M231.692 127.637L234.445 125.522" stroke="#171717" stroke-width="0.9" stroke-linecap="round" stroke-linejoin="round"/>
<path d="M233.851 128.047C233.104 126.893 232.522 125.64 232.123 124.325" stroke="#171717" stroke-width="0.9" stroke-linecap="round" stroke-linejoin="round"/>
<path d="M152.411 19.527L150.483 21.6549C150.425 21.7192 150.349 21.7641 150.264 21.7835C150.18 21.803 150.092 21.7961 150.011 21.7638C149.931 21.7315 149.862 21.6752 149.815 21.6027C149.767 21.5302 149.743 21.4449 149.745 21.3582L149.827 18.4878C149.829 18.4041 149.807 18.3215 149.762 18.2506C149.717 18.1796 149.653 18.1235 149.576 18.0891L146.957 16.9128C146.878 16.8774 146.812 16.8185 146.767 16.7442C146.722 16.6699 146.702 16.5837 146.708 16.4973C146.713 16.4108 146.746 16.3283 146.8 16.2607C146.854 16.1931 146.928 16.1438 147.011 16.1193L149.766 15.3093C149.846 15.2858 149.918 15.2391 149.972 15.175C150.025 15.1109 150.059 15.0324 150.068 14.9493L150.377 12.0945C150.386 12.0083 150.422 11.927 150.479 11.8616C150.536 11.7961 150.611 11.7497 150.695 11.7286C150.779 11.7075 150.868 11.7126 150.949 11.7434C151.03 11.7742 151.1 11.8291 151.148 11.9007L152.768 14.2707C152.816 14.3399 152.882 14.3935 152.96 14.4247C153.038 14.4559 153.123 14.4634 153.205 14.4462L156.016 13.8579C156.101 13.8401 156.189 13.8488 156.269 13.8827C156.349 13.9166 156.416 13.9741 156.462 14.0475C156.508 14.121 156.531 14.2067 156.527 14.2933C156.522 14.3799 156.492 14.4631 156.439 14.5317L154.686 16.8063C154.635 16.8727 154.604 16.9527 154.599 17.0362C154.593 17.1198 154.612 17.2032 154.654 17.2758L156.082 19.7673C156.125 19.8425 156.144 19.9291 156.136 20.0154C156.129 20.1017 156.095 20.1836 156.039 20.2501C155.984 20.3166 155.909 20.3644 155.825 20.3872C155.742 20.41 155.653 20.4066 155.572 20.3775L152.867 19.413C152.788 19.3851 152.703 19.381 152.622 19.4013C152.541 19.4216 152.468 19.4653 152.411 19.527Z" fill="#171717"/>
<path d="M235.367 159.645L234.104 161.535C234.066 161.592 234.011 161.636 233.947 161.661C233.883 161.686 233.813 161.691 233.746 161.675C233.68 161.659 233.619 161.623 233.573 161.572C233.528 161.52 233.499 161.456 233.491 161.388L233.221 159.13C233.213 159.064 233.186 159.002 233.143 158.952C233.099 158.901 233.042 158.865 232.979 158.847L230.789 158.23C230.723 158.212 230.664 158.173 230.62 158.12C230.577 158.067 230.55 158.002 230.545 157.934C230.54 157.865 230.555 157.797 230.59 157.737C230.624 157.678 230.676 157.631 230.739 157.602L232.803 156.647C232.863 156.62 232.914 156.575 232.948 156.518C232.983 156.461 233 156.396 232.997 156.329L232.907 154.057C232.905 153.988 232.923 153.92 232.96 153.863C232.997 153.805 233.051 153.76 233.114 153.734C233.177 153.707 233.247 153.701 233.315 153.716C233.381 153.73 233.442 153.765 233.489 153.815L235.035 155.483C235.08 155.532 235.139 155.566 235.203 155.582C235.268 155.597 235.335 155.593 235.398 155.57L237.531 154.783C237.595 154.759 237.665 154.755 237.732 154.773C237.798 154.79 237.858 154.827 237.902 154.879C237.947 154.931 237.974 154.996 237.981 155.064C237.988 155.132 237.974 155.201 237.941 155.261L236.831 157.247C236.798 157.305 236.784 157.371 236.789 157.437C236.795 157.503 236.819 157.566 236.861 157.619L238.271 159.404C238.313 159.458 238.338 159.524 238.342 159.593C238.346 159.661 238.329 159.729 238.293 159.788C238.257 159.847 238.204 159.893 238.141 159.92C238.078 159.948 238.008 159.955 237.941 159.942L235.709 159.501C235.644 159.488 235.577 159.495 235.516 159.521C235.455 159.547 235.403 159.59 235.367 159.645Z" fill="#171717"/>
<g opacity="0.1">
<path d="M35.2502 262.779C36.9674 264.195 39.8012 261.751 41.006 260.536C42.8441 258.708 44.237 256.482 45.077 254.03C45.9194 251.58 46.0034 248.97 46.3754 246.427C46.7054 244.179 47.3729 241.896 49.6337 240.92C51.9278 239.93 54.6503 240.176 57.086 240.104C60.065 240.005 63.0353 239.724 65.9801 239.262C71.7584 238.362 77.4014 236.744 82.7783 234.444C88.847 231.845 94.5299 228.424 99.6683 224.279C100.642 223.499 100.467 221.853 99.6683 221.039C98.7224 220.072 97.3883 220.272 96.4268 221.039C87.3878 228.243 76.4123 232.968 65.0219 234.841C62.2286 235.292 59.4086 235.558 56.5802 235.635C53.8907 235.716 51.0629 235.596 48.4934 236.528C42.8066 238.591 42.0482 244.045 41.6027 249.352C41.3993 252.091 40.5101 254.734 39.0176 257.039C38.2457 258.253 37.1342 259.359 36.1442 260.399C35.7284 260.836 34.3865 262.068 35.2496 262.78L35.2502 262.779Z" fill="#171717"/>
</g>
<g opacity="0.1">
<path d="M126.489 230.937C128.971 229.997 130.111 226.663 131.324 224.502C132.685 222.076 133.971 219.607 135.278 217.15C137.986 212.059 140.66 206.949 143.299 201.822C144.676 199.158 140.659 196.795 139.267 199.466C136.603 204.583 133.963 209.712 131.347 214.853C130.089 217.34 128.809 219.815 127.606 222.329C126.556 224.524 124.344 227.572 125.001 230.092C125.154 230.682 125.881 231.167 126.488 230.937H126.489Z" fill="#171717"/>
</g>
<g opacity="0.1">
<path d="M184.136 205.863C185.256 208.573 187.766 210.718 189.792 212.786C191.935 214.974 194.058 217.182 196.162 219.409C200.296 223.799 204.379 228.227 208.185 232.909C211.949 237.503 215.379 242.362 218.447 247.447C221.414 252.407 223.699 257.597 225.964 262.897C228.145 268 231.187 273.305 236.932 274.823C239.91 275.61 241.181 270.997 238.204 270.213C233.797 269.052 231.707 264.32 230.078 260.482C227.828 255.179 225.518 250 222.553 245.046C216.501 234.942 208.819 225.888 200.731 217.367C198.447 214.961 196.084 212.627 193.719 210.301C191.451 208.069 189.026 205.171 186.022 203.977C184.995 203.569 183.708 204.825 184.136 205.863Z" fill="#171717"/>
</g>
<g opacity="0.1">
<path d="M90.1584 163.667C89.0841 167.48 92.7018 171.227 95.8542 172.877C96.4077 173.184 97.0581 173.266 97.6704 173.105C98.2824 172.945 98.8089 172.554 99.1407 172.016C99.246 171.836 99.3276 171.643 99.3828 171.442C99.6594 170.496 99.2163 169.175 98.2791 168.729C96.9093 168.118 95.6787 167.233 94.6632 166.128C94.2231 165.625 93.7743 165.118 93.3567 164.596C92.925 164.079 92.4357 163.613 91.8978 163.208C91.3035 162.731 90.3882 162.852 90.1578 163.667L90.1584 163.667Z" fill="#171717"/>
</g>
<g opacity="0.1">
<path d="M145.885 53.2012C141.61 52.5466 137.256 52.8577 132.993 53.4598C129.535 53.9482 125.335 54.7075 124.212 58.5916C123.659 60.5002 123.869 62.7346 123.813 64.6996C123.746 67.0741 123.743 69.4498 123.723 71.8249C123.705 74.0023 123.703 76.1797 123.717 78.3565C123.729 80.5567 123.3 83.3314 124.003 85.4245C124.841 87.9226 128.875 86.701 127.894 84.3517L127.859 84.2113C127.856 83.9452 127.783 83.6848 127.648 83.4553C127.513 83.2261 127.321 83.0356 127.09 82.9033C126.86 82.771 126.598 82.7011 126.333 82.7005C126.066 82.6999 125.805 82.7686 125.574 82.9L125.949 82.87L127.894 85.4242C128.547 83.6725 128.28 81.4042 128.352 79.5442C128.428 77.5642 128.516 75.5863 128.565 73.6063C128.662 69.7462 128.751 65.8891 128.771 62.0263C128.777 60.7237 128.553 59.6206 129.768 58.8814C131.03 58.114 132.713 57.8914 134.132 57.586C137.887 56.7796 141.677 56.5528 145.486 56.1562C147.016 55.9969 147.706 53.479 145.886 53.2L145.885 53.2012Z" fill="#171717"/>
</g>
<g opacity="0.1">
<path d="M117.794 59.2799C116.204 59.2436 114.622 59.8538 113.042 60.0239C111.424 60.1979 109.662 60.2996 108.056 59.9939V63.1196C112.16 62.0924 116.049 59.7656 119.957 58.1156C124.037 56.3936 128.19 54.797 132.376 53.3534C140.69 50.4926 149.23 48.335 157.906 46.9034C159.286 46.6748 160.055 44.9669 159.713 43.7204C159.311 42.2582 157.913 41.6804 156.53 41.9132C147.679 43.3889 138.97 45.6209 130.5 48.5843C126.276 50.0615 122.131 51.7538 118.08 53.6543C114.125 55.5143 109.676 57.3956 106.482 60.4094C105.452 61.3814 106.25 63.1802 107.628 63.1763C109.522 63.1706 111.355 63.2153 113.241 62.9486C114.932 62.7086 116.976 62.4437 118.364 61.3739C119.204 60.7259 119.006 59.3039 117.797 59.2775L117.794 59.2799Z" fill="#171717"/>
</g>
<g opacity="0.1">
<path d="M120.977 50.4029C120.311 48.5129 119.214 46.8908 119.144 44.8247C119.092 43.8944 119.16 42.9614 119.347 42.0482C119.617 40.8635 120.151 39.854 119.324 38.7236C118.8 38.0066 118.032 37.6028 117.133 37.8317L116.881 37.8959C116.494 38.003 116.142 38.2085 115.858 38.492C115.575 38.7755 115.369 39.1277 115.262 39.5141C114.142 43.5971 114.807 49.6502 118.643 52.1975C119.764 52.9421 121.433 51.6971 120.977 50.4029Z" fill="#171717"/>
</g>
</g>
<defs>
<linearGradient id="paint0_linear_28_12837" x1="130.24" y1="31.6555" x2="130.24" y2="53.5444" gradientUnits="userSpaceOnUse">
<stop stop-color="#FFB800"/>
<stop offset="1" stop-color="#FF7F0A"/>
</linearGradient>
<linearGradient id="paint1_linear_28_12837" x1="242.66" y1="246.445" x2="242.66" y2="275.348" gradientUnits="userSpaceOnUse">
<stop stop-color="#FFB800"/>
<stop offset="1" stop-color="#FF7F0A"/>
</linearGradient>
<linearGradient id="paint2_linear_28_12837" x1="133.07" y1="41.8452" x2="133.07" y2="63.9711" gradientUnits="userSpaceOnUse">
<stop stop-color="#FFB800"/>
<stop offset="1" stop-color="#FF7F0A"/>
</linearGradient>
<linearGradient id="paint3_linear_28_12837" x1="151.143" y1="117.452" x2="151.143" y2="131.461" gradientUnits="userSpaceOnUse">
<stop stop-color="#FFB800"/>
<stop offset="1" stop-color="#FF7F0A"/>
</linearGradient>
<linearGradient id="paint4_linear_28_12837" x1="133.329" y1="166.645" x2="133.329" y2="198.912" gradientUnits="userSpaceOnUse">
<stop stop-color="#FFB800"/>
<stop offset="1" stop-color="#FF7F0A"/>
</linearGradient>
<linearGradient id="paint5_linear_28_12837" x1="140.77" y1="166.399" x2="140.77" y2="230.85" gradientUnits="userSpaceOnUse">
<stop stop-color="#FFB800"/>
<stop offset="1" stop-color="#FF7F0A"/>
</linearGradient>
<linearGradient id="paint6_linear_28_12837" x1="41.7236" y1="225.633" x2="41.7236" y2="260.903" gradientUnits="userSpaceOnUse">
<stop stop-color="#FFB800"/>
<stop offset="1" stop-color="#FF7F0A"/>
</linearGradient>
</defs>
</svg>
