<svg width="288" height="288" viewBox="0 0 288 288" fill="none" xmlns="http://www.w3.org/2000/svg">
<g opacity="0.1">
<path d="M122.292 107.586C121.848 109.072 121.917 110.708 121.855 112.248C121.792 113.84 121.788 115.428 121.786 117.022C121.784 120.204 121.775 123.385 121.813 126.568L122.041 145.66C122.118 152.024 122.051 158.388 122.131 164.753L122.25 174.3C122.29 177.476 122.052 180.803 122.568 183.941C122.972 186.394 127.243 186.457 127.586 183.941C128.016 180.785 127.707 177.482 127.661 174.3L127.521 164.754C127.428 158.387 127.188 152.026 127.091 145.661L126.8 126.569C126.751 123.386 126.656 120.204 126.567 117.022C126.522 115.429 126.475 113.84 126.368 112.249C126.265 110.715 126.3 109.056 125.817 107.587C125.259 105.886 122.821 105.814 122.292 107.587L122.292 107.586Z" fill="#171717"/>
</g>
<g opacity="0.1">
<path d="M115.152 197.179C117.162 197.912 119.085 195.234 120.081 193.855C121.406 192.022 122.267 189.895 122.592 187.657C122.747 186.482 121.553 185.407 120.494 185.282C119.247 185.132 118.259 185.852 117.84 187.014C117.142 188.956 116.605 190.77 115.503 192.553C114.74 193.788 112.829 196.332 115.152 197.179Z" fill="#171717"/>
</g>
<g opacity="0.1">
<path d="M109.952 197.483C102.362 195.85 94.1076 196.714 86.6121 198.485C78.822 200.321 71.4615 203.65 64.9374 208.287C51.75 217.68 42.4632 231.514 39.1053 247.39C38.1516 251.857 37.6539 256.411 37.62 260.98C37.6077 263.254 37.722 265.528 37.9623 267.79C38.2194 270.203 38.4123 272.704 39.4524 274.913C40.4103 276.945 43.7241 276.379 44.2107 274.291C44.3169 273.836 44.3931 273.382 44.4705 272.921C44.8305 270.777 42.6105 269.478 40.9215 270.855C40.5591 271.151 40.2015 271.441 39.8595 271.758L44.3037 273.599C44.3694 271.731 43.8345 269.879 43.6224 268.023C43.4088 266.154 43.2822 264.277 43.2423 262.392C43.1514 258.718 43.4016 255.043 43.9899 251.415C45.2058 244.041 47.7051 236.938 51.375 230.427C54.9324 224.044 59.6865 218.406 65.3775 213.822C71.1756 209.205 77.8464 205.832 84.804 203.352C88.7595 201.952 92.859 200.998 97.026 200.509C101.226 200.011 105.388 200.029 109.608 200.027C111.032 200.027 111.411 197.799 109.952 197.485V197.483Z" fill="#171717"/>
</g>
<path fill-rule="evenodd" clip-rule="evenodd" d="M129.449 65.8579L129.402 65.8687C127.928 66.7066 126.412 67.5553 124.735 67.8046C123.059 68.0539 121.167 67.5769 120.177 66.2008C119.116 64.72 119.367 62.665 120.027 60.964C121.158 58.0456 123.841 55.354 126.958 55.6294C125.975 53.0002 125.848 50.0098 126.871 47.3947C127.895 44.7796 130.122 42.6022 132.841 41.9014C135.561 41.2006 138.696 42.1216 140.411 44.3428C141.141 41.9845 142.08 39.6328 143.676 37.7515C145.273 35.8702 147.635 34.501 150.101 34.6015C152.568 34.702 155.002 36.5446 155.295 38.9971C155.631 35.8981 159.026 33.6589 162.103 34.1536C165.18 34.6483 167.6 37.4368 168.138 40.5067C168.474 42.4066 168.077 44.5771 166.582 45.7942C169.377 47.3689 171.421 50.2942 171.732 53.4871C172.042 56.68 170.518 60.0352 167.799 61.7371C165.079 63.439 161.269 63.283 158.813 61.2208C158.348 62.6242 157.49 63.8647 156.34 64.7944C155.191 65.7241 153.799 66.304 152.329 66.4651C150.86 66.6259 149.375 66.3613 148.051 65.7022C146.728 65.0434 145.622 64.018 144.865 62.7484C144.407 63.5947 143.765 64.3267 142.984 64.8892C142.204 65.4514 141.306 65.8294 140.358 65.995C139.411 66.1603 138.438 66.109 137.513 65.8444C136.588 65.5798 135.736 65.1091 135.019 64.4677C135.1 66.079 134.779 67.6855 134.083 69.1414C133.388 70.5976 132.34 71.8573 131.036 72.8065C129.731 73.756 128.21 74.3653 126.611 74.5789C125.012 74.7928 123.384 74.6047 121.876 74.0314L121.8 74.0062C121.941 73.6231 122.081 73.2394 122.221 72.8557L122.221 72.8548C122.404 72.3526 122.587 71.8507 122.772 71.3515C123.591 71.737 124.503 71.8822 125.402 71.7697C126.3 71.6575 127.149 71.2924 127.848 70.7173C128.548 70.1419 129.069 69.3799 129.353 68.5198C129.636 67.6594 129.67 66.7366 129.45 65.8582L129.449 65.8579ZM160.947 36.388C161.004 36.0943 161.288 35.9026 161.582 35.9596C162.33 36.1048 163.039 36.406 163.664 36.8434C164.288 37.2808 164.813 37.8448 165.205 38.4985C165.597 39.1525 165.847 39.8815 165.939 40.6381C166.03 41.3947 165.962 42.1624 165.738 42.8908C165.649 43.177 165.346 43.3372 165.06 43.2493C164.774 43.1611 164.614 42.8578 164.702 42.5719C164.882 41.9887 164.937 41.3743 164.863 40.7686C164.79 40.1626 164.59 39.5791 164.276 39.0559C163.962 38.5324 163.542 38.0809 163.042 37.7308C162.542 37.3807 161.974 37.1395 161.375 37.0234C161.081 36.9661 160.89 36.682 160.947 36.388ZM151.822 36.4441C151.225 35.9947 150.493 35.758 149.745 35.7715C149.446 35.7769 149.208 36.0238 149.213 36.3229C149.219 36.622 149.466 36.8602 149.765 36.8548C150.271 36.8458 150.766 37.006 151.172 37.3105C151.577 37.615 151.869 38.0458 152.001 38.5351C152.079 38.824 152.376 38.9947 152.665 38.9167C152.954 38.8387 153.125 38.5411 153.047 38.2522C152.851 37.5301 152.421 36.8938 151.822 36.4441Z" fill="url(#paint0_linear_28_12821)"/>
<path fill-rule="evenodd" clip-rule="evenodd" d="M171.121 220.265C170.731 222.503 170.676 224.787 170.958 227.041L170.97 227.218C171.493 227.185 172.021 227.16 172.548 227.145C174.136 227.079 175.726 227.048 177.318 227.051C177.585 224.998 177.644 222.923 177.495 220.857C177.419 219.785 177.264 218.658 176.592 217.82C176.322 217.482 175.979 217.208 175.59 217.019C175.201 216.83 174.774 216.729 174.341 216.725C173.908 216.722 173.479 216.815 173.086 216.997C172.694 217.179 172.347 217.447 172.07 217.78C171.496 218.47 171.272 219.38 171.121 220.265ZM176.006 218.386C175.875 218.117 175.551 218.005 175.282 218.135C175.013 218.266 174.901 218.591 175.031 218.86C175.715 220.266 175.958 221.846 175.726 223.393C175.682 223.688 175.886 223.964 176.182 224.009C176.478 224.053 176.754 223.849 176.798 223.553C177.062 221.79 176.786 219.989 176.006 218.386Z" fill="url(#paint1_linear_28_12821)"/>
<path fill-rule="evenodd" clip-rule="evenodd" d="M147.873 273.708C145.654 251.469 144.854 229.112 145.477 206.772L145.45 206.746C144.897 207.281 143.962 207.404 143.149 207.447L136.533 207.804C135.966 207.833 135.33 207.84 134.85 207.584C133.259 229.725 132.254 251.889 131.834 274.076L131.838 274.376L147.881 274.098L147.873 273.708ZM142.851 210.728C142.853 210.429 142.612 210.185 142.313 210.183C142.013 210.18 141.769 210.421 141.767 210.72L141.384 265.533C141.382 265.832 141.623 266.076 141.922 266.078C142.221 266.08 142.465 265.839 142.467 265.54L142.851 210.728Z" fill="url(#paint2_linear_28_12821)"/>
<path d="M192.245 78.3252L181.136 99.0204L181.085 99.1647L158.938 101.845L158.931 101.779L165.732 80.5356L192.245 78.3252Z" fill="#171717"/>
<path d="M182.844 117.158C184 118.877 185.141 120.625 185.918 122.547C186.763 124.624 187.164 126.949 186.629 129.131C186.329 130.355 185.542 131.651 184.289 131.801C183.597 131.845 182.916 131.614 182.393 131.158C181.88 130.703 181.43 130.181 181.053 129.608C179.62 127.61 178.185 125.615 176.748 123.623L176.438 123.576C177.651 115.399 179.37 107.269 181.083 99.1826L181.158 99.1973C180.931 102.133 181.671 105.091 182.975 107.732C184.279 110.372 186.135 112.712 188.187 114.821C188.723 115.328 189.202 115.891 189.617 116.501C190.029 117.12 190.191 117.874 190.067 118.607C189.832 119.691 188.734 120.442 187.629 120.507C186.524 120.572 185.451 120.045 184.62 119.315C183.939 118.675 183.342 117.95 182.844 117.158Z" fill="#171717"/>
<path d="M145.821 195.756L146.781 195.594L146.841 195.948C146.331 197.075 147.171 198.599 146.371 199.542C146.269 199.662 146.148 199.763 146.011 199.842C145.513 200.079 144.966 200.194 144.415 200.178C141.309 200.3 138.204 200.424 135.1 200.55C134.903 200.563 134.704 200.554 134.508 200.524C134.391 200.504 134.278 200.464 134.176 200.404C133.858 200.153 133.649 199.79 133.591 199.389C133.349 198.473 133.17 197.542 133.054 196.601L133.065 196.254C133.628 196.269 134.195 196.287 134.759 196.305C134.309 194.15 133.975 191.973 133.758 189.783L133.816 189.775L146.176 188.562L146.591 188.605L145.821 195.756Z" fill="url(#paint3_linear_28_12821)"/>
<path d="M146.066 199.926C146.03 201.66 145.993 203.392 145.954 205.123C145.974 205.54 145.903 205.955 145.744 206.341C145.667 206.49 145.567 206.627 145.448 206.745C144.896 207.28 143.96 207.403 143.147 207.446L136.531 207.803C135.964 207.833 135.328 207.839 134.848 207.583C134.7 207.506 134.568 207.4 134.461 207.272C134.086 206.832 134.078 206.2 134.097 205.622C134.144 204.004 134.258 202.391 134.44 200.782L134.508 200.522C134.704 200.553 134.903 200.561 135.101 200.548C138.203 200.421 141.308 200.297 144.415 200.176C144.966 200.192 145.514 200.077 146.012 199.84L146.066 199.926Z" fill="url(#paint4_linear_28_12821)"/>
<path d="M121.619 139.316L121.301 139.32C121.178 141.194 119.148 142.697 117.321 142.267C115.493 141.837 114.345 139.594 115.063 137.861C113.731 140.107 112.297 142.455 110.025 143.737C109.321 144.134 108.486 144.419 107.715 144.185C106.451 143.802 105.963 142.265 105.906 140.941C105.806 138.491 106.492 136.073 107.863 134.039C106.227 135.796 104.046 136.948 101.673 137.308C100.611 137.467 99.3071 137.348 98.7869 136.405C98.3138 135.549 98.7473 134.487 99.26 133.653C100.3 131.97 101.644 130.5 102.836 128.921C107.366 122.875 109.603 115.418 109.149 107.876L121.566 106.374C121.471 117.353 121.489 128.334 121.619 139.316Z" fill="#171717"/>
<path d="M146.366 142.996C148.143 144.441 151.025 143.224 152.098 141.196C153.171 139.169 152.965 136.739 152.73 134.46C151.852 125.9 150.975 117.339 150.097 108.778L168.271 108.03" stroke="#171717" stroke-width="1.0836" stroke-linecap="round" stroke-linejoin="round"/>
<path d="M156.49 117.389C156.825 116.563 157.397 115.852 158.133 115.348C158.87 114.844 159.738 114.568 160.631 114.554C161.523 114.54 162.4 114.789 163.152 115.27C163.904 115.752 164.497 116.443 164.858 117.259" stroke="#171717" stroke-width="1.0836" stroke-linecap="round" stroke-linejoin="round"/>
<path d="M140.937 117.736C140.366 117.175 139.676 116.748 138.919 116.488C138.161 116.228 137.355 116.141 136.559 116.233C135.763 116.326 134.998 116.596 134.32 117.022C133.642 117.449 133.069 118.023 132.642 118.7" stroke="#171717" stroke-width="1.0836" stroke-linecap="round" stroke-linejoin="round"/>
<path d="M144.499 154.879C141.958 154.996 139.468 154.14 137.536 152.485C135.604 150.83 134.376 148.501 134.101 145.973" stroke="#171717" stroke-width="1.0836" stroke-linecap="round" stroke-linejoin="round"/>
<path d="M122.76 184.545C122.171 169.473 121.791 154.397 121.62 139.316C121.49 128.336 121.471 117.355 121.566 106.374V106.2" stroke="#171717" stroke-width="1.0836" stroke-linecap="round" stroke-linejoin="round"/>
<path d="M110.477 196.146C110.315 196.179 110.151 196.194 109.986 196.193C23.7671 196.193 38.0912 275.993 38.0912 275.993L131.836 274.376L147.879 274.097L245.104 272.422C245.104 272.422 264.224 191.202 173.209 192.733C173.209 192.733 173.179 192.668 173.126 192.545C172.494 191.108 168.283 181.898 164.288 181.663C163.227 181.602 159.875 181.811 155.415 182.169C152.948 182.367 150.141 182.609 147.198 182.873C142.672 183.278 137.818 183.733 133.372 184.163C129.342 184.55 125.643 184.913 122.823 185.196C119.493 185.526 117.38 185.741 117.38 185.741C117.38 185.741 114.551 195.406 110.477 196.146Z" stroke="#171717" stroke-width="1.2" stroke-linecap="round" stroke-linejoin="round"/>
<path d="M181.136 99.0204L192.245 78.3252L165.732 80.5356L158.931 101.779" stroke="#171717" stroke-width="1.0836" stroke-linecap="round" stroke-linejoin="round"/>
<path d="M128.001 105.352L106.583 82.2363L87.7192 89.5425L108.963 107.898L109.148 107.876L121.565 106.374L128.03 105.59L158.939 101.845L181.086 99.1647C181.086 99.1719 181.082 99.1755 181.082 99.1827C179.37 107.27 177.651 115.4 176.437 123.576C175.347 130.912 174.66 138.28 174.747 145.694C174.78 148.508 174.844 151.581 173.122 153.806C170.911 156.652 166.776 156.909 163.565 158.548C159.722 160.513 157.263 164.54 156.19 168.718C155.117 172.896 155.24 177.285 155.37 181.601" stroke="#171717" stroke-width="1.0836" stroke-linecap="round" stroke-linejoin="round"/>
<path d="M109.144 107.808C109.144 107.829 109.147 107.854 109.147 107.876C109.602 115.417 107.364 122.875 102.834 128.921C101.642 130.5 100.299 131.97 99.2585 133.653C98.7458 134.487 98.3123 135.549 98.7854 136.405C99.3056 137.347 100.609 137.467 101.671 137.308C104.044 136.948 106.226 135.796 107.862 134.039C106.491 136.073 105.805 138.491 105.904 140.941C105.962 142.263 106.449 143.802 107.714 144.184C108.486 144.419 109.321 144.134 110.024 143.737C112.295 142.455 113.729 140.107 115.062 137.86C114.342 139.594 115.492 141.841 117.319 142.267C119.146 142.693 121.176 141.194 121.299 139.32" stroke="#171717" stroke-width="1.0836" stroke-linecap="round" stroke-linejoin="round"/>
<path d="M182.555 116.729C182.631 116.844 182.71 116.96 182.786 117.075C182.804 117.101 182.823 117.129 182.844 117.158C184 118.877 185.141 120.626 185.918 122.547C186.763 124.624 187.164 126.95 186.629 129.131C186.329 130.355 185.542 131.651 184.289 131.801C183.597 131.846 182.916 131.614 182.393 131.158C181.88 130.703 181.43 130.182 181.054 129.608C179.62 127.61 178.185 125.616 176.749 123.623" stroke="#171717" stroke-width="1.0836" stroke-linecap="round" stroke-linejoin="round"/>
<path d="M181.158 99.1975C180.93 102.134 181.67 105.092 182.974 107.732C184.278 110.372 186.134 112.712 188.186 114.822C188.722 115.328 189.201 115.892 189.616 116.502C190.029 117.121 190.19 117.874 190.066 118.607C189.831 119.691 188.733 120.442 187.628 120.507C186.523 120.572 185.45 120.045 184.62 119.315C183.938 118.675 183.341 117.951 182.843 117.159" stroke="#171717" stroke-width="1.0836" stroke-linecap="round" stroke-linejoin="round"/>
<path d="M133.451 184.979C133.491 186.582 133.593 188.183 133.758 189.782C133.975 191.973 134.309 194.15 134.758 196.305V196.312" stroke="#171717" stroke-width="1.0836" stroke-linecap="round" stroke-linejoin="round"/>
<path d="M110.494 196.244C118.013 196.023 125.537 196.027 133.063 196.254C133.626 196.269 134.194 196.287 134.757 196.305C134.787 196.305 134.811 196.309 134.84 196.309" stroke="#171717" stroke-width="1.0836" stroke-linecap="round" stroke-linejoin="round"/>
<path d="M147.2 182.924C146.998 184.816 146.795 186.71 146.59 188.605L145.821 195.756C145.817 195.816 145.81 195.879 145.803 195.941" stroke="#171717" stroke-width="1.0836" stroke-linecap="round" stroke-linejoin="round"/>
<path d="M145.524 195.807C145.622 195.788 145.723 195.774 145.821 195.756L146.781 195.593C155.359 194.152 164.01 193.181 172.695 192.686" stroke="#171717" stroke-width="1.0836" stroke-linecap="round" stroke-linejoin="round"/>
<path d="M133.815 189.775L146.175 188.562" stroke="#171717" stroke-width="1.0836" stroke-linecap="round" stroke-linejoin="round"/>
<path d="M133.054 196.601C133.17 197.542 133.35 198.473 133.592 199.389C133.65 199.79 133.859 200.153 134.177 200.404C134.28 200.464 134.392 200.504 134.509 200.524C134.705 200.555 134.904 200.563 135.102 200.55C138.204 200.423 141.309 200.299 144.416 200.178C144.967 200.194 145.515 200.079 146.013 199.842C146.149 199.763 146.271 199.662 146.373 199.542C147.171 198.599 146.333 197.075 146.842 195.948" stroke="#171717" stroke-width="1.0836" stroke-linecap="round" stroke-linejoin="round"/>
<path d="M134.44 200.783C134.26 202.391 134.146 204.004 134.097 205.623C134.079 206.201 134.086 206.833 134.462 207.273C134.569 207.401 134.7 207.507 134.848 207.584C135.328 207.84 135.964 207.833 136.531 207.804L143.148 207.447C143.961 207.404 144.896 207.281 145.449 206.746C145.568 206.628 145.668 206.491 145.745 206.342C145.903 205.956 145.975 205.541 145.955 205.124C145.991 203.391 146.028 201.658 146.067 199.927" stroke="#171717" stroke-width="1.0836" stroke-linecap="round" stroke-linejoin="round"/>
<path d="M134.853 207.548C134.854 207.56 134.853 207.573 134.85 207.584C133.26 229.72 132.255 251.884 131.834 274.076" stroke="#171717" stroke-width="1.0836" stroke-linecap="round" stroke-linejoin="round"/>
<path d="M145.477 206.772C144.854 229.112 145.654 251.469 147.873 273.707" stroke="#171717" stroke-width="1.0836" stroke-linecap="round" stroke-linejoin="round"/>
<path d="M190.674 228.254V245.847C190.674 246.641 190.358 247.403 189.795 247.964C189.233 248.526 188.471 248.841 187.677 248.841H165.88C165.487 248.841 165.097 248.763 164.734 248.613C164.371 248.462 164.041 248.242 163.763 247.964C163.485 247.686 163.264 247.356 163.113 246.992C162.963 246.629 162.886 246.24 162.886 245.847V228.254" stroke="#171717" stroke-width="1.0836" stroke-linecap="round" stroke-linejoin="round"/>
<path d="M162.76 227.965L162.85 227.955C165.548 227.611 168.254 227.367 170.969 227.221V227.218C171.492 227.185 172.019 227.16 172.547 227.145C174.137 227.076 175.727 227.045 177.317 227.052C181.746 227.059 186.171 227.33 190.569 227.862" stroke="#171717" stroke-width="1.0836" stroke-linecap="round" stroke-linejoin="round"/>
<path d="M177.304 227.174C177.311 227.135 177.315 227.091 177.318 227.051C177.585 224.998 177.644 222.923 177.495 220.857C177.419 219.785 177.264 218.658 176.592 217.82C176.322 217.482 175.979 217.208 175.59 217.019C175.201 216.83 174.774 216.729 174.341 216.725C173.908 216.722 173.479 216.815 173.087 216.997C172.694 217.179 172.347 217.447 172.07 217.78C171.496 218.47 171.272 219.38 171.121 220.265C170.731 222.503 170.676 224.787 170.958 227.041C171.074 227.008 171.189 226.981 171.305 226.947" stroke="#171717" stroke-width="1.0836" stroke-linecap="round" stroke-linejoin="round"/>
<path d="M173.085 218.618C172.858 221.457 172.678 224.299 172.548 227.145C172.353 231.356 172.266 235.571 172.287 239.79" stroke="#171717" stroke-width="1.0836" stroke-linecap="round" stroke-linejoin="round"/>
<path d="M121.875 74.0309C123.384 74.6042 125.011 74.7923 126.61 74.5787C128.21 74.3648 129.73 73.7555 131.035 72.8063C132.34 71.8568 133.387 70.5971 134.083 69.1412C134.778 67.685 135.1 66.0788 135.018 64.4672C135.735 65.1089 136.588 65.5796 137.512 65.8439C138.437 66.1085 139.41 66.1601 140.358 65.9945C141.305 65.8292 142.203 65.4509 142.984 64.8887C143.764 64.3262 144.407 63.5945 144.864 62.7479C145.621 64.0175 146.727 65.0429 148.051 65.702C149.374 66.3608 150.859 66.6254 152.329 66.4646C153.798 66.3035 155.191 65.7239 156.34 64.7939C157.489 63.8642 158.347 62.6237 158.812 61.2203C161.268 63.2825 165.078 63.4343 167.798 61.7366C170.517 60.0389 172.042 56.6804 171.731 53.4866C171.421 50.2928 169.376 47.3684 166.581 45.7937C168.076 44.5766 168.473 42.4061 168.137 40.5062C167.599 37.4363 165.179 34.6481 162.102 34.1531C159.025 33.6581 155.63 35.8976 155.294 38.9966C155.002 36.5441 152.567 34.6985 150.1 34.601C147.634 34.5035 145.27 35.8688 143.675 37.751C142.08 39.6332 141.14 41.984 140.41 44.3423C138.695 42.1223 135.56 41.204 132.84 41.9009C130.121 42.5978 127.89 44.7794 126.87 47.3942C125.85 50.009 125.974 52.9997 126.957 55.6289C123.84 55.3544 121.156 58.0451 120.027 60.9635C119.369 62.6645 119.116 64.7195 120.177 66.2003C121.167 67.5764 123.059 68.0531 124.735 67.8041C126.41 67.5551 127.927 66.7061 129.401 65.8682" stroke="#171717" stroke-width="1.0836" stroke-linecap="round" stroke-linejoin="round"/>
<path d="M121.773 74.0779C121.781 74.0527 121.791 74.0311 121.799 74.0059C122.124 73.1209 122.445 72.2323 122.77 71.3512C123.59 71.7367 124.502 71.8819 125.4 71.7697C126.299 71.6572 127.147 71.2925 127.847 70.7171C128.546 70.1417 129.068 69.3796 129.351 68.5195C129.635 67.6594 129.668 66.7363 129.448 65.8579C129.416 65.7241 129.376 65.5906 129.333 65.4604" stroke="#171717" stroke-width="1.0836" stroke-linecap="round" stroke-linejoin="round"/>
<path d="M37.4307 227.003C39.3396 220.066 43.8906 214.153 50.1081 210.533" stroke="#171717" stroke-width="1.0836" stroke-linecap="round" stroke-linejoin="round"/>
<path d="M249.675 223.73C249.128 217.878 246.94 212.298 243.364 207.633" stroke="#171717" stroke-width="1.0836" stroke-linecap="round" stroke-linejoin="round"/>
<path d="M173.959 162.702C177.846 162.072 180.973 158.319 180.889 154.383" stroke="#171717" stroke-width="1.0836" stroke-linecap="round" stroke-linejoin="round"/>
<path d="M205.144 91.0435C207.421 93.6283 209.75 96.2998 210.897 99.5485C212.043 102.797 211.739 106.804 209.247 109.18C206.754 111.557 201.891 111.204 200.494 108.055C200.086 107.134 200.041 105.948 200.732 105.214C202.1 103.759 204.497 105.34 205.592 107.012C207.201 109.51 208.247 112.329 208.656 115.273C209.064 118.217 208.826 121.214 207.958 124.056C207.277 126.23 206.13 128.391 204.18 129.569C202.231 130.747 199.349 130.575 198.025 128.721C197.4 127.847 197.365 126.348 198.362 125.946C199.271 125.58 200.206 126.417 200.735 127.243C203.288 131.23 202.751 136.929 199.496 140.368" stroke="#171717" stroke-width="1.0836" stroke-linecap="round" stroke-linejoin="round"/>
<path d="M193.146 87.8715L196.476 81.7617" stroke="#171717" stroke-width="1.0836" stroke-linecap="round" stroke-linejoin="round"/>
<path d="M180.436 66.9963C181.453 65.9649 183.284 66.603 184.238 67.6929C185.192 68.7828 185.708 70.2222 186.758 71.2206C188.957 73.3116 192.45 72.7173 195.465 73.0614C197.54 73.3185 199.523 74.0733 201.243 75.2622C202.963 76.4508 204.37 78.0381 205.344 79.8882L205.333 78.6648" stroke="#171717" stroke-width="1.0836" stroke-linecap="round" stroke-linejoin="round"/>
<path d="M190.594 61.1248L198.754 53.2246" stroke="#171717" stroke-width="1.0836" stroke-linecap="round" stroke-linejoin="round"/>
<path d="M190.801 53.9363L192.331 52.6616" stroke="#171717" stroke-width="1.0836" stroke-linecap="round" stroke-linejoin="round"/>
<path d="M196.665 62.3496L198.705 60.3096" stroke="#171717" stroke-width="1.0836" stroke-linecap="round" stroke-linejoin="round"/>
<path d="M179.472 44.3091L199.998 32.5542" stroke="#171717" stroke-width="1.0836" stroke-linecap="round" stroke-linejoin="round"/>
<path d="M178.628 34.0373C178.088 31.4393 177.881 28.7829 178.013 26.1326" stroke="#171717" stroke-width="1.0836" stroke-linecap="round" stroke-linejoin="round"/>
<path d="M174.479 30.7204L181.618 28.6804" stroke="#171717" stroke-width="1.0836" stroke-linecap="round" stroke-linejoin="round"/>
<path d="M96.7588 51.3189L103.682 54.5817L101.567 44.7282L112.694 37.7256" stroke="#171717" stroke-width="1.0836" stroke-linecap="round" stroke-linejoin="round"/>
<path d="M109.333 49.4259C109.11 48.4359 108.898 47.3469 109.372 46.4496C109.845 45.5523 111.327 45.1968 111.844 46.0695C112.014 46.431 112.081 46.8321 112.038 47.229C111.993 49.6134 111.948 51.9972 111.904 54.381C113.51 52.6518 115.446 51.2613 117.597 50.2905" stroke="#171717" stroke-width="1.0836" stroke-linecap="round" stroke-linejoin="round"/>
<path d="M131.434 34.2786C127.516 29.1847 124.096 23.7263 121.222 17.9788" stroke="#171717" stroke-width="1.0836" stroke-linecap="round" stroke-linejoin="round"/>
<path d="M107.479 64.1614C100.583 62.8102 93.5559 62.2481 86.5332 62.486" stroke="#171717" stroke-width="1.0836" stroke-linecap="round" stroke-linejoin="round"/>
<path d="M130.941 84.369L124.812 80.8176" stroke="#171717" stroke-width="1.0836" stroke-linecap="round" stroke-linejoin="round"/>
<path d="M126.002 85.5246L129.902 78.6846" stroke="#171717" stroke-width="1.0836" stroke-linecap="round" stroke-linejoin="round"/>
<path d="M148.109 73.2644C147.449 78.5903 147.188 83.9579 147.329 89.3228L147.968 88.0991" stroke="#171717" stroke-width="1.0836" stroke-linecap="round" stroke-linejoin="round"/>
<path d="M89.084 105.661C88.0853 105.46 87.1526 105.012 86.3714 104.358C85.5902 103.703 84.9851 102.864 84.6113 101.916" stroke="#171717" stroke-width="1.0836" stroke-linecap="round" stroke-linejoin="round"/>
<path d="M76.3907 86.0044C73.3733 85.2844 70.3049 84.5578 67.2068 84.7189C64.1087 84.88 60.9197 86.0557 59.0195 88.5082C57.2354 90.811 56.8166 93.8995 56.9447 96.8098C57.1442 100.716 58.1942 104.533 60.0215 107.992C61.8488 111.45 64.4093 114.469 67.5242 116.835C69.1715 118.068 71.0972 119.145 73.1531 119.051C75.209 118.957 77.2931 117.27 77.1455 115.218C76.9973 113.176 74.585 111.792 72.6131 112.34C70.6412 112.889 69.3227 114.92 69.173 116.962C69.0233 119.004 69.8597 121.01 71.0312 122.688C72.6299 124.978 74.8283 126.766 76.8128 128.731C78.7973 130.696 80.6453 132.978 81.2303 135.708C81.8153 138.439 80.7803 141.682 78.2561 142.878C75.7319 144.074 72.0761 142.112 72.3161 139.329" stroke="#171717" stroke-width="1.0836" stroke-linecap="round" stroke-linejoin="round"/>
<path d="M150.239 27.3064C149.583 24.2795 148.636 21.3232 147.41 18.4789L151.767 20.7964L153.117 16.5193L155.442 25.2793" stroke="#171717" stroke-width="1.0836" stroke-linecap="round" stroke-linejoin="round"/>
<path d="M159.999 17.1261C159.619 16.5801 158.809 16.4661 158.201 16.7334C157.604 17.0414 157.134 17.5479 156.871 18.1656C156.403 19.0615 156.269 20.0943 156.493 21.0798C156.61 21.5676 156.853 22.0167 157.195 22.3836C157.537 22.7505 157.969 23.0229 158.447 23.1744C158.931 23.3078 159.446 23.2743 159.908 23.0791C160.37 22.884 160.753 22.5386 160.995 22.0989" stroke="#171717" stroke-width="1.0836" stroke-linecap="round" stroke-linejoin="round"/>
<path d="M161.201 13.3929C161.188 13.2008 161.217 13.0082 161.287 12.8288C161.357 12.6494 161.466 12.4877 161.606 12.3555C161.746 12.2232 161.913 12.1237 162.096 12.064C162.279 12.0044 162.473 11.9861 162.664 12.0105C162.784 13.1316 162.559 14.2625 162.019 15.2523L164.371 14.4201" stroke="#171717" stroke-width="1.0836" stroke-linecap="round" stroke-linejoin="round"/>
<path d="M158.524 61.0729C158.244 58.5622 155.855 56.461 156.218 53.9611C156.387 52.7986 157.155 51.7915 158.092 51.0811C159.059 50.4124 160.109 49.8718 161.215 49.4731C161.932 49.1791 162.695 48.8791 163.46 49.0006C164.876 49.2247 165.66 50.7238 166.223 52.0423C166.715 53.1961 167.183 54.6193 166.422 55.618C165.735 56.5213 164.417 56.5669 163.283 56.53L163.798 56.2657" stroke="#171717" stroke-width="1.0836" stroke-linecap="round" stroke-linejoin="round"/>
<path d="M150.747 42.3662C149.93 41.4611 148.513 41.2448 147.375 41.6825C146.814 41.924 146.306 42.2744 145.881 42.713C145.456 43.1519 145.122 43.6703 144.897 44.2388C144.456 45.3788 144.243 46.595 144.271 47.8175" stroke="#171717" stroke-width="1.0836" stroke-linecap="round" stroke-linejoin="round"/>
<path d="M140.368 44.0066L139.01 49.277C138.861 49.6697 138.849 50.1005 138.974 50.501C139.225 51.0614 139.926 51.2279 140.534 51.3176C142.287 51.5759 144.048 51.7712 145.817 51.9041C146.597 51.9641 147.453 51.9875 148.075 51.5141C148.684 51.0527 148.897 50.2481 149.071 49.5041" stroke="#171717" stroke-width="1.0836" stroke-linecap="round" stroke-linejoin="round"/>
<path d="M144.689 62.7128L142.413 59.8628C142.207 59.6552 142.076 59.3855 142.039 59.0957C142.034 58.6187 142.512 58.3001 142.932 58.0757L149.348 54.6311L150.709 58.5362C150.795 58.7426 150.842 58.9631 150.848 59.1869C150.818 59.4212 150.72 59.642 150.567 59.8217C150.414 60.0017 150.212 60.1331 149.985 60.2C149.53 60.326 149.054 60.3605 148.585 60.3014" stroke="#171717" stroke-width="1.0836" stroke-linecap="round" stroke-linejoin="round"/>
<path d="M134.793 64.2945C133.876 63.6417 133.039 62.8824 132.301 62.0322C131.895 61.6269 131.61 61.1172 131.477 60.5595C131.342 59.7288 131.841 58.8984 132.518 58.3995C133.194 57.9006 134.025 57.6636 134.836 57.4377C135.41 58.0011 135.703 58.7838 135.976 59.5413C136.248 60.2988 136.528 61.0836 137.086 61.6623C137.643 62.241 138.567 62.5533 139.276 62.1696" stroke="#171717" stroke-width="1.0836" stroke-linecap="round" stroke-linejoin="round"/>
<path d="M127.033 55.635C127.379 55.9506 127.806 56.1639 128.266 56.2512C128.726 56.3388 129.202 56.2968 129.639 56.1303C130.077 55.9635 130.46 55.6788 130.745 55.3077C131.031 54.9366 131.208 54.4935 131.256 54.0276C131.426 52.4019 130.032 50.7942 130.562 49.2477C130.832 48.4629 131.549 47.913 132.302 47.5623C133.152 47.166 134.324 47.0397 134.889 47.7882C135.446 48.5256 135.041 49.5669 134.671 50.4132C134.344 51.1593 134.053 51.9984 134.307 52.7724C134.851 54.4326 137.297 54.5028 138.384 55.8711" stroke="#171717" stroke-width="1.0836" stroke-linecap="round" stroke-linejoin="round"/>
<path d="M126.989 55.7085C126.412 55.8489 126.076 56.4996 126.103 57.093C126.174 57.6858 126.398 58.2501 126.752 58.731C127.106 59.2098 127.375 59.7453 127.549 60.3147C127.683 61.1052 127.529 61.9179 127.114 62.6043C126.784 63.2139 126.244 63.816 125.551 63.8166C124.853 63.8166 124.289 63.1728 124.137 62.4906C123.986 61.8084 124.147 61.1007 124.308 60.4206" stroke="#171717" stroke-width="1.0836" stroke-linecap="round" stroke-linejoin="round"/>
<path d="M149.754 47.1484C151.121 46.9417 152.503 47.2786 153.87 47.4838C155.237 47.689 156.72 47.7427 157.911 47.0416C159.492 46.1116 160.096 44.1649 160.572 42.3937C160.74 41.8729 160.83 41.3299 160.837 40.7827C160.838 40.5088 160.779 40.2379 160.664 39.9895C160.548 39.7411 160.379 39.5215 160.168 39.3463C159.343 38.7379 158.082 39.2779 157.573 40.1683C157.063 41.0587 157.093 42.1459 157.137 43.1707" stroke="#171717" stroke-width="1.0836" stroke-linecap="round" stroke-linejoin="round"/>
<path d="M231.54 262.765L235.506 258.398" stroke="#171717" stroke-width="1.0836" stroke-linecap="round" stroke-linejoin="round"/>
<path d="M219.329 252.99L215.399 249.14L215.7 248.459" stroke="#171717" stroke-width="1.0836" stroke-linecap="round" stroke-linejoin="round"/>
<path d="M199.936 233.023L203.991 227.565" stroke="#171717" stroke-width="1.0836" stroke-linecap="round" stroke-linejoin="round"/>
<path d="M194.539 260.299L191.042 257.62L191.254 257.149" stroke="#171717" stroke-width="1.0836" stroke-linecap="round" stroke-linejoin="round"/>
<path d="M180.505 239.442L183.055 235.533" stroke="#171717" stroke-width="1.0836" stroke-linecap="round" stroke-linejoin="round"/>
<path d="M184.71 213.175L181.17 210.252" stroke="#171717" stroke-width="1.0836" stroke-linecap="round" stroke-linejoin="round"/>
<path d="M160.948 264.413L164.694 260.17" stroke="#171717" stroke-width="1.0836" stroke-linecap="round" stroke-linejoin="round"/>
<path d="M154.397 222.367L157.044 218.871" stroke="#171717" stroke-width="1.0836" stroke-linecap="round" stroke-linejoin="round"/>
<path d="M120.144 263.354C121.695 262.388 123.024 261.105 124.046 259.59" stroke="#171717" stroke-width="1.0836" stroke-linecap="round" stroke-linejoin="round"/>
<path d="M119.761 240.986L115.597 237.746" stroke="#171717" stroke-width="1.0836" stroke-linecap="round" stroke-linejoin="round"/>
<path d="M118.983 214.398C120.331 212.82 121.424 211.041 122.223 209.126L122.219 209.579" stroke="#171717" stroke-width="1.0836" stroke-linecap="round" stroke-linejoin="round"/>
<path d="M100.43 220.661L95.8423 217.217" stroke="#171717" stroke-width="1.0836" stroke-linecap="round" stroke-linejoin="round"/>
<path d="M92.3779 244.496L94.8262 241.073" stroke="#171717" stroke-width="1.0836" stroke-linecap="round" stroke-linejoin="round"/>
<path d="M80.4103 260.185C78.9322 259.324 77.7022 258.094 76.8403 256.615" stroke="#171717" stroke-width="1.0836" stroke-linecap="round" stroke-linejoin="round"/>
<path d="M56.6353 250.699L60.9853 245.359" stroke="#171717" stroke-width="1.0836" stroke-linecap="round" stroke-linejoin="round"/>
<path d="M76.3309 231.122L71.3071 227.279" stroke="#171717" stroke-width="1.0836" stroke-linecap="round" stroke-linejoin="round"/>
<path d="M73.2588 213.767L77.3355 210.959" stroke="#171717" stroke-width="1.0836" stroke-linecap="round" stroke-linejoin="round"/>
<path d="M67.4082 133.224L63.9663 130.164" stroke="#171717" stroke-width="1.0836" stroke-linecap="round" stroke-linejoin="round"/>
<path d="M63.2578 135.178L67.8304 129.047" stroke="#171717" stroke-width="1.0836" stroke-linecap="round" stroke-linejoin="round"/>
<path d="M213.491 121.751L217.315 119.074" stroke="#171717" stroke-width="1.0836" stroke-linecap="round" stroke-linejoin="round"/>
<path d="M216.168 122.516L214.638 119.074" stroke="#171717" stroke-width="1.0836" stroke-linecap="round" stroke-linejoin="round"/>
<path d="M202.783 146.608L206.99 145.461" stroke="#171717" stroke-width="1.0836" stroke-linecap="round" stroke-linejoin="round"/>
<path d="M204.788 148.887L203.967 143.925" stroke="#171717" stroke-width="1.0836" stroke-linecap="round" stroke-linejoin="round"/>
<path d="M56.3183 84.2746L54.0239 81.5977" stroke="#171717" stroke-width="1.0836" stroke-linecap="round" stroke-linejoin="round"/>
<path d="M53.7578 84.1404C54.4163 83.0727 55.3442 82.1973 56.4479 81.6021" stroke="#171717" stroke-width="1.0836" stroke-linecap="round" stroke-linejoin="round"/>
<path d="M215.801 216.823C213.909 215.558 212.372 213.832 211.334 211.806" stroke="#171717" stroke-width="1.0836" stroke-linecap="round" stroke-linejoin="round"/>
<defs>
<linearGradient id="paint0_linear_28_12821" x1="145.614" y1="34.0849" x2="145.614" y2="74.6647" gradientUnits="userSpaceOnUse">
<stop stop-color="#FF9A34"/>
<stop offset="1" stop-color="#EB6421"/>
</linearGradient>
<linearGradient id="paint1_linear_28_12821" x1="174.178" y1="216.725" x2="174.178" y2="227.218" gradientUnits="userSpaceOnUse">
<stop stop-color="#FF9A34"/>
<stop offset="1" stop-color="#EB6421"/>
</linearGradient>
<linearGradient id="paint2_linear_28_12821" x1="139.857" y1="206.746" x2="139.857" y2="274.376" gradientUnits="userSpaceOnUse">
<stop stop-color="#FF9A34"/>
<stop offset="1" stop-color="#EB6421"/>
</linearGradient>
<linearGradient id="paint3_linear_28_12821" x1="139.947" y1="188.562" x2="139.947" y2="200.556" gradientUnits="userSpaceOnUse">
<stop stop-color="#FF9A34"/>
<stop offset="1" stop-color="#EB6421"/>
</linearGradient>
<linearGradient id="paint4_linear_28_12821" x1="140.079" y1="199.84" x2="140.079" y2="207.818" gradientUnits="userSpaceOnUse">
<stop stop-color="#FF9A34"/>
<stop offset="1" stop-color="#EB6421"/>
</linearGradient>
</defs>
</svg>
