<svg width="288" height="288" viewBox="0 0 288 288" fill="none" xmlns="http://www.w3.org/2000/svg">
<path fill-rule="evenodd" clip-rule="evenodd" d="M143.644 94.3074C145.605 94.3128 147.571 94.3236 149.533 94.3347L149.928 93.9558V93.7524C155.603 94.5159 161.503 94.4775 166.848 92.4504C175.539 89.1543 181.631 80.9526 184.647 72.1575C186.998 65.3016 187.745 58.0503 188.13 50.7879L188.196 50.7933C191.106 47.6511 194.755 46.0581 199.029 45.8163C203.303 45.5691 207.582 46.7064 211.428 48.5904L211.554 48.6015C210.65 57.7845 208.749 66.8415 205.884 75.6129C202.56 85.776 197.858 95.6529 190.734 103.624C183.79 111.381 174.363 117.226 164.058 118.55L164.08 118.726C166.287 135.809 167.574 152.999 167.936 170.22L167.947 170.561C167.539 170.575 167.132 170.591 166.726 170.607H166.723C166.359 170.622 165.994 170.636 165.629 170.649C158.487 170.924 151.347 171.196 144.209 171.467V171.42C147.851 145.766 143.066 119.749 138.287 94.281H138.539C139.206 94.2846 139.871 94.2879 140.537 94.2909H140.542H140.544C141.577 94.296 142.609 94.3008 143.644 94.3074ZM157.676 108.301C158.129 108.251 158.536 108.577 158.586 109.03C160.533 126.717 161.89 144.443 162.654 162.208C162.674 162.663 162.321 163.047 161.867 163.066C161.412 163.086 161.028 162.733 161.008 162.279C160.245 144.551 158.892 126.861 156.948 109.21C156.898 108.758 157.224 108.351 157.676 108.301ZM203.92 50.8827C203.878 50.4297 203.477 50.0964 203.024 50.1387C202.571 50.1807 202.238 50.5821 202.28 51.0354C204.254 72.2712 194.493 94.2423 177.41 107.01C177.045 107.283 176.971 107.799 177.243 108.164C177.516 108.528 178.032 108.603 178.397 108.33C195.939 95.2188 205.948 72.6897 203.92 50.8827Z" fill="url(#paint0_linear_28_12818)"/>
<path d="M188.679 44.8327C188.679 44.2231 189.102 43.6957 189.519 43.2451C190.268 42.4348 191.072 41.6767 191.925 40.9765C194.496 38.878 197.518 37.3507 200.786 36.9265C202.421 36.7192 204.081 36.8158 205.681 37.2121C208.329 37.8658 210.746 39.3382 212.284 41.5621L212.048 41.7379C211.949 44.0287 211.784 46.3159 211.554 48.5992L211.427 48.5881C207.582 46.7041 203.302 45.5668 199.028 45.814C194.755 46.0558 191.108 47.6488 188.195 50.791L188.129 50.7856C188.234 48.7969 188.309 46.8028 188.388 44.8198L188.679 44.8327Z" fill="url(#paint1_linear_28_12818)"/>
<path d="M149.928 93.7521V93.9555L149.533 94.3344C147.572 94.3236 145.605 94.3125 143.644 94.3071C143.616 92.3679 143.589 90.4176 143.562 88.473L147.858 88.3575C148.518 88.3356 149.291 88.374 149.67 88.9179C149.867 89.2743 149.952 89.6823 149.912 90.0879C149.917 91.3074 149.923 92.5287 149.928 93.7521Z" fill="url(#paint2_linear_28_12818)"/>
<path d="M143.561 88.4731C143.589 90.4177 143.616 92.368 143.644 94.3072C141.941 94.2961 140.243 94.2907 138.54 94.2796V94.1422C138.546 92.368 138.546 90.5881 138.546 88.8136L138.54 88.6102L141.644 88.528C142.281 88.5058 142.92 88.4896 143.561 88.4731Z" fill="url(#paint3_linear_28_12818)"/>
<path d="M138.54 94.1423V94.2797H138.288C136.892 94.2743 135.498 94.2632 134.101 94.2578V94.1423C134.063 92.4284 134.019 90.7199 133.975 89.006L133.97 88.736C135.491 88.6919 137.013 88.6535 138.54 88.6094L138.546 88.8128C138.546 90.5882 138.546 92.3681 138.54 94.1423Z" fill="url(#paint4_linear_28_12818)"/>
<path d="M125.675 46.486C125.635 46.4236 125.61 46.3537 125.601 46.2805C125.591 46.2076 125.598 46.1332 125.62 46.063C126.28 42.5911 127.68 38.983 130.652 37.0702C131.592 36.4693 132.644 36.0676 133.745 35.8891C134.494 35.7238 135.276 35.7988 135.981 36.1033C136.854 36.5485 137.37 37.5208 137.491 38.4985C137.56 39.4828 137.431 40.4707 137.112 41.4046L137.271 41.4814C138.288 39.424 139.878 37.7035 141.848 36.5263C143.922 35.3035 146.393 34.9408 148.731 35.5156C149.19 35.62 149.619 35.8249 149.989 36.1156C150.972 36.9835 150.802 38.5327 150.549 39.8182L150.604 39.862C150.637 39.8128 150.676 39.7687 150.714 39.7192C151.868 38.3293 153.549 37.2691 155.351 37.3078C157.152 37.3465 158.954 38.7634 159.02 40.5598C159.053 41.4937 158.647 42.3898 158.174 43.1968C157.298 44.6968 156.178 46.0408 154.862 47.1739L154.938 47.4817C156.411 47.1244 157.971 46.8499 159.421 47.2717C160.932 47.7112 162.267 49.1338 162.08 50.6941C161.833 52.798 159.267 53.7046 157.147 53.7868C154.768 53.8804 152.407 53.5231 150.049 53.1001C148.699 52.8529 147.352 52.5901 145.999 52.3801C143.556 51.9958 141.089 51.7864 138.616 51.7537C135.117 51.6988 131.184 52.2097 129.019 54.9565C127.107 57.379 127.179 60.7684 127.344 63.8503C127.591 68.4703 126.987 72.9751 127.234 77.5951C126.244 79.2484 125.614 80.5834 123.773 81.1651C122.833 81.5056 121.81 81.5476 120.845 81.2851C120.367 81.1456 119.934 80.8804 119.593 80.5171C119.252 80.1538 119.015 79.7056 118.906 79.2196C118.719 78.0715 119.45 77.0113 120.389 76.2697L119.68 76.0939C119.19 76.5184 118.633 76.8598 118.032 77.1046C117.219 77.4067 116.23 77.3902 115.566 76.8409C114.593 76.0444 114.666 74.5555 114.934 73.3309C115.435 71.0506 116.308 68.8681 117.516 66.8704C117.038 67.3507 116.473 67.7347 115.851 68.0023C114.791 68.425 113.401 68.2657 112.742 67.3318C112.352 66.7717 112.286 66.052 112.297 65.3707C112.338 63.7462 112.742 62.1517 113.479 60.7033C114.216 59.2549 115.267 57.9895 116.556 56.9998C116.01 57.1393 115.448 57.1951 114.886 57.1648C114.018 57.1048 113.122 56.6869 112.726 55.9123C112.504 55.3885 112.406 54.8209 112.44 54.2533C112.406 53.377 112.506 52.5007 112.737 51.6547C113.511 49.1947 116.007 47.7598 118.317 46.6228C119.487 46.0405 120.696 45.469 121.998 45.3262C123.3 45.178 124.728 45.5404 125.557 46.5457L125.675 46.486Z" fill="currentColor"/>
<path d="M134.102 94.1422V94.2577C132.042 94.2466 129.976 94.2355 127.916 94.2301V89.1982L127.911 88.9069C129.927 88.8469 131.947 88.7902 133.971 88.7368L133.976 89.0068C134.02 90.7201 134.063 92.4283 134.102 94.1422Z" fill="url(#paint5_linear_28_12818)"/>
<path d="M127.262 88.9232C127.477 88.9178 127.696 88.9067 127.91 88.9067L127.916 89.198V94.2299C126.202 94.2191 124.493 94.2134 122.779 94.2026L122.686 94.2245H122.681C122.653 94.0982 122.631 93.9662 122.604 93.8399C122.447 92.9444 122.348 92.0396 122.307 91.1315C122.28 90.4229 122.356 89.588 122.961 89.2199C123.284 89.0591 123.644 88.9865 124.005 89.0099C125.092 88.9838 126.175 88.9499 127.262 88.9232Z" fill="url(#paint6_linear_28_12818)"/>
<path d="M68.982 157.432C68.2293 157.526 67.4877 157.652 66.7461 157.817C67.5096 149.461 70.0806 141.364 73.2999 133.618C77.6397 123.208 83.331 113.122 91.6371 105.486C99.9432 97.8503 111.161 92.8799 122.4 93.884L122.603 93.8399C122.631 93.9662 122.653 94.0982 122.68 94.2245H122.686L122.779 94.2026C124.493 94.2134 126.201 94.2191 127.916 94.2299C129.975 94.2356 132.041 94.2464 134.101 94.2575C135.496 94.2629 136.891 94.274 138.287 94.2794C143.066 119.747 147.851 145.764 144.209 171.419V171.468C132.497 171.913 120.783 172.362 109.067 172.814L108.144 172.847C105.139 172.962 102.107 173.078 99.1407 172.551C105.041 159.842 109.518 146.52 112.491 132.827C113.01 130.596 113.383 128.334 113.606 126.054H113.573C105.975 128.443 99.5424 133.909 95.2128 140.589C90.9168 147.219 88.593 154.993 87.6702 162.838C87.5238 162.914 87.3738 162.981 87.2202 163.041C85.9944 161.697 84.54 160.581 82.9245 159.745C81.2808 158.884 79.5291 158.247 77.7165 157.85C74.8509 157.209 71.8959 157.068 68.982 157.432Z" fill="url(#paint7_linear_28_12818)"/>
<path d="M122.567 94.3838C122.302 93.2048 122.354 92.5907 122.303 91.3838C122.273 90.6761 122.348 89.8385 122.954 89.4722C123.279 89.3138 123.638 89.2415 123.999 89.2622L147.849 88.6079C148.509 88.5899 149.285 88.6256 149.663 89.1677C149.86 89.5244 149.945 89.9321 149.907 90.3377C149.913 91.6268 149.918 92.9162 149.923 94.2056" stroke="currentColor" stroke-width="1.2" stroke-linecap="round" stroke-linejoin="round"/>
<path d="M122.773 94.4541L149.529 94.5843" stroke="currentColor" stroke-width="1.2" stroke-linecap="round" stroke-linejoin="round"/>
<path d="M127.911 94.2981V89.4507" stroke="currentColor" stroke-width="1.2" stroke-linecap="round" stroke-linejoin="round"/>
<path d="M134.098 94.3926C134.056 92.6808 134.013 90.9693 133.971 89.2578" stroke="currentColor" stroke-width="1.2" stroke-linecap="round" stroke-linejoin="round"/>
<path d="M138.537 94.3952C138.539 92.618 138.54 90.8405 138.542 89.063" stroke="currentColor" stroke-width="1.2" stroke-linecap="round" stroke-linejoin="round"/>
<path d="M143.636 94.588C143.61 92.617 143.584 90.646 143.558 88.6753" stroke="currentColor" stroke-width="1.2" stroke-linecap="round" stroke-linejoin="round"/>
<path d="M149.535 94.3325C155.42 95.189 161.581 95.2346 167.142 93.1262C175.835 89.8304 181.927 81.6239 184.944 72.83C187.96 64.0361 188.34 54.59 188.691 45.2993" stroke="currentColor" stroke-width="1.2" stroke-linecap="round" stroke-linejoin="round"/>
<path d="M161.602 119.201C172.977 118.167 183.597 111.843 190.726 103.874C197.854 95.9042 202.556 86.0276 205.878 75.8648C209.459 64.9046 211.533 53.5085 212.042 41.9897" stroke="currentColor" stroke-width="1.2" stroke-linecap="round" stroke-linejoin="round"/>
<path d="M188.456 44.9099C188.429 44.282 188.666 43.9274 189.092 43.4666C192.08 40.2443 196.004 37.7156 200.362 37.1498C204.719 36.584 209.49 38.2565 211.943 41.9027" stroke="currentColor" stroke-width="1.2" stroke-linecap="round" stroke-linejoin="round"/>
<path d="M188.617 50.9206C191.529 47.7817 194.749 46.3111 199.024 46.0654C203.298 45.8197 207.576 46.9567 211.422 48.8398" stroke="currentColor" stroke-width="1.2" stroke-linecap="round" stroke-linejoin="round"/>
<path d="M122.392 94.1358C111.155 93.1296 99.9401 98.1045 91.634 105.74C83.3279 113.376 77.636 123.458 73.2974 133.873C70.0073 141.77 67.3055 149.571 66.6035 158.098" stroke="currentColor" stroke-width="1.2" stroke-linecap="round" stroke-linejoin="round"/>
<path d="M66.6035 158.097C70.2605 157.281 74.0528 157.283 77.7095 158.101C81.4595 158.944 85.1051 160.726 87.5555 163.686" stroke="currentColor" stroke-width="1.2" stroke-linecap="round" stroke-linejoin="round"/>
<path d="M87.6426 163.281C88.5507 155.37 90.8793 147.528 95.2086 140.844C99.5379 134.16 105.969 128.696 113.566 126.305" stroke="currentColor" stroke-width="1.2" stroke-linecap="round" stroke-linejoin="round"/>
<path d="M113.298 119.997C114.204 124.305 113.42 128.775 112.488 133.078C109.516 146.772 105.037 160.095 99.1348 172.805" stroke="currentColor" stroke-width="1.2" stroke-linecap="round" stroke-linejoin="round"/>
<path d="M99.042 172.783C102.034 173.328 105.102 173.214 108.141 173.097C128.222 172.33 147.888 171.414 167.969 170.646" stroke="currentColor" stroke-width="1.2" stroke-linecap="round" stroke-linejoin="round"/>
<path d="M167.929 170.474C167.568 153.251 166.28 136.061 164.072 118.977" stroke="currentColor" stroke-width="1.2" stroke-linecap="round" stroke-linejoin="round"/>
<path d="M138.252 94.4009C143.043 119.91 147.851 145.971 144.204 171.669" stroke="currentColor" stroke-width="1.2" stroke-linecap="round" stroke-linejoin="round"/>
<path d="M109.032 172.779C110.549 186.33 109.1 201.231 100.1 211.474C91.4754 221.291 77.0544 224.868 64.2666 222.18" stroke="currentColor" stroke-width="1.2" stroke-linecap="round" stroke-linejoin="round"/>
<path d="M64.7257 222.08C59.9152 222.761 55.7857 226.23 53.4988 230.517C51.2119 234.804 50.5888 239.815 50.8447 244.667C51.0667 248.888 52.0972 253.39 55.2631 256.19" stroke="currentColor" stroke-width="1.2" stroke-linecap="round" stroke-linejoin="round"/>
<path d="M55.0039 256.072C70.2862 264.218 89.6332 262.304 104.791 253.928C119.948 245.552 131.296 231.475 139.448 216.196C142.193 211.053 144.642 205.675 145.73 199.948" stroke="currentColor" stroke-width="1.2" stroke-linecap="round" stroke-linejoin="round"/>
<path d="M145.708 200.16C167.506 219.537 187.766 240.578 206.304 263.094" stroke="currentColor" stroke-width="1.2" stroke-linecap="round" stroke-linejoin="round"/>
<path d="M165.623 170.929C189.761 193.383 213.329 216.428 236.329 240.064" stroke="currentColor" stroke-width="1.2" stroke-linecap="round" stroke-linejoin="round"/>
<path d="M206.012 262.86C209.017 264.78 212.999 263.886 216.263 262.45C224.388 258.841 230.944 252.429 234.734 244.386C235.424 242.908 236.02 241.358 236.163 239.734" stroke="currentColor" stroke-width="1.2" stroke-linecap="round" stroke-linejoin="round"/>
<path d="M55.1616 228.156L42.5259 225.668" stroke="currentColor" stroke-width="1.2" stroke-linecap="round" stroke-linejoin="round"/>
<path d="M42.4498 225.433C36.7348 234.316 31.1977 243.31 25.8381 252.415C23.9247 255.666 21.9681 259.22 22.3557 262.972C22.8519 267.762 27.7674 271.624 32.539 270.97C35.6128 270.55 38.2288 268.6 40.6936 266.718L54.6646 256.042" stroke="currentColor" stroke-width="1.2" stroke-linecap="round" stroke-linejoin="round"/>
<path d="M217.198 262.071C218.853 265.148 220.507 268.225 222.161 271.302C223.013 272.887 223.943 274.553 225.508 275.439C227.162 276.374 229.188 276.249 231.079 276.064C237.665 275.416 244.202 274.345 250.651 272.858C253.261 272.258 255.945 271.541 258.014 269.843C259.664 268.488 260.794 266.61 261.788 264.719C263.056 262.306 264.158 259.811 265.088 257.249C265.709 255.537 266.252 253.635 265.617 251.927C265.017 250.31 263.48 249.231 261.916 248.503C253.68 244.674 243.439 248.003 235.238 244.101" stroke="currentColor" stroke-width="1.2" stroke-linecap="round" stroke-linejoin="round"/>
<path d="M47.9508 260.426C47.6061 256.026 45.6006 251.922 42.3408 248.946" stroke="currentColor" stroke-width="1.2" stroke-linecap="round" stroke-linejoin="round"/>
<path d="M43.822 263.785C43.4245 259.712 41.7298 255.874 38.9878 252.835" stroke="currentColor" stroke-width="1.2" stroke-linecap="round" stroke-linejoin="round"/>
<path d="M39.8425 267.141C39.6868 263.685 38.4043 260.375 36.1909 257.716" stroke="currentColor" stroke-width="1.2" stroke-linecap="round" stroke-linejoin="round"/>
<path d="M252.857 246.63C251.11 248.055 249.69 249.841 248.696 251.866C247.701 253.89 247.155 256.105 247.095 258.36" stroke="currentColor" stroke-width="1.2" stroke-linecap="round" stroke-linejoin="round"/>
<path d="M246.772 246.574C244.255 247.613 242.392 249.865 241.269 252.345C240.147 254.825 239.675 257.543 239.252 260.233C239.231 260.364 239.222 260.524 239.33 260.602C239.438 260.679 239.615 260.486 239.495 260.429" stroke="currentColor" stroke-width="1.2" stroke-linecap="round" stroke-linejoin="round"/>
<path d="M241.037 245.905C239.13 246.26 237.789 247.955 236.792 249.619C235.742 251.371 234.868 253.222 234.182 255.146C234.01 255.628 233.893 256.264 234.306 256.566" stroke="currentColor" stroke-width="1.2" stroke-linecap="round" stroke-linejoin="round"/>
<path d="M141.627 88.3835C141.559 85.7999 141.492 83.2166 141.424 80.6333" stroke="currentColor" stroke-width="1.2" stroke-linecap="round" stroke-linejoin="round"/>
<path d="M141.005 80.5822C143.472 79.9807 146.165 79.2286 147.59 77.1274C148.523 75.7519 148.739 74.0269 148.91 72.3727C149.559 66.0853 149.932 59.7772 150.027 53.4487" stroke="currentColor" stroke-width="1.2" stroke-linecap="round" stroke-linejoin="round"/>
<path d="M137.506 70.7633C138.229 70.7411 138.951 70.7189 139.674 70.6967C139.822 70.7321 139.977 70.7252 140.12 70.6766C140.264 70.628 140.391 70.5398 140.487 70.4222C140.583 70.3043 140.644 70.1621 140.662 70.0115C140.681 69.8606 140.656 69.7079 140.592 69.5705C139.994 65.3048 139.396 61.0391 138.799 56.7734" stroke="currentColor" stroke-width="1.2" stroke-linecap="round" stroke-linejoin="round"/>
<path d="M138.804 56.5202C141.52 56.4269 143.957 56.5064 146.673 56.4131" stroke="currentColor" stroke-width="1.2" stroke-linecap="round" stroke-linejoin="round"/>
<path d="M134.945 60.6975C134.768 59.8416 133.827 59.2731 132.958 59.3664C132.525 59.4348 132.116 59.6109 131.768 59.8782C131.42 60.1455 131.145 60.4953 130.968 60.8964" stroke="currentColor" stroke-width="1.2" stroke-linecap="round" stroke-linejoin="round"/>
<path d="M141.556 60.6417C141.787 60.3219 142.101 60.072 142.465 59.9193C142.829 59.7669 143.228 59.718 143.617 59.7777C144.007 59.8374 144.373 60.0035 144.675 60.2579C144.976 60.5123 145.201 60.8447 145.326 61.2191" stroke="currentColor" stroke-width="1.2" stroke-linecap="round" stroke-linejoin="round"/>
<path d="M134.784 77.0076C133.664 76.8174 132.646 76.242 131.905 75.381C131.164 74.5197 130.746 73.4271 130.725 72.291" stroke="currentColor" stroke-width="1.2" stroke-linecap="round" stroke-linejoin="round"/>
<path d="M127.238 88.5777C126.916 85.686 127.069 80.5014 127.236 77.5977" stroke="currentColor" stroke-width="1.2" stroke-linecap="round" stroke-linejoin="round"/>
<path d="M120.99 76.106C119.788 76.8299 118.68 78.0878 118.905 79.4729C119.065 80.4533 119.895 81.2369 120.842 81.5378C121.808 81.7997 122.831 81.7586 123.773 81.4196C125.608 80.837 126.246 79.2482 127.237 77.5967" stroke="currentColor" stroke-width="1.2" stroke-linecap="round" stroke-linejoin="round"/>
<path d="M127.187 77.4023C126.94 72.7802 127.588 68.7227 127.34 64.1003C127.175 61.0187 127.1 57.6329 129.013 55.2104C131.181 52.4636 135.111 51.9533 138.61 52.0043C141.083 52.0406 143.549 52.25 145.992 52.631C149.702 53.2097 153.392 54.1859 157.143 54.041C159.26 53.9579 161.825 53.051 162.075 50.9468C162.261 49.3868 160.926 47.963 159.417 47.5241C157.907 47.0852 156.29 47.396 154.767 47.7761" stroke="currentColor" stroke-width="1.2" stroke-linecap="round" stroke-linejoin="round"/>
<path d="M154.853 47.4223C156.174 46.2922 157.294 44.9482 158.169 43.4464C158.639 42.6388 159.045 41.7466 159.012 40.8127C158.948 39.0127 157.145 37.5979 155.343 37.5577C153.542 37.5175 151.86 38.5822 150.709 39.9694C150.624 40.0717 150.541 40.1761 150.458 40.2805" stroke="currentColor" stroke-width="1.2" stroke-linecap="round" stroke-linejoin="round"/>
<path d="M150.54 40.0705C150.793 38.785 150.964 37.2343 149.98 36.3685C149.613 36.0754 149.183 35.8708 148.724 35.7703C146.385 35.1937 143.914 35.5561 141.84 36.7801C139.785 38.0128 138.144 39.8302 137.126 42.0001L137.508 41.6572" stroke="currentColor" stroke-width="1.2" stroke-linecap="round" stroke-linejoin="round"/>
<path d="M137.108 41.6547C137.428 40.722 137.556 39.7344 137.485 38.751C137.365 37.7751 136.851 36.801 135.975 36.3552C135.272 36.051 134.491 35.9754 133.742 36.1392C132.64 36.3183 131.586 36.7218 130.646 37.3248C127.674 39.2355 126.272 42.8448 125.614 46.3155C125.581 46.488 125.578 46.7163 125.741 46.7817C125.904 46.8471 125.942 46.4637 125.795 46.5594" stroke="currentColor" stroke-width="1.2" stroke-linecap="round" stroke-linejoin="round"/>
<path d="M125.555 46.7999C124.724 45.7898 123.295 45.4316 121.994 45.5762C120.694 45.7208 119.484 46.2935 118.311 46.8719C115.998 48.0119 113.505 49.4462 112.731 51.9062C112.5 52.7522 112.401 53.6288 112.437 54.5051C112.4 55.0724 112.497 55.6403 112.72 56.1632C113.117 56.9372 114.01 57.3551 114.877 57.4196C115.748 57.4334 116.616 57.299 117.442 57.0218" stroke="currentColor" stroke-width="1.2" stroke-linecap="round" stroke-linejoin="round"/>
<path d="M117.137 56.8359C115.684 57.8058 114.486 59.1108 113.643 60.6402C112.8 62.1699 112.337 63.8799 112.293 65.6259C112.282 66.3066 112.349 67.0257 112.739 67.5834C113.396 68.5206 114.785 68.6799 115.847 68.2545C116.909 67.8291 117.72 66.9609 118.495 66.1188" stroke="currentColor" stroke-width="1.2" stroke-linecap="round" stroke-linejoin="round"/>
<path d="M118.294 65.9321C116.676 68.2343 115.533 70.8353 114.93 73.5839C114.663 74.8088 114.591 76.2992 115.56 77.0963C116.229 77.6462 117.214 77.6633 118.026 77.3618C118.82 77.0123 119.547 76.5275 120.175 75.929" stroke="currentColor" stroke-width="1.2" stroke-linecap="round" stroke-linejoin="round"/>
<path d="M84.6299 163.973C85.868 164.247 86.6099 164.318 87.7319 163.73" stroke="currentColor" stroke-width="1.2" stroke-linecap="round" stroke-linejoin="round"/>
<path d="M50.4247 243.358C46.4647 245.753 42.4264 248.214 39.4669 251.772C37.8178 253.827 36.4585 256.1 35.4271 258.526C34.6243 260.328 33.9271 262.227 33.8905 264.199C33.8539 266.172 34.5733 268.247 36.1504 269.432" stroke="currentColor" stroke-width="1.2" stroke-linecap="round" stroke-linejoin="round"/>
<path d="M229.393 253.418C231.393 254.567 232.931 256.354 234.659 257.882C236.387 259.41 238.506 260.748 240.811 260.659C241.81 260.574 242.794 260.355 243.735 260.007L248.022 258.637C250.624 257.806 253.311 256.927 255.34 255.097C257.369 253.267 258.559 250.209 257.406 247.732" stroke="currentColor" stroke-width="1.2" stroke-linecap="round" stroke-linejoin="round"/>
<path d="M222.043 270.649C226.972 270.502 231.913 270.829 236.831 270.49C241.749 270.152 246.743 269.094 250.89 266.427C256.874 262.579 260.412 255.816 262.29 248.953" stroke="currentColor" stroke-width="1.2" stroke-linecap="round" stroke-linejoin="round"/>
<path d="M47.8458 226.935C42.2022 231.988 38.1081 238.518 34.3779 245.111C32.103 249.131 29.9019 253.303 29.1093 257.855C28.3167 262.407 29.1345 267.464 32.2833 270.845" stroke="currentColor" stroke-width="1.2" stroke-linecap="round" stroke-linejoin="round"/>
<path d="M67.334 153.171C68.4773 152.511 69.8633 152.468 71.1827 152.489C74.2478 152.539 77.3366 152.854 80.2472 153.816C83.1578 154.777 85.8956 156.421 87.8243 158.803" stroke="currentColor" stroke-width="1.2" stroke-linecap="round" stroke-linejoin="round"/>
<path d="M101.061 168.723C112.863 167.602 124.281 167.063 136.129 166.653C138.785 166.561 141.443 166.487 144.1 166.496C151.81 166.522 159.61 167.243 167.172 165.746" stroke="currentColor" stroke-width="1.2" stroke-linecap="round" stroke-linejoin="round"/>
<path d="M170.801 77.3701L165.789 69.9829" stroke="currentColor" stroke-width="1.2" stroke-linecap="round" stroke-linejoin="round"/>
<path d="M171.564 70.6646C169.117 72.8714 166.669 75.0779 164.221 77.2847" stroke="currentColor" stroke-width="1.2" stroke-linecap="round" stroke-linejoin="round"/>
<path d="M87.5332 72.6087C85.0156 70.8888 82.5634 69.078 80.1763 67.1763" stroke="currentColor" stroke-width="1.2" stroke-linecap="round" stroke-linejoin="round"/>
<path d="M85.8142 66.7725C83.7757 69.4716 82.0042 72.3621 80.5249 75.4038" stroke="currentColor" stroke-width="1.2" stroke-linecap="round" stroke-linejoin="round"/>
<path d="M193.305 159.101C196.026 156.932 198.505 154.475 200.7 151.774" stroke="currentColor" stroke-width="1.2" stroke-linecap="round" stroke-linejoin="round"/>
<path d="M199.596 159.888C196.887 156.953 194.519 153.722 192.537 150.254" stroke="currentColor" stroke-width="1.2" stroke-linecap="round" stroke-linejoin="round"/>
<path d="M153.024 21.4965C154.451 18.8885 156.378 16.5874 158.694 14.7246" stroke="currentColor" stroke-width="1.2" stroke-linecap="round" stroke-linejoin="round"/>
<path d="M159.205 20.73C157.505 17.8567 155.103 15.462 152.225 13.77" stroke="currentColor" stroke-width="1.2" stroke-linecap="round" stroke-linejoin="round"/>
<path d="M155.437 12.1943C155.565 15.5447 155.692 18.8959 155.82 22.248C155.829 22.4829 155.891 22.7822 156.123 22.8212C156.354 22.8602 156.295 22.3479 156.129 22.515" stroke="currentColor" stroke-width="1.2" stroke-linecap="round" stroke-linejoin="round"/>
<path d="M151.483 16.0889L160.526 17.1431C160.671 17.1602 160.816 17.1767 160.96 17.1935" stroke="currentColor" stroke-width="1.2" stroke-linecap="round" stroke-linejoin="round"/>
<path d="M54.6301 125.734C52.5076 122.557 50.6218 119.228 48.9883 115.774" stroke="currentColor" stroke-width="1.2" stroke-linecap="round" stroke-linejoin="round"/>
<path d="M45.916 124.917C48.9868 122.8 52.1131 120.767 55.2955 118.817" stroke="currentColor" stroke-width="1.2" stroke-linecap="round" stroke-linejoin="round"/>
<path d="M52.5538 116.877C51.6397 120.068 50.7256 123.258 49.8115 126.447L49.8691 125.413" stroke="currentColor" stroke-width="1.2" stroke-linecap="round" stroke-linejoin="round"/>
<path d="M54.046 122.539C51.6604 121.585 49.2175 120.78 46.7314 120.129" stroke="currentColor" stroke-width="1.2" stroke-linecap="round" stroke-linejoin="round"/>
<path d="M113.573 31.8729C114.834 29.0084 115.729 25.996 116.235 22.9071C116.691 20.1246 116.529 16.6848 114.092 15.2667C113.387 14.8563 112.57 14.6791 111.758 14.7605C110.946 14.8419 110.181 15.1776 109.571 15.7199C108.962 16.2621 108.539 16.983 108.363 17.7798C108.188 18.5766 108.268 19.4085 108.594 20.1567C107.294 18.6036 105.84 17.0172 103.894 16.4553C101.949 15.8934 99.4333 16.8453 99.0514 18.8334C98.7079 20.622 100.131 22.2282 101.493 23.4369C105.085 26.6229 109.053 29.3582 113.309 31.5819" fill="url(#paint8_linear_28_12818)"/>
<path d="M220.194 112.038L228.694 107.945C230.72 106.969 232.83 105.926 234.158 104.11C235.486 102.294 235.714 99.46 234.038 97.96C232.965 96.9979 231.344 96.8062 229.969 97.237C228.594 97.6678 227.444 98.6434 226.539 99.7651C226.684 98.5129 226.553 97.2445 226.156 96.0484C225.759 94.852 225.106 93.757 224.242 92.8396C223.233 91.7836 221.68 90.9667 220.342 91.5496C218.882 92.1856 218.509 94.0552 218.399 95.644C218.016 101.211 218.448 106.805 219.68 112.248" fill="url(#paint9_linear_28_12818)"/>
<path d="M71.6073 39.4199C62.3217 42.8165 56.8371 52.7612 55.38 62.5406C54.9759 65.2562 54.8352 68.1287 55.9167 70.652C56.9982 73.1753 59.6067 75.2198 62.3289 74.855C65.0511 74.4902 67.0818 71.0204 65.5155 68.765C63.7839 66.2732 59.9022 67.1219 57.2337 68.5652C55.6416 69.4259 54.0864 70.4273 52.9317 71.8205C48.7116 76.9136 51.4077 84.6461 55.0038 90.1973C58.4508 95.5184 62.6112 100.441 65.1438 106.253C67.6764 112.066 68.3112 119.224 64.7394 124.463" stroke="url(#paint10_linear_28_12818)" stroke-width="1.2" stroke-linecap="round" stroke-linejoin="round"/>
<path d="M231.608 60.3018C234.108 62.4114 235.944 65.4228 236.205 68.6838C236.465 71.9448 234.98 75.3969 232.181 77.0898C230.171 78.306 227.743 78.5445 225.452 79.0659C213.96 81.6819 205.332 92.0502 202.207 103.414C200.082 111.137 200.693 120.634 207.039 125.519C209.484 127.401 213.849 127.872 214.992 125.005C215.916 122.689 213.744 120.192 211.384 119.385C206.152 117.595 200.381 120.928 197.093 125.375C193.806 129.822 192.212 135.265 189.673 140.177C187.134 145.089 183.082 149.821 177.613 150.64" stroke="currentColor" stroke-width="1.2" stroke-linecap="round" stroke-linejoin="round"/>
<path d="M39.0446 173.766C37.7678 176.739 37.0343 179.917 36.8792 183.149C36.6176 188.653 38.2712 194.514 42.4379 198.119C46.6046 201.724 53.5445 202.269 57.4769 198.409C58.9349 196.978 59.9192 194.832 59.3099 192.882C58.4882 190.251 54.8582 189.216 52.4801 190.609C50.102 192.003 49.118 195.135 49.6997 197.829C50.2814 200.523 52.1624 202.785 54.3599 204.45C59.9699 208.697 68.0327 209.419 74.3066 206.234C79.2491 203.725 83.2166 199.007 88.6967 198.176C90.4028 197.932 92.1421 198.087 93.7777 198.63C95.4133 199.173 96.9005 200.088 98.1221 201.303" stroke="currentColor" stroke-width="1.2" stroke-linecap="round" stroke-linejoin="round"/>
<path d="M114.445 32.9511C116.278 28.5411 118.148 23.9172 117.745 19.1586C117.622 17.715 117.267 16.2438 116.395 15.0879C115.522 13.932 114.044 13.1547 112.62 13.4196C111.165 13.6896 110.066 14.9721 109.584 16.3713C109.103 17.7705 109.13 19.2855 109.16 20.7648C108.819 18.912 107.619 17.1381 105.843 16.5081C104.067 15.8781 101.786 16.7031 101.147 18.4752C100.588 20.0232 101.338 21.7506 102.361 23.0397C103.524 24.5055 105.031 25.6536 106.52 26.7858L114 32.4714" stroke="currentColor" stroke-width="1.2" stroke-linecap="round" stroke-linejoin="round"/>
<path d="M219.747 112.508C222.968 111.795 226.236 111.066 229.143 109.504C232.05 107.943 234.599 105.415 235.423 102.22C235.886 100.425 235.624 98.2082 234.071 97.193C232.871 96.4085 231.237 96.5984 229.982 97.2908C228.727 97.9832 227.77 99.098 226.84 100.189C226.986 98.948 227.131 97.6757 226.84 96.4601C226.549 95.2445 225.73 94.0763 224.53 93.7286C222.954 93.2723 221.266 94.4 220.527 95.8658C219.787 97.3316 219.762 99.041 219.753 100.682C219.731 104.502 219.709 108.322 219.688 112.142C219.852 112.254 220.095 111.997 219.975 111.839" stroke="currentColor" stroke-width="1.2" stroke-linecap="round" stroke-linejoin="round"/>
<path d="M83.2802 160.366C83.9315 161.994 84.5828 163.622 85.2341 165.25C86.3441 168.027 87.4772 170.933 87.2204 173.914C87.1778 174.413 87.0608 174.967 86.6447 175.248C86.1593 175.575 85.4831 175.371 85.0193 175.013C84.1772 174.363 83.7569 173.321 83.3735 172.329C82.8791 171.051 82.3843 169.772 81.8896 168.494" stroke="currentColor" stroke-width="1.2" stroke-linecap="round" stroke-linejoin="round"/>
<path d="M69.4753 158.013C67.1179 164.516 66.0184 171.407 66.2353 178.32C66.2098 178.871 66.3244 179.42 66.5683 179.914C66.85 180.386 67.4638 180.706 67.9627 180.477C68.4289 180.264 68.5999 179.7 68.7202 179.201C69.8725 174.409 71.0236 169.616 72.1738 164.823" stroke="currentColor" stroke-width="1.2" stroke-linecap="round" stroke-linejoin="round"/>
<path d="M71.9603 165.09C71.4446 170.818 71.6015 176.588 72.428 182.28C72.4514 182.644 72.566 182.996 72.7613 183.304C72.8633 183.455 73.016 183.564 73.1915 183.611C73.367 183.659 73.5539 183.642 73.7183 183.564C73.8899 183.432 74.0165 183.249 74.0804 183.042C74.6594 181.617 74.8451 180.068 75.0251 178.542C75.4979 174.535 75.9707 170.528 76.4435 166.521" stroke="currentColor" stroke-width="1.2" stroke-linecap="round" stroke-linejoin="round"/>
<path d="M76.5824 166.918C76.076 171.925 76.5671 176.982 78.0272 181.798C78.1097 182.16 78.2747 182.498 78.5096 182.785C78.6302 182.926 78.7931 183.024 78.9743 183.064C79.1552 183.104 79.3442 183.085 79.5131 183.008C79.7474 182.835 79.9097 182.581 79.9691 182.296C80.6474 180.152 80.474 177.846 80.5799 175.6C80.696 173.163 81.149 170.754 81.9263 168.441" stroke="currentColor" stroke-width="1.2" stroke-linecap="round" stroke-linejoin="round"/>
<path d="M190.664 41.643C190.561 41.7252 190.411 41.6544 190.3 41.583C187 39.4407 183.527 37.0983 181.954 33.4923C181.584 32.6442 181.391 31.5123 182.093 30.9102C182.617 30.4602 183.415 30.5319 184.06 30.7779C184.912 31.1541 185.701 31.6578 186.4 32.2722L190.534 35.5467" stroke="currentColor" stroke-width="1.2" stroke-linecap="round" stroke-linejoin="round"/>
<path d="M190.312 35.4091C189.19 31.2265 188.436 26.9535 188.06 22.6393C187.958 21.8884 187.976 21.1261 188.113 20.3809C188.185 20.0084 188.338 19.6562 188.561 19.3493C188.783 19.0424 189.071 18.7883 189.403 18.6049C189.529 18.5353 189.672 18.503 189.815 18.5116C189.934 18.5422 190.046 18.5965 190.144 18.6714C190.241 18.7463 190.323 18.8401 190.383 18.9472C191.723 20.7799 192.369 23.0323 192.721 25.2745C193.072 27.5167 193.154 29.7958 193.5 32.0398" stroke="currentColor" stroke-width="1.2" stroke-linecap="round" stroke-linejoin="round"/>
<path d="M193.622 31.7133C193.431 28.2937 193.693 24.864 194.402 21.5132C194.707 20.0684 195.17 18.5267 196.363 17.6561C196.471 17.5623 196.606 17.506 196.749 17.4956C197.041 17.5019 197.206 17.8256 197.297 18.1034C197.95 20.1002 198.116 22.2206 198.208 24.3197C198.312 26.6935 198.326 29.0687 198.251 31.4454C198.239 31.803 198.191 32.2215 197.884 32.4054" stroke="currentColor" stroke-width="1.2" stroke-linecap="round" stroke-linejoin="round"/>
<path d="M197.882 32.4034C198.677 27.5435 200.424 22.8806 202.398 18.3689C202.522 18.016 202.729 17.6977 203 17.4404C203.139 17.3157 203.316 17.2418 203.502 17.2305C203.689 17.2192 203.873 17.2713 204.026 17.3783C204.206 17.5747 204.315 17.8258 204.334 18.0914C204.921 21.3551 204.782 24.6995 204.64 28.0127C204.514 30.9775 204.376 34.0009 203.324 36.7759" stroke="currentColor" stroke-width="1.2" stroke-linecap="round" stroke-linejoin="round"/>
<path d="M58.8809 264.82C66.7568 268.469 75.6404 269.326 84.0686 267.25" stroke="currentColor" stroke-width="1.2" stroke-linecap="round" stroke-linejoin="round"/>
<path d="M200.064 267.993C194.213 260.946 188.689 253.643 183.492 246.084" stroke="currentColor" stroke-width="1.2" stroke-linecap="round" stroke-linejoin="round"/>
<path d="M107.354 59.0548C104.759 54.4579 106.63 47.9038 111.26 45.3691" stroke="currentColor" stroke-width="1.2" stroke-linecap="round" stroke-linejoin="round"/>
<path d="M61.4287 167.704C59.5912 160.653 60.3961 153.173 63.6916 146.674" stroke="currentColor" stroke-width="1.2" stroke-linecap="round" stroke-linejoin="round"/>
<path d="M54.6783 162.979C54.192 161.485 54.0468 159.901 54.2532 158.343C54.4599 156.786 55.0131 155.295 55.872 153.979" stroke="currentColor" stroke-width="1.2" stroke-linecap="round" stroke-linejoin="round"/>
<path fill-rule="evenodd" clip-rule="evenodd" d="M55.0341 227.876C57.3249 224.86 60.5823 222.563 64.2684 221.899L64.2741 221.926C77.0628 224.618 91.4841 221.041 100.108 211.225C109.046 201.051 110.535 186.284 109.068 172.814C120.785 172.364 132.499 171.915 144.21 171.468C151.351 171.194 158.491 170.921 165.63 170.65V170.677C189.701 193.069 213.209 216.052 236.154 239.626C235.964 241.042 235.553 242.42 234.935 243.708C234.889 243.816 234.84 243.92 234.791 244.027L234.79 244.027C234.774 244.061 234.758 244.096 234.742 244.131C231.098 251.861 224.896 258.096 217.185 261.78C216.883 261.923 216.575 262.06 216.268 262.197C213.076 263.598 209.198 264.488 206.215 262.725C187.703 240.253 167.475 219.251 145.715 199.908L145.693 199.903C144.589 205.555 142.166 210.862 139.453 215.944C131.301 231.221 119.957 245.301 104.795 253.678C89.7204 262.007 70.5045 263.946 55.26 255.952L55.2708 255.936L55.2642 255.93L55.2639 255.93C55.1676 255.844 55.071 255.758 54.9798 255.666C52.0353 252.859 51.0684 248.503 50.8485 244.416C50.5959 239.565 51.2166 234.55 53.502 230.265C53.949 229.429 54.4611 228.63 55.0341 227.876ZM184.57 192.418C184.903 192.109 185.425 192.128 185.734 192.461C195.023 202.465 201.836 208.967 207.674 214.537L207.68 214.544L207.713 214.575L207.75 214.61C208.432 215.261 209.101 215.9 209.759 216.53C216.071 222.572 221.386 227.837 227.783 235.928C228.065 236.285 228.004 236.803 227.647 237.085C227.29 237.367 226.772 237.307 226.49 236.95C220.164 228.948 214.912 223.744 208.619 217.72C207.938 217.067 207.245 216.406 206.536 215.729L206.536 215.729C200.696 210.156 193.851 203.624 184.527 193.583C184.217 193.249 184.236 192.728 184.57 192.418ZM166.697 204.042C166.327 203.804 165.837 203.901 165.583 204.255C164.954 204.091 164.291 204.123 163.694 204.299C162.798 204.564 161.954 205.18 161.522 206.101C161.092 207.015 161.142 208.043 161.49 208.905C161.837 209.768 162.512 210.541 163.437 210.917C163.443 210.92 163.45 210.923 163.456 210.925C163.46 210.927 163.465 210.928 163.47 210.93C164.363 211.251 165.343 211.23 166.221 210.871C167.1 210.512 167.814 209.841 168.227 208.986C168.231 208.978 168.235 208.971 168.238 208.963C168.242 208.955 168.245 208.947 168.248 208.939C168.602 208.07 168.641 207.104 168.358 206.21C168.075 205.316 167.487 204.548 166.697 204.042ZM165.596 206.037C165.867 206.214 166.203 206.211 166.465 206.058C166.604 206.255 166.713 206.474 166.787 206.708C166.951 207.227 166.932 207.786 166.732 208.292C166.495 208.769 166.091 209.144 165.598 209.345C165.102 209.548 164.549 209.562 164.044 209.385C163.598 209.198 163.222 208.796 163.018 208.289C162.812 207.777 162.81 207.233 163.013 206.802C163.213 206.377 163.637 206.034 164.161 205.88C164.684 205.726 165.212 205.786 165.596 206.037ZM156.119 178.16C157.247 177.277 158.673 176.866 160.098 177.013C160.551 177.061 160.88 177.466 160.833 177.918C160.824 178.007 160.801 178.092 160.766 178.169C161.215 178.654 161.451 179.286 161.508 179.895C161.589 180.762 161.326 181.728 160.634 182.398C159.323 183.669 157.19 183.531 155.877 182.503C155.422 182.17 155.081 181.704 154.901 181.17C154.897 181.157 154.893 181.145 154.889 181.132C154.706 180.488 154.846 179.874 155.096 179.38C155.345 178.89 155.723 178.473 156.116 178.163L156.119 178.16ZM158.931 178.678C158.282 178.779 157.663 179.044 157.137 179.456C156.892 179.65 156.686 179.89 156.566 180.126C156.453 180.349 156.435 180.525 156.47 180.663C156.544 180.87 156.679 181.05 156.858 181.179L156.864 181.184L156.872 181.19C156.876 181.193 156.881 181.196 156.885 181.2C157.679 181.827 158.876 181.807 159.488 181.215C159.759 180.951 159.911 180.51 159.867 180.049C159.824 179.591 159.607 179.257 159.32 179.108C159.135 179.013 159.002 178.857 158.931 178.678ZM103.731 222.268C103.246 221.82 102.571 221.505 101.814 221.569C101.675 221.525 101.522 221.518 101.369 221.556C99.8613 221.929 98.2815 222.99 97.7943 224.685C97.5378 225.577 97.695 226.543 98.1192 227.31C98.5449 228.08 99.2958 228.741 100.299 228.865C101.671 229.034 102.845 228.182 103.55 227.349C104.264 226.506 104.854 225.31 104.667 224.026C104.568 223.348 104.218 222.718 103.731 222.268ZM101.947 223.212C101.845 223.221 101.745 223.211 101.651 223.185C100.547 223.492 99.6396 224.23 99.378 225.14C99.2556 225.567 99.3243 226.084 99.5613 226.512C99.7968 226.938 100.142 227.185 100.501 227.229C101.063 227.299 101.738 226.94 102.293 226.285C102.839 225.639 103.13 224.904 103.036 224.263C102.995 223.979 102.839 223.687 102.613 223.479C102.39 223.272 102.152 223.193 101.947 223.212ZM86.5989 243.752C87.1617 243.69 87.7308 243.784 88.2441 244.023C88.7574 244.262 89.1951 244.637 89.5098 245.108C89.5188 245.122 89.5275 245.136 89.5359 245.15C90.0111 245.961 90.1692 246.919 89.9808 247.84C89.619 249.905 87.6933 251.85 85.4079 251.646C84.8799 251.599 84.3672 251.442 83.9028 251.187C83.4381 250.931 83.0319 250.582 82.7094 250.161C82.3869 249.74 82.1556 249.257 82.0296 248.741C81.9039 248.227 81.8865 247.691 81.9786 247.169C82.0704 246.647 82.2699 246.149 82.5645 245.708C82.8588 245.267 83.2413 244.892 83.6883 244.607C84.1353 244.322 84.6366 244.132 85.1604 244.051C85.4643 244.004 85.7718 243.994 86.0766 244.02C86.2071 243.874 86.3895 243.775 86.5989 243.752ZM87.1941 245.405C87.0012 245.679 86.6511 245.818 86.3082 245.727C86.0163 245.649 85.7118 245.633 85.4133 245.679C85.1151 245.726 84.8295 245.834 84.5751 245.996C84.3207 246.158 84.1026 246.372 83.9349 246.623C83.7675 246.874 83.6538 247.157 83.6013 247.455C83.5491 247.752 83.559 248.057 83.6307 248.351C83.7021 248.644 83.8341 248.919 84.0177 249.159C84.2013 249.398 84.4326 249.597 84.6972 249.743C84.9618 249.888 85.2537 249.977 85.5543 250.004C86.7981 250.115 88.1142 248.975 88.359 247.547C88.3608 247.537 88.3626 247.527 88.3647 247.517C88.4724 247.001 88.3878 246.463 88.1265 246.005C87.9804 245.794 87.7809 245.625 87.5481 245.517C87.435 245.464 87.3159 245.426 87.1941 245.405ZM119.256 196.04C118.939 195.815 118.518 195.846 118.238 196.091C117.493 196.094 116.756 196.244 116.067 196.531C115.329 196.837 114.664 197.295 114.114 197.874C113.524 198.461 113.145 199.226 113.034 200.051C113.033 200.057 113.032 200.064 113.032 200.07C113.031 200.077 113.03 200.083 113.03 200.09C112.885 201.775 114.233 203.153 115.645 203.558C116.605 203.832 117.632 203.759 118.542 203.35C119.453 202.94 120.19 202.222 120.623 201.322C121.055 200.422 121.155 199.398 120.905 198.431C120.654 197.464 120.071 196.618 119.256 196.04ZM118.369 197.74C118.472 197.742 118.571 197.725 118.663 197.693C118.973 198.012 119.196 198.408 119.309 198.844C119.462 199.434 119.401 200.059 119.137 200.609C118.873 201.158 118.423 201.597 117.867 201.846C117.311 202.096 116.685 202.141 116.099 201.973C115.228 201.724 114.623 200.933 114.67 200.249C114.737 199.789 114.951 199.363 115.282 199.036C115.289 199.03 115.295 199.023 115.302 199.016C115.695 198.6 116.171 198.272 116.7 198.052C117.228 197.832 117.797 197.726 118.369 197.74ZM116.253 218.037C116.707 217.997 117.107 218.332 117.147 218.785L117.409 221.749C118.234 221.673 119.061 221.616 119.889 221.58C120.343 221.56 120.728 221.913 120.748 222.367C120.768 222.822 120.415 223.207 119.961 223.226C119.157 223.262 118.355 223.316 117.554 223.391L117.736 225.443V225.445C117.744 225.529 117.756 225.693 117.723 225.873C117.688 226.063 117.585 226.355 117.291 226.561C117.035 226.74 116.754 226.75 116.551 226.706C116.357 226.662 116.197 226.565 116.08 226.454C115.971 226.352 115.824 226.165 115.787 225.894C115.747 225.606 115.848 225.324 116.054 225.127L115.916 223.572C114.887 223.703 113.862 223.867 112.843 224.063C112.397 224.149 111.965 223.856 111.878 223.409C111.792 222.963 112.085 222.531 112.532 222.445C113.606 222.238 114.686 222.066 115.771 221.929L115.505 218.93C115.465 218.477 115.8 218.077 116.253 218.037ZM129.792 185.106C130.144 184.818 130.664 184.87 130.952 185.222L132.092 186.616L133.525 185.165C133.845 184.842 134.366 184.839 134.69 185.159C135.014 185.478 135.017 186 134.697 186.324L133.142 187.898L134.558 189.628C134.846 189.98 134.794 190.499 134.442 190.787C134.09 191.076 133.571 191.024 133.282 190.672L131.977 189.077L130.328 190.745C130.009 191.068 129.487 191.072 129.163 190.752C128.84 190.432 128.837 189.91 129.156 189.587L130.928 187.794L129.676 186.266C129.388 185.914 129.44 185.394 129.792 185.106ZM129.587 199.543C130.005 199.364 130.49 199.559 130.668 199.978C130.924 200.578 131.156 201.188 131.362 201.806L132.986 201.016C133.395 200.817 133.889 200.987 134.087 201.396C134.287 201.805 134.116 202.299 133.707 202.498L131.835 203.408C132.106 204.462 132.306 205.535 132.432 206.619C132.485 207.071 132.161 207.48 131.709 207.533C131.257 207.585 130.848 207.262 130.795 206.809C130.691 205.911 130.532 205.021 130.32 204.145L127.78 205.38C127.37 205.579 126.878 205.409 126.679 204.999C126.479 204.59 126.65 204.097 127.059 203.898L129.866 202.533C129.658 201.887 129.419 201.25 129.152 200.624C128.974 200.206 129.168 199.722 129.587 199.543ZM119.448 178.184C119.753 178.521 119.727 179.042 119.39 179.348C118.778 179.902 118.23 180.52 117.756 181.191C118.431 181.892 119.131 182.57 119.854 183.223C120.191 183.528 120.218 184.049 119.913 184.387C119.608 184.724 119.087 184.751 118.749 184.446C118.109 183.867 117.485 183.269 116.881 182.654C116.778 182.858 116.682 183.066 116.593 183.277C116.414 183.696 115.931 183.891 115.512 183.713C115.093 183.535 114.898 183.051 115.076 182.632C115.258 182.206 115.461 181.79 115.687 181.388C115.114 180.755 114.56 180.106 114.025 179.44C113.74 179.085 113.796 178.567 114.151 178.282C114.506 177.997 115.025 178.054 115.31 178.408C115.733 178.935 116.168 179.451 116.617 179.956C117.111 179.296 117.669 178.683 118.284 178.126C118.621 177.82 119.142 177.846 119.448 178.184ZM170.836 183.713C171.269 183.572 171.734 183.809 171.874 184.242C172.052 184.791 172.203 185.348 172.327 185.911L174.107 185.685C174.558 185.628 174.97 185.948 175.028 186.399C175.085 186.85 174.765 187.263 174.314 187.32L172.604 187.537C172.701 188.329 172.745 189.128 172.734 189.928C172.727 190.384 172.354 190.747 171.899 190.741C171.443 190.735 171.08 190.361 171.086 189.906C171.096 189.182 171.057 188.46 170.969 187.744L168.397 188.07C167.946 188.127 167.534 187.808 167.476 187.356C167.419 186.905 167.738 186.492 168.19 186.435L170.684 186.119C170.579 185.658 170.453 185.201 170.306 184.751C170.166 184.318 170.403 183.853 170.836 183.713ZM186.097 206.18C186.548 206.238 186.866 206.652 186.807 207.103C186.7 207.927 186.57 208.748 186.418 209.565C186.873 209.579 187.332 209.553 187.787 209.485C188.238 209.418 188.657 209.729 188.724 210.179C188.791 210.629 188.48 211.048 188.03 211.115C187.381 211.211 186.728 211.239 186.082 211.199C185.954 211.766 185.816 212.33 185.666 212.892C185.549 213.332 185.098 213.594 184.658 213.477C184.218 213.36 183.956 212.909 184.073 212.469C184.207 211.965 184.332 211.459 184.448 210.952C183.749 210.782 183.068 210.53 182.421 210.201C182.302 210.275 182.175 210.314 182.059 210.329C181.718 210.371 181.456 210.214 181.345 210.135C181.209 210.037 181.037 209.868 180.948 209.617C180.899 209.481 180.87 209.303 180.91 209.104C180.952 208.899 181.057 208.729 181.19 208.602C181.554 208.256 181.996 208.267 182.258 208.322C182.51 208.375 182.727 208.491 182.854 208.563C183.463 208.909 184.113 209.169 184.784 209.337C184.937 208.526 185.066 207.71 185.173 206.891C185.232 206.439 185.645 206.121 186.097 206.18ZM182.995 227.381C183.074 226.933 183.502 226.635 183.95 226.714C185.125 226.922 186.299 227.131 187.473 227.339C187.64 225.968 187.767 224.592 187.852 223.213C187.88 222.759 188.272 222.414 188.726 222.442C189.18 222.47 189.525 222.861 189.497 223.315C189.407 224.756 189.275 226.194 189.098 227.627C190.13 227.81 191.161 227.992 192.193 228.175C192.641 228.254 192.94 228.682 192.86 229.13C192.781 229.578 192.353 229.877 191.906 229.797C190.896 229.619 189.887 229.44 188.878 229.261C188.72 230.342 188.537 231.42 188.329 232.493C188.243 232.94 187.81 233.232 187.363 233.145C186.917 233.059 186.625 232.626 186.711 232.18C186.917 231.115 187.098 230.046 187.255 228.973C186.057 228.761 184.86 228.549 183.662 228.337C183.214 228.257 182.915 227.83 182.995 227.381ZM88.4118 224.968C88.7394 225.284 88.7493 225.806 88.4334 226.133C87.5577 227.042 86.7351 227.999 85.9695 229.001C86.292 229.295 86.6067 229.598 86.913 229.909C86.9799 229.977 87.0747 230.054 87.183 230.12C87.2505 230.161 87.3138 230.192 87.3693 230.215C87.3027 230.291 87.249 230.381 87.2133 230.483C87.2211 230.46 87.243 230.413 87.2922 230.365C87.342 230.315 87.3981 230.285 87.4449 230.27C87.4812 230.258 87.5049 230.256 87.5121 230.256L87.5139 230.257C87.5142 230.257 87.5145 230.257 87.5145 230.257C87.5145 230.256 87.5136 230.256 87.5121 230.256C87.5094 230.256 87.5046 230.256 87.4974 230.255C87.489 230.253 87.4773 230.251 87.462 230.246C87.435 230.239 87.4038 230.229 87.3693 230.215C87.5847 229.968 87.9366 229.864 88.2645 229.98C88.6935 230.131 88.9185 230.602 88.767 231.031C88.629 231.422 88.3407 231.71 87.9582 231.835C87.6201 231.946 87.2874 231.905 87.0402 231.839C86.5464 231.709 86.0613 231.394 85.7373 231.064C85.4955 230.818 85.2477 230.577 84.9948 230.343C84.5868 230.935 84.1977 231.542 83.8287 232.16C83.5953 232.551 83.0895 232.679 82.6989 232.445C82.308 232.212 82.1805 231.706 82.4136 231.315C82.8315 230.615 83.2734 229.93 83.7387 229.262C82.815 228.525 81.8328 227.862 80.8014 227.28C80.4051 227.057 80.265 226.554 80.4888 226.158C80.7123 225.761 81.2148 225.622 81.6111 225.845C82.6992 226.459 83.7363 227.157 84.7128 227.931C85.5015 226.905 86.3475 225.923 87.2466 224.99C87.5625 224.662 88.0842 224.653 88.4118 224.968ZM126.257 220.078C126.669 220.271 126.847 220.761 126.655 221.173C119.803 235.841 107.625 247.35 92.5941 253.363C92.1717 253.532 91.692 253.327 91.5231 252.904C91.3542 252.482 91.5597 252.002 91.9821 251.833C106.624 245.976 118.487 234.764 125.162 220.476C125.354 220.063 125.845 219.886 126.257 220.078ZM71.7726 224.893C72.0462 224.529 71.9733 224.013 71.6097 223.739C71.2461 223.465 70.7295 223.538 70.4559 223.902C63.1959 233.549 61.8927 247.306 67.2132 258.145C67.4139 258.553 67.9074 258.722 68.316 258.521C68.7246 258.321 68.8932 257.827 68.6925 257.419C63.6456 247.137 64.8858 234.044 71.7726 224.893ZM223.38 239.978C223.742 240.254 223.811 240.771 223.535 241.133C218.346 247.932 211.267 253.051 203.184 255.848C202.754 255.997 202.285 255.769 202.136 255.339C201.987 254.909 202.215 254.439 202.645 254.291C210.422 251.6 217.232 246.675 222.225 240.133C222.501 239.771 223.018 239.702 223.38 239.978ZM231.29 236.447C231.461 236.026 231.257 235.545 230.836 235.374C230.414 235.203 229.934 235.407 229.763 235.828C227.691 240.94 224.069 245.357 219.806 248.969C215.543 252.583 210.656 255.424 205.625 258.018C205.22 258.226 205.062 258.723 205.27 259.128C205.479 259.532 205.976 259.691 206.38 259.482C211.45 256.868 216.466 253.96 220.872 250.226C225.279 246.492 229.093 241.868 231.29 236.447ZM204.089 236.917C204.168 236.469 204.596 236.171 205.044 236.25C206.218 236.458 207.393 236.666 208.567 236.875C208.734 235.504 208.86 234.128 208.946 232.749C208.974 232.295 209.365 231.949 209.819 231.978C210.274 232.006 210.619 232.397 210.591 232.851C210.501 234.292 210.368 235.73 210.192 237.162C211.223 237.345 212.255 237.528 213.287 237.711C213.735 237.79 214.034 238.217 213.954 238.666C213.875 239.114 213.447 239.413 212.999 239.333C211.99 239.155 210.981 238.976 209.972 238.797C209.813 239.878 209.63 240.956 209.423 242.029C209.336 242.475 208.904 242.767 208.457 242.681C208.01 242.594 207.718 242.162 207.805 241.715C208.011 240.651 208.192 239.582 208.349 238.509C207.151 238.297 205.954 238.085 204.756 237.872C204.308 237.793 204.009 237.365 204.089 236.917Z" fill="currentColor"/>
<path d="M131.28 102.157C131.658 102.4 132.098 102.527 132.547 102.523C132.996 102.519 133.434 102.385 133.807 102.136C135.424 101.051 134.518 98.3773 132.611 98.3971C130.65 98.4166 129.555 100.976 131.28 102.157Z" stroke="currentColor" stroke-width="1.2" stroke-linecap="round" stroke-linejoin="round"/>
<path d="M143.381 102.273C145.909 102.638 146.429 98.6615 144.019 98.2298C141.56 97.7891 140.775 101.897 143.381 102.273Z" stroke="currentColor" stroke-width="1.2" stroke-linecap="round" stroke-linejoin="round"/>
<path d="M133.083 99.9775C129.099 102.6 127.342 108.147 129.09 112.584C130.731 116.75 134.916 119.623 136.132 123.931C136.917 126.708 136.342 129.669 135.711 132.484" stroke="currentColor" stroke-width="1.2" stroke-linecap="round" stroke-linejoin="round"/>
<path d="M143.691 99.4214C148.086 103.413 151.158 109.155 150.904 115.087C150.77 118.201 149.753 121.201 149.21 124.27C148.666 127.339 148.655 130.709 150.343 133.329" stroke="currentColor" stroke-width="1.2" stroke-linecap="round" stroke-linejoin="round"/>
<path d="M136.556 135.105C136.648 134.629 136.625 134.138 136.492 133.671C136.421 133.439 136.289 133.231 136.109 133.069C135.929 132.906 135.708 132.797 135.47 132.751C134.93 132.686 134.437 133.059 134.056 133.449C133.486 134.034 133.01 134.703 132.644 135.433C132 136.723 131.915 139.504 134.092 139.305C135.804 139.149 136.377 136.417 136.556 135.105Z" stroke="currentColor" stroke-width="1.2" stroke-linecap="round" stroke-linejoin="round"/>
<path d="M149.452 138.153C149.538 138.753 149.779 139.321 150.152 139.8C150.34 140.037 150.584 140.224 150.862 140.344C151.14 140.465 151.444 140.515 151.746 140.49C152.085 140.421 152.398 140.261 152.654 140.029C152.91 139.796 153.099 139.499 153.199 139.168C153.392 138.503 153.426 137.802 153.3 137.121C153.14 135.903 152.533 133.69 150.872 133.979C149.18 134.274 149.224 136.903 149.452 138.153Z" stroke="currentColor" stroke-width="1.2" stroke-linecap="round" stroke-linejoin="round"/>
<path d="M152.933 234.067C163.35 243.053 179.443 244.131 191.612 237.712C203.78 231.294 211.806 218.212 213.368 204.545C213.889 199.987 213.763 195.323 214.969 190.895C217.641 181.085 227.38 173.677 237.545 173.718C242.235 173.737 247.067 175.313 250.279 178.731C253.491 182.149 254.729 187.555 252.586 191.727C251.432 193.975 249.436 195.703 247.236 196.946C244.619 198.423 241.318 199.256 238.638 197.893C235.763 196.432 234.547 192.413 236.132 189.602C237.717 186.792 241.784 185.751 244.523 187.455" stroke="url(#paint11_linear_28_12818)" stroke-width="1.2" stroke-linecap="round" stroke-linejoin="round"/>
<g opacity="0.1">
<path d="M155.19 99.1867C164.615 102.443 174.922 97.0141 181.435 90.4234C184.984 86.833 188.139 82.5598 190.172 77.926C192.386 72.8824 193.426 67.519 193.831 62.044C194.057 58.984 194.08 55.9102 194.022 52.8424C193.992 51.2974 193.942 49.7524 193.885 48.2086C193.82 46.483 193.948 44.7103 193.071 43.1626C192.25 41.7157 189.729 41.5126 188.967 43.1626C187.874 45.5275 188.487 48.4909 188.563 51.04C188.638 53.5216 188.673 56.0053 188.607 58.4875C188.477 63.3517 187.939 68.2018 186.414 72.8431C183.703 81.0958 177.195 88.8931 169.381 92.7631C167.359 93.7843 165.2 94.5079 162.971 94.912C160.599 95.3266 158.141 95.152 155.751 95.0431C153.268 94.9288 153.034 98.4415 155.19 99.1864V99.1867Z" fill="currentColor"/>
</g>
<g opacity="0.1">
<path d="M114.228 118.63C113.287 120.774 113.54 123.264 113.426 125.564C113.322 127.685 113.062 129.784 112.866 131.897C112.461 136.147 111.753 140.363 110.747 144.512C109.768 148.576 108.52 152.571 107.011 156.47C106.294 158.33 105.515 160.163 104.674 161.968C103.737 163.988 102.421 165.991 101.728 168.096C101.269 169.491 102.146 171.087 103.455 171.613C104.939 172.21 106.254 171.613 107.178 170.393C108.428 168.74 109.221 166.439 110.073 164.547C111.001 162.487 111.869 160.401 112.679 158.29C114.232 154.23 115.502 150.067 116.479 145.831C117.486 141.416 118.162 136.932 118.503 132.417C118.643 130.135 118.668 127.848 118.579 125.564C118.525 123.314 118.686 120.649 117.555 118.63C116.905 117.469 114.821 117.28 114.228 118.63Z" fill="currentColor"/>
</g>
<g opacity="0.1">
<path d="M130.706 87.9218C131.527 85.8911 131.246 83.42 131.203 81.2717C131.159 79.1234 131.126 76.9751 131.119 74.8268C131.105 70.5395 131.003 66.2252 131.32 61.946C131.558 58.7453 132.666 56.4146 135.902 55.5218C139.848 54.4325 144.026 55.4039 148.055 55.1618C149.814 55.0562 151.318 53.7377 151.318 51.8993C151.318 50.2334 149.822 48.5072 148.055 48.6368C143.336 48.9824 138.348 47.8715 133.79 49.562C129.508 51.1496 126.628 54.452 125.874 58.9952C125.098 63.6692 125.347 68.6447 125.531 73.3616C125.631 75.9023 125.797 78.4415 125.967 80.9783C126.131 83.4245 126.095 86.1617 127.262 88.3715C128.096 89.951 130.146 89.3063 130.706 87.9215V87.9218Z" fill="currentColor"/>
</g>
<g opacity="0.1">
<path d="M122.534 91.3494C122.661 91.6302 122.528 91.6884 122.343 91.8921C122.088 92.2086 121.744 92.4417 121.356 92.562C119.938 93.0306 118.299 92.8989 116.826 93.0699C113.99 93.3852 111.194 93.9843 108.478 94.8585C102.863 96.6945 97.7299 99.6117 93.0877 103.239C83.2177 110.952 76.6093 121.822 71.9938 133.315C69.2404 140.171 67.3027 147.225 65.7784 154.448C65.4292 156.104 66.2659 157.838 67.9684 158.306C69.5122 158.73 71.4934 157.784 71.8261 156.116C74.4277 143.059 78.0859 129.885 85.7617 118.826C92.4148 109.241 102.354 101.435 113.889 98.8983C115.466 98.5515 117.065 98.3169 118.674 98.1963C120.583 98.0523 122.552 97.9689 124.265 97.0119C127.212 95.3652 128.38 90.7209 125.188 88.6938C123.403 87.5598 121.794 89.721 122.533 91.3488L122.534 91.3494Z" fill="currentColor"/>
</g>
<defs>
<linearGradient id="paint0_linear_28_12818" x1="174.921" y1="45.7827" x2="174.921" y2="171.467" gradientUnits="userSpaceOnUse">
<stop stop-color="#FFB800"/>
<stop offset="1" stop-color="#FF7F0A"/>
</linearGradient>
<linearGradient id="paint1_linear_28_12818" x1="200.207" y1="36.8203" x2="200.207" y2="50.791" gradientUnits="userSpaceOnUse">
<stop stop-color="#FFB800"/>
<stop offset="1" stop-color="#FF7F0A"/>
</linearGradient>
<linearGradient id="paint2_linear_28_12818" x1="146.745" y1="88.353" x2="146.745" y2="94.3344" gradientUnits="userSpaceOnUse">
<stop stop-color="#FFB800"/>
<stop offset="1" stop-color="#FF7F0A"/>
</linearGradient>
<linearGradient id="paint3_linear_28_12818" x1="141.092" y1="88.4731" x2="141.092" y2="94.3072" gradientUnits="userSpaceOnUse">
<stop stop-color="#FFB800"/>
<stop offset="1" stop-color="#FF7F0A"/>
</linearGradient>
<linearGradient id="paint4_linear_28_12818" x1="136.258" y1="88.6094" x2="136.258" y2="94.2797" gradientUnits="userSpaceOnUse">
<stop stop-color="#FFB800"/>
<stop offset="1" stop-color="#FF7F0A"/>
</linearGradient>
<linearGradient id="paint5_linear_28_12818" x1="131.006" y1="88.7368" x2="131.006" y2="94.2577" gradientUnits="userSpaceOnUse">
<stop stop-color="#FFB800"/>
<stop offset="1" stop-color="#FF7F0A"/>
</linearGradient>
<linearGradient id="paint6_linear_28_12818" x1="125.109" y1="88.9067" x2="125.109" y2="94.2299" gradientUnits="userSpaceOnUse">
<stop stop-color="#FFB800"/>
<stop offset="1" stop-color="#FF7F0A"/>
</linearGradient>
<linearGradient id="paint7_linear_28_12818" x1="106.119" y1="93.7556" x2="106.119" y2="172.945" gradientUnits="userSpaceOnUse">
<stop stop-color="#FFB800"/>
<stop offset="1" stop-color="#FF7F0A"/>
</linearGradient>
<linearGradient id="paint8_linear_28_12818" x1="107.718" y1="14.7412" x2="107.718" y2="31.8729" gradientUnits="userSpaceOnUse">
<stop stop-color="#FFB800"/>
<stop offset="1" stop-color="#FF7F0A"/>
</linearGradient>
<linearGradient id="paint9_linear_28_12818" x1="226.745" y1="91.3555" x2="226.745" y2="112.248" gradientUnits="userSpaceOnUse">
<stop stop-color="#FFB800"/>
<stop offset="1" stop-color="#FF7F0A"/>
</linearGradient>
<linearGradient id="paint10_linear_28_12818" x1="61.1949" y1="39.4199" x2="61.1949" y2="124.463" gradientUnits="userSpaceOnUse">
<stop stop-color="#FFB800"/>
<stop offset="1" stop-color="#FF7F0A"/>
</linearGradient>
<linearGradient id="paint11_linear_28_12818" x1="203.294" y1="173.718" x2="203.294" y2="241.802" gradientUnits="userSpaceOnUse">
<stop stop-color="#FFB800"/>
<stop offset="1" stop-color="#FF7F0A"/>
</linearGradient>
</defs>
</svg>
