<svg width="288" height="288" viewBox="0 0 288 288" fill="none" xmlns="http://www.w3.org/2000/svg">
<mask id="mask0_28_12815" style="mask-type:luminance" maskUnits="userSpaceOnUse" x="11" y="23" width="266" height="242">
<path d="M276.599 23.3994H11.3994V264.599H276.599V23.3994Z" fill="white"/>
</mask>
<g mask="url(#mask0_28_12815)">
<path fill-rule="evenodd" clip-rule="evenodd" d="M198.93 131.674C199.056 131.798 199.144 131.879 199.186 131.915C199.107 131.829 199.021 131.748 198.93 131.674ZM192.304 89.8936C194.977 92.3671 197.128 94.1047 197.221 94.18C195.767 92.5522 194.115 91.1124 192.304 89.8936ZM182.461 73.4557C179.148 76.6744 186.82 84.8194 192.298 89.8873C189.761 88.2676 186.81 87.3835 184.895 90.0664C181.039 95.4628 197.224 113.002 198.041 113.883C197.445 113.279 189.134 105.025 185.441 110.223C181.9 115.206 196.645 129.508 198.92 131.668C198.084 130.965 195.547 129.439 192.54 133.418C189.978 136.8 195.2 143.846 198.646 147.845C197.502 147.209 196.048 147.064 194.386 148.367C192.343 149.969 194.485 154.777 197.164 159.215C198.728 161.8 200.468 164.259 201.668 165.885C202.525 167.046 203.107 167.786 203.158 167.846C204.232 167.674 205.564 167.468 207.004 167.269C208.386 167.076 209.861 166.889 211.294 166.745C211.222 166.5 207.614 154.129 210.356 150.789C212.564 148.095 214.456 149.522 215.131 150.207C213.623 148.436 206.121 139.326 208.296 135.489C210.646 131.342 216.193 137.563 216.48 137.889C216.106 137.371 205.406 122.469 210.356 116.469C215.306 110.469 222.655 121.878 222.911 122.276C222.597 121.712 211.556 101.646 216.491 97.4458C217.987 96.1735 219.719 96.1674 221.411 96.7858C222.367 87.1023 215.11 89.7811 215.11 89.7811C215.11 89.7811 228.88 75.3013 225.046 70.7581C221.273 66.2839 211.716 77.232 211.426 77.5639C211.772 77.0902 225.25 58.5829 219.226 50.3173C213.12 41.9404 202.05 61.5304 202.05 61.5304C202.05 61.5304 196.37 44.3542 189.7 49.606C183.103 54.799 196.626 75.9457 196.935 76.4284L196.938 76.4332C196.709 76.2487 187.367 68.6869 182.461 73.4557ZM201.334 150.783C201.274 150.66 200.278 148.753 198.646 147.845C200.097 149.537 201.234 150.684 201.334 150.783ZM204.739 68.0431C204.738 67.7947 204.535 67.5942 204.287 67.5955C204.038 67.597 203.838 67.7995 203.839 68.0482L204.289 68.0455C203.839 68.0482 203.839 68.0485 203.839 68.0491V68.0521V68.0647L203.84 68.1139L203.841 68.3083C203.842 68.4799 203.843 68.7343 203.845 69.0667C203.85 69.7315 203.856 70.7074 203.865 71.9515C203.883 74.4397 203.911 78.0009 203.952 82.2939C204.034 90.88 204.165 102.393 204.366 114.099C204.567 125.805 204.837 137.708 205.195 147.072C205.375 151.754 205.576 155.804 205.802 158.881C205.915 160.418 206.034 161.717 206.161 162.731C206.286 163.731 206.422 164.494 206.579 164.934C206.662 165.168 206.92 165.29 207.154 165.206C207.388 165.122 207.51 164.865 207.426 164.631C207.307 164.297 207.18 163.626 207.054 162.62C206.93 161.627 206.812 160.346 206.699 158.815C206.475 155.754 206.274 151.715 206.095 147.038C205.737 137.683 205.467 125.788 205.266 114.084C205.065 102.38 204.934 90.8701 204.852 82.2856C204.811 77.9932 204.783 74.4325 204.765 71.9449C204.756 70.7011 204.75 69.7258 204.745 69.061C204.743 68.7289 204.742 68.4742 204.741 68.3029L204.74 68.1088L204.739 68.0596V68.0473V68.044C204.739 68.0434 204.739 68.0431 204.289 68.0455L204.739 68.0431Z" fill="#171717"/>
<path d="M233.584 162.064C235.032 162.857 235.837 163.738 235.837 164.664C235.837 164.715 235.834 164.767 235.828 164.818C235.678 166.405 233.171 167.844 229.146 168.933C228.169 167.816 226.579 167.017 224.616 166.456L224.543 166.251C227.09 165.334 230.607 163.858 233.039 161.988L233.584 162.064Z" fill="#171717"/>
<path d="M215.221 150.311C215.303 150.407 215.357 150.474 215.381 150.498C215.36 150.471 215.306 150.401 215.221 150.311ZM244.785 107.806C244.938 107.737 248.459 106.132 252.984 103.661C257.53 101.924 262.426 101.209 263.234 105.68C264.773 114.208 235.747 126.866 234.863 127.25C235.527 127.014 251.502 121.421 253.865 127.259C256.278 133.223 232.003 140.179 232.003 140.179C232.003 140.179 246.341 139.042 247.192 144.933C248.024 150.689 227.176 152.517 226.217 152.598C226.829 152.565 235.701 152.158 235.837 157.612C235.876 159.22 234.718 160.698 233.038 161.989C230.606 163.859 227.089 165.335 224.543 166.252C222.663 166.931 221.312 167.302 221.312 167.302L221.237 167.456C220.091 166.937 218.864 166.622 217.611 166.523C216.102 166.366 213.764 166.499 211.294 166.75C211.221 166.505 207.613 154.134 210.355 150.794C212.564 148.1 214.455 149.528 215.131 150.212C213.623 148.442 206.12 139.331 208.295 135.494C210.645 131.346 216.193 137.567 216.479 137.894C216.105 137.375 205.402 122.47 210.355 116.474C215.309 110.478 222.655 121.883 222.911 122.281C222.597 121.717 211.556 101.65 216.491 97.4509C217.987 96.178 219.719 96.1719 221.411 96.7908C225.311 98.2149 229.007 102.951 229.142 103.123C228.892 102.761 218.285 87.3246 225.471 82.1208C229.589 79.1377 235.836 92.3412 235.836 92.3412C235.836 92.3412 233.242 69.2008 236.88 67.0711C240.434 64.9954 244.437 83.8615 244.63 84.7816C244.401 83.569 238.675 52.6633 245.773 49.0435C253.013 45.3511 257.982 65.5114 257.982 65.5114C257.982 65.5114 273.312 57.9877 275.955 64.2322C278.516 70.2868 254.025 87.8121 252.518 88.8873C253.846 88.0173 273.044 75.6412 273.454 84.9598C273.731 91.2283 261.553 98.9932 252.983 103.666C250.133 104.801 247.39 106.187 244.785 107.806Z" fill="url(#paint0_linear_28_12815)"/>
<path d="M192.85 160.076C194.138 159.771 195.553 159.503 197.073 159.274L197.163 159.219C198.725 161.805 200.466 164.263 201.667 165.889L201.495 166.016C198.813 166.308 197.072 166.583 197.072 166.583L192.85 160.076Z" fill="#171717"/>
<path d="M197.221 94.18C197.127 94.1047 194.976 92.3671 192.304 89.8936C194.115 91.1122 195.766 92.5522 197.221 94.18Z" fill="#171717"/>
<path d="M173.503 148.371L160.073 149.342L160.016 149.345C159.938 146.772 159.799 143.951 159.618 141.028L167.38 140.178C167.38 140.178 175.362 144.274 173.503 148.371Z" fill="url(#paint1_linear_28_12815)"/>
<path d="M152.242 234.403H152.212C152.222 234.4 152.232 234.4 152.242 234.403Z" fill="#171717"/>
<path d="M168.867 156.893L159.392 169.883H136.818L150.022 156.893H151.462L151.755 156.881L151.462 150.232L151.106 142.192L149.595 108.128L152.044 105.679L156.518 106.958C156.518 106.958 158.656 125.462 159.619 141.028C159.799 143.951 159.939 146.772 160.017 149.345C160.099 152.232 160.102 154.808 159.996 156.875L160.403 156.893L168.867 156.893Z" fill="#171717"/>
<path d="M195.803 248.512L187.818 249.948V233.018L152.243 234.403C152.233 234.4 152.223 234.4 152.213 234.403L141.347 234.828C143.142 218.554 144.234 189.265 144.342 180.637C144.369 178.58 143.669 177.029 142.502 175.853L200.594 172.013L197.148 227.033L195.803 248.512Z" fill="#171717"/>
<path d="M144.342 180.637C144.233 189.265 143.142 218.553 141.347 234.828L23.6429 239.407V264.002H16.2929L12.1436 184.468L142.502 175.853C143.669 177.03 144.369 178.58 144.342 180.637Z" fill="#171717"/>
<path d="M162.797 36.1548L158.472 59.3316L149.168 48.2574L136.891 59.3316L131.388 51.1143L126.173 58.7643L121.913 53.1564L118.853 55.3494L120.421 34.0278L162.797 36.1548ZM144.435 44.9211C144.435 44.2611 144.24 43.6161 143.873 43.0671C143.507 42.5184 142.985 42.0909 142.376 41.8383C141.766 41.5857 141.095 41.5194 140.448 41.6481C139.801 41.7768 139.206 42.0948 138.74 42.5613C138.273 43.0278 137.955 43.6224 137.826 44.2698C137.697 44.9169 137.763 45.5877 138.016 46.1976C138.269 46.8072 138.696 47.3283 139.245 47.6949C139.794 48.0615 140.439 48.2574 141.099 48.2574C141.537 48.2574 141.971 48.1713 142.376 48.0036C142.781 47.8359 143.148 47.5902 143.458 47.2803C143.768 46.9707 144.014 46.6029 144.182 46.1979C144.349 45.7932 144.435 45.3591 144.435 44.9211Z" fill="url(#paint2_linear_28_12815)"/>
<path d="M136.891 59.3315L149.169 48.2573L158.472 59.3315L156.834 68.0981L118.079 65.8595L118.854 55.3496L121.913 53.1566L126.173 58.7645L131.389 51.1142L136.891 59.3315Z" fill="#171717"/>
<path d="M112.755 98.3462C112.93 98.4638 116.556 100.916 115.24 103.553C113.892 106.25 110.257 101.529 110.257 101.529H110.254C110.474 98.4788 110.634 94.6991 110.74 91.5557C110.854 94.3913 116.094 94.4657 116.094 96.8801C116.094 99.227 112.93 98.3945 112.755 98.3462Z" fill="#171717"/>
<path d="M88.1932 121.104C94.0696 120.811 102.589 120.654 110.13 120.57C119.16 120.473 126.785 120.48 126.785 120.48L127.129 143.904L151.105 142.194L151.461 150.234L136.496 150.861L136.426 151.057C130.592 149.042 110.912 151.039 110.912 151.039L110.8 151.045L111.21 160.484L111.337 163.389C111.337 163.389 69.2305 168.673 52.5514 158.661L52.3765 158.628L53.4505 153.113C53.5156 152.95 53.5492 152.776 53.5498 152.6C53.5498 150.932 50.4517 149.478 45.8755 148.724L45.8938 148.615C44.3311 126.186 76.2745 123 81.5263 121.722C82.57 121.468 84.9865 121.266 88.1932 121.104Z" fill="url(#paint3_linear_28_12815)"/>
<path d="M89.9609 100.524C89.9489 100.545 89.9339 100.581 89.9126 100.627C89.9339 100.581 89.9519 100.545 89.9609 100.524ZM89.8709 100.711C89.5409 101.335 88.4501 103.085 86.9204 102.204C85.0742 101.139 88.0547 98.2283 89.0504 95.5313C90.0461 92.8343 88.3415 89.1414 88.2704 85.9476C88.1993 82.7538 101.863 82.5417 101.863 82.5417C101.863 82.5417 100.195 76.9338 101.863 76.5084C103.48 76.0953 105.001 80.424 105.091 80.6835C105.025 80.3397 103.58 72.816 105.589 72.816C107.649 72.816 108.642 80.3397 108.642 80.3397C108.642 80.3397 109.209 71.3258 110.913 71.6816C112.569 72.0287 111.677 79.887 111.625 80.3217C111.707 79.9317 113.146 73.136 116.663 74.3789C120.283 75.6581 110.913 86.3036 110.913 86.3036H110.892C110.907 85.6736 110.913 85.3113 110.913 85.3113C110.913 85.3113 92.8106 85.3112 92.8136 92.9765C92.8166 95.1065 92.9636 98.6327 93.1001 102.37C93.0005 102.696 91.9871 105.809 89.8331 105.52C87.8492 105.254 89.4332 101.631 89.8706 100.71L89.8709 100.711Z" fill="#171717"/>
<path d="M110.13 120.57C102.588 120.654 94.0691 120.81 88.1927 121.104C88.1654 120.986 87.4385 117.665 88.6241 117.038C88.9589 116.86 90.7205 116.754 93.0977 116.694C96.5819 116.604 101.381 116.612 104.914 116.636C107.656 116.657 109.632 116.684 109.632 116.684L110.13 120.57Z" fill="url(#paint4_linear_28_12815)"/>
<path d="M69.2097 78.7437L70.383 86.409L68.5308 86.5145L63.7464 86.7831L60.9048 86.943L61.9695 78.7437H69.2097Z" fill="#171717"/>
<path d="M53.4509 153.113C52.6001 155.315 46.3253 157.023 38.7143 157.023C31.2905 157.023 25.1397 155.397 24.0537 153.273L23.8818 152.6C23.8818 150.156 30.5213 148.175 38.7143 148.175C41.1125 148.165 43.5074 148.349 45.8759 148.724C50.4521 149.478 53.5502 150.932 53.5502 152.6L53.4509 153.113Z" fill="#171717"/>
<path d="M52.3766 158.628L49.0166 175.904C49.0166 177.473 44.7266 178.743 39.4358 178.743C34.145 178.743 29.8516 177.473 29.8516 175.904L28.6516 171.21H28.6486L26.1268 161.358L25.5355 159.059L24.0532 153.273C25.1392 155.397 31.2902 157.023 38.714 157.023C46.325 157.023 52.5998 155.316 53.4506 153.114L52.3766 158.628Z" fill="url(#paint5_linear_28_12815)"/>
<path d="M12.1436 184.469L16.2944 264.003H23.6429V239.408L141.347 234.828L152.213 234.403H152.243L187.818 233.019V249.948L195.803 248.512L197.149 227.034L200.594 172.013L142.502 175.853L12.1436 184.469Z" stroke="#171717" stroke-width="0.9" stroke-linecap="round" stroke-linejoin="round"/>
<path d="M151.461 156.893H150.022L136.818 169.883H159.392L168.867 156.893H160.402" stroke="#171717" stroke-width="0.9" stroke-linecap="round" stroke-linejoin="round"/>
<path d="M152.044 163.388L151.754 156.881L151.461 150.232L151.105 142.192L149.594 108.128L152.044 105.679C152.044 105.679 154.831 155.649 154.493 163.387" stroke="#171717" stroke-width="0.9" stroke-linecap="round" stroke-linejoin="round"/>
<path d="M152.044 105.68L156.518 106.959C156.518 106.959 158.656 125.463 159.619 141.029C159.799 143.952 159.938 146.772 160.017 149.346C160.098 152.232 160.101 154.809 159.996 156.876C159.899 158.791 159.706 160.269 159.392 161.153" stroke="#171717" stroke-width="0.9" stroke-linecap="round" stroke-linejoin="round"/>
<path d="M151.105 142.193L127.129 143.903L126.785 120.479L126.173 78.7437L174.189 88.964V139.433L167.38 140.178L159.618 141.028H159.615" stroke="#171717" stroke-width="0.9" stroke-linecap="round" stroke-linejoin="round"/>
<path d="M64.208 23.9795L65.4839 77.9988" stroke="#171717" stroke-width="0.9" stroke-linecap="round" stroke-linejoin="round"/>
<path d="M68.5308 86.5145L70.383 86.409L69.2097 78.7437H61.9695L60.9048 86.9429L63.7464 86.7831L68.5308 86.5145Z" stroke="#171717" stroke-width="0.9" stroke-linecap="round" stroke-linejoin="round"/>
<path d="M63.7466 86.7827V90.2792L64.6667 90.2309L68.3108 90.0407L69.2459 89.9924L68.531 86.5142" stroke="#171717" stroke-width="0.9" stroke-linecap="round" stroke-linejoin="round"/>
<path d="M64.6665 90.2314L64.2081 92.4064C64.2081 92.4064 58.2441 92.6569 59.1309 99.2935C60.0177 105.93 67.6509 105.538 67.7556 105.503C67.8603 105.469 74.8536 104.439 74.0031 98.8306C73.1526 93.2227 68.3589 92.3353 68.3589 92.3353L68.3226 90.2782" stroke="#171717" stroke-width="0.9" stroke-linecap="round" stroke-linejoin="round"/>
<path d="M65.6437 92.9761L64.3495 97.8028L62.6812 100.853L65.4475 99.646L67.4719 101.528L69.2455 99.5404L71.7313 99.9325L66.814 92.9761" stroke="#171717" stroke-width="0.9" stroke-linecap="round" stroke-linejoin="round"/>
<path d="M52.5518 158.661C69.2318 168.674 111.337 163.388 111.337 163.388L111.21 160.483L110.8 151.044L110.628 147.135C110.628 147.135 67.0922 153.702 64.8446 144.721C63.7466 140.32 69.2459 139.183 69.2459 139.183" stroke="#171717" stroke-width="0.9" stroke-linecap="round" stroke-linejoin="round"/>
<path d="M126.785 120.48C126.785 120.48 119.159 120.474 110.13 120.57C102.589 120.654 94.0696 120.81 88.1932 121.104C84.9865 121.267 82.57 121.469 81.5263 121.722C76.2745 123 44.3311 126.186 45.8938 148.615" stroke="#171717" stroke-width="0.9" stroke-linecap="round" stroke-linejoin="round"/>
<path d="M88.1936 121.107V121.104C88.1663 120.986 87.4394 117.664 88.625 117.037C88.9598 116.859 90.7214 116.754 93.0986 116.693C96.5828 116.603 101.382 116.612 104.915 116.636C107.657 116.657 109.633 116.684 109.633 116.684L110.13 120.57V120.573" stroke="#171717" stroke-width="0.9" stroke-linecap="round" stroke-linejoin="round"/>
<path d="M104.915 116.636C104.915 116.636 102.891 111.999 105.235 110.295C107.578 108.59 108.713 109.869 109.633 106.674C109.88 105.818 110.086 103.893 110.254 101.528C110.475 98.4782 110.635 94.6984 110.74 91.555C110.815 89.3167 110.864 87.4013 110.89 86.303C110.905 85.673 110.911 85.3105 110.911 85.3105C110.911 85.3105 92.8085 85.3106 92.8115 92.9759C92.8145 95.1059 92.9615 98.6321 93.098 102.37C93.3002 107.978 93.4781 114.065 93.095 116.62" stroke="#171717" stroke-width="0.9" stroke-linecap="round" stroke-linejoin="round"/>
<path d="M112.755 98.3462C112.93 98.3945 116.094 99.227 116.094 96.8801C116.094 94.4669 110.854 94.3901 110.74 91.5557" stroke="#171717" stroke-width="0.9" stroke-linecap="round" stroke-linejoin="round"/>
<path d="M110.257 101.529C110.257 101.529 113.892 106.25 115.24 103.553C116.556 100.916 112.93 98.4639 112.755 98.3463C112.753 98.3445 112.751 98.3433 112.749 98.3433" stroke="#171717" stroke-width="0.9" stroke-linecap="round" stroke-linejoin="round"/>
<path d="M89.8705 100.71C89.4331 101.63 87.8491 105.253 89.8312 105.519C91.9852 105.808 92.9986 102.695 93.0982 102.369L93.1072 102.342" stroke="#171717" stroke-width="0.9" stroke-linecap="round" stroke-linejoin="round"/>
<path d="M89.9609 100.524C89.9489 100.545 89.9339 100.581 89.9126 100.627" stroke="#171717" stroke-width="0.9" stroke-linecap="round" stroke-linejoin="round"/>
<path d="M89.9126 100.627C89.9339 100.581 89.9519 100.545 89.9609 100.524C89.9651 100.519 89.9681 100.513 89.9699 100.506C89.9717 100.504 89.9729 100.502 89.9732 100.5" stroke="#171717" stroke-width="0.9" stroke-linecap="round" stroke-linejoin="round"/>
<path d="M89.9126 100.626C89.9 100.649 89.8889 100.672 89.8796 100.696C89.876 100.7 89.873 100.706 89.8706 100.711" stroke="#171717" stroke-width="0.9" stroke-linecap="round" stroke-linejoin="round"/>
<path d="M105.09 80.6833C105 80.4238 103.479 76.0951 101.862 76.5082C100.194 76.9336 101.862 82.5415 101.862 82.5415C101.862 82.5415 88.1994 82.7515 88.2687 85.9474C88.338 89.1433 90.0426 92.8345 89.0487 95.5312C88.0548 98.2279 85.0725 101.139 86.9187 102.204C88.4487 103.085 89.5404 101.334 89.8692 100.711" stroke="#171717" stroke-width="0.9" stroke-linecap="round" stroke-linejoin="round"/>
<path d="M111.624 80.3214C111.675 79.887 112.568 72.029 110.912 71.6816C109.207 71.3258 108.64 80.3394 108.64 80.3394C108.64 80.3394 107.648 72.8156 105.587 72.8156C103.577 72.8156 105.023 80.3394 105.09 80.6832C105.091 80.6871 105.092 80.6913 105.093 80.6952" stroke="#171717" stroke-width="0.9" stroke-linecap="round" stroke-linejoin="round"/>
<path d="M110.912 86.3034C110.912 86.3034 120.281 75.6578 116.661 74.3786C113.144 73.1357 111.705 79.9323 111.624 80.3214C111.622 80.3274 111.621 80.3337 111.621 80.3397" stroke="#171717" stroke-width="0.9" stroke-linecap="round" stroke-linejoin="round"/>
<path d="M99.9795 106.959C99.9795 106.959 95.7924 107.882 95.2944 104.971" stroke="#171717" stroke-width="0.9" stroke-linecap="round" stroke-linejoin="round"/>
<path d="M100.266 101.528C100.266 101.528 102.606 102.204 102.89 101.528C103.174 100.853 102.323 89.8509 102.323 89.8509C102.323 89.8509 106.652 89.0724 107.931 89.8509" stroke="#171717" stroke-width="0.9" stroke-linecap="round" stroke-linejoin="round"/>
<path d="M105.66 92.9761V94.8916" stroke="#171717" stroke-width="0.9" stroke-linecap="round" stroke-linejoin="round"/>
<path d="M98.4199 92.9761L98.7034 94.8916" stroke="#171717" stroke-width="0.9" stroke-linecap="round" stroke-linejoin="round"/>
<path d="M12.1436 184.469L21.9356 168.284L26.1257 161.358" stroke="#171717" stroke-width="0.9" stroke-linecap="round" stroke-linejoin="round"/>
<path d="M134.457 32.722L115.313 32.1094V69.694L162.053 70.1194L165.247 33.7084L146.834 33.1201L134.457 32.722Z" stroke="#171717" stroke-width="0.9" stroke-linecap="round" stroke-linejoin="round"/>
<path d="M158.472 59.3313L162.798 36.1545L120.423 34.0278L118.854 55.3494L118.079 65.8593L156.834 68.0979L158.472 59.3313Z" stroke="#171717" stroke-width="0.9" stroke-linecap="round" stroke-linejoin="round"/>
<path d="M134.478 32.109L141.609 27.8496L146.834 33.1167" stroke="#171717" stroke-width="0.9" stroke-linecap="round" stroke-linejoin="round"/>
<path d="M128.269 153.63C132.571 153.501 137.938 153.229 138.025 152.67C138.137 151.961 137.531 151.436 136.426 151.056C130.592 149.041 110.912 151.038 110.912 151.038" stroke="#171717" stroke-width="0.9" stroke-linecap="round" stroke-linejoin="round"/>
<path d="M128.269 153.63C125.53 153.594 122.951 153.736 122.951 153.736C122.951 153.736 125.369 153.713 128.269 153.63Z" stroke="#171717" stroke-width="0.9" stroke-linecap="round" stroke-linejoin="round"/>
<path d="M129.093 156.83C131.973 156.362 134.689 155.701 134.689 154.869C134.689 153.925 131.373 153.665 128.269 153.629" stroke="#171717" stroke-width="0.9" stroke-linecap="round" stroke-linejoin="round"/>
<path d="M129.087 156.83C126.822 156.957 124.569 157.228 122.338 157.64C122.338 157.64 125.819 157.358 129.087 156.83Z" stroke="#171717" stroke-width="0.9" stroke-linecap="round" stroke-linejoin="round"/>
<path d="M129.087 156.83H129.093" stroke="#171717" stroke-width="0.9" stroke-linecap="round" stroke-linejoin="round"/>
<path d="M111.21 160.483C111.21 160.483 113.822 160.537 117.283 160.507C121.159 160.474 126.1 160.332 129.639 159.885C132.393 159.542 134.296 159.011 134.194 158.205C134.034 156.975 131.669 156.727 129.094 156.83" stroke="#171717" stroke-width="0.9" stroke-linecap="round" stroke-linejoin="round"/>
<path d="M117.283 160.516L117.727 162.466C121.827 162.748 125.943 162.695 130.035 162.307C134.795 161.788 139.401 160.551 140.653 157.782C140.8 157.458 140.928 157.125 141.036 156.786C142.334 152.611 138.026 152.671 138.026 152.671" stroke="#171717" stroke-width="0.9" stroke-linecap="round" stroke-linejoin="round"/>
<path d="M134.689 154.869C140.439 154.374 140.722 156.893 140.722 156.893C140.722 156.893 140.84 156.851 141.036 156.785C142.083 156.432 145.356 155.427 144.698 156.893C143.918 158.631 142.925 163.032 135.471 163.955C128.016 164.878 121.274 165.092 121.914 169.28C122.439 172.706 137.232 170.522 142.502 175.853C143.67 177.029 144.369 178.58 144.342 180.637C144.234 189.265 143.142 218.554 141.347 234.828C140.783 239.972 140.143 243.815 139.446 245.298C136.536 251.473 115.241 249.024 116.589 254.846C117.938 260.668 143.525 257.672 146.294 257.401C160.11 256.037 153.003 234.751 152.243 234.402C152.233 234.399 152.223 234.399 152.213 234.402" stroke="#171717" stroke-width="0.9" stroke-linecap="round" stroke-linejoin="round"/>
<path d="M130.028 162.253L129.639 159.885" stroke="#171717" stroke-width="0.9" stroke-linecap="round" stroke-linejoin="round"/>
<path d="M136.496 150.86L151.462 150.232" stroke="#171717" stroke-width="0.9" stroke-linecap="round" stroke-linejoin="round"/>
<path d="M200.594 172.013L199.538 170.387L197.074 166.583L192.85 160.076L184.732 147.56L173.504 148.371L160.074 149.342" stroke="#171717" stroke-width="0.9" stroke-linecap="round" stroke-linejoin="round"/>
<path d="M167.38 140.178C167.38 140.178 175.362 144.274 173.503 148.371" stroke="#171717" stroke-width="0.9" stroke-linecap="round" stroke-linejoin="round"/>
<path d="M118.854 55.3496L121.913 53.1566L126.173 58.7645L131.389 51.1142L136.891 59.3315L149.169 48.2573L158.472 59.3315" stroke="#171717" stroke-width="0.9" stroke-linecap="round" stroke-linejoin="round"/>
<path d="M141.099 48.2571C142.942 48.2571 144.435 46.7634 144.435 44.9208C144.435 43.0782 142.942 41.5845 141.099 41.5845C139.256 41.5845 137.763 43.0782 137.763 44.9208C137.763 46.7634 139.256 48.2571 141.099 48.2571Z" stroke="#171717" stroke-width="0.9" stroke-linecap="round" stroke-linejoin="round"/>
<path d="M197.148 227.033C197.148 227.033 227.958 233.338 229.662 223.172C231.336 213.162 235.698 166.278 235.834 164.818C235.836 164.806 235.837 164.794 235.837 164.781" stroke="#171717" stroke-width="0.9" stroke-linecap="round" stroke-linejoin="round"/>
<path d="M233.583 162.063C235.031 162.857 235.837 163.738 235.837 164.664C235.837 164.715 235.834 164.767 235.828 164.818C235.678 166.404 233.17 167.844 229.146 168.933C224.488 170.193 217.794 170.984 210.355 170.984C206.741 170.991 203.129 170.791 199.537 170.386L199.384 170.368" stroke="#171717" stroke-width="0.9" stroke-linecap="round" stroke-linejoin="round"/>
<path d="M192.85 160.075C194.138 159.771 195.553 159.502 197.073 159.273" stroke="#171717" stroke-width="0.9" stroke-linecap="round" stroke-linejoin="round"/>
<path d="M216.612 166.299C219.557 120.304 257.274 70.7583 257.274 70.7583" stroke="#171717" stroke-width="0.9" stroke-linecap="round" stroke-linejoin="round"/>
<path d="M224.615 166.457C226.579 167.018 228.169 167.817 229.145 168.933" stroke="#171717" stroke-width="0.9" stroke-linecap="round" stroke-linejoin="round"/>
<path d="M197.073 166.583C197.073 166.583 198.813 166.308 201.496 166.016" stroke="#171717" stroke-width="0.9" stroke-linecap="round" stroke-linejoin="round"/>
<path d="M226.184 152.6C226.195 152.6 226.206 152.599 226.217 152.597C226.829 152.564 235.702 152.157 235.837 157.611C235.876 159.219 234.718 160.697 233.038 161.988C230.606 163.858 227.089 165.334 224.543 166.251C222.664 166.929 221.312 167.301 221.312 167.301" stroke="#171717" stroke-width="0.9" stroke-linecap="round" stroke-linejoin="round"/>
<path d="M234.841 127.258C234.841 127.258 234.847 127.255 234.862 127.249C235.526 127.013 251.502 121.421 253.864 127.258C256.278 133.222 232.003 140.178 232.003 140.178C232.003 140.178 246.341 139.041 247.192 144.932C248.024 150.688 227.176 152.516 226.217 152.598" stroke="#171717" stroke-width="0.9" stroke-linecap="round" stroke-linejoin="round"/>
<path d="M244.778 107.809C244.781 107.809 244.783 107.808 244.784 107.806C247.389 106.185 250.133 104.798 252.984 103.661C257.529 101.924 262.425 101.209 263.234 105.679C264.773 114.207 235.746 126.865 234.862 127.249" stroke="#171717" stroke-width="0.9" stroke-linecap="round" stroke-linejoin="round"/>
<path d="M252.447 88.9309C252.447 88.9309 252.471 88.9159 252.519 88.8826C253.847 88.0126 273.045 75.6364 273.455 84.955C273.732 91.2235 261.554 98.9884 252.984 103.661C248.459 106.132 244.939 107.737 244.785 107.806" stroke="#171717" stroke-width="0.9" stroke-linecap="round" stroke-linejoin="round"/>
<path d="M244.637 84.8137C244.634 84.8038 244.632 84.7935 244.631 84.7833V84.7777C244.401 83.5651 238.676 52.6593 245.774 49.0395C253.014 45.3471 257.982 65.5075 257.982 65.5075C257.982 65.5075 273.312 57.9837 275.955 64.2282C278.516 70.2828 254.025 87.8083 252.519 88.8835" stroke="#171717" stroke-width="0.9" stroke-linecap="round" stroke-linejoin="round"/>
<path d="M229.146 103.125C229.146 103.122 229.144 103.12 229.143 103.119C228.892 102.756 218.286 87.3202 225.472 82.1164C229.589 79.1332 235.837 92.3368 235.837 92.3368C235.837 92.3368 233.242 69.1963 236.881 67.0666C240.434 64.9909 244.437 83.857 244.63 84.7771" stroke="#171717" stroke-width="0.9" stroke-linecap="round" stroke-linejoin="round"/>
<path d="M222.917 122.289C222.914 122.285 222.912 122.281 222.911 122.277C222.597 121.713 211.556 101.646 216.491 97.4466C217.987 96.1737 219.719 96.1677 221.411 96.7866C225.311 98.2107 229.007 102.947 229.143 103.119" stroke="#171717" stroke-width="0.9" stroke-linecap="round" stroke-linejoin="round"/>
<path d="M216.491 137.906C216.488 137.903 216.485 137.899 216.482 137.894L216.479 137.891C216.105 137.372 205.402 122.467 210.355 116.471C215.308 110.476 222.655 121.88 222.91 122.279" stroke="#171717" stroke-width="0.9" stroke-linecap="round" stroke-linejoin="round"/>
<path d="M215.129 150.21C213.621 148.44 206.119 139.329 208.294 135.492C210.644 131.344 216.191 137.564 216.478 137.892" stroke="#171717" stroke-width="0.9" stroke-linecap="round" stroke-linejoin="round"/>
<path d="M215.381 150.498C215.357 150.473 215.302 150.408 215.221 150.311" stroke="#171717" stroke-width="0.9" stroke-linecap="round" stroke-linejoin="round"/>
<path d="M215.221 150.311C215.305 150.401 215.36 150.47 215.381 150.498C215.387 150.504 215.387 150.507 215.39 150.51L215.393 150.513" stroke="#171717" stroke-width="0.9" stroke-linecap="round" stroke-linejoin="round"/>
<path d="M215.221 150.311L215.143 150.223C215.14 150.22 215.137 150.214 215.131 150.211" stroke="#171717" stroke-width="0.9" stroke-linecap="round" stroke-linejoin="round"/>
<path d="M211.294 166.752V166.749C211.222 166.504 207.614 154.133 210.356 150.794C212.564 148.1 214.456 149.527 215.131 150.211" stroke="#171717" stroke-width="0.9" stroke-linecap="round" stroke-linejoin="round"/>
<path d="M204.289 68.0439C204.289 68.0439 198.406 114.742 207.004 167.274" stroke="#171717" stroke-width="0.9" stroke-linecap="round" stroke-linejoin="round"/>
<path d="M211.42 77.573L211.426 77.567V77.564C211.716 77.2322 221.273 66.284 225.046 70.7582C228.88 75.3014 215.11 89.7812 215.11 89.7812C215.11 89.7812 222.367 87.1025 221.411 96.7859" stroke="#171717" stroke-width="0.9" stroke-linecap="round" stroke-linejoin="round"/>
<path d="M196.941 76.4362L196.938 76.4331C196.73 76.1073 183.078 54.8188 189.701 49.606C196.371 44.3542 202.05 61.5304 202.05 61.5304C202.05 61.5304 213.12 41.9404 219.227 50.3173C225.251 58.5829 211.772 77.0901 211.427 77.5638" stroke="#171717" stroke-width="0.9" stroke-linecap="round" stroke-linejoin="round"/>
<path d="M192.298 89.8873C186.82 84.8194 179.148 76.6744 182.461 73.4557C187.369 68.6857 196.714 76.2523 196.938 76.4332" stroke="#171717" stroke-width="0.9" stroke-linecap="round" stroke-linejoin="round"/>
<path d="M197.224 94.183L197.221 94.18C197.127 94.1047 194.976 92.3671 192.304 89.8936" stroke="#171717" stroke-width="0.9" stroke-linecap="round" stroke-linejoin="round"/>
<path d="M192.304 89.8936C194.115 91.1122 195.766 92.5522 197.221 94.18" stroke="#171717" stroke-width="0.9" stroke-linecap="round" stroke-linejoin="round"/>
<path d="M192.304 89.893C192.304 89.8897 192.301 89.8897 192.298 89.8867" stroke="#171717" stroke-width="0.9" stroke-linecap="round" stroke-linejoin="round"/>
<path d="M198.042 113.882C197.224 113.001 181.04 95.462 184.895 90.0656C186.811 87.3836 189.761 88.2674 192.298 89.8871" stroke="#171717" stroke-width="0.9" stroke-linecap="round" stroke-linejoin="round"/>
<path d="M198.075 113.915L198.072 113.912L198.06 113.9" stroke="#171717" stroke-width="0.9" stroke-linecap="round" stroke-linejoin="round"/>
<path d="M198.06 113.9L198.072 113.912" stroke="#171717" stroke-width="0.9" stroke-linecap="round" stroke-linejoin="round"/>
<path d="M198.06 113.9C198.055 113.893 198.049 113.886 198.042 113.882" stroke="#171717" stroke-width="0.9" stroke-linecap="round" stroke-linejoin="round"/>
<path d="M198.919 131.668C196.645 129.508 181.899 115.206 185.441 110.223C189.133 105.025 197.444 113.278 198.041 113.883" stroke="#171717" stroke-width="0.9" stroke-linecap="round" stroke-linejoin="round"/>
<path d="M199.185 131.915C199.142 131.879 199.055 131.797 198.928 131.674" stroke="#171717" stroke-width="0.9" stroke-linecap="round" stroke-linejoin="round"/>
<path d="M198.929 131.674C199.02 131.748 199.106 131.829 199.186 131.915C199.191 131.922 199.197 131.928 199.204 131.933C199.207 131.936 199.21 131.936 199.21 131.939L199.213 131.942" stroke="#171717" stroke-width="0.9" stroke-linecap="round" stroke-linejoin="round"/>
<path d="M198.929 131.674C198.926 131.674 198.923 131.671 198.92 131.668" stroke="#171717" stroke-width="0.9" stroke-linecap="round" stroke-linejoin="round"/>
<path d="M201.339 150.794C201.339 150.794 201.339 150.791 201.333 150.788C201.233 150.688 200.096 149.542 198.645 147.849C195.2 143.846 189.978 136.8 192.54 133.418C195.547 129.439 198.084 130.965 198.92 131.668" stroke="#171717" stroke-width="0.9" stroke-linecap="round" stroke-linejoin="round"/>
<path d="M203.158 167.852V167.849C203.106 167.789 202.524 167.05 201.668 165.889C200.468 164.263 198.728 161.804 197.164 159.219C194.485 154.781 192.343 149.973 194.385 148.371C196.047 147.068 197.501 147.212 198.645 147.849C200.277 148.757 201.273 150.664 201.333 150.787" stroke="#171717" stroke-width="0.9" stroke-linecap="round" stroke-linejoin="round"/>
<path d="M53.5492 152.6C53.5489 152.776 53.515 152.95 53.4499 153.113C52.5991 155.315 46.3243 157.023 38.7133 157.023C31.2895 157.023 25.1388 155.397 24.0528 153.273C23.9411 153.066 23.882 152.835 23.8809 152.6C23.8809 150.156 30.5203 148.175 38.7133 148.175C41.1115 148.165 43.5064 148.349 45.8749 148.724C50.4514 149.478 53.5492 150.932 53.5492 152.6Z" stroke="#171717" stroke-width="0.9" stroke-linecap="round" stroke-linejoin="round"/>
<path d="M49.016 175.904C49.016 177.473 44.726 178.742 39.4352 178.742C34.1444 178.742 29.8511 177.473 29.8511 175.904" stroke="#171717" stroke-width="0.9" stroke-linecap="round" stroke-linejoin="round"/>
<path d="M53.55 152.601L53.4507 153.114L52.3767 158.628L49.0161 175.904" stroke="#171717" stroke-width="0.9" stroke-linecap="round" stroke-linejoin="round"/>
<path d="M28.6504 171.21L29.851 175.904" stroke="#171717" stroke-width="0.9" stroke-linecap="round" stroke-linejoin="round"/>
<path d="M23.8818 152.601L24.0537 153.273L25.5348 159.059L26.1261 161.358L28.6479 171.21" stroke="#171717" stroke-width="0.9" stroke-linecap="round" stroke-linejoin="round"/>
<path d="M25.5344 159.061C25.5344 159.061 15.2687 163.613 21.9344 168.286C23.3372 169.269 25.4879 170.258 28.6463 171.212H28.6493" stroke="#171717" stroke-width="0.9" stroke-linecap="round" stroke-linejoin="round"/>
<path d="M200.594 168.284C200.594 168.284 201.604 168.099 203.158 167.849C204.232 167.677 205.565 167.472 207.004 167.273C208.386 167.08 209.861 166.893 211.294 166.748C213.765 166.498 216.103 166.365 217.611 166.522C218.865 166.62 220.092 166.936 221.237 167.454C222.655 168.148 222.953 168.932 222.953 168.932" stroke="#171717" stroke-width="0.9" stroke-linecap="round" stroke-linejoin="round"/>
<path d="M53.5497 94.892L45.894 92.9756" stroke="#171717" stroke-width="0.9" stroke-linecap="round" stroke-linejoin="round"/>
<path d="M54.8372 102.7L40.3574 112.708" stroke="#171717" stroke-width="0.9" stroke-linecap="round" stroke-linejoin="round"/>
<path d="M62.6808 109.301L60.9062 113.56" stroke="#171717" stroke-width="0.9" stroke-linecap="round" stroke-linejoin="round"/>
<path d="M73.1504 108.043L79.3256 116.414" stroke="#171717" stroke-width="0.9" stroke-linecap="round" stroke-linejoin="round"/>
<path d="M76.2373 101.828L80.1769 102.699" stroke="#171717" stroke-width="0.9" stroke-linecap="round" stroke-linejoin="round"/>
<path d="M76.2373 93.9337L83.158 89.5054" stroke="#171717" stroke-width="0.9" stroke-linecap="round" stroke-linejoin="round"/>
<path d="M86.7971 68.705L85.5263 70.6079C85.4879 70.6655 85.433 70.7099 85.3688 70.7351C85.3043 70.7603 85.2338 70.7654 85.1669 70.7492C85.0997 70.7333 85.0388 70.697 84.9929 70.6454C84.947 70.5938 84.9179 70.5293 84.9098 70.4606L84.638 68.1884C84.6302 68.1221 84.6026 68.0597 84.5594 68.009C84.5159 67.9583 84.4583 67.9214 84.3941 67.9031L82.1915 67.2827C82.1252 67.2641 82.0661 67.2254 82.022 67.172C81.9782 67.1186 81.9518 67.0532 81.9464 66.9842C81.941 66.9155 81.9566 66.8465 81.9914 66.7871C82.0262 66.7274 82.0784 66.6797 82.1411 66.6506L84.2183 65.6906C84.2789 65.6627 84.3299 65.6174 84.3647 65.5604C84.3995 65.5034 84.4169 65.4374 84.4142 65.3705L84.3242 63.0839C84.3215 63.0152 84.3401 62.9468 84.3773 62.8889C84.4145 62.8307 84.4688 62.7854 84.5324 62.7587C84.5963 62.7323 84.6665 62.726 84.734 62.7407C84.8015 62.7554 84.863 62.7905 84.9098 62.8409L86.465 64.5194C86.5106 64.5686 86.5694 64.6031 86.6345 64.6184C86.6993 64.634 86.7674 64.6301 86.8301 64.6067L88.9766 63.8141C89.0414 63.7904 89.1119 63.7868 89.1788 63.8045C89.2457 63.8219 89.3054 63.8591 89.3504 63.9116C89.3954 63.9641 89.423 64.0292 89.4299 64.0979C89.4368 64.1666 89.4224 64.2356 89.3888 64.2959L88.2731 66.2939C88.2407 66.3524 88.226 66.419 88.2314 66.4856C88.2368 66.5522 88.2617 66.6158 88.3031 66.668L89.7203 68.4647C89.7629 68.519 89.7878 68.585 89.7917 68.6537C89.7956 68.7224 89.7785 68.7905 89.7428 68.8493C89.7068 68.9081 89.6537 68.9543 89.591 68.9822C89.528 69.0101 89.4578 69.0179 89.3903 69.0047L87.1454 68.561C87.0797 68.5478 87.0113 68.5544 86.9492 68.5802C86.8874 68.6057 86.8343 68.6492 86.7971 68.705Z" fill="#171717"/>
<path d="M104.661 57.4116L107.089 53.8716" stroke="#171717" stroke-width="0.9" stroke-linecap="round" stroke-linejoin="round"/>
<path d="M107.485 57.0107L104.072 54.0371" stroke="#171717" stroke-width="0.9" stroke-linecap="round" stroke-linejoin="round"/>
<path d="M53.4175 78.5659L55.2631 75.2998" stroke="#171717" stroke-width="0.9" stroke-linecap="round" stroke-linejoin="round"/>
<path d="M55.9907 78.257L52.5806 75.8477" stroke="#171717" stroke-width="0.9" stroke-linecap="round" stroke-linejoin="round"/>
<path d="M118.861 88.6455C119.396 87.5373 120.116 86.529 120.991 85.6641" stroke="#171717" stroke-width="0.9" stroke-linecap="round" stroke-linejoin="round"/>
<path d="M121.26 88.0983C120.314 87.4464 119.502 86.6181 118.87 85.6587" stroke="#171717" stroke-width="0.9" stroke-linecap="round" stroke-linejoin="round"/>
<path d="M226.467 47.7601L229.874 44.353" stroke="#171717" stroke-width="0.9" stroke-linecap="round" stroke-linejoin="round"/>
<path d="M229.41 47.5767L226.86 44.1675" stroke="#171717" stroke-width="0.9" stroke-linecap="round" stroke-linejoin="round"/>
<path d="M207.698 45.1914L209.408 41.5752" stroke="#171717" stroke-width="0.9" stroke-linecap="round" stroke-linejoin="round"/>
<path d="M210.301 43.6716L207.106 42.3945" stroke="#171717" stroke-width="0.9" stroke-linecap="round" stroke-linejoin="round"/>
<path d="M221.123 31.7716L223.258 29.4341" stroke="#171717" stroke-width="0.9" stroke-linecap="round" stroke-linejoin="round"/>
<path d="M223.29 31.9883L220.735 29.2197" stroke="#171717" stroke-width="0.9" stroke-linecap="round" stroke-linejoin="round"/>
<path d="M102.746 120.799C102.826 129.819 102.532 138.833 101.865 147.84" stroke="#171717" stroke-width="0.9" stroke-linecap="round" stroke-linejoin="round"/>
<path d="M121.707 127.928L120.321 126.226" stroke="#171717" stroke-width="0.9" stroke-linecap="round" stroke-linejoin="round"/>
<path d="M110.115 137.742L112.023 135.074" stroke="#171717" stroke-width="0.9" stroke-linecap="round" stroke-linejoin="round"/>
<path d="M121.951 145.992L120.345 144.512" stroke="#171717" stroke-width="0.9" stroke-linecap="round" stroke-linejoin="round"/>
<path d="M93.5923 134.64L91.3564 132.51" stroke="#171717" stroke-width="0.9" stroke-linecap="round" stroke-linejoin="round"/>
<path d="M76.5791 128.692L77.8637 126.566" stroke="#171717" stroke-width="0.9" stroke-linecap="round" stroke-linejoin="round"/>
<path d="M79.0424 144.6L77.0996 143.144" stroke="#171717" stroke-width="0.9" stroke-linecap="round" stroke-linejoin="round"/>
<path d="M62.5147 135.142C61.7668 134.857 61.111 134.372 60.6187 133.74" stroke="#171717" stroke-width="0.9" stroke-linecap="round" stroke-linejoin="round"/>
<path d="M60.3921 154.347L61.8921 151.477" stroke="#171717" stroke-width="0.9" stroke-linecap="round" stroke-linejoin="round"/>
<path d="M76.7769 160.185C76.0554 159.613 75.4596 158.898 75.0264 158.085" stroke="#171717" stroke-width="0.9" stroke-linecap="round" stroke-linejoin="round"/>
<path d="M89.1572 154.358L90.4442 152.128" stroke="#171717" stroke-width="0.9" stroke-linecap="round" stroke-linejoin="round"/>
<path d="M103.485 159.781L101.438 158.105" stroke="#171717" stroke-width="0.9" stroke-linecap="round" stroke-linejoin="round"/>
<path d="M41.0918 136.603C41.5184 134.781 42.308 133.063 43.4135 131.552C44.519 130.042 45.9176 128.769 47.5259 127.812" stroke="#171717" stroke-width="0.9" stroke-linecap="round" stroke-linejoin="round"/>
<g opacity="0.1">
<path d="M109.769 86.0873C106.725 85.0271 102.507 85.5392 99.5108 86.6159C96.3782 87.7415 93.9569 89.63 93.0545 92.9519C92.0711 96.5732 92.9774 100.546 93.1712 104.214L93.476 109.986C93.5453 111.3 94.1345 113.929 92.8976 114.865C92.3789 115.257 91.4876 115.373 90.8933 115.632C90.2354 115.897 89.645 116.305 89.1647 116.827C88.1309 117.981 88.0028 119.805 86.7599 120.756C85.6058 121.639 83.8571 121.707 82.478 121.941C80.5355 122.271 78.5978 122.637 76.6619 123.004C69.6485 124.332 62.4059 126.016 56.3987 130.06C50.4212 134.083 45.9104 140.069 45.1634 147.37C45.0389 148.588 46.2932 149.634 47.4275 149.634C48.7553 149.634 49.5668 148.592 49.6916 147.37C50.2811 141.606 54.3416 136.753 58.9916 133.605C64.5647 129.834 71.2331 128.241 77.7326 126.891C80.9654 126.22 84.4382 125.841 87.4763 124.491C88.7243 123.936 89.8496 123.099 90.5063 121.875C90.7955 121.27 91.0328 120.641 91.2158 119.996C91.5848 118.9 91.9478 118.751 92.9918 118.397C96.0797 117.35 97.0604 115.067 96.9794 111.933C96.8828 108.204 96.6281 104.483 96.6101 100.751C96.5921 97.037 95.9651 93.3713 98.6588 90.3902C99.9641 88.9463 101.829 88.2857 103.697 87.9476C105.705 87.584 107.814 87.8276 109.766 87.2531C109.89 87.2144 110 87.137 110.077 87.0323C110.154 86.9273 110.196 86.8004 110.196 86.6699C110.196 86.5394 110.154 86.4125 110.077 86.3075C110 86.2028 109.89 86.1254 109.766 86.087L109.769 86.0873Z" fill="#171717"/>
</g>
<g opacity="0.1">
<path d="M51.4226 158.53C51.8426 159.08 52.0247 159.576 52.6079 160.021C53.0726 160.352 53.5874 160.606 54.1328 160.775C55.352 161.208 56.6189 161.562 57.8699 161.889C60.2045 162.501 62.5568 163.041 64.9268 163.509C69.9686 164.511 75.0644 165.216 80.1887 165.62C90.3071 166.445 100.49 165.959 110.484 164.173C111.666 163.96 112.31 162.535 112.026 161.457C111.688 160.178 110.486 159.757 109.31 159.915C99.7532 161.225 90.0845 161.515 80.4665 160.78C75.6854 160.398 70.9313 159.732 66.2297 158.783C63.8633 158.306 61.5137 157.755 59.1776 157.147C58.0994 156.865 57.0206 156.587 55.9409 156.313C55.3853 156.137 54.8135 156.02 54.2339 155.961C53.4449 155.925 52.9652 156.236 52.2632 156.465C51.4964 156.716 50.8379 157.767 51.4232 158.531L51.4226 158.53Z" fill="#171717"/>
</g>
</g>
<defs>
<linearGradient id="paint0_linear_28_12815" x1="242.022" y1="48.592" x2="242.022" y2="167.456" gradientUnits="userSpaceOnUse">
<stop stop-color="#FFB800"/>
<stop offset="1" stop-color="#FF7F0A"/>
</linearGradient>
<linearGradient id="paint1_linear_28_12815" x1="166.701" y1="140.178" x2="166.701" y2="149.345" gradientUnits="userSpaceOnUse">
<stop stop-color="#FFB800"/>
<stop offset="1" stop-color="#FF7F0A"/>
</linearGradient>
<linearGradient id="paint2_linear_28_12815" x1="140.825" y1="34.0278" x2="140.825" y2="59.3316" gradientUnits="userSpaceOnUse">
<stop stop-color="#FFB800"/>
<stop offset="1" stop-color="#FF7F0A"/>
</linearGradient>
<linearGradient id="paint3_linear_28_12815" x1="98.6497" y1="120.48" x2="98.6497" y2="164.783" gradientUnits="userSpaceOnUse">
<stop stop-color="#FFB800"/>
<stop offset="1" stop-color="#FF7F0A"/>
</linearGradient>
<linearGradient id="paint4_linear_28_12815" x1="99.0386" y1="116.62" x2="99.0386" y2="121.104" gradientUnits="userSpaceOnUse">
<stop stop-color="#FFB800"/>
<stop offset="1" stop-color="#FF7F0A"/>
</linearGradient>
<linearGradient id="paint5_linear_28_12815" x1="38.7518" y1="153.114" x2="38.7518" y2="178.743" gradientUnits="userSpaceOnUse">
<stop stop-color="#FFB800"/>
<stop offset="1" stop-color="#FF7F0A"/>
</linearGradient>
</defs>
</svg>
