<svg width="288" height="288" viewBox="0 0 288 288" fill="none" xmlns="http://www.w3.org/2000/svg">
<path d="M262.066 106.256L257.358 109.875L257.409 116.001L252.814 112.415L247.362 114.476L249.227 108.642L245.804 103.796L251.553 103.772L254.888 98.7159L256.577 104.535L262.066 106.256Z" fill="url(#paint0_linear_28_12850)"/>
<path d="M215.042 37.1796C215.167 38.1486 215.053 39.1332 214.71 40.0482C214.367 40.9629 213.806 41.7801 213.075 42.4287C212.344 43.077 211.467 43.5375 210.517 43.7691C209.569 44.001 208.577 43.9977 207.63 43.7589C206.683 43.5204 205.808 43.0542 205.082 42.4005C204.356 41.7468 203.8 40.9257 203.464 40.0083C203.128 39.0912 203.021 38.1057 203.152 37.1376C203.283 36.1695 203.649 35.2482 204.218 34.4538C206.738 30.9327 212.005 31.3839 214.251 34.9377C214.672 35.6199 214.942 36.3843 215.042 37.1796Z" fill="var(--illustration-currentColor)"/>
<path d="M206.627 92.8824L206.381 92.8686C206.548 90.1707 206.572 87.003 205.721 83.4816L205.776 83.4678C208.485 83.4615 211.191 83.2968 213.879 82.9746C213.405 84.2676 213.247 85.6494 213.093 87.0168C212.828 89.3241 212.566 91.6329 212.307 93.9429C210.623 93.1569 208.605 93.6222 206.841 93.0591C206.799 93.051 206.758 93.0342 206.722 93.0093C206.685 92.9844 206.655 92.9523 206.631 92.9151C206.628 92.9046 206.626 92.8935 206.627 92.8824Z" fill="url(#paint1_linear_28_12850)"/>
<path d="M206.841 93.0603C208.604 93.6234 210.623 93.1581 212.307 93.9441C212.567 91.6323 212.829 89.3235 213.093 87.018C213.247 85.6503 213.405 84.2688 213.879 82.9758C211.19 83.298 208.484 83.4627 205.776 83.4687L205.72 83.4828C205.323 81.8313 204.766 80.2221 204.06 78.6777L204.041 78.5148C207.753 75.9519 211.442 71.0211 214.456 65.6859C216.125 62.7312 217.59 59.6664 218.842 56.5128C218.973 56.1873 219.098 55.8618 219.219 55.5408L219.517 55.6476C225.703 67.3176 228.28 83.1759 219.861 94.4001C217.279 98.1168 213.061 103.01 208.302 102.061C207.958 101.996 207.62 101.901 207.292 101.777C205.418 100.331 206.097 97.2051 206.381 92.8698L206.627 92.8836C206.626 92.8947 206.628 92.9058 206.632 92.9163C206.655 92.9535 206.686 92.9853 206.722 93.0102C206.758 93.0351 206.798 93.0519 206.841 93.0603Z" fill="url(#paint2_linear_28_12850)"/>
<path d="M199.496 54.8607C207.795 47.8707 207.902 59.1075 205.962 69.6807L205.776 69.648C204.317 69.1848 202.95 68.4684 201.739 67.5315C200.329 71.1597 198.755 74.7195 197.017 78.2115C199.093 78.9021 201.086 79.8228 202.957 80.9559L202.994 80.9697C202.454 82.4025 201.939 83.4723 201.497 84.0165C199.375 87.6633 197.71 92.5665 193.705 94.4454C189.04 95.157 187.137 89.4915 187.235 85.6119C187.317 81.7551 187.937 77.9286 189.077 74.2434C189.096 74.1834 189.119 74.118 189.137 74.0529C191.291 67.0572 195.073 60.4566 199.496 54.8607Z" fill="url(#paint3_linear_28_12850)"/>
<path d="M197.018 78.2115C198.753 74.7273 200.327 71.1675 201.739 67.5315C202.95 68.4687 204.317 69.1851 205.777 69.648L205.963 69.6807C205.423 72.6426 204.716 75.5715 203.846 78.4536C203.562 79.3746 203.274 80.2212 202.995 80.97L202.958 80.9562C201.086 79.8231 199.094 78.9024 197.018 78.2115Z" fill="url(#paint4_linear_28_12850)"/>
<path d="M200.734 23.583C205.628 15.4428 211.521 9.73535 217.804 12.9124C224.47 16.285 225.68 23.8762 224.912 31.8351L224.889 31.8303C223.656 30.2535 221.903 29.1697 220.125 28.2487C214.141 25.1618 207.499 23.5675 200.766 23.6017L200.734 23.583Z" fill="url(#paint5_linear_28_12850)"/>
<path d="M187.938 59.1444C187.747 64.089 188.263 69.1455 188.821 73.9551L189.138 74.0529C189.119 74.118 189.096 74.1831 189.078 74.2434L188.692 74.1234C180.346 72.9 176.263 80.6775 175.723 87.8634C175.365 88.2834 174.69 88.0029 174.258 87.6726C173.707 87.2373 173.197 86.7516 172.736 86.2215C168.736 81.6069 169.22 74.4615 170.825 68.8104C171.046 67.5909 171.362 66.3903 171.769 65.2194C173.671 66.6522 175.621 68.0199 177.616 69.3222C179.323 66.8136 180.89 64.2123 182.31 61.53L177.12 56.8689L176.901 56.6784C180.381 52.8408 184.971 49.9242 189.967 47.8962L190.009 47.91C189.926 48.1425 189.847 48.366 189.772 48.5844C189.083 50.595 188.596 52.6689 188.316 54.7758C188.117 56.2248 187.991 57.6828 187.938 59.1444Z" fill="url(#paint6_linear_28_12850)"/>
<path d="M173.364 197.576C180.067 199.06 185.394 194.022 185.156 187.594H185.165C186.9 191.436 186.677 196.013 184.985 199.874C183.294 203.735 180.227 206.898 176.65 209.135C175.769 209.704 174.832 210.183 173.854 210.563C173.347 210.752 172.826 210.903 172.296 211.013L172.18 211.009C172.3 206.52 172.561 202.036 172.863 197.542L173.364 197.576Z" fill="url(#paint7_linear_28_12850)"/>
<path d="M180.77 275.485C173.799 274.214 166.997 272.152 160.494 269.34L160.261 269.233C160.499 268.99 160.709 268.722 160.889 268.433C161.271 267.785 161.514 267.064 161.601 266.317L161.703 266.331C162.368 266.475 163.023 266.638 163.68 266.819C165.619 267.349 167.531 268.019 169.443 268.67C170.685 269.098 171.933 269.517 173.193 269.889C174.686 270.341 176.207 270.692 177.747 270.939C178.462 271.054 179.182 271.127 179.905 271.158C181.23 271.229 182.557 271.06 183.822 270.66C185.762 270.013 187.515 268.553 188.112 266.594C188.535 265.213 188.364 263.714 188.075 262.296C187.87 261.301 187.595 260.273 186.931 259.496C186.632 259.158 186.28 258.871 185.889 258.645C185.389 258.357 184.866 258.109 184.326 257.905C182.206 257.045 180.052 256.265 177.865 255.565C177.409 255.415 176.953 255.272 176.493 255.133L176.465 254.965C180.642 254.264 184.749 253.199 188.74 251.783C190.843 253.579 192.969 255.412 194.541 257.686C196.141 259.998 197.141 262.864 196.667 265.636C196.369 267.372 195.522 268.958 194.648 270.484C193.964 271.679 193.238 272.879 192.219 273.805C190.736 275.149 188.731 275.809 186.735 275.972C184.74 276.135 182.737 275.839 180.77 275.485Z" fill="url(#paint8_linear_28_12850)"/>
<path d="M177.118 56.8701L182.31 61.5303C180.891 64.212 179.324 66.813 177.617 69.3216C175.621 68.0238 173.672 66.6561 171.77 65.2188C172.883 62.0538 174.629 59.148 176.9 56.6787L177.118 56.8701Z" fill="url(#paint9_linear_28_12850)"/>
<path d="M152.804 58.2844L155.562 63.7501L149.855 62.5732L145.878 66.8341L144.966 60.7777L139.747 57.9493L144.896 55.3819L145.645 49.3672L149.739 53.8375L155.418 52.9537L152.804 58.2844Z" fill="url(#paint10_linear_28_12850)"/>
<path d="M138.63 125.29C136.044 124.43 133.597 123.062 130.904 122.593C122.196 120.969 117.912 128.03 119.284 135.938C119.498 137.543 118.768 138.78 117.716 139.924C117.446 140.222 117.158 140.51 116.856 140.799C111.906 144.413 112.423 136.58 114.195 133.31C114.431 133.038 114.637 132.742 114.809 132.426C114.565 132.691 114.359 132.988 114.195 133.31C112.86 134.863 110.492 135.86 108.981 134.101C107.888 130.491 113.195 124.513 115.205 123.276C106.632 123.016 112.451 113.308 118.182 116.518C114.372 108.763 122.605 104.572 125.354 113.233C123.28 104.465 132.592 103.084 131.694 112.405C133.229 101.725 142.537 104.656 137.351 114.689C144.71 104.386 151.896 114.303 140.728 119.271C149.068 116.513 151.152 126.942 141.458 125.956C140.495 125.83 139.548 125.608 138.63 125.29Z" fill="var(--illustration-currentColor)"/>
<path d="M138.114 160.968C137.649 162.819 135.742 162.438 131.03 162.335C125.764 162.103 120.29 163.229 115.14 161.977C114.871 161.756 114.674 161.459 114.572 161.126C114.14 159.809 114.87 157.879 114.805 156.549C114.833 155.651 115.4 154.916 116.335 155.125C116.954 155.2 117.568 155.26 118.186 155.302C122.224 155.632 126.229 155.502 130.276 155.521C130.588 155.521 130.9 155.521 131.212 155.525C133.923 155.553 137.752 154.921 138.035 157.237C138.254 159.005 138.314 160.186 138.114 160.968Z" fill="url(#paint11_linear_28_12850)"/>
<path d="M107.893 254.26C109.149 253.372 110.403 252.483 111.656 251.595C112.07 251.302 112.484 251.009 112.893 250.72C113.269 251.63 113.911 252.405 114.735 252.944L114.624 253.116C110.582 256.702 105.997 259.626 101.04 261.777C99.593 262.405 98.0442 262.973 96.4812 262.777C95.5644 262.637 94.6886 262.3 93.9134 261.791C91.6901 260.391 90.1691 258.131 88.8665 255.851C88.2524 254.771 87.6618 253.656 87.4248 252.437C87.0711 250.613 87.5447 248.706 88.406 247.064C89.2667 245.418 90.4947 243.999 91.7411 242.627C94.8053 239.255 98.0606 236.062 101.491 233.063C102.966 231.77 104.547 230.477 106.459 230.049C108.069 229.686 109.748 229.979 111.371 230.281C112.213 231.007 113.043 231.747 113.86 232.501C113.925 232.492 113.99 232.487 114.055 232.478C115.883 232.255 117.725 232.078 119.567 231.934L119.581 232.087C116.761 233.446 114.944 236.069 113.795 239.041L113.735 239.018C112.806 239.159 111.886 239.356 110.981 239.609C109.625 239.984 108.295 240.447 106.999 240.995C105.967 241.423 104.948 241.893 103.943 242.391C103.888 242.419 103.827 242.446 103.771 242.474C102.322 243.162 100.94 243.981 99.6404 244.921C99.1874 245.262 98.7557 245.63 98.3474 246.024C96.7892 247.535 95.6174 249.545 95.5052 251.713C95.393 253.88 96.5055 256.169 98.4732 257.08C99.0708 257.347 99.7127 257.5 100.366 257.53C101.332 257.563 102.296 257.404 103.2 257.061C103.898 256.797 104.569 256.467 105.205 256.074C105.949 255.632 106.665 255.125 107.377 254.623L107.893 254.26Z" fill="url(#paint12_linear_28_12850)"/>
<path d="M108.516 100.004L107.73 100.172C101.441 103.679 95.1525 107.189 88.8636 110.702C85.3098 113.088 83.0676 112.33 79.7418 110.404C79.0719 106.199 83.6862 101.626 82.5093 99.8028C75.5319 93.0906 52.5624 119.535 51.8136 111.637C52.7625 105.129 55.7394 99.0585 57.6375 92.7882C52.5903 92.8812 48.7296 98.0958 43.5246 98.6307C40.5708 85.7607 49.725 72.6468 58.0374 63.5112C72.1503 60.1812 87.8274 64.2228 99.3855 79.9212C98.8278 80.6724 98.3709 81.4935 98.0271 82.3635C95.3154 89.9175 101.117 93.969 106.157 92.3457L106.255 92.6574C107.242 95.0283 107.999 97.4886 108.516 100.004Z" fill="url(#paint13_linear_28_12850)"/>
<path d="M103.125 199.678L103.135 199.627C105.166 193.453 106.516 187.075 107.158 180.607C101.772 181.379 96.5711 183.044 93.4127 187.571C89.0867 195.078 96.734 198.674 103.125 199.678ZM108.525 203.544C116.033 195.464 110.335 192.543 105.083 201.32H105.079C105.088 205.786 105.297 210.307 105.441 214.777C105.465 215.443 105.483 216.108 105.501 216.768C104.543 216.918 103.571 217.085 102.589 217.261C100.133 217.703 97.6028 218.191 95.0594 218.587C88.1237 219.675 81.0581 220.089 74.8667 216.967C74.6567 216.86 74.4482 216.753 74.2388 216.637C62.0702 206.273 67.0706 183.997 78.3188 174.698C88.7012 166.679 102.033 164.116 114.55 161.13L114.573 161.125C114.675 161.459 114.872 161.755 115.141 161.976C120.29 163.228 125.765 162.102 131.031 162.335C135.743 162.437 137.65 162.818 138.115 160.967C140.725 160.854 143.34 160.95 145.934 161.255L146.013 161.293C145.334 162.809 145.306 164.614 146.302 166.488C142.232 164.135 137.668 169.53 137.715 173.429C131.119 173.498 124.57 173.373 118.178 173.042C118.015 183.202 116.778 193.314 115.688 203.432C113.321 203.39 110.768 202.683 108.526 203.544H108.525Z" fill="url(#paint14_linear_28_12850)"/>
<path d="M67.7357 42.9477L72.0662 48.39L66.1121 47.334L62.4002 51.9579L62.2607 45.6783L55.874 44.0874L60.7256 40.5057L60.8 34.3143L65.1401 39.2682L70.9172 38.445L67.7357 42.9477Z" fill="url(#paint15_linear_28_12850)"/>
<path d="M62.3263 147.46L62.317 147.539C51.3346 145.943 41.1337 140.445 33.2539 131.914C37.8439 130.165 42.5011 125.7 47.5483 126.672C46.5832 128.39 46.1221 130.346 46.2178 132.314C56.6878 133.212 64.5451 111.801 70.1083 114.917C67.2058 120.89 63.4009 126.556 61.0051 132.714C61.7866 138.915 72.2806 130.802 74.3785 128.379C77.6533 125.504 82.2352 120.811 86.6401 122.392C82.2445 133.105 71.434 140.37 62.3263 147.46Z" fill="url(#paint16_linear_28_12850)"/>
<path d="M114.196 133.31C112.424 136.58 111.908 144.413 116.857 140.799C117.159 140.51 117.448 140.222 117.717 139.924C118.767 138.78 119.499 137.543 119.285 135.938C117.913 128.03 122.197 120.968 130.905 122.592C133.598 123.062 136.045 124.43 138.631 125.29C139.549 125.608 140.496 125.83 141.459 125.956C151.153 126.942 149.069 116.513 140.729 119.271C151.897 114.303 144.711 104.386 137.352 114.689C142.538 104.656 133.23 101.725 131.695 112.405C132.593 103.084 123.281 104.465 125.355 113.233C122.606 104.572 114.373 108.763 118.182 116.518C112.452 113.308 106.632 123.016 115.206 123.276C113.196 124.513 107.889 130.491 108.982 134.101C110.493 135.859 112.861 134.863 114.196 133.31Z" stroke="var(--illustration-currentColor)" stroke-width="1.3956" stroke-linecap="round" stroke-linejoin="round"/>
<path d="M114.195 133.309C114.432 133.038 114.638 132.742 114.809 132.426C114.566 132.691 114.359 132.988 114.195 133.309Z" stroke="var(--illustration-currentColor)" stroke-width="1.3956" stroke-linecap="round" stroke-linejoin="round"/>
<path d="M134.645 127.774C122.239 121.843 135.71 140.199 128.83 139.744" stroke="var(--illustration-currentColor)" stroke-width="1.3956" stroke-linecap="round" stroke-linejoin="round"/>
<path d="M125.676 130.337C125.143 129.96 124.5 129.772 123.848 129.803C123.201 129.837 122.568 130.008 121.992 130.305" stroke="var(--illustration-currentColor)" stroke-width="1.3956" stroke-linecap="round" stroke-linejoin="round"/>
<path d="M132.067 131.119C132.288 130.944 132.547 130.825 132.822 130.771C133.098 130.717 133.383 130.729 133.653 130.807C134.191 130.969 134.69 131.239 135.119 131.602" stroke="var(--illustration-currentColor)" stroke-width="1.3956" stroke-linecap="round" stroke-linejoin="round"/>
<path d="M121.634 142.664C121.92 143.453 122.455 144.127 123.16 144.584C123.513 144.807 123.912 144.949 124.327 144.999C124.742 145.049 125.163 145.006 125.56 144.872" stroke="var(--illustration-currentColor)" stroke-width="1.3956" stroke-linecap="round" stroke-linejoin="round"/>
<path d="M138.63 125.267V125.29C138.342 130.156 138.052 135.023 137.76 139.892C138.133 149.316 129.694 146.167 130.276 155.474" stroke="var(--illustration-currentColor)" stroke-width="1.3956" stroke-linecap="round" stroke-linejoin="round"/>
<path d="M117.703 139.826L117.717 139.924C118.375 144.858 118.547 149.846 118.229 154.814" stroke="var(--illustration-currentColor)" stroke-width="1.3956" stroke-linecap="round" stroke-linejoin="round"/>
<path d="M118.187 155.302C117.569 155.26 116.955 155.2 116.336 155.125C115.401 154.915 114.834 155.651 114.806 156.549C114.871 157.879 114.141 159.809 114.573 161.126C114.675 161.459 114.872 161.756 115.141 161.977C120.29 163.229 125.765 162.103 131.031 162.335C135.743 162.438 137.65 162.819 138.115 160.968C138.315 160.188 138.255 159.005 138.036 157.237C137.752 154.921 133.924 155.553 131.212 155.525C130.9 155.521 130.589 155.521 130.277 155.521C126.23 155.502 122.225 155.633 118.187 155.302Z" stroke="var(--illustration-currentColor)" stroke-width="1.3956" stroke-linecap="round" stroke-linejoin="round"/>
<path d="M114.55 161.13C102.032 164.117 88.7008 166.68 78.3184 174.699C67.0708 183.999 62.0704 206.274 74.2384 216.638C74.4484 216.754 74.6569 216.861 74.8663 216.968C81.0577 220.088 88.1233 219.675 95.059 218.588C97.6033 218.192 100.134 217.704 102.589 217.262C103.57 217.085 104.543 216.918 105.501 216.769C105.482 216.109 105.464 215.443 105.441 214.778C105.296 210.308 105.087 205.786 105.078 201.321C105.073 200.851 105.073 200.381 105.078 199.911C104.45 199.86 103.794 199.785 103.124 199.678C96.7342 198.674 89.0857 195.078 93.4117 187.57C96.5701 183.044 101.771 181.379 107.157 180.607C110.046 180.193 112.99 180.035 115.693 179.83" stroke="var(--illustration-currentColor)" stroke-width="1.3956" stroke-linecap="round" stroke-linejoin="round"/>
<path d="M105.084 201.321C110.334 192.543 116.034 195.464 108.526 203.544C110.768 202.684 113.322 203.39 115.69 203.432C115.801 203.437 115.908 203.437 116.015 203.437" stroke="var(--illustration-currentColor)" stroke-width="1.3956" stroke-linecap="round" stroke-linejoin="round"/>
<path d="M105.414 214.773C105.423 214.773 105.433 214.777 105.442 214.777C108.447 215.382 111.45 215.988 114.452 216.596C114.542 216.61 114.629 216.629 114.717 216.647" stroke="var(--illustration-currentColor)" stroke-width="1.3956" stroke-linecap="round" stroke-linejoin="round"/>
<path d="M114.503 212.024C112.916 211.582 111.308 211.223 109.684 210.949" stroke="var(--illustration-currentColor)" stroke-width="1.3956" stroke-linecap="round" stroke-linejoin="round"/>
<path d="M115.149 207.032C113.644 206.613 112.107 206.316 110.554 206.144" stroke="var(--illustration-currentColor)" stroke-width="1.3956" stroke-linecap="round" stroke-linejoin="round"/>
<path d="M137.719 173.541C137.72 173.504 137.718 173.467 137.714 173.429C137.668 169.531 142.231 164.135 146.301 166.489C145.306 164.615 145.334 162.81 146.013 161.294C147.423 158.135 151.646 156.237 155.269 157.628C155.329 157.651 155.395 157.675 155.455 157.703" stroke="var(--illustration-currentColor)" stroke-width="1.3956" stroke-linecap="round" stroke-linejoin="round"/>
<path d="M154.479 160.084C154.627 159.232 154.894 158.406 155.269 157.628C155.638 156.795 156.308 156.132 157.144 155.772C157.503 155.628 157.883 155.544 158.27 155.525" stroke="var(--illustration-currentColor)" stroke-width="1.3956" stroke-linecap="round" stroke-linejoin="round"/>
<path d="M169.331 130.714C168.543 130.41 167.719 130.208 166.879 130.114C158.651 129.17 152.097 139.217 157.702 145.548C158.258 146.171 158.887 146.725 159.576 147.198" stroke="var(--illustration-currentColor)" stroke-width="1.3956" stroke-linecap="round" stroke-linejoin="round"/>
<path d="M177.345 105.237C176.417 105.386 175.516 105.676 174.675 106.098C169.205 108.875 168.525 116.759 171.303 122.271C171.63 122.927 172.013 123.552 172.447 124.141" stroke="var(--illustration-currentColor)" stroke-width="1.3956" stroke-linecap="round" stroke-linejoin="round"/>
<path d="M208.297 102.051C208.297 102.055 208.297 102.055 208.302 102.06C210.963 112.903 202.552 124.011 192.026 120.397C190.837 119.981 189.7 119.427 188.64 118.747" stroke="var(--illustration-currentColor)" stroke-width="1.3956" stroke-linecap="round" stroke-linejoin="round"/>
<path d="M182.695 155.186C183.285 155.233 183.878 155.236 184.468 155.195C196.822 154.46 198.818 135.808 187.082 132.775C186.028 132.51 184.946 132.373 183.858 132.365" stroke="var(--illustration-currentColor)" stroke-width="1.3956" stroke-linecap="round" stroke-linejoin="round"/>
<path d="M181.43 185.403C182.589 185.712 183.784 185.866 184.984 185.859C195.836 185.663 193.436 168.462 183.5 166.057C182.695 165.86 181.868 165.767 181.04 165.778" stroke="var(--illustration-currentColor)" stroke-width="1.3956" stroke-linecap="round" stroke-linejoin="round"/>
<path d="M187.017 132.905C187.041 132.863 187.063 132.819 187.082 132.775C187.647 131.618 187.865 130.322 187.711 129.044C187.557 127.765 187.036 126.559 186.212 125.569" stroke="var(--illustration-currentColor)" stroke-width="1.3956" stroke-linecap="round" stroke-linejoin="round"/>
<path d="M182.923 126.346C184.03 126.142 185.125 125.875 186.202 125.546C188.84 124.708 191.231 123.299 192.026 120.397C192.031 120.382 192.035 120.364 192.04 120.35" stroke="var(--illustration-currentColor)" stroke-width="1.3956" stroke-linecap="round" stroke-linejoin="round"/>
<path d="M171.411 122.206C171.373 122.229 171.341 122.248 171.304 122.272C168.806 123.793 167.215 127.258 166.885 130.077" stroke="var(--illustration-currentColor)" stroke-width="1.3956" stroke-linecap="round" stroke-linejoin="round"/>
<path d="M157.702 145.548C154.321 147.869 155.46 152.632 157.126 155.726" stroke="var(--illustration-currentColor)" stroke-width="1.3956" stroke-linecap="round" stroke-linejoin="round"/>
<path d="M172.815 86.16C172.787 86.1786 172.759 86.202 172.736 86.22C165.056 91.9926 168.238 100.626 174.653 105.831" stroke="var(--illustration-currentColor)" stroke-width="1.3956" stroke-linecap="round" stroke-linejoin="round"/>
<path d="M183.472 166.108C183.481 166.089 183.49 166.075 183.5 166.057C185.234 162.81 185.072 158.744 184.467 155.195C184.462 155.176 184.462 155.158 184.458 155.139" stroke="var(--illustration-currentColor)" stroke-width="1.3956" stroke-linecap="round" stroke-linejoin="round"/>
<path d="M173.364 197.576C180.067 199.06 185.394 194.022 185.156 187.593C185.139 187.061 185.083 186.531 184.988 186.007" stroke="var(--illustration-currentColor)" stroke-width="1.3956" stroke-linecap="round" stroke-linejoin="round"/>
<path d="M215.144 128.105C214.726 127.027 214.095 126.044 213.289 125.216C208.767 120.626 200.078 123.216 198.901 130.403C195.459 139.622 203.851 147.916 211.307 142.227C211.969 141.717 212.581 141.146 213.135 140.52" stroke="var(--illustration-currentColor)" stroke-width="1.3956" stroke-linecap="round" stroke-linejoin="round"/>
<path d="M206.846 161.294C206.403 160.994 205.924 160.748 205.422 160.563C199.357 158.316 193.5 166.815 197.277 172.355C200.967 178.779 211.051 176.69 212.386 169.824C212.464 169.418 212.511 169.006 212.526 168.592" stroke="var(--illustration-currentColor)" stroke-width="1.3956" stroke-linecap="round" stroke-linejoin="round"/>
<path d="M211.293 142.203C211.297 142.213 211.302 142.217 211.307 142.226C218.145 153.623 229.75 141.073 228.908 131.784C228.428 124.346 218.926 120.364 213.289 125.215C213.272 125.232 213.255 125.248 213.237 125.262" stroke="var(--illustration-currentColor)" stroke-width="1.3956" stroke-linecap="round" stroke-linejoin="round"/>
<path d="M212.391 169.824C218.694 171.954 225.001 162.973 221.01 157.739C216.973 152.883 207.404 154.042 205.497 160.372" stroke="var(--illustration-currentColor)" stroke-width="1.3956" stroke-linecap="round" stroke-linejoin="round"/>
<path d="M166.945 118.871C166.289 113.084 155.167 113.433 156.047 119.848C156.48 129.127 167.206 127.132 166.945 118.871Z" stroke="var(--illustration-currentColor)" stroke-width="1.3956" stroke-linecap="round" stroke-linejoin="round"/>
<path d="M165.554 103.963C170.498 94.8501 158.744 93.3615 156.194 100.748C155.88 105.684 162.875 108.484 165.554 103.963Z" stroke="var(--illustration-currentColor)" stroke-width="1.3956" stroke-linecap="round" stroke-linejoin="round"/>
<path d="M189.966 47.8971C184.97 49.9251 180.379 52.8417 176.9 56.6793C174.629 59.1489 172.883 62.0544 171.77 65.2194C171.363 66.3903 171.047 67.5909 170.826 68.8104C169.221 74.4621 168.737 81.6069 172.737 86.2215C173.198 86.7516 173.707 87.2373 174.259 87.6726C174.691 88.0026 175.366 88.2822 175.724 87.8634C176.264 80.6766 180.347 72.8994 188.693 74.1234" stroke="var(--illustration-currentColor)" stroke-width="1.3956" stroke-linecap="round" stroke-linejoin="round"/>
<path d="M219.517 55.6464C225.704 67.3164 228.281 83.1747 219.862 94.3989C217.28 98.1156 213.061 103.009 208.303 102.06C207.958 101.995 207.621 101.9 207.293 101.776C205.419 100.33 206.098 97.2039 206.381 92.8686C206.549 90.1707 206.572 87.003 205.721 83.4816C205.324 81.8301 204.768 80.2212 204.061 78.6765" stroke="var(--illustration-currentColor)" stroke-width="1.3956" stroke-linecap="round" stroke-linejoin="round"/>
<path d="M205.962 69.6807C207.902 59.1075 207.795 47.8692 199.496 54.8607C195.073 60.4566 191.291 67.0572 189.137 74.0532C189.119 74.1183 189.096 74.1834 189.077 74.244C187.937 77.9292 187.317 81.7554 187.235 85.6122C187.137 89.4918 189.04 95.1573 193.705 94.4457C197.71 92.5665 199.375 87.6636 201.497 84.0168C201.939 83.4726 202.455 82.4028 202.995 80.97C203.274 80.22 203.562 79.3746 203.846 78.4536C204.716 75.5715 205.423 72.6426 205.962 69.6807Z" stroke="var(--illustration-currentColor)" stroke-width="1.3956" stroke-linecap="round" stroke-linejoin="round"/>
<path d="M204.042 78.5136C207.754 75.9507 211.443 71.0199 214.457 65.6847C216.126 62.7303 217.591 59.6655 218.843 56.5116C218.973 56.1861 219.099 55.8606 219.22 55.5396C219.792 54.0231 220.267 52.5858 220.625 51.2694C221.979 46.3194 224.235 38.9286 224.915 31.8351C225.683 23.8762 224.473 16.285 217.807 12.9124C211.523 9.73535 205.629 15.4428 200.737 23.5831C198.703 27.0421 196.887 30.6246 195.3 34.3098C193.737 37.8681 192.369 41.394 191.229 44.5059H191.225C190.788 45.7107 190.378 46.8549 190.011 47.9109C189.927 48.1434 189.848 48.3669 189.774 48.5853C189.085 50.5959 188.597 52.6698 188.318 54.7767C188.119 56.2254 187.993 57.6831 187.941 59.1444C187.75 64.0893 188.266 69.1455 188.825 73.9551" stroke="var(--illustration-currentColor)" stroke-width="1.3956" stroke-linecap="round" stroke-linejoin="round"/>
<path d="M75.3134 216.94L74.8667 216.968C68.8244 217.336 62.6657 217.787 57.0977 220.159C51.3995 222.588 46.3478 227.486 45.4877 233.621C44.8277 238.366 46.7576 243.208 49.8323 246.878C52.907 250.553 57.0281 253.195 61.2659 255.423C70.8203 260.442 81.2459 263.624 91.7801 265.945C111.954 270.392 132.728 271.778 153.376 271.248C155.823 271.183 158.619 270.899 160.261 269.234C160.499 268.991 160.709 268.722 160.889 268.434C161.271 267.786 161.514 267.064 161.601 266.317C161.686 265.679 161.716 265.035 161.689 264.391C161.627 262.056 161.22 259.742 160.48 257.526" stroke="var(--illustration-currentColor)" stroke-width="1.3956" stroke-linecap="round" stroke-linejoin="round"/>
<path d="M172.294 213.191C179.216 212.619 186.364 212.6 192.887 215.005C199.403 217.405 205.227 222.634 206.707 229.425C206.874 230.201 206.986 230.987 207.041 231.779C207.335 235.854 206.083 240.068 203.399 243.147C201.925 244.836 200.073 246.152 198.157 247.32C195.172 249.115 192.017 250.611 188.737 251.785C184.745 253.201 180.638 254.266 176.461 254.967C172.601 255.625 168.711 256.089 164.804 256.358C164.218 256.404 163.632 256.441 163.046 256.478C162.176 256.534 161.302 256.58 160.432 256.622C146.169 257.321 131.873 256.421 117.81 253.939C116.824 253.767 115.819 253.576 114.949 253.078C114.875 253.038 114.803 252.993 114.735 252.943C113.911 252.405 113.269 251.63 112.893 250.72C112.046 248.804 112.088 246.301 112.443 244.147C112.72 242.404 113.174 240.692 113.796 239.04C114.945 236.068 116.763 233.444 119.582 232.086" stroke="var(--illustration-currentColor)" stroke-width="1.3956" stroke-linecap="round" stroke-linejoin="round"/>
<path d="M118.178 173.043C124.568 173.373 131.119 173.499 137.715 173.43C150.032 173.308 162.331 172.474 174.551 170.932C174.239 179.881 173.458 188.724 172.862 197.542C172.56 202.035 172.299 206.519 172.178 211.008C172.155 211.734 172.141 212.459 172.127 213.185C171.997 218.885 172.185 224.587 172.69 230.266C155.275 232.256 137.12 230.55 119.569 231.931C117.727 232.076 115.885 232.252 114.057 232.475C113.992 232.484 113.927 232.489 113.861 232.499C113.043 231.745 112.213 231.005 111.373 230.279C106.318 225.901 100.859 222.011 95.0703 218.661" stroke="var(--illustration-currentColor)" stroke-width="1.3956" stroke-linecap="round" stroke-linejoin="round"/>
<path d="M118.178 173.044C118.015 183.203 116.778 193.315 115.688 203.434C115.213 207.82 114.771 212.206 114.45 216.598C114.24 219.481 114.083 222.37 114.008 225.263C113.957 227.529 113.948 229.799 114.008 232.073" stroke="var(--illustration-currentColor)" stroke-width="1.3956" stroke-linecap="round" stroke-linejoin="round"/>
<path d="M102.604 217.336C106.339 220.01 110.1 222.651 113.884 225.257" stroke="var(--illustration-currentColor)" stroke-width="1.3956" stroke-linecap="round" stroke-linejoin="round"/>
<path d="M149.37 192.78C148.789 192.373 148.138 192.076 147.45 191.906C144.161 190.947 140.068 191.189 138.193 194.473C135.369 198.776 135.943 203.018 138.063 205.735C138.643 206.475 139.348 207.108 140.147 207.605C143.459 209.656 148.189 209.065 151.376 203.483C151.926 202.268 152.229 200.956 152.269 199.623C152.309 198.289 152.085 196.961 151.608 195.715C151.163 194.54 150.385 193.52 149.37 192.78Z" stroke="var(--illustration-currentColor)" stroke-width="1.3956" stroke-linecap="round" stroke-linejoin="round"/>
<path d="M137.449 206.288C131.588 214.233 134.89 212.363 140.147 207.605C144.224 203.897 148.052 199.926 151.607 195.715C153.691 193.185 155.081 191.091 155.035 190.161C153.272 189.91 151.807 191.226 150.653 192.394" stroke="url(#paint17_linear_28_12850)" stroke-width="1.3956" stroke-linecap="round" stroke-linejoin="round"/>
<path d="M108.712 114.54C106.777 125.48 100.218 135.374 90.58 141.84C88.2571 143.397 85.7935 144.733 83.2213 145.83C76.4704 147.965 69.3247 148.549 62.317 147.537C51.3346 145.942 41.1337 140.443 33.2539 131.912C32.2771 130.852 31.3357 129.747 30.4303 128.596C24.9786 120.046 22.932 111.38 23.4204 103.259C24.1923 90.4434 31.2724 78.9867 41.2126 71.4975C46.207 67.6989 51.9364 64.9791 58.0375 63.5109C72.1504 60.1809 87.8275 64.2225 99.3856 79.9209L99.4552 80.0187" stroke="var(--illustration-currentColor)" stroke-width="1.3956" stroke-linecap="round" stroke-linejoin="round"/>
<path d="M106.256 92.6592C107.243 95.0295 107.999 97.4892 108.516 100.004C109.503 104.792 109.569 109.723 108.712 114.535" stroke="var(--illustration-currentColor)" stroke-width="1.3956" stroke-linecap="round" stroke-linejoin="round"/>
<path d="M99.3857 79.923C98.8277 80.6742 98.3708 81.4953 98.0273 82.3653C95.3153 89.9193 101.117 93.9708 106.157 92.3475C108.209 91.6917 110.134 90.087 111.311 87.4029C114.238 78.2766 104.265 73.4529 99.3857 79.923Z" stroke="var(--illustration-currentColor)" stroke-width="1.3956" stroke-linecap="round" stroke-linejoin="round"/>
<path d="M58.0653 63.4803C58.056 63.4896 58.0467 63.5037 58.0374 63.513C49.725 72.6486 40.5708 85.7616 43.5246 98.6325C48.7296 98.0976 52.5903 92.883 57.6375 92.79C55.7394 99.06 52.7625 105.131 51.8136 111.638C52.5636 119.537 75.5319 93.0924 82.5093 99.8046C83.6862 101.628 79.0719 106.201 79.7418 110.406C83.0676 112.331 85.3098 113.09 88.8636 110.703C95.1525 107.192 101.441 103.682 107.73 100.173" stroke="var(--illustration-currentColor)" stroke-width="1.3956" stroke-linecap="round" stroke-linejoin="round"/>
<path d="M41.5758 70.9041C41.4501 71.0994 41.3292 71.2995 41.2128 71.4993C38.6274 75.8076 37.0515 80.6457 36.6033 85.6503C37.8126 85.4265 39.0219 85.2048 40.2315 84.9849C40.3848 89.2692 32.3841 105.778 29.1791 108.936C28.9837 106.333 29.0632 103.717 29.4164 101.131C26.9324 102.228 27.0347 106.606 24.3881 107.191C24.1781 106.191 23.5508 104.288 23.4902 103.265" stroke="var(--illustration-currentColor)" stroke-width="1.3956" stroke-linecap="round" stroke-linejoin="round"/>
<path d="M33.0898 131.979C33.1456 131.961 33.1969 131.938 33.2527 131.914C37.8427 130.165 42.4999 125.7 47.5471 126.672C46.582 128.39 46.1209 130.346 46.2166 132.314C56.6866 133.212 64.5439 111.801 70.1071 114.917C67.2046 120.89 63.3997 126.556 61.0039 132.714C61.7854 138.915 72.2794 130.802 74.3773 128.379C77.6521 125.504 82.234 120.811 86.6389 122.392C82.2433 133.105 71.4328 140.371 62.3251 147.46C62.6413 147.446 62.9578 147.427 63.274 147.413" stroke="var(--illustration-currentColor)" stroke-width="1.3956" stroke-linecap="round" stroke-linejoin="round"/>
<path d="M90.4448 141.636C88.1486 140.934 85.6814 141.041 83.4548 141.938C78.2963 142.478 88.0505 133.845 90.0089 129.765C90.2927 129.285 90.8321 128.732 91.3067 129.025C97.0001 135.882 102.21 102.107 108.713 114.535V114.54C108.727 114.559 108.736 114.582 108.75 114.605" stroke="var(--illustration-currentColor)" stroke-width="1.3956" stroke-linecap="round" stroke-linejoin="round"/>
<path d="M107.163 180.556C107.163 180.575 107.158 180.588 107.158 180.607C106.516 187.075 105.167 193.453 103.135 199.627" stroke="var(--illustration-currentColor)" stroke-width="1.3956" stroke-linecap="round" stroke-linejoin="round"/>
<path d="M172.294 211.014C172.824 210.904 173.345 210.754 173.852 210.564C174.83 210.184 175.766 209.705 176.648 209.136C180.225 206.899 183.29 203.736 184.983 199.875C186.677 196.014 186.9 191.437 185.163 187.595" stroke="var(--illustration-currentColor)" stroke-width="1.3956" stroke-linecap="round" stroke-linejoin="round"/>
<path d="M111.502 230.304C111.46 230.295 111.412 230.29 111.372 230.281C109.749 229.979 108.07 229.686 106.46 230.048C104.548 230.476 102.967 231.769 101.492 233.063C98.0615 236.061 94.8062 239.254 91.742 242.626C90.4955 243.999 89.2676 245.416 88.4069 247.064C87.5465 248.706 87.0719 250.613 87.4256 252.436C87.6626 253.655 88.2533 254.772 88.8674 255.851C90.17 258.131 91.691 260.391 93.9143 261.791C94.6892 262.3 95.5649 262.637 96.482 262.777C98.045 262.972 99.5939 262.405 101.041 261.777C105.997 259.626 110.582 256.702 114.623 253.116" stroke="var(--illustration-currentColor)" stroke-width="1.3956" stroke-linecap="round" stroke-linejoin="round"/>
<path d="M113.735 239.017C112.806 239.158 111.887 239.355 110.982 239.608C109.626 239.982 108.295 240.446 107 240.994C105.967 241.422 104.949 241.892 103.944 242.39C103.888 242.417 103.827 242.445 103.772 242.473C102.323 243.161 100.94 243.98 99.641 244.92C99.188 245.261 98.756 245.629 98.348 246.022C96.7898 247.534 95.618 249.544 95.5058 251.711C95.3936 253.879 96.506 256.167 98.4737 257.079C99.071 257.346 99.7133 257.498 100.367 257.529C101.333 257.562 102.296 257.403 103.2 257.06C103.898 256.797 104.57 256.466 105.205 256.074C105.949 255.632 106.665 255.125 107.377 254.623L107.893 254.26C109.149 253.372 110.403 252.483 111.657 251.595C112.071 251.302 112.485 251.009 112.894 250.721C112.936 250.688 112.984 250.661 113.024 250.627" stroke="var(--illustration-currentColor)" stroke-width="1.3956" stroke-linecap="round" stroke-linejoin="round"/>
<path d="M112.238 253.125C112.047 252.613 111.851 252.102 111.656 251.595C110.945 249.763 110.192 247.947 109.4 246.148C108.642 244.413 107.842 242.695 107 240.994C106.595 240.171 106.181 239.347 105.758 238.534" stroke="var(--illustration-currentColor)" stroke-width="1.3956" stroke-linecap="round" stroke-linejoin="round"/>
<path d="M107.55 256.595C107.657 255.814 107.773 255.037 107.894 254.26C108.318 251.543 108.82 248.84 109.401 246.148C109.876 243.957 110.403 241.777 110.983 239.608C111.103 239.158 111.229 238.706 111.355 238.254" stroke="var(--illustration-currentColor)" stroke-width="1.3956" stroke-linecap="round" stroke-linejoin="round"/>
<path d="M106.005 257.418C105.726 256.976 105.456 256.53 105.205 256.074C104.112 254.154 103.214 252.125 102.293 250.111C101.505 248.333 100.62 246.601 99.6413 244.921C99.2111 244.202 98.744 243.506 98.2412 242.837" stroke="var(--illustration-currentColor)" stroke-width="1.3956" stroke-linecap="round" stroke-linejoin="round"/>
<path d="M99.8877 258.954C100.055 258.484 100.213 258.005 100.368 257.531C101.14 255.098 101.74 252.611 102.293 250.111C102.489 249.213 102.679 248.32 102.87 247.422C103.228 245.742 103.587 244.065 103.945 242.39C104.061 241.836 104.182 241.282 104.298 240.729" stroke="var(--illustration-currentColor)" stroke-width="1.3956" stroke-linecap="round" stroke-linejoin="round"/>
<path d="M160.493 269.34C166.996 272.152 173.799 274.214 180.769 275.485C182.737 275.839 184.737 276.137 186.733 275.974C188.728 275.811 190.733 275.15 192.217 273.806C193.235 272.88 193.961 271.68 194.645 270.485C195.519 268.959 196.366 267.373 196.664 265.638C197.138 262.865 196.138 260 194.538 257.688C192.966 255.413 190.84 253.58 188.737 251.785C188.7 251.752 188.667 251.725 188.63 251.692" stroke="var(--illustration-currentColor)" stroke-width="1.3956" stroke-linecap="round" stroke-linejoin="round"/>
<path d="M162.484 267.806C162.879 267.48 163.279 267.154 163.679 266.82C164.977 265.754 166.276 264.661 167.577 263.54C170.696 260.899 173.671 258.094 176.49 255.135C176.95 255.274 177.406 255.418 177.862 255.567C180.043 256.265 182.197 257.045 184.323 257.907C184.863 258.111 185.386 258.359 185.886 258.647C186.277 258.873 186.629 259.16 186.928 259.498C187.593 260.275 187.867 261.303 188.072 262.299C188.361 263.717 188.532 265.215 188.109 266.596C187.514 268.555 185.76 270.016 183.819 270.662C182.554 271.062 181.227 271.231 179.903 271.16C179.18 271.129 178.459 271.056 177.744 270.941C176.205 270.694 174.683 270.343 173.19 269.891C171.93 269.519 170.683 269.1 169.44 268.672C167.529 268.021 165.617 267.352 163.677 266.821C163.021 266.64 162.365 266.477 161.7 266.333" stroke="var(--illustration-currentColor)" stroke-width="1.3956" stroke-linecap="round" stroke-linejoin="round"/>
<path d="M169.866 269.852C169.726 269.457 169.586 269.061 169.442 268.671C168.838 266.954 168.216 265.244 167.577 263.541C166.684 261.136 165.76 258.742 164.805 256.359C164.795 256.34 164.791 256.317 164.781 256.299" stroke="var(--illustration-currentColor)" stroke-width="1.3956" stroke-linecap="round" stroke-linejoin="round"/>
<path d="M171.922 271.01C172.345 270.638 172.768 270.26 173.192 269.889C175.085 268.215 176.978 266.542 178.871 264.87L185.861 258.688" stroke="var(--illustration-currentColor)" stroke-width="1.3956" stroke-linecap="round" stroke-linejoin="round"/>
<path d="M180.24 272.894C180.124 272.318 180.012 271.741 179.905 271.16C179.51 269.071 179.165 266.975 178.872 264.871C178.43 261.782 178.094 258.681 177.863 255.567C177.863 255.549 177.858 255.535 177.858 255.516" stroke="var(--illustration-currentColor)" stroke-width="1.3956" stroke-linecap="round" stroke-linejoin="round"/>
<path d="M224.89 31.8303C223.657 30.2535 221.904 29.1695 220.127 28.2485C214.142 25.1617 207.5 23.5674 200.767 23.6015" stroke="var(--illustration-currentColor)" stroke-width="1.3956" stroke-linecap="round" stroke-linejoin="round"/>
<path d="M204.218 34.4538C203.649 35.2482 203.283 36.1695 203.152 37.1376C203.021 38.1057 203.128 39.0912 203.464 40.0083C203.8 40.9257 204.356 41.7468 205.082 42.4005C205.808 43.0542 206.683 43.5204 207.63 43.7589C208.577 43.9977 209.569 44.001 210.517 43.7691C211.467 43.5375 212.344 43.077 213.075 42.4287C213.806 41.7801 214.367 40.9629 214.71 40.0482C215.053 39.1332 215.167 38.1486 215.042 37.1796C214.942 36.3843 214.672 35.6199 214.251 34.9377C212.005 31.3839 206.739 30.9327 204.218 34.4538Z" stroke="var(--illustration-currentColor)" stroke-width="1.3956" stroke-linecap="round" stroke-linejoin="round"/>
<path d="M195.473 34.3887C196.919 34.9563 198.384 35.4726 199.869 35.9376C198.31 39.4026 196.984 42.9675 195.9 46.6086C194.422 45.744 192.857 45.0408 191.229 44.5107" stroke="var(--illustration-currentColor)" stroke-width="1.3956" stroke-linecap="round" stroke-linejoin="round"/>
<path d="M214.354 65.6293C212.922 65.0191 211.562 64.2529 210.298 63.3454C211.996 60.3586 213.601 57.3244 215.112 54.2422C216.252 54.9586 217.393 55.6747 218.536 56.3911" stroke="var(--illustration-currentColor)" stroke-width="1.3956" stroke-linecap="round" stroke-linejoin="round"/>
<path d="M187.794 59.1258C187.84 59.1306 187.891 59.1351 187.938 59.1444C188.503 59.2116 189.062 59.3157 189.613 59.4561C190.339 59.6235 191.069 59.7957 191.799 59.9631C191.888 58.2096 192.166 56.4708 192.627 54.7767C192.65 54.693 192.659 54.5766 192.58 54.5394C192.552 54.531 192.521 54.5295 192.492 54.5349L188.464 54.7998" stroke="var(--illustration-currentColor)" stroke-width="1.3956" stroke-linecap="round" stroke-linejoin="round"/>
<path d="M171.736 65.1963C171.746 65.2056 171.759 65.2101 171.769 65.2194C173.671 66.6522 175.62 68.0199 177.616 69.3222C179.323 66.8136 180.891 64.2123 182.31 61.53L177.12 56.8689" stroke="var(--illustration-currentColor)" stroke-width="1.3956" stroke-linecap="round" stroke-linejoin="round"/>
<path d="M205.776 83.4678C208.485 83.4615 211.19 83.2968 213.879 82.9746C213.405 84.2676 213.247 85.6494 213.093 87.0168C212.828 89.3241 212.566 91.6329 212.307 93.9429C210.623 93.1569 208.604 93.6222 206.841 93.0591C206.798 93.051 206.757 93.0342 206.721 93.0093C206.685 92.9844 206.654 92.9523 206.631 92.9151C206.627 92.9046 206.626 92.8935 206.627 92.8824C206.627 92.808 206.706 92.7243 206.766 92.7708" stroke="var(--illustration-currentColor)" stroke-width="1.3956" stroke-linecap="round" stroke-linejoin="round"/>
<path d="M202.958 80.9559C201.086 79.8228 199.094 78.9024 197.018 78.2115C198.753 74.7273 200.327 71.1675 201.739 67.5315C202.95 68.4687 204.317 69.1851 205.777 69.648" stroke="var(--illustration-currentColor)" stroke-width="1.3956" stroke-linecap="round" stroke-linejoin="round"/>
<path d="M180.72 61.62C180.705 61.56 180.67 61.5072 180.619 61.4712C180.569 61.4355 180.507 61.419 180.446 61.4247C180.336 61.44 180.236 61.491 180.159 61.5702C180.082 61.6494 180.034 61.752 180.022 61.8618C180.008 61.9437 180.014 62.0277 180.037 62.1075C180.06 62.1873 180.101 62.2608 180.157 62.3223C180.215 62.3832 180.29 62.4252 180.372 62.4426C180.454 62.46 180.54 62.4522 180.617 62.4201C180.676 62.3808 180.726 62.3301 180.765 62.2713C180.803 62.2125 180.83 62.1465 180.843 62.0772C180.856 62.0079 180.855 61.9368 180.841 61.8678C180.826 61.7988 180.797 61.7337 180.757 61.6758" stroke="var(--illustration-currentColor)" stroke-width="1.3956" stroke-linecap="round" stroke-linejoin="round"/>
<path d="M177.5 66.936C177.365 66.9117 177.226 66.9421 177.114 67.0198C177.066 67.0564 177.026 67.1022 176.996 67.1547C176.966 67.2072 176.947 67.2652 176.94 67.3248C176.934 67.3848 176.939 67.4455 176.956 67.5034C176.973 67.5613 177.001 67.615 177.039 67.6618C177.083 67.7029 177.135 67.7331 177.192 67.7502C177.249 67.7673 177.31 67.7709 177.369 67.7604C177.427 67.7499 177.483 67.726 177.531 67.6903C177.579 67.6546 177.617 67.6081 177.644 67.5547C177.663 67.4605 177.662 67.3635 177.642 67.2696C177.621 67.176 177.581 67.0875 177.524 67.0104" stroke="var(--illustration-currentColor)" stroke-width="1.3956" stroke-linecap="round" stroke-linejoin="round"/>
<path d="M202.577 69.5268C202.471 69.4929 202.358 69.4881 202.25 69.5124C202.142 69.537 202.043 69.5901 201.962 69.6663C201.883 69.7452 201.832 69.8478 201.816 69.9588C201.8 70.0695 201.82 70.1823 201.874 70.2804C201.932 70.3752 202.023 70.4448 202.13 70.4757C202.237 70.5066 202.351 70.4967 202.451 70.4478C202.497 70.4199 202.538 70.3824 202.569 70.3377C202.6 70.293 202.622 70.2423 202.632 70.1889C202.643 70.1355 202.642 70.0806 202.63 70.0275C202.618 69.9744 202.595 69.9243 202.562 69.8805" stroke="var(--illustration-currentColor)" stroke-width="1.3956" stroke-linecap="round" stroke-linejoin="round"/>
<path d="M200.097 76.3368C200.014 76.3008 199.922 76.2885 199.832 76.3008C199.742 76.3128 199.657 76.3494 199.586 76.4064C199.446 76.5231 199.336 76.6713 199.265 76.839C199.196 76.9587 199.153 77.0916 199.139 77.229C199.133 77.2989 199.145 77.3688 199.175 77.4324C199.204 77.496 199.25 77.5509 199.307 77.5917C199.375 77.6304 199.451 77.6511 199.53 77.6517C199.865 77.6748 200.265 77.4888 200.288 77.154C200.281 76.9644 200.211 76.7823 200.088 76.6377" stroke="var(--illustration-currentColor)" stroke-width="1.3956" stroke-linecap="round" stroke-linejoin="round"/>
<path d="M195.06 43.77C194.993 43.7718 194.926 43.7877 194.865 43.8165C194.771 43.8552 194.689 43.9191 194.629 44.0013C194.57 44.0832 194.534 44.1804 194.525 44.2818C194.525 44.349 194.538 44.4153 194.564 44.4768C194.591 44.5383 194.63 44.5938 194.679 44.6394C194.728 44.685 194.786 44.7198 194.849 44.7414C194.913 44.7633 194.98 44.7717 195.047 44.7657C195.145 44.7357 195.237 44.6859 195.316 44.6196C195.395 44.5533 195.46 44.4717 195.507 44.3796C195.539 44.3382 195.557 44.2878 195.558 44.2353C195.547 44.1906 195.523 44.1501 195.488 44.1189C195.396 44.0211 195.293 43.9338 195.182 43.8585C195.149 43.8399 195.084 43.8399 195.07 43.8585C195.06 43.8678 195.06 43.8771 195.07 43.8912" stroke="var(--illustration-currentColor)" stroke-width="1.3956" stroke-linecap="round" stroke-linejoin="round"/>
<path d="M198.045 36.4775C198.004 36.4439 197.956 36.4193 197.904 36.4052C197.853 36.3911 197.799 36.3878 197.746 36.3959C197.693 36.4037 197.642 36.4223 197.597 36.4508C197.552 36.4793 197.513 36.5168 197.483 36.5612C197.432 36.6569 197.418 36.7682 197.443 36.8738C197.469 36.9794 197.533 37.0718 197.622 37.1333C197.715 37.1888 197.824 37.2131 197.932 37.2023C198.04 37.1915 198.142 37.1462 198.222 37.0733C198.353 36.9476 198.38 36.6833 198.208 36.6233" stroke="var(--illustration-currentColor)" stroke-width="1.3956" stroke-linecap="round" stroke-linejoin="round"/>
<path d="M263.823 59.0514C264.514 58.2831 265.023 57.369 265.312 56.3769C266.842 50.8461 261.712 45.12 256.264 44.9991C255.721 44.9853 255.177 45.0255 254.641 45.1191C252.474 45.4806 250.498 46.578 249.045 48.2262C248.795 48.5118 248.563 48.813 248.352 49.1286C247.501 50.4309 246.976 51.9186 246.82 53.4663C246.663 55.014 246.881 56.5767 247.454 58.0227C247.868 59.0703 248.49 60.0228 249.282 60.8229C250.887 62.4183 253.217 63.1857 255.478 63.1113C257.756 62.9823 259.949 62.2011 261.795 60.8613C262.544 60.345 263.225 59.7369 263.823 59.0514Z" stroke="var(--illustration-currentColor)" stroke-width="1.3956" stroke-linecap="round" stroke-linejoin="round"/>
<path d="M260.019 63.2569C260.475 63.9091 261.064 64.4569 261.749 64.8637C262.433 65.2702 263.196 65.5264 263.987 65.6152C264.203 65.6515 264.424 65.6356 264.633 65.5687C265.108 65.3827 265.28 64.8058 265.317 64.2988C265.461 62.4568 264.694 60.7033 263.824 59.0518C263.721 58.861 263.624 58.675 263.521 58.489C262.652 56.8843 261.76 55.2889 260.847 53.7025C259.074 50.6371 257.172 47.5624 254.642 45.1204C254.087 44.578 253.498 44.0716 252.879 43.6039C251.776 42.7759 250.269 42.0643 249.083 42.7666C248.339 43.2085 247.971 44.1109 247.938 44.9716C247.96 45.8377 248.125 46.6945 248.427 47.5066C248.46 47.6182 248.525 47.7532 248.641 47.7484C248.757 47.7484 248.711 47.5021 248.627 47.581" stroke="url(#paint18_linear_28_12850)" stroke-width="1.3956" stroke-linecap="round" stroke-linejoin="round"/>
<path d="M137.97 160.972C138.016 160.972 138.068 160.968 138.114 160.968C140.724 160.855 143.339 160.951 145.933 161.256" stroke="var(--illustration-currentColor)" stroke-width="1.3956" stroke-linecap="round" stroke-linejoin="round"/>
<path d="M30.9332 161.056L35.6918 165.271L41.8736 160.945L39.4688 167.075L42.8504 171.829L37.3895 171.071L34.5428 177.416L32.7473 171.643L26.9375 170.466L31.589 167.401L30.9332 161.056Z" stroke="url(#paint19_linear_28_12850)" stroke-width="1.3956" stroke-linecap="round" stroke-linejoin="round"/>
<path d="M155.562 63.7501L149.855 62.5732L145.878 66.8341L144.966 60.7777L139.747 57.9493L144.896 55.3819L145.645 49.3672L149.739 53.8375L155.418 52.9537L152.804 58.2844L155.562 63.7501Z" stroke="var(--illustration-currentColor)" stroke-width="1.3956" stroke-linecap="round" stroke-linejoin="round"/>
<path d="M257.409 116.001L252.814 112.415L247.362 114.476L249.227 108.642L245.804 103.796L251.553 103.772L254.888 98.7159L256.577 104.535L262.066 106.256L257.358 109.875L257.409 116.001Z" stroke="var(--illustration-currentColor)" stroke-width="1.3956" stroke-linecap="round" stroke-linejoin="round"/>
<path d="M249.05 152.274L247.738 147.827L243.254 146.636L247.161 143.729L247.194 139.008L250.92 141.654L255.422 139.929L253.817 144.473L256.567 148.129L251.85 148.292L249.05 152.274Z" stroke="var(--illustration-currentColor)" stroke-width="1.3956" stroke-linecap="round" stroke-linejoin="round"/>
<path d="M59.0327 167.015C58.7909 165.368 58.5104 163.729 58.1909 162.098C58.1582 161.908 58.1213 161.722 58.0796 161.536C58.0517 161.382 58.0235 161.228 57.9863 161.08C57.707 159.689 57.3953 158.298 57.0566 156.917" stroke="var(--illustration-currentColor)" stroke-width="1.3956" stroke-linecap="round" stroke-linejoin="round"/>
<path d="M53.7715 166.773C55.0459 165.093 56.3035 163.401 57.5437 161.698C57.5437 161.693 57.5437 161.689 57.5485 161.689C57.6928 161.484 57.8416 161.284 57.9859 161.079C58.9906 159.689 59.9812 158.29 60.958 156.884" stroke="var(--illustration-currentColor)" stroke-width="1.3956" stroke-linecap="round" stroke-linejoin="round"/>
<path d="M62.0565 164.098C61.6191 164.168 61.1958 163.936 60.8145 163.708C59.9346 163.178 59.0601 162.641 58.191 162.099C57.9768 161.968 57.7677 161.838 57.5535 161.694L57.549 161.689C55.5162 160.419 53.5068 159.106 51.5205 157.749" stroke="var(--illustration-currentColor)" stroke-width="1.3956" stroke-linecap="round" stroke-linejoin="round"/>
<path d="M51.6318 163.727C53.5761 162.982 55.5468 162.306 57.5439 161.698C57.5466 161.696 57.5499 161.694 57.5532 161.694C57.7254 161.638 57.9021 161.587 58.0791 161.536C59.7591 161.029 61.4523 160.573 63.1584 160.168" stroke="var(--illustration-currentColor)" stroke-width="1.3956" stroke-linecap="round" stroke-linejoin="round"/>
<path d="M106.144 59.6328C105.106 58.3128 104.068 56.9928 103.027 55.6728C101.557 53.808 100.087 51.9411 98.6172 50.0724" stroke="var(--illustration-currentColor)" stroke-width="1.3956" stroke-linecap="round" stroke-linejoin="round"/>
<path d="M99.4795 59.6562C100.684 58.3443 101.867 57.0171 103.028 55.6743C104.414 54.0885 105.767 52.479 107.085 50.8461" stroke="var(--illustration-currentColor)" stroke-width="1.3956" stroke-linecap="round" stroke-linejoin="round"/>
<path d="M148.832 26.8347C149.623 25.7043 150.414 24.5708 151.204 23.4342C151.93 22.3972 152.656 21.3572 153.381 20.3142" stroke="var(--illustration-currentColor)" stroke-width="1.3956" stroke-linecap="round" stroke-linejoin="round"/>
<path d="M153.348 25.8811C152.632 25.0673 151.918 24.2517 151.204 23.4343C150.241 22.3411 149.281 21.248 148.324 20.155" stroke="var(--illustration-currentColor)" stroke-width="1.3956" stroke-linecap="round" stroke-linejoin="round"/>
<path d="M244.31 167.178C243.524 165.722 242.71 164.282 241.868 162.858C241.101 161.546 240.308 160.251 239.491 158.974" stroke="url(#paint20_linear_28_12850)" stroke-width="1.3956" stroke-linecap="round" stroke-linejoin="round"/>
<path d="M237.277 166.61C238.84 165.401 240.37 164.149 241.867 162.856C243.561 161.396 245.209 159.881 246.812 158.312" stroke="url(#paint21_linear_28_12850)" stroke-width="1.3956" stroke-linecap="round" stroke-linejoin="round"/>
<path d="M144.592 104.85C146.046 103.446 147.578 102.124 149.182 100.894" stroke="var(--illustration-currentColor)" stroke-width="1.3956" stroke-linecap="round" stroke-linejoin="round"/>
<path d="M140.875 102.099C142.037 98.5362 143.103 94.9434 144.072 91.3209" stroke="var(--illustration-currentColor)" stroke-width="1.3956" stroke-linecap="round" stroke-linejoin="round"/>
<path d="M133.845 100.779C133.592 98.9418 133.192 97.1277 132.647 95.355" stroke="var(--illustration-currentColor)" stroke-width="1.3956" stroke-linecap="round" stroke-linejoin="round"/>
<path d="M114.082 167.925L112.198 165.541" stroke="var(--illustration-currentColor)" stroke-width="1.3956" stroke-linecap="round" stroke-linejoin="round"/>
<path d="M107.085 177.189C107.447 176.417 107.981 175.737 108.645 175.202" stroke="var(--illustration-currentColor)" stroke-width="1.3956" stroke-linecap="round" stroke-linejoin="round"/>
<path d="M129.568 170.655C128.838 169.663 128.108 168.671 127.378 167.679" stroke="var(--illustration-currentColor)" stroke-width="1.3956" stroke-linecap="round" stroke-linejoin="round"/>
<path d="M135.865 166.54C136.302 165.613 136.918 164.782 137.677 164.093" stroke="var(--illustration-currentColor)" stroke-width="1.3956" stroke-linecap="round" stroke-linejoin="round"/>
<path d="M113.653 187.472C113.174 186.67 112.696 185.869 112.217 185.067" stroke="var(--illustration-currentColor)" stroke-width="1.3956" stroke-linecap="round" stroke-linejoin="round"/>
<path d="M107.388 195.407C108.118 194.452 109.344 193.884 109.825 192.782" stroke="var(--illustration-currentColor)" stroke-width="1.3956" stroke-linecap="round" stroke-linejoin="round"/>
<path d="M99.8152 171.85C99.148 171.12 98.4811 170.391 97.8145 169.662" stroke="var(--illustration-currentColor)" stroke-width="1.3956" stroke-linecap="round" stroke-linejoin="round"/>
<path d="M91.9767 174.95C90.9927 175.445 90.1536 176.186 89.5413 177.102C89.4453 177.245 89.2713 177.413 89.1309 177.314" stroke="var(--illustration-currentColor)" stroke-width="1.3956" stroke-linecap="round" stroke-linejoin="round"/>
<path d="M86.3329 182.891C85.9723 182.732 85.6582 182.485 85.42 182.171C84.8149 181.527 84.1237 180.969 83.3662 180.514" stroke="var(--illustration-currentColor)" stroke-width="1.3956" stroke-linecap="round" stroke-linejoin="round"/>
<path d="M76.9873 191.895C77.575 190.63 78.3037 189.435 79.1596 188.333" stroke="var(--illustration-currentColor)" stroke-width="1.3956" stroke-linecap="round" stroke-linejoin="round"/>
<path d="M84.9865 194.424C84.1135 193.927 83.2495 193.413 82.3945 192.885" stroke="var(--illustration-currentColor)" stroke-width="1.3956" stroke-linecap="round" stroke-linejoin="round"/>
<path d="M89.8291 188.173L92.1871 184.6" stroke="var(--illustration-currentColor)" stroke-width="1.3956" stroke-linecap="round" stroke-linejoin="round"/>
<path d="M89.801 197.483C88.9484 198.815 88.157 200.184 87.4268 201.589" stroke="var(--illustration-currentColor)" stroke-width="1.3956" stroke-linecap="round" stroke-linejoin="round"/>
<path d="M73.5146 184.083C74.1944 182.883 74.8745 181.684 75.5546 180.487L75.4107 180.637" stroke="var(--illustration-currentColor)" stroke-width="1.3956" stroke-linecap="round" stroke-linejoin="round"/>
<path d="M74.1625 203.427C73.3465 202.9 72.5305 202.372 71.7148 201.844" stroke="var(--illustration-currentColor)" stroke-width="1.3956" stroke-linecap="round" stroke-linejoin="round"/>
<path d="M98.5142 205.762C97.526 205.074 96.5072 204.434 95.4572 203.842C95.4512 203.771 95.4455 203.701 95.4395 203.63" stroke="var(--illustration-currentColor)" stroke-width="1.3956" stroke-linecap="round" stroke-linejoin="round"/>
<path d="M86.8496 214.034C87.305 212.682 87.8903 211.378 88.5968 210.139" stroke="var(--illustration-currentColor)" stroke-width="1.3956" stroke-linecap="round" stroke-linejoin="round"/>
<path d="M82.7875 208.359C81.9718 207.994 81.3193 207.341 80.9551 206.525" stroke="var(--illustration-currentColor)" stroke-width="1.3956" stroke-linecap="round" stroke-linejoin="round"/>
<path d="M73.5322 212.496C74.254 211.377 75.0559 210.313 75.9322 209.311" stroke="var(--illustration-currentColor)" stroke-width="1.3956" stroke-linecap="round" stroke-linejoin="round"/>
<path fill-rule="evenodd" clip-rule="evenodd" d="M117.81 253.94C116.824 253.769 115.819 253.578 114.949 253.08C114.875 253.039 114.803 252.993 114.735 252.943L114.623 253.115C110.582 256.702 105.997 259.625 101.04 261.776C99.5937 262.404 98.0448 262.972 96.4818 262.776C95.565 262.636 94.689 262.3 93.9141 261.79C91.6908 260.39 90.1698 258.13 88.8672 255.85C88.2531 254.771 87.6624 253.654 87.4251 252.436C87.0717 250.612 87.5463 248.711 88.4067 247.063C89.2671 245.415 90.4953 243.997 91.7418 242.625C94.806 239.254 98.0613 236.06 101.492 233.062C102.833 231.886 104.261 230.711 105.946 230.185C96.8064 226.901 86.3829 228.655 76.9917 231.997C76.6287 232.126 76.2297 231.937 76.1004 231.573C75.9711 231.21 76.1607 230.811 76.5237 230.682C86.5071 227.129 97.9344 225.236 107.882 229.444C108.08 229.527 108.218 229.691 108.277 229.882C109.31 229.904 110.352 230.09 111.372 230.28C106.316 225.902 100.857 222.013 95.0679 218.664L95.0586 218.59C88.1229 219.677 81.0573 220.09 74.8659 216.97C68.8236 217.337 62.6649 217.788 57.0969 220.161C51.399 222.589 46.3473 227.487 45.4869 233.622C44.8263 238.367 46.7568 243.209 49.8315 246.879C52.9062 250.554 57.0273 253.196 61.2651 255.424C70.8195 260.444 81.2436 263.625 91.7793 265.946C111.953 270.393 132.727 271.779 153.376 271.249C155.822 271.185 158.618 270.9 160.26 269.235C160.498 268.992 160.708 268.724 160.888 268.435C161.27 267.787 161.513 267.066 161.6 266.318C161.685 265.68 161.714 265.036 161.688 264.393C161.627 262.057 161.219 259.743 160.479 257.527L160.432 256.625C146.169 257.324 131.873 256.423 117.81 253.94ZM70.0308 220.121C70.2333 220.1 70.4346 220.17 70.5816 220.31C71.9448 221.611 73.1718 223.047 74.2437 224.596C74.463 224.913 74.3838 225.348 74.067 225.567C74.0445 225.583 74.0214 225.597 73.9977 225.609C73.8471 225.906 73.5009 226.061 73.1718 225.96C72.6846 225.812 72.1749 225.752 71.6667 225.784C71.6529 225.785 71.6388 225.785 71.625 225.786C69.9321 225.792 68.2395 225.798 66.5469 225.805C66.2658 225.806 66.0114 225.638 65.9019 225.379C65.7921 225.12 65.8485 224.821 66.0447 224.619C67.3179 223.314 68.4828 221.908 69.5283 220.415C69.645 220.248 69.8286 220.141 70.0308 220.121ZM72.3741 224.397C71.7006 223.514 70.9716 222.675 70.1916 221.884C69.5511 222.754 68.871 223.595 68.1531 224.403C69.3018 224.398 70.4508 224.394 71.5998 224.39C71.8581 224.375 72.117 224.377 72.3741 224.397ZM69.1122 238.798C68.907 238.678 68.6544 238.67 68.4423 238.779C68.2305 238.887 68.088 239.096 68.0652 239.333C67.9116 240.91 67.6479 242.475 67.2762 244.016C67.2102 244.291 67.3161 244.579 67.5447 244.745C67.7736 244.91 68.0799 244.922 68.3205 244.774C69.789 243.87 71.217 242.908 72.6048 241.888C72.7635 241.895 72.9222 241.848 73.053 241.751C73.2387 241.613 73.3437 241.392 73.3338 241.161C73.3311 241.093 73.3284 241.025 73.326 240.957C73.3128 240.572 72.99 240.271 72.6048 240.284C72.5127 240.287 72.4251 240.308 72.3459 240.343C71.2269 239.92 70.1451 239.403 69.1122 238.798ZM68.9889 242.698C69.6744 242.25 70.3506 241.789 71.0175 241.314C70.4466 241.072 69.8856 240.806 69.336 240.518C69.243 241.248 69.1272 241.975 68.9889 242.698ZM86.7753 234.244C87.0177 234.237 87.2463 234.356 87.3789 234.559C88.1592 235.751 88.8594 236.993 89.4756 238.277C89.6424 238.625 89.496 239.042 89.1483 239.208C89.0451 239.258 88.9356 239.28 88.8282 239.277C88.7208 239.461 88.5306 239.594 88.3023 239.619L86.6271 239.805H86.6268L83.2371 240.184C82.9374 240.217 82.65 240.054 82.5249 239.78C82.3998 239.506 82.4649 239.182 82.6866 238.977C84.0696 237.701 85.251 236.223 86.1906 234.593C86.3115 234.383 86.5329 234.251 86.7753 234.244ZM87.9102 238.259C87.5655 237.58 87.1956 236.914 86.802 236.262C86.268 237.077 85.6758 237.851 85.0296 238.58L86.4723 238.418H86.4726L87.9102 238.259ZM125.552 258.886C125.344 258.862 125.136 258.933 124.985 259.079C124.835 259.225 124.758 259.43 124.776 259.639C124.907 261.165 124.949 262.697 124.905 264.228C124.897 264.498 125.046 264.749 125.287 264.871C125.528 264.993 125.818 264.965 126.031 264.799C127.52 263.643 128.945 262.412 130.352 261.188C130.507 261.228 130.662 261.268 130.816 261.31C131.188 261.41 131.571 261.19 131.671 260.817C131.771 260.445 131.551 260.062 131.179 259.962C130.991 259.912 130.802 259.862 130.613 259.814C130.468 259.713 130.292 259.671 130.121 259.694C128.616 259.334 127.09 259.064 125.552 258.886ZM126.231 260.379C127.049 260.492 127.862 260.633 128.67 260.8C127.89 261.474 127.11 262.14 126.317 262.787C126.311 261.984 126.283 261.181 126.231 260.379Z" fill="var(--illustration-currentColor)"/>
<path fill-rule="evenodd" clip-rule="evenodd" d="M188.738 251.785C184.746 253.201 180.639 254.266 176.462 254.967C172.602 255.625 168.711 256.089 164.805 256.358C164.219 256.404 163.633 256.441 163.047 256.478C162.177 256.534 161.302 256.58 160.433 256.622C146.169 257.321 131.873 256.421 117.81 253.939C116.824 253.767 115.819 253.576 114.949 253.078C114.875 253.038 114.803 252.993 114.735 252.943C113.911 252.405 113.269 251.63 112.893 250.72C112.046 248.804 112.088 246.301 112.443 244.147C112.72 242.404 113.174 240.692 113.796 239.04C114.945 236.068 116.763 233.444 119.582 232.086L119.568 231.932C127.553 231.304 135.663 231.316 143.772 231.326C153.445 231.339 163.116 231.352 172.57 230.281C172.74 230.357 172.941 230.365 173.127 230.286C178.093 228.179 183.625 227.812 188.825 229.243C189.197 229.346 189.581 229.127 189.683 228.756C189.785 228.384 189.567 228 189.196 227.898C183.692 226.383 177.837 226.772 172.582 229.001C172.158 223.741 172.006 218.463 172.127 213.187L172.294 213.191C179.216 212.619 186.364 212.6 192.887 215.005C199.403 217.405 205.227 222.634 206.707 229.425C206.874 230.201 206.986 230.987 207.041 231.779C207.335 235.854 206.083 240.068 203.399 243.147C201.925 244.836 200.073 246.152 198.157 247.32C195.172 249.115 192.017 250.611 188.738 251.785ZM133.916 236.258C133.759 236.053 133.503 235.952 133.25 235.993C132.995 236.034 132.785 236.212 132.701 236.455C132.166 238.013 131.315 239.462 130.407 240.942C130.336 241.041 130.283 241.152 130.252 241.27C130.215 241.409 130.209 241.554 130.234 241.696C130.241 241.733 130.25 241.77 130.262 241.805C130.39 242.169 130.695 242.31 130.877 242.358C131.048 242.403 131.209 242.398 131.301 242.391C133.263 242.263 135.23 242.243 137.193 242.328C137.579 242.345 137.904 242.047 137.921 241.661C137.934 241.357 137.751 241.09 137.484 240.983C137.46 240.913 137.424 240.845 137.377 240.783C136.223 239.275 135.069 237.766 133.916 236.258ZM133.558 238.087C134.272 239.021 134.986 239.954 135.7 240.888C134.478 240.869 133.256 240.89 132.035 240.951C132.582 240.038 133.117 239.088 133.558 238.087ZM186.629 235.077C186.808 234.922 186.904 234.681 186.861 234.43C186.796 234.051 186.435 233.795 186.055 233.86L179.646 234.958C179.448 234.991 179.274 235.108 179.169 235.279C179.064 235.45 179.037 235.658 179.096 235.85C179.291 236.487 179.687 236.973 180.058 237.365C180.196 237.51 180.343 237.655 180.48 237.79L180.48 237.79L180.481 237.79L180.542 237.851L180.594 237.902L180.614 237.922C180.792 238.099 180.951 238.263 181.089 238.429L181.089 238.429C181.61 239.057 181.918 239.817 182.271 240.687C182.339 240.855 182.409 241.028 182.482 241.204L183.423 239.813H183.424L182.482 241.204C182.676 241.669 183.008 242.434 183.738 242.802C183.927 242.897 184.148 242.902 184.34 242.815C184.532 242.728 184.675 242.56 184.728 242.356C185.361 239.929 185.995 237.503 186.629 235.077ZM184.28 238.548L185.091 235.441L180.857 236.166C180.922 236.244 180.993 236.323 181.071 236.405C181.191 236.531 181.313 236.651 181.445 236.781L181.445 236.781C181.494 236.83 181.545 236.88 181.597 236.932C181.782 237.115 181.98 237.317 182.163 237.538L185.091 235.441L182.163 237.538C182.735 238.226 183.11 239.049 183.423 239.813L184.28 238.548ZM184.28 238.548L183.424 239.813C183.479 239.947 183.532 240.08 183.584 240.21L183.585 240.212C183.639 240.346 183.691 240.476 183.743 240.602L184.28 238.548ZM198.49 226.548C198.503 226.301 198.383 226.066 198.177 225.93C197.97 225.793 197.707 225.777 197.485 225.886L193.647 227.773C193.449 227.871 193.309 228.055 193.269 228.272C193.228 228.488 193.292 228.711 193.442 228.873C194.041 229.522 194.73 230.082 195.488 230.536L195.488 230.536C195.625 230.618 195.751 230.69 195.869 230.758C196.094 230.886 196.294 231 196.495 231.14C196.78 231.338 196.971 231.528 197.084 231.745C197.262 232.086 197.684 232.218 198.025 232.04C198.367 231.861 198.499 231.439 198.32 231.098C198.302 231.062 198.282 231.027 198.262 230.993C198.338 229.511 198.414 228.029 198.49 226.548ZM197.035 227.662L196.928 229.76C196.781 229.671 196.633 229.586 196.496 229.507L196.494 229.507H196.494L196.424 229.467C196.346 229.421 196.271 229.378 196.205 229.339C195.835 229.117 195.483 228.865 195.155 228.587L197.035 227.662ZM156.651 246.316C156.839 246.44 156.956 246.647 156.964 246.872C157.035 248.706 157.029 250.539 156.947 252.37C156.943 252.459 156.923 252.543 156.889 252.62C156.88 252.719 156.85 252.817 156.797 252.909C156.603 253.242 156.176 253.355 155.843 253.161C154.385 252.313 152.97 251.401 151.572 250.498L150.262 249.652C150.041 249.51 149.919 249.256 149.946 248.995C149.973 248.733 150.144 248.509 150.389 248.415L156.016 246.247C156.226 246.166 156.463 246.192 156.651 246.316ZM155.588 251.386C155.623 250.226 155.627 249.065 155.6 247.903L152.171 249.224L152.329 249.325C153.416 250.027 154.494 250.723 155.588 251.386ZM167.174 241.145L166.041 239.006C166.321 239.054 166.618 239.121 166.942 239.194L167.055 239.22C167.402 239.298 167.781 239.381 168.181 239.428L167.174 241.145ZM170.213 238.517C170.29 238.832 170.14 239.15 169.867 239.297C169.854 239.328 169.839 239.358 169.822 239.388L167.746 242.93C167.618 243.148 167.382 243.28 167.129 243.275C166.876 243.269 166.646 243.127 166.527 242.904C165.765 241.466 165.003 240.029 164.242 238.592C164.135 238.39 164.133 238.148 164.239 237.945C164.344 237.741 164.542 237.602 164.769 237.573C165.63 237.463 166.482 237.658 167.19 237.819C167.226 237.827 167.261 237.835 167.296 237.843C167.318 237.848 167.34 237.853 167.362 237.858C168.158 238.038 168.783 238.148 169.37 238.005C169.744 237.913 170.122 238.143 170.213 238.517Z" fill="var(--illustration-currentColor)"/>
<path d="M106.89 153.156C106.416 154.796 105.943 156.435 105.469 158.074" stroke="var(--illustration-currentColor)" stroke-width="1.3956" stroke-linecap="round" stroke-linejoin="round"/>
<path d="M133.076 155.487C133.116 157.769 133.099 160.051 133.024 162.332L133.034 162.135" stroke="var(--illustration-currentColor)" stroke-width="1.3956" stroke-linecap="round" stroke-linejoin="round"/>
<path d="M127.981 155.53C128.052 157.769 128.09 160.008 128.098 162.248C128.105 162.197 128.113 162.146 128.121 162.095" stroke="var(--illustration-currentColor)" stroke-width="1.3956" stroke-linecap="round" stroke-linejoin="round"/>
<path d="M123.026 155.529C122.647 157.788 123.019 160.109 122.798 162.389C122.795 162.428 122.796 162.477 122.831 162.494C122.866 162.511 122.897 162.434 122.857 162.438" stroke="var(--illustration-currentColor)" stroke-width="1.3956" stroke-linecap="round" stroke-linejoin="round"/>
<path d="M118.305 155.405C118.354 157.73 118.374 160.056 118.363 162.383" stroke="var(--illustration-currentColor)" stroke-width="1.3956" stroke-linecap="round" stroke-linejoin="round"/>
<path d="M126.09 162.422C126.03 166.053 125.97 169.683 125.91 173.312" stroke="var(--illustration-currentColor)" stroke-width="1.3956" stroke-linecap="round" stroke-linejoin="round"/>
<path d="M100.304 199.083C99.8098 205.223 99.8464 211.394 100.414 217.527" stroke="var(--illustration-currentColor)" stroke-width="1.3956" stroke-linecap="round" stroke-linejoin="round"/>
<g opacity="0.1">
<path d="M115.032 157.621C115.152 158.759 115.725 161.052 114.462 161.717C113.828 162.051 112.899 162.069 112.196 162.161C111.113 162.303 110.03 162.446 108.949 162.608C104.809 163.202 100.72 164.11 96.718 165.324C89.0479 167.71 81.7585 171.38 76.0819 177.161C70.7581 182.582 67.0084 189.553 66.2986 197.178C65.5657 205.055 68.6908 213.326 75.8386 217.271C84.8059 222.219 95.107 219.641 104.288 216.811C108.271 215.583 106.572 209.311 102.561 210.546C95.44 212.741 87.1321 215.5 79.9027 212.156C73.8178 209.341 71.5927 202.476 72.4603 196.17C74.5048 181.337 88.7308 172.476 102.079 169.08C104.106 168.564 106.153 168.132 108.212 167.764C110.354 167.382 112.571 167.238 114.692 166.764C116.804 166.292 118.584 164.982 119.331 162.907C120.005 161.034 119.674 158.925 119.145 157.063C118.525 154.878 114.77 155.196 115.03 157.62L115.032 157.621Z" fill="var(--illustration-currentColor)"/>
</g>
<g opacity="0.1">
<path d="M187.903 73.9995C179.985 74.9169 175.18 83.2329 176.302 90.6948L179.686 87.3108C174.081 85.1721 168.807 90.6615 168.889 96.0624C168.99 102.584 174.406 106.709 179.479 109.749L180.263 103.756C175.541 104.555 171.571 108.175 170.103 112.694C168.575 117.396 170.176 122.842 173.757 126.172L175.209 120.672C169.368 122.26 165.693 128.753 167.49 134.572L170.663 130.407C165.245 129.767 158.687 130.04 155.666 135.439C152.621 140.88 156.405 146.226 160.305 149.929L163.52 144.405C160.188 143.637 157.137 145.582 156.006 148.751C154.917 151.803 156.32 154.899 157.84 157.52L159.021 153.017C157.451 153.868 156.147 155.138 155.253 156.685C154.36 158.232 153.913 159.996 153.96 161.782L159.556 159.464C156.436 157.039 152.188 156.499 148.902 159.017C146.074 161.184 144.821 165.272 146.172 168.62L149.332 164.472C145.481 164.783 141.982 166.285 139.256 169.06C136.311 172.058 140.912 176.666 143.87 173.674C145.309 172.158 147.25 171.216 149.332 171.026C151.203 170.88 153.37 169.008 152.492 166.878C152.076 165.869 151.964 164.997 152.737 164.29C153.263 163.81 154.368 163.67 154.918 164.101C155.98 164.933 157.176 165.361 158.5 164.779C159.093 164.532 159.6 164.117 159.958 163.584C160.316 163.051 160.511 162.425 160.516 161.783C160.479 160.392 161.045 159.39 162.341 158.702C163.918 157.865 164.383 155.691 163.522 154.199C163.068 153.412 162.156 152.203 162.209 151.23C162.261 150.294 162.612 150.977 161.761 150.78C164.847 151.497 167.481 147.613 164.976 145.257C163.39 143.764 159.876 140.692 161.556 138.417C163.424 135.888 167.862 136.66 170.66 136.99C172.783 137.24 174.408 134.686 173.833 132.824C173.116 130.501 174.424 127.708 176.955 127.02C179.282 126.387 180.236 123.221 178.407 121.52C176.468 119.717 175.557 116.997 176.437 114.442C177.283 111.986 179.517 110.506 182.003 110.082C184.902 109.588 185.034 105.432 182.787 104.088C179.907 102.366 176.231 100.442 175.093 97.0449C174.71 95.9004 174.549 94.5729 175.329 93.5628C176.069 92.6028 177.109 92.2239 178.221 92.6181C180.381 93.3828 181.935 91.1181 181.605 89.2341C180.691 84.0141 184.463 79.7334 188.909 77.7225C190.668 76.9266 189.839 73.7766 187.901 74.0025L187.903 73.9995Z" fill="var(--illustration-currentColor)"/>
</g>
<g opacity="0.1">
<path d="M204.886 123.809C203.332 123.751 201.771 125.342 200.773 126.41C199.518 127.771 198.528 129.356 197.854 131.081C197.25 132.714 196.99 134.455 197.089 136.193C197.188 137.932 197.644 139.631 198.43 141.186C201.604 147.421 211.215 148.483 214.767 141.988L209.116 141.249C209.635 143.202 210.74 144.95 212.283 146.255C213.826 147.56 215.732 148.361 217.744 148.55C221.014 148.837 226.641 146.267 225.772 142.195C225.62 141.485 224.772 140.788 224.023 140.863C222.846 140.981 222.181 141.671 221.122 142.058C220.248 142.394 219.317 142.558 218.38 142.541C216.696 142.435 215.487 141.171 215.08 139.605C214.416 137.055 210.723 136.551 209.428 138.866C208.819 139.956 207.478 140.382 206.327 140.227C204.841 140.027 203.717 138.884 203.111 137.407C202.314 135.469 202.643 133.524 203.21 131.583C203.549 130.424 204.19 129.361 204.74 128.294C205.298 127.214 206.229 126.427 206.208 125.132C206.201 124.783 206.059 124.451 205.813 124.205C205.566 123.958 205.234 123.816 204.886 123.809Z" fill="var(--illustration-currentColor)"/>
</g>
<g opacity="0.1">
<path d="M206.908 162.756L206.926 162.606C206.926 162.461 206.889 162.318 206.817 162.193C206.745 162.067 206.641 161.962 206.515 161.889C204.034 160.179 200.163 161.812 198.517 163.956C196.477 166.613 195.907 170.382 197.843 173.297C202.193 179.849 212.799 177.065 214.446 169.753L212.507 171.229C214.732 171.04 216.677 170.174 218.61 169.085C220.438 168.055 222.08 166.707 223.095 164.853C223.655 163.833 222.311 162.734 221.461 163.593C220.269 164.797 219.035 165.987 217.48 166.707C215.902 167.438 214.208 167.337 212.507 167.208C211.557 167.136 210.884 167.898 210.568 168.685C209.743 170.736 208.243 172.548 205.924 172.878C204.83 173.024 203.718 172.832 202.736 172.328C201.755 171.824 200.951 171.032 200.432 170.058C199.22 167.89 199.761 165.22 201.977 164.009C203.168 163.358 204.27 163.34 205.586 163.42C206.101 163.45 206.831 163.418 206.908 162.76V162.756Z" fill="var(--illustration-currentColor)"/>
</g>
<g opacity="0.1">
<path d="M162.206 96.7008C160 96.9003 158.986 98.1492 157.803 99.8913L158.443 99.3993C155.992 100.025 156.713 103.703 157.944 105.106C159.364 106.723 162.534 107.725 164.118 105.779C165.043 104.645 164.523 102.706 162.855 102.731C161.992 102.744 161.169 103.145 160.572 102.314C159.989 101.501 160.306 100.402 159.485 99.6738L159.799 100.431C159.889 99.231 161.602 98.0553 162.484 97.371C162.538 97.3155 162.574 97.2453 162.588 97.1694C162.603 97.0935 162.594 97.0152 162.565 96.9438C162.535 96.8727 162.486 96.8115 162.422 96.7677C162.358 96.7242 162.283 96.7002 162.206 96.6987V96.7008Z" fill="var(--illustration-currentColor)"/>
</g>
<g opacity="0.1">
<path d="M160.636 115.355C157.066 115.465 154.609 119.402 155.678 122.748C155.958 123.629 156.426 124.439 157.051 125.121C157.676 125.803 158.442 126.34 159.297 126.694C160.93 127.381 163.701 127.799 164.389 125.684C164.451 125.471 164.453 125.245 164.397 125.031C164.34 124.816 164.226 124.621 164.067 124.466C163.047 123.574 162.182 124.101 160.983 123.91C160.444 123.827 159.933 123.614 159.494 123.291C159.055 122.968 158.701 122.543 158.463 122.053C157.278 119.616 158.68 117.435 160.893 116.299C160.986 116.241 161.058 116.155 161.099 116.052C161.139 115.95 161.145 115.838 161.117 115.732C161.088 115.626 161.026 115.532 160.939 115.464C160.853 115.396 160.747 115.358 160.637 115.355H160.636Z" fill="var(--illustration-currentColor)"/>
</g>
<g opacity="0.1">
<path d="M58.1134 63.9243C53.9869 65.1285 50.0158 67.1913 46.2634 69.2592C42.4336 71.4021 38.9563 74.1213 35.953 77.3214C29.6258 84.066 25.0988 92.6586 24.4094 101.981C22.9532 121.678 36.172 139.017 54.1162 145.907C59.4784 147.965 65.3401 148.47 71.0464 148.457C73.9402 148.45 76.9681 147.881 79.8214 147.396C81.2317 147.205 82.6243 146.9 83.9854 146.485C85.3381 146.018 86.6407 145.336 87.9505 144.762C89.1568 144.234 88.2106 142.648 87.127 142.809C84.7324 143.164 82.2547 143.326 79.8415 143.569C77.5591 143.824 75.2563 143.833 72.9715 143.599C70.6 143.339 68.2777 143.329 65.9404 142.782C63.6892 142.279 61.4668 141.656 59.2822 140.915C51.5698 138.212 44.7883 134.246 39.3964 127.997C28.4975 115.364 26.7311 95.184 37.2085 81.7491C40.0165 78.1491 43.342 75.1338 46.8745 72.273C50.5066 69.333 54.496 67.2681 58.6006 65.0826C59.2345 64.7448 58.8001 63.7254 58.1128 63.9258L58.1134 63.9243Z" fill="var(--illustration-currentColor)"/>
</g>
<g opacity="0.1">
<path d="M121.223 155.174C122.157 154.127 121.921 152.878 121.921 151.54C121.921 149.996 121.833 148.427 121.935 146.885C122.128 143.979 122.244 141.073 122.398 138.161C122.548 135.335 122.622 132.428 123.465 129.703C123.87 128.525 124.419 127.403 125.101 126.361C125.689 125.39 126.537 124.554 127.029 123.541C127.104 123.406 127.143 123.254 127.142 123.099C127.141 122.944 127.1 122.793 127.023 122.659C126.946 122.525 126.836 122.413 126.703 122.333C126.57 122.255 126.419 122.211 126.264 122.208C123.764 122.088 121.701 124.695 120.777 126.731C119.475 129.599 119.164 132.726 118.968 135.837C118.761 139.1 118.482 142.452 118.691 145.721C118.803 147.467 118.833 149.206 118.888 150.957C118.933 152.367 118.695 154.127 119.771 155.173C119.965 155.363 120.226 155.469 120.497 155.469C120.769 155.469 121.029 155.363 121.223 155.173V155.174Z" fill="var(--illustration-currentColor)"/>
</g>
<defs>
<linearGradient id="paint0_linear_28_12850" x1="253.935" y1="98.7159" x2="253.935" y2="116.001" gradientUnits="userSpaceOnUse">
<stop stop-color="#FF9A34"/>
<stop offset="1" stop-color="#EB6421"/>
</linearGradient>
<linearGradient id="paint1_linear_28_12850" x1="209.8" y1="82.9746" x2="209.8" y2="93.9429" gradientUnits="userSpaceOnUse">
<stop stop-color="#FF9A34"/>
<stop offset="1" stop-color="#EB6421"/>
</linearGradient>
<linearGradient id="paint2_linear_28_12850" x1="214.63" y1="55.5408" x2="214.63" y2="102.181" gradientUnits="userSpaceOnUse">
<stop stop-color="#FF9A34"/>
<stop offset="1" stop-color="#EB6421"/>
</linearGradient>
<linearGradient id="paint3_linear_28_12850" x1="197.113" y1="52.692" x2="197.113" y2="94.5063" gradientUnits="userSpaceOnUse">
<stop stop-color="#FF9A34"/>
<stop offset="1" stop-color="#EB6421"/>
</linearGradient>
<linearGradient id="paint4_linear_28_12850" x1="201.49" y1="67.5315" x2="201.49" y2="80.97" gradientUnits="userSpaceOnUse">
<stop stop-color="#FF9A34"/>
<stop offset="1" stop-color="#EB6421"/>
</linearGradient>
<linearGradient id="paint5_linear_28_12850" x1="212.925" y1="12.0193" x2="212.925" y2="31.8351" gradientUnits="userSpaceOnUse">
<stop stop-color="#FF9A34"/>
<stop offset="1" stop-color="#EB6421"/>
</linearGradient>
<linearGradient id="paint6_linear_28_12850" x1="179.827" y1="47.8962" x2="179.827" y2="88.0752" gradientUnits="userSpaceOnUse">
<stop stop-color="#FF9A34"/>
<stop offset="1" stop-color="#EB6421"/>
</linearGradient>
<linearGradient id="paint7_linear_28_12850" x1="179.272" y1="187.594" x2="179.272" y2="211.013" gradientUnits="userSpaceOnUse">
<stop stop-color="#FF9A34"/>
<stop offset="1" stop-color="#EB6421"/>
</linearGradient>
<linearGradient id="paint8_linear_28_12850" x1="178.523" y1="251.783" x2="178.523" y2="276.018" gradientUnits="userSpaceOnUse">
<stop stop-color="#FF9A34"/>
<stop offset="1" stop-color="#EB6421"/>
</linearGradient>
<linearGradient id="paint9_linear_28_12850" x1="177.04" y1="56.6787" x2="177.04" y2="69.3216" gradientUnits="userSpaceOnUse">
<stop stop-color="#FF9A34"/>
<stop offset="1" stop-color="#EB6421"/>
</linearGradient>
<linearGradient id="paint10_linear_28_12850" x1="147.655" y1="49.3672" x2="147.655" y2="66.8341" gradientUnits="userSpaceOnUse">
<stop stop-color="#FF9A34"/>
<stop offset="1" stop-color="#EB6421"/>
</linearGradient>
<linearGradient id="paint11_linear_28_12850" x1="126.335" y1="155.09" x2="126.335" y2="162.579" gradientUnits="userSpaceOnUse">
<stop stop-color="#FF9A34"/>
<stop offset="1" stop-color="#EB6421"/>
</linearGradient>
<linearGradient id="paint12_linear_28_12850" x1="103.444" y1="229.881" x2="103.444" y2="262.816" gradientUnits="userSpaceOnUse">
<stop stop-color="#FF9A34"/>
<stop offset="1" stop-color="#EB6421"/>
</linearGradient>
<linearGradient id="paint13_linear_28_12850" x1="75.7371" y1="62.4282" x2="75.7371" y2="113.125" gradientUnits="userSpaceOnUse">
<stop stop-color="#FF9A34"/>
<stop offset="1" stop-color="#EB6421"/>
</linearGradient>
<linearGradient id="paint14_linear_28_12850" x1="106.739" y1="160.921" x2="106.739" y2="219.39" gradientUnits="userSpaceOnUse">
<stop stop-color="#FF9A34"/>
<stop offset="1" stop-color="#EB6421"/>
</linearGradient>
<linearGradient id="paint15_linear_28_12850" x1="63.9701" y1="34.3143" x2="63.9701" y2="51.9579" gradientUnits="userSpaceOnUse">
<stop stop-color="#FF9A34"/>
<stop offset="1" stop-color="#EB6421"/>
</linearGradient>
<linearGradient id="paint16_linear_28_12850" x1="59.947" y1="114.607" x2="59.947" y2="147.539" gradientUnits="userSpaceOnUse">
<stop stop-color="#FF9A34"/>
<stop offset="1" stop-color="#EB6421"/>
</linearGradient>
<linearGradient id="paint17_linear_28_12850" x1="144.689" y1="190.13" x2="144.689" y2="211.712" gradientUnits="userSpaceOnUse">
<stop stop-color="#FF9A34"/>
<stop offset="1" stop-color="#EB6421"/>
</linearGradient>
<linearGradient id="paint18_linear_28_12850" x1="256.636" y1="42.4807" x2="256.636" y2="65.6341" gradientUnits="userSpaceOnUse">
<stop stop-color="#FF9A34"/>
<stop offset="1" stop-color="#EB6421"/>
</linearGradient>
<linearGradient id="paint19_linear_28_12850" x1="34.8941" y1="160.945" x2="34.8941" y2="177.416" gradientUnits="userSpaceOnUse">
<stop stop-color="#FF9A34"/>
<stop offset="1" stop-color="#EB6421"/>
</linearGradient>
<linearGradient id="paint20_linear_28_12850" x1="241.901" y1="158.974" x2="241.901" y2="167.178" gradientUnits="userSpaceOnUse">
<stop stop-color="#FF9A34"/>
<stop offset="1" stop-color="#EB6421"/>
</linearGradient>
<linearGradient id="paint21_linear_28_12850" x1="242.045" y1="158.312" x2="242.045" y2="166.61" gradientUnits="userSpaceOnUse">
<stop stop-color="#FF9A34"/>
<stop offset="1" stop-color="#EB6421"/>
</linearGradient>
</defs>
</svg>
