<svg width="288" height="288" viewBox="0 0 288 288" fill="none" xmlns="http://www.w3.org/2000/svg">
<mask id="mask0_28_12834" style="mask-type:luminance" maskUnits="userSpaceOnUse" x="11" y="51" width="266" height="186">
<path d="M276.6 51.3H11.3999V236.7H276.6V51.3Z" fill="white"/>
</mask>
<g mask="url(#mask0_28_12834)">
<path fill-rule="evenodd" clip-rule="evenodd" d="M81.8055 205.747C81.8055 205.747 100.836 208.65 115.2 207.002C117.479 206.762 119.734 206.342 121.947 205.748C122.693 205.539 123.445 205.331 124.2 205.121C129.567 203.631 135.133 202.085 140.501 200.044C148.716 196.924 156.471 192.65 162.336 185.66C167.694 179.275 166.636 171.314 164.413 165.175H164.41C163.158 161.751 161.471 158.502 159.391 155.508C159.277 155.275 159.098 155.079 158.876 154.944C158.313 154.554 157.168 154.146 154.903 154.387C153.025 154.588 147.845 156.85 142.429 159.215C138.17 161.075 133.766 162.999 130.705 164.034C129.776 164.375 128.816 164.626 127.838 164.784C127.639 164.807 127.4 164.84 127.132 164.879L127.117 164.784L131.319 135.996L131.134 135.969C126.569 131.622 120.263 129.985 120.263 129.985C120.263 129.985 122.93 125.073 121.387 122.973C120.83 122.217 116.723 120.84 111.564 119.439C106.635 118.101 100.75 116.745 96.0861 115.89C92.0838 115.154 88.9785 114.788 88.1502 115.118C85.3458 116.241 86.0463 122.41 86.0463 122.41C86.0463 122.41 40.6809 116.03 32.7927 157.366C29.3715 175.288 38.133 186.764 49.1532 194.015C63.5499 203.485 81.8055 205.747 81.8055 205.747ZM59.868 150.916C59.7162 150.719 59.4336 150.682 59.2368 150.834C59.04 150.985 59.0031 151.268 59.1549 151.465C66.1551 160.554 75.9243 167.119 86.9859 170.164C98.0472 173.21 109.799 172.572 120.466 168.347C120.697 168.255 120.81 167.994 120.719 167.763C120.627 167.532 120.366 167.419 120.135 167.51C109.65 171.663 98.0976 172.291 87.2247 169.297C76.3518 166.303 66.7491 159.851 59.868 150.916Z" fill="url(#paint0_linear_28_12834)"/>
<path d="M221.378 225.415L246.199 81.5323L251.879 83.2132L233.879 183.772L226.426 225.415H221.378Z" fill="currentColor"/>
<path d="M234.278 92.1208L210.438 213.004L140.741 200.663L140.501 200.043C148.717 196.923 156.471 192.65 162.335 185.659C167.693 179.273 166.636 171.313 164.412 165.174L175.236 161.297C175.236 161.297 176.452 167.391 178.463 167.427C180.228 167.46 180.871 166.351 180.889 164.828L180.967 164.831C182.847 166.485 185.023 168.139 185.848 167.781C187.064 167.257 184.075 160.212 182.636 156.997H182.639C183.154 157.742 183.83 158.245 184.546 157.581C186.916 155.382 183.89 151.99 182.239 150.464C180.66 149.004 178.934 147.484 176.678 147.674L176.36 147.656C176.24 147.68 176.12 147.704 176 147.731L175.991 147.689L166.055 133.552C166.055 133.552 163.173 129.946 161.32 131.162C157.976 133.355 161.087 137.151 161.087 137.151L169.405 149.435L169.509 149.709C165.811 151.122 162.251 152.874 158.876 154.942C158.313 154.552 157.169 154.144 154.904 154.385C151.548 154.743 137.658 161.68 130.706 164.032L138.216 113.014L234.278 92.1208Z" fill="currentColor"/>
<path d="M132.062 75.9061C132 75.9298 131.955 75.9478 131.928 75.9568C131.921 75.9592 131.914 75.9622 131.907 75.9655C131.915 75.9634 131.921 75.9604 131.928 75.9568C131.955 75.9478 132 75.9328 132.062 75.9061ZM132.396 75.781C134.366 75.0538 141.691 72.4879 142.284 73.8886C143.056 75.7123 135.996 80.9482 131.135 80.0602C131.135 80.0602 110.835 76.2727 107.995 76.2727C105.155 76.2727 104.315 78.4807 104.315 78.4807L99.7911 98.9746C99.7911 98.9746 97.2669 102.425 94.6713 101.376C92.0757 100.328 95.4432 96.2569 95.4432 96.2569C95.4432 96.2569 90.8868 99.061 90.1836 96.8887C89.4804 94.7164 91.9386 93.4525 91.9386 93.4525C91.9386 93.4525 94.3914 91.2772 95.2317 89.4562C96.072 87.6352 99.0909 71.3644 104.139 69.8923C109.187 68.4202 117.039 69.4006 122.159 69.8923C127.28 70.384 129.52 61.5481 131.976 61.9684C134.399 62.3824 129.914 71.7607 129.803 71.9932C129.997 71.7934 136.634 64.999 138.568 65.9632C140.528 66.9481 135.48 74.5888 132.396 75.781Z" fill="currentColor"/>
<path d="M127.118 164.783L131.32 135.996L135.34 108.457L246.198 81.5323L221.378 225.415L132.816 203.748" stroke="currentColor" stroke-width="0.9" stroke-linecap="round" stroke-linejoin="round"/>
<path d="M221.378 225.415H226.426L233.879 183.772L251.879 83.2132L246.199 81.5323" stroke="currentColor" stroke-width="0.9" stroke-linecap="round" stroke-linejoin="round"/>
<path d="M49.1988 193.967L49.1541 194.015L12.0703 234.04L276.07 236.135L233.879 183.772" stroke="currentColor" stroke-width="0.9" stroke-linecap="round" stroke-linejoin="round"/>
<path d="M130.707 164.033L138.216 113.014L234.278 92.1208L210.438 213.004L140.74 200.663" stroke="currentColor" stroke-width="0.9" stroke-linecap="round" stroke-linejoin="round"/>
<path d="M64.6621 202.487L47.4106 222.891H123.771L115.201 207.002L115.147 206.903" stroke="currentColor" stroke-width="0.9" stroke-linecap="round" stroke-linejoin="round"/>
<path d="M96.2153 115.189L99.7913 98.9749L104.315 78.4799C104.315 78.4799 105.155 76.2719 107.995 76.2719C110.836 76.2719 131.136 80.0593 131.136 80.0593C131.136 80.0593 124.612 105.829 123.876 107.932C123.139 110.034 121.247 109.929 121.247 109.929C121.247 109.929 116.831 109.509 115.251 109.929C113.672 110.349 111.57 119.412 111.57 119.412" stroke="currentColor" stroke-width="0.9" stroke-linecap="round" stroke-linejoin="round"/>
<path d="M164.414 165.174C166.637 171.312 167.695 179.273 162.337 185.658C156.472 192.648 148.717 196.923 140.502 200.043C134.378 202.371 127.997 204.054 121.948 205.747C119.735 206.341 117.479 206.761 115.2 207.002C100.836 208.65 81.8055 205.747 81.8055 205.747C81.8055 205.747 63.5499 203.485 49.1532 194.014C38.133 186.764 29.3715 175.288 32.7927 157.366C40.6809 116.03 86.0463 122.41 86.0463 122.41C86.0463 122.41 85.3458 116.241 88.1502 115.118C88.9785 114.788 92.0838 115.153 96.0861 115.89C100.75 116.745 106.635 118.101 111.564 119.439C116.723 120.839 120.83 122.216 121.387 122.973C122.93 125.073 120.263 129.985 120.263 129.985C120.263 129.985 126.569 131.621 131.135 135.969" stroke="currentColor" stroke-width="0.9" stroke-linecap="round" stroke-linejoin="round"/>
<path d="M63.75 149.478C66.9744 159.154 78.8946 163.218 88.71 167.287C98.1123 171.182 121.026 165.815 127.132 164.879C127.4 164.84 127.639 164.807 127.838 164.784C128.816 164.626 129.776 164.375 130.705 164.034C137.657 161.682 151.547 154.745 154.903 154.387C157.168 154.146 158.312 154.554 158.876 154.944C159.098 155.079 159.276 155.275 159.391 155.508C161.471 158.502 163.158 161.751 164.409 165.175" stroke="currentColor" stroke-width="0.9" stroke-linecap="round" stroke-linejoin="round"/>
<path d="M60.2432 217.003H111.044" stroke="currentColor" stroke-width="0.9" stroke-linecap="round" stroke-linejoin="round"/>
<path d="M71.603 209.955L99.1358 211.323" stroke="currentColor" stroke-width="0.9" stroke-linecap="round" stroke-linejoin="round"/>
<path d="M88.4312 123.114L117.18 129.702" stroke="currentColor" stroke-width="0.9" stroke-linecap="round" stroke-linejoin="round"/>
<path d="M147.612 159.294C147.612 159.294 158.409 167.707 155.745 186.639" stroke="currentColor" stroke-width="0.9" stroke-linecap="round" stroke-linejoin="round"/>
<path d="M132.396 75.7814C134.366 75.0542 141.69 72.4883 142.284 73.889C143.055 75.7127 135.996 80.9486 131.135 80.0606" stroke="currentColor" stroke-width="0.9" stroke-linecap="round" stroke-linejoin="round"/>
<path d="M131.898 75.9685C131.902 75.9682 131.905 75.9673 131.907 75.9655C131.914 75.9622 131.921 75.9592 131.928 75.9568C131.955 75.9478 132 75.9298 132.062 75.9061" stroke="currentColor" stroke-width="0.9" stroke-linecap="round" stroke-linejoin="round"/>
<path d="M129.8 71.9966C129.8 71.9957 129.801 71.9948 129.801 71.9945C129.802 71.9939 129.802 71.9936 129.803 71.9936C129.997 71.7938 136.633 64.9994 138.567 65.9636C140.528 66.947 135.48 74.5877 132.396 75.7799C132.395 75.7808 132.393 75.7817 132.392 75.782C132.39 75.7826 132.388 75.7826 132.387 75.7826C132.312 75.8126 132.25 75.8363 132.196 75.8543C132.175 75.8633 132.16 75.8663 132.157 75.8693C132.127 75.8843 132.095 75.8963 132.062 75.905C132 75.9317 131.955 75.9467 131.928 75.9557C131.921 75.959 131.914 75.962 131.907 75.9644" stroke="currentColor" stroke-width="0.9" stroke-linecap="round" stroke-linejoin="round"/>
<path d="M99.7911 98.9746C99.7911 98.9746 97.2669 102.425 94.6713 101.376C92.0757 100.328 95.4432 96.2569 95.4432 96.2569C95.4432 96.2569 90.8868 99.061 90.1836 96.8887C89.4804 94.7164 91.9386 93.4525 91.9386 93.4525C91.9386 93.4525 94.3914 91.2772 95.2317 89.4562C96.072 87.6352 99.0909 71.3644 104.139 69.8923C109.187 68.4202 117.039 69.4006 122.159 69.8923C127.28 70.384 129.52 61.5481 131.976 61.9684C134.399 62.3824 129.914 71.7607 129.803 71.9932" stroke="currentColor" stroke-width="0.9" stroke-linecap="round" stroke-linejoin="round"/>
<path d="M127.118 82.6528C127.118 82.6528 121.948 79.0084 119.004 80.3404C116.06 81.6724 115.848 98.5009 115.848 98.5009L112.483 98.2207" stroke="currentColor" stroke-width="0.9" stroke-linecap="round" stroke-linejoin="round"/>
<path d="M110.94 105.722C110.94 105.722 106.452 106.002 105.4 102.146" stroke="currentColor" stroke-width="0.9" stroke-linecap="round" stroke-linejoin="round"/>
<path d="M110.939 85.8092L111.5 83.6366" stroke="currentColor" stroke-width="0.9" stroke-linecap="round" stroke-linejoin="round"/>
<path d="M122.159 88.4048L122.72 86.5811" stroke="currentColor" stroke-width="0.9" stroke-linecap="round" stroke-linejoin="round"/>
<path d="M230.884 154.475C230.524 156.385 228.983 157.7 227.442 157.41C225.901 157.121 224.942 155.334 225.302 153.42C225.663 151.507 227.207 150.193 228.747 150.485C230.288 150.777 231.245 152.562 230.884 154.475Z" stroke="currentColor" stroke-width="0.9" stroke-linecap="round" stroke-linejoin="round"/>
<path d="M230.163 144.737L229.727 144.665C229.466 144.624 229.216 144.533 228.99 144.395C228.765 144.257 228.568 144.076 228.413 143.862C228.257 143.649 228.145 143.406 228.084 143.149C228.022 142.892 228.011 142.626 228.053 142.365L231.25 122.109C231.333 121.582 231.623 121.11 232.054 120.796C232.485 120.482 233.024 120.352 233.551 120.434L233.989 120.506C234.25 120.547 234.5 120.639 234.726 120.777C234.951 120.915 235.147 121.096 235.303 121.309C235.458 121.523 235.57 121.765 235.632 122.022C235.694 122.279 235.705 122.545 235.664 122.806L232.466 143.062C232.382 143.589 232.092 144.061 231.661 144.375C231.229 144.69 230.69 144.819 230.163 144.737Z" stroke="currentColor" stroke-width="0.9" stroke-linecap="round" stroke-linejoin="round"/>
<path d="M222.858 188.376L222.42 188.308C221.893 188.224 221.421 187.934 221.108 187.502C220.794 187.07 220.665 186.531 220.749 186.004L223.946 165.75C223.987 165.489 224.08 165.238 224.218 165.013C224.356 164.788 224.536 164.592 224.75 164.437C224.964 164.282 225.206 164.17 225.463 164.109C225.72 164.047 225.986 164.037 226.247 164.078L226.685 164.146C227.212 164.23 227.684 164.519 227.998 164.95C228.312 165.382 228.442 165.92 228.36 166.447L225.159 186.702C225.118 186.963 225.026 187.213 224.889 187.439C224.751 187.664 224.57 187.861 224.356 188.016C224.142 188.172 223.9 188.284 223.643 188.345C223.386 188.407 223.119 188.418 222.858 188.376Z" stroke="currentColor" stroke-width="0.9" stroke-linecap="round" stroke-linejoin="round"/>
<path d="M180.968 164.831C182.849 166.485 185.024 168.139 185.85 167.781C187.065 167.257 184.077 160.212 182.637 156.997C182.208 156.037 181.917 155.417 181.917 155.417L181.279 154.538" stroke="currentColor" stroke-width="0.9" stroke-linecap="round" stroke-linejoin="round"/>
<path d="M175.992 147.69L166.056 133.552C166.056 133.552 163.174 129.946 161.321 131.162C157.977 133.356 161.088 137.152 161.088 137.152L169.406 149.436" stroke="currentColor" stroke-width="0.9" stroke-linecap="round" stroke-linejoin="round"/>
<path d="M176.68 147.675C178.935 147.484 180.661 149.004 182.24 150.465C183.89 151.991 186.916 155.382 184.547 157.581C183.832 158.246 183.155 157.742 182.64 156.997" stroke="currentColor" stroke-width="0.9" stroke-linecap="round" stroke-linejoin="round"/>
<path d="M158.877 154.943C162.252 152.874 165.812 151.123 169.51 149.71C171.618 148.881 173.788 148.218 176 147.73C176.122 147.703 176.24 147.679 176.36 147.656" stroke="currentColor" stroke-width="0.9" stroke-linecap="round" stroke-linejoin="round"/>
<path d="M169.155 153.683C169.155 153.683 177.869 149.358 179.83 151.871C180.413 152.697 180.857 153.613 181.144 154.582C182.194 157.774 182.494 162.077 181.165 162.766" stroke="currentColor" stroke-width="0.9" stroke-linecap="round" stroke-linejoin="round"/>
<path d="M167.915 158.481C167.915 158.481 176.099 154.72 178.059 157.232C178.965 158.389 180.104 160.662 180.619 162.769C180.791 163.442 180.882 164.134 180.889 164.828C180.871 166.351 180.229 167.46 178.464 167.427C176.454 167.391 175.236 161.297 175.236 161.297L164.414 165.174H164.411" stroke="currentColor" stroke-width="0.9" stroke-linecap="round" stroke-linejoin="round"/>
<path d="M43.2721 104.31C44.4385 106.214 45.1384 108.367 45.3151 110.593C45.4918 112.819 45.1402 115.055 44.2891 117.12C43.432 119.146 42.0241 121.017 40.0591 122.01C38.0941 123.002 35.5318 122.955 33.8413 121.546C32.1508 120.137 31.7278 117.295 33.2197 115.678C35.722 112.965 40.7755 116.198 40.6297 119.885C40.4839 123.573 37.1908 126.36 33.8401 127.905C30.4894 129.45 26.7492 130.305 23.8536 132.591C20.958 134.878 19.2708 139.386 21.5637 142.278C23.8566 145.169 30.0166 142.518 28.4523 139.176" stroke="currentColor" stroke-width="0.9" stroke-linecap="round" stroke-linejoin="round"/>
<path d="M138.812 59.5499L139.442 53.5547" stroke="currentColor" stroke-width="0.9" stroke-linecap="round" stroke-linejoin="round"/>
<path d="M145.098 63.9415L157.41 51.9565" stroke="currentColor" stroke-width="0.9" stroke-linecap="round" stroke-linejoin="round"/>
<path d="M149.225 71.2243C151.374 71.4412 153.544 71.1157 155.535 70.2778" stroke="currentColor" stroke-width="0.9" stroke-linecap="round" stroke-linejoin="round"/>
<path d="M115.217 128.02L116.355 123.116" stroke="currentColor" stroke-width="0.9" stroke-linecap="round" stroke-linejoin="round"/>
<path d="M108.36 126.342L109.764 121.434" stroke="currentColor" stroke-width="0.9" stroke-linecap="round" stroke-linejoin="round"/>
<path d="M101.053 124.234L102.175 119.466" stroke="currentColor" stroke-width="0.9" stroke-linecap="round" stroke-linejoin="round"/>
<path d="M94.3984 122.568L95.4877 117.653" stroke="currentColor" stroke-width="0.9" stroke-linecap="round" stroke-linejoin="round"/>
<path d="M88.5957 121.434L89.4372 117.087" stroke="currentColor" stroke-width="0.9" stroke-linecap="round" stroke-linejoin="round"/>
<path d="M123.549 144.429C123.484 143.268 123.054 142.157 122.321 141.255" stroke="currentColor" stroke-width="0.9" stroke-linecap="round" stroke-linejoin="round"/>
<path d="M104.801 138.066L107.335 136.186" stroke="currentColor" stroke-width="0.9" stroke-linecap="round" stroke-linejoin="round"/>
<path d="M110.52 152.001C109.775 152.896 108.841 153.614 107.785 154.105" stroke="currentColor" stroke-width="0.9" stroke-linecap="round" stroke-linejoin="round"/>
<path d="M97.4771 163.571L95.3735 160.836" stroke="currentColor" stroke-width="0.9" stroke-linecap="round" stroke-linejoin="round"/>
<path d="M86.1182 148.636L88.6424 146.953" stroke="currentColor" stroke-width="0.9" stroke-linecap="round" stroke-linejoin="round"/>
<path d="M86.5384 135.173L84.0142 131.386" stroke="currentColor" stroke-width="0.9" stroke-linecap="round" stroke-linejoin="round"/>
<path d="M67.1821 140.64L69.5581 137.96" stroke="currentColor" stroke-width="0.9" stroke-linecap="round" stroke-linejoin="round"/>
<path d="M53.7556 142.295L51.2524 139.541" stroke="currentColor" stroke-width="0.9" stroke-linecap="round" stroke-linejoin="round"/>
<path d="M48.6743 163.571L50.9882 160.626" stroke="currentColor" stroke-width="0.9" stroke-linecap="round" stroke-linejoin="round"/>
<path d="M46.7809 178.296L43.4746 176.18" stroke="currentColor" stroke-width="0.9" stroke-linecap="round" stroke-linejoin="round"/>
<path d="M70.3179 172.172L73.8075 168.722" stroke="currentColor" stroke-width="0.9" stroke-linecap="round" stroke-linejoin="round"/>
<path d="M64.6671 189.014C63.5313 188.359 62.5788 187.428 61.8975 186.307" stroke="currentColor" stroke-width="0.9" stroke-linecap="round" stroke-linejoin="round"/>
<path d="M84.4316 178.521C85.6787 178.792 86.7938 179.485 87.5882 180.483" stroke="currentColor" stroke-width="0.9" stroke-linecap="round" stroke-linejoin="round"/>
<path d="M104.045 179.37L106.128 175.152" stroke="currentColor" stroke-width="0.9" stroke-linecap="round" stroke-linejoin="round"/>
<path d="M100.205 193.658C99.0441 192.589 97.5753 191.914 96.0078 191.729" stroke="currentColor" stroke-width="0.9" stroke-linecap="round" stroke-linejoin="round"/>
<path d="M80.0176 201.435L82.5418 197.859" stroke="currentColor" stroke-width="0.9" stroke-linecap="round" stroke-linejoin="round"/>
<path d="M110.048 200.137L113.473 195.341" stroke="currentColor" stroke-width="0.9" stroke-linecap="round" stroke-linejoin="round"/>
<path d="M123.505 185.972L119.79 183.949" stroke="currentColor" stroke-width="0.9" stroke-linecap="round" stroke-linejoin="round"/>
<path d="M131.413 173.503L134.09 169.468" stroke="currentColor" stroke-width="0.9" stroke-linecap="round" stroke-linejoin="round"/>
<path d="M145.65 180.189C145.029 179.308 144.146 178.645 143.126 178.296" stroke="currentColor" stroke-width="0.9" stroke-linecap="round" stroke-linejoin="round"/>
<path d="M134.54 193.886L137.475 189.042" stroke="currentColor" stroke-width="0.9" stroke-linecap="round" stroke-linejoin="round"/>
<path d="M58.1268 114.288L55.8867 111.48" stroke="currentColor" stroke-width="0.9" stroke-linecap="round" stroke-linejoin="round"/>
<path d="M55.1401 114.627C56.4838 113.6 57.7021 112.419 58.7701 111.108" stroke="currentColor" stroke-width="0.9" stroke-linecap="round" stroke-linejoin="round"/>
<path d="M122.089 61.8295L120.686 59.4454" stroke="currentColor" stroke-width="0.9" stroke-linecap="round" stroke-linejoin="round"/>
<path d="M119.835 61.676L122.485 59.5535" stroke="currentColor" stroke-width="0.9" stroke-linecap="round" stroke-linejoin="round"/>
<path d="M96.2849 69.4013L94.1816 66.8771" stroke="currentColor" stroke-width="0.9" stroke-linecap="round" stroke-linejoin="round"/>
<path d="M93.9985 69.4868C95.1115 68.6252 96.0715 67.5827 96.8392 66.4031" stroke="currentColor" stroke-width="0.9" stroke-linecap="round" stroke-linejoin="round"/>
<path d="M186.949 167.34C189.143 152.62 192.444 138.086 196.826 123.862L152.707 124.204L145.47 153.15" stroke="url(#paint1_linear_28_12834)" stroke-width="0.9" stroke-linecap="round" stroke-linejoin="round"/>
<path d="M147.002 124.481L161.693 111.812L172.871 120.872L183.306 112.892C183.973 112.382 184.732 111.844 185.567 111.932C186.249 112.004 186.811 112.48 187.325 112.933L204.701 128.274" stroke="url(#paint2_linear_28_12834)" stroke-width="0.9" stroke-linecap="round" stroke-linejoin="round"/>
<path d="M180.147 174.292C190.565 174.529 200.959 175.385 211.276 176.853" stroke="url(#paint3_linear_28_12834)" stroke-width="0.9" stroke-linecap="round" stroke-linejoin="round"/>
<path d="M209.488 144.43L208.043 140.843" stroke="url(#paint4_linear_28_12834)" stroke-width="0.9" stroke-linecap="round" stroke-linejoin="round"/>
<path d="M206.753 144.315L211.377 141.783" stroke="url(#paint5_linear_28_12834)" stroke-width="0.9" stroke-linecap="round" stroke-linejoin="round"/>
<path d="M212.725 115.466L210.151 110.231" stroke="url(#paint6_linear_28_12834)" stroke-width="0.9" stroke-linecap="round" stroke-linejoin="round"/>
<path d="M208.881 114.582C210.666 113.156 212.58 111.899 214.598 110.826L214.431 111.077" stroke="url(#paint7_linear_28_12834)" stroke-width="0.9" stroke-linecap="round" stroke-linejoin="round"/>
<path d="M23.6245 127.825L21.3145 125.086" stroke="currentColor" stroke-width="0.9" stroke-linecap="round" stroke-linejoin="round"/>
<path d="M20.9316 127.837L23.6703 125.317" stroke="currentColor" stroke-width="0.9" stroke-linecap="round" stroke-linejoin="round"/>
<path d="M37.4405 191.846C33.7178 188.126 31.2047 183.369 30.23 178.198" stroke="currentColor" stroke-width="0.9" stroke-linecap="round" stroke-linejoin="round"/>
<g opacity="0.1">
<path d="M129.923 78.5748C124.735 76.8534 119.417 75.5556 114.021 74.6934C111.483 74.292 108.956 74.3712 106.736 75.8247C104.722 77.1447 103.614 79.209 102.896 81.4407C101.196 86.7273 100.136 92.3007 98.9064 97.7127C98.2938 100.408 97.6899 103.106 97.1292 105.813C96.849 107.167 96.5733 108.521 96.3015 109.877C95.9907 111.43 95.4528 113.111 95.5515 114.698C95.7015 117.137 99.2769 118.598 100.531 116.048C101.648 113.777 101.883 110.966 102.421 108.499C102.968 105.992 103.515 103.484 104.077 100.979C105.222 95.8737 106.431 90.7827 107.704 85.7067C108.13 84.0009 108.355 81.6627 109.48 80.2323C110.569 78.8484 112.92 79.3623 114.405 79.6263C119.398 80.5137 124.401 81.573 129.465 81.9732C131.494 82.1334 131.691 79.164 129.925 78.5754L129.923 78.5748Z" fill="currentColor"/>
</g>
<g opacity="0.1">
<path d="M86.5687 115.391C84.9565 117.924 84.4114 121.08 83.6182 123.948L86.2795 121.922C76.6927 122.036 66.8443 122.088 57.8197 125.778C49.8076 129.055 43.2187 134.816 38.5948 142.113C33.6562 149.907 30.8098 159.681 31.9423 168.921C32.4955 173.436 33.8743 177.914 36.2443 181.821C38.4547 185.466 41.4121 188.663 44.5864 191.484C48.499 194.928 52.9441 197.714 57.7483 199.734C60.1558 200.766 62.5852 201.768 65.0503 202.654C67.5646 203.558 70.0993 204.593 72.8062 204.456C74.287 204.381 74.6797 202.605 73.5304 201.783C71.8012 200.548 69.8521 200.013 67.867 199.311C65.7253 198.587 63.6256 197.743 61.5784 196.783C57.7378 194.913 54.1009 192.649 50.7259 190.029C44.8306 185.439 40.1119 178.835 38.3098 171.522C34.5682 156.342 44.1952 139.156 57.7945 132.332C66.4627 127.982 76.7785 127.695 86.2795 127.44C86.8813 127.43 87.4642 127.228 87.943 126.863C88.4218 126.499 88.7716 125.991 88.9411 125.413C89.6911 122.528 90.8095 119.509 90.6829 116.503C90.6691 116.026 90.5017 115.565 90.2056 115.19C89.9095 114.814 89.5006 114.544 89.0395 114.42C88.5781 114.294 88.0888 114.321 87.6439 114.496C87.199 114.671 86.8219 114.984 86.5687 115.389V115.391Z" fill="currentColor"/>
</g>
<g opacity="0.1">
<path d="M171.307 147.648C170.182 145.464 168.337 143.559 166.994 141.488C166.31 140.433 165.659 139.357 165.04 138.261C164.48 137.269 164.05 136.331 163.097 135.669C162.414 135.194 161.492 135.831 161.489 136.592C161.484 137.907 162.269 139.022 162.921 140.124C163.561 141.207 164.233 142.27 164.937 143.313C166.315 145.353 167.781 147.698 169.749 149.206C170.727 149.956 171.774 148.555 171.307 147.648Z" fill="currentColor"/>
</g>
<g opacity="0.1">
<path d="M180.941 164.43C181.035 164.827 181.242 165.188 181.536 165.471C181.626 165.554 181.722 165.633 181.816 165.711C181.571 165.51 182.453 166.202 182.172 165.981C182.592 166.315 182.99 166.676 183.364 167.061C183.555 167.247 183.802 167.366 184.067 167.4C184.332 167.434 184.6 167.382 184.833 167.25C185.255 167.003 185.591 166.369 185.389 165.882C184.862 164.611 183.831 162.657 182.202 162.775C182.001 162.779 181.805 162.828 181.627 162.919C181.448 163.009 181.293 163.139 181.172 163.298C181.05 163.458 180.967 163.642 180.927 163.838C180.887 164.034 180.892 164.236 180.941 164.43L180.941 164.43Z" fill="currentColor"/>
</g>
</g>
<defs>
<linearGradient id="paint0_linear_28_12834" x1="99.1362" y1="114.996" x2="99.1362" y2="207.508" gradientUnits="userSpaceOnUse">
<stop stop-color="#FF9A34"/>
<stop offset="1" stop-color="#EB6421"/>
</linearGradient>
<linearGradient id="paint1_linear_28_12834" x1="171.148" y1="123.862" x2="171.148" y2="167.34" gradientUnits="userSpaceOnUse">
<stop stop-color="#FF9A34"/>
<stop offset="1" stop-color="#EB6421"/>
</linearGradient>
<linearGradient id="paint2_linear_28_12834" x1="175.852" y1="111.812" x2="175.852" y2="128.274" gradientUnits="userSpaceOnUse">
<stop stop-color="#FF9A34"/>
<stop offset="1" stop-color="#EB6421"/>
</linearGradient>
<linearGradient id="paint3_linear_28_12834" x1="195.712" y1="174.292" x2="195.712" y2="176.853" gradientUnits="userSpaceOnUse">
<stop stop-color="#FF9A34"/>
<stop offset="1" stop-color="#EB6421"/>
</linearGradient>
<linearGradient id="paint4_linear_28_12834" x1="208.765" y1="140.843" x2="208.765" y2="144.43" gradientUnits="userSpaceOnUse">
<stop stop-color="#FF9A34"/>
<stop offset="1" stop-color="#EB6421"/>
</linearGradient>
<linearGradient id="paint5_linear_28_12834" x1="209.065" y1="141.783" x2="209.065" y2="144.315" gradientUnits="userSpaceOnUse">
<stop stop-color="#FF9A34"/>
<stop offset="1" stop-color="#EB6421"/>
</linearGradient>
<linearGradient id="paint6_linear_28_12834" x1="211.438" y1="110.231" x2="211.438" y2="115.466" gradientUnits="userSpaceOnUse">
<stop stop-color="#FF9A34"/>
<stop offset="1" stop-color="#EB6421"/>
</linearGradient>
<linearGradient id="paint7_linear_28_12834" x1="211.74" y1="110.826" x2="211.74" y2="114.582" gradientUnits="userSpaceOnUse">
<stop stop-color="#FF9A34"/>
<stop offset="1" stop-color="#EB6421"/>
</linearGradient>
</defs>
</svg>
