<svg width="288" height="288" viewBox="0 0 288 288" fill="none" xmlns="http://www.w3.org/2000/svg">
<mask id="mask0_28_12841" style="mask-type:luminance" maskUnits="userSpaceOnUse" x="20" y="11" width="248" height="266">
<path d="M267.6 11.3999H20.3999V276.6H267.6V11.3999Z" fill="white"/>
</mask>
<g mask="url(#mask0_28_12841)">
<path fill-rule="evenodd" clip-rule="evenodd" d="M153.445 141.159C153.393 144.967 154.357 148.721 156.237 152.033C156.281 152.109 156.325 152.183 156.37 152.258C156.388 152.289 156.407 152.32 156.425 152.351C156.815 152.918 157.109 153.404 157.365 153.826C158.027 154.921 158.435 155.596 159.603 156.166C161.223 156.956 163.108 157.084 164.883 156.793C166.658 156.502 169.044 155.527 170.673 154.763C169.848 156.984 169.093 159.227 168.407 161.494C167.77 163.594 167.2 165.912 168.07 167.929C168.195 168.217 168.346 168.493 168.52 168.754C169.923 170.851 172.728 171.772 175.248 172.458C176.942 172.917 178.72 173.376 180.452 173.35C181.252 173.348 182.046 173.219 182.805 172.966C185.443 172.063 187.183 169.605 188.708 167.269C192.673 161.191 196.427 154.934 199.193 148.223C201.958 141.512 203.724 134.308 203.591 127.05C203.513 122.76 202.702 118.315 200.175 114.84C199.269 113.6 198.168 112.514 196.915 111.625V111.622C193.69 109.309 189.545 108.214 185.507 108.342C185.036 108.354 184.565 108.386 184.101 108.435C178.093 109.051 172.558 112.058 167.805 115.785C162.3 120.096 157.53 125.578 155.093 132.129C154.014 135.018 153.457 138.076 153.445 141.159ZM196.704 114.445C196.524 114.285 196.249 114.301 196.089 114.481C195.929 114.661 195.945 114.936 196.125 115.096C199.047 117.697 200.5 121.682 200.826 125.66C201.153 129.642 200.466 133.64 199.77 137.65C199.728 137.887 199.887 138.112 200.124 138.153C200.361 138.195 200.587 138.036 200.628 137.799C201.322 133.807 202.032 129.7 201.695 125.589C201.357 121.472 199.848 117.243 196.704 114.445Z" fill="#171717"/>
<path fill-rule="evenodd" clip-rule="evenodd" d="M207.309 103.055C205.841 110.065 206.127 117.311 209.081 123.833C212.036 130.355 217.296 135.854 223.801 138.849C230.306 141.845 238.01 142.248 244.703 139.701L244.77 139.736C247.008 135.278 249.008 130.704 250.761 126.035C253.739 118.093 260.195 98.8496 256.284 90.2447C254.361 86.7875 250.613 85.3784 246.828 85.2479C242.749 85.1069 238.607 86.1338 234.746 87.3569C230.709 88.661 226.807 90.3497 223.093 92.4002C217.506 95.444 212.31 99.1247 207.304 103.047L207.309 103.055ZM254.065 91.9001C254.03 91.6619 253.809 91.4969 253.571 91.5311C253.333 91.5656 253.168 91.7867 253.202 92.0249C254.276 99.446 253.114 107.073 250.862 114.272C248.609 121.475 245.299 128.3 241.983 135.128C241.878 135.345 241.968 135.605 242.185 135.711C242.401 135.816 242.662 135.725 242.767 135.509C246.078 128.691 249.419 121.808 251.694 114.533C253.97 107.254 255.163 99.4904 254.065 91.9001Z" fill="url(#paint0_linear_28_12841)"/>
<path fill-rule="evenodd" clip-rule="evenodd" d="M186.724 221.924C189.446 214.914 190.215 207.259 189.855 199.74C188.218 200.786 186.564 201.801 184.894 202.785C177.469 207.162 169.727 210.979 161.734 214.205C157.981 215.724 154.157 217.261 150.227 218.287C150.076 218.447 149.928 218.607 149.78 218.767C150.271 225.948 146.648 233.272 140.637 237.234C140.471 237.344 140.304 237.451 140.136 237.559C139.435 238.007 138.733 238.457 138.168 239.064C137.468 239.817 137.006 240.889 137.282 241.879C137.625 243.117 138.943 243.793 140.17 244.183C144.753 245.65 149.712 245.191 154.48 244.526C154.532 244.519 154.584 244.511 154.636 244.504C154.693 244.495 154.75 244.487 154.808 244.48C160.952 243.605 167.172 242.338 172.538 239.23C179.115 235.418 183.973 229.012 186.724 221.924ZM184.783 218.988C184.869 218.763 184.756 218.511 184.531 218.425C184.306 218.339 184.055 218.452 183.969 218.677C179.506 230.356 168.349 239.211 155.961 240.906C155.723 240.939 155.556 241.159 155.589 241.397C155.621 241.635 155.841 241.802 156.079 241.77C168.783 240.031 180.206 230.965 184.783 218.988Z" fill="url(#paint1_linear_28_12841)"/>
<path fill-rule="evenodd" clip-rule="evenodd" d="M128.525 210.685C125.649 214.735 122.91 218.999 121.623 223.795C121.245 225.21 121.21 227.107 122.544 227.708C123.336 228.065 124.253 227.766 125.046 227.414C128.564 225.845 131.539 223.293 134.456 220.773C135.51 219.868 136.562 218.958 137.61 218.043C145.367 211.297 152.973 204.29 158.73 195.804C159.895 194.081 161.002 192.26 161.432 190.226C161.822 188.4 161.65 185.105 159.704 184.106C157.711 183.078 154.068 184.466 152.241 185.321C149.016 186.819 146.413 189.37 143.964 191.947C139.212 196.942 134.768 202.221 130.655 207.754C129.935 208.723 129.225 209.7 128.525 210.685ZM154.474 198.015C154.623 197.827 154.591 197.552 154.402 197.403C154.214 197.254 153.94 197.286 153.79 197.475C147.557 205.354 140.181 212.258 131.905 217.955C131.707 218.091 131.657 218.363 131.793 218.561C131.93 218.759 132.201 218.809 132.399 218.673C140.746 212.926 148.187 205.963 154.474 198.015Z" fill="url(#paint2_linear_28_12841)"/>
<path d="M185.507 108.33C185.202 107.758 184.893 107.168 184.588 106.567L184.888 106.417C185.991 104.849 187.42 103.538 189.076 102.574C190.732 101.61 192.577 101.015 194.485 100.83C196.393 100.644 198.318 100.873 200.129 101.501C201.94 102.129 203.594 103.141 204.977 104.467L205.187 104.728C204.075 105.62 202.97 106.521 201.873 107.43C200.237 108.784 198.61 110.146 196.992 111.517L196.917 111.622C193.692 109.309 189.546 108.214 185.508 108.342L185.507 108.33Z" fill="#171717"/>
<path d="M152.97 96.7599C152.11 96.4299 151.796 95.3568 151.61 94.4331L151.613 94.3896C152.328 94.413 153.033 94.2195 153.635 93.8346C154.44 93.3786 155.277 93.0939 155.503 92.2803H155.527C155.699 92.7753 155.918 93.2529 156.18 93.7068C156.31 93.9348 156.393 94.1865 156.424 94.4469C156.454 94.7073 156.433 94.9713 156.36 95.2233C156.25 95.4831 156.072 95.7081 155.843 95.874C155.609 96.0465 155.361 96.1983 155.1 96.3273C154.464 96.6642 153.738 97.0098 153.052 96.792C153.024 96.7842 152.996 96.7737 152.97 96.7599Z" fill="url(#paint3_linear_28_12841)"/>
<path d="M155.125 88.7622C155.245 89.7297 155.7 91.1445 155.54 92.109C155.53 92.1669 155.518 92.2239 155.502 92.2803C155.275 93.0939 154.439 93.3786 153.634 93.8346C153.032 94.2195 152.327 94.413 151.612 94.3896C151.486 94.3779 151.362 94.3545 151.24 94.3197C150.505 94.1049 149.968 93.4917 149.474 92.9079C149.163 92.5746 148.904 92.1966 148.704 91.7865C148.605 91.581 148.552 91.3566 148.549 91.1286C148.546 90.9006 148.593 90.6744 148.687 90.4665C148.923 90.1044 149.255 89.8149 149.647 89.6301C150.751 88.9821 151.853 88.3353 152.953 87.6894C153.412 87.4194 153.973 87.1431 154.453 87.3786C154.933 87.6141 155.058 88.2303 155.125 88.7622Z" fill="url(#paint4_linear_28_12841)"/>
<path d="M147.464 50.6265C148.024 50.3826 148.704 50.2431 149.224 50.5626C149.916 50.9898 149.965 51.9834 149.753 52.7646C149.044 55.3911 146.56 57.0324 144.155 58.3776C143.995 58.4676 143.835 58.5546 143.675 58.6419L133.687 64.1151C132.51 64.7601 131.214 65.559 130.936 66.8691C130.726 67.857 131.165 68.8563 131.601 69.7686C133.013 72.7086 134.519 75.6 136.118 78.4431L135.813 78.6147C135.66 79.2099 135.386 79.7676 135.009 80.253C134.599 80.7093 133.922 80.9853 133.359 80.7471C133.168 80.6562 133.01 80.5086 132.906 80.3244C132.803 80.1402 132.759 79.9284 132.78 79.7184C132.873 79.5684 132.956 79.4133 133.03 79.2537C132.889 79.3695 132.799 79.5366 132.78 79.7184C132.432 80.2884 131.94 80.7846 131.331 80.6394C131.108 80.5641 130.911 80.4279 130.762 80.2461C130.613 80.0643 130.518 79.8441 130.488 79.611C130.436 79.1436 130.439 78.6717 130.497 78.2049C130.617 75.8577 129.46 73.6584 128.434 71.5434C127.409 69.4284 126.454 67.0695 127.002 64.7832C127.476 62.7963 129.024 61.2216 130.752 60.135C132.48 59.0484 134.424 58.3572 136.257 57.4536C137.242 56.9685 138.332 56.1813 138.244 55.0887C138.148 53.9037 136.667 53.0583 136.87 51.8874C137.059 50.8074 138.654 50.5395 139.531 51.2019C140.409 51.8643 140.72 53.0205 140.981 54.0894C141.461 53.4648 141.428 52.605 141.551 51.8265C141.674 51.048 142.155 50.1675 142.943 50.1648C143.718 50.1588 144.218 51.0216 144.285 51.7944C144.352 52.5672 144.168 53.3631 144.369 54.1128C144.606 53.3442 145.005 52.6353 145.538 52.0341C146.072 51.4326 146.729 50.9526 147.464 50.6265Z" fill="#171717"/>
<path d="M142.51 76.5082C142.322 76.8412 142.205 77.2096 142.168 77.5906C142.13 77.9713 142.173 78.3556 142.292 78.7189C142.412 79.0822 142.607 79.4164 142.863 79.7002C143.12 79.9837 143.433 80.2108 143.783 80.3662L143.794 80.3923C143.141 80.7169 142.408 80.8489 141.682 80.773C140.175 80.593 138.821 79.2769 138.798 77.7574C138.786 76.9903 139.207 76.1335 139.962 75.9853C140.436 75.8923 140.91 76.0957 141.377 76.2148C141.745 76.3078 142.125 76.3459 142.504 76.3282L142.51 76.5082Z" fill="#171717"/>
<path d="M111.684 206.031C109.93 201.769 110.328 196.926 111.318 192.423C111.803 190.215 112.433 188.041 113.204 185.916C114.926 181.055 117.507 176.544 120.824 172.596C125.635 166.968 132.215 162.747 139.481 161.327C143.225 160.595 147.255 160.637 150.683 162.3C150.479 162.672 150.276 163.05 150.073 163.427C144.341 174.112 138.139 184.094 133.15 195.052L132.633 194.814C129.064 195.386 125.658 196.707 122.637 198.691C119.616 200.675 117.049 203.276 115.107 206.324C114.726 206.928 114.27 207.62 113.558 207.695C112.663 207.788 112.027 206.862 111.684 206.031Z" fill="url(#paint5_linear_28_12841)"/>
<path d="M149.006 132.057C148.454 132.758 147.898 133.452 147.336 134.141C142.423 140.171 137.228 145.955 131.75 151.493L131.727 151.496C128.616 152.014 125.476 152.343 122.326 152.483C122.759 149.326 123.192 146.169 123.627 143.013L123.837 142.902C129.944 138.356 135.567 133.449 140.579 127.72C142.206 125.864 143.772 123.938 145.216 121.933C147.163 119.278 148.837 116.432 150.21 113.438C152.55 108.23 153.76 102.413 152.97 96.7585C152.997 96.7723 153.025 96.7831 153.054 96.7906C153.74 97.0084 154.466 96.6628 155.102 96.3259C155.362 96.1969 155.61 96.0451 155.843 95.8726H156.093C160.195 101.61 160.422 109.442 158.249 116.153C156.348 122.02 152.832 127.194 149.006 132.057Z" fill="url(#paint6_linear_28_12841)"/>
<path d="M88.7599 127.366C89.4937 132.233 88.4167 137.201 85.7326 141.328L85.6834 141.296C85.5466 141.438 85.4101 141.577 85.2736 141.72C82.3657 139.274 77.6884 139.279 74.7862 141.729C73.8826 142.49 73.1533 143.446 72.2179 144.169C71.2825 144.892 70.039 145.38 68.9206 144.994C68.5021 144.825 68.1232 144.571 67.8082 144.248C67.4932 143.925 67.2487 143.54 67.0906 143.117C66.7792 142.271 66.5866 141.387 66.5185 140.488L65.8849 140.4C66.7153 140.225 67.4962 139.867 68.1712 139.353C68.8462 138.839 69.3988 138.181 69.7885 137.428C70.1782 136.674 70.3957 135.843 70.4248 134.995C70.4542 134.147 70.2946 133.303 69.9577 132.524H69.7369C67.93 130.003 62.9767 132.899 61.2394 136.094L60.8269 135.801C59.9089 134.782 59.2264 133.573 58.8277 132.261C58.4293 130.948 58.3243 129.564 58.5202 128.207C58.6432 127.178 59.0386 126.2 59.665 125.374C59.9815 124.965 60.3871 124.633 60.8512 124.404C61.3156 124.174 61.8259 124.054 62.3434 124.053C64.4497 124.131 65.8063 126.472 67.8574 126.966C68.0671 127.037 68.2909 127.056 68.5096 127.023C68.7283 126.99 68.9362 126.904 69.1153 126.775C69.5512 126.382 69.4753 125.697 69.4057 125.113C69.2287 123.647 69.3073 122.162 69.6382 120.723C69.763 120.177 69.9664 119.587 70.4605 119.323C71.3785 118.829 72.3748 119.811 72.9616 120.673C74.7397 123.302 76.5187 125.931 78.2983 128.56C78.6136 129.104 79.039 129.576 79.5475 129.946C80.0794 130.276 80.8258 130.353 81.3052 129.949C81.9763 129.388 81.7876 128.325 82.078 127.5C82.4905 126.326 83.9053 125.757 85.1428 125.902C86.3803 126.047 87.4786 126.73 88.5304 127.396L88.7599 127.366Z" fill="url(#paint7_linear_28_12841)"/>
<path d="M58.352 118.717C56.9573 119.739 58.1603 122.343 56.876 123.499C55.958 124.327 54.236 123.906 53.546 124.931C53.0405 125.683 53.456 126.706 53.267 127.592C53.0231 128.716 51.8 129.408 50.6495 129.434C49.5338 129.464 48.4766 129.01 47.4539 128.554C47.4023 126.476 47.6756 124.403 48.2639 122.409C49.6931 117.63 53.2985 113.601 57.7739 111.399C60.1004 110.269 62.6201 109.589 65.1995 109.395L65.2169 109.639C65.6615 111.475 66.1088 113.389 65.6933 115.231C65.2778 117.073 63.7133 118.804 61.8233 118.741C60.6353 118.702 59.3102 118.011 58.352 118.717Z" fill="url(#paint8_linear_28_12841)"/>
<path d="M132.78 79.7182C132.758 79.9282 132.802 80.14 132.906 80.3242C133.009 80.5084 133.167 80.656 133.358 80.7469C133.922 80.9851 134.598 80.7091 135.008 80.2528C135.385 79.7674 135.659 79.2097 135.813 78.6145" stroke="#171717" stroke-width="0.8715" stroke-linecap="round" stroke-linejoin="round"/>
<path d="M132.78 79.7184C132.872 79.5684 132.956 79.4133 133.03 79.2537C132.889 79.3698 132.799 79.5366 132.78 79.7184Z" stroke="#171717" stroke-width="0.8715" stroke-linecap="round" stroke-linejoin="round"/>
<path d="M142.85 89.3085C142.833 89.2821 142.812 89.2533 142.795 89.2269C140.418 85.7292 138.193 82.1346 136.119 78.4431C134.521 75.6021 133.015 72.7107 131.601 69.7686C131.166 68.8563 130.727 67.857 130.936 66.8691C131.215 65.559 132.511 64.7601 133.687 64.1151L143.675 58.6419C143.835 58.5546 143.995 58.4676 144.155 58.3776C146.561 57.0324 149.045 55.3911 149.753 52.7646C149.965 51.9846 149.916 50.9898 149.225 50.5626C148.705 50.2431 148.025 50.3826 147.464 50.6265C146.73 50.9526 146.073 51.4326 145.539 52.0341C145.005 52.6356 144.607 53.3442 144.37 54.1128C144.17 53.3628 144.356 52.5672 144.286 51.7944C144.216 51.0216 143.719 50.1588 142.944 50.1648C142.156 50.1675 141.677 51.0477 141.552 51.8265C141.427 52.6053 141.462 53.4648 140.982 54.0894C140.721 53.0205 140.407 51.867 139.533 51.2019C138.658 50.5368 137.06 50.8068 136.872 51.8874C136.668 53.0574 138.15 53.9037 138.246 55.0887C138.333 56.1813 137.243 56.9685 136.258 57.4536C134.425 58.3572 132.482 59.0484 130.753 60.135C129.025 61.2216 127.476 62.7963 127.003 64.7832C126.457 67.0695 127.407 69.4287 128.436 71.5434C129.464 73.6581 130.617 75.8577 130.498 78.2049C130.44 78.6717 130.437 79.1436 130.489 79.611C130.519 79.8441 130.614 80.0643 130.763 80.2461C130.912 80.4279 131.109 80.5641 131.332 80.6394C131.942 80.7846 132.433 80.2881 132.782 79.7184" stroke="#171717" stroke-width="0.8715" stroke-linecap="round" stroke-linejoin="round"/>
<path d="M142.911 73.4926C143.58 73.5526 144.1 72.8215 144.079 72.1534C144.059 71.4853 143.673 70.8898 143.298 70.3348C141.973 68.374 140.648 66.4138 139.324 64.4548C140.585 63.3244 142.087 62.4967 143.716 62.0347" stroke="#171717" stroke-width="0.8715" stroke-linecap="round" stroke-linejoin="round"/>
<path d="M144.225 66.4478C144.053 65.8952 143.691 65.4209 143.205 65.1086" stroke="#171717" stroke-width="0.8715" stroke-linecap="round" stroke-linejoin="round"/>
<path d="M137.888 69.5103C137.583 69.0657 137.277 68.6202 136.97 68.1738" stroke="#171717" stroke-width="0.8715" stroke-linecap="round" stroke-linejoin="round"/>
<path d="M145.308 75.1079C144.562 75.8561 143.56 76.2923 142.504 76.3283C142.125 76.346 141.745 76.3079 141.377 76.2149C140.91 76.0949 140.436 75.8924 139.962 75.9854C139.207 76.1336 138.786 76.9904 138.798 77.7575C138.821 79.277 140.175 80.5928 141.682 80.7731C142.408 80.849 143.141 80.717 143.794 80.3924C144.509 80.0456 145.122 79.5191 145.572 78.8642" stroke="#171717" stroke-width="0.8715" stroke-linecap="round" stroke-linejoin="round"/>
<path d="M143.783 80.3663C143.433 80.2109 143.12 79.9838 142.863 79.7003C142.606 79.4165 142.412 79.0823 142.292 78.719C142.172 78.3557 142.13 77.9714 142.168 77.5904C142.205 77.2097 142.322 76.8413 142.51 76.5083" stroke="#171717" stroke-width="0.8715" stroke-linecap="round" stroke-linejoin="round"/>
<path d="M152.504 84.6109C151.595 83.4778 150.671 82.3186 150.163 80.959C149.654 79.5994 149.625 77.9728 150.444 76.7728C150.938 76.0552 151.714 75.5005 151.94 74.6608C152.167 73.8211 151.775 72.9469 151.391 72.1654C149.152 67.6042 146.911 63.0442 144.671 58.4854" stroke="#171717" stroke-width="0.8715" stroke-linecap="round" stroke-linejoin="round"/>
<path d="M141.116 94.0641C139.989 93.8112 139.64 92.2281 140.204 91.2201C140.744 90.2526 141.79 89.7063 142.795 89.2269L142.926 89.1669C146.122 87.6585 149.32 86.1504 152.52 84.6426C152.808 84.5061 153.092 84.3726 153.38 84.2361C154.315 83.7945 155.315 83.3412 156.343 83.469C157.372 83.5968 158.365 84.5526 158.124 85.5609C158.147 85.5114 158.168 85.4619 158.191 85.4154C158.255 85.2789 158.319 85.1424 158.38 85.0059" stroke="#171717" stroke-width="0.8715" stroke-linecap="round" stroke-linejoin="round"/>
<path d="M158.253 85.4445C167.085 83.2278 173.63 74.9193 175.196 65.9481C176.762 56.9769 173.909 47.6343 168.878 40.0461C168.087 38.8521 167.233 37.6761 166.771 36.3189C166.309 34.9617 166.301 33.3672 167.131 32.2023C167.329 31.9311 167.56 31.686 167.82 31.473C168.413 31.0176 169.056 30.6315 169.737 30.3225C171.846 29.2739 173.953 28.2252 176.059 27.1764C177.142 26.6364 178.226 26.097 179.31 25.5582C180.184 25.1223 181.152 24.672 182.104 24.8958C183.371 25.1922 184.065 26.5197 184.582 27.7137C189.532 39.1572 193.054 51.4737 192.548 63.9291C192.078 75.5061 187.784 87.2391 179.463 95.2146C178.83 95.8188 178.173 96.4056 177.494 96.9663" stroke="#171717" stroke-width="0.8715" stroke-linecap="round" stroke-linejoin="round"/>
<path d="M179.533 95.2871C180.931 98.9096 182.749 102.967 184.588 106.567C184.893 107.167 185.201 107.758 185.506 108.331" stroke="#171717" stroke-width="0.8715" stroke-linecap="round" stroke-linejoin="round"/>
<path d="M166.088 12.2325C167.898 11.0325 173.395 20.082 175.969 26.9925" stroke="#171717" stroke-width="0.8715" stroke-linecap="round" stroke-linejoin="round"/>
<path d="M161.983 15.1694C164.223 13.9694 168.229 20.5118 170.196 22.7111C168.465 19.3265 164.85 13.2003 166.088 12.2324" stroke="#171717" stroke-width="0.8715" stroke-linecap="round" stroke-linejoin="round"/>
<path d="M158.4 18.1502C159.45 17.4002 165.065 22.0409 167.59 24.7736C165.267 21.8601 160.5 16.0502 161.983 15.1694" stroke="#171717" stroke-width="0.8715" stroke-linecap="round" stroke-linejoin="round"/>
<path d="M167.867 31.1242C167.835 31.1299 167.8 31.1359 167.768 31.1386C164.775 31.6354 159.407 30.0784 159.674 28.2773C159.6 27.4501 164.272 27.6313 166.507 28.2629C163.417 25.8545 156.624 20.3636 158.181 18.2924C158.204 18.2624 158.227 18.2342 158.253 18.2051" stroke="#171717" stroke-width="0.8715" stroke-linecap="round" stroke-linejoin="round"/>
<path d="M90.2645 71.7729C91.5455 69.4518 93.1841 66.9765 93.8345 64.4055C93.9944 63.7635 93.974 62.8425 93.3245 62.7177C92.8685 62.6277 92.4878 63.0432 92.2088 63.4119L87.4499 67.3503C86.6453 62.3157 86.2958 53.067 83.7449 53.7177C81.5999 54.0003 84.0182 63.4119 84.0182 67.7667C83.2802 65.28 81.8765 62.622 80.6999 60.3126C79.5233 58.0032 77.6327 53.9385 76.3223 54.6792C74.3999 55.7658 78.9023 64.5102 81.4034 68.9724C79.0898 65.4384 76.2776 62.2575 73.0541 59.5278C72.5633 59.1126 71.8949 58.6878 71.3285 58.9878C70.8812 59.2233 70.7447 59.8302 70.8869 60.3126C71.0666 60.7854 71.3483 61.2132 71.7119 61.5648C75.4787 65.8122 78.7031 70.5108 81.3119 75.5529" stroke="#171717" stroke-width="0.8715" stroke-linecap="round" stroke-linejoin="round"/>
<path d="M141.288 94.1917C141.264 94.2061 141.238 94.2217 141.215 94.2325C134.426 98.2525 127.029 102.268 119.165 101.678C112.985 101.214 107.231 97.8172 103.213 93.0982C99.1949 88.3792 96.8072 82.4305 95.6333 76.3444C95.2382 74.2846 94.541 71.7337 92.4728 71.3764C91.7141 71.2912 90.947 71.4283 90.2648 71.7715V71.7745C90.0206 71.8792 89.7797 71.9953 89.5448 72.1087C86.8751 73.4014 84.2033 74.6959 81.5297 75.9928C80.9429 76.2745 80.3597 76.5592 79.772 76.8439C81.7796 84.1126 83.7956 91.4074 86.7677 98.3389C89.5913 104.919 93.4232 111.31 99.2015 115.537C105.668 120.264 114.102 121.833 122.053 120.868C129.174 120.006 135.945 117.243 142.145 113.606C142.869 113.181 143.583 112.746 144.289 112.298" stroke="#171717" stroke-width="0.8715" stroke-linecap="round" stroke-linejoin="round"/>
<path d="M149 132.043C149.003 132.049 149.003 132.052 149.006 132.057C150.236 134.967 151.862 138.306 153.213 141.156" stroke="#171717" stroke-width="0.8715" stroke-linecap="round" stroke-linejoin="round"/>
<path d="M142.211 113.72C143.115 116.547 144.079 119.063 145.099 121.85" stroke="#171717" stroke-width="0.8715" stroke-linecap="round" stroke-linejoin="round"/>
<path d="M155.502 92.2803C155.518 92.2239 155.531 92.1666 155.54 92.109C155.7 91.1445 155.244 89.7297 155.125 88.7622C155.058 88.2306 154.933 87.6147 154.451 87.3795C153.968 87.1443 153.41 87.42 152.951 87.6903C151.851 88.3377 150.749 88.9848 149.645 89.631C149.254 89.8158 148.921 90.1053 148.685 90.4674C148.591 90.6753 148.544 90.9012 148.547 91.1292C148.55 91.3572 148.603 91.5819 148.702 91.7874C148.902 92.1975 149.161 92.5752 149.472 92.9088C149.966 93.4926 150.503 94.1058 151.238 94.3206C151.36 94.3551 151.485 94.3785 151.61 94.3905C152.325 94.4139 153.03 94.2204 153.632 93.8355C154.44 93.3786 155.276 93.0939 155.502 92.2803Z" stroke="#171717" stroke-width="0.8715" stroke-linecap="round" stroke-linejoin="round"/>
<path d="M151.609 94.4331C151.795 95.3568 152.109 96.429 152.969 96.7599C152.996 96.7737 153.024 96.7845 153.053 96.792C153.739 97.0098 154.465 96.6642 155.101 96.3273C155.361 96.1983 155.609 96.0465 155.842 95.874C156.071 95.7081 156.249 95.4831 156.359 95.2233C156.432 94.9713 156.453 94.7073 156.423 94.4469C156.392 94.1865 156.309 93.9348 156.179 93.7068C155.917 93.2529 155.698 92.7753 155.526 92.2803" stroke="#171717" stroke-width="0.8715" stroke-linecap="round" stroke-linejoin="round"/>
<path d="M152.949 96.606C152.957 96.6585 152.963 96.7077 152.969 96.7599C153.759 102.413 152.55 108.229 150.209 113.44C148.836 116.433 147.162 119.279 145.215 121.934C143.771 123.939 142.205 125.864 140.578 127.721C135.568 133.451 129.942 138.357 123.836 142.904" stroke="#171717" stroke-width="0.8715" stroke-linecap="round" stroke-linejoin="round"/>
<path d="M156.092 95.874C160.194 101.612 160.42 109.444 158.248 116.154C156.348 122.02 152.832 127.194 149.008 132.057C148.456 132.757 147.899 133.451 147.337 134.14C142.424 140.171 137.229 145.955 131.751 151.492" stroke="#171717" stroke-width="0.8715" stroke-linecap="round" stroke-linejoin="round"/>
<path d="M123.627 143.013C123.194 146.17 122.76 149.327 122.326 152.483C125.476 152.343 128.616 152.013 131.727 151.495" stroke="#171717" stroke-width="0.8715" stroke-linecap="round" stroke-linejoin="round"/>
<path d="M64.5425 148.035C64.5548 148.041 64.5674 148.046 64.5803 148.05C71.1545 150.726 79.2599 148.698 84.059 143.466C84.6719 142.798 85.2314 142.083 85.7324 141.327C88.4165 137.201 89.4935 132.233 88.7597 127.365C88.5635 126.054 88.2356 124.767 87.7805 123.522C85.3205 116.846 79.2743 111.71 72.3719 109.99C70.0298 109.406 67.6085 109.205 65.2019 109.394C62.6225 109.588 60.1031 110.268 57.7763 111.399C53.2997 113.601 49.6943 117.63 48.2663 122.409C47.6783 124.402 47.405 126.476 47.4563 128.553C47.6123 133.213 49.1126 137.728 51.7763 141.554V141.557" stroke="#171717" stroke-width="0.8715" stroke-linecap="round" stroke-linejoin="round"/>
<path d="M156.426 152.35C156.362 152.245 156.298 152.14 156.237 152.033C154.357 148.721 153.393 144.967 153.445 141.159C153.457 138.076 154.014 135.018 155.093 132.129C157.53 125.578 162.3 120.096 167.805 115.785C172.558 112.058 178.093 109.051 184.101 108.435C184.565 108.386 185.036 108.354 185.507 108.342C189.545 108.214 193.69 109.309 196.915 111.622V111.625C198.168 112.514 199.269 113.6 200.175 114.84C202.702 118.315 203.513 122.76 203.591 127.05C203.724 134.308 201.958 141.512 199.193 148.223C196.427 154.934 192.673 161.191 188.708 167.269C187.183 169.605 185.443 172.063 182.805 172.966C182.046 173.219 181.252 173.348 180.452 173.35C178.72 173.376 176.942 172.917 175.248 172.458C172.728 171.772 169.923 170.851 168.52 168.754C168.346 168.493 168.195 168.217 168.07 167.929C167.2 165.912 167.77 163.594 168.407 161.494C169.093 159.227 169.848 156.984 170.673 154.763C173.367 147.49 176.778 140.503 180.856 133.906" stroke="#171717" stroke-width="0.8715" stroke-linecap="round" stroke-linejoin="round"/>
<path d="M156.426 152.35C157.826 154.383 157.989 155.374 159.604 156.164C161.219 156.954 163.105 157.079 164.884 156.792C166.663 156.504 169.044 155.525 170.674 154.761" stroke="#171717" stroke-width="0.8715" stroke-linecap="round" stroke-linejoin="round"/>
<path d="M184.888 106.417C185.99 104.849 187.419 103.538 189.075 102.574C190.732 101.61 192.577 101.015 194.484 100.829C196.392 100.644 198.317 100.873 200.128 101.501C201.939 102.129 203.593 103.14 204.977 104.467" stroke="#171717" stroke-width="0.8715" stroke-linecap="round" stroke-linejoin="round"/>
<path d="M256.284 90.2439C254.361 86.7867 250.614 85.3776 246.828 85.2471C242.748 85.1046 238.608 86.133 234.745 87.3561C230.708 88.6605 226.806 90.3495 223.093 92.4003C217.506 95.445 212.309 99.1257 207.303 103.048C206.594 103.603 205.889 104.163 205.185 104.73C204.073 105.622 202.968 106.522 201.871 107.432C200.235 108.785 198.608 110.148 196.99 111.519" stroke="#171717" stroke-width="0.8715" stroke-linecap="round" stroke-linejoin="round"/>
<path d="M137.743 218.197C141.502 219.856 145.816 219.394 149.692 218.427C149.872 218.383 150.049 218.337 150.226 218.287C154.156 217.262 157.98 215.725 161.734 214.205C169.727 210.98 177.468 207.163 184.894 202.785C186.564 201.801 188.218 200.786 189.856 199.741C195.456 196.175 200.834 192.274 205.962 188.057C209.242 185.355 212.409 182.523 215.464 179.562C218.59 176.535 221.582 173.374 224.441 170.079C227.608 166.425 230.591 162.622 233.392 158.671C235.562 155.611 237.613 152.471 239.545 149.251C241.407 146.145 243.149 142.974 244.771 139.737C247.009 135.279 249.009 130.706 250.762 126.036C253.739 118.093 260.195 98.8498 256.284 90.2461" stroke="#171717" stroke-width="0.8715" stroke-linecap="round" stroke-linejoin="round"/>
<path d="M156.011 152.111C154.328 155.757 152.513 158.944 150.683 162.3C150.479 162.672 150.276 163.05 150.073 163.427C144.341 174.112 138.138 184.094 133.15 195.052C132.575 196.31 132.018 197.582 131.48 198.87C130.318 201.775 130.61 204.68 130.634 207.739" stroke="#171717" stroke-width="0.8715" stroke-linecap="round" stroke-linejoin="round"/>
<path d="M150.744 162.33C150.724 162.321 150.703 162.31 150.684 162.3C147.256 160.638 143.227 160.595 139.482 161.327C132.216 162.748 125.636 166.969 120.825 172.596C117.508 176.544 114.927 181.056 113.205 185.916C112.434 188.042 111.805 190.215 111.319 192.423C110.329 196.926 109.931 201.769 111.685 206.031C112.028 206.862 112.665 207.789 113.559 207.696C114.271 207.62 114.727 206.929 115.108 206.324C117.051 203.277 119.617 200.675 122.638 198.692C125.659 196.707 129.066 195.386 132.634 194.814" stroke="#171717" stroke-width="0.8715" stroke-linecap="round" stroke-linejoin="round"/>
<path d="M189.844 199.503C189.847 199.581 189.852 199.663 189.855 199.741C190.215 207.259 189.446 214.915 186.724 221.925C183.973 229.013 179.115 235.419 172.538 239.23C167.172 242.339 160.952 243.606 154.808 244.48C154.697 244.495 154.59 244.512 154.48 244.527C149.712 245.192 144.753 245.651 140.17 244.184C138.943 243.794 137.625 243.118 137.282 241.88C137.006 240.89 137.468 239.818 138.168 239.065C138.868 238.313 139.78 237.802 140.637 237.235C146.648 233.273 150.271 225.949 149.78 218.767C149.928 218.608 150.076 218.448 150.227 218.287C150.244 218.27 150.262 218.25 150.279 218.232" stroke="#171717" stroke-width="0.8715" stroke-linecap="round" stroke-linejoin="round"/>
<path d="M137.61 218.044C145.367 211.298 152.972 204.291 158.73 195.805C159.895 194.082 161.002 192.26 161.432 190.227C161.822 188.399 161.65 185.105 159.703 184.107C157.71 183.078 154.067 184.467 152.24 185.321C149.015 186.821 146.412 189.371 143.963 191.947C139.212 196.943 134.768 202.221 130.655 207.754C129.935 208.725 129.225 209.702 128.525 210.686C125.649 214.736 122.909 219 121.622 223.796C121.245 225.211 121.21 227.108 122.543 227.709C123.333 228.067 124.251 227.767 125.045 227.416C128.563 225.847 131.537 223.293 134.454 220.774C135.506 219.868 136.558 218.958 137.61 218.044Z" stroke="#171717" stroke-width="0.8715" stroke-linecap="round" stroke-linejoin="round"/>
<path d="M207.309 103.055C205.842 110.066 206.127 117.311 209.082 123.833C212.036 130.355 217.297 135.854 223.802 138.85C230.307 141.845 238.011 142.249 244.704 139.701" stroke="#171717" stroke-width="0.8715" stroke-linecap="round" stroke-linejoin="round"/>
<path d="M233.557 158.645L233.392 158.671C225.957 159.88 217.963 156.481 213.683 150.284C213.66 150.254 213.643 150.229 213.623 150.2" stroke="#171717" stroke-width="0.8715" stroke-linecap="round" stroke-linejoin="round"/>
<path d="M215.601 179.582C215.554 179.577 215.511 179.571 215.464 179.562C212.117 179.09 208.898 177.955 205.995 176.223C203.092 174.49 200.564 172.197 198.559 169.475" stroke="#171717" stroke-width="0.8715" stroke-linecap="round" stroke-linejoin="round"/>
<path d="M198.577 169.417C204.82 164.208 209.894 157.739 213.468 150.435" stroke="#171717" stroke-width="0.8715" stroke-linecap="round" stroke-linejoin="round"/>
<path d="M213.747 157.806C213.884 157.371 213.986 156.926 214.052 156.475C214.128 155.999 214.163 155.518 214.157 155.037" stroke="#171717" stroke-width="0.8715" stroke-linecap="round" stroke-linejoin="round"/>
<path d="M212.62 156.347C213.097 156.391 213.576 156.434 214.052 156.475C214.328 156.501 214.602 156.527 214.877 156.55" stroke="#171717" stroke-width="0.8715" stroke-linecap="round" stroke-linejoin="round"/>
<path d="M204.006 171.544C203.976 171.233 203.951 170.919 203.925 170.605C203.884 170.132 203.841 169.658 203.8 169.185" stroke="#171717" stroke-width="0.8715" stroke-linecap="round" stroke-linejoin="round"/>
<path d="M202.676 170.748C203.091 170.701 203.509 170.655 203.925 170.605C204.43 170.55 204.937 170.493 205.444 170.434" stroke="#171717" stroke-width="0.8715" stroke-linecap="round" stroke-linejoin="round"/>
<path d="M168.465 168.79C166.521 170.724 164.467 172.88 164.168 175.605C163.971 177.386 164.566 179.149 165.162 180.837C166.597 184.919 168.085 188.981 169.627 193.024C170.161 194.43 170.777 195.927 172.047 196.734C173.566 197.699 175.536 197.382 177.302 197.034C178.766 196.744 180.396 196.344 181.189 195.079C181.796 194.106 181.738 192.877 181.663 191.735C181.263 185.771 180.862 179.806 180.46 173.84" stroke="#171717" stroke-width="0.8715" stroke-linecap="round" stroke-linejoin="round"/>
<path d="M113.084 185.872C107.532 184.312 101.417 187.269 97.9659 191.889C94.5147 196.508 93.3174 202.449 93.0909 208.209C92.3709 204.299 87.8616 201.948 83.9196 202.491C79.9776 203.035 76.6653 205.754 74.1174 208.807C75.8403 205.513 74.0943 201.074 70.8318 199.29C67.5693 197.506 63.3318 198.136 60.2862 200.275C61.6827 198.666 62.5911 196.692 62.9052 194.584C63.219 192.477 62.9253 190.324 62.0586 188.377C61.1919 186.431 59.7879 184.772 58.0116 183.596C56.2353 182.419 54.1602 181.774 52.0299 181.735C53.5191 180.541 54.6891 178.996 55.4346 177.239C56.1804 175.482 56.4789 173.568 56.3034 171.667C56.1279 169.766 55.4838 167.939 54.4287 166.348C53.3736 164.758 51.9405 163.454 50.2578 162.552C52.9578 164.107 56.7099 162.204 57.7761 159.278C58.8423 156.353 57.7197 152.989 55.7223 150.6C58.4094 152.126 62.1687 151.356 64.0425 148.901C64.2483 148.635 64.4283 148.35 64.5801 148.049C65.8401 145.627 65.4282 142.376 63.4848 140.426C64.2777 140.588 65.0958 140.579 65.8848 140.4C66.7152 140.225 67.4961 139.868 68.1711 139.353C68.8464 138.839 69.3987 138.182 69.7884 137.428C70.1781 136.674 70.3956 135.843 70.425 134.995C70.4541 134.147 70.2945 133.303 69.9576 132.524" stroke="#171717" stroke-width="0.8715" stroke-linecap="round" stroke-linejoin="round"/>
<path d="M39.0181 220.353C33.9139 225.312 31.8424 233.202 33.9052 240.023C36.0259 247.028 42.3997 252.556 49.6336 253.66C56.8675 254.764 64.6036 251.391 68.7172 245.337C65.4403 251.877 70.6027 260.653 77.8072 261.908C85.0117 263.163 92.3908 257.71 94.3693 250.671C94.3171 258.387 101.446 265.409 109.162 265.24C116.878 265.071 123.691 257.745 123.302 250.034C125.71 257.321 133.862 262.201 141.422 260.891C148.982 259.58 155.006 252.231 154.82 244.564" stroke="#171717" stroke-width="0.8715" stroke-linecap="round" stroke-linejoin="round"/>
<path d="M39.0181 220.353C39.1633 220.228 39.3058 220.094 39.4381 219.955C39.2971 220.086 39.1546 220.216 39.0181 220.353Z" stroke="#171717" stroke-width="0.8715" stroke-linecap="round" stroke-linejoin="round"/>
<path d="M69.7367 132.525C67.9298 130.003 62.9765 132.9 61.2392 136.095C61.0112 136.506 60.8384 136.946 60.725 137.402C57.2912 136.147 53.2646 138.323 51.7745 141.554C51.314 142.521 51.1148 143.591 51.1964 144.659C49.7174 144.236 48.1418 144.299 46.7009 144.838C45.2603 145.377 44.0303 146.364 43.1924 147.654C42.3545 148.944 41.9525 150.469 42.0458 152.004C42.1388 153.54 42.7223 155.005 43.7099 156.184C40.7759 154.918 36.9899 156.158 35.3699 158.914C33.7499 161.67 34.5131 165.579 37.0499 167.528C32.7677 167.484 28.686 170.764 27.8028 174.951C26.9196 179.137 29.328 183.788 33.2627 185.479C22.7577 190.293 17.9091 204.592 23.3244 214.797C24.867 217.707 27.2028 220.329 30.2645 221.547C33.1445 222.695 36.7082 222.375 39.0206 220.353" stroke="#171717" stroke-width="0.8715" stroke-linecap="round" stroke-linejoin="round"/>
<path d="M80.4683 192.063C79.9796 192.312 79.565 192.684 79.2656 193.144C78.9662 193.603 78.7925 194.133 78.7622 194.68C78.7316 195.227 78.8453 195.773 79.0919 196.263C79.3385 196.753 79.7093 197.169 80.1674 197.47C80.6255 197.772 81.1544 197.948 81.7016 197.98C82.2488 198.013 82.7951 197.902 83.2859 197.657C83.7767 197.413 84.1946 197.044 84.4979 196.587C84.8015 196.131 84.9797 195.602 85.0148 195.055C85.0436 194.506 84.9284 193.958 84.68 193.467C84.4319 192.976 84.0593 192.558 83.5994 192.255C83.1398 191.953 82.6088 191.776 82.0595 191.742C81.5102 191.708 80.9615 191.819 80.4683 192.063Z" stroke="#171717" stroke-width="0.8715" stroke-linecap="round" stroke-linejoin="round"/>
<path d="M121.059 267.994C120.495 268.92 120.213 269.99 120.247 271.073C120.281 272.156 120.63 273.207 121.251 274.095C122.538 275.829 125.016 276.605 127.026 275.815C129.036 275.025 130.335 272.689 129.85 270.585C129.458 268.886 127.69 266.167 125.977 265.504C124.162 264.801 121.954 266.547 121.059 267.994Z" stroke="#171717" stroke-width="0.8715" stroke-linecap="round" stroke-linejoin="round"/>
<path d="M88.2629 268.041C88.0922 268.442 88.0106 268.875 88.0238 269.311C88.0367 269.747 88.1441 270.175 88.3385 270.565C88.628 271.06 89.0675 271.45 89.5931 271.68C90.119 271.909 90.704 271.965 91.2638 271.841C93.704 271.274 93.9638 268.34 92.7572 266.533C91.3451 264.415 88.9919 266.22 88.2629 268.041Z" stroke="#171717" stroke-width="0.8715" stroke-linecap="round" stroke-linejoin="round"/>
<path d="M88.5299 127.398C87.4781 126.732 86.3802 126.048 85.1424 125.904C83.9046 125.761 82.49 126.328 82.0775 127.502C81.7871 128.327 81.9758 129.392 81.3047 129.951C80.8247 130.355 80.0789 130.279 79.547 129.948C79.0385 129.579 78.6131 129.106 78.2978 128.563C76.5179 125.933 74.7389 123.304 72.9611 120.675C72.3743 119.812 71.378 118.83 70.46 119.325C69.9659 119.59 69.7625 120.179 69.6377 120.725C69.3068 122.164 69.2282 123.649 69.4052 125.115C69.4751 125.699 69.5507 126.385 69.1148 126.777C68.9357 126.907 68.7281 126.992 68.5091 127.025C68.2904 127.058 68.0666 127.039 67.8569 126.968C65.8058 126.475 64.4492 124.133 62.3429 124.055C61.8254 124.057 61.3151 124.177 60.8507 124.406C60.3866 124.635 59.981 124.967 59.6645 125.377C59.0381 126.202 58.6427 127.18 58.5197 128.209C58.3238 129.566 58.4288 130.951 58.8272 132.263C59.2259 133.575 59.9084 134.784 60.8264 135.803" stroke="#171717" stroke-width="0.8715" stroke-linecap="round" stroke-linejoin="round"/>
<path d="M66.5181 140.488C66.5862 141.387 66.7785 142.272 67.0902 143.117C67.2483 143.54 67.4928 143.925 67.8078 144.248C68.1228 144.571 68.5017 144.825 68.9202 144.994C70.0386 145.38 71.2851 144.895 72.2175 144.169C73.1499 143.442 73.8822 142.489 74.7858 141.729C77.688 139.279 82.3653 139.274 85.2732 141.72C85.4097 141.577 85.5462 141.438 85.683 141.296" stroke="#171717" stroke-width="0.8715" stroke-linecap="round" stroke-linejoin="round"/>
<path d="M47.356 128.51C47.3878 128.525 47.4226 128.54 47.4547 128.554C48.4774 129.01 49.5346 129.463 50.6503 129.434C51.8008 129.408 53.0239 128.716 53.2678 127.592C53.4565 126.706 53.0413 125.683 53.5468 124.931C54.2353 123.906 55.9579 124.327 56.8768 123.499C58.1611 122.343 56.9581 119.74 58.3528 118.717C59.3113 118.011 60.6361 118.702 61.8271 118.74C63.7171 118.804 65.2786 117.073 65.6971 115.23C66.1156 113.388 65.6653 111.474 65.2207 109.638" stroke="#171717" stroke-width="0.8715" stroke-linecap="round" stroke-linejoin="round"/>
<path d="M165.707 172.098L170.19 189.006C170.605 190.569 171.064 192.212 172.215 193.348C173.341 194.46 174.989 194.914 176.572 194.908C178.155 194.902 179.704 194.488 181.233 194.074" stroke="#171717" stroke-width="0.8715" stroke-linecap="round" stroke-linejoin="round"/>
<path d="M180.523 178.227C177.631 178.332 174.753 177.765 172.117 176.571" stroke="#171717" stroke-width="0.8715" stroke-linecap="round" stroke-linejoin="round"/>
<path d="M180.936 182.522C178.169 182.578 175.427 181.985 172.929 180.793" stroke="#171717" stroke-width="0.8715" stroke-linecap="round" stroke-linejoin="round"/>
<path d="M181.144 186.222C178.474 186.704 175.72 186.297 173.304 185.064" stroke="#171717" stroke-width="0.8715" stroke-linecap="round" stroke-linejoin="round"/>
<path d="M81.9351 84.1203L96.0444 79.3857" stroke="#171717" stroke-width="0.8715" stroke-linecap="round" stroke-linejoin="round"/>
<path d="M169.598 41.267L186.107 32.0486" stroke="#171717" stroke-width="0.8715" stroke-linecap="round" stroke-linejoin="round"/>
<path d="M107.218 125.67C104.253 125.73 101.319 125.067 98.6675 123.74C96.0164 122.412 93.728 120.46 92 118.05" stroke="#171717" stroke-width="0.8715" stroke-linecap="round" stroke-linejoin="round"/>
<path d="M119.598 135.547L120.939 132.063" stroke="#171717" stroke-width="0.8715" stroke-linecap="round" stroke-linejoin="round"/>
<path d="M118.498 133.482L122.29 134.307" stroke="#171717" stroke-width="0.8715" stroke-linecap="round" stroke-linejoin="round"/>
<path d="M113.904 72.7688L114.504 67.9736" stroke="#171717" stroke-width="0.8715" stroke-linecap="round" stroke-linejoin="round"/>
<path d="M111.735 69.9695L117.165 70.7732" stroke="#171717" stroke-width="0.8715" stroke-linecap="round" stroke-linejoin="round"/>
<path d="M119.85 57.1895L120.345 51.0332" stroke="#171717" stroke-width="0.8715" stroke-linecap="round" stroke-linejoin="round"/>
<path d="M117.467 53.6314C119.512 53.9329 121.592 53.9008 123.627 53.5369" stroke="#171717" stroke-width="0.8715" stroke-linecap="round" stroke-linejoin="round"/>
<path d="M70.9799 69.3806C70.0421 69.1583 69.2033 68.6333 68.5937 67.8869C67.9838 67.1402 67.637 66.2138 67.6064 65.2502" stroke="#171717" stroke-width="0.8715" stroke-linecap="round" stroke-linejoin="round"/>
<path d="M96.7837 67.5435C97.4374 66.6858 97.8268 65.6565 97.9045 64.581C97.9822 63.5055 97.7446 62.4306 97.2211 61.488" stroke="#171717" stroke-width="0.8715" stroke-linecap="round" stroke-linejoin="round"/>
<path d="M199.142 62.6702C199.679 60.6593 199.73 58.5497 199.292 56.5148C198.854 54.4802 197.94 52.5785 196.623 50.9663" stroke="#171717" stroke-width="0.8715" stroke-linecap="round" stroke-linejoin="round"/>
<path d="M264.72 134.124C261.538 138.14 259.593 142.976 257.79 147.772C256.864 150.232 255.954 152.745 255.797 155.369C255.641 157.993 256.337 160.786 258.222 162.617C260.106 164.449 263.322 164.998 265.417 163.412C267.512 161.827 267.598 158.05 265.312 156.752C263.234 155.573 260.446 156.897 259.238 158.959C258.03 161.021 257.997 163.545 258.082 165.933C258.181 168.713 258.392 171.487 258.717 174.255C259.013 176.782 259.399 179.387 258.705 181.835C258.011 184.283 255.882 186.54 253.339 186.455C250.796 186.37 248.771 182.978 250.459 181.075" stroke="#171717" stroke-width="0.8715" stroke-linecap="round" stroke-linejoin="round"/>
<path d="M238.15 178.62L236.92 173.083" stroke="#171717" stroke-width="0.8715" stroke-linecap="round" stroke-linejoin="round"/>
<path d="M234.168 177.437L240.009 175.273" stroke="#171717" stroke-width="0.8715" stroke-linecap="round" stroke-linejoin="round"/>
<path d="M109.878 155.847C108.996 155.182 107.976 154.725 106.893 154.51C105.809 154.294 104.691 154.326 103.623 154.604C102.554 154.881 101.561 155.396 100.719 156.11C99.8774 156.825 99.2075 157.721 98.7602 158.73C97.5452 161.471 98.1083 164.624 98.4539 167.603C98.7995 170.581 98.7869 173.935 96.7643 176.149C95.2286 177.829 92.8589 178.459 90.5969 178.717C89.1974 178.876 87.7103 178.908 86.4599 178.26C85.2095 177.611 84.3173 176.083 84.818 174.766C85.3187 173.449 87.5063 173.08 88.1294 174.344C88.3322 174.755 88.2266 175.399 87.7733 175.468C87.32 175.537 87.3647 174.555 87.7556 174.795" stroke="#171717" stroke-width="0.8715" stroke-linecap="round" stroke-linejoin="round"/>
<path d="M228.383 80.1761L227.75 75.5645" stroke="#171717" stroke-width="0.8715" stroke-linecap="round" stroke-linejoin="round"/>
<path d="M225.228 78.6303L230.765 78.0195" stroke="#171717" stroke-width="0.8715" stroke-linecap="round" stroke-linejoin="round"/>
<path d="M244.653 62.7003L246.069 65.2503C246.112 65.3271 246.131 65.4156 246.122 65.5032C246.113 65.5908 246.077 65.6736 246.02 65.7405C245.962 65.8074 245.886 65.8548 245.801 65.877C245.715 65.8989 245.625 65.8941 245.543 65.8635L242.808 64.8459C242.728 64.8162 242.641 64.8108 242.559 64.8303C242.476 64.8501 242.4 64.8936 242.342 64.956L240.354 67.0914C240.294 67.1559 240.215 67.2003 240.129 67.2189C240.043 67.2375 239.953 67.2294 239.872 67.1955C239.791 67.1613 239.722 67.1034 239.675 67.029C239.628 66.9546 239.604 66.8676 239.608 66.7797L239.73 63.8643C239.734 63.7791 239.712 63.6948 239.668 63.6222C239.624 63.5493 239.559 63.4914 239.482 63.4557L236.837 62.2257C236.757 62.1885 236.69 62.1279 236.646 62.0517C236.601 61.9755 236.582 61.8876 236.589 61.7997C236.596 61.7118 236.63 61.6284 236.686 61.5603C236.742 61.4925 236.818 61.4433 236.903 61.4199L239.713 60.6357C239.795 60.6126 239.868 60.5661 239.924 60.5016C239.98 60.4371 240.015 60.3573 240.025 60.273L240.379 57.3765C240.39 57.2889 240.427 57.207 240.486 57.1413C240.544 57.0756 240.622 57.0297 240.707 57.0093C240.793 56.9892 240.883 56.9955 240.965 57.0279C241.047 57.0603 241.117 57.117 241.165 57.1905L242.78 59.6205C242.827 59.6913 242.894 59.7468 242.973 59.7795C243.051 59.8122 243.138 59.8212 243.221 59.805L246.085 59.2464C246.171 59.2296 246.261 59.2398 246.341 59.2752C246.422 59.3109 246.489 59.37 246.535 59.4453C246.581 59.5203 246.603 59.6076 246.597 59.6955C246.592 59.7834 246.56 59.8674 246.505 59.9364L244.692 62.2227C244.64 62.2893 244.608 62.3706 244.6 62.4555C244.593 62.5404 244.612 62.6256 244.653 62.7003Z" fill="#171717"/>
<path d="M107.149 49.2465L107.795 51.0534C107.814 51.108 107.816 51.1671 107.801 51.2229C107.786 51.2787 107.754 51.3288 107.71 51.3657C107.665 51.4029 107.61 51.4257 107.553 51.4308C107.495 51.4359 107.437 51.4233 107.387 51.3945L105.722 50.4417C105.673 50.4138 105.617 50.4009 105.562 50.4048C105.506 50.4087 105.452 50.4291 105.408 50.4633L103.889 51.6357C103.843 51.6708 103.788 51.6912 103.73 51.6942C103.672 51.6969 103.615 51.6819 103.566 51.6513C103.517 51.6204 103.478 51.5754 103.456 51.5223C103.433 51.4692 103.427 51.4104 103.439 51.3537L103.831 49.4754C103.842 49.4205 103.837 49.3635 103.816 49.3116C103.795 49.2597 103.759 49.2153 103.713 49.1838L102.129 48.1017C102.081 48.069 102.044 48.0225 102.024 47.9682C102.003 47.9142 102 47.8551 102.014 47.799C102.028 47.7429 102.059 47.6922 102.102 47.6541C102.146 47.616 102.2 47.5923 102.258 47.586L104.165 47.3781C104.221 47.3718 104.273 47.3493 104.315 47.3133C104.358 47.2776 104.389 47.2296 104.405 47.1762L104.945 45.3351C104.961 45.2796 104.994 45.2304 105.039 45.1941C105.085 45.1578 105.14 45.1362 105.197 45.1323C105.255 45.1281 105.313 45.1419 105.362 45.1719C105.412 45.2016 105.452 45.2457 105.476 45.2985L106.262 47.0481C106.285 47.0991 106.323 47.1423 106.37 47.172C106.418 47.2017 106.473 47.2164 106.529 47.2149L108.447 47.1591C108.505 47.1573 108.562 47.1735 108.61 47.2053C108.659 47.2371 108.696 47.2827 108.718 47.3367C108.74 47.3904 108.744 47.4492 108.731 47.5059C108.718 47.5623 108.689 47.6133 108.646 47.6523L107.225 48.9423C107.183 48.9798 107.154 49.0287 107.141 49.083C107.127 49.137 107.13 49.194 107.149 49.2465Z" fill="#171717"/>
<path d="M48.1919 92.5349L50.0621 94.1189C50.1185 94.1666 50.159 94.2305 50.1779 94.3022C50.1971 94.3736 50.1938 94.4492 50.1683 94.5188C50.1431 94.5884 50.0972 94.6484 50.0366 94.691C49.9763 94.7336 49.904 94.7567 49.8302 94.757L47.3795 94.7693C47.3078 94.7696 47.2379 94.7912 47.1785 94.8314C47.1194 94.8713 47.0732 94.928 47.0462 94.9943L46.118 97.2623C46.0898 97.3307 46.0415 97.3892 45.9794 97.4294C45.9173 97.4696 45.8444 97.4897 45.7703 97.4873C45.6965 97.4846 45.6251 97.4594 45.5657 97.415C45.5066 97.3706 45.4625 97.3091 45.4394 97.2389L44.6702 94.9118C44.6477 94.844 44.6054 94.7843 44.5493 94.7402C44.4929 94.6961 44.4245 94.67 44.3534 94.6646L41.9093 94.4825C41.8355 94.4771 41.765 94.4492 41.7077 94.4024C41.6504 94.3556 41.6087 94.2926 41.5883 94.2215C41.5679 94.1504 41.5697 94.0748 41.5937 94.0046C41.6177 93.9347 41.6624 93.8738 41.7221 93.83L43.6973 92.3792C43.7549 92.3369 43.7987 92.2784 43.823 92.2112C43.8476 92.144 43.8515 92.0711 43.8347 92.0015L43.2527 89.621C43.235 89.549 43.2398 89.4737 43.2665 89.4044C43.2932 89.3354 43.3403 89.2763 43.4015 89.2349C43.463 89.1935 43.5356 89.1719 43.6094 89.1731C43.6835 89.1743 43.7552 89.198 43.8155 89.2412L45.8054 90.6716C45.8633 90.7133 45.9326 90.737 46.004 90.7394C46.0754 90.7418 46.1462 90.7229 46.2071 90.6854L48.2915 89.3954C48.3542 89.3564 48.4277 89.3375 48.5015 89.3414C48.5753 89.3456 48.6461 89.372 48.7046 89.4176C48.7628 89.4632 48.8057 89.5253 48.8276 89.5961C48.8492 89.6669 48.8489 89.7425 48.8264 89.813L48.0812 92.1479C48.059 92.216 48.0575 92.2895 48.0773 92.3582C48.0971 92.4272 48.137 92.4887 48.1919 92.5349Z" fill="#171717"/>
<path d="M235.946 198.818L236.591 200.624C236.611 200.679 236.613 200.738 236.598 200.794C236.583 200.85 236.551 200.9 236.507 200.937C236.462 200.974 236.408 200.997 236.35 201.002C236.292 201.007 236.234 200.995 236.184 200.966L234.519 200.013C234.47 199.985 234.414 199.972 234.359 199.976C234.303 199.98 234.249 200 234.205 200.035L232.686 201.207C232.64 201.242 232.585 201.263 232.527 201.265C232.469 201.268 232.412 201.253 232.363 201.223C232.314 201.192 232.276 201.147 232.253 201.094C232.23 201.04 232.224 200.982 232.236 200.925L232.626 199.047C232.637 198.992 232.632 198.935 232.611 198.883C232.591 198.831 232.555 198.787 232.508 198.755L230.924 197.673C230.876 197.64 230.84 197.594 230.819 197.54C230.799 197.485 230.795 197.426 230.809 197.37C230.823 197.314 230.854 197.264 230.898 197.226C230.942 197.188 230.996 197.164 231.053 197.157L232.961 196.949C233.016 196.943 233.068 196.921 233.111 196.885C233.154 196.849 233.185 196.801 233.201 196.747L233.741 194.906C233.757 194.851 233.79 194.801 233.835 194.765C233.88 194.729 233.935 194.707 233.993 194.703C234.051 194.699 234.108 194.713 234.158 194.743C234.208 194.773 234.247 194.817 234.271 194.869L235.058 196.619C235.081 196.67 235.119 196.714 235.166 196.743C235.214 196.773 235.269 196.788 235.325 196.786L237.242 196.73C237.3 196.729 237.357 196.745 237.406 196.777C237.454 196.808 237.492 196.854 237.514 196.908C237.535 196.961 237.54 197.02 237.527 197.077C237.514 197.133 237.484 197.184 237.441 197.223L236.02 198.513C235.979 198.551 235.95 198.6 235.937 198.654C235.924 198.709 235.927 198.765 235.946 198.818Z" fill="#171717"/>
<path d="M185.7 49.5303C185.753 48.0261 186.057 46.5417 186.603 45.1389" stroke="#171717" stroke-width="0.8715" stroke-linecap="round" stroke-linejoin="round"/>
<path d="M178.864 47.5804L176.826 46.8604" stroke="#171717" stroke-width="0.8715" stroke-linecap="round" stroke-linejoin="round"/>
<path d="M187.571 59.8418L184.563 58.3367" stroke="#171717" stroke-width="0.8715" stroke-linecap="round" stroke-linejoin="round"/>
<path d="M178.173 71.5445L180.201 69.2009" stroke="#171717" stroke-width="0.8715" stroke-linecap="round" stroke-linejoin="round"/>
<path d="M185.021 77.9528C184.389 77.0555 183.915 76.0571 183.62 75.0002" stroke="#171717" stroke-width="0.8715" stroke-linecap="round" stroke-linejoin="round"/>
<path d="M174.339 81.9301L176.799 81.1099" stroke="#171717" stroke-width="0.8715" stroke-linecap="round" stroke-linejoin="round"/>
<path d="M176.007 92.1767C175.779 91.1879 175.719 90.1676 175.83 89.1587" stroke="#171717" stroke-width="0.8715" stroke-linecap="round" stroke-linejoin="round"/>
<path d="M163.673 89.2876L166.138 89.0476" stroke="#171717" stroke-width="0.8715" stroke-linecap="round" stroke-linejoin="round"/>
<path d="M167.774 103.394L167.694 100.115" stroke="#171717" stroke-width="0.8715" stroke-linecap="round" stroke-linejoin="round"/>
<path d="M174.886 103.803C175.561 103.963 176.263 103.963 176.937 103.803" stroke="#171717" stroke-width="0.8715" stroke-linecap="round" stroke-linejoin="round"/>
<path d="M163.23 115.288L163.189 112.691" stroke="#171717" stroke-width="0.8715" stroke-linecap="round" stroke-linejoin="round"/>
<path d="M151.5 131.655L153.28 131.257" stroke="#171717" stroke-width="0.8715" stroke-linecap="round" stroke-linejoin="round"/>
<path d="M147.134 114.057V111.733" stroke="#171717" stroke-width="0.8715" stroke-linecap="round" stroke-linejoin="round"/>
<path d="M145.633 104.643L148.503 104.227" stroke="#171717" stroke-width="0.8715" stroke-linecap="round" stroke-linejoin="round"/>
<path d="M142.065 100.11L142.332 97.7856" stroke="#171717" stroke-width="0.8715" stroke-linecap="round" stroke-linejoin="round"/>
<path d="M136.196 106.12C135.309 106.22 134.412 106.087 133.592 105.735" stroke="#171717" stroke-width="0.8715" stroke-linecap="round" stroke-linejoin="round"/>
<path d="M129.671 114.48L130.851 111.453" stroke="#171717" stroke-width="0.8715" stroke-linecap="round" stroke-linejoin="round"/>
<path d="M123.617 107.108C122.657 107.027 121.725 106.737 120.889 106.257" stroke="#171717" stroke-width="0.8715" stroke-linecap="round" stroke-linejoin="round"/>
<path d="M112.735 113.948L114.171 111.178" stroke="#171717" stroke-width="0.8715" stroke-linecap="round" stroke-linejoin="round"/>
<path d="M109.355 106.853L107.193 104.506" stroke="#171717" stroke-width="0.8715" stroke-linecap="round" stroke-linejoin="round"/>
<path d="M97.0972 104.214L97.3708 101.479" stroke="#171717" stroke-width="0.8715" stroke-linecap="round" stroke-linejoin="round"/>
<path d="M99.5664 94.4789L96.8301 93.6653" stroke="#171717" stroke-width="0.8715" stroke-linecap="round" stroke-linejoin="round"/>
<path d="M89.1678 95.3273C89.2758 94.3166 89.1831 93.2945 88.8945 92.3198" stroke="#171717" stroke-width="0.8715" stroke-linecap="round" stroke-linejoin="round"/>
<path d="M95.167 84.8258L92.4355 83.0444" stroke="#171717" stroke-width="0.8715" stroke-linecap="round" stroke-linejoin="round"/>
<path fill-rule="evenodd" clip-rule="evenodd" d="M58.0116 183.596C56.2353 182.419 54.1605 181.774 52.0302 181.735V181.735C53.5191 180.54 54.6891 178.996 55.4349 177.239C56.1807 175.482 56.4789 173.567 56.3034 171.667C56.1279 169.766 55.4838 167.938 54.4287 166.348C53.4087 164.81 52.0356 163.54 50.4249 162.643C53.109 164.029 56.7291 162.14 57.7764 159.278C58.8456 156.355 57.7212 152.988 55.7226 150.6C58.41 152.126 62.169 151.356 64.0425 148.901C64.2483 148.635 64.4283 148.349 64.5801 148.049C65.8407 145.627 65.4282 142.376 63.4848 140.426C64.2774 140.588 65.0955 140.579 65.8848 140.4C66.7146 140.225 67.4955 139.867 68.1702 139.353C68.8452 138.839 69.3975 138.182 69.7872 137.428C70.1769 136.675 70.3944 135.844 70.4238 134.996C70.4532 134.149 70.2939 133.305 69.9576 132.526H69.7368C67.9293 130.004 62.9766 132.901 61.2393 136.096C61.0113 136.507 60.8382 136.947 60.7251 137.403C57.2913 136.148 53.2647 138.324 51.7746 141.555C51.3138 142.522 51.1146 143.592 51.1965 144.66C49.7172 144.236 48.1407 144.297 46.6992 144.836C45.2574 145.374 44.0268 146.361 43.188 147.652C42.3492 148.942 41.9469 150.467 42.0399 152.004C42.1329 153.54 42.7167 155.005 43.7052 156.185C40.7718 154.918 36.9828 156.161 35.3652 158.915C33.7476 161.669 34.509 165.579 37.0452 167.529C32.763 167.485 28.6799 170.762 27.7979 174.951C26.9159 179.14 29.3243 183.789 33.258 185.479C22.7528 190.293 17.9042 204.592 23.3195 214.798C24.8621 217.711 27.1979 220.331 30.2598 221.548C33.1389 222.694 36.7035 222.376 39.0159 220.354C33.9117 225.313 31.8402 233.203 33.903 240.025C36.0237 247.029 42.3948 252.558 49.6314 253.662C56.868 254.765 64.6014 251.393 68.715 245.338C65.4378 251.878 70.6002 260.651 77.805 261.909C85.0098 263.167 92.3886 257.711 94.3671 250.672C94.3149 258.388 101.444 265.41 109.16 265.241C116.876 265.073 123.689 257.746 123.299 250.036C125.709 257.322 133.86 262.205 141.419 260.892C148.979 259.579 155.004 252.232 154.818 244.566L154.806 244.481C154.785 244.484 154.764 244.487 154.742 244.49C154.721 244.493 154.7 244.496 154.678 244.499L154.635 244.505C154.583 244.513 154.531 244.521 154.478 244.528C149.711 245.193 144.752 245.652 140.168 244.185C138.942 243.796 137.623 243.119 137.28 241.881C137.004 240.891 137.469 239.818 138.167 239.066C138.727 238.461 139.429 238.012 140.128 237.565C140.298 237.456 140.468 237.347 140.636 237.236C146.646 233.274 150.269 225.95 149.778 218.768C149.914 218.62 150.053 218.472 150.191 218.325L150.226 218.288C150.048 218.338 149.871 218.384 149.691 218.428C145.816 219.395 141.502 219.857 137.742 218.198L137.609 218.044C136.557 218.958 135.505 219.868 134.454 220.774C131.537 223.293 128.562 225.847 125.044 227.416C124.251 227.767 123.333 228.067 122.543 227.709C121.209 227.108 121.244 225.211 121.622 223.796C122.909 219 125.648 214.736 128.524 210.686C129.224 209.702 129.934 208.725 130.654 207.754L130.634 207.74C130.63 207.26 130.62 206.785 130.609 206.312V206.311C130.553 203.769 130.499 201.32 131.479 198.871C132.017 197.583 132.575 196.311 133.15 195.053L132.633 194.815C129.064 195.386 125.657 196.708 122.636 198.692C119.615 200.676 117.049 203.277 115.106 206.325C114.725 206.929 114.269 207.621 113.558 207.696C112.663 207.789 112.027 206.863 111.684 206.032C109.929 201.77 110.328 196.927 111.318 192.424C111.803 190.216 112.433 188.042 113.203 185.917L113.083 185.873C107.531 184.313 101.417 187.271 97.965 191.89C94.5135 196.508 93.3165 202.45 93.09 208.21C92.37 204.3 87.8595 201.948 83.9199 202.492C79.9803 203.035 76.6656 205.754 74.1177 208.807C75.8421 205.513 74.0946 201.077 70.8321 199.29C67.5696 197.503 63.3312 198.137 60.2865 200.275C61.6827 198.666 62.5914 196.692 62.9052 194.584C63.219 192.477 62.9256 190.324 62.0586 188.377C61.1919 186.431 59.7882 184.772 58.0116 183.596ZM39.0159 220.354C39.1479 220.221 39.2871 220.093 39.4263 219.965L39.4266 219.964L39.4359 219.956C39.3036 220.096 39.1611 220.229 39.0159 220.354ZM111.549 220.955C109.419 218.707 106.352 217.071 103.181 217.374C100.325 217.648 97.5573 219.834 97.038 222.672C96.0648 221.838 94.8918 221.262 93.6264 221.003C92.0544 220.682 90.4212 220.869 88.9617 221.536C87.5025 222.202 86.2923 223.315 85.5063 224.714C84.72 226.113 84.3984 227.725 84.5874 229.318C84.6156 229.557 84.8325 229.728 85.0713 229.7C85.3104 229.671 85.4811 229.455 85.4526 229.216C85.2855 227.806 85.5702 226.379 86.2659 225.141C86.9616 223.903 88.0323 222.918 89.3238 222.328C90.6153 221.738 92.061 221.573 93.4521 221.857C94.8432 222.142 96.1083 222.86 97.065 223.909C97.1859 224.042 97.3761 224.087 97.5438 224.022C97.7115 223.958 97.8222 223.797 97.8228 223.617C97.8294 220.882 100.436 218.512 103.264 218.242C106.085 217.972 108.905 219.432 110.916 221.555C111.081 221.729 111.357 221.737 111.532 221.572C111.707 221.406 111.714 221.13 111.549 220.955ZM48.5994 213.846C48.7518 214.032 48.7248 214.306 48.5388 214.459C47.5191 215.296 46.7466 216.394 46.3041 217.636C45.8616 218.879 45.7659 220.219 46.0269 221.511C46.2879 222.804 46.8963 224.002 47.7861 224.975C48.6762 225.948 49.8147 226.661 51.0789 227.036C51.6567 227.208 52.3128 227.264 52.8786 227.155C53.4414 227.045 53.8722 226.783 54.102 226.352C54.1962 226.176 54.3978 226.087 54.5913 226.135C54.7851 226.183 54.9216 226.356 54.9222 226.556C54.9297 228.425 55.47 230.253 56.4804 231.825C57.4905 233.398 58.9281 234.649 60.6249 235.433C62.3214 236.217 64.2066 236.5 66.0588 236.25C67.9107 236 69.6531 235.226 71.0808 234.021C71.2647 233.865 71.5398 233.888 71.6949 234.072C71.8503 234.256 71.8272 234.531 71.6433 234.686C70.0887 235.999 68.1918 236.841 66.1755 237.114C64.1589 237.386 62.1066 237.078 60.2595 236.224C58.4121 235.371 56.8467 234.008 55.7469 232.296C54.8349 230.876 54.2742 229.265 54.105 227.595C53.7843 227.805 53.4183 227.938 53.0448 228.01C52.3158 228.151 51.516 228.075 50.8308 227.872C49.4148 227.451 48.1398 226.653 47.1432 225.563C46.1463 224.473 45.465 223.132 45.1725 221.684C44.8803 220.236 44.9874 218.736 45.4833 217.344C45.9789 215.953 46.8441 214.722 47.9859 213.785C48.1719 213.633 48.4467 213.66 48.5994 213.846ZM46.3209 184.56C46.0839 184.517 45.8571 184.674 45.8139 184.911C45.7707 185.147 45.9276 185.374 46.1643 185.418C46.878 185.548 47.5428 185.87 48.0879 186.349C48.633 186.827 49.0377 187.445 49.2588 188.137C49.4799 188.827 49.509 189.565 49.3431 190.272C49.1775 190.978 48.8229 191.626 48.3174 192.147C48.1989 192.269 48.162 192.448 48.2235 192.607C48.2847 192.766 48.4329 192.874 48.6027 192.885C49.6308 192.95 50.6181 193.313 51.4425 193.931C52.2672 194.548 52.8933 195.394 53.2443 196.362C53.5953 197.331 53.6559 198.381 53.4183 199.384C53.1807 200.386 52.6557 201.298 51.9072 202.006C51.7326 202.171 51.7248 202.447 51.8904 202.622C52.0557 202.797 52.3314 202.804 52.5063 202.639C53.3778 201.814 53.9895 200.752 54.2664 199.585C54.543 198.417 54.4725 197.194 54.0639 196.066C53.655 194.937 52.9254 193.953 51.9651 193.233C51.2223 192.677 50.3664 192.298 49.4625 192.119C49.8045 191.622 50.0526 191.063 50.1918 190.471C50.3937 189.611 50.358 188.712 50.0889 187.871C49.8195 187.03 49.3269 186.277 48.663 185.694C47.9994 185.111 47.1897 184.719 46.3209 184.56Z" fill="#171717"/>
</g>
<defs>
<linearGradient id="paint0_linear_28_12841" x1="231.977" y1="85.2347" x2="231.977" y2="141.38" gradientUnits="userSpaceOnUse">
<stop stop-color="#FF9A34"/>
<stop offset="1" stop-color="#EB6421"/>
</linearGradient>
<linearGradient id="paint1_linear_28_12841" x1="163.57" y1="199.74" x2="163.57" y2="245.155" gradientUnits="userSpaceOnUse">
<stop stop-color="#FF9A34"/>
<stop offset="1" stop-color="#EB6421"/>
</linearGradient>
<linearGradient id="paint2_linear_28_12841" x1="141.498" y1="183.742" x2="141.498" y2="227.869" gradientUnits="userSpaceOnUse">
<stop stop-color="#FF9A34"/>
<stop offset="1" stop-color="#EB6421"/>
</linearGradient>
<linearGradient id="paint3_linear_28_12841" x1="154.024" y1="92.2803" x2="154.024" y2="96.8601" gradientUnits="userSpaceOnUse">
<stop stop-color="#FF9A34"/>
<stop offset="1" stop-color="#EB6421"/>
</linearGradient>
<linearGradient id="paint4_linear_28_12841" x1="152.061" y1="87.2895" x2="152.061" y2="94.3917" gradientUnits="userSpaceOnUse">
<stop stop-color="#FF9A34"/>
<stop offset="1" stop-color="#EB6421"/>
</linearGradient>
<linearGradient id="paint5_linear_28_12841" x1="130.577" y1="160.874" x2="130.577" y2="207.702" gradientUnits="userSpaceOnUse">
<stop stop-color="#FF9A34"/>
<stop offset="1" stop-color="#EB6421"/>
</linearGradient>
<linearGradient id="paint6_linear_28_12841" x1="140.968" y1="95.8726" x2="140.968" y2="152.483" gradientUnits="userSpaceOnUse">
<stop stop-color="#FF9A34"/>
<stop offset="1" stop-color="#EB6421"/>
</linearGradient>
<linearGradient id="paint7_linear_28_12841" x1="73.7044" y1="119.19" x2="73.7044" y2="145.13" gradientUnits="userSpaceOnUse">
<stop stop-color="#FF9A34"/>
<stop offset="1" stop-color="#EB6421"/>
</linearGradient>
<linearGradient id="paint8_linear_28_12841" x1="56.6531" y1="109.395" x2="56.6531" y2="129.435" gradientUnits="userSpaceOnUse">
<stop stop-color="#FF9A34"/>
<stop offset="1" stop-color="#EB6421"/>
</linearGradient>
</defs>
</svg>
