<svg width="288" height="288" viewBox="0 0 288 288" fill="none" xmlns="http://www.w3.org/2000/svg">
<g clip-path="url(#clip0_28_12847)">
<mask id="mask0_28_12847" style="mask-type:luminance" maskUnits="userSpaceOnUse" x="0" y="0" width="288" height="288">
<path d="M288 0H0V288H288V0Z" fill="white"/>
</mask>
<g mask="url(#mask0_28_12847)">
<path fill-rule="evenodd" clip-rule="evenodd" d="M239.22 238.2L238.631 237.615C225.21 221.208 203.115 211.327 181.935 212.134L181.772 212.048C181.63 212.337 181.436 212.597 181.199 212.815C180.356 213.591 179.102 213.693 177.954 213.749L177.853 213.754C168.239 214.235 158.629 214.715 149.009 215.125L149.019 215.333C148.42 224.931 147.972 235.022 147.524 245.113C147.076 255.204 146.628 265.296 146.028 274.893L146.008 275.975C146.821 275.99 147.633 276 148.451 276C183.804 276 215.841 261.579 239.22 238.2ZM188.569 215.544C188.149 215.543 187.806 215.882 187.805 216.303C187.803 216.724 188.142 217.066 188.563 217.068C204.125 217.132 219.53 224.277 229.63 236.117C229.903 236.437 230.384 236.475 230.704 236.202C231.024 235.929 231.062 235.448 230.789 235.128C220.401 222.95 204.575 215.61 188.569 215.544Z" fill="url(#paint0_linear_28_12847)"/>
<path fill-rule="evenodd" clip-rule="evenodd" d="M181.774 212.048C182.282 211.057 182.241 209.768 182.16 208.615C181.955 205.797 181.748 202.979 181.541 200.161C181.449 198.922 181.298 197.551 180.368 196.728C179.489 195.951 178.2 195.916 177.021 195.926C172.51 195.953 167.998 195.982 163.483 196.012C153.525 196.078 143.562 196.165 133.599 196.378C130.603 196.438 127.608 196.555 124.617 196.768C122.861 196.89 121.107 197.047 119.356 197.24C116.385 197.575 113.176 198.154 111.16 200.363C109.291 202.41 108.895 205.411 109.057 208.178C109.149 209.773 109.438 211.438 110.21 212.809C110.468 213.267 110.784 213.688 111.15 214.064C113.185 216.11 116.421 216.19 119.305 216.13C129.211 215.907 139.114 215.551 149.011 215.125C158.624 214.715 168.225 214.235 177.831 213.755L177.956 213.749C179.104 213.693 180.358 213.591 181.2 212.815C181.437 212.596 181.632 212.337 181.774 212.048ZM178.818 199.45C178.793 199.03 178.432 198.711 178.012 198.736C177.592 198.761 177.272 199.123 177.298 199.543C177.522 203.247 177.748 206.952 177.973 210.657C177.998 211.076 178.359 211.396 178.779 211.371C179.199 211.345 179.519 210.984 179.493 210.564C179.268 206.86 179.043 203.155 178.818 199.45Z" fill="url(#paint1_linear_28_12847)"/>
<path d="M149.019 215.333C147.821 234.528 147.227 255.698 146.028 274.893L146.008 275.975C110.376 275.304 78.2522 259.98 55.2134 235.665L55.5587 235.335C69.1577 220.432 89.5406 211.982 109.69 212.891L110.208 212.81C110.465 213.267 110.781 213.688 111.147 214.064C113.184 216.11 116.418 216.191 119.303 216.131C129.21 215.907 139.112 215.552 149.009 215.125L149.019 215.333Z" fill="url(#paint2_linear_28_12847)"/>
<path d="M124.604 196.636C124.061 178.701 123.516 160.768 122.969 142.84C122.756 135.873 122.545 128.904 122.335 121.934C122.091 113.855 122.355 104.582 128.565 99.4129C134.725 94.2892 143.875 95.65 151.563 97.9147C160.978 100.692 170.133 104.404 179.721 106.522C181.793 106.979 183.895 107.36 186.018 107.634C193.706 108.639 201.571 108.284 208.706 105.384C210.757 104.551 212.794 103.464 214.166 101.718C215.537 99.976 216.101 97.4524 215.045 95.5024C214.09 93.7252 212.075 92.8111 210.134 92.2423C204.485 90.616 198.455 90.9235 193.001 93.1159C192.722 93.2275 192.448 93.3442 192.173 93.466" stroke="var(--illustration-currentColor)" stroke-width="1.5234" stroke-linecap="round" stroke-linejoin="round"/>
<path d="M122.39 142.855C121.426 147.386 118.87 151.422 115.185 154.23C113.835 155.256 112.001 156.114 110.493 155.332C109.203 154.656 108.725 153.057 108.543 151.615C107.945 146.713 109.197 141.765 112.053 137.736C110.565 139.62 108.985 141.58 106.782 142.525C104.578 143.47 101.567 142.992 100.455 140.87C99.5456 139.128 100.211 136.924 101.419 135.375C102.628 133.826 104.304 132.719 105.751 131.394C111.443 126.199 113.322 118.019 113.657 110.32C113.992 102.622 113.099 94.8224 114.541 87.2561C115.145 84.0926 116.349 80.7461 119.101 79.0754C121.579 77.5673 124.697 77.7854 127.591 77.999C136.711 78.6785 145.863 78.8378 155.002 78.4763C160.679 78.2528 167.204 77.3489 170.242 72.5453C171.405 70.7069 171.902 68.4725 173.263 66.7715C174.624 65.0756 177.493 64.2071 178.9 65.8676C179.966 67.1276 179.575 69.0008 179.509 70.646C179.443 72.296 180.311 74.4038 181.957 74.2565C183.252 74.1446 183.942 72.6923 184.262 71.4332C184.958 68.7215 185.171 65.8322 186.482 63.359C187.797 60.8861 190.727 58.9208 193.348 59.906C196.618 61.13 196.958 65.7509 195.668 68.996C194.379 72.2411 192.042 75.1859 191.87 78.6746C195.328 77.1917 197.948 74.2517 201.23 72.4136C204.51 70.5701 209.314 70.2401 211.457 73.3325C213.017 75.5771 212.437 78.7762 210.832 80.9902C209.228 83.1991 206.8 84.6413 204.444 86.0225C200.59 88.2824 196.736 90.5438 192.882 92.8067" stroke="var(--illustration-currentColor)" stroke-width="1.5234" stroke-linecap="round" stroke-linejoin="round"/>
<path d="M174.805 112.996C171.547 111.768 168.131 111.006 164.659 110.731C161.272 110.467 157.266 111.001 155.569 113.941C154.259 116.221 154.849 119.075 155.478 121.63C157.215 128.662 158.952 135.699 160.688 142.739C161.17 144.694 161.648 146.791 160.916 148.67C160.19 150.544 157.717 151.854 156.097 150.665" stroke="var(--illustration-currentColor)" stroke-width="1.5234" stroke-linecap="round" stroke-linejoin="round"/>
<path d="M145.272 122.558C144.616 122.005 143.85 121.598 143.024 121.366C142.198 121.132 141.333 121.079 140.484 121.207C139.636 121.336 138.825 121.645 138.106 122.113C137.387 122.581 136.776 123.196 136.314 123.919" stroke="var(--illustration-currentColor)" stroke-width="1.5234" stroke-linecap="round" stroke-linejoin="round"/>
<path d="M170.682 123.655C168.768 121.482 165.244 120.948 162.776 122.462" stroke="var(--illustration-currentColor)" stroke-width="1.5234" stroke-linecap="round" stroke-linejoin="round"/>
<path d="M147.009 165.32C145.782 165.817 144.45 165.995 143.137 165.836C141.823 165.677 140.572 165.187 139.5 164.412C138.427 163.637 137.57 162.602 137.007 161.404C136.445 160.207 136.196 158.886 136.284 157.566" stroke="var(--illustration-currentColor)" stroke-width="1.5234" stroke-linecap="round" stroke-linejoin="round"/>
<path d="M163.477 195.56C163.477 191.497 163.279 189.192 163.193 185.556C163.111 181.915 163.71 177.975 166.275 175.39C168.428 173.221 171.576 172.399 174.12 170.698C177.375 168.519 179.503 164.96 180.686 161.227C181.869 157.495 182.194 153.554 182.519 149.65C183.647 135.924 184.777 122.198 185.911 108.472" stroke="var(--illustration-currentColor)" stroke-width="1.5234" stroke-linecap="round" stroke-linejoin="round"/>
<path d="M124.615 196.768C122.858 196.89 121.104 197.047 119.354 197.24C116.384 197.576 113.174 198.154 111.158 200.363C109.289 202.41 108.893 205.411 109.055 208.178C109.147 209.773 109.436 211.438 110.208 212.81C110.466 213.266 110.782 213.688 111.148 214.064C113.184 216.11 116.419 216.191 119.303 216.131C129.21 215.907 139.112 215.552 149.009 215.125C158.663 214.714 168.306 214.231 177.954 213.749C179.102 213.693 180.356 213.591 181.199 212.815C181.436 212.597 181.63 212.336 181.772 212.048C182.28 211.058 182.24 209.768 182.159 208.615C181.95 205.797 181.744 202.979 181.539 200.16C181.449 198.921 181.295 197.55 180.366 196.727C179.487 195.95 178.198 195.915 177.02 195.925C172.51 195.956 167.997 195.984 163.481 196.011C153.524 196.077 143.561 196.164 133.598 196.377C130.601 196.438 127.606 196.555 124.615 196.768Z" stroke="var(--illustration-currentColor)" stroke-width="1.5234" stroke-linecap="round" stroke-linejoin="round"/>
<path d="M109.69 212.89C89.541 211.982 69.1581 220.431 55.5591 235.335" stroke="var(--illustration-currentColor)" stroke-width="1.5234" stroke-linecap="round" stroke-linejoin="round"/>
<path d="M149.02 215.333C147.822 234.528 147.227 255.698 146.029 274.893" stroke="var(--illustration-currentColor)" stroke-width="1.5234" stroke-linecap="round" stroke-linejoin="round"/>
<path d="M181.936 212.134C203.116 211.327 225.21 221.208 238.631 237.615" stroke="var(--illustration-currentColor)" stroke-width="1.5234" stroke-linecap="round" stroke-linejoin="round"/>
<path d="M55.2135 235.666C32.7129 211.926 18.8701 179.61 18.8701 144.002C18.8701 71.0976 76.8864 12 148.451 12C220.015 12 278.031 71.0976 278.031 144.002C278.031 180.894 263.173 214.252 239.22 238.199C215.841 261.578 183.804 275.999 148.451 275.999C147.633 275.999 146.821 275.989 146.008 275.974C110.376 275.304 78.2523 259.98 55.2135 235.666Z" stroke="var(--illustration-currentColor)" stroke-width="1.5234" stroke-linecap="round" stroke-linejoin="round"/>
<path d="M76.2279 136.955C72.5979 134.096 68.9679 131.238 65.3379 128.379" stroke="var(--illustration-currentColor)" stroke-width="1.5234" stroke-linecap="round" stroke-linejoin="round"/>
<path d="M74.76 127.094C72.2514 131.037 69.7422 134.98 67.2324 138.922" stroke="var(--illustration-currentColor)" stroke-width="1.5234" stroke-linecap="round" stroke-linejoin="round"/>
<path d="M55.9407 194.303L46.2627 179.248" stroke="var(--illustration-currentColor)" stroke-width="1.5234" stroke-linecap="round" stroke-linejoin="round"/>
<path d="M44.1123 192.69C48.0555 188.03 51.9984 183.37 55.941 178.71" stroke="var(--illustration-currentColor)" stroke-width="1.5234" stroke-linecap="round" stroke-linejoin="round"/>
<path d="M108.308 58.0275C105.467 54.8841 102.26 52.092 98.7554 49.71" stroke="url(#paint3_linear_28_12847)" stroke-width="1.5234" stroke-linecap="round" stroke-linejoin="round"/>
<path d="M98.4165 59.885L107.019 46.4429" stroke="url(#paint4_linear_28_12847)" stroke-width="1.5234" stroke-linecap="round" stroke-linejoin="round"/>
<path d="M170.175 49.076C166.501 46.8569 163.483 43.7021 161.43 39.9341" stroke="var(--illustration-currentColor)" stroke-width="1.5234" stroke-linecap="round" stroke-linejoin="round"/>
<path d="M159.618 49.5942C162.655 45.8226 165.692 42.0513 168.73 38.2803" stroke="var(--illustration-currentColor)" stroke-width="1.5234" stroke-linecap="round" stroke-linejoin="round"/>
<path d="M223.731 189.433C220.539 185.463 217.348 181.493 214.156 177.523" stroke="url(#paint5_linear_28_12847)" stroke-width="1.5234" stroke-linecap="round" stroke-linejoin="round"/>
<path d="M212.932 188.378L222.072 180.851" stroke="url(#paint6_linear_28_12847)" stroke-width="1.5234" stroke-linecap="round" stroke-linejoin="round"/>
<path d="M215.925 135.906L225.838 144.846" stroke="var(--illustration-currentColor)" stroke-width="1.5234" stroke-linecap="round" stroke-linejoin="round"/>
<path d="M218.304 121.85C229.751 123.011 241.289 122.949 252.723 121.665" stroke="var(--illustration-currentColor)" stroke-width="1.5234" stroke-linecap="round" stroke-linejoin="round"/>
<path d="M226.881 106.618C231.383 102.699 235.885 98.7806 240.387 94.8623" stroke="var(--illustration-currentColor)" stroke-width="1.5234" stroke-linecap="round" stroke-linejoin="round"/>
<path d="M99.5569 148.884C96.4 146.681 94.9726 142.289 96.2314 138.65" stroke="var(--illustration-currentColor)" stroke-width="1.5234" stroke-linecap="round" stroke-linejoin="round"/>
<path d="M93.1843 150.676C92.6506 150.251 92.2411 149.69 91.9984 149.052C91.756 148.415 91.6894 147.723 91.8058 147.051" stroke="var(--illustration-currentColor)" stroke-width="1.5234" stroke-linecap="round" stroke-linejoin="round"/>
<path d="M200.032 112.216C202.991 112.418 205.937 111.659 208.429 110.053" stroke="var(--illustration-currentColor)" stroke-width="1.5234" stroke-linecap="round" stroke-linejoin="round"/>
<path d="M172.635 213.955C172.45 208.3 172.265 202.645 172.08 196.991" stroke="var(--illustration-currentColor)" stroke-width="1.5234" stroke-linecap="round" stroke-linejoin="round"/>
<path d="M162.918 214.674C162.91 208.62 162.903 202.566 162.895 196.513" stroke="var(--illustration-currentColor)" stroke-width="1.5234" stroke-linecap="round" stroke-linejoin="round"/>
<path d="M153.862 214.44C153.414 208.478 153.236 202.503 153.329 196.516" stroke="var(--illustration-currentColor)" stroke-width="1.5234" stroke-linecap="round" stroke-linejoin="round"/>
<path d="M142.791 215.157C142.591 209.022 142.39 202.887 142.189 196.752" stroke="var(--illustration-currentColor)" stroke-width="1.5234" stroke-linecap="round" stroke-linejoin="round"/>
<path d="M132.31 215.63C132.322 209.496 132.335 203.363 132.347 197.23" stroke="var(--illustration-currentColor)" stroke-width="1.5234" stroke-linecap="round" stroke-linejoin="round"/>
<path d="M122.318 215.87C122.186 209.816 122.053 203.762 121.919 197.708" stroke="var(--illustration-currentColor)" stroke-width="1.5234" stroke-linecap="round" stroke-linejoin="round"/>
<path d="M115.39 215.878C114.39 209.958 114.102 203.939 114.533 197.95" stroke="var(--illustration-currentColor)" stroke-width="1.5234" stroke-linecap="round" stroke-linejoin="round"/>
<path d="M211.246 244.805L207.665 240.978" stroke="var(--illustration-currentColor)" stroke-width="1.5234" stroke-linecap="round" stroke-linejoin="round"/>
<path d="M197.554 239.714C198.632 237.747 199.955 235.924 201.492 234.289" stroke="var(--illustration-currentColor)" stroke-width="1.5234" stroke-linecap="round" stroke-linejoin="round"/>
<path d="M210.06 226.17C208.384 225.401 206.917 224.242 205.781 222.79" stroke="var(--illustration-currentColor)" stroke-width="1.5234" stroke-linecap="round" stroke-linejoin="round"/>
<path d="M189.292 231.393C188.021 230.115 186.749 228.838 185.478 227.561" stroke="var(--illustration-currentColor)" stroke-width="1.5234" stroke-linecap="round" stroke-linejoin="round"/>
<path d="M189.275 253.873C188.008 252.512 186.741 251.15 185.475 249.789" stroke="var(--illustration-currentColor)" stroke-width="1.5234" stroke-linecap="round" stroke-linejoin="round"/>
<path d="M193.582 264.138L197.405 259.597" stroke="var(--illustration-currentColor)" stroke-width="1.5234" stroke-linecap="round" stroke-linejoin="round"/>
<path d="M176.142 260.08L171.351 264.847" stroke="var(--illustration-currentColor)" stroke-width="1.5234" stroke-linecap="round" stroke-linejoin="round"/>
<path d="M166.133 252.648L163.273 248.82" stroke="var(--illustration-currentColor)" stroke-width="1.5234" stroke-linecap="round" stroke-linejoin="round"/>
<path d="M173.75 241.916L177.335 237.854" stroke="var(--illustration-currentColor)" stroke-width="1.5234" stroke-linecap="round" stroke-linejoin="round"/>
<path d="M167.303 233.07L163.279 229.726" stroke="var(--illustration-currentColor)" stroke-width="1.5234" stroke-linecap="round" stroke-linejoin="round"/>
<path d="M171.34 223.748C171.844 222.184 172.762 220.785 173.997 219.701" stroke="var(--illustration-currentColor)" stroke-width="1.5234" stroke-linecap="round" stroke-linejoin="round"/>
<path d="M158.934 262.23C157.877 263.404 156.819 264.579 155.761 265.754" stroke="var(--illustration-currentColor)" stroke-width="1.5234" stroke-linecap="round" stroke-linejoin="round"/>
<path d="M153.009 245.068L156.812 240.988" stroke="var(--illustration-currentColor)" stroke-width="1.5234" stroke-linecap="round" stroke-linejoin="round"/>
<path d="M138.357 268.942L134.296 264.401" stroke="var(--illustration-currentColor)" stroke-width="1.5234" stroke-linecap="round" stroke-linejoin="round"/>
<path d="M121.68 255.318C123.374 253.271 125.249 251.382 127.283 249.673" stroke="var(--illustration-currentColor)" stroke-width="1.5234" stroke-linecap="round" stroke-linejoin="round"/>
<path d="M136.233 253.147C137.335 251.467 138.742 250.007 140.38 248.843L140.033 249.041" stroke="var(--illustration-currentColor)" stroke-width="1.5234" stroke-linecap="round" stroke-linejoin="round"/>
<path d="M136.944 240.249L132.668 236.104" stroke="var(--illustration-currentColor)" stroke-width="1.5234" stroke-linecap="round" stroke-linejoin="round"/>
<path d="M139.818 231.163L142.686 227.578" stroke="var(--illustration-currentColor)" stroke-width="1.5234" stroke-linecap="round" stroke-linejoin="round"/>
<path d="M133.488 224.835L129.049 220.665" stroke="var(--illustration-currentColor)" stroke-width="1.5234" stroke-linecap="round" stroke-linejoin="round"/>
<path d="M124.006 227.536L119.184 232.03" stroke="var(--illustration-currentColor)" stroke-width="1.5234" stroke-linecap="round" stroke-linejoin="round"/>
<path d="M112.394 247.361L108.794 243.312" stroke="var(--illustration-currentColor)" stroke-width="1.5234" stroke-linecap="round" stroke-linejoin="round"/>
<path d="M97.9868 258.872L102.046 254.33" stroke="var(--illustration-currentColor)" stroke-width="1.5234" stroke-linecap="round" stroke-linejoin="round"/>
<path d="M91.8369 237.424C93.4212 235.742 95.0052 234.061 96.5895 232.38" stroke="var(--illustration-currentColor)" stroke-width="1.5234" stroke-linecap="round" stroke-linejoin="round"/>
<path d="M103.397 222.68L98.938 218.997" stroke="var(--illustration-currentColor)" stroke-width="1.5234" stroke-linecap="round" stroke-linejoin="round"/>
<path d="M79.7734 229.673C81.0301 228.23 82.2871 226.787 83.5444 225.344C83.4511 225.408 83.383 225.502 83.3518 225.611C83.3206 225.72 83.3281 225.836 83.3731 225.94" stroke="var(--illustration-currentColor)" stroke-width="1.5234" stroke-linecap="round" stroke-linejoin="round"/>
<path d="M79.3592 245.5C78.0452 244.04 75.566 241.289 74.8892 240.617" stroke="var(--illustration-currentColor)" stroke-width="1.5234" stroke-linecap="round" stroke-linejoin="round"/>
<path fill-rule="evenodd" clip-rule="evenodd" d="M210.133 92.2424C204.484 90.6164 198.454 90.9235 193 93.1157L192.882 92.8067C196.736 90.5438 200.59 88.2824 204.444 86.0225C206.8 84.6413 209.228 83.1992 210.832 80.9902C212.437 78.7762 213.017 75.5771 211.457 73.3325C209.314 70.2401 204.51 70.5701 201.23 72.4136C199.806 73.211 198.507 74.216 197.21 75.2192C195.517 76.5284 193.827 77.8352 191.87 78.6746C191.985 76.3355 193.074 74.2406 194.167 72.1361C194.704 71.1017 195.243 70.0652 195.668 68.996C196.958 65.7509 196.618 61.13 193.348 59.906C190.727 58.9208 187.797 60.8861 186.482 63.359C185.571 65.0783 185.19 66.9986 184.809 68.9204C184.641 69.7634 184.474 70.6067 184.262 71.4332C183.942 72.6923 183.252 74.1446 181.957 74.2565C180.311 74.4038 179.443 72.296 179.509 70.646C179.521 70.3514 179.543 70.0493 179.566 69.7448C179.668 68.3495 179.775 66.902 178.9 65.8676C177.493 64.2071 174.624 65.0756 173.263 66.7715C172.492 67.7354 171.998 68.8706 171.503 70.0082C171.125 70.8779 170.746 71.7488 170.242 72.5453C167.204 77.3489 160.679 78.2528 155.002 78.4763C145.863 78.8378 136.711 78.6785 127.591 77.999C124.697 77.7854 121.579 77.5673 119.101 79.0754C116.349 80.7461 115.145 84.0926 114.541 87.2561C113.596 92.2139 113.654 97.2716 113.712 102.336C113.742 105 113.773 107.666 113.657 110.32C113.322 118.019 111.443 126.199 105.751 131.394C105.274 131.831 104.772 132.244 104.271 132.657C103.25 133.497 102.23 134.337 101.419 135.375C100.211 136.924 99.5456 139.128 100.455 140.87C101.567 142.992 104.578 143.469 106.782 142.525C108.985 141.581 110.565 139.62 112.053 137.736C109.197 141.765 107.945 146.713 108.543 151.615C108.725 153.057 109.203 154.656 110.493 155.332C112.001 156.114 113.835 155.256 115.185 154.23C118.869 151.422 121.425 147.386 122.389 142.855L122.968 142.84C122.758 135.87 122.547 128.901 122.333 121.934C122.089 113.855 122.354 104.582 128.564 99.4127C134.724 94.289 143.874 95.6501 151.562 97.9148C155.045 98.9423 158.492 100.098 161.939 101.253C167.81 103.221 173.679 105.188 179.72 106.522C181.792 106.979 183.894 107.36 186.016 107.634C193.705 108.639 201.57 108.284 208.705 105.384C210.757 104.551 212.794 103.465 214.165 101.718C215.536 99.9761 216.1 97.4525 215.044 95.5025C214.089 93.7253 212.073 92.8124 210.133 92.2424ZM208.494 93.9317C207.493 93.6203 206.421 93.6248 205.422 93.9443C205.021 94.0724 204.801 94.5011 204.929 94.9019C205.057 95.3024 205.486 95.5232 205.887 95.3951C206.587 95.171 207.34 95.1679 208.042 95.3863C208.744 95.6048 209.362 96.034 209.812 96.6161C210.261 97.1981 210.521 97.9043 210.555 98.639C210.589 99.3737 210.397 100.101 210.003 100.722C209.778 101.078 209.884 101.548 210.239 101.773C210.595 101.998 211.065 101.893 211.29 101.538C211.851 100.652 212.126 99.6152 212.077 98.5679C212.028 97.5209 211.658 96.5141 211.017 95.6846C210.376 94.8551 209.495 94.243 208.494 93.9317ZM191.092 62.0897C191.282 61.7141 191.74 61.5638 192.116 61.7537C194.36 62.8889 195.309 65.9441 194.102 68.1518C193.9 68.5208 193.438 68.6564 193.069 68.4548C192.7 68.2529 192.564 67.79 192.766 67.421C193.56 65.9687 192.904 63.86 191.428 63.113C191.053 62.9231 190.902 62.465 191.092 62.0897ZM207.617 73.1051C207.253 72.8942 206.787 73.0184 206.576 73.3823C206.365 73.7465 206.489 74.2124 206.854 74.4233C207.361 74.7176 207.791 75.1298 208.106 75.6251C208.422 76.1204 208.613 76.6844 208.664 77.2694C208.716 77.8541 208.626 78.4427 208.402 78.9854C208.177 79.5281 207.826 80.009 207.377 80.3873C207.056 80.6585 207.015 81.1391 207.286 81.4607C207.557 81.7823 208.037 81.8234 208.359 81.5522C208.995 81.0164 209.492 80.3354 209.81 79.5668C210.127 78.7979 210.255 77.9642 210.182 77.1359C210.109 76.3076 209.838 75.509 209.392 74.8073C208.945 74.1056 208.336 73.5218 207.617 73.1051Z" fill="var(--illustration-currentColor)"/>
<path d="M70.9579 87.5893L80.6665 86.3908C80.7484 86.3806 80.8315 86.3959 80.9047 86.4346C80.9776 86.473 81.0373 86.5333 81.0751 86.6065C81.1129 86.68 81.1276 86.7634 81.1168 86.8453C81.1057 86.9272 81.07 87.0037 81.0145 87.0649L74.4166 94.2877C74.3626 94.3465 74.3275 94.4203 74.3152 94.4992C74.3032 94.5781 74.3146 94.6588 74.3485 94.7314L78.4885 103.595C78.5236 103.669 78.5347 103.753 78.5209 103.835C78.5068 103.916 78.4681 103.991 78.4099 104.05C78.352 104.109 78.2773 104.149 78.196 104.164C78.1147 104.179 78.0307 104.169 77.9554 104.135L69.0475 100.092C68.9746 100.059 68.8939 100.048 68.815 100.061C68.7361 100.074 68.6629 100.11 68.6047 100.165L61.4545 106.841C61.3939 106.897 61.3177 106.934 61.2361 106.945C61.1542 106.957 61.0708 106.943 60.997 106.906C60.9232 106.869 60.8623 106.81 60.823 106.738C60.7837 106.665 60.7678 106.582 60.7771 106.5L61.8694 96.7798C61.8784 96.7003 61.8634 96.6202 61.8268 96.5491C61.7902 96.478 61.7332 96.4195 61.6633 96.3811L53.1043 91.6438C53.0317 91.6039 52.9732 91.5427 52.9366 91.4683C52.9 91.3942 52.8871 91.3105 52.8997 91.2289C52.9123 91.147 52.9495 91.0711 53.0065 91.0111C53.0635 90.9511 53.1376 90.9103 53.2189 90.8938L62.8021 88.9285C62.8801 88.9123 62.9518 88.8733 63.0082 88.8166C63.0643 88.7599 63.1024 88.6879 63.118 88.6096L64.978 79.0057C64.9933 78.9241 65.0335 78.8494 65.0929 78.7912C65.152 78.7333 65.2279 78.6949 65.3098 78.6817C65.3917 78.6682 65.4757 78.6802 65.5504 78.7162C65.6254 78.7522 65.6872 78.8104 65.728 78.8827L70.558 87.3895C70.5973 87.4585 70.6564 87.5143 70.7275 87.55C70.7986 87.5854 70.8787 87.5992 70.9579 87.5893Z" fill="url(#paint7_linear_28_12847)"/>
<path d="M244.053 162.795L250.221 162.033C250.273 162.027 250.326 162.036 250.373 162.061C250.419 162.085 250.457 162.124 250.481 162.17C250.505 162.217 250.514 162.27 250.507 162.322C250.5 162.374 250.478 162.423 250.442 162.462L246.251 167.05C246.216 167.088 246.194 167.134 246.186 167.184C246.179 167.235 246.186 167.286 246.207 167.332L248.837 172.963C248.859 173.01 248.867 173.064 248.858 173.115C248.849 173.167 248.824 173.215 248.787 173.252C248.75 173.289 248.703 173.314 248.651 173.324C248.6 173.334 248.546 173.327 248.498 173.305L242.839 170.737C242.793 170.716 242.742 170.709 242.692 170.718C242.642 170.726 242.595 170.749 242.558 170.783L238.016 175.024C237.977 175.06 237.929 175.083 237.877 175.091C237.825 175.098 237.772 175.09 237.725 175.066C237.678 175.043 237.64 175.005 237.614 174.959C237.59 174.913 237.579 174.86 237.585 174.808L238.279 168.632C238.284 168.582 238.275 168.531 238.252 168.486C238.228 168.441 238.192 168.403 238.148 168.379L232.71 165.369C232.664 165.344 232.627 165.305 232.604 165.258C232.58 165.211 232.572 165.158 232.58 165.106C232.588 165.054 232.612 165.006 232.648 164.967C232.684 164.929 232.731 164.903 232.782 164.893L238.87 163.644C238.92 163.634 238.966 163.609 239.001 163.573C239.037 163.537 239.061 163.491 239.071 163.441L240.253 157.34C240.263 157.289 240.289 157.242 240.326 157.205C240.364 157.168 240.412 157.144 240.464 157.136C240.515 157.127 240.569 157.135 240.616 157.157C240.663 157.18 240.703 157.216 240.728 157.262L243.797 162.666C243.822 162.711 243.86 162.746 243.906 162.769C243.951 162.792 244.003 162.801 244.053 162.795Z" fill="var(--illustration-currentColor)"/>
<g opacity="0.1">
<path d="M175.052 104.19C173.149 102.848 171.079 102.195 168.877 101.497C166.603 100.775 164.313 100.109 162.007 99.4959C161.014 99.2802 160.04 98.9856 159.094 98.6148C158.025 98.0979 156.926 97.647 155.802 97.2648C155.26 97.0998 154.712 96.9048 154.16 96.774C152.665 96.4191 155.09 97.3173 153.027 96.1095C151.873 95.4342 150.367 95.2677 149.108 94.8441C146.882 94.0818 144.55 93.6744 142.198 93.6369C140.858 93.6168 139.49 94.0356 138.178 93.9849C138.942 94.0149 137.623 93.9051 137.486 93.9159C136.572 93.9849 135.671 94.1619 134.799 94.4433C130.497 95.841 126.795 99.2772 124.509 103.138C119.676 111.296 120.525 121.41 120.731 130.49C120.949 140.06 121.488 149.615 121.757 159.183C122.058 169.943 122.375 180.703 122.71 191.463C122.806 194.489 125.306 197.4 128.504 197.257C131.594 197.118 134.359 194.709 134.297 191.463C134.122 182.297 133.93 173.131 133.721 163.966C133.517 155.001 133.587 146.03 133.364 137.066C133.252 132.542 133.082 128.018 132.99 123.493C132.948 121.459 132.941 119.423 133.072 117.393C133.095 117.026 133.124 116.658 133.156 116.291C133.174 116.095 133.434 114.295 133.199 115.748C133.367 114.659 133.595 113.581 133.881 112.517C134.009 112.055 134.151 111.596 134.308 111.143C134.451 110.729 134.601 109.501 134.344 110.957C134.459 110.307 135.035 109.547 135.353 108.959C135.719 108.279 136.153 107.199 136.756 106.697C135.884 107.423 136.378 107.147 136.644 106.869C137.049 106.446 137.429 106.007 137.861 105.609C138.045 105.441 139.173 104.48 138.043 105.419C138.368 105.149 140.31 103.864 139.319 104.443C138.558 104.886 139.785 104.177 139.824 104.153C140.204 103.881 140.601 103.634 141.013 103.412C140.293 103.728 141.863 103.29 141.865 103.29C141.242 103.365 142.149 103.294 142.198 103.293C143.483 103.278 144.767 103.342 146.05 103.328C147.156 103.316 148.24 103.246 149.35 103.316C150.478 103.362 151.608 103.31 152.728 103.161C153.981 103.035 155.384 103.514 156.653 103.536C157.821 103.556 158.781 103.523 159.937 103.783C162.357 104.327 164.768 104.912 167.171 105.537C169.56 106.16 171.825 106.87 174.315 106.917C175.864 106.947 176.173 104.981 175.053 104.192L175.052 104.19Z" fill="var(--illustration-currentColor)"/>
</g>
<g opacity="0.1">
<path d="M132.106 196.393C130.609 195.409 128.991 195.111 127.302 194.637C125.061 193.981 122.695 193.876 120.405 194.332C116.808 195.021 113.589 197.006 111.359 199.912C108.966 203.008 108.034 207.048 109.195 210.845C109.397 211.505 109.669 212.146 109.928 212.785C110.2 213.457 110.397 214.195 110.832 214.785C111.13 215.187 110.925 215.503 110.832 214.615C110.942 215.671 110.866 214.52 110.865 214.382C110.868 213.948 110.976 213.522 111.18 213.14L111.605 212.593C111.276 212.896 111.281 212.9 111.622 212.606C111.983 212.332 111.968 212.315 111.575 212.554C112.233 212.293 112.372 212.227 111.993 212.354C111.682 212.395 111.377 212.473 111.085 212.587C110.365 212.779 111.145 212.728 111.312 212.569C111.109 212.76 109.833 212.575 109.591 212.567C108.037 212.517 106.488 212.477 104.933 212.514C101.469 212.597 98.0133 212.883 94.5831 213.37C88.4952 214.225 82.6575 216.196 76.9878 218.516C73.4409 219.93 70.0146 221.629 66.7422 223.596C63.5475 225.553 59.8929 227.501 57.3843 230.324C55.2651 232.709 54.8847 236.078 56.8875 238.67C58.7175 241.04 62.4375 242.074 65.0871 240.307C66.6153 239.23 68.0757 238.06 69.4602 236.803C69.9591 236.373 70.4574 235.944 70.9653 235.525C71.2824 235.264 71.6082 235.013 71.9253 234.75C72.4794 234.289 71.0961 235.301 72.0579 234.654C74.6028 232.941 77.1924 231.314 79.8942 229.857C81.1305 229.191 82.3842 228.56 83.6646 227.982C82.6944 228.42 83.4867 228.059 83.6874 227.982C84.0744 227.832 84.4581 227.676 84.8454 227.528C85.62 227.232 86.4 226.949 87.1854 226.681C90.0099 225.722 92.8902 224.937 95.8104 224.328C97.1847 224.038 98.5578 223.751 99.9438 223.522C100.351 223.454 100.76 223.402 101.166 223.331C102.018 223.186 100.356 223.418 101.219 223.322C102.128 223.221 103.032 223.112 103.945 223.047C106.657 222.856 109.382 223.045 112.089 222.826C115.554 222.547 119.141 221.266 120.777 217.932C121.682 216.079 121.996 213.993 121.677 211.956C121.541 210.757 121.214 209.587 120.708 208.491C120.581 208.211 120.449 207.932 120.315 207.656C119.678 206.35 120.56 208.729 120.188 207.345C120.076 207.075 120.004 206.791 119.973 206.5C120.065 207.261 120.106 207.422 120.099 206.983C120.114 206.544 120.08 206.705 119.996 207.465C120.099 207.393 120.056 206.733 120.203 206.661C119.879 207.351 119.856 207.413 120.134 206.846L120.344 206.476C120.755 205.651 120.391 206.353 120.221 206.553C120.506 206.218 120.816 205.919 121.125 205.608C121.811 204.918 121.225 205.526 121.035 205.65C121.402 205.413 121.769 205.192 122.15 204.979C121.247 205.485 122.19 204.961 122.489 204.865C122.909 204.728 123.335 204.612 123.767 204.517C124.72 204.305 125.623 204.057 126.561 203.777C128.344 203.245 130.155 203.136 132.111 202.27C134.611 201.165 134.026 197.652 132.111 196.393L132.106 196.393Z" fill="var(--illustration-currentColor)"/>
</g>
</g>
</g>
<defs>
<linearGradient id="paint0_linear_28_12847" x1="192.614" y1="212.048" x2="192.614" y2="276" gradientUnits="userSpaceOnUse">
<stop stop-color="#FFB800"/>
<stop offset="1" stop-color="#FF7F0A"/>
</linearGradient>
<linearGradient id="paint1_linear_28_12847" x1="145.617" y1="195.925" x2="145.617" y2="216.143" gradientUnits="userSpaceOnUse">
<stop stop-color="#FFB800"/>
<stop offset="1" stop-color="#FF7F0A"/>
</linearGradient>
<linearGradient id="paint2_linear_28_12847" x1="102.116" y1="212.81" x2="102.116" y2="275.975" gradientUnits="userSpaceOnUse">
<stop stop-color="#FFB800"/>
<stop offset="1" stop-color="#FF7F0A"/>
</linearGradient>
<linearGradient id="paint3_linear_28_12847" x1="103.532" y1="49.71" x2="103.532" y2="58.0275" gradientUnits="userSpaceOnUse">
<stop stop-color="#FFB800"/>
<stop offset="1" stop-color="#FF7F0A"/>
</linearGradient>
<linearGradient id="paint4_linear_28_12847" x1="102.718" y1="46.4429" x2="102.718" y2="59.885" gradientUnits="userSpaceOnUse">
<stop stop-color="#FFB800"/>
<stop offset="1" stop-color="#FF7F0A"/>
</linearGradient>
<linearGradient id="paint5_linear_28_12847" x1="218.944" y1="177.523" x2="218.944" y2="189.433" gradientUnits="userSpaceOnUse">
<stop stop-color="#FFB800"/>
<stop offset="1" stop-color="#FF7F0A"/>
</linearGradient>
<linearGradient id="paint6_linear_28_12847" x1="217.502" y1="180.851" x2="217.502" y2="188.378" gradientUnits="userSpaceOnUse">
<stop stop-color="#FFB800"/>
<stop offset="1" stop-color="#FF7F0A"/>
</linearGradient>
<linearGradient id="paint7_linear_28_12847" x1="67.0075" y1="78.6763" x2="67.0075" y2="106.949" gradientUnits="userSpaceOnUse">
<stop stop-color="#FFB800"/>
<stop offset="1" stop-color="#FF7F0A"/>
</linearGradient>
<clipPath id="clip0_28_12847">
<rect width="288" height="288" fill="white"/>
</clipPath>
</defs>
</svg>
