<svg width="288" height="288" viewBox="0 0 288 288" fill="none" xmlns="http://www.w3.org/2000/svg">
<mask id="mask0_28_12859" style="mask-type:luminance" maskUnits="userSpaceOnUse" x="11" y="39" width="266" height="210">
<path d="M276.599 39.3H11.3994V249H276.599V39.3Z" fill="white"/>
</mask>
<g mask="url(#mask0_28_12859)">
<path d="M253.98 135.468C253.569 133.89 253.11 132.321 252.594 130.773L252.691 130.74C256.618 132.046 260.329 134.209 263.011 137.359C265.694 140.508 267.266 144.707 266.799 148.819C266.448 151.891 265.003 154.76 263.127 157.224C260.98 160.016 258.293 162.347 255.226 164.079C252.16 165.81 248.776 166.907 245.277 167.304L245.037 167.295L245.574 153.615L245.075 153.335C246.995 153.219 248.895 152.868 250.523 151.878C253.085 150.315 254.554 147.348 254.932 144.37C255.31 141.392 254.73 138.375 253.98 135.468Z" fill="url(#paint0_linear_28_12859)"/>
<path d="M248.311 84.0655L246.807 123.436L246.375 134.758L246.423 135.086C244.733 135.317 243.057 135.488 241.365 135.618L241.326 135.138L243.288 84.064C243.417 80.7844 242.275 77.5816 240.1 75.1234C237.925 72.6655 234.885 71.1421 231.614 70.8715L231.617 70.8271L234.971 70.8421C236.735 70.7569 238.498 71.0398 240.147 71.6725C241.797 72.3055 243.296 73.2745 244.551 74.518C245.805 75.7618 246.787 77.2528 247.435 78.8965C248.082 80.5399 248.38 82.3003 248.311 84.0655Z" fill="var(--illustration-currentColor)"/>
<path d="M234.15 198.756C234.764 201.135 234.138 206.202 232.855 206.781L178.197 231.431C169.419 235.388 159.488 235.958 150.315 233.033L150.205 232.998L130.465 226.695L130.338 226.494C131.523 225.756 132.708 225.018 133.895 224.281C134.649 223.868 135.327 223.327 135.896 222.683L136.136 222.704L150.315 227.124C159.489 230.049 169.42 229.478 178.198 225.522L232.856 200.872C233.244 200.703 233.558 200.399 233.74 200.017C233.922 199.634 233.96 199.199 233.846 198.791L234.15 198.756Z" fill="var(--illustration-currentColor)"/>
<path d="M245.037 167.294L244.358 184.532C244.074 191.78 237.848 197.577 230.624 196.912H227.069L227.061 197L225.503 196.859L225.524 196.64C227.235 196.798 228.961 196.606 230.595 196.075C232.23 195.545 233.739 194.687 235.031 193.554C236.323 192.421 237.371 191.037 238.111 189.486C238.851 187.934 239.267 186.249 239.334 184.532L240.551 153.614L240.56 153.34C241.453 153.372 242.324 153.387 243.161 153.387C243.796 153.384 244.437 153.372 245.075 153.334L245.574 153.614L245.037 167.294Z" fill="var(--illustration-currentColor)"/>
<path d="M200.245 199.553L215.831 201.415C216.005 201.435 216.168 201.513 216.294 201.637C216.42 201.76 216.501 201.922 216.525 202.096C216.549 202.27 216.515 202.448 216.427 202.601C216.339 202.753 216.203 202.872 216.041 202.94L203.081 208.28L187.891 205.845C194.864 202.298 200.245 199.553 200.245 199.553Z" fill="var(--illustration-currentColor)"/>
<path d="M186.355 197.896L200.245 199.553C200.245 199.553 194.865 202.298 187.892 205.844L174.493 203.696L186.355 197.896Z" fill="var(--illustration-currentColor)"/>
<path d="M187.892 205.844L203.082 208.279L189.33 213.945L176.817 211.461C180.594 209.55 184.438 207.6 187.892 205.844Z" fill="var(--illustration-currentColor)"/>
<path d="M163.874 208.887L174.494 203.696L187.893 205.844C184.439 207.599 180.595 209.549 176.819 211.461L163.874 208.887Z" fill="var(--illustration-currentColor)"/>
<path d="M165.829 216.998C169.079 215.37 172.911 213.437 176.817 211.461L189.33 213.946L175.934 219.466L165.829 216.998Z" fill="var(--illustration-currentColor)"/>
<path d="M175.934 219.465L167.451 222.96C166.166 223.489 164.741 223.574 163.401 223.202L156.815 221.372C157.01 221.372 160.689 219.566 165.83 216.996L175.934 219.465Z" fill="var(--illustration-currentColor)"/>
<path d="M159.713 201.326L174.493 203.696L163.873 208.888L150.433 206.218C153.6 204.547 156.824 202.848 159.713 201.326Z" fill="var(--illustration-currentColor)"/>
<path d="M174.493 203.696L159.713 201.326C165.49 198.279 169.933 195.933 169.933 195.933L186.355 197.895L174.493 203.696Z" fill="var(--illustration-currentColor)"/>
<path d="M165.829 216.998L153.464 213.978L163.874 208.887L176.819 211.461C172.912 213.437 169.08 215.37 165.829 216.998Z" fill="var(--illustration-currentColor)"/>
<path d="M145.025 218.103L153.464 213.978L165.829 216.998C160.688 219.568 157.009 221.374 156.814 221.374H156.809L145.025 218.103Z" fill="var(--illustration-currentColor)"/>
<path d="M163.873 208.887L153.463 213.978L141.323 211.012C144.02 209.594 147.196 207.922 150.432 206.216L163.873 208.887Z" fill="var(--illustration-currentColor)"/>
<path d="M156.02 194.273L169.933 195.934C169.933 195.934 165.489 198.28 159.713 201.326L146.196 199.157C151.753 196.404 156.02 194.273 156.02 194.273Z" fill="var(--illustration-currentColor)"/>
<path d="M156.02 194.273C156.02 194.273 151.754 196.403 146.196 199.157L135.261 197.405L145.023 192.96H145.026L156.02 194.273Z" fill="var(--illustration-currentColor)"/>
<path d="M153.464 213.978L145.026 218.102L133.766 214.976C134.082 214.82 137.126 213.224 141.324 211.011L153.464 213.978Z" fill="var(--illustration-currentColor)"/>
<path d="M150.433 206.216C147.197 207.921 144.021 209.594 141.324 211.012L128.5 207.88C131.101 206.615 134.14 205.12 137.234 203.596L150.433 206.216Z" fill="var(--illustration-currentColor)"/>
<path d="M137.234 203.596C140.294 202.086 143.41 200.543 146.196 199.158L159.713 201.326C156.824 202.848 153.6 204.547 150.433 206.216L137.234 203.596Z" fill="var(--illustration-currentColor)"/>
<path d="M135.751 191.851L145.023 192.959L135.26 197.406L125.587 195.855L135.748 191.851H135.751Z" fill="var(--illustration-currentColor)"/>
<path d="M126.397 201.442L135.261 197.406L146.196 199.158C143.41 200.544 140.296 202.086 137.234 203.596L126.397 201.442Z" fill="var(--illustration-currentColor)"/>
<path d="M135.26 197.405L126.397 201.442L116.431 199.462L125.587 195.854L135.26 197.405Z" fill="var(--illustration-currentColor)"/>
<path d="M126.396 201.442L137.234 203.596C134.14 205.121 131.1 206.615 128.5 207.88L117.929 205.298L126.396 201.442Z" fill="var(--illustration-currentColor)"/>
<path d="M126.361 190.731L135.75 191.85L125.589 195.854L115.726 194.273L125.08 190.878C125.49 190.729 125.929 190.679 126.361 190.731Z" fill="var(--illustration-currentColor)"/>
<path d="M117.93 205.297L128.501 207.879C124.191 209.979 121.088 211.457 120.955 211.419L111.258 208.731L111.382 208.279L117.93 205.297Z" fill="var(--illustration-currentColor)"/>
<path d="M107.859 202.836L116.431 199.462L126.397 201.442L117.929 205.298L107.859 202.836Z" fill="var(--illustration-currentColor)"/>
<path d="M133.765 214.977L120.956 211.42C121.088 211.458 124.191 209.98 128.501 207.88L141.325 211.012C137.125 213.225 134.081 214.82 133.765 214.977Z" fill="var(--illustration-currentColor)"/>
<path d="M72.1821 124.136L88.536 123.619L94.6965 123.424V129.682H120.954L120.304 178.59C120.274 180.861 121.101 183.06 122.62 184.748C124.139 186.437 126.239 187.49 128.501 187.699L225.525 196.639L225.504 196.858L124.305 187.626C123.073 187.513 121.83 187.665 120.662 188.072L82.6917 201.302C82.3947 201.403 82.122 201.565 81.891 201.778L81.888 201.775C79.8522 202.484 80.6943 210.81 82.7478 211.465L118.96 223.008L118.957 223.02C118.957 223.02 118.673 223.877 118.154 225.278C117.568 226.858 116.682 229.13 115.568 231.636C112.87 237.714 108.837 245.171 104.498 247.517C96.7797 251.691 24.825 242.514 19.1964 195.172C13.5678 147.83 68.6247 129.682 68.6247 129.682L68.214 124.26L72.1821 124.136Z" fill="url(#paint1_linear_28_12859)"/>
<path d="M117.929 205.297L111.381 208.278L111.257 208.73L100.49 205.74L107.859 202.836L117.929 205.297Z" fill="var(--illustration-currentColor)"/>
<path d="M116.431 199.462L107.859 202.836L98.4546 200.54L106.736 197.535L116.431 199.462Z" fill="var(--illustration-currentColor)"/>
<path d="M106.736 197.535L115.724 194.273L125.587 195.854L116.431 199.462L106.736 197.535Z" fill="var(--illustration-currentColor)"/>
<path d="M107.859 202.836L100.49 205.74L93.6117 203.831C93.4497 203.786 93.306 203.69 93.2019 203.558C93.0978 203.426 93.0381 203.264 93.0318 203.096C93.0255 202.927 93.0729 202.761 93.1671 202.622C93.2613 202.482 93.3975 202.376 93.5556 202.319L98.4546 200.54L107.859 202.836Z" fill="var(--illustration-currentColor)"/>
<path d="M98.4544 82.6321C96.7366 83.3626 94.9666 83.9629 93.1594 84.4285C88.1308 85.7374 82.9189 86.1511 77.7364 86.5585L77.6182 86.5912C76.6813 91.3705 75.2677 96.0439 73.399 100.541C72.2638 103.28 70.9294 105.931 69.4072 108.474C68.9782 103.909 69.4252 99.304 70.7248 94.9066C69.8218 97.0402 68.5078 98.9749 66.8572 100.6C66.5086 100.946 65.971 101.292 65.572 101.011C65.272 100.804 65.2558 100.379 65.2678 100.018C65.4358 95.0071 65.6023 89.9962 65.767 84.985L65.9326 84.7663C73.4815 82.8961 78.9919 77.4979 84.7063 72.2239C88.0261 69.1603 91.3333 66.0844 94.6279 62.9965C94.7254 67.1095 92.5627 70.8973 90.4678 74.44C94.5424 71.9107 98.6158 69.3814 102.688 66.8524C102.081 70.6027 100.594 74.1559 98.3479 77.2198C100.266 75.5905 102.489 74.359 104.888 73.5976C105.843 73.2961 107.057 73.1395 107.692 73.9165C108.478 74.8828 107.645 76.3009 106.762 77.1814C104.363 79.5085 101.544 81.3583 98.4544 82.6321Z" fill="var(--illustration-currentColor)"/>
<path d="M82.7478 211.467C80.6943 210.811 79.8522 202.485 81.888 201.777L81.891 201.78C81.6057 202.048 81.3953 202.386 81.281 202.761C81.1664 203.135 81.1517 203.533 81.2384 203.915C81.3248 204.297 81.5097 204.65 81.7746 204.938C82.0392 205.227 82.3749 205.441 82.7478 205.56L127.33 219.79L127.416 219.991C126.451 220.42 125.522 220.928 124.639 221.509C122.05 223.205 120.337 223.09 118.153 225.282C118.673 223.882 118.957 223.025 118.957 223.025L118.96 223.013L82.7478 211.467Z" fill="var(--illustration-currentColor)"/>
<path d="M77.7894 114.18C76.3239 113.456 75.7773 111.545 76.1319 109.952C76.4865 108.359 77.5323 107.018 78.5871 105.771C78.8187 107.24 79.611 108.562 80.7972 109.459C80.8593 109.503 80.9214 109.55 80.9835 109.592L80.8179 109.793C79.0275 110.573 78.0258 112.514 78.6315 114.372L78.6168 114.446C78.3294 114.399 78.0504 114.31 77.7894 114.18Z" fill="var(--illustration-currentColor)"/>
<path d="M240.552 153.615L239.335 184.532C239.268 186.249 238.852 187.935 238.112 189.486C237.372 191.037 236.324 192.421 235.032 193.554C233.74 194.687 232.23 195.545 230.596 196.075C228.962 196.606 227.236 196.798 225.525 196.64L128.5 187.7C126.239 187.491 124.139 186.438 122.62 184.749C121.101 183.06 120.274 180.861 120.304 178.59L120.954 129.682L121.489 89.632C121.537 85.963 122.983 82.4506 125.532 79.8109C128.08 77.1712 131.54 75.6031 135.204 75.4261L229.95 70.8436C230.505 70.8166 231.062 70.8265 231.616 70.8736C234.887 71.1445 237.927 72.6676 240.102 75.1258C242.277 77.5837 243.419 80.7865 243.29 84.0661L241.328 135.14" stroke="var(--illustration-currentColor)" stroke-width="0.9" stroke-linecap="round" stroke-linejoin="round"/>
<path d="M231.207 152.681L230.356 178.1C230.317 179.26 230.041 180.399 229.544 181.448C229.048 182.497 228.342 183.433 227.47 184.199C226.598 184.964 225.578 185.543 224.473 185.9C223.369 186.256 222.203 186.382 221.048 186.27L136.466 180.316C134.157 180.092 132.017 179.009 130.471 177.28C128.925 175.552 128.085 173.305 128.119 170.986L130.964 94.2925C131.003 91.6627 132.053 89.1487 133.897 87.2731C135.74 85.3975 138.236 84.304 140.864 84.22L223.16 81.61C224.498 81.5668 225.831 81.7987 227.075 82.2916C228.32 82.7845 229.45 83.5273 230.396 84.4747C231.342 85.4221 232.083 86.5534 232.574 87.799C233.065 89.0443 233.295 90.3772 233.249 91.7152L231.779 135.677" stroke="var(--illustration-currentColor)" stroke-width="0.9" stroke-linecap="round" stroke-linejoin="round"/>
<path d="M127.33 219.787L82.7474 205.557C82.2959 205.418 81.9002 205.139 81.617 204.76C81.3341 204.381 81.1784 203.923 81.1721 203.45C81.1658 202.978 81.3095 202.515 81.5825 202.13C81.8555 201.743 82.2437 201.454 82.6913 201.303L120.661 188.073C121.83 187.666 123.072 187.514 124.305 187.627L225.504 196.86L227.061 197.002L232.285 197.478C232.677 197.513 233.046 197.677 233.334 197.944C233.623 198.211 233.815 198.567 233.88 198.955C233.946 199.343 233.88 199.742 233.695 200.089C233.509 200.435 233.214 200.711 232.855 200.873L178.197 225.522C169.419 229.478 159.488 230.048 150.314 227.123L136.135 222.703" stroke="var(--illustration-currentColor)" stroke-width="0.9" stroke-linecap="round" stroke-linejoin="round"/>
<path d="M118.957 223.022C118.957 223.022 118.673 223.879 118.154 225.279C117.568 226.86 116.682 229.132 115.568 231.638C112.871 237.716 108.837 245.173 104.498 247.519C96.7797 251.691 24.825 242.514 19.1964 195.172C13.5678 147.83 68.6247 129.682 68.6247 129.682L68.214 124.26L72.1821 124.136L88.536 123.619L94.6965 123.424V129.682H120.954" stroke="var(--illustration-currentColor)" stroke-width="0.9" stroke-linecap="round" stroke-linejoin="round"/>
<path d="M58.8213 153.248C58.8213 153.248 33.3789 169.517 62.9931 198.924" stroke="var(--illustration-currentColor)" stroke-width="0.9" stroke-linecap="round" stroke-linejoin="round"/>
<path d="M245.575 153.615L245.038 167.295L244.358 184.532C244.074 191.78 237.848 197.577 230.625 196.912H227.07" stroke="var(--illustration-currentColor)" stroke-width="0.9" stroke-linecap="round" stroke-linejoin="round"/>
<path d="M231.617 70.8301L234.971 70.8451C236.735 70.7599 238.497 71.0428 240.147 71.6755C241.796 72.3082 243.295 73.2772 244.55 74.5204C245.804 75.7639 246.787 77.2549 247.434 78.8983C248.081 80.5417 248.38 82.3018 248.311 84.067L246.807 123.437L246.375 134.76" stroke="var(--illustration-currentColor)" stroke-width="0.9" stroke-linecap="round" stroke-linejoin="round"/>
<path d="M120.068 223.365L118.96 223.011L82.7477 211.467C80.6943 210.811 79.8522 202.485 81.888 201.777" stroke="var(--illustration-currentColor)" stroke-width="0.9" stroke-linecap="round" stroke-linejoin="round"/>
<path d="M233.254 197.535C233.674 197.574 233.966 198.044 234.149 198.756C234.764 201.134 234.138 206.201 232.855 206.781L178.197 231.431C169.419 235.387 159.488 235.958 150.314 233.032L150.205 232.997L130.465 226.695" stroke="var(--illustration-currentColor)" stroke-width="0.9" stroke-linecap="round" stroke-linejoin="round"/>
<path d="M118.153 225.28C120.337 223.087 122.05 223.202 124.639 221.507C125.521 220.925 126.45 220.417 127.416 219.988C129.277 219.132 131.308 218.71 133.356 218.753C134.544 218.8 135.906 219.175 136.367 220.271C136.697 221.063 136.423 222.003 135.897 222.683C135.328 223.327 134.651 223.868 133.897 224.281C132.712 225.02 131.526 225.757 130.339 226.494C129.099 227.265 127.857 228.037 126.614 228.81" stroke="var(--illustration-currentColor)" stroke-width="0.9" stroke-linecap="round" stroke-linejoin="round"/>
<path d="M115.725 231.67C122.349 233.617 133.766 237.925 142.26 237.37C149.555 236.895 149.484 236.251 150.199 233.012" stroke="var(--illustration-currentColor)" stroke-width="0.9" stroke-linecap="round" stroke-linejoin="round"/>
<path d="M77.6182 86.5918C76.6813 91.3711 75.2677 96.0445 73.399 100.542C72.2638 103.28 70.9294 105.932 69.4072 108.475C68.9782 103.91 69.4252 99.3046 70.7248 94.9072C69.8218 97.0408 68.5078 98.9755 66.8572 100.601C66.5086 100.946 65.971 101.292 65.572 101.012C65.272 100.805 65.2558 100.379 65.2678 100.019C65.4358 95.0077 65.6023 89.9965 65.767 84.9856" stroke="var(--illustration-currentColor)" stroke-width="0.9" stroke-linecap="round" stroke-linejoin="round"/>
<path d="M65.9331 84.7657C73.482 82.8955 78.9924 77.4973 84.7068 72.2233C88.0269 69.1597 91.3341 66.0837 94.6284 62.9958C94.7259 67.1088 92.5632 70.8967 90.4683 74.4394C94.5429 71.9101 98.6166 69.3808 102.689 66.8518C102.082 70.6027 100.595 74.1558 98.3484 77.22C100.267 75.5907 102.49 74.3596 104.888 73.5979C105.843 73.2964 107.057 73.1398 107.693 73.9168C108.479 74.8831 107.645 76.3012 106.763 77.1817C104.365 79.5088 101.546 81.3588 98.457 82.6329C96.7395 83.3634 94.9695 83.9638 93.162 84.4294C88.1334 85.7383 82.9215 86.152 77.739 86.5594" stroke="var(--illustration-currentColor)" stroke-width="0.9" stroke-linecap="round" stroke-linejoin="round"/>
<path d="M98.4545 82.6201V82.6318C98.4515 88.2844 98.4485 93.9343 98.4455 99.5818C98.4455 103.349 98.2151 107.63 95.3255 110.047C93.9191 111.22 92.0339 111.787 90.8225 113.158C88.4204 115.874 89.7383 120.193 88.5356 123.612" stroke="var(--illustration-currentColor)" stroke-width="0.9" stroke-linecap="round" stroke-linejoin="round"/>
<path d="M85.2529 105.968C86.4319 106.506 87.8677 105.668 88.444 104.509C89.0203 103.349 88.9729 101.991 88.9078 100.697C88.7746 97.9879 88.6408 95.2795 88.5061 92.572C88.4617 91.6441 88.432 90.652 88.9168 89.8597C89.5018 88.9081 90.7168 88.4974 91.8268 88.5697C92.9368 88.642 93.9868 89.1013 95.0068 89.5564" stroke="var(--illustration-currentColor)" stroke-width="0.9" stroke-linecap="round" stroke-linejoin="round"/>
<path d="M92.3325 96.9388V94.1557" stroke="var(--illustration-currentColor)" stroke-width="0.9" stroke-linecap="round" stroke-linejoin="round"/>
<path d="M82.7476 96.1026C82.795 95.2695 82.8403 94.4355 82.8835 93.6" stroke="var(--illustration-currentColor)" stroke-width="0.9" stroke-linecap="round" stroke-linejoin="round"/>
<path d="M84.9595 110.539C83.5627 110.719 82.1479 110.382 80.9827 109.59C80.9206 109.549 80.8585 109.5 80.7964 109.457C79.6099 108.561 78.8179 107.239 78.5863 105.77C77.5315 107.017 76.4863 108.358 76.1311 109.951C75.7759 111.543 76.3231 113.455 77.7886 114.179C78.0496 114.308 78.3283 114.398 78.616 114.445C79.936 114.663 81.3814 114.025 82.5841 113.313" stroke="var(--illustration-currentColor)" stroke-width="0.9" stroke-linecap="round" stroke-linejoin="round"/>
<path d="M78.6317 114.371C78.026 112.511 79.0277 110.572 80.8181 109.792" stroke="var(--illustration-currentColor)" stroke-width="0.9" stroke-linecap="round" stroke-linejoin="round"/>
<path d="M73.4255 100.552C73.0091 108.415 72.5945 116.276 72.1817 124.137C72.1817 124.154 72.1787 124.172 72.1787 124.19" stroke="var(--illustration-currentColor)" stroke-width="0.9" stroke-linecap="round" stroke-linejoin="round"/>
<path d="M243.419 147.587C238.488 147.527 233.764 147.359 228.315 147.114C227.376 147.073 226.194 146.63 225.396 147.132C224.598 147.635 224.35 148.842 224.563 149.759C224.846 150.973 226.262 151.484 227.476 151.762C228.661 152.032 229.928 152.267 231.237 152.471C234.326 152.94 237.44 153.23 240.562 153.34C241.454 153.372 242.326 153.387 243.162 153.387C243.797 153.384 244.439 153.373 245.077 153.334C246.997 153.219 248.897 152.867 250.525 151.877C253.087 150.314 254.555 147.347 254.933 144.369C255.311 141.392 254.73 138.375 253.979 135.467C253.568 133.889 253.109 132.32 252.593 130.772C252.13 129.363 251.622 127.967 251.072 126.586C250.712 125.676 250.313 124.748 249.606 124.071C248.9 123.395 247.804 123.025 246.918 123.439" stroke="var(--illustration-currentColor)" stroke-width="0.9" stroke-linecap="round" stroke-linejoin="round"/>
<path d="M243.419 147.587C244.114 147.611 244.787 147.62 245.437 147.608C244.757 147.605 244.086 147.596 243.419 147.587Z" stroke="var(--illustration-currentColor)" stroke-width="0.9" stroke-linecap="round" stroke-linejoin="round"/>
<path d="M234.613 141.218C231.541 141.22 228.497 141.303 225.785 141.56C225.019 141.622 224.289 141.909 223.685 142.385C223.097 142.869 222.757 143.738 223.103 144.414C223.496 145.185 224.515 145.295 225.372 145.413C231.394 146.237 238.012 147.404 243.419 147.588" stroke="var(--illustration-currentColor)" stroke-width="0.9" stroke-linecap="round" stroke-linejoin="round"/>
<path d="M234.613 141.218C238.648 141.494 242.694 141.566 246.736 141.43C243.161 141.368 238.856 141.215 234.613 141.218Z" stroke="var(--illustration-currentColor)" stroke-width="0.9" stroke-linecap="round" stroke-linejoin="round"/>
<path d="M247.294 134.965C247.002 135.006 246.712 135.048 246.424 135.085C244.734 135.315 243.059 135.487 241.366 135.617C238.311 135.853 235.191 135.957 231.787 136.028C231.359 136.034 230.924 136.042 230.484 136.051C229.748 136.066 226.939 136.273 226.312 136.66C225.995 136.843 225.737 137.113 225.568 137.438C225.399 137.763 225.326 138.13 225.358 138.495C225.58 140.072 229.819 140.855 234.615 141.216" stroke="var(--illustration-currentColor)" stroke-width="0.9" stroke-linecap="round" stroke-linejoin="round"/>
<path d="M252.69 130.74C256.616 132.046 260.327 134.209 263.01 137.359C265.692 140.508 267.264 144.707 266.798 148.819C266.446 151.891 265.001 154.76 263.125 157.224C260.978 160.016 258.291 162.347 255.224 164.079C252.158 165.81 248.774 166.907 245.275 167.304" stroke="var(--illustration-currentColor)" stroke-width="0.9" stroke-linecap="round" stroke-linejoin="round"/>
<path d="M91.6094 129.612L91.7213 125.857" stroke="var(--illustration-currentColor)" stroke-width="0.9" stroke-linecap="round" stroke-linejoin="round"/>
<path d="M85.3794 129.751V125.858" stroke="var(--illustration-currentColor)" stroke-width="0.9" stroke-linecap="round" stroke-linejoin="round"/>
<path d="M78.7051 130.308C78.9358 129.062 78.8884 127.779 78.5659 126.554" stroke="var(--illustration-currentColor)" stroke-width="0.9" stroke-linecap="round" stroke-linejoin="round"/>
<path d="M72.8693 130.586L72.7295 126.693" stroke="var(--illustration-currentColor)" stroke-width="0.9" stroke-linecap="round" stroke-linejoin="round"/>
<path d="M109.544 145.172L112.664 141.098" stroke="var(--illustration-currentColor)" stroke-width="0.9" stroke-linecap="round" stroke-linejoin="round"/>
<path d="M99.8996 157.117L96.4556 152.739" stroke="var(--illustration-currentColor)" stroke-width="0.9" stroke-linecap="round" stroke-linejoin="round"/>
<path d="M94.9033 142.718C95.6122 141.464 96.7105 140.475 98.032 139.902" stroke="var(--illustration-currentColor)" stroke-width="0.9" stroke-linecap="round" stroke-linejoin="round"/>
<path d="M81.5938 123.952C82.4232 148.636 87.8472 172.949 97.5873 195.645" stroke="var(--illustration-currentColor)" stroke-width="0.9" stroke-linecap="round" stroke-linejoin="round"/>
<path d="M109.841 169.869L106.011 174.499" stroke="var(--illustration-currentColor)" stroke-width="0.9" stroke-linecap="round" stroke-linejoin="round"/>
<path d="M103.037 186.829L100.222 184.326" stroke="var(--illustration-currentColor)" stroke-width="0.9" stroke-linecap="round" stroke-linejoin="round"/>
<path d="M73.6299 153.98L70.5015 152.416" stroke="var(--illustration-currentColor)" stroke-width="0.9" stroke-linecap="round" stroke-linejoin="round"/>
<path d="M61.0962 143.956L63.213 140.779" stroke="var(--illustration-currentColor)" stroke-width="0.9" stroke-linecap="round" stroke-linejoin="round"/>
<path d="M71.1164 183.71L66.7412 179.013" stroke="var(--illustration-currentColor)" stroke-width="0.9" stroke-linecap="round" stroke-linejoin="round"/>
<path d="M76.4458 174.627L79.5745 171.499" stroke="var(--illustration-currentColor)" stroke-width="0.9" stroke-linecap="round" stroke-linejoin="round"/>
<path d="M84.5512 197.196L81.1177 194.995" stroke="var(--illustration-currentColor)" stroke-width="0.9" stroke-linecap="round" stroke-linejoin="round"/>
<path d="M93.6338 229.66L97.0433 227.422" stroke="var(--illustration-currentColor)" stroke-width="0.9" stroke-linecap="round" stroke-linejoin="round"/>
<path d="M75.4495 239.732L72.9487 235.352" stroke="var(--illustration-currentColor)" stroke-width="0.9" stroke-linecap="round" stroke-linejoin="round"/>
<path d="M61.7422 220.303L65.8558 218.183L65.8231 217.487" stroke="var(--illustration-currentColor)" stroke-width="0.9" stroke-linecap="round" stroke-linejoin="round"/>
<path d="M45.4743 221.554L43.5972 216.861" stroke="var(--illustration-currentColor)" stroke-width="0.9" stroke-linecap="round" stroke-linejoin="round"/>
<path d="M48.9155 202.783L52.0439 201.219" stroke="var(--illustration-currentColor)" stroke-width="0.9" stroke-linecap="round" stroke-linejoin="round"/>
<path d="M33.5859 195.9L30.4575 193.398" stroke="var(--illustration-currentColor)" stroke-width="0.9" stroke-linecap="round" stroke-linejoin="round"/>
<path d="M36.9727 179.573L40.7419 176.148" stroke="var(--illustration-currentColor)" stroke-width="0.9" stroke-linecap="round" stroke-linejoin="round"/>
<path d="M36.4055 165.551L33.5894 162.424" stroke="var(--illustration-currentColor)" stroke-width="0.9" stroke-linecap="round" stroke-linejoin="round"/>
<path d="M44.5356 155.231L47.9769 152.103" stroke="var(--illustration-currentColor)" stroke-width="0.9" stroke-linecap="round" stroke-linejoin="round"/>
<path d="M250.7 162.844L250.283 159.09" stroke="var(--illustration-currentColor)" stroke-width="0.9" stroke-linecap="round" stroke-linejoin="round"/>
<path d="M259.042 149.495L262.379 148.244" stroke="var(--illustration-currentColor)" stroke-width="0.9" stroke-linecap="round" stroke-linejoin="round"/>
<path d="M95.123 248.227C103.108 240.891 108.841 231.434 111.653 220.962" stroke="var(--illustration-currentColor)" stroke-width="0.9" stroke-linecap="round" stroke-linejoin="round"/>
<path d="M258.009 136.864C258.834 137.448 259.491 138.237 259.918 139.153" stroke="var(--illustration-currentColor)" stroke-width="0.9" stroke-linecap="round" stroke-linejoin="round"/>
<path d="M115.859 64.4998L123.714 59.5471" stroke="var(--illustration-currentColor)" stroke-width="0.9" stroke-linecap="round" stroke-linejoin="round"/>
<path d="M110.707 61.7515C113.475 54.4087 116.437 47.1436 119.593 39.9559" stroke="var(--illustration-currentColor)" stroke-width="0.9" stroke-linecap="round" stroke-linejoin="round"/>
<path d="M105.853 58.2496L104.915 49.4896" stroke="var(--illustration-currentColor)" stroke-width="0.9" stroke-linecap="round" stroke-linejoin="round"/>
<path d="M132.132 68.7445L135.264 68.0485" stroke="var(--illustration-currentColor)" stroke-width="0.9" stroke-linecap="round" stroke-linejoin="round"/>
<path d="M133.84 70.1451L132.782 66.3204" stroke="var(--illustration-currentColor)" stroke-width="0.9" stroke-linecap="round" stroke-linejoin="round"/>
<path d="M140.137 45.8827L136.2 45.1846" stroke="var(--illustration-currentColor)" stroke-width="0.9" stroke-linecap="round" stroke-linejoin="round"/>
<path d="M137.693 47.8612L138.389 43.6846" stroke="var(--illustration-currentColor)" stroke-width="0.9" stroke-linecap="round" stroke-linejoin="round"/>
<path d="M12.0656 188.39C11.8397 208.835 22.4456 229.09 39.3773 240.551" stroke="var(--illustration-currentColor)" stroke-width="0.9" stroke-linecap="round" stroke-linejoin="round"/>
<path d="M85.4215 60.5049L82.7515 58.3365" stroke="var(--illustration-currentColor)" stroke-width="0.9" stroke-linecap="round" stroke-linejoin="round"/>
<path d="M82.5859 61.1722L85.0759 57.6622" stroke="var(--illustration-currentColor)" stroke-width="0.9" stroke-linecap="round" stroke-linejoin="round"/>
<path d="M55.4276 102.161L50.2217 98.2563" stroke="var(--illustration-currentColor)" stroke-width="0.9" stroke-linecap="round" stroke-linejoin="round"/>
<path d="M50.8198 103.689L54.8278 96.7291" stroke="var(--illustration-currentColor)" stroke-width="0.9" stroke-linecap="round" stroke-linejoin="round"/>
<path d="M65.9127 60.6601L62.748 58.6501" stroke="var(--illustration-currentColor)" stroke-width="0.9" stroke-linecap="round" stroke-linejoin="round"/>
<path d="M62.6147 62.1976L65.7689 56.1844" stroke="var(--illustration-currentColor)" stroke-width="0.9" stroke-linecap="round" stroke-linejoin="round"/>
<path d="M27.5503 114.765C29.3575 114.718 31.1319 115.253 32.6112 116.292C34.0905 117.332 35.1963 118.819 35.7654 120.535C36.3342 122.251 36.3363 124.104 35.7708 125.821C35.2053 127.538 34.1022 129.028 32.625 130.07C31.0113 131.208 28.7575 131.723 27.064 130.707C25.3705 129.691 24.964 126.815 26.6545 125.793C27.7021 125.159 29.1409 125.461 30.0444 126.289C30.948 127.117 31.3725 128.36 31.4688 129.581C31.5597 130.94 31.293 132.3 30.6954 133.525C30.0975 134.749 29.1894 135.796 28.0615 136.56C25.0426 138.555 21.0142 138.201 17.7508 139.764C16.4432 140.39 15.2968 141.308 14.4002 142.448C13.5035 143.587 12.8804 144.917 12.579 146.335C12.2776 147.753 12.3058 149.222 12.6615 150.628C13.0172 152.033 13.691 153.338 14.6308 154.442" stroke="var(--illustration-currentColor)" stroke-width="0.9" stroke-linecap="round" stroke-linejoin="round"/>
<path d="M262.623 99.2701C258.769 103.752 258.384 110.862 261.732 115.733C262.686 117.122 263.959 118.365 265.554 118.907C267.149 119.45 269.098 119.156 270.214 117.894C271.329 116.631 271.244 114.38 269.84 113.448C267.908 112.166 265.151 114.269 265.049 116.585C264.946 118.9 266.567 120.931 268.319 122.448C271.389 125.104 275.463 127.461 276.009 131.484C276.163 132.854 275.87 134.237 275.173 135.426C274.476 136.616 273.413 137.548 272.144 138.084" stroke="var(--illustration-currentColor)" stroke-width="0.9" stroke-linecap="round" stroke-linejoin="round"/>
<path d="M16.784 132.706L13.2632 130.412" stroke="var(--illustration-currentColor)" stroke-width="0.9" stroke-linecap="round" stroke-linejoin="round"/>
<path d="M13.7725 133.228L16.2751 129.891" stroke="var(--illustration-currentColor)" stroke-width="0.9" stroke-linecap="round" stroke-linejoin="round"/>
<path d="M78.7944 46.3726L80.6964 47.9833C80.7537 48.0322 80.7948 48.097 80.814 48.1699C80.8335 48.2425 80.8299 48.3193 80.8044 48.3901C80.7786 48.4606 80.7318 48.5218 80.6706 48.565C80.6091 48.6085 80.5356 48.6319 80.4606 48.6322L77.9679 48.6451C77.895 48.6457 77.8242 48.6676 77.7639 48.7081C77.7036 48.7489 77.6568 48.8065 77.6292 48.8737L76.6851 51.1804C76.6566 51.25 76.6074 51.3094 76.5441 51.3502C76.4811 51.391 76.407 51.4114 76.3317 51.4087C76.2567 51.4063 76.1841 51.3808 76.1238 51.3358C76.0638 51.2905 76.0188 51.2281 75.9951 51.1567L75.213 48.79C75.1902 48.721 75.1473 48.6604 75.09 48.6157C75.0327 48.5707 74.9634 48.544 74.8908 48.5386L72.405 48.3532C72.33 48.3478 72.2586 48.3193 72.2001 48.2719C72.1419 48.2242 72.0996 48.16 72.0786 48.0877C72.0579 48.0157 72.06 47.9386 72.084 47.8675C72.1083 47.7964 72.1539 47.7343 72.2145 47.6896L74.2245 46.2142C74.283 46.1713 74.3277 46.1119 74.3526 46.0435C74.3775 45.9751 74.3814 45.901 74.3643 45.8302L73.7721 43.4089C73.7541 43.336 73.7592 43.2592 73.7862 43.189C73.8132 43.1188 73.8612 43.0585 73.9236 43.0165C73.986 42.9742 74.0598 42.9523 74.1351 42.9535C74.2104 42.9547 74.2833 42.9787 74.3445 43.0225L76.3686 44.4775C76.4277 44.5201 76.4979 44.5441 76.5705 44.5465C76.6431 44.5492 76.7151 44.53 76.7769 44.4916L78.8967 43.1803C78.9606 43.141 79.035 43.1218 79.1103 43.126C79.1853 43.1302 79.2573 43.1572 79.3167 43.2034C79.3758 43.2496 79.4196 43.3129 79.4418 43.3849C79.464 43.4566 79.4637 43.5337 79.4409 43.6051L78.6828 45.9796C78.6606 46.0489 78.6591 46.1233 78.6792 46.1932C78.699 46.2631 78.7389 46.3255 78.7944 46.3726Z" fill="var(--illustration-currentColor)"/>
<g opacity="0.1">
<path d="M96.5883 82.7436C95.3187 82.7436 94.1994 83.6028 92.9934 83.9466C91.5963 84.3153 90.1698 84.5616 88.7298 84.6825C85.9605 84.9672 83.1603 85.0098 80.5308 86.0325C77.9547 87.036 75.9408 88.7088 74.676 91.1901C74.0883 92.3439 73.656 93.5709 73.0599 94.7202C72.495 95.8077 71.5698 96.6222 71.0922 97.7406C70.5645 98.9757 71.1537 100.515 72.6822 100.513C75.6798 100.508 76.9152 97.3596 77.9109 95.0055C78.9414 92.5695 80.1078 90.7524 82.6986 89.8137C85.3242 88.8624 88.1142 88.6785 90.8376 88.1802C93.0318 87.7785 97.1172 86.7876 97.7445 84.261C97.7907 84.0828 97.7961 83.8968 97.7598 83.7165C97.7235 83.5362 97.6467 83.3664 97.5354 83.2203C97.4241 83.0739 97.2807 82.9548 97.1166 82.872C96.9525 82.7892 96.7716 82.7448 96.5877 82.7421L96.5883 82.7436Z" fill="var(--illustration-currentColor)"/>
</g>
<g opacity="0.1">
<path d="M68.7726 125.825C68.7498 129.351 65.5626 131.132 62.7426 132.446C59.9301 133.757 57.0726 134.901 54.3426 136.39C48.8409 139.39 43.7304 142.862 39.1677 147.176C29.7601 156.07 22.4401 168.09 19.9618 180.87C18.7289 187.077 18.7932 193.472 20.1507 199.652C21.5082 205.833 24.1296 211.666 27.85 216.785C35.1198 226.885 45.2661 234.173 56.6598 238.977C71.2641 245.135 87.2268 247.495 102.936 248.697C106.058 248.937 106.824 243.691 103.683 243.172C90.2688 240.957 76.6533 239.348 63.7695 234.781C52.737 230.87 42.5814 224.531 35.0895 215.438C27.8341 206.63 24.178 195.298 26.0371 183.927C28.0591 171.56 34.707 160.276 43.3722 151.382C47.9343 146.7 53.07 142.5 58.8108 139.355C61.8603 137.685 65.3595 136.558 68.0571 134.323C70.626 132.193 72.3834 128.803 71.4522 125.462C71.0391 123.981 68.7822 124.276 68.7726 125.825Z" fill="var(--illustration-currentColor)"/>
</g>
<mask id="mask1_28_12859" style="mask-type:luminance" maskUnits="userSpaceOnUse" x="143" y="117" width="73" height="31">
<path d="M215.478 118.695L144.566 117.3L143.999 146.094L214.912 147.49L215.478 118.695Z" fill="white"/>
</mask>
<g mask="url(#mask1_28_12859)">
<path fill-rule="evenodd" clip-rule="evenodd" d="M207.888 147.351C211.761 147.427 214.965 144.21 215.044 140.166H215.044L215.322 126.018C215.402 121.974 212.327 118.633 208.454 118.557L180.706 118.011C176.834 117.935 173.629 121.152 173.55 125.196L173.272 139.344C173.192 143.388 176.267 146.729 180.139 146.805L207.888 147.351ZM180.511 125.688L180.21 140.975L182.719 141.025L183.02 125.737L185.914 125.794L185.974 122.77L177.675 122.607L177.615 125.631L180.511 125.688ZM193.461 141.236L193.732 127.485L191.373 127.438L191.2 136.222C191.184 137.023 191.128 137.591 191.036 137.931C190.867 138.523 190.547 138.814 190.076 138.805C189.641 138.796 189.355 138.516 189.221 137.966C189.146 137.648 189.116 137.12 189.13 136.383L189.307 127.397L187.042 127.353L186.83 138.155C186.786 140.365 187.518 141.485 189.025 141.515C189.96 141.534 190.68 140.97 191.188 139.825L191.161 141.191L193.461 141.236ZM195.844 122.965L195.484 141.276L197.714 141.319L197.742 139.881C198.097 141.092 198.771 141.706 199.764 141.726C200.954 141.749 201.76 140.901 202.178 139.182C202.401 138.267 202.533 136.741 202.575 134.603C202.618 132.4 202.556 130.85 202.385 129.951C202.053 128.17 201.289 127.267 200.098 127.244C199.164 127.225 198.49 127.722 198.078 128.734L198.19 123.011L195.844 122.965ZM197.989 131.991C198.163 130.583 198.571 129.886 199.212 129.898C199.788 129.91 200.125 130.546 200.224 131.81C200.243 132.031 200.238 132.94 200.206 134.532C200.176 136.07 200.144 136.968 200.109 137.229C199.961 138.479 199.603 139.098 199.032 139.087C198.42 139.075 198.048 138.555 197.915 137.531C197.869 137.197 197.859 136.361 197.885 135.022C197.919 133.286 197.953 132.276 197.989 131.991ZM210.964 136.86L208.759 136.817C208.724 138.614 208.312 139.504 207.522 139.488C206.992 139.478 206.65 139.023 206.498 138.123C206.424 137.686 206.398 136.955 206.419 135.932C206.427 135.497 206.442 135.203 206.462 135.053L211.067 135.143L211.088 134.099C211.138 131.55 210.939 129.853 210.488 129.004C209.93 127.957 209.028 127.42 207.779 127.395C206.482 127.37 205.534 127.831 204.931 128.778C204.563 129.356 204.316 130.207 204.188 131.33C204.125 131.883 204.08 132.813 204.055 134.12C204.022 135.744 204.027 136.85 204.068 137.438C204.16 138.778 204.411 139.8 204.824 140.507C205.343 141.396 206.213 141.854 207.433 141.878C208.613 141.901 209.489 141.555 210.064 140.843C210.638 140.128 210.941 138.98 210.972 137.395C210.973 137.332 210.973 137.243 210.968 137.128C210.964 137.013 210.963 136.924 210.964 136.86ZM208.757 132.914L206.486 132.87C206.488 132.743 206.487 132.613 206.483 132.479L206.474 132.288C206.455 131.45 206.556 130.807 206.775 130.36C206.957 130 207.256 129.824 207.67 129.832C208.166 129.842 208.491 130.113 208.643 130.646C208.742 130.98 208.784 131.543 208.768 132.334L208.757 132.914Z" fill="var(--illustration-currentColor)"/>
<path d="M147.681 140.439L147.835 132.632L144.487 121.954L147.287 122.009L149.202 128.977L151.363 122.09L154.084 122.143L150.382 132.681L150.228 140.489L147.681 140.439ZM154.729 133.667C154.776 131.285 154.982 129.6 155.348 128.61C155.893 127.139 156.929 126.417 158.455 126.448C159.979 126.478 160.989 127.238 161.482 128.731C161.809 129.725 161.949 131.418 161.902 133.808C161.855 136.197 161.649 137.883 161.283 138.864C160.732 140.327 159.693 141.044 158.168 141.014C156.642 140.984 155.636 140.223 155.149 138.731C154.822 137.737 154.682 136.049 154.729 133.667ZM157.144 133.894C157.111 135.606 157.101 136.537 157.115 136.688C157.213 137.925 157.575 138.549 158.199 138.561C158.823 138.574 159.215 138.052 159.376 136.996C159.409 136.765 159.441 135.902 159.471 134.405L159.497 133.056C159.525 131.654 159.524 130.81 159.495 130.523C159.369 129.469 159.006 128.936 158.406 128.924C157.822 128.913 157.448 129.368 157.284 130.289C157.232 130.582 157.193 131.358 157.169 132.616L157.144 133.894ZM170.494 127.054L170.221 140.883L167.909 140.837L167.936 139.463C167.425 140.615 166.7 141.182 165.761 141.163C164.245 141.133 163.509 140.007 163.553 137.785L163.766 126.921L166.044 126.966L165.866 136.002C165.852 136.744 165.882 137.274 165.957 137.594C166.092 138.147 166.38 138.429 166.817 138.437C167.291 138.447 167.613 138.154 167.782 137.56C167.875 137.218 167.932 136.646 167.947 135.841L168.121 127.007L170.494 127.054Z" fill="var(--illustration-currentColor)"/>
</g>
</g>
<defs>
<linearGradient id="paint0_linear_28_12859" x1="255.959" y1="130.74" x2="255.959" y2="167.304" gradientUnits="userSpaceOnUse">
<stop stop-color="#FF9A34"/>
<stop offset="1" stop-color="#EB6421"/>
</linearGradient>
<linearGradient id="paint1_linear_28_12859" x1="122.159" y1="123.424" x2="122.159" y2="248.417" gradientUnits="userSpaceOnUse">
<stop stop-color="#FF9A34"/>
<stop offset="1" stop-color="#EB6421"/>
</linearGradient>
</defs>
</svg>
