<svg width="288" height="288" viewBox="0 0 288 288" fill="none" xmlns="http://www.w3.org/2000/svg">
<mask id="mask0_28_12840" style="mask-type:luminance" maskUnits="userSpaceOnUse" x="11" y="25" width="266" height="238">
<path d="M276.599 25.5H11.3994V262.8H276.599V25.5Z" fill="white"/>
</mask>
<g mask="url(#mask0_28_12840)">
<path d="M232.206 214.77C231.779 215.303 231.185 215.676 230.521 215.83C229.889 215.981 229.227 215.944 228.617 215.724C228.006 215.504 227.473 215.11 227.083 214.592C226.803 214.199 226.623 213.745 226.558 213.268C226.493 212.79 226.545 212.304 226.709 211.852C226.873 211.399 227.145 210.993 227.501 210.669C227.857 210.344 228.286 210.111 228.752 209.989C231.26 209.343 234.215 212.186 232.206 214.77Z" fill="var(--illustration-currentColor)"/>
<path d="M228.949 145.266C226.241 146.396 222.994 146.104 220.409 144.677C218.444 143.59 216.05 141.298 214.944 138.842L214.35 135.777C214.695 132.179 218.79 129.308 221.663 127.817C222.945 127.104 224.332 126.602 225.773 126.332C224.493 128.415 223.695 130.758 223.435 133.19C223.329 134.264 223.36 135.348 223.528 136.415C223.645 137.157 223.835 137.885 224.095 138.59C225.043 141.172 226.854 143.423 228.949 145.266Z" fill="url(#paint0_linear_28_12840)"/>
<path d="M223.835 133.23L223.435 133.19C223.694 130.759 224.493 128.416 225.773 126.332C226.562 126.202 227.368 126.22 228.151 126.385C230.406 126.881 232.153 128.735 233.207 130.79C234.454 133.161 234.855 135.887 234.343 138.517C234.077 139.822 233.541 141.056 232.769 142.141C231.998 143.227 231.009 144.139 229.864 144.82C229.569 144.988 229.264 145.138 228.949 145.267C226.854 143.424 225.043 141.172 224.094 138.591L224.244 138.538C225.618 138.622 227.081 138.424 228.172 137.583C229.262 136.742 229.82 135.112 229.124 133.923C228.634 133.083 227.633 132.633 226.662 132.589C225.684 132.593 224.719 132.812 223.835 133.23Z" fill="var(--illustration-currentColor)"/>
<path d="M208.548 108.405C207.466 108.729 206.307 108.686 205.253 108.282C204.198 107.878 203.307 107.135 202.719 106.171C202.358 105.564 202.121 104.892 202.021 104.193C201.922 103.493 201.962 102.781 202.14 102.098C202.321 101.358 202.668 100.669 203.154 100.083C203.856 99.2422 204.804 98.6434 205.865 98.3713C206.927 98.0995 208.046 98.1682 209.066 98.5678C210.086 98.9674 210.954 99.6778 211.548 100.599C212.142 101.519 212.431 102.603 212.375 103.697C212.333 104.67 212.012 105.612 211.45 106.408C210.74 107.387 209.716 108.092 208.548 108.405Z" fill="var(--illustration-currentColor)"/>
<path d="M185.557 44.8271L184.673 45.0734C180.748 44.4173 164.83 41.9897 161.404 45.2234C160.304 46.2614 159.959 47.3519 160.033 48.3809L159.666 48.4148C153.845 48.3164 148.029 48.7994 142.303 49.8566C143.914 47.8325 146.32 46.5602 148.813 45.8609C151.306 45.1616 153.909 44.9909 156.49 44.8229C151.642 44.0618 146.74 43.6919 141.832 43.7168C144.697 41.5727 148.308 40.6082 151.878 40.3772C155.449 40.1462 159.029 40.6022 162.578 41.0582C157.844 39.5063 152.956 38.4692 148 37.9649C153.499 35.7407 159.713 37.0007 165.505 38.2853C162.455 37.3733 159.407 36.4616 156.361 35.5496C161.897 33.8369 167.865 35.3618 173.422 37.01C175.8 37.7156 178.194 38.4548 180.363 39.6593C182.532 40.8638 184.488 42.5873 185.557 44.8271Z" fill="var(--illustration-currentColor)"/>
<path d="M185.55 45.2245C185.55 45.2245 185.359 46.0645 185.35 50.3353H185.07C185.07 50.3353 172.066 46.7461 163.147 53.2714C163.147 53.2714 160.22 51.0214 160.033 48.3814C159.958 47.3524 160.303 46.2619 161.403 45.2239C164.829 41.989 180.747 44.4166 184.672 45.0739C185.233 45.1657 185.55 45.2245 185.55 45.2245Z" fill="url(#paint1_linear_28_12840)"/>
<path d="M102.034 130.796C103.883 100.352 143.027 72.0457 164.554 73.2781C165.059 73.3057 165.494 73.6909 165.866 74.2915V74.2945C167.447 76.8424 167.927 83.2813 167.927 83.2813C167.927 83.2813 159.662 94.372 162.271 99.8095C164.881 105.247 187.09 97.8499 187.09 97.8499C187.09 97.8499 187.506 99.2272 187.949 101.193C188.224 102.4 188.507 103.83 188.71 105.299C189.253 109.16 189.253 113.291 187.09 114.378C183.692 116.088 163.177 118.873 150.543 117.028L143.137 130.796H102.034Z" fill="url(#paint2_linear_28_12840)"/>
<path d="M133.486 203.828C134.48 207.657 134.982 211.597 134.98 215.553C134.98 216.382 134.958 217.206 134.912 218.024C134.276 229.658 129.273 240.623 120.904 248.729C112.535 256.835 101.416 261.486 89.7675 261.75C78.1194 262.016 66.7998 257.876 58.0707 250.159C49.3416 242.442 43.8456 231.715 42.6807 220.122C41.5158 208.529 44.7678 196.923 51.7869 187.624C58.806 178.324 69.0756 172.015 80.5437 169.957C92.0118 167.899 103.834 170.244 113.649 176.523C123.463 182.802 130.547 192.553 133.486 203.828Z" stroke="var(--illustration-currentColor)" stroke-width="1.2" stroke-linecap="round" stroke-linejoin="round"/>
<path d="M275.899 215.553C275.907 224.735 273.19 233.714 268.093 241.352C262.996 248.99 255.748 254.945 247.266 258.462C238.784 261.98 229.449 262.902 220.442 261.113C211.435 259.323 203.162 254.902 196.669 248.409C190.176 241.916 185.755 233.642 183.965 224.636C182.176 215.629 183.098 206.294 186.615 197.812C190.133 189.33 196.087 182.082 203.725 176.985C211.364 171.888 220.342 169.171 229.525 169.178C241.824 169.178 253.62 174.064 262.317 182.761C271.013 191.458 275.899 203.253 275.899 215.553Z" stroke="var(--illustration-currentColor)" stroke-width="1.2" stroke-linecap="round" stroke-linejoin="round"/>
<path d="M90.1767 202.91C92.9805 203.103 95.6067 204.352 97.5252 206.406C99.4437 208.46 100.511 211.166 100.513 213.976C100.514 214.483 100.478 214.99 100.408 215.492C100.117 217.601 99.225 219.581 97.839 221.197C96.453 222.812 94.6311 223.995 92.5911 224.603C90.5514 225.212 88.3794 225.22 86.3346 224.628C84.2901 224.035 82.4592 222.867 81.0606 221.262C79.662 219.657 78.7548 217.684 78.4473 215.577C78.1398 213.471 78.4452 211.32 79.3269 209.383C80.2083 207.445 81.6291 205.802 83.4192 204.65C85.2093 203.498 87.2931 202.885 89.4219 202.885C89.613 202.885 89.8041 202.891 89.9919 202.901" stroke="var(--illustration-currentColor)" stroke-width="0.9243" stroke-linecap="round" stroke-linejoin="round"/>
<path d="M169.022 206.138C171.283 207.727 173.087 209.881 174.256 212.384C175.424 214.888 175.916 217.654 175.683 220.407C175.449 223.16 174.498 225.803 172.924 228.074C171.35 230.345 169.208 232.163 166.712 233.348" stroke="var(--illustration-currentColor)" stroke-width="0.9243" stroke-linecap="round" stroke-linejoin="round"/>
<path d="M89.4219 202.885C89.4219 202.885 89.619 202.891 89.9919 202.901L90.1767 202.91C91.335 202.944 93.7566 203.018 96.9606 203.107C106.501 203.377 122.968 203.8 133.486 203.827C138.166 203.842 141.668 203.778 142.864 203.59" stroke="var(--illustration-currentColor)" stroke-width="0.9243" stroke-linecap="round" stroke-linejoin="round"/>
<path d="M89.4219 225.067L120.966 229.524L132.3 231.126L149.121 233.505" stroke="var(--illustration-currentColor)" stroke-width="0.9243" stroke-linecap="round" stroke-linejoin="round"/>
<path d="M181.684 142.114H181.687L214.248 135.253L214.349 135.777L214.944 138.842L220.985 169.964L228.752 209.989L229.525 213.976" stroke="var(--illustration-currentColor)" stroke-width="0.9243" stroke-linecap="round" stroke-linejoin="round"/>
<path d="M128.094 162.419L116.045 178.165L96.9603 203.107L95.6601 204.808L88.1709 214.592L100.408 215.492L134.912 218.024L143.785 218.677" stroke="var(--illustration-currentColor)" stroke-width="0.9243" stroke-linecap="round" stroke-linejoin="round"/>
<path d="M207.507 103.506L208.549 108.405L214.248 135.253L168.841 204.524" stroke="var(--illustration-currentColor)" stroke-width="0.9243" stroke-linecap="round" stroke-linejoin="round"/>
<path d="M165.868 74.2944C167.448 76.8423 167.929 83.2812 167.929 83.2812C167.929 83.2812 159.663 94.3719 162.273 99.8094C164.882 105.247 187.091 97.8498 187.091 97.8498C187.091 97.8498 187.507 99.2271 187.951 101.193C188.225 102.4 188.508 103.83 188.712 105.299C189.254 109.16 189.254 113.291 187.092 114.378C183.693 116.088 163.179 118.873 150.544 117.028C147.106 116.525 144.254 115.681 142.485 114.378C134.22 108.288 142.485 92.85 142.485 92.85" stroke="var(--illustration-currentColor)" stroke-width="0.9243" stroke-linecap="round" stroke-linejoin="round"/>
<path d="M150.544 117.025V117.028L143.137 130.796H102.034C103.883 100.352 143.027 72.0457 164.554 73.2781C165.059 73.3057 165.494 73.6909 165.866 74.2915" stroke="var(--illustration-currentColor)" stroke-width="0.9243" stroke-linecap="round" stroke-linejoin="round"/>
<path d="M139.003 181.576C139.003 181.576 134.552 170.029 128.239 162.302C126.449 160.109 124.509 158.227 122.479 157C116.592 153.448 104.645 144.607 107.692 130.795" stroke="var(--illustration-currentColor)" stroke-width="0.9243" stroke-linecap="round" stroke-linejoin="round"/>
<path d="M143.138 130.795C143.138 130.795 174.466 131.381 181.688 142.114C182.719 143.609 183.234 145.401 183.151 147.216C182.497 162.872 166.481 181.26 166.481 181.26" stroke="var(--illustration-currentColor)" stroke-width="0.9243" stroke-linecap="round" stroke-linejoin="round"/>
<path d="M144.133 140.475C144.133 140.475 160.303 152.98 166.481 181.261C168.12 188.905 168.911 196.707 168.838 204.524C168.838 205.057 168.831 205.593 168.822 206.135C168.703 212.107 168.188 218.064 167.279 223.967" stroke="var(--illustration-currentColor)" stroke-width="0.9243" stroke-linecap="round" stroke-linejoin="round"/>
<path d="M167.928 83.2803C167.928 83.2803 185.975 73.2771 185.541 60.2268C185.393 55.7412 185.347 52.5681 185.35 50.3346C185.359 46.0647 185.55 45.2238 185.55 45.2238C185.55 45.2238 185.233 45.1638 184.672 45.0738C180.747 44.4177 164.829 41.9901 161.403 45.2238C160.303 46.2618 159.958 47.3523 160.033 48.3813C160.22 51.0213 163.147 53.2713 163.147 53.2713L165.867 74.2911V74.2941" stroke="var(--illustration-currentColor)" stroke-width="0.9243" stroke-linecap="round" stroke-linejoin="round"/>
<path d="M185.069 50.3355C185.069 50.3355 172.066 46.7463 163.147 53.2716" stroke="var(--illustration-currentColor)" stroke-width="0.9243" stroke-linecap="round" stroke-linejoin="round"/>
<path d="M172.784 73.2002C172.292 73.4381 171.746 73.5401 171.201 73.4957C170.656 73.4513 170.133 73.262 169.686 72.9473C169.24 72.6326 168.885 72.2042 168.66 71.7065C168.434 71.2085 168.346 70.6595 168.404 70.1162" stroke="var(--illustration-currentColor)" stroke-width="0.9243" stroke-linecap="round" stroke-linejoin="round"/>
<path d="M173.948 67.6123C175.02 67.7047 176.333 67.6798 176.869 66.7495C177.22 66.1426 177.081 65.3848 176.929 64.7008C176.289 61.771 175.649 58.8409 175.009 55.9108C174.904 55.4365 174.809 54.9097 175.052 54.4876C175.317 54.0286 175.887 53.8591 176.405 53.7421C178.23 53.3323 180.084 53.0677 181.95 52.9504" stroke="var(--illustration-currentColor)" stroke-width="0.9243" stroke-linecap="round" stroke-linejoin="round"/>
<path d="M181.08 58.0589C180.684 57.7136 180.197 57.4883 179.677 57.4097C179.157 57.3311 178.625 57.4025 178.144 57.6152" stroke="var(--illustration-currentColor)" stroke-width="0.9243" stroke-linecap="round" stroke-linejoin="round"/>
<path d="M171.625 58.3763C171.143 58.0577 170.564 57.9164 169.989 57.9764C169.414 58.0367 168.877 58.2947 168.471 58.7063" stroke="var(--illustration-currentColor)" stroke-width="0.9243" stroke-linecap="round" stroke-linejoin="round"/>
<path d="M185.557 44.8271C184.488 42.5873 182.531 40.8653 180.363 39.6605C178.194 38.4557 175.8 37.7168 173.422 37.0112C167.864 35.363 161.896 33.8381 156.361 35.5508C159.407 36.4628 162.455 37.3748 165.504 38.2865C159.712 37.0019 153.499 35.7419 147.999 37.9661C152.956 38.4707 157.843 39.5078 162.577 41.0594C159.028 40.6034 155.452 40.1474 151.878 40.3784C148.304 40.6094 144.697 41.5739 141.832 43.718C146.74 43.6934 151.642 44.0633 156.49 44.8241C153.908 44.9933 151.302 45.1628 148.813 45.8621C146.323 46.5614 143.914 47.8337 142.303 49.8578C148.028 48.8009 153.844 48.3179 159.666 48.416" stroke="var(--illustration-currentColor)" stroke-width="0.9243" stroke-linecap="round" stroke-linejoin="round"/>
<path d="M208.548 108.405C207.466 108.729 206.307 108.686 205.253 108.282C204.198 107.878 203.307 107.135 202.719 106.171C202.358 105.564 202.121 104.892 202.021 104.193C201.922 103.493 201.962 102.781 202.14 102.098C202.321 101.358 202.668 100.669 203.154 100.083C203.856 99.2422 204.804 98.6434 205.865 98.3713C206.927 98.0995 208.046 98.1682 209.066 98.5678C210.086 98.9674 210.954 99.6778 211.548 100.599C212.142 101.519 212.431 102.603 212.375 103.697C212.333 104.67 212.012 105.612 211.45 106.408C210.74 107.387 209.716 108.092 208.548 108.405Z" stroke="var(--illustration-currentColor)" stroke-width="0.9243" stroke-linecap="round" stroke-linejoin="round"/>
<path d="M188.067 101.165C191.413 98.6232 194.82 96.0477 198.747 94.5627C202.674 93.0777 207.278 92.8038 210.959 94.8276C214.641 96.8514 216.959 101.55 215.436 105.466C215.072 106.393 214.435 107.308 213.476 107.57C212.518 107.832 211.301 107.39 211.449 106.408" stroke="var(--illustration-currentColor)" stroke-width="0.9243" stroke-linecap="round" stroke-linejoin="round"/>
<path d="M189.014 105.27C192.933 103.421 197.166 102.329 201.491 102.051" stroke="var(--illustration-currentColor)" stroke-width="0.9243" stroke-linecap="round" stroke-linejoin="round"/>
<path d="M214.349 135.777C214.694 132.179 218.789 129.307 221.663 127.816C222.944 127.104 224.332 126.602 225.773 126.331C226.562 126.201 227.369 126.219 228.151 126.384C230.407 126.88 232.153 128.734 233.207 130.789C234.454 133.16 234.855 135.886 234.344 138.516C234.077 139.821 233.541 141.055 232.77 142.14C231.998 143.226 231.009 144.138 229.864 144.819C229.57 144.987 229.264 145.137 228.949 145.266C226.241 146.396 222.994 146.103 220.41 144.677C218.444 143.59 216.05 141.298 214.944 138.842C214.528 137.982 214.317 137.037 214.328 136.082C214.331 135.98 214.337 135.879 214.349 135.777Z" stroke="var(--illustration-currentColor)" stroke-width="0.9243" stroke-linecap="round" stroke-linejoin="round"/>
<path d="M225.773 126.33C224.493 128.414 223.694 130.757 223.435 133.188C223.329 134.263 223.359 135.347 223.527 136.414C223.644 137.155 223.834 137.884 224.094 138.589C225.043 141.17 226.854 143.422 228.949 145.265" stroke="var(--illustration-currentColor)" stroke-width="0.9243" stroke-linecap="round" stroke-linejoin="round"/>
<path d="M224.245 138.537C225.619 138.621 227.082 138.423 228.173 137.582C229.263 136.742 229.821 135.112 229.125 133.922C228.635 133.082 227.634 132.632 226.663 132.589C225.685 132.592 224.719 132.811 223.835 133.229C223.878 133.18 223.918 133.131 223.961 133.082" stroke="var(--illustration-currentColor)" stroke-width="0.9243" stroke-linecap="round" stroke-linejoin="round"/>
<path d="M139.003 181.575C140.581 185.503 141.982 194.182 142.864 203.59C143.335 208.615 143.659 213.846 143.785 218.677C143.831 220.587 143.85 222.432 143.834 224.179C143.819 226.069 143.951 228.31 145.556 229.309C146.394 229.833 147.442 229.864 148.431 229.857C148.566 229.857 148.701 229.854 148.837 229.851C153.186 229.782 157.516 229.249 161.752 228.261C162.292 228.135 162.836 228 163.366 227.827C164.15 227.594 164.892 227.238 165.563 226.77C166.567 226.037 167.026 225.202 167.275 223.98C167.275 223.977 167.279 223.971 167.279 223.968C167.303 223.845 167.325 223.718 167.347 223.586" stroke="var(--illustration-currentColor)" stroke-width="0.9243" stroke-linecap="round" stroke-linejoin="round"/>
<path d="M148.822 229.792C148.829 229.812 148.834 229.832 148.837 229.852C149.142 231.045 149.238 232.281 149.121 233.506C149.077 234.27 149.007 235.036 148.971 235.795C148.872 237.807 149.103 240.025 150.526 241.448C151.184 242.071 151.983 242.523 152.855 242.767C153.767 243.025 154.698 243.205 155.64 243.307L169.618 245.155C170.111 245.223 170.608 245.287 171.099 245.352C172.933 245.592 174.824 245.832 176.608 245.346C178.392 244.86 180.058 243.457 180.265 241.621C180.539 239.172 178.201 237.173 175.85 236.437C173.499 235.7 170.93 235.725 168.666 234.757C167.919 234.436 167.222 234.011 166.596 233.494C164.91 232.113 163.784 230.166 163.429 228.016" stroke="var(--illustration-currentColor)" stroke-width="0.9243" stroke-linecap="round" stroke-linejoin="round"/>
<path d="M152.716 243.19C152.334 243.799 152.051 244.465 151.878 245.162C151.794 245.512 151.793 245.877 151.877 246.227C151.96 246.577 152.125 246.902 152.358 247.177C152.9 247.738 153.744 247.855 154.524 247.941C158.254 248.348 161.986 248.755 165.719 249.164C166.813 249.281 167.983 249.386 168.945 248.856C169.906 248.326 170.365 246.111 169.595 245.329" stroke="var(--illustration-currentColor)" stroke-width="0.9243" stroke-linecap="round" stroke-linejoin="round"/>
<path d="M227.199 210.987C226.796 211.496 226.567 212.121 226.546 212.77C226.525 213.419 226.713 214.058 227.082 214.592C227.473 215.11 228.006 215.504 228.616 215.724C229.227 215.944 229.889 215.981 230.52 215.83C231.185 215.676 231.778 215.303 232.205 214.771C234.215 212.186 231.26 209.342 228.752 209.989C228.143 210.151 227.6 210.5 227.199 210.987Z" stroke="var(--illustration-currentColor)" stroke-width="0.9243" stroke-linecap="round" stroke-linejoin="round"/>
<path d="M104.142 248.052C111.702 244.124 117.718 237.386 120.966 229.524C122.012 226.998 122.76 224.359 123.196 221.659" stroke="var(--illustration-currentColor)" stroke-width="0.9243" stroke-linecap="round" stroke-linejoin="round"/>
<path d="M52.5018 213.098C50.7396 203.097 55.0683 192.269 63.2418 186.24" stroke="var(--illustration-currentColor)" stroke-width="0.9243" stroke-linecap="round" stroke-linejoin="round"/>
<path d="M194.266 232.155C189.041 224.325 188.197 213.763 192.109 205.199" stroke="var(--illustration-currentColor)" stroke-width="0.9243" stroke-linecap="round" stroke-linejoin="round"/>
<path d="M259.692 239.416C268.182 230.199 270.942 216.101 266.562 204.364" stroke="var(--illustration-currentColor)" stroke-width="0.9243" stroke-linecap="round" stroke-linejoin="round"/>
<path d="M161.017 50.3486C160.636 49.2614 161.518 48.0572 162.604 47.6729C163.69 47.2886 164.887 47.5019 166.013 47.7422C167.14 47.9825 168.315 48.2462 169.429 47.9537C171.133 47.5067 172.454 45.8189 174.215 45.8672C176.045 45.9173 177.377 47.8424 179.2 48.0065C180.19 48.0965 181.137 47.6465 182.104 47.4182C183.07 47.1899 184.267 47.2718 184.811 48.1028" stroke="var(--illustration-currentColor)" stroke-width="0.9243" stroke-linecap="round" stroke-linejoin="round"/>
<path d="M223.247 145.58C221.422 143.175 220.255 140.338 219.859 137.345C219.463 134.353 219.852 131.309 220.989 128.513" stroke="var(--illustration-currentColor)" stroke-width="0.9243" stroke-linecap="round" stroke-linejoin="round"/>
<path d="M236.11 129.168C236.308 128.437 236.673 127.762 237.177 127.197" stroke="var(--illustration-currentColor)" stroke-width="0.9243" stroke-linecap="round" stroke-linejoin="round"/>
<path d="M238.896 134.182L246.891 131.298" stroke="var(--illustration-currentColor)" stroke-width="0.9243" stroke-linecap="round" stroke-linejoin="round"/>
<path d="M238.609 139.924L241.33 142.204" stroke="var(--illustration-currentColor)" stroke-width="0.9243" stroke-linecap="round" stroke-linejoin="round"/>
<path d="M87.9092 76.1923L123.129 75.1897" stroke="var(--illustration-currentColor)" stroke-width="0.9243" stroke-linecap="round" stroke-linejoin="round"/>
<path d="M72.8813 101.351L86.9231 100.706" stroke="var(--illustration-currentColor)" stroke-width="0.9243" stroke-linecap="round" stroke-linejoin="round"/>
<path d="M43.2144 128.785L81.0522 126.812" stroke="var(--illustration-currentColor)" stroke-width="0.9243" stroke-linecap="round" stroke-linejoin="round"/>
<path d="M68.0034 155.171L80.0727 154.519" stroke="var(--illustration-currentColor)" stroke-width="0.9243" stroke-linecap="round" stroke-linejoin="round"/>
<path d="M181.742 115.683C182.225 110.465 182.076 105.208 181.296 100.026" stroke="var(--illustration-currentColor)" stroke-width="0.9243" stroke-linecap="round" stroke-linejoin="round"/>
<path d="M165.289 86.7419C164.179 81.908 161.565 77.5505 157.823 74.2952L158.359 74.6903" stroke="var(--illustration-currentColor)" stroke-width="0.9243" stroke-linecap="round" stroke-linejoin="round"/>
<path d="M103.451 122.57C117.537 122.898 131.596 123.791 145.626 125.249" stroke="var(--illustration-currentColor)" stroke-width="0.9243" stroke-linecap="round" stroke-linejoin="round"/>
<path d="M155.755 93.4997L154.891 90.6707" stroke="var(--illustration-currentColor)" stroke-width="0.9243" stroke-linecap="round" stroke-linejoin="round"/>
<path d="M143.79 83.7155L145.747 83.1716" stroke="var(--illustration-currentColor)" stroke-width="0.9243" stroke-linecap="round" stroke-linejoin="round"/>
<path d="M151.281 106.443L150.631 104.159" stroke="var(--illustration-currentColor)" stroke-width="0.9243" stroke-linecap="round" stroke-linejoin="round"/>
<path d="M168.25 112.308L169.664 110.895" stroke="var(--illustration-currentColor)" stroke-width="0.9243" stroke-linecap="round" stroke-linejoin="round"/>
<path d="M131.937 99.5903L129.436 99.4817" stroke="var(--illustration-currentColor)" stroke-width="0.9243" stroke-linecap="round" stroke-linejoin="round"/>
<path d="M113.555 112.851L114.965 110.891" stroke="var(--illustration-currentColor)" stroke-width="0.9243" stroke-linecap="round" stroke-linejoin="round"/>
<path d="M130.696 120.763L129.475 118.165" stroke="var(--illustration-currentColor)" stroke-width="0.9243" stroke-linecap="round" stroke-linejoin="round"/>
<path d="M144.745 118.671L142.148 119.682" stroke="var(--illustration-currentColor)" stroke-width="0.9243" stroke-linecap="round" stroke-linejoin="round"/>
<path d="M149.126 238.416C154.269 239.861 159.514 240.91 164.763 241.903C169.801 242.857 175.179 243.732 179.919 241.775" stroke="var(--illustration-currentColor)" stroke-width="0.9243" stroke-linecap="round" stroke-linejoin="round"/>
<path d="M172.057 235.825C170.394 236.384 168.925 237.406 167.823 238.771" stroke="var(--illustration-currentColor)" stroke-width="0.9243" stroke-linecap="round" stroke-linejoin="round"/>
<path d="M167.153 234.386C165.641 235.008 164.331 236.037 163.37 237.36" stroke="var(--illustration-currentColor)" stroke-width="0.9243" stroke-linecap="round" stroke-linejoin="round"/>
<path d="M164.019 231.282C162.533 231.837 161.262 232.852 160.394 234.181" stroke="var(--illustration-currentColor)" stroke-width="0.9243" stroke-linecap="round" stroke-linejoin="round"/>
<path fill-rule="evenodd" clip-rule="evenodd" d="M168.822 206.135C168.703 212.107 168.188 218.064 167.279 223.966C167.279 223.97 167.275 223.976 167.275 223.979C167.026 225.202 166.567 226.037 165.563 226.769C164.892 227.236 164.15 227.593 163.366 227.826C162.836 227.998 162.291 228.134 161.752 228.26C157.516 229.248 153.187 229.781 148.837 229.85L148.834 229.851C148.699 229.854 148.566 229.856 148.431 229.856C147.441 229.863 146.394 229.832 145.556 229.308C143.951 228.31 143.819 226.07 143.834 224.178C143.85 222.431 143.831 220.586 143.785 218.676C143.659 213.846 143.335 208.614 142.864 203.589C141.982 194.181 140.581 185.502 139.003 181.574C139.003 181.574 134.552 170.028 128.239 162.301C126.449 160.107 124.509 158.225 122.479 156.999C116.592 153.447 104.645 144.605 107.692 130.794H143.138C143.138 130.794 174.466 131.379 181.688 142.113C182.72 143.608 183.234 145.4 183.151 147.215C182.497 162.872 166.481 181.26 166.481 181.26C168.12 188.904 168.911 196.706 168.838 204.523C168.838 205.057 168.831 205.593 168.822 206.135ZM180.24 141.469C180.284 141.72 180.115 141.96 179.863 142.003C172.525 143.266 169.013 143.785 165.868 144.25L165.547 144.298C162.322 144.775 159.362 145.219 152.843 146.393C152.592 146.438 152.352 146.271 152.306 146.02C152.261 145.769 152.428 145.528 152.679 145.483C159.21 144.307 162.179 143.862 165.412 143.383L165.733 143.336C168.874 142.871 172.379 142.353 179.707 141.092C179.958 141.049 180.197 141.217 180.24 141.469ZM137.649 138.525C137.404 138.452 137.147 138.592 137.074 138.836C137.001 139.081 137.141 139.338 137.385 139.411C142.029 140.793 146.062 143.889 149.184 147.657C152.307 151.426 154.577 155.844 156.527 160.384C161.568 172.14 164.521 184.683 165.255 197.452C165.27 197.707 165.488 197.901 165.743 197.887C165.998 197.872 166.192 197.654 166.178 197.399C165.438 184.523 162.46 171.874 157.376 160.02C155.413 155.448 153.101 150.936 149.896 147.067C146.689 143.198 142.512 139.973 137.649 138.525Z" fill="var(--illustration-currentColor)"/>
<path d="M255.291 58.6383C254.394 56.7579 253.002 55.1568 251.264 54.0069C249.527 52.8573 247.509 52.2018 245.428 52.1112C243.346 52.0206 241.28 52.4982 239.449 53.4924C237.618 54.4869 236.092 55.9608 235.035 57.7563C233.582 60.225 233.152 63.4989 234.693 65.9145C236.233 68.3301 240.07 69.1887 242.068 67.1358C244.486 64.6518 242.343 59.9658 238.983 59.112C235.624 58.2582 232.123 60.1815 229.759 62.7171C227.396 65.2527 225.783 68.3979 223.539 71.0403C216.97 78.7761 204.804 81.0585 195.879 76.2303" stroke="var(--illustration-currentColor)" stroke-width="0.9243" stroke-linecap="round" stroke-linejoin="round"/>
<path d="M41.4297 158.227C44.5797 161.95 44.7222 167.885 41.7582 171.757C40.4493 173.467 38.391 174.828 36.2589 174.531C34.1268 174.234 32.3997 171.665 33.5037 169.816C34.2315 168.596 35.8983 168.152 37.2558 168.571C38.6133 168.99 39.6636 170.112 40.3182 171.374C41.0622 172.873 41.3397 174.561 41.1147 176.219C40.89 177.878 40.173 179.431 39.0567 180.678C36.2736 183.676 31.7595 184.154 27.6697 184.224C23.5798 184.294 19.1776 184.237 15.8257 186.581C11.7778 189.413 10.645 195.653 13.4386 199.727" stroke="var(--illustration-currentColor)" stroke-width="0.9243" stroke-linecap="round" stroke-linejoin="round"/>
<path d="M232.08 45.224V40.4402" stroke="var(--illustration-currentColor)" stroke-width="0.9243" stroke-linecap="round" stroke-linejoin="round"/>
<path d="M229.035 42.6146C230.823 42.8927 232.653 42.5876 234.255 41.7446" stroke="var(--illustration-currentColor)" stroke-width="0.9243" stroke-linecap="round" stroke-linejoin="round"/>
<path d="M239.473 114.378L243.388 112.638" stroke="var(--illustration-currentColor)" stroke-width="0.9243" stroke-linecap="round" stroke-linejoin="round"/>
<path d="M242.083 116.118L240.343 111.768" stroke="var(--illustration-currentColor)" stroke-width="0.9243" stroke-linecap="round" stroke-linejoin="round"/>
<path d="M119.868 43.9203L116.823 41.7456" stroke="var(--illustration-currentColor)" stroke-width="0.9243" stroke-linecap="round" stroke-linejoin="round"/>
<path d="M116.459 45.2744L119.922 40.478" stroke="var(--illustration-currentColor)" stroke-width="0.9243" stroke-linecap="round" stroke-linejoin="round"/>
<path d="M141.18 29.1318L144.224 26.0874" stroke="var(--illustration-currentColor)" stroke-width="0.9243" stroke-linecap="round" stroke-linejoin="round"/>
<path d="M144.224 29.1318L140.744 26.0874" stroke="var(--illustration-currentColor)" stroke-width="0.9243" stroke-linecap="round" stroke-linejoin="round"/>
<path d="M270.788 177.008L274.702 174.398" stroke="var(--illustration-currentColor)" stroke-width="0.9243" stroke-linecap="round" stroke-linejoin="round"/>
<path d="M273.431 178.293L270.814 173.948" stroke="var(--illustration-currentColor)" stroke-width="0.9243" stroke-linecap="round" stroke-linejoin="round"/>
<path d="M264.264 157.436L268.179 156.566" stroke="var(--illustration-currentColor)" stroke-width="0.9243" stroke-linecap="round" stroke-linejoin="round"/>
<path d="M266.381 160.056L265.489 154.84" stroke="var(--illustration-currentColor)" stroke-width="0.9243" stroke-linecap="round" stroke-linejoin="round"/>
<path d="M136.92 197.451C137.072 189.267 134.98 181.198 130.868 174.12" stroke="var(--illustration-currentColor)" stroke-width="0.9243" stroke-linecap="round" stroke-linejoin="round"/>
<path d="M163.216 129.624C169.51 129.718 175.6 131.88 180.543 135.778" stroke="var(--illustration-currentColor)" stroke-width="0.9243" stroke-linecap="round" stroke-linejoin="round"/>
<path d="M115.821 93.2234C124.143 84.2582 134.543 77.4776 146.103 73.4795" stroke="var(--illustration-currentColor)" stroke-width="0.9243" stroke-linecap="round" stroke-linejoin="round"/>
<path d="M178.582 36.0054C175.782 33.0936 171.524 32.1372 167.496 31.8354C163.468 31.5336 159.342 31.7349 155.479 30.5547" stroke="var(--illustration-currentColor)" stroke-width="0.9243" stroke-linecap="round" stroke-linejoin="round"/>
<path d="M26.9015 178.639L24.2915 175.377" stroke="var(--illustration-currentColor)" stroke-width="0.9243" stroke-linecap="round" stroke-linejoin="round"/>
<path d="M23.313 178.639L26.2488 175.703" stroke="var(--illustration-currentColor)" stroke-width="0.9243" stroke-linecap="round" stroke-linejoin="round"/>
<path d="M27.2277 197.884L24.6177 195.927" stroke="var(--illustration-currentColor)" stroke-width="0.9243" stroke-linecap="round" stroke-linejoin="round"/>
<path d="M24.292 198.21L26.2492 195.274" stroke="var(--illustration-currentColor)" stroke-width="0.9243" stroke-linecap="round" stroke-linejoin="round"/>
<path d="M144.025 121.112L142.605 117.309" stroke="var(--illustration-currentColor)" stroke-width="0.9243" stroke-linecap="round" stroke-linejoin="round"/>
<path d="M128.132 120.794L131.274 118.28" stroke="var(--illustration-currentColor)" stroke-width="0.9243" stroke-linecap="round" stroke-linejoin="round"/>
<path d="M115.192 113.073L112.799 111.007" stroke="var(--illustration-currentColor)" stroke-width="0.9243" stroke-linecap="round" stroke-linejoin="round"/>
<path d="M130.693 100.788L130.614 97.96" stroke="var(--illustration-currentColor)" stroke-width="0.9243" stroke-linecap="round" stroke-linejoin="round"/>
<path d="M144.979 84.6956L144.305 82.0913" stroke="var(--illustration-currentColor)" stroke-width="0.9243" stroke-linecap="round" stroke-linejoin="round"/>
<path d="M153.67 92.9361L156.896 90.9861L156.619 91.1103" stroke="var(--illustration-currentColor)" stroke-width="0.9243" stroke-linecap="round" stroke-linejoin="round"/>
<path d="M148.981 106.288L152.025 104.439" stroke="var(--illustration-currentColor)" stroke-width="0.9243" stroke-linecap="round" stroke-linejoin="round"/>
<path d="M169.884 113.073L167.601 110.355" stroke="var(--illustration-currentColor)" stroke-width="0.9243" stroke-linecap="round" stroke-linejoin="round"/>
<path d="M84.2849 50.24C84.8795 51.8336 84.9824 53.5688 84.5807 55.2212C84.1787 56.8739 83.2907 58.3682 82.031 59.5109C80.7713 60.6539 79.1981 61.3928 77.5142 61.6322C75.8303 61.8716 74.1134 61.6007 72.5849 60.8546C71.0147 60.0878 69.6212 58.6841 69.4319 56.9468C69.2426 55.2095 70.7 53.312 72.4364 53.507C73.8059 53.6606 74.7764 54.9419 75.2597 56.2328C75.8489 57.8087 75.9626 59.5229 75.5861 61.1627C75.2099 62.8028 74.3606 64.2959 73.1435 65.4575C71.9264 66.6191 70.3949 67.3979 68.7392 67.697C67.0835 67.9964 65.3765 67.8029 63.8297 67.1408C60.6449 65.7767 58.622 62.6897 56.4005 60.0308C54.179 57.3719 51.0875 54.8366 47.6537 55.2995C45.4559 55.5959 43.5689 57.1229 42.3602 58.982C41.1515 60.8411 40.5302 63.0152 40.0181 65.1728" stroke="var(--illustration-currentColor)" stroke-width="0.9243" stroke-linecap="round" stroke-linejoin="round"/>
<path d="M206.802 43.0774L208.785 44.7574C208.845 44.8081 208.888 44.8759 208.908 44.9515C208.928 45.0274 208.924 45.1075 208.898 45.1813C208.871 45.2548 208.822 45.3187 208.758 45.364C208.694 45.409 208.618 45.4336 208.539 45.4342L205.94 45.4474C205.864 45.4477 205.79 45.4708 205.727 45.5137C205.664 45.5563 205.615 45.6166 205.587 45.6874L204.602 48.0907C204.573 48.1633 204.521 48.2251 204.455 48.2677C204.39 48.3103 204.312 48.3316 204.234 48.3289C204.155 48.3262 204.079 48.2995 204.017 48.2524C203.954 48.2053 203.907 48.1402 203.882 48.0658L203.067 45.5983C203.043 45.526 202.998 45.4627 202.939 45.4162C202.879 45.3694 202.807 45.3415 202.731 45.3358L200.139 45.1429C200.061 45.1369 199.986 45.1072 199.926 45.0577C199.865 45.0082 199.821 44.941 199.799 44.8657C199.778 44.7904 199.779 44.7103 199.805 44.6359C199.83 44.5618 199.877 44.497 199.94 44.4508L202.035 42.9124C202.097 42.8674 202.143 42.8053 202.169 42.7342C202.195 42.6628 202.199 42.5854 202.181 42.5119L201.564 39.9874C201.545 39.9112 201.55 39.8311 201.579 39.7579C201.607 39.6847 201.657 39.622 201.722 39.5782C201.787 39.5344 201.864 39.5113 201.942 39.5125C202.021 39.5137 202.097 39.5389 202.16 39.5848L204.271 41.1007C204.333 41.1448 204.406 41.1697 204.482 41.1724C204.558 41.1751 204.632 41.155 204.697 41.1154L206.907 39.7483C206.974 39.7069 207.052 39.6871 207.13 39.6913C207.208 39.6958 207.284 39.7237 207.345 39.772C207.407 39.8203 207.453 39.8863 207.476 39.9613C207.499 40.0363 207.499 40.1164 207.475 40.1914L206.684 42.667C206.661 42.7393 206.66 42.8167 206.681 42.8899C206.702 42.9628 206.744 43.0282 206.802 43.0774Z" fill="var(--illustration-currentColor)"/>
<g opacity="0.1">
<path d="M89.915 203.243C88.187 201.992 84.845 203.381 83.2895 204.407C81.0812 205.823 79.4696 208.001 78.7613 210.527C77.3063 215.807 79.8893 221.505 84.5735 224.199C88.0088 226.175 91.1513 220.657 87.6539 218.929C85.0313 217.634 83.1995 214.691 83.8439 211.709C84.2111 210.192 84.9896 208.805 86.0939 207.702C86.6456 207.106 87.2918 206.605 88.0064 206.219C88.703 205.854 89.618 205.523 90.1292 204.921C90.2411 204.803 90.3254 204.662 90.3758 204.508C90.4262 204.354 90.4418 204.19 90.4211 204.029C90.4004 203.868 90.344 203.714 90.2561 203.578C90.1682 203.441 90.0509 203.326 89.9129 203.241L89.915 203.243Z" fill="var(--illustration-currentColor)"/>
</g>
<g opacity="0.1">
<path d="M164.334 73.0907C158.479 73.2272 152.81 74.7563 147.354 76.8368C131.155 82.9259 117.6 94.4969 109.044 109.54C107.477 112.312 106.081 115.177 104.866 118.12C104.242 119.615 103.667 121.128 103.139 122.659C102.507 124.507 101.656 126.338 102.747 128.184C103.137 128.822 103.76 129.285 104.483 129.475C105.208 129.665 105.977 129.568 106.631 129.204C108.209 128.377 108.477 126.824 108.961 125.272C109.37 123.959 109.817 122.659 110.303 121.372C111.184 119.052 112.196 116.785 113.337 114.581C115.686 109.974 118.545 105.645 121.86 101.677C128.784 93.4622 137.506 86.9513 147.35 82.6478C152.977 80.1812 158.974 78.7496 164.887 77.1788C167.134 76.5821 166.707 73.0355 164.334 73.0907Z" fill="var(--illustration-currentColor)"/>
</g>
<g opacity="0.1">
<path d="M163.972 53.3316C163.708 56.8416 164.188 60.3216 164.539 63.8181C164.89 67.3146 165.331 70.8105 165.739 74.3046C165.875 75.4746 166.637 76.4571 167.905 76.4703C168.968 76.4814 170.209 75.4656 170.07 74.3046C169.642 70.7166 169.247 67.1229 168.763 63.5418C168.281 59.9718 167.945 56.3778 166.846 52.9428C166.331 51.3336 164.096 51.6936 163.973 53.3328L163.972 53.3316Z" fill="var(--illustration-currentColor)"/>
</g>
<g opacity="0.1">
<path d="M142.6 93.4449C141.284 94.8189 140.167 95.9301 139.626 97.8468C139.113 99.8037 138.919 101.83 139.05 103.849C139.12 105.8 139.418 107.737 139.938 109.619C140.524 111.592 141.256 113.829 143.257 114.652C144.581 115.196 145.636 113.858 145.767 112.74C145.947 111.197 144.63 109.642 144.087 108.225C143.462 106.673 143.078 105.035 142.949 103.367C142.872 101.765 142.952 100.159 143.189 98.5719C143.403 96.978 143.219 95.3544 143.416 93.783C143.469 93.3603 142.865 93.168 142.6 93.4449H142.6Z" fill="var(--illustration-currentColor)"/>
</g>
<g opacity="0.1">
<path d="M148.971 231.62C148.093 234.894 148.786 239.13 150.529 242.021C151.893 244.284 155.911 242.82 154.95 240.157C154.473 238.835 153.917 237.593 153.606 236.212C153.301 234.862 153.255 233.542 153.096 232.179C152.836 229.974 149.632 229.156 148.971 231.62H148.971Z" fill="var(--illustration-currentColor)"/>
</g>
</g>
<defs>
<linearGradient id="paint0_linear_28_12840" x1="221.649" y1="126.332" x2="221.649" y2="145.959" gradientUnits="userSpaceOnUse">
<stop stop-color="#FFB800"/>
<stop offset="1" stop-color="#FF7F0A"/>
</linearGradient>
<linearGradient id="paint1_linear_28_12840" x1="172.786" y1="43.5814" x2="172.786" y2="53.2714" gradientUnits="userSpaceOnUse">
<stop stop-color="#FFB800"/>
<stop offset="1" stop-color="#FF7F0A"/>
</linearGradient>
<linearGradient id="paint2_linear_28_12840" x1="145.523" y1="73.2394" x2="145.523" y2="130.796" gradientUnits="userSpaceOnUse">
<stop stop-color="#FFB800"/>
<stop offset="1" stop-color="#FF7F0A"/>
</linearGradient>
</defs>
</svg>
