<svg width="288" height="288" viewBox="0 0 288 288" fill="none" xmlns="http://www.w3.org/2000/svg">
<mask id="mask0_28_12853" style="mask-type:luminance" maskUnits="userSpaceOnUse" x="11" y="49" width="266" height="191">
<path d="M276.599 49.1997H11.3994V239.1H276.599V49.1997Z" fill="white"/>
</mask>
<g mask="url(#mask0_28_12853)">
<path fill-rule="evenodd" clip-rule="evenodd" d="M204.662 167.556C199.1 120.582 166.066 130.215 166.066 130.215L165.19 122.899H159.228C157.033 126.922 152.46 129.691 147.172 129.691C141.835 129.691 137.225 126.871 135.052 122.786L134.514 122.899L130.366 123.327L130.882 131.733C130.882 131.733 92.7701 133.307 89.339 176.641L89.249 176.926C95.3093 178.889 101.254 181.193 107.055 183.826C118.972 189.169 129.432 195.131 135.25 198.448C138.225 200.143 139.987 201.148 140.11 201.024C140.11 201.024 160.882 185.857 184.464 175.618V175.615C190.901 172.821 197.547 170.391 204.039 168.741L204.662 167.556ZM175.582 133.267C175.334 133.256 175.123 133.449 175.112 133.697C175.102 133.945 175.294 134.155 175.542 134.167C180.691 134.395 185.613 136.355 189.51 139.728C193.408 143.101 196.053 147.69 197.018 152.753C197.065 152.998 197.3 153.158 197.544 153.111C197.788 153.065 197.949 152.829 197.902 152.585C196.899 147.323 194.15 142.553 190.099 139.047C186.049 135.542 180.934 133.505 175.582 133.267Z" fill="url(#paint0_linear_28_12853)"/>
<path d="M234.235 169.16C225.862 165.355 215.18 165.905 204.039 168.74L204.662 167.555L217.55 143.105L225.434 145.448L236.468 148.727L242.577 150.542L234.426 168.742L234.235 169.16Z" fill="url(#paint1_linear_28_12853)"/>
<path d="M158.472 79.5642C158.603 79.3695 163.365 72.3738 165.693 74.2761C167.99 76.1574 163.228 81.3693 162.985 81.6336C163.267 81.4056 171.014 75.2001 172.558 78.7101C174.129 82.284 163.474 87.432 163.474 87.432C163.474 87.432 142.882 85.788 139.162 88.0764C136.825 89.5164 137.293 96.066 137.965 100.731C137.968 100.755 137.971 100.782 137.974 100.81C138.01 101.205 138.047 102.964 135.804 102.694C133.361 102.399 133.701 100.238 133.725 100.096C133.585 100.339 130.078 106.38 129.939 99.1596C129.796 91.7961 135.874 80.9256 138.949 78.5673C142.025 76.209 146.027 79.1373 146.027 79.1373C146.027 79.1373 146.957 73.7037 150.683 73.7736C154.345 73.8465 153.081 78.411 153.038 78.5631C153.169 78.3684 157.572 71.9931 159.684 72.4881C161.803 72.9846 158.554 79.4001 158.472 79.5642Z" fill="var(--illustration-currentColor)"/>
<path d="M160.615 117.503C160.614 119.39 160.137 121.246 159.229 122.9C157.035 126.924 152.461 129.692 147.173 129.692C141.836 129.692 137.226 126.872 135.053 122.788C134.184 121.162 133.729 119.347 133.728 117.503C133.728 112.741 134.12 107.438 138.825 105.575V105.572C140.775 104.8 143.465 104.618 147.173 105.31C152.488 106.3 157.193 108.748 159.356 112.604C160.193 114.1 160.627 115.789 160.615 117.503ZM151.735 113.419C152.335 111.455 150.568 109.176 147.79 108.331C145.012 107.486 142.277 108.391 141.679 110.358C141.08 112.325 142.849 114.601 145.623 115.446C148.397 116.29 151.136 115.385 151.735 113.419Z" fill="var(--illustration-currentColor)"/>
<path d="M80.3302 154.546L89.3404 176.642L89.2504 176.928C79.8112 173.926 70.4104 172.158 62.3977 172.998V172.995L58.5928 158.835L65.6677 157.437L77.0245 155.197L80.3302 154.546Z" fill="url(#paint2_linear_28_12853)"/>
<path d="M62.3967 172.996L58.5918 158.836L65.6667 157.438L77.0235 155.198L80.3301 154.544L89.3403 176.642C92.7714 133.309 130.884 131.735 130.884 131.735L130.367 123.329L134.515 122.901" stroke="var(--illustration-currentColor)" stroke-width="0.9" stroke-linecap="round" stroke-linejoin="round"/>
<path d="M166.066 130.216C166.066 130.216 199.101 120.582 204.662 167.556" stroke="var(--illustration-currentColor)" stroke-width="0.9" stroke-linecap="round" stroke-linejoin="round"/>
<path d="M184.464 175.619C160.882 185.858 140.11 201.025 140.11 201.025C139.745 201.39 125.064 191.902 107.055 183.828C101.254 181.194 95.3095 178.891 89.2492 176.928C79.81 173.925 70.4092 172.158 62.3965 172.998C53.7172 173.906 46.6576 177.875 42.9316 186.652C38.9716 195.979 40.0111 203.157 43.8586 208.676C55.8385 225.874 95.0599 226.983 95.0599 226.983" stroke="var(--illustration-currentColor)" stroke-width="0.9" stroke-linecap="round" stroke-linejoin="round"/>
<path d="M126.362 225.48C126.362 225.48 126.38 225.48 126.413 225.483C127.48 225.534 144.872 226.349 166.267 225.349C174.795 224.951 183.957 224.264 192.974 223.13C215.305 220.313 236.742 214.73 245.444 203.912C249.641 198.688 250.872 192.242 247.799 184.295C244.839 176.637 240.104 171.829 234.236 169.161C225.864 165.356 215.182 165.906 204.041 168.741C197.549 170.391 190.903 172.821 184.466 175.615" stroke="var(--illustration-currentColor)" stroke-width="0.9" stroke-linecap="round" stroke-linejoin="round"/>
<path d="M126.413 225.482C129.756 223.559 131.956 222.048 131.956 222.048C131.956 222.048 132.172 210.251 119.302 212.825C119.302 212.825 97.5182 220.037 95.8163 227.163C95.4863 228.555 95.9168 229.941 97.421 231.273C103.924 237.022 118.427 230.078 126.413 225.482Z" stroke="var(--illustration-currentColor)" stroke-width="0.9" stroke-linecap="round" stroke-linejoin="round"/>
<path d="M166.066 225.23C166.066 225.23 166.136 225.272 166.267 225.348C168.54 226.679 189.452 238.671 194.718 232.687C200.289 226.357 192.989 223.258 192.989 223.258" stroke="var(--illustration-currentColor)" stroke-width="0.9" stroke-linecap="round" stroke-linejoin="round"/>
<path d="M69.362 145.77C69.3287 145.35 68.8304 138.257 72.962 137.011C77.2199 135.721 82.0487 137.851 81.1949 139.889C80.3411 141.927 77.4083 141.284 74.2871 140.853C71.1659 140.421 72.3938 147.505 72.3938 147.505C72.3938 147.505 73.5275 152.653 76.2746 150.292C79.0217 147.931 77.0375 142.892 79.6844 142.676C82.3313 142.46 82.2827 145.36 80.6903 147.934C79.5689 149.745 77.4203 154.337 77.0222 155.2C76.9796 155.29 76.9553 155.34 76.9553 155.34" stroke="var(--illustration-currentColor)" stroke-width="0.9" stroke-linecap="round" stroke-linejoin="round"/>
<path d="M64.7277 146.003C64.7271 145.999 64.7262 145.995 64.7247 145.991C64.6152 145.514 60.9807 129.583 63.4968 128.948C66.0072 128.316 69.2436 145.148 69.3621 145.769C69.3636 145.775 69.3645 145.781 69.3651 145.787" stroke="var(--illustration-currentColor)" stroke-width="0.9" stroke-linecap="round" stroke-linejoin="round"/>
<path d="M65.5328 156.764C65.5328 156.764 52.3283 133.77 55.8302 131.735C59.2802 129.732 64.5554 145.483 64.7255 145.991" stroke="var(--illustration-currentColor)" stroke-width="0.9" stroke-linecap="round" stroke-linejoin="round"/>
<path d="M234.854 136.798C234.855 136.795 234.856 136.793 234.858 136.792C234.858 136.789 234.861 136.783 234.861 136.78V136.777C234.976 136.345 236.763 129.495 232.941 127.507C228.99 125.455 223.854 126.656 224.316 128.816C224.777 130.977 227.78 130.886 230.929 131.041C234.077 131.195 231.564 137.924 231.564 137.924C231.564 137.924 229.497 142.774 227.233 139.951C224.969 137.128 227.847 132.536 225.285 131.837C222.723 131.138 222.237 133.992 223.328 136.815C224.176 139.012 225.632 144.786 225.632 144.786" stroke="var(--illustration-currentColor)" stroke-width="0.9" stroke-linecap="round" stroke-linejoin="round"/>
<path d="M236.599 148.291C236.599 148.291 253.819 128.128 250.748 125.48C247.678 122.833 239.373 137.864 239.373 137.864C239.373 137.864 246.12 122.432 243.728 121.329C241.385 120.249 235.125 136.114 234.86 136.777" stroke="var(--illustration-currentColor)" stroke-width="0.9" stroke-linecap="round" stroke-linejoin="round"/>
<path d="M204.036 168.744L204.039 168.741L204.662 167.556L217.55 143.107L225.433 145.45L236.468 148.729L242.576 150.543L234.426 168.744" stroke="var(--illustration-currentColor)" stroke-width="0.9" stroke-linecap="round" stroke-linejoin="round"/>
<path d="M178.563 160.225L184.465 175.615V175.618" stroke="var(--illustration-currentColor)" stroke-width="0.9" stroke-linecap="round" stroke-linejoin="round"/>
<path d="M112.206 166.459L107.055 183.827" stroke="var(--illustration-currentColor)" stroke-width="0.9" stroke-linecap="round" stroke-linejoin="round"/>
<path d="M245.439 203.909L245.442 203.912L275.884 234.35C265.266 241.331 11.8823 237.669 11.8823 237.669L43.8601 208.676" stroke="var(--illustration-currentColor)" stroke-width="0.9" stroke-linecap="round" stroke-linejoin="round"/>
<path d="M158.542 122.901H159.229H165.191L166.067 130.216" stroke="var(--illustration-currentColor)" stroke-width="0.9" stroke-linecap="round" stroke-linejoin="round"/>
<path d="M138.825 105.572C140.775 104.8 143.465 104.618 147.173 105.31C152.488 106.3 157.193 108.748 159.356 112.604C160.193 114.1 160.627 115.789 160.615 117.503C160.614 119.39 160.137 121.246 159.229 122.9C157.035 126.924 152.461 129.692 147.173 129.692C141.836 129.692 137.226 126.872 135.053 122.788C134.184 121.162 133.729 119.347 133.728 117.503C133.728 112.741 134.12 107.438 138.825 105.575" stroke="var(--illustration-currentColor)" stroke-width="0.9" stroke-linecap="round" stroke-linejoin="round"/>
<path d="M151.735 113.419C151.135 115.385 148.401 116.29 145.623 115.446C142.845 114.601 141.08 112.321 141.679 110.358C142.277 108.395 145.012 107.486 147.79 108.331C150.568 109.176 152.333 111.455 151.735 113.419Z" stroke="var(--illustration-currentColor)" stroke-width="0.9" stroke-linecap="round" stroke-linejoin="round"/>
<path d="M137.965 100.731C137.293 96.0662 136.825 89.5169 139.162 88.0766C142.882 85.7882 163.474 87.4321 163.474 87.4321C165.693 111.601 159.356 112.604 159.356 112.604" stroke="var(--illustration-currentColor)" stroke-width="0.9" stroke-linecap="round" stroke-linejoin="round"/>
<path d="M138.825 105.576V105.572C138.803 105.478 138.36 103.457 137.974 100.81" stroke="var(--illustration-currentColor)" stroke-width="0.9" stroke-linecap="round" stroke-linejoin="round"/>
<path d="M133.729 100.09C133.728 100.092 133.727 100.094 133.726 100.096C133.701 100.238 133.361 102.399 135.804 102.694C138.047 102.964 138.011 101.205 137.974 100.81C137.971 100.782 137.968 100.755 137.965 100.731" stroke="var(--illustration-currentColor)" stroke-width="0.9" stroke-linecap="round" stroke-linejoin="round"/>
<path d="M153.038 78.5646C153.081 78.4125 154.345 73.848 150.683 73.7751C146.957 73.7052 146.027 79.1388 146.027 79.1388C146.027 79.1388 142.025 76.2063 138.949 78.5688C135.874 80.9313 129.796 91.7988 129.939 99.1611C130.078 106.382 133.585 100.34 133.725 100.097" stroke="var(--illustration-currentColor)" stroke-width="0.9" stroke-linecap="round" stroke-linejoin="round"/>
<path d="M158.472 79.5642C158.554 79.4001 161.802 72.9846 159.684 72.4893C157.572 71.994 153.169 78.3693 153.038 78.5643L153.035 78.5673" stroke="var(--illustration-currentColor)" stroke-width="0.9" stroke-linecap="round" stroke-linejoin="round"/>
<path d="M162.976 81.6429L162.979 81.6396C162.982 81.6396 162.982 81.6366 162.985 81.6336C163.228 81.3693 167.99 76.1574 165.692 74.2761C163.365 72.3738 158.603 79.3695 158.472 79.5642L158.469 79.5672" stroke="var(--illustration-currentColor)" stroke-width="0.9" stroke-linecap="round" stroke-linejoin="round"/>
<path d="M163.474 87.4319C163.474 87.4319 174.129 82.2839 172.558 78.71C171.014 75.2 163.267 81.4055 162.985 81.6335" stroke="var(--illustration-currentColor)" stroke-width="0.9" stroke-linecap="round" stroke-linejoin="round"/>
<path d="M142.523 94.6558C142.523 94.6558 145.028 97.9441 147.173 94.6558" stroke="var(--illustration-currentColor)" stroke-width="0.9" stroke-linecap="round" stroke-linejoin="round"/>
<path d="M154.965 94.1548C154.965 94.1548 157.11 97.5148 159.542 94.1548" stroke="var(--illustration-currentColor)" stroke-width="0.9" stroke-linecap="round" stroke-linejoin="round"/>
<path d="M150.175 104.524H152.965L151.57 89.0063H158.256" stroke="var(--illustration-currentColor)" stroke-width="0.9" stroke-linecap="round" stroke-linejoin="round"/>
<path d="M143.67 110.316C143.67 110.316 145.029 113.343 148.39 112.604" stroke="var(--illustration-currentColor)" stroke-width="0.9" stroke-linecap="round" stroke-linejoin="round"/>
<path d="M181.805 83.7771L185.075 78.9858" stroke="var(--illustration-currentColor)" stroke-width="0.9" stroke-linecap="round" stroke-linejoin="round"/>
<path d="M185.463 83.2146L181.28 79.3533" stroke="var(--illustration-currentColor)" stroke-width="0.9" stroke-linecap="round" stroke-linejoin="round"/>
<path d="M161.057 53.9588L163.297 49.769" stroke="var(--illustration-currentColor)" stroke-width="0.9" stroke-linecap="round" stroke-linejoin="round"/>
<path d="M164.148 53.0779L159.999 50.134" stroke="var(--illustration-currentColor)" stroke-width="0.9" stroke-linecap="round" stroke-linejoin="round"/>
<path d="M137.84 68.091L135.588 64.8735" stroke="var(--illustration-currentColor)" stroke-width="0.9" stroke-linecap="round" stroke-linejoin="round"/>
<path d="M134.944 67.1259L137.84 64.8735" stroke="var(--illustration-currentColor)" stroke-width="0.9" stroke-linecap="round" stroke-linejoin="round"/>
<path d="M111.762 53.6257L108.642 50.3152" stroke="var(--illustration-currentColor)" stroke-width="0.9" stroke-linecap="round" stroke-linejoin="round"/>
<path d="M107.556 53.5769L110.764 50.0288" stroke="var(--illustration-currentColor)" stroke-width="0.9" stroke-linecap="round" stroke-linejoin="round"/>
<path d="M161.652 129.551V126.011" stroke="var(--illustration-currentColor)" stroke-width="0.9" stroke-linecap="round" stroke-linejoin="round"/>
<path d="M155.809 129.87L156.109 125.363" stroke="var(--illustration-currentColor)" stroke-width="0.9" stroke-linecap="round" stroke-linejoin="round"/>
<path d="M140.093 129.872V126.332" stroke="var(--illustration-currentColor)" stroke-width="0.9" stroke-linecap="round" stroke-linejoin="round"/>
<path d="M134.301 129.873L133.657 126.011" stroke="var(--illustration-currentColor)" stroke-width="0.9" stroke-linecap="round" stroke-linejoin="round"/>
<path d="M217.298 149.57C223.68 151.572 230.135 153.319 236.663 154.812" stroke="var(--illustration-currentColor)" stroke-width="0.9" stroke-linecap="round" stroke-linejoin="round"/>
<path d="M62.5581 162.872C68.118 162.454 73.6095 161.385 78.9207 159.689" stroke="var(--illustration-currentColor)" stroke-width="0.9" stroke-linecap="round" stroke-linejoin="round"/>
<path d="M191.256 161.407L192.543 158.511" stroke="var(--illustration-currentColor)" stroke-width="0.9" stroke-linecap="round" stroke-linejoin="round"/>
<path d="M187.072 145.64L183.854 143.387" stroke="var(--illustration-currentColor)" stroke-width="0.9" stroke-linecap="round" stroke-linejoin="round"/>
<path d="M173.236 154.971L175.167 152.075" stroke="var(--illustration-currentColor)" stroke-width="0.9" stroke-linecap="round" stroke-linejoin="round"/>
<path d="M166.478 140.491L163.583 138.883" stroke="var(--illustration-currentColor)" stroke-width="0.9" stroke-linecap="round" stroke-linejoin="round"/>
<path d="M169.431 172.391L171.669 169.483" stroke="var(--illustration-currentColor)" stroke-width="0.9" stroke-linecap="round" stroke-linejoin="round"/>
<path d="M160.365 160.442C159.85 160.353 159.369 160.127 158.972 159.787C158.576 159.447 158.279 159.006 158.112 158.511" stroke="var(--illustration-currentColor)" stroke-width="0.9" stroke-linecap="round" stroke-linejoin="round"/>
<path d="M145.885 148.536L148.459 145.318" stroke="var(--illustration-currentColor)" stroke-width="0.9" stroke-linecap="round" stroke-linejoin="round"/>
<path d="M148.506 175.223L150.074 173.359" stroke="var(--illustration-currentColor)" stroke-width="0.9" stroke-linecap="round" stroke-linejoin="round"/>
<path d="M151.835 187.103L150.549 185.243" stroke="var(--illustration-currentColor)" stroke-width="0.9" stroke-linecap="round" stroke-linejoin="round"/>
<path d="M134.274 188.664C133.802 187.706 133.146 186.849 132.344 186.142" stroke="var(--illustration-currentColor)" stroke-width="0.9" stroke-linecap="round" stroke-linejoin="round"/>
<path d="M134.086 167.949L136.516 165.804" stroke="var(--illustration-currentColor)" stroke-width="0.9" stroke-linecap="round" stroke-linejoin="round"/>
<path d="M120.065 177.256C119.288 176.755 118.706 176.005 118.412 175.129" stroke="var(--illustration-currentColor)" stroke-width="0.9" stroke-linecap="round" stroke-linejoin="round"/>
<path d="M129.713 157.45L127.777 155.524" stroke="var(--illustration-currentColor)" stroke-width="0.9" stroke-linecap="round" stroke-linejoin="round"/>
<path d="M123.39 142.088C123.874 141.461 124.484 140.941 125.18 140.562" stroke="var(--illustration-currentColor)" stroke-width="0.9" stroke-linecap="round" stroke-linejoin="round"/>
<path d="M111.429 152.846L109.604 150.813" stroke="var(--illustration-currentColor)" stroke-width="0.9" stroke-linecap="round" stroke-linejoin="round"/>
<path d="M99.9038 167.088L102.049 165.658" stroke="var(--illustration-currentColor)" stroke-width="0.9" stroke-linecap="round" stroke-linejoin="round"/>
<path d="M80.8942 170.363C79.84 169.86 78.8968 169.151 78.1201 168.279" stroke="var(--illustration-currentColor)" stroke-width="0.9" stroke-linecap="round" stroke-linejoin="round"/>
<path d="M66.4414 168.522L67.5856 167.092" stroke="var(--illustration-currentColor)" stroke-width="0.9" stroke-linecap="round" stroke-linejoin="round"/>
<path d="M127.276 212.18C120.228 214.005 113.933 217.999 109.28 223.598C108.515 224.523 107.766 225.785 108.328 226.845C108.975 228.067 110.742 227.948 112.082 227.607C119.077 225.824 125.688 222.776 131.585 218.612" stroke="var(--illustration-currentColor)" stroke-width="0.9" stroke-linecap="round" stroke-linejoin="round"/>
<path d="M172.773 224.341C175.348 226.347 178.302 227.81 181.457 228.642C182.794 228.994 184.195 229.231 185.555 228.984C186.915 228.736 188.234 227.934 188.802 226.674C189.37 225.414 188.978 223.71 187.764 223.051" stroke="var(--illustration-currentColor)" stroke-width="0.9" stroke-linecap="round" stroke-linejoin="round"/>
<path d="M117.158 227.623L111.258 219.395" stroke="var(--illustration-currentColor)" stroke-width="0.9" stroke-linecap="round" stroke-linejoin="round"/>
<path d="M124.306 224.339L117.628 215.475" stroke="var(--illustration-currentColor)" stroke-width="0.9" stroke-linecap="round" stroke-linejoin="round"/>
<path d="M178.665 228.846L181.949 223.836" stroke="var(--illustration-currentColor)" stroke-width="0.9" stroke-linecap="round" stroke-linejoin="round"/>
<path d="M71.8767 114.105L69.3027 111.102" stroke="var(--illustration-currentColor)" stroke-width="0.9" stroke-linecap="round" stroke-linejoin="round"/>
<path d="M68.9448 114.187L72.1293 111.359" stroke="var(--illustration-currentColor)" stroke-width="0.9" stroke-linecap="round" stroke-linejoin="round"/>
<path d="M217.963 120.327L216.891 116.68" stroke="var(--illustration-currentColor)" stroke-width="0.9" stroke-linecap="round" stroke-linejoin="round"/>
<path d="M215.818 119.039L218.608 117.752" stroke="var(--illustration-currentColor)" stroke-width="0.9" stroke-linecap="round" stroke-linejoin="round"/>
<path d="M256.898 99.6255L260.76 96.408" stroke="var(--illustration-currentColor)" stroke-width="0.9" stroke-linecap="round" stroke-linejoin="round"/>
<path d="M260.438 100.269L257.542 96.7292" stroke="var(--illustration-currentColor)" stroke-width="0.9" stroke-linecap="round" stroke-linejoin="round"/>
<path d="M48.0643 95.1203C48.0517 94.5764 47.9314 94.0406 47.7103 93.5435C47.4895 93.0467 47.1724 92.5982 46.7773 92.2244" stroke="var(--illustration-currentColor)" stroke-width="0.9" stroke-linecap="round" stroke-linejoin="round"/>
<path d="M45.4658 94.4307L49.6505 92.1807" stroke="var(--illustration-currentColor)" stroke-width="0.9" stroke-linecap="round" stroke-linejoin="round"/>
<path fill-rule="evenodd" clip-rule="evenodd" d="M247.797 184.295C244.837 176.636 240.103 171.829 234.234 169.16C225.862 165.355 215.18 165.906 204.039 168.742C197.547 170.392 190.901 172.821 184.464 175.616V175.62C160.882 185.858 140.11 201.026 140.11 201.026C139.987 201.149 138.225 200.145 135.25 198.449C129.432 195.133 118.972 189.171 107.055 183.828C101.254 181.195 95.3097 178.891 89.2491 176.928C79.8099 173.925 70.4103 172.156 62.3964 172.998C53.7171 173.907 46.6575 177.876 42.9315 186.652C38.9718 195.979 40.011 203.156 43.8585 208.676C55.8384 225.873 95.0598 226.983 95.0598 226.983L95.8164 227.163C97.5183 220.036 119.302 212.825 119.302 212.825C132.172 210.251 131.956 222.048 131.956 222.048C131.956 222.048 129.756 223.559 126.413 225.482C127.48 225.534 144.872 226.348 166.267 225.349C174.793 224.95 183.957 224.264 192.973 223.13C215.304 220.313 236.742 214.73 245.442 203.911C249.639 198.688 250.87 192.242 247.797 184.295ZM201.867 173.184C207.829 171.738 213.904 170.643 219.985 170.907C226.063 171.172 232.176 172.879 236.962 176.552C241.747 180.227 245.038 186.027 244.886 192.004C244.879 192.253 245.076 192.46 245.324 192.466C245.572 192.472 245.779 192.276 245.785 192.028C245.946 185.71 242.479 179.654 237.51 175.839C232.54 172.023 226.232 170.278 220.024 170.008C213.816 169.738 207.644 170.857 201.655 172.31C201.413 172.368 201.265 172.612 201.323 172.853C201.382 173.095 201.625 173.243 201.867 173.184Z" fill="var(--illustration-currentColor)"/>
<g opacity="0.1">
<path d="M162.828 86.7119C159.798 85.8158 156.281 86.1023 153.155 86.1149C149.959 86.1275 146.63 86.2085 143.491 86.8649C140.748 87.4388 138.372 88.9727 137.113 91.5311C135.703 94.3946 135.941 97.8911 136.448 100.948C136.848 103.358 140.905 102.814 140.73 100.369C140.554 97.9229 140.087 95.5307 140.952 93.1493C141.824 90.7493 143.947 90.1472 146.254 89.7044C148.907 89.1797 151.594 88.8497 154.294 88.7168C157.024 88.5995 159.847 89.0168 162.554 88.7279C163.658 88.6106 164.005 87.0599 162.827 86.7113L162.828 86.7119Z" fill="var(--illustration-currentColor)"/>
</g>
<g opacity="0.1">
<path d="M130.91 124.224C130.358 127.018 130.442 129.845 130.418 132.682L132.556 130.545C128.203 130.425 123.7 131.759 119.686 133.35C113.418 135.778 107.727 139.49 102.979 144.248C98.2304 149.007 94.5302 154.705 92.1158 160.979C90.2498 165.793 89.1611 170.873 88.8905 176.03C88.7105 179.21 93.6656 179.204 93.8405 176.03C94.2428 168.238 96.7406 160.7 101.071 154.21C105.401 147.72 111.403 142.52 118.444 139.157C123.154 136.871 128.095 135.981 133.125 134.743C133.574 134.615 133.97 134.346 134.253 133.974C134.536 133.602 134.69 133.149 134.694 132.682C134.572 129.848 134.572 126.996 133.921 124.224C133.579 122.768 131.211 122.703 130.911 124.224H130.91Z" fill="var(--illustration-currentColor)"/>
</g>
<g opacity="0.1">
<path d="M60.0482 159.146C58.13 160.394 59.2919 163.004 59.705 164.782C60.2636 167.186 60.6899 169.623 61.2266 172.034C61.8695 174.923 66.2603 173.696 65.6534 170.814C65.1038 168.204 64.3229 165.68 63.5414 163.134C63.2141 162.068 62.9078 160.438 62.0825 159.643C61.6505 159.226 60.6335 158.765 60.0482 159.146Z" fill="var(--illustration-currentColor)"/>
</g>
</g>
<defs>
<linearGradient id="paint0_linear_28_12853" x1="146.956" y1="122.786" x2="146.956" y2="201.034" gradientUnits="userSpaceOnUse">
<stop stop-color="#FF9A34"/>
<stop offset="1" stop-color="#EB6421"/>
</linearGradient>
<linearGradient id="paint1_linear_28_12853" x1="223.308" y1="143.105" x2="223.308" y2="169.16" gradientUnits="userSpaceOnUse">
<stop stop-color="#FF9A34"/>
<stop offset="1" stop-color="#EB6421"/>
</linearGradient>
<linearGradient id="paint2_linear_28_12853" x1="73.9666" y1="154.546" x2="73.9666" y2="176.928" gradientUnits="userSpaceOnUse">
<stop stop-color="#FF9A34"/>
<stop offset="1" stop-color="#EB6421"/>
</linearGradient>
</defs>
</svg>
