<svg width="288" height="288" viewBox="0 0 288 288" fill="none" xmlns="http://www.w3.org/2000/svg">
<mask id="mask0_28_12849" style="mask-type:luminance" maskUnits="userSpaceOnUse" x="43" y="11" width="202" height="266">
<path d="M244.8 11.4H43.5V276.9H244.8V11.4Z" fill="white"/>
</mask>
<g mask="url(#mask0_28_12849)">
<path fill-rule="evenodd" clip-rule="evenodd" d="M127.478 255.276C127.478 262.927 141.497 269.13 158.793 269.13C176.085 269.13 190.104 262.926 190.104 255.277C190.104 248.227 178.906 242.41 163.514 241.537L163.293 241.555L164.383 255.276H154.237L153.076 241.626C138.343 242.75 127.478 248.436 127.478 255.276ZM172.729 243.408C172.414 243.306 172.076 243.479 171.974 243.794C171.872 244.11 172.045 244.448 172.36 244.55C178.698 246.601 182.063 248.779 183.625 250.809C184.396 251.811 184.725 252.773 184.768 253.678C184.811 254.589 184.566 255.487 184.118 256.357C183.215 258.114 181.528 259.672 179.996 260.817C179.237 261.384 178.531 261.838 178.005 262.154C177.742 262.312 177.525 262.435 177.37 262.519C177.292 262.561 177.232 262.592 177.191 262.613C177.165 262.626 177.152 262.632 177.148 262.634C176.854 262.75 176.699 263.077 176.8 263.381C176.905 263.696 177.244 263.866 177.559 263.761C177.619 263.741 177.691 263.704 177.727 263.686L177.73 263.685C177.785 263.657 177.857 263.62 177.942 263.574C178.113 263.481 178.345 263.35 178.622 263.183C179.177 262.851 179.917 262.374 180.714 261.778C182.294 260.598 184.156 258.907 185.185 256.906C185.704 255.898 186.022 254.791 185.966 253.622C185.911 252.447 185.481 251.253 184.576 250.077C182.787 247.752 179.132 245.481 172.729 243.408Z" fill="var(--illustration-currentColor)"/>
<path fill-rule="evenodd" clip-rule="evenodd" d="M186.163 167.527C186.853 165.602 187.157 163.562 187.058 161.52L184.682 112.328L114.752 115.706L117.128 164.899C117.227 166.94 117.726 168.943 118.599 170.791C119.471 172.64 120.699 174.298 122.212 175.672C123.725 177.046 125.494 178.109 127.419 178.799C129.342 179.489 131.383 179.794 133.425 179.696L172.265 177.817C174.306 177.719 176.308 177.219 178.157 176.347C180.005 175.475 181.664 174.247 183.038 172.733C184.411 171.22 185.474 169.451 186.163 167.527ZM182.223 121.15C182.202 120.819 181.916 120.569 181.586 120.59C181.255 120.612 181.004 120.897 181.026 121.228L181.624 121.189C181.026 121.228 181.026 121.228 181.026 121.228V121.229L181.026 121.233L181.027 121.25L181.032 121.319C181.035 121.379 181.041 121.468 181.048 121.584C181.063 121.817 181.085 122.16 181.112 122.599C181.167 123.476 181.244 124.737 181.335 126.269C181.515 129.333 181.749 133.483 181.959 137.825C182.169 142.169 182.356 146.702 182.444 150.535C182.532 154.385 182.519 157.481 182.34 158.98C181.987 161.927 180.51 164.457 179.092 166.269C178.386 167.171 177.702 167.885 177.196 168.373C176.943 168.617 176.736 168.803 176.592 168.927C176.521 168.99 176.466 169.036 176.429 169.067C176.418 169.076 176.409 169.083 176.401 169.089C176.396 169.094 176.391 169.097 176.388 169.1L176.379 169.108L176.377 169.109L176.377 169.109C176.118 169.316 176.075 169.693 176.281 169.952C176.487 170.212 176.865 170.255 177.124 170.048L176.751 169.579C177.124 170.048 177.124 170.048 177.124 170.048L177.125 170.048L177.126 170.046L177.13 170.043L177.144 170.032C177.156 170.022 177.173 170.008 177.195 169.99C177.238 169.954 177.301 169.902 177.379 169.833C177.537 169.697 177.76 169.496 178.029 169.237C178.566 168.719 179.29 167.963 180.037 167.008C181.526 165.106 183.142 162.372 183.531 159.123C183.723 157.523 183.731 154.337 183.643 150.508C183.555 146.66 183.368 142.115 183.157 137.768C182.947 133.419 182.713 129.265 182.532 126.198C182.442 124.665 182.365 123.403 182.31 122.524C182.283 122.085 182.261 121.742 182.246 121.508C182.241 121.436 182.238 121.375 182.234 121.325L182.229 121.241L182.225 121.173L182.223 121.156L182.223 121.151V121.15C182.223 121.15 182.223 121.15 181.624 121.189L182.223 121.15Z" fill="var(--illustration-currentColor)"/>
<path d="M203.779 112.201C203.799 112.631 203.647 113.052 203.358 113.371C203.068 113.689 202.664 113.88 202.234 113.901L198.47 114.083C198.039 114.103 197.619 113.952 197.3 113.662C196.981 113.372 196.79 112.968 196.77 112.537L196.65 110.074C196.639 109.861 196.671 109.648 196.743 109.448C196.815 109.247 196.926 109.063 197.069 108.905C197.212 108.747 197.385 108.619 197.578 108.528C197.77 108.437 197.979 108.385 198.192 108.374L201.96 108.192C202.172 108.181 202.385 108.213 202.586 108.285C202.787 108.357 202.971 108.467 203.129 108.611C203.287 108.754 203.415 108.927 203.506 109.12C203.597 109.312 203.649 109.521 203.659 109.734L203.779 112.201Z" fill="var(--illustration-currentColor)"/>
<path d="M192.213 119.235C192.233 119.666 192.081 120.086 191.792 120.405C191.502 120.723 191.098 120.914 190.668 120.935L188.972 121.016C188.759 121.026 188.546 120.994 188.345 120.923C188.145 120.851 187.96 120.74 187.803 120.597C187.644 120.454 187.516 120.281 187.425 120.088C187.335 119.895 187.282 119.687 187.272 119.474L186.592 105.42C186.571 104.99 186.722 104.569 187.011 104.251C187.3 103.932 187.704 103.741 188.134 103.72L189.834 103.636C190.264 103.616 190.685 103.767 191.004 104.057C191.322 104.347 191.513 104.751 191.534 105.182L192.213 119.235Z" fill="url(#paint0_linear_28_12849)"/>
<path d="M182.989 77.2692L184.682 112.327L114.752 115.706L113.059 80.6478C112.883 77.0091 113.425 73.371 114.655 69.942C115.885 66.5127 117.778 63.3594 120.227 60.6618C122.676 57.9645 125.632 55.7757 128.927 54.2208C132.221 52.6659 135.79 51.7752 139.429 51.5994L153.942 50.8986C161.291 50.544 168.479 53.1231 173.927 58.0686C179.374 63.0138 182.634 69.9204 182.989 77.2692Z" fill="url(#paint1_linear_28_12849)"/>
<path d="M153.076 241.624L148.67 189.824V189.761C152.144 189.716 155.68 189.646 159.174 189.526L159.185 189.824L163.292 241.554L164.382 255.275H154.236L153.076 241.624Z" fill="var(--illustration-currentColor)"/>
<path d="M112.464 123.07C112.474 123.283 112.442 123.496 112.37 123.697C112.298 123.898 112.187 124.082 112.043 124.24C111.9 124.398 111.726 124.526 111.533 124.617C111.34 124.708 111.131 124.76 110.918 124.769L109.222 124.853C109.008 124.864 108.795 124.832 108.595 124.76C108.394 124.688 108.209 124.577 108.051 124.433C107.893 124.29 107.765 124.117 107.675 123.923C107.584 123.731 107.532 123.521 107.522 123.308L106.842 109.254C106.822 108.824 106.973 108.404 107.262 108.086C107.551 107.768 107.955 107.576 108.384 107.554L110.084 107.474C110.297 107.463 110.51 107.494 110.711 107.566C110.911 107.638 111.096 107.749 111.254 107.892C111.412 108.035 111.54 108.208 111.631 108.401C111.722 108.594 111.774 108.803 111.784 109.016L112.464 123.07Z" fill="url(#paint2_linear_28_12849)"/>
<path d="M103.225 117.227C103.245 117.657 103.093 118.078 102.804 118.396C102.514 118.715 102.11 118.906 101.68 118.927L97.9159 119.109C97.4857 119.128 97.0651 118.977 96.7465 118.687C96.4279 118.397 96.2371 117.993 96.2161 117.563L96.0961 115.099C96.0859 114.886 96.1177 114.673 96.1897 114.472C96.262 114.271 96.373 114.087 96.5167 113.929C96.6604 113.771 96.8335 113.643 97.0267 113.552C97.2199 113.461 97.429 113.409 97.6423 113.399L101.406 113.217C101.619 113.207 101.832 113.239 102.033 113.31C102.233 113.382 102.418 113.493 102.576 113.636C102.734 113.779 102.862 113.952 102.953 114.145C103.044 114.338 103.096 114.547 103.106 114.759L103.225 117.227Z" fill="var(--illustration-currentColor)"/>
<path d="M184.682 112.327L187.058 161.519C187.157 163.561 186.853 165.602 186.164 167.526C185.474 169.45 184.412 171.219 183.038 172.733C181.664 174.246 180.005 175.474 178.157 176.346C176.309 177.219 174.306 177.718 172.265 177.816L133.425 179.695C131.384 179.794 129.343 179.489 127.419 178.799C125.495 178.108 123.725 177.046 122.212 175.672C120.699 174.298 119.471 172.639 118.599 170.791C117.726 168.942 117.227 166.94 117.128 164.898L114.752 115.706L113.059 80.6478C112.883 77.0091 113.426 73.371 114.656 69.942C115.886 66.5127 117.779 63.3594 120.227 60.6621C122.676 57.9645 125.632 55.776 128.927 54.2208C132.221 52.6659 135.79 51.7752 139.429 51.5994L153.942 50.8986C161.291 50.544 168.479 53.1231 173.927 58.0683C179.374 63.0135 182.634 69.9201 182.989 77.2686L184.682 112.327Z" stroke="var(--illustration-currentColor)" stroke-width="1.2" stroke-linecap="round" stroke-linejoin="round"/>
<path d="M114.752 115.706L184.682 112.328" stroke="var(--illustration-currentColor)" stroke-width="1.2" stroke-linecap="round" stroke-linejoin="round"/>
<path d="M110.918 124.77L109.222 124.854C109.008 124.865 108.795 124.833 108.595 124.76C108.394 124.688 108.209 124.577 108.051 124.434C107.893 124.29 107.765 124.117 107.675 123.924C107.584 123.731 107.532 123.522 107.522 123.309L106.842 109.255C106.822 108.825 106.973 108.405 107.262 108.086C107.551 107.768 107.955 107.577 108.384 107.555L110.084 107.474C110.297 107.463 110.51 107.495 110.711 107.567C110.911 107.638 111.096 107.749 111.254 107.892C111.412 108.036 111.54 108.209 111.631 108.402C111.722 108.595 111.774 108.803 111.784 109.016L112.464 123.07C112.474 123.284 112.442 123.497 112.37 123.697C112.298 123.898 112.187 124.083 112.043 124.241C111.9 124.399 111.726 124.527 111.533 124.617C111.34 124.708 111.131 124.76 110.918 124.77Z" stroke="var(--illustration-currentColor)" stroke-width="1.2" stroke-linecap="round" stroke-linejoin="round"/>
<path d="M190.668 120.935L188.972 121.016C188.759 121.026 188.546 120.994 188.345 120.923C188.145 120.851 187.96 120.74 187.803 120.597C187.644 120.454 187.516 120.281 187.425 120.088C187.335 119.895 187.282 119.687 187.272 119.474L186.592 105.42C186.571 104.99 186.722 104.569 187.011 104.251C187.3 103.932 187.704 103.741 188.134 103.72L189.834 103.636C190.264 103.616 190.685 103.767 191.004 104.057C191.322 104.347 191.513 104.751 191.534 105.182L192.213 119.236C192.233 119.666 192.081 120.086 191.792 120.405C191.502 120.723 191.098 120.914 190.668 120.935Z" stroke="var(--illustration-currentColor)" stroke-width="1.2" stroke-linecap="round" stroke-linejoin="round"/>
<path d="M104.266 104.365L110.368 179.408C110.368 179.408 109.544 189.8 125.046 189.8C131.221 189.8 139.731 189.873 148.671 189.761C152.144 189.715 155.68 189.645 159.175 189.526C169.268 189.193 178.973 188.492 185.597 187.055C189.743 186.158 198.501 182.11 198.337 175.84C198.172 169.57 193.707 100.292 193.707 100.292" stroke="var(--illustration-currentColor)" stroke-width="1.2" stroke-linecap="round" stroke-linejoin="round"/>
<path d="M163.514 241.536C178.906 242.409 190.104 248.226 190.104 255.276C190.104 262.926 176.085 269.13 158.793 269.13C141.5 269.13 127.478 262.927 127.478 255.276C127.478 248.436 138.343 242.75 153.076 241.626C153.094 241.626 153.112 241.623 153.129 241.623" stroke="var(--illustration-currentColor)" stroke-width="1.2" stroke-linecap="round" stroke-linejoin="round"/>
<path d="M148.67 189.824L153.076 241.624L154.236 255.275H164.382L163.292 241.554L159.185 189.824" stroke="var(--illustration-currentColor)" stroke-width="1.2" stroke-linecap="round" stroke-linejoin="round"/>
<path d="M101.68 118.927L97.9159 119.109C97.4857 119.128 97.0651 118.977 96.7465 118.687C96.4279 118.397 96.2371 117.993 96.2161 117.563L96.0961 115.099C96.0859 114.886 96.1177 114.673 96.1897 114.472C96.262 114.271 96.373 114.087 96.5167 113.929C96.6604 113.771 96.8335 113.643 97.0267 113.552C97.2199 113.461 97.429 113.409 97.6423 113.399L101.406 113.217C101.619 113.207 101.832 113.239 102.033 113.31C102.233 113.382 102.418 113.493 102.576 113.636C102.734 113.779 102.862 113.952 102.953 114.145C103.044 114.338 103.096 114.547 103.106 114.759L103.226 117.227C103.246 117.657 103.094 118.078 102.804 118.396C102.514 118.715 102.11 118.906 101.68 118.927Z" stroke="var(--illustration-currentColor)" stroke-width="1.2" stroke-linecap="round" stroke-linejoin="round"/>
<path d="M202.234 113.901L198.47 114.083C198.039 114.103 197.619 113.952 197.3 113.662C196.981 113.372 196.79 112.968 196.77 112.537L196.65 110.074C196.639 109.861 196.671 109.648 196.743 109.448C196.815 109.247 196.926 109.063 197.069 108.905C197.212 108.747 197.385 108.619 197.578 108.528C197.77 108.437 197.979 108.385 198.192 108.374L201.96 108.192C202.172 108.181 202.385 108.213 202.586 108.285C202.787 108.357 202.971 108.467 203.129 108.611C203.287 108.754 203.415 108.927 203.506 109.12C203.597 109.312 203.649 109.521 203.659 109.734L203.779 112.201C203.799 112.631 203.647 113.052 203.358 113.371C203.068 113.689 202.664 113.88 202.234 113.901Z" stroke="var(--illustration-currentColor)" stroke-width="1.2" stroke-linecap="round" stroke-linejoin="round"/>
<path d="M87.2136 84.7524C75.7569 101.668 69.2949 121.468 68.5665 141.886C68.4417 145.576 68.5239 149.368 69.8739 152.806C71.2239 156.243 74.0775 159.293 77.712 159.943C81.4407 160.61 85.5891 158.238 86.5455 154.573C87.5019 150.907 84.6975 146.616 80.9178 146.362C76.1541 146.041 72.8493 151.319 72.3906 156.072C71.9073 161.33 73.449 166.574 76.7007 170.735C81.099 176.31 88.0467 179.233 93.1518 184.169C100.658 191.426 103.472 203.149 100.078 213.022C97.8387 219.535 91.968 225.612 85.1118 224.962C79.3353 224.415 74.6301 218.287 75.9132 212.628C77.1963 206.969 84.4836 203.503 89.5389 206.351C94.1418 208.945 95.5464 215.041 94.9089 220.286C94.2714 225.531 92.1075 230.499 91.4748 235.744C90.8421 240.989 92.2548 247.086 96.8643 249.67C100.666 251.802 105.645 250.829 109.146 248.233C112.647 245.637 114.903 241.699 116.619 237.693C117.674 235.233 118.576 232.632 118.535 229.955C118.494 227.278 117.356 224.49 115.091 223.063C112.826 221.635 109.399 222.036 107.963 224.295C106.526 226.554 108.157 230.226 110.835 230.22L111.535 229.44" stroke="var(--illustration-currentColor)" stroke-width="1.2" stroke-linecap="round" stroke-linejoin="round"/>
<path d="M214.28 242.885C229.073 237.929 238.464 222.991 242.364 207.885C243.624 203.004 244.442 197.879 243.474 192.931C242.507 187.983 239.488 183.215 234.85 181.239C230.213 179.262 224.023 180.847 221.744 185.344C219.466 189.841 222.773 196.41 227.815 196.437C231.675 196.457 234.844 193.004 235.848 189.277C237.269 184.007 235.338 178.357 232.403 173.756C229.467 169.155 225.559 165.255 222.409 160.798C216.92 153.034 213.833 143.514 214.175 134.012C214.334 129.593 215.298 125.028 218.027 121.547C220.755 118.067 225.562 115.966 229.749 117.388C233.936 118.811 236.459 124.391 233.981 128.054C232.88 129.682 230.715 130.742 228.893 130.004C227.07 129.265 226.43 126.351 228.077 125.278" stroke="var(--illustration-currentColor)" stroke-width="1.2" stroke-linecap="round" stroke-linejoin="round"/>
<path d="M121.83 42.8886L104.265 15.3703" stroke="var(--illustration-currentColor)" stroke-width="1.2" stroke-linecap="round" stroke-linejoin="round"/>
<path d="M148.291 41.7756L148.304 27.6756" stroke="var(--illustration-currentColor)" stroke-width="1.2" stroke-linecap="round" stroke-linejoin="round"/>
<path d="M168.234 46.2393L187.811 12.0475" stroke="var(--illustration-currentColor)" stroke-width="1.2" stroke-linecap="round" stroke-linejoin="round"/>
<path d="M107.728 59.217L103.646 57.3615" stroke="var(--illustration-currentColor)" stroke-width="1.2" stroke-linecap="round" stroke-linejoin="round"/>
<path d="M181.624 56.3067L187.264 51.5718" stroke="var(--illustration-currentColor)" stroke-width="1.2" stroke-linecap="round" stroke-linejoin="round"/>
<path d="M242.782 162.764L238.335 155.34" stroke="var(--illustration-currentColor)" stroke-width="1.2" stroke-linecap="round" stroke-linejoin="round"/>
<path d="M237.906 161.932L243.944 156.098" stroke="var(--illustration-currentColor)" stroke-width="1.2" stroke-linecap="round" stroke-linejoin="round"/>
<path d="M65.3188 109.838L62.1904 107.356" stroke="var(--illustration-currentColor)" stroke-width="1.2" stroke-linecap="round" stroke-linejoin="round"/>
<path d="M62.4971 110.77C63.4496 109.421 64.3343 108.028 65.1515 106.59" stroke="var(--illustration-currentColor)" stroke-width="1.2" stroke-linecap="round" stroke-linejoin="round"/>
<path d="M93.3668 145.44L91.5566 141.81" stroke="var(--illustration-currentColor)" stroke-width="1.2" stroke-linecap="round" stroke-linejoin="round"/>
<path d="M90.2905 145.153C91.6366 143.939 93.1726 142.954 94.8373 142.237" stroke="var(--illustration-currentColor)" stroke-width="1.2" stroke-linecap="round" stroke-linejoin="round"/>
<path d="M87.3002 196.546L84.4907 191.932" stroke="var(--illustration-currentColor)" stroke-width="1.2" stroke-linecap="round" stroke-linejoin="round"/>
<path d="M83.3018 196.543L88.3094 191.824" stroke="var(--illustration-currentColor)" stroke-width="1.2" stroke-linecap="round" stroke-linejoin="round"/>
<path d="M214.432 218.872L209.668 220.134C209.524 220.172 209.372 220.166 209.232 220.115C209.092 220.064 208.971 219.971 208.886 219.85C208.8 219.728 208.754 219.583 208.753 219.434C208.753 219.285 208.798 219.14 208.882 219.017L211.681 214.961C211.763 214.843 211.808 214.703 211.81 214.559C211.812 214.415 211.772 214.274 211.694 214.153L209.021 210.013C208.94 209.888 208.9 209.741 208.905 209.593C208.91 209.444 208.961 209.3 209.05 209.182C209.14 209.063 209.263 208.974 209.404 208.927C209.546 208.881 209.698 208.879 209.84 208.921L214.563 210.329C214.701 210.371 214.848 210.37 214.985 210.328C215.123 210.285 215.245 210.203 215.335 210.092L218.448 206.27C218.542 206.155 218.668 206.071 218.812 206.03C218.955 205.989 219.107 205.993 219.247 206.041C219.388 206.089 219.511 206.179 219.599 206.299C219.687 206.419 219.736 206.563 219.739 206.712L219.859 211.639C219.863 211.783 219.909 211.922 219.992 212.039C220.075 212.157 220.19 212.247 220.324 212.299L224.92 214.078C225.059 214.132 225.178 214.227 225.261 214.35C225.345 214.473 225.388 214.619 225.385 214.768C225.383 214.917 225.335 215.061 225.249 215.182C225.162 215.303 225.04 215.394 224.899 215.443L220.249 217.08C220.114 217.128 219.995 217.214 219.909 217.329C219.823 217.445 219.772 217.583 219.765 217.726L219.495 222.646C219.487 222.794 219.433 222.937 219.341 223.054C219.25 223.171 219.124 223.258 218.982 223.301C218.84 223.345 218.688 223.344 218.546 223.299C218.404 223.254 218.28 223.166 218.19 223.048L215.197 219.132C215.109 219.018 214.99 218.933 214.854 218.886C214.717 218.84 214.57 218.835 214.432 218.872Z" fill="var(--illustration-currentColor)"/>
<path d="M87.2277 55.9851L85.4244 58.713C85.3701 58.7955 85.2915 58.8591 85.2 58.8954C85.1082 58.932 85.0074 58.9392 84.9114 58.9167C84.8154 58.8942 84.7284 58.8426 84.6627 58.7694C84.5967 58.6959 84.5547 58.6041 84.5427 58.506L84.1395 55.2612C84.1278 55.1667 84.0882 55.0776 84.0258 55.0053C83.9634 54.9333 83.8809 54.8811 83.7891 54.8556L80.6391 53.9832C80.544 53.9571 80.4594 53.9022 80.3964 53.8263C80.3334 53.7501 80.295 53.6568 80.2869 53.5584C80.2785 53.4603 80.3007 53.3616 80.3502 53.2764C80.3994 53.1909 80.4738 53.1228 80.5632 53.0808L83.5245 51.6945C83.6109 51.6543 83.6835 51.5889 83.733 51.5073C83.7825 51.4257 83.8065 51.3312 83.8023 51.2358L83.658 47.9691C83.6535 47.8707 83.6796 47.7729 83.7324 47.6895C83.7852 47.6061 83.8623 47.541 83.9532 47.5029C84.0441 47.4645 84.1446 47.4552 84.2412 47.4756C84.3378 47.4963 84.4254 47.5461 84.4929 47.6181L86.7264 50.0061C86.7915 50.076 86.8761 50.1246 86.9688 50.1465C87.0618 50.1681 87.159 50.1621 87.2484 50.1285L90.3105 48.9819C90.4029 48.948 90.5034 48.9429 90.5985 48.9678C90.6936 48.9924 90.7791 49.0455 90.8433 49.1202C90.9075 49.1946 90.9471 49.287 90.9573 49.3848C90.9675 49.4826 90.9477 49.5813 90.9003 49.6674L89.3193 52.5297C89.2731 52.6134 89.253 52.7085 89.2608 52.8036C89.2689 52.8987 89.3049 52.9893 89.3643 53.0637L91.4013 55.6218C91.4628 55.6992 91.4991 55.7934 91.5054 55.8918C91.5114 55.9902 91.4874 56.0883 91.4364 56.1726C91.3854 56.2569 91.3095 56.3238 91.2195 56.3637C91.1292 56.4039 91.029 56.4153 90.9321 56.3967L87.7221 55.7775C87.6285 55.7595 87.5313 55.7694 87.4434 55.8063C87.3555 55.8432 87.2805 55.9056 87.2277 55.9851Z" fill="var(--illustration-currentColor)"/>
<path d="M74.7633 239.576L72.2841 240.41C72.2094 240.435 72.1287 240.437 72.0528 240.415C71.9769 240.393 71.9097 240.348 71.8602 240.286C71.8107 240.225 71.7813 240.149 71.7756 240.071C71.7702 239.992 71.7891 239.913 71.8296 239.846L73.1703 237.6C73.2096 237.534 73.2285 237.459 73.2246 237.383C73.2207 237.306 73.1946 237.233 73.149 237.172L71.589 235.072C71.5422 235.008 71.5155 234.932 71.5134 234.853C71.511 234.774 71.5329 234.696 71.5758 234.63C71.619 234.564 71.6814 234.513 71.7546 234.483C71.8275 234.454 71.9082 234.447 71.985 234.465L74.535 235.047C74.6094 235.064 74.6874 235.058 74.7585 235.031C74.8299 235.004 74.8917 234.956 74.9358 234.894L76.4514 232.762C76.4973 232.698 76.5615 232.649 76.6359 232.622C76.7103 232.596 76.791 232.592 76.8672 232.613C76.9434 232.634 77.0112 232.677 77.0622 232.738C77.1129 232.798 77.1438 232.873 77.1507 232.952L77.3853 235.556C77.3922 235.632 77.4216 235.705 77.4699 235.764C77.5179 235.824 77.5824 235.868 77.6553 235.89L80.151 236.673C80.2263 236.696 80.2926 236.743 80.3412 236.805C80.3895 236.867 80.4174 236.943 80.4213 237.022C80.4255 237.101 80.4051 237.179 80.3631 237.246C80.3214 237.313 80.2599 237.365 80.1873 237.397L77.7822 238.424C77.712 238.454 77.652 238.505 77.6103 238.569C77.5686 238.633 77.547 238.708 77.5479 238.784L77.5749 241.4C77.5758 241.479 77.5524 241.556 77.508 241.621C77.4633 241.686 77.4 241.736 77.3262 241.765C77.2527 241.793 77.172 241.798 77.0955 241.778C77.0187 241.759 76.95 241.717 76.8978 241.658L75.1767 239.688C75.1266 239.631 75.0606 239.589 74.9871 239.57C74.9136 239.549 74.8356 239.552 74.7633 239.576Z" fill="var(--illustration-currentColor)"/>
<path d="M203.342 76.0197L200.214 73.5387" stroke="var(--illustration-currentColor)" stroke-width="1.2" stroke-linecap="round" stroke-linejoin="round"/>
<path d="M200.52 76.9533C201.473 75.6048 202.358 74.2113 203.175 72.7734" stroke="var(--illustration-currentColor)" stroke-width="1.2" stroke-linecap="round" stroke-linejoin="round"/>
<path d="M227.208 103.525L225.986 97.2381" stroke="var(--illustration-currentColor)" stroke-width="1.2" stroke-linecap="round" stroke-linejoin="round"/>
<path d="M223.668 101.173L230.118 99.8226" stroke="var(--illustration-currentColor)" stroke-width="1.2" stroke-linecap="round" stroke-linejoin="round"/>
<path d="M49.1705 180.281L44.7236 172.855" stroke="var(--illustration-currentColor)" stroke-width="1.2" stroke-linecap="round" stroke-linejoin="round"/>
<path d="M44.2949 179.449L50.3324 173.615" stroke="var(--illustration-currentColor)" stroke-width="1.2" stroke-linecap="round" stroke-linejoin="round"/>
<path d="M171.473 108.758L174.276 104.927" stroke="var(--illustration-currentColor)" stroke-width="1.2" stroke-linecap="round" stroke-linejoin="round"/>
<path d="M154.9 109.163L158.199 104.523" stroke="var(--illustration-currentColor)" stroke-width="1.2" stroke-linecap="round" stroke-linejoin="round"/>
<path d="M138.301 110.081L141.434 104.927" stroke="var(--illustration-currentColor)" stroke-width="1.2" stroke-linecap="round" stroke-linejoin="round"/>
<path d="M121.912 111.159L124.551 106.357" stroke="var(--illustration-currentColor)" stroke-width="1.2" stroke-linecap="round" stroke-linejoin="round"/>
<path d="M135.246 100.401L132.414 96.8784" stroke="var(--illustration-currentColor)" stroke-width="1.2" stroke-linecap="round" stroke-linejoin="round"/>
<path d="M151.6 100.084L147.929 95.4171" stroke="var(--illustration-currentColor)" stroke-width="1.2" stroke-linecap="round" stroke-linejoin="round"/>
<path d="M166.359 100.134L163.156 95.3673" stroke="var(--illustration-currentColor)" stroke-width="1.2" stroke-linecap="round" stroke-linejoin="round"/>
<path d="M178.886 99.9768L176.168 95.5248" stroke="var(--illustration-currentColor)" stroke-width="1.2" stroke-linecap="round" stroke-linejoin="round"/>
<path d="M119.954 100.044L117.122 96.5214" stroke="var(--illustration-currentColor)" stroke-width="1.2" stroke-linecap="round" stroke-linejoin="round"/>
<path d="M165.728 77.6145L168.531 81.4455" stroke="var(--illustration-currentColor)" stroke-width="1.2" stroke-linecap="round" stroke-linejoin="round"/>
<path d="M149.155 77.2101L152.454 81.8499" stroke="var(--illustration-currentColor)" stroke-width="1.2" stroke-linecap="round" stroke-linejoin="round"/>
<path d="M132.555 76.2909L135.688 81.4452" stroke="var(--illustration-currentColor)" stroke-width="1.2" stroke-linecap="round" stroke-linejoin="round"/>
<path d="M117.365 77.394L120.004 82.1952" stroke="var(--illustration-currentColor)" stroke-width="1.2" stroke-linecap="round" stroke-linejoin="round"/>
<path d="M129.501 85.971L126.668 89.4936" stroke="var(--illustration-currentColor)" stroke-width="1.2" stroke-linecap="round" stroke-linejoin="round"/>
<path d="M145.854 86.2881L142.184 90.9552" stroke="var(--illustration-currentColor)" stroke-width="1.2" stroke-linecap="round" stroke-linejoin="round"/>
<path d="M160.615 86.2383L157.411 91.005" stroke="var(--illustration-currentColor)" stroke-width="1.2" stroke-linecap="round" stroke-linejoin="round"/>
<path d="M173.14 86.3952L170.423 90.8475" stroke="var(--illustration-currentColor)" stroke-width="1.2" stroke-linecap="round" stroke-linejoin="round"/>
<path d="M163.356 58.7034L166.16 62.5344" stroke="var(--illustration-currentColor)" stroke-width="1.2" stroke-linecap="round" stroke-linejoin="round"/>
<path d="M148.291 58.1619L151.59 62.8017" stroke="var(--illustration-currentColor)" stroke-width="1.2" stroke-linecap="round" stroke-linejoin="round"/>
<path d="M132.555 58.7631L135.688 63.9177" stroke="var(--illustration-currentColor)" stroke-width="1.2" stroke-linecap="round" stroke-linejoin="round"/>
<path d="M176.704 76.9722L179.342 81.7734" stroke="var(--illustration-currentColor)" stroke-width="1.2" stroke-linecap="round" stroke-linejoin="round"/>
<path d="M128.637 66.9234L125.805 70.446" stroke="var(--illustration-currentColor)" stroke-width="1.2" stroke-linecap="round" stroke-linejoin="round"/>
<path d="M144.99 67.2405L141.319 71.9076" stroke="var(--illustration-currentColor)" stroke-width="1.2" stroke-linecap="round" stroke-linejoin="round"/>
<path d="M159.75 67.1907L156.547 71.9577" stroke="var(--illustration-currentColor)" stroke-width="1.2" stroke-linecap="round" stroke-linejoin="round"/>
<path d="M172.276 67.3476L169.559 71.7999" stroke="var(--illustration-currentColor)" stroke-width="1.2" stroke-linecap="round" stroke-linejoin="round"/>
<path d="M121.114 253.469C119.567 258.344 122.696 263.558 126.644 266.809C133.012 272.053 141.407 274.09 149.582 275.19C158.366 276.371 167.459 276.625 175.94 274.05C184.42 271.474 192.26 265.728 195.717 257.567" stroke="var(--illustration-currentColor)" stroke-width="1.2" stroke-linecap="round" stroke-linejoin="round"/>
<g opacity="0.1">
<path d="M147.313 52.1697C137.727 50.4486 127.2 53.985 120.752 61.3296C112.742 70.4538 112.534 83.3928 113.888 94.8045C114.775 102.268 116.171 109.683 116.173 117.223C116.173 120.571 121.39 120.577 121.377 117.223C121.33 105.321 117.732 93.6735 118.38 81.7452C118.663 76.5288 119.737 71.2641 122.454 66.7404C124.76 62.8479 128.032 59.6166 131.954 57.3597C134.269 56.0277 136.55 54.8739 139.184 54.3036C141.782 53.7411 144.448 53.5623 147.097 53.7726C148.004 53.8428 148.221 52.3326 147.314 52.1706L147.313 52.1697Z" fill="var(--illustration-currentColor)"/>
</g>
</g>
<defs>
<linearGradient id="paint0_linear_28_12849" x1="189.402" y1="103.634" x2="189.402" y2="121.018" gradientUnits="userSpaceOnUse">
<stop stop-color="#FF9A34"/>
<stop offset="1" stop-color="#EB6421"/>
</linearGradient>
<linearGradient id="paint1_linear_28_12849" x1="148.854" y1="50.8665" x2="148.854" y2="115.706" gradientUnits="userSpaceOnUse">
<stop stop-color="#FF9A34"/>
<stop offset="1" stop-color="#EB6421"/>
</linearGradient>
<linearGradient id="paint2_linear_28_12849" x1="109.653" y1="107.471" x2="109.653" y2="124.855" gradientUnits="userSpaceOnUse">
<stop stop-color="#FF9A34"/>
<stop offset="1" stop-color="#EB6421"/>
</linearGradient>
</defs>
</svg>
