<svg width="288" height="288" viewBox="0 0 288 288" fill="none" xmlns="http://www.w3.org/2000/svg">
<mask id="mask0_28_12822" style="mask-type:luminance" maskUnits="userSpaceOnUse" x="43" y="11" width="202" height="266">
<path d="M244.8 11.3999H43.2002V276.6H244.8V11.3999Z" fill="white"/>
</mask>
<g mask="url(#mask0_28_12822)">
<path d="M156.277 91.0515C156.277 91.0515 183.67 92.6679 182.915 78.8616C182.16 65.0553 172.131 55.1757 176.012 50.3565C176.475 49.7946 177.001 49.2873 177.579 48.8439C180.372 46.6497 184.962 44.9172 189.103 44.6421C192.547 44.4129 195.682 45.189 197.226 47.5482C201.036 53.3727 213.546 82.7823 199.596 94.4313C185.646 106.08 168.75 110.322 168.75 110.322C168.75 110.322 175.723 142.39 166.519 144.978C166.11 145.094 165.654 145.201 165.159 145.296C154.528 147.398 125.25 145.623 125.25 145.623C125.25 145.623 121.509 146.057 121.08 143.539C120.65 141.021 128.557 110.249 120.144 108.415C111.732 106.581 96.0919 104.425 103.643 120.925C109.532 133.795 111.09 137.809 107.753 140.642H107.75C106.809 141.442 105.48 142.145 103.75 142.927C100.679 144.318 98.7397 145.13 97.2898 145.457C95.0161 145.974 93.9313 145.302 91.5631 143.789C87.679 141.311 68.5891 121.897 79.1593 104.21C89.7295 86.5224 102.199 87.39 113.278 87.2922C119.271 87.2403 133.951 91.0509 133.951 91.0509C133.951 91.0509 133.196 86.3052 134.327 85.8744C134.589 85.7733 135.897 85.6908 137.747 85.6266C140.957 85.5168 145.796 85.4556 149.646 85.425C153.084 85.395 155.736 85.3884 155.736 85.3884C155.736 85.3884 156.922 85.3335 156.816 86.412C156.711 87.4905 156.277 91.0515 156.277 91.0515Z" fill="url(#paint0_linear_28_12822)"/>
<path d="M161.344 56.646C162.853 58.3725 165.659 68.8326 163.394 70.8831C161.13 72.9336 158.431 72.3927 157.139 69.9663C157.201 66.0237 157.063 62.0808 156.726 58.1523H156.729C156.729 58.1523 159.834 54.9192 161.344 56.646Z" fill="currentColor"/>
<path d="M155.201 49.2502C155.345 48.9934 160.075 40.6357 161.723 41.0056C163.394 41.3845 163.559 53.3695 156.436 54.9187C156.436 54.9187 142.471 56.5387 139.073 57.7759C138.165 58.1092 137.645 60.2086 137.373 63.1054L137.111 63.0811C137.111 63.0811 136.652 61.5439 136.243 59.6584C135.668 57.0334 135.185 53.7301 136.16 52.9783C137.832 51.6826 143.925 52.0615 144.68 50.2279C145.435 48.3943 145.059 42.6769 147.702 42.463C150.346 42.2491 150.181 49.363 150.181 49.363C150.181 49.363 152.124 41.5981 154.496 41.7079C156.827 41.8123 155.259 48.9874 155.201 49.2502Z" fill="currentColor"/>
<path d="M137.111 63.0813L137.373 63.1056C137.138 66.087 137.055 69.0786 137.126 72.0684H137.111C137.111 72.0684 136.541 73.2543 133.37 73.4712C130.2 73.6881 130.284 69.0492 130.498 63.5487C130.712 58.0482 136.243 59.6586 136.243 59.6586C136.652 61.5441 137.111 63.0813 137.111 63.0813Z" fill="currentColor"/>
<path d="M146.462 70.8832H148.509L147.972 59.5582C149.86 58.8292 151.914 58.6423 153.903 59.0182" stroke="currentColor" stroke-width="0.9" stroke-linecap="round" stroke-linejoin="round"/>
<path d="M151.421 63.0074C151.421 63.0074 152.286 62.1458 153.903 63.0074" stroke="currentColor" stroke-width="0.9" stroke-linecap="round" stroke-linejoin="round"/>
<path d="M144.68 62.8153C144.305 62.4703 143.814 62.2786 143.305 62.2786C142.795 62.2786 142.304 62.4703 141.93 62.8153" stroke="currentColor" stroke-width="0.9" stroke-linecap="round" stroke-linejoin="round"/>
<path d="M146.462 75.7904C146.462 75.7904 143.119 76.814 141.068 74.6018" stroke="currentColor" stroke-width="0.9" stroke-linecap="round" stroke-linejoin="round"/>
<path d="M137.725 85.0102C137.725 85.0102 137.224 78.6501 137.125 72.0684C137.054 69.0786 137.137 66.087 137.373 63.1056C137.645 60.2088 138.164 58.1094 139.072 57.7761C142.47 56.5386 156.435 54.9189 156.435 54.9189C156.435 54.9189 156.573 56.1993 156.725 58.152C157.062 62.0805 157.2 66.0237 157.138 69.966C157.022 73.8531 156.527 77.1168 155.248 77.676C151.798 79.1856 150.774 78.1621 150.502 79.7266C150.23 81.2911 149.641 85.0102 149.641 85.0102" stroke="currentColor" stroke-width="0.9" stroke-linecap="round" stroke-linejoin="round"/>
<path d="M155.198 49.2562C155.199 49.2541 155.199 49.2517 155.201 49.2502C155.345 48.9934 160.075 40.6357 161.723 41.0056C163.394 41.3845 163.559 53.3695 156.436 54.9187" stroke="currentColor" stroke-width="0.9" stroke-linecap="round" stroke-linejoin="round"/>
<path d="M137.111 63.0809C137.111 63.0809 136.652 61.5437 136.243 59.6582C135.668 57.0332 135.185 53.7299 136.16 52.9781C137.832 51.6824 143.925 52.0613 144.68 50.2277C145.435 48.3941 145.059 42.6767 147.702 42.4628C150.346 42.2489 150.181 49.3628 150.181 49.3628C150.181 49.3628 152.124 41.5979 154.496 41.7077C156.827 41.8118 155.26 48.9869 155.201 49.2497" stroke="currentColor" stroke-width="0.9" stroke-linecap="round" stroke-linejoin="round"/>
<path d="M107.75 140.642C106.809 141.443 105.48 142.145 103.75 142.928C100.679 144.318 98.7397 145.131 97.2898 145.458C95.0161 145.974 93.9313 145.302 91.5631 143.789C87.679 141.311 68.5891 121.897 79.1593 104.21C89.7295 86.523 102.199 87.3906 113.278 87.2928C119.271 87.2409 133.951 91.0515 133.951 91.0515C133.951 91.0515 133.196 86.3058 134.327 85.875C134.589 85.7739 135.897 85.6914 137.747 85.6272C140.957 85.5174 145.796 85.4562 149.646 85.4256C153.084 85.3956 155.736 85.389 155.736 85.389C155.736 85.389 156.922 85.3341 156.816 86.4126C156.711 87.4911 156.278 91.0515 156.278 91.0515C156.278 91.0515 183.671 92.6679 182.916 78.8616C182.161 65.0553 172.132 55.1757 176.013 50.3565C176.477 49.7946 177.003 49.2873 177.581 48.8439C180.374 46.6497 184.964 44.9172 189.104 44.6421C192.548 44.4129 195.684 45.189 197.227 47.5482C201.037 53.3727 213.547 82.7823 199.597 94.4313C185.647 106.08 168.75 110.322 168.75 110.322C168.75 110.322 175.723 142.39 166.519 144.978C166.11 145.094 165.654 145.201 165.159 145.296C154.528 147.398 125.25 145.623 125.25 145.623C125.25 145.623 121.509 146.057 121.08 143.539C120.65 141.021 128.557 110.249 120.144 108.415C111.732 106.581 96.0919 104.425 103.643 120.925C109.532 133.795 111.09 137.809 107.753 140.642" stroke="currentColor" stroke-width="0.9" stroke-linecap="round" stroke-linejoin="round"/>
<path d="M70.1753 196.564C73.6649 204.901 81.9677 223.422 108.065 223.926C124.228 224.238 133.863 219.251 139.29 214.626C143.862 210.733 145.454 207.1 145.454 207.1" stroke="currentColor" stroke-width="0.9" stroke-linecap="round" stroke-linejoin="round"/>
<path d="M125.25 145.623C125.25 145.623 130.21 174.171 116.693 183.228C103.177 192.285 91.669 186.825 86.2051 178.626C84.763 176.463 82.6909 176.102 80.4694 176.848C74.275 178.925 66.9379 189.6 68.9494 193.728C69.2854 194.418 69.6829 195.391 70.1716 196.564" stroke="currentColor" stroke-width="0.9" stroke-linecap="round" stroke-linejoin="round"/>
<path d="M165.16 145.296C165.16 145.296 188.776 177.303 182.16 201.319C175.544 225.335 162.279 254.558 155.088 256.713C149.301 258.448 140.066 256.367 135.708 253.165C134.651 252.385 133.881 251.545 133.518 250.675C131.65 246.216 139.29 214.627 139.29 214.627" stroke="currentColor" stroke-width="0.9" stroke-linecap="round" stroke-linejoin="round"/>
<path d="M80.4703 176.85V176.847C80.4244 176.675 78.6643 169.922 73.7689 172.37C68.806 174.851 51.6565 183.157 51.1189 189.843C50.5813 196.53 51.8737 202.546 56.5096 201.318C61.1455 200.089 61.9429 195.084 70.1722 196.563H70.1755" stroke="currentColor" stroke-width="0.9" stroke-linecap="round" stroke-linejoin="round"/>
<path d="M135.711 253.162L135.708 253.165C135.595 253.336 131.83 259.078 134.238 263.328C136.683 267.643 151.782 279.005 164.436 275.408C177.09 271.811 169.038 267.356 169.038 267.356C169.038 267.356 156.24 262.323 155.088 256.712" stroke="currentColor" stroke-width="0.9" stroke-linecap="round" stroke-linejoin="round"/>
<path d="M183.99 39.9147C183.895 39.5388 181.67 30.4875 183.993 29.5005C186.367 28.4949 189.099 44.6025 189.099 44.6025" stroke="currentColor" stroke-width="0.9" stroke-linecap="round" stroke-linejoin="round"/>
<path d="M181.405 42.0843C181.405 42.0843 181.372 42.0111 181.311 41.8767C181.281 41.8095 181.243 41.7237 181.197 41.6259C180.198 39.3921 176.007 29.6898 178.169 28.926C180.569 28.0794 183.869 39.486 183.989 39.9147C183.991 39.9186 183.992 39.9228 183.992 39.927" stroke="currentColor" stroke-width="0.9" stroke-linecap="round" stroke-linejoin="round"/>
<path d="M177.579 48.8439C177.579 48.8439 168.821 43.2822 170.548 40.9935C172.274 38.7048 177.955 44.1684 177.955 44.1684C177.955 44.1684 170.765 31.1565 173.21 30.2214C175.376 29.3933 180.14 39.3525 181.197 41.6259" stroke="currentColor" stroke-width="0.9" stroke-linecap="round" stroke-linejoin="round"/>
<path d="M101.953 147.924C101.956 147.927 101.958 147.93 101.959 147.934C102.149 148.315 108.392 160.834 106.268 161.278C104.111 161.731 97.29 145.458 97.29 145.458" stroke="currentColor" stroke-width="0.9" stroke-linecap="round" stroke-linejoin="round"/>
<path d="M106.907 148.413C108.764 152.169 112.697 160.45 111.588 161.226C110.17 162.219 102.198 148.352 101.958 147.933" stroke="currentColor" stroke-width="0.9" stroke-linecap="round" stroke-linejoin="round"/>
<path d="M105.98 146.58C105.98 146.58 105.987 146.592 105.996 146.613C106.005 146.626 106.012 146.641 106.017 146.656C106.121 146.852 106.407 147.414 106.802 148.212" stroke="currentColor" stroke-width="0.9" stroke-linecap="round" stroke-linejoin="round"/>
<path d="M106.803 148.211C106.396 147.423 106.113 146.851 106.018 146.656" stroke="currentColor" stroke-width="0.9" stroke-linecap="round" stroke-linejoin="round"/>
<path d="M106.803 148.211C106.821 148.245 106.836 148.279 106.855 148.312C106.874 148.346 106.889 148.379 106.907 148.413" stroke="currentColor" stroke-width="0.9" stroke-linecap="round" stroke-linejoin="round"/>
<path d="M107.75 140.642H107.753C107.942 140.62 115.976 139.756 116.117 141.956C116.26 144.187 108.926 143.826 108.926 143.826C108.926 143.826 116.621 156.77 114.463 158.207C112.816 159.304 108.743 151.958 106.906 148.413" stroke="currentColor" stroke-width="0.9" stroke-linecap="round" stroke-linejoin="round"/>
<path d="M136.243 59.6586C136.243 59.6586 130.715 58.0482 130.498 63.5487C130.281 69.0492 130.205 73.6851 133.37 73.4712C136.536 73.2573 137.111 72.0684 137.111 72.0684" stroke="currentColor" stroke-width="0.9" stroke-linecap="round" stroke-linejoin="round"/>
<path d="M156.729 58.1523C156.729 58.1523 159.834 54.9192 161.344 56.646C162.853 58.3728 165.658 68.8326 163.394 70.8831C161.13 72.9336 158.431 72.3927 157.139 69.9663" stroke="currentColor" stroke-width="0.9" stroke-linecap="round" stroke-linejoin="round"/>
<path d="M67.3613 93.3379C61.9622 94.0951 57.0716 96.9301 53.732 101.24C50.3921 105.549 48.8672 110.993 49.4813 116.41C49.7636 118.9 50.567 121.451 52.3913 123.169C54.2156 124.887 57.2438 125.483 59.2643 124.003C61.2848 122.522 61.3044 118.827 59.0343 117.771C56.85 116.755 54.1742 118.773 53.7899 121.151C53.4056 123.529 54.6842 125.88 56.2919 127.674C57.8996 129.468 59.8706 130.924 61.3571 132.82C63.0113 134.929 64.0158 137.686 63.4962 140.316C62.9766 142.946 60.6653 145.279 57.9845 145.294C55.3037 145.31 52.8302 142.489 53.6309 139.93L54.137 140.23" stroke="currentColor" stroke-width="0.9" stroke-linecap="round" stroke-linejoin="round"/>
<path d="M74.9488 130.682C73.0093 127.915 71.7016 124.756 71.1181 121.428C70.5349 118.101 70.69 114.685 71.5729 111.424" stroke="currentColor" stroke-width="0.9" stroke-linecap="round" stroke-linejoin="round"/>
<path d="M187.925 205.805C192.374 199.063 192.489 189.719 188.207 182.87" stroke="currentColor" stroke-width="0.9" stroke-linecap="round" stroke-linejoin="round"/>
<path d="M133.626 59.8862C133.014 56.7362 132.4 53.5262 132.775 50.3387C133.15 47.1512 134.682 43.9349 137.457 42.3236C139.508 41.1323 141.97 40.9412 144.336 40.7777L153.099 40.1723C154.044 40.1069 155.054 40.0553 155.876 40.5272C157.155 41.2613 157.48 42.9272 157.674 44.3897C158.206 48.3989 158.738 52.4075 159.27 56.4158" stroke="currentColor" stroke-width="0.9" stroke-linecap="round" stroke-linejoin="round"/>
<path d="M132.859 73.0417C126.845 80.1949 127.354 91.9417 133.963 98.5483C136.462 101.046 139.6 102.788 142.384 104.962C145.168 107.136 147.72 109.984 148.254 113.476C148.927 117.886 146.261 122.145 146.134 126.603C145.963 132.653 150.827 138.127 156.647 139.788C162.467 141.449 168.861 139.803 173.966 136.553C176.396 135.005 178.673 133.009 179.808 130.36C180.942 127.712 180.676 124.315 178.58 122.338C176.484 120.36 172.5 120.602 171.15 123.148C171.089 123.123 171.023 123.119 170.959 123.136C170.896 123.152 170.84 123.188 170.799 123.238C170.757 123.289 170.733 123.351 170.729 123.416C170.725 123.481 170.743 123.546 170.778 123.601C170.813 123.656 170.865 123.698 170.926 123.721C170.987 123.744 171.054 123.748 171.117 123.731C171.18 123.714 171.236 123.677 171.277 123.626C171.317 123.575 171.341 123.513 171.344 123.448" stroke="currentColor" stroke-width="0.9" stroke-linecap="round" stroke-linejoin="round"/>
<path d="M159.777 71.4133C161.287 74.3971 162.012 77.716 161.886 81.0574C161.759 84.3991 160.784 87.6532 159.052 90.514C157.075 93.6988 154.23 96.2281 151.674 98.9698C149.118 101.712 146.752 104.866 146.118 108.561" stroke="currentColor" stroke-width="0.9" stroke-linecap="round" stroke-linejoin="round"/>
<path d="M221.589 43.9768C216.175 49.6513 216.197 59.6296 221.635 65.2807C223.141 66.8461 225.085 68.1238 227.25 68.2948C229.416 68.4658 231.771 67.2775 232.452 65.2144C233.133 63.1513 231.513 60.5227 229.343 60.6244C227.292 60.7198 225.918 63.0079 226.025 65.0587C226.132 67.1095 227.275 68.9395 228.348 70.6903C230.798 74.6872 233.08 78.8551 234.266 83.3908C235.451 87.9265 235.461 92.9035 233.475 97.15C232.657 98.9008 231.452 100.553 229.738 101.446C228.024 102.339 225.739 102.306 224.315 100.999C223.612 100.355 223.174 99.4732 223.085 98.5246C222.996 97.5757 223.263 96.6277 223.833 95.8645C224.403 95.101 225.236 94.5763 226.171 94.3924C227.106 94.2085 228.076 94.3783 228.893 94.8691" stroke="currentColor" stroke-width="0.9" stroke-linecap="round" stroke-linejoin="round"/>
<path d="M204.895 97.1649C212.122 92.1492 215.598 82.3095 213.125 73.8672" stroke="currentColor" stroke-width="0.9" stroke-linecap="round" stroke-linejoin="round"/>
<path d="M230.416 53.8023L232.986 49.5852" stroke="currentColor" stroke-width="0.9" stroke-linecap="round" stroke-linejoin="round"/>
<path d="M233.382 52.9051C232.067 52.5475 230.926 51.7282 230.167 50.5972" stroke="currentColor" stroke-width="0.9" stroke-linecap="round" stroke-linejoin="round"/>
<path d="M240.51 98.1686L244.069 94.9331" stroke="currentColor" stroke-width="0.9" stroke-linecap="round" stroke-linejoin="round"/>
<path d="M243.42 98.1704C242.115 97.3016 241.102 96.0611 240.51 94.6094" stroke="currentColor" stroke-width="0.9" stroke-linecap="round" stroke-linejoin="round"/>
<path d="M160.882 33.7599L164.433 28.2542" stroke="currentColor" stroke-width="0.9" stroke-linecap="round" stroke-linejoin="round"/>
<path d="M155.283 32.4858L155.263 12.1011" stroke="currentColor" stroke-width="0.9" stroke-linecap="round" stroke-linejoin="round"/>
<path d="M149.616 32.7845L145.47 28.2014" stroke="currentColor" stroke-width="0.9" stroke-linecap="round" stroke-linejoin="round"/>
<path d="M104.938 52.2227L105.585 48.3401" stroke="currentColor" stroke-width="0.9" stroke-linecap="round" stroke-linejoin="round"/>
<path d="M107.222 50.5234L103.335 49.5706" stroke="currentColor" stroke-width="0.9" stroke-linecap="round" stroke-linejoin="round"/>
<path d="M67.2266 196.17C65.8553 194.234 65.1011 191.929 65.063 189.556" stroke="currentColor" stroke-width="0.9" stroke-linecap="round" stroke-linejoin="round"/>
<path d="M62.2345 197.838C60.8995 196.234 60.1384 194.23 60.0718 192.145" stroke="currentColor" stroke-width="0.9" stroke-linecap="round" stroke-linejoin="round"/>
<path d="M161.847 264.174C158.862 264.374 155.936 265.095 153.2 266.304" stroke="currentColor" stroke-width="0.9" stroke-linecap="round" stroke-linejoin="round"/>
<path d="M156.674 260.358C154.522 260.503 152.419 261.072 150.487 262.034" stroke="currentColor" stroke-width="0.9" stroke-linecap="round" stroke-linejoin="round"/>
<path d="M84.6758 224.826C93.2552 229.212 103.007 230.758 112.522 229.24" stroke="currentColor" stroke-width="0.9" stroke-linecap="round" stroke-linejoin="round"/>
<path d="M69.2397 102.052L71.4297 98.7312" stroke="currentColor" stroke-width="0.9" stroke-linecap="round" stroke-linejoin="round"/>
<path d="M71.5903 101.962L69.0283 99.1333" stroke="currentColor" stroke-width="0.9" stroke-linecap="round" stroke-linejoin="round"/>
<path d="M44.7744 129.883C45.1242 128.638 45.6195 127.439 46.2501 126.31" stroke="currentColor" stroke-width="0.9" stroke-linecap="round" stroke-linejoin="round"/>
<path d="M46.5636 129.163L43.752 127.413L43.8927 127.289" stroke="currentColor" stroke-width="0.9" stroke-linecap="round" stroke-linejoin="round"/>
<path d="M77.2416 71.1945C76.8318 71.1057 76.4055 71.1351 76.0116 71.2791C75.6177 71.4228 75.2731 71.6754 75.0169 72.0072C74.7742 72.3492 74.6533 72.7626 74.6734 73.1811C74.6935 73.5999 74.8531 73.9998 75.1273 74.3172C75.4207 74.6154 75.8176 74.7894 76.2358 74.8023C76.654 74.8155 77.061 74.667 77.3724 74.3877C77.5686 74.1651 77.7121 73.9011 77.7919 73.6155C77.8717 73.3296 77.8858 73.0296 77.8336 72.7377C77.7241 72.1551 77.5225 71.5935 77.2363 71.0745C75.622 67.7748 73.7899 64.5861 71.752 61.5297C72.6655 61.9191 73.6615 62.0748 74.6503 61.9827C75.6391 61.8909 76.5895 61.554 77.4157 61.0029C78.2416 60.4521 78.9174 59.7039 79.3821 58.8261C79.8468 57.9486 80.0857 56.9691 80.0773 55.9761C82.3711 59.7351 84.6673 63.4974 86.7046 67.401C87.0502 68.0631 87.3964 68.8254 87.1468 69.5292C87.0634 69.7215 86.9415 69.8946 86.7888 70.038C86.6358 70.1814 86.4553 70.2921 86.2582 70.3629C86.0611 70.4337 85.8514 70.4634 85.6423 70.4499C85.4329 70.4367 85.2289 70.3806 85.0423 70.2852C84.6814 70.0614 84.4147 69.7131 84.2926 69.306C84.1708 68.8992 84.202 68.4618 84.3802 68.0763C84.5797 67.7007 84.8932 67.3983 85.2757 67.2123C85.6579 67.026 86.0892 66.9657 86.508 67.0401" stroke="currentColor" stroke-width="0.9" stroke-linecap="round" stroke-linejoin="round"/>
<path d="M117.965 58.9427C117.604 58.64 117.157 58.4591 116.688 58.4264C116.218 58.3937 115.75 58.5107 115.352 58.7606C114.967 59.0309 114.691 59.4302 114.575 59.8859C114.46 60.3416 114.511 60.824 114.72 61.2455C114.838 61.4453 114.995 61.6202 115.181 61.7594C115.367 61.8986 115.579 62 115.804 62.0573C116.029 62.1146 116.263 62.1269 116.493 62.0933C116.723 62.06 116.944 61.9817 117.144 61.8626C118.118 61.2011 118.079 59.7686 117.847 58.6151C117.325 56.0318 116.377 53.5538 115.041 51.2828C117.577 50.8412 120.05 50.0927 122.405 49.0535C123.347 51.8693 124.173 54.7208 124.881 57.608C125.019 58.1696 125.146 58.7927 124.87 59.3015C124.493 60.0005 123.403 60.1145 122.822 59.5715C122.548 59.2826 122.385 58.9055 122.364 58.5077C122.343 58.1096 122.464 57.7175 122.706 57.401C122.898 57.1034 123.178 56.8733 123.507 56.7434C123.837 56.6135 124.198 56.5901 124.542 56.6768" stroke="currentColor" stroke-width="0.9" stroke-linecap="round" stroke-linejoin="round"/>
<path d="M127.983 33.6729C127.597 33.5538 127.191 33.5177 126.79 33.5675C126.389 33.617 126.004 33.7512 125.659 33.9609C125.319 34.1787 125.05 34.4918 124.887 34.8614C124.723 35.2307 124.672 35.6399 124.739 36.0383C124.827 36.4319 125.059 36.7785 125.39 37.0104C125.72 37.242 126.125 37.3421 126.525 37.2911C126.856 37.2002 127.156 37.022 127.394 36.7751C127.632 36.5285 127.8 36.2222 127.879 35.8886C128.029 35.2196 128.055 34.529 127.957 33.8504L127.373 26.8625C127.425 27.3391 127.628 27.7865 127.953 28.1388C128.278 28.4912 128.707 28.73 129.178 28.82C129.649 28.91 130.136 28.8465 130.568 28.6389C131 28.4313 131.354 28.0904 131.578 27.6665" stroke="currentColor" stroke-width="0.9" stroke-linecap="round" stroke-linejoin="round"/>
<path d="M208.096 113.96C207.22 112.927 205.687 112.354 204.46 112.927C203.233 113.5 202.777 115.418 203.83 116.27C204.606 116.898 205.804 116.714 206.606 116.12C207.408 115.526 207.906 114.62 208.379 113.741L214.542 102.305C214.053 103.16 213.92 104.173 214.174 105.125C214.428 106.077 215.047 106.89 215.898 107.387C216.748 107.885 217.76 108.026 218.714 107.781C219.668 107.536 220.487 106.924 220.992 106.079C218.714 110.687 216.344 115.249 213.884 119.764C213.337 120.766 212.587 121.896 211.446 121.933C210.082 121.977 209.252 119.976 210.183 118.977C211.114 117.978 213.069 118.517 213.453 119.828L214.018 119.389" stroke="currentColor" stroke-width="0.9" stroke-linecap="round" stroke-linejoin="round"/>
<path d="M217.64 130.741L216.777 127.074" stroke="currentColor" stroke-width="0.9" stroke-linecap="round" stroke-linejoin="round"/>
<path d="M215.043 129.411L218.908 128.063" stroke="currentColor" stroke-width="0.9" stroke-linecap="round" stroke-linejoin="round"/>
<path d="M207.698 35.8196L206.396 37.1204C206.357 37.1597 206.306 37.1861 206.252 37.196C206.197 37.2056 206.141 37.1984 206.09 37.1753C206.04 37.1519 205.998 37.1138 205.969 37.0658C205.941 37.0178 205.929 36.9626 205.933 36.9071L206.076 35.0723C206.08 35.0189 206.068 34.9652 206.042 34.9184C206.016 34.8716 205.977 34.8335 205.929 34.8092L204.289 33.9731C204.24 33.9479 204.199 33.908 204.173 33.8591C204.147 33.8102 204.136 33.7541 204.143 33.6992C204.15 33.644 204.173 33.5921 204.21 33.5504C204.247 33.509 204.295 33.4796 204.349 33.4667L206.139 33.0362C206.191 33.0236 206.238 32.996 206.275 32.9564C206.311 32.9171 206.335 32.8676 206.344 32.8145L206.632 30.9971C206.641 30.9422 206.666 30.8912 206.704 30.8513C206.743 30.8111 206.793 30.7838 206.847 30.773C206.902 30.7622 206.958 30.7682 207.009 30.7904C207.06 30.8129 207.103 30.8501 207.132 30.8975L208.094 32.4659C208.123 32.5118 208.164 32.5481 208.212 32.5706C208.261 32.5931 208.315 32.6006 208.369 32.5922L210.186 32.3051C210.241 32.2964 210.297 32.3048 210.347 32.3291C210.397 32.3534 210.439 32.3924 210.466 32.4407C210.493 32.489 210.505 32.5448 210.499 32.6C210.494 32.6552 210.472 32.7074 210.436 32.7497L209.241 34.1498C209.206 34.1909 209.184 34.241 209.178 34.2944C209.172 34.3478 209.181 34.4018 209.206 34.4498L210.04 36.0899C210.066 36.1394 210.075 36.1955 210.067 36.2504C210.06 36.3053 210.035 36.3566 209.998 36.3974C209.96 36.4382 209.911 36.4664 209.857 36.4784C209.803 36.4904 209.746 36.4856 209.695 36.4643L207.994 35.7611C207.944 35.7404 207.89 35.7347 207.837 35.7452C207.784 35.7557 207.736 35.7815 207.698 35.8196Z" fill="currentColor"/>
<path d="M117.052 76.4379L115.75 77.739C115.711 77.7783 115.66 77.8044 115.606 77.8143C115.551 77.8239 115.495 77.8167 115.444 77.7933C115.394 77.7702 115.352 77.7321 115.324 77.6841C115.295 77.6361 115.283 77.5809 115.287 77.5254L115.43 75.6909C115.435 75.6375 115.423 75.5838 115.397 75.537C115.37 75.4902 115.331 75.4521 115.283 75.4275L113.643 74.5914C113.594 74.5662 113.554 74.5263 113.528 74.4774C113.501 74.4285 113.491 74.3727 113.498 74.3175C113.504 74.2623 113.527 74.2107 113.564 74.169C113.601 74.1276 113.65 74.0985 113.703 74.0853L115.493 73.6545C115.545 73.6422 115.592 73.6143 115.629 73.575C115.665 73.5354 115.689 73.4859 115.697 73.4328L115.986 71.6154C115.994 71.5605 116.02 71.5098 116.058 71.4696C116.097 71.4297 116.147 71.4024 116.201 71.3916C116.256 71.3805 116.312 71.3868 116.363 71.409C116.414 71.4312 116.457 71.4684 116.486 71.5158L117.448 73.0845C117.476 73.1304 117.518 73.1667 117.566 73.1892C117.615 73.2117 117.669 73.2192 117.722 73.2108L119.54 72.9234C119.595 72.9147 119.651 72.9231 119.701 72.9474C119.751 72.9717 119.792 73.0107 119.82 73.0593C119.847 73.1076 119.858 73.1634 119.853 73.2186C119.848 73.2738 119.825 73.326 119.789 73.3683L118.595 74.7684C118.56 74.8092 118.538 74.8596 118.532 74.913C118.525 74.9664 118.535 75.0207 118.559 75.0684L119.394 76.7082C119.42 76.7577 119.429 76.8138 119.421 76.8687C119.414 76.9236 119.39 76.9749 119.352 77.0157C119.314 77.0565 119.265 77.0847 119.211 77.0967C119.156 77.1087 119.1 77.1039 119.048 77.0826L117.348 76.3794C117.298 76.359 117.244 76.3536 117.191 76.3638C117.138 76.3743 117.09 76.4001 117.052 76.4379Z" fill="currentColor"/>
<path d="M195.194 125.726L193.893 127.027C193.853 127.066 193.803 127.092 193.748 127.102C193.694 127.112 193.637 127.105 193.587 127.081C193.536 127.058 193.494 127.02 193.466 126.972C193.438 126.924 193.425 126.869 193.429 126.814L193.573 124.979C193.577 124.925 193.566 124.872 193.539 124.825C193.513 124.778 193.473 124.74 193.425 124.716L191.786 123.88C191.736 123.854 191.696 123.814 191.67 123.765C191.644 123.716 191.633 123.661 191.64 123.605C191.646 123.55 191.67 123.498 191.706 123.457C191.743 123.415 191.792 123.386 191.846 123.373L193.635 122.943C193.687 122.93 193.735 122.902 193.771 122.863C193.808 122.823 193.832 122.774 193.84 122.721L194.129 120.904C194.137 120.849 194.163 120.798 194.201 120.757C194.24 120.718 194.289 120.69 194.344 120.679C194.398 120.668 194.455 120.675 194.506 120.697C194.557 120.719 194.6 120.757 194.628 120.804L195.591 122.373C195.619 122.419 195.66 122.455 195.709 122.477C195.758 122.5 195.812 122.507 195.865 122.499L197.683 122.212C197.738 122.203 197.794 122.211 197.844 122.235C197.894 122.26 197.935 122.299 197.963 122.347C197.99 122.395 198.001 122.451 197.996 122.506C197.991 122.562 197.968 122.614 197.932 122.656L196.738 124.056C196.703 124.097 196.681 124.147 196.674 124.201C196.668 124.254 196.678 124.308 196.702 124.356L197.537 125.996C197.562 126.046 197.572 126.102 197.564 126.157C197.557 126.212 197.532 126.263 197.495 126.304C197.457 126.345 197.408 126.373 197.353 126.385C197.299 126.397 197.242 126.392 197.191 126.371L195.49 125.668C195.441 125.647 195.386 125.641 195.334 125.651C195.281 125.662 195.232 125.688 195.194 125.726Z" fill="currentColor"/>
<path d="M103.335 132.466L97.2905 131.747L100.313 137.068L103.335 132.466Z" stroke="currentColor" stroke-width="0.9" stroke-linecap="round" stroke-linejoin="round"/>
<path d="M87.232 114.06L92.3902 119.316L83.6182 120.675L87.232 114.06Z" stroke="currentColor" stroke-width="0.9" stroke-linecap="round" stroke-linejoin="round"/>
<path d="M98.43 91.9128L99.2928 98.7312L92.3901 97.1643L98.43 91.9128Z" stroke="currentColor" stroke-width="0.9" stroke-linecap="round" stroke-linejoin="round"/>
<path d="M118.419 101.962V97.1646L110.941 99.563L118.419 101.962Z" stroke="currentColor" stroke-width="0.9" stroke-linecap="round" stroke-linejoin="round"/>
<path d="M132.66 116.072L128.658 120.674L137.112 121.934L132.66 116.072Z" stroke="currentColor" stroke-width="0.9" stroke-linecap="round" stroke-linejoin="round"/>
<path d="M141.02 134.407L139.414 137.787L132.885 134.407H141.02Z" stroke="currentColor" stroke-width="0.9" stroke-linecap="round" stroke-linejoin="round"/>
<path d="M157.167 128.908L161.129 123.891L162.678 129.884L157.167 128.908Z" stroke="currentColor" stroke-width="0.9" stroke-linecap="round" stroke-linejoin="round"/>
<path d="M139.702 96.515L141.931 98.7318L144.681 94.2144L139.702 96.515Z" stroke="currentColor" stroke-width="0.9" stroke-linecap="round" stroke-linejoin="round"/>
<path d="M159.27 100.547L164.245 103.13L165.011 96.4727L159.27 100.547Z" stroke="currentColor" stroke-width="0.9" stroke-linecap="round" stroke-linejoin="round"/>
<path d="M183.33 99.5634V94.2144L190.178 96.4731L183.33 99.5634Z" stroke="currentColor" stroke-width="0.9" stroke-linecap="round" stroke-linejoin="round"/>
<path d="M187.445 79.5459L186.754 84.2916L194.204 81.1278L187.445 79.5459Z" stroke="currentColor" stroke-width="0.9" stroke-linecap="round" stroke-linejoin="round"/>
<path d="M200.388 66.4578L201.826 72.1455L194.817 71.3859L200.388 66.4578Z" stroke="currentColor" stroke-width="0.9" stroke-linecap="round" stroke-linejoin="round"/>
<path d="M186.754 64.8534L190.178 60.8514L183.33 59.439L186.754 64.8534Z" stroke="currentColor" stroke-width="0.9" stroke-linecap="round" stroke-linejoin="round"/>
<path d="M194.817 49.5707L192.335 52.2227L190.178 48.3401L194.817 49.5707Z" stroke="currentColor" stroke-width="0.9" stroke-linecap="round" stroke-linejoin="round"/>
<path fill-rule="evenodd" clip-rule="evenodd" d="M165.159 145.296C154.528 147.398 125.25 145.623 125.25 145.623C125.25 145.623 130.213 174.168 116.694 183.229C103.174 192.29 91.669 186.826 86.2051 178.627C84.763 176.464 82.6894 176.103 80.4694 176.849C74.2756 178.927 66.9394 189.601 68.9494 193.729C69.2452 194.338 69.589 195.164 70.0006 196.155C70.0564 196.289 70.1134 196.425 70.1716 196.565H70.1749C73.6651 204.902 81.9679 223.423 108.065 223.927C124.227 224.238 133.863 219.251 139.29 214.627C139.29 214.627 131.65 246.216 133.518 250.675C133.881 251.545 134.651 252.385 135.708 253.165C140.066 256.367 149.301 258.448 155.088 256.713C162.279 254.558 175.543 225.335 182.159 201.319C188.775 177.303 165.159 145.296 165.159 145.296ZM153.131 165.139C153.065 164.899 152.817 164.759 152.577 164.825C152.338 164.892 152.197 165.14 152.264 165.379C154.603 173.82 154.395 182.764 151.663 191.086C148.932 199.408 143.801 206.737 136.915 212.15C136.719 212.304 136.686 212.586 136.839 212.782C136.993 212.977 137.276 213.011 137.471 212.858C144.497 207.335 149.732 199.857 152.519 191.367C155.305 182.876 155.518 173.75 153.131 165.139Z" fill="currentColor"/>
<g opacity="0.1">
<path d="M155.721 55.3257C154.634 54.7143 153.223 54.714 151.996 54.6126C150.509 54.492 149.014 54.5223 147.533 54.7026C145.101 54.9945 142.593 55.7658 140.576 57.1956C136.122 60.3534 135.647 66.0255 135.672 71.0256C135.688 74.0454 140.527 74.0127 140.341 71.0256C140.089 66.9576 139.825 62.7012 143.153 59.7825C144.779 58.3557 146.906 57.6924 149.012 57.3489C151.127 57.0036 153.768 57.4197 155.721 56.5407C156.212 56.3199 156.147 55.566 155.721 55.3263V55.3257Z" fill="currentColor"/>
</g>
<g opacity="0.1">
<path d="M134.128 86.8691C133.878 87.3005 133.719 87.7778 133.657 88.2722C133.543 88.8227 133.273 89.3222 133.327 89.8994C133.336 90.2864 133.455 90.6629 133.671 90.9839C133.887 91.3052 134.191 91.5578 134.546 91.7114C134.907 91.8674 135.306 91.9118 135.692 91.8386C136.078 91.7657 136.434 91.5785 136.712 91.3016C137.002 90.9557 137.22 90.5555 137.355 90.1247C137.489 89.6942 137.537 89.2409 137.495 88.7915C137.465 88.0073 137.247 87.0584 136.595 86.5514C135.763 85.9052 134.754 85.9571 134.13 86.8691H134.128Z" fill="currentColor"/>
</g>
<g opacity="0.1">
<path d="M98.7089 88.1144C96.6947 87.6803 94.2149 89.1083 92.5268 90.1025C90.5069 91.2695 88.619 92.6519 86.8967 94.2254C83.3048 97.532 80.432 101.543 78.4577 106.009C76.3877 110.803 75.5672 115.976 76.7822 121.11C77.9348 125.981 80.6057 130.6 83.4086 134.7C86.5379 139.279 90.3104 143.336 94.9664 146.387C97.5938 148.11 100.029 143.902 97.4222 142.187C94.0016 139.881 91.0208 136.982 88.6199 133.627C86.1014 130.177 83.7422 126.335 82.2743 122.311C80.7086 118.12 80.6933 113.507 82.2305 109.306C83.6357 105.268 86.1305 101.51 89.0261 98.3858C90.5831 96.6818 92.2679 95.0996 94.0661 93.6527C94.9418 92.9603 95.8292 92.2697 96.7361 91.622C97.6499 90.9704 98.6747 90.3716 99.209 89.3525C99.2726 89.2406 99.3098 89.1155 99.3182 88.9871C99.3263 88.8587 99.3056 88.73 99.257 88.6109C99.2084 88.4915 99.1337 88.385 99.038 88.2986C98.9426 88.2125 98.8286 88.1492 98.705 88.1132L98.7089 88.1144Z" fill="currentColor"/>
</g>
<g opacity="0.1">
<path d="M121.881 108.602C121.767 109.628 122.586 110.488 123.046 111.339C123.616 112.386 124.057 113.497 124.36 114.649C125.12 117.526 124.552 120.851 124.099 123.744C123.14 129.912 121.716 135.998 119.839 141.952C118.827 145.151 123.855 146.524 124.856 143.335C127.133 136.084 128.795 128.533 129.235 120.929C129.423 117.668 128.991 113.821 127.158 111.023C126.364 109.81 125.367 108.59 124.018 107.963C123.323 107.639 121.99 107.597 121.879 108.602H121.881Z" fill="currentColor"/>
</g>
<g opacity="0.1">
<path d="M175.53 50.3196C174.3 52.5357 175.527 55.6386 176.154 57.9189C176.855 60.4689 177.772 62.9706 178.622 65.475C180.207 70.1445 182.091 75.132 181.734 80.1492C181.578 82.3458 180.744 84.4545 179.089 85.9392C177.469 87.3903 175.067 88.4292 173.024 89.1318C170.501 89.9994 167.582 89.8011 165.152 90.8178C162.767 91.815 159.957 90.4521 157.6 91.5537C157.096 91.7892 157.15 92.5653 157.6 92.8164C159.55 93.9063 162.022 93.0288 164.129 92.9685C165.096 92.9409 165.929 93.3015 166.917 93.222C168.062 93.1299 169.217 92.9301 170.348 92.7321C174.52 92.0019 178.685 91.3938 182.023 88.5546C188.75 82.8321 185.798 71.5422 183.476 64.4103C182.683 61.9746 181.818 59.5572 180.983 57.1356C180.551 55.8834 180.155 54.6249 179.771 53.3571C179.408 52.1547 179.071 50.8212 178.07 49.9914C177.296 49.3494 176.074 49.338 175.53 50.3187V50.3196Z" fill="currentColor"/>
</g>
</g>
<defs>
<linearGradient id="paint0_linear_28_12822" x1="141.019" y1="44.6037" x2="141.019" y2="146.323" gradientUnits="userSpaceOnUse">
<stop stop-color="#FFB800"/>
<stop offset="1" stop-color="#FF7F0A"/>
</linearGradient>
</defs>
</svg>
