<svg width="288" height="288" viewBox="0 0 288 288" fill="none" xmlns="http://www.w3.org/2000/svg">
<mask id="mask0_28_12860" style="mask-type:luminance" maskUnits="userSpaceOnUse" x="11" y="39" width="266" height="210">
<path d="M276.6 39.3H11.3999V249H276.6V39.3Z" fill="white"/>
</mask>
<g mask="url(#mask0_28_12860)">
<path d="M253.98 135.467C253.569 133.889 253.11 132.321 252.594 130.772L252.691 130.74C256.618 132.046 260.329 134.209 263.011 137.358C265.694 140.508 267.266 144.706 266.799 148.818C266.448 151.891 265.003 154.76 263.127 157.224C260.98 160.016 258.293 162.346 255.226 164.078C252.16 165.81 248.776 166.907 245.277 167.304L245.037 167.295L245.574 153.615L245.075 153.334C246.995 153.219 248.895 152.867 250.523 151.878C253.085 150.315 254.554 147.348 254.932 144.37C255.31 141.392 254.73 138.375 253.98 135.467Z" fill="url(#paint0_linear_28_12860)"/>
<path d="M248.312 84.0654L246.808 123.436L246.376 134.758L246.424 135.086C244.734 135.317 243.058 135.488 241.366 135.618L241.327 135.138L243.289 84.0639C243.418 80.7843 242.276 77.5815 240.101 75.1233C237.926 72.6654 234.886 71.142 231.615 70.8714L231.618 70.827L234.972 70.842C236.736 70.7568 238.499 71.0397 240.148 71.6724C241.798 72.3054 243.297 73.2744 244.552 74.5179C245.806 75.7617 246.788 77.2527 247.436 78.8964C248.083 80.5398 248.381 82.3002 248.312 84.0654Z" fill="#171717"/>
<path d="M234.15 198.756C234.764 201.134 234.138 206.201 232.856 206.781L178.198 231.431C169.42 235.387 159.488 235.958 150.315 233.033L150.206 232.997L130.466 226.695L130.338 226.494C131.523 225.755 132.709 225.018 133.896 224.281C134.65 223.868 135.327 223.327 135.896 222.683L136.136 222.703L150.316 227.123C159.489 230.048 169.42 229.478 178.199 225.522L232.856 200.871C233.245 200.702 233.558 200.399 233.741 200.016C233.922 199.634 233.96 199.199 233.846 198.791L234.15 198.756Z" fill="#171717"/>
<path d="M245.038 167.295L244.358 184.532C244.075 191.78 237.848 197.577 230.625 196.912H227.07L227.061 197.001L225.504 196.859L225.525 196.64C227.236 196.798 228.961 196.606 230.596 196.075C232.23 195.545 233.74 194.687 235.032 193.554C236.324 192.421 237.372 191.037 238.111 189.486C238.851 187.935 239.268 186.249 239.335 184.532L240.552 153.615L240.561 153.34C241.453 153.373 242.325 153.387 243.161 153.387C243.796 153.384 244.437 153.373 245.076 153.334L245.575 153.615L245.038 167.295Z" fill="#171717"/>
<path d="M200.246 199.553L215.832 201.415C216.006 201.435 216.169 201.513 216.295 201.637C216.421 201.76 216.502 201.922 216.526 202.096C216.55 202.27 216.516 202.448 216.428 202.601C216.34 202.753 216.204 202.872 216.042 202.94L203.082 208.28L187.892 205.845C194.865 202.298 200.246 199.553 200.246 199.553Z" fill="#171717"/>
<path d="M186.356 197.896L200.246 199.553C200.246 199.553 194.866 202.298 187.893 205.844L174.494 203.696L186.356 197.896Z" fill="#171717"/>
<path d="M187.892 205.844L203.082 208.279L189.33 213.945L176.817 211.461C180.594 209.55 184.438 207.6 187.892 205.844Z" fill="#171717"/>
<path d="M163.874 208.887L174.494 203.696L187.893 205.844C184.439 207.599 180.595 209.549 176.819 211.461L163.874 208.887Z" fill="#171717"/>
<path d="M165.83 216.998C169.08 215.37 172.912 213.437 176.818 211.461L189.331 213.946L175.935 219.466L165.83 216.998Z" fill="#171717"/>
<path d="M175.935 219.465L167.452 222.96C166.167 223.489 164.742 223.574 163.402 223.202L156.816 221.372C157.011 221.372 160.69 219.567 165.831 216.996L175.935 219.465Z" fill="#171717"/>
<path d="M159.713 201.326L174.493 203.696L163.873 208.888L150.433 206.218C153.6 204.547 156.824 202.848 159.713 201.326Z" fill="#171717"/>
<path d="M174.493 203.696L159.714 201.326C165.49 198.28 169.934 195.934 169.934 195.934L186.356 197.895L174.493 203.696Z" fill="#171717"/>
<path d="M165.83 216.998L153.465 213.978L163.875 208.887L176.819 211.461C172.912 213.437 169.08 215.37 165.83 216.998Z" fill="#171717"/>
<path d="M145.026 218.103L153.465 213.978L165.83 216.998C160.689 219.568 157.01 221.374 156.815 221.374H156.81L145.026 218.103Z" fill="#171717"/>
<path d="M163.873 208.887L153.463 213.978L141.323 211.012C144.02 209.594 147.196 207.922 150.432 206.216L163.873 208.887Z" fill="#171717"/>
<path d="M156.02 194.274L169.933 195.934C169.933 195.934 165.489 198.28 159.713 201.326L146.196 199.158C151.753 196.404 156.02 194.274 156.02 194.274Z" fill="#171717"/>
<path d="M156.02 194.274C156.02 194.274 151.754 196.404 146.196 199.158L135.261 197.405L145.023 192.96H145.026L156.02 194.274Z" fill="#171717"/>
<path d="M153.465 213.978L145.026 218.103L133.766 214.977C134.082 214.82 137.126 213.225 141.324 211.012L153.465 213.978Z" fill="#171717"/>
<path d="M150.433 206.216C147.198 207.921 144.022 209.593 141.324 211.012L128.501 207.88C131.101 206.615 134.141 205.12 137.235 203.596L150.433 206.216Z" fill="#171717"/>
<path d="M137.235 203.596C140.295 202.086 143.41 200.543 146.196 199.158L159.714 201.326C156.824 202.848 153.601 204.547 150.433 206.216L137.235 203.596Z" fill="#171717"/>
<path d="M135.751 191.851L145.023 192.959L135.261 197.405L125.587 195.854L135.748 191.851H135.751Z" fill="#171717"/>
<path d="M126.397 201.442L135.261 197.405L146.197 199.158C143.41 200.543 140.296 202.086 137.235 203.596L126.397 201.442Z" fill="#171717"/>
<path d="M135.261 197.405L126.397 201.442L116.431 199.462L125.587 195.854L135.261 197.405Z" fill="#171717"/>
<path d="M126.397 201.442L137.235 203.596C134.141 205.12 131.101 206.615 128.501 207.88L117.93 205.298L126.397 201.442Z" fill="#171717"/>
<path d="M126.362 190.731L135.75 191.85L125.589 195.853L115.727 194.273L125.081 190.878C125.49 190.729 125.929 190.679 126.362 190.731Z" fill="#171717"/>
<path d="M117.93 205.297L128.502 207.88C124.191 209.98 121.088 211.458 120.956 211.42L111.258 208.731L111.383 208.279L117.93 205.297Z" fill="#171717"/>
<path d="M107.859 202.836L116.431 199.462L126.397 201.442L117.929 205.298L107.859 202.836Z" fill="#171717"/>
<path d="M133.766 214.977L120.957 211.419C121.089 211.458 124.192 209.979 128.502 207.879L141.326 211.011C137.126 213.225 134.082 214.82 133.766 214.977Z" fill="#171717"/>
<path d="M72.1826 124.136L88.5365 123.619L94.697 123.424V129.682H120.955L120.305 178.59C120.274 180.861 121.101 183.06 122.62 184.748C124.14 186.437 126.239 187.49 128.501 187.699L225.525 196.639L225.505 196.858L124.305 187.626C123.073 187.513 121.831 187.665 120.662 188.072L82.6922 201.302C82.3952 201.403 82.1225 201.565 81.8915 201.778L81.8885 201.775C79.8527 202.483 80.6948 210.81 82.7483 211.465L118.96 223.008L118.957 223.02C118.957 223.02 118.674 223.877 118.154 225.277C117.569 226.858 116.682 229.13 115.569 231.636C112.871 237.714 108.838 245.171 104.499 247.517C96.7802 251.691 24.8255 242.514 19.1969 195.172C13.5683 147.83 68.6252 129.682 68.6252 129.682L68.2145 124.26L72.1826 124.136Z" fill="url(#paint1_linear_28_12860)"/>
<path d="M117.929 205.298L111.382 208.279L111.257 208.731L100.491 205.741L107.86 202.836L117.929 205.298Z" fill="#171717"/>
<path d="M116.431 199.462L107.859 202.836L98.4551 200.54L106.737 197.536L116.431 199.462Z" fill="#171717"/>
<path d="M106.737 197.536L115.725 194.274L125.587 195.854L116.431 199.462L106.737 197.536Z" fill="#171717"/>
<path d="M107.859 202.836L100.49 205.74L93.6117 203.831C93.4497 203.786 93.306 203.69 93.2019 203.558C93.0978 203.425 93.0381 203.263 93.0318 203.095C93.0255 202.927 93.0729 202.761 93.1671 202.622C93.2613 202.482 93.3975 202.376 93.5556 202.318L98.4546 200.54L107.859 202.836Z" fill="#171717"/>
<path d="M98.4554 82.6323C96.7376 83.3628 94.9676 83.9631 93.1604 84.4287C88.1318 85.7376 82.9199 86.1513 77.7374 86.5587L77.6192 86.5914C76.6823 91.3707 75.2687 96.0441 73.4 100.541C72.2648 103.28 70.9304 105.931 69.4082 108.475C68.9792 103.91 69.4262 99.3042 70.7258 94.9068C69.8228 97.0404 68.5088 98.9751 66.8582 100.601C66.5096 100.946 65.972 101.292 65.573 101.011C65.273 100.805 65.2568 100.379 65.2688 100.019C65.4368 95.0073 65.6033 89.9964 65.768 84.9852L65.9336 84.7665C73.4825 82.8963 78.9929 77.4981 84.7073 72.2241C88.0271 69.1605 91.3343 66.0846 94.6289 62.9967C94.7264 67.1097 92.5637 70.8975 90.4688 74.4402C94.5434 71.9109 98.6168 69.3816 102.689 66.8526C102.082 70.6029 100.595 74.1561 98.3489 77.22C100.267 75.5907 102.49 74.3592 104.889 73.5978C105.844 73.2963 107.058 73.1397 107.693 73.9167C108.479 74.883 107.646 76.3011 106.763 77.1816C104.364 79.5087 101.545 81.3585 98.4554 82.6323Z" fill="#171717"/>
<path d="M82.7477 211.467C80.6943 210.811 79.8522 202.484 81.888 201.777L81.891 201.78C81.6057 202.048 81.3954 202.386 81.2811 202.76C81.1665 203.135 81.1518 203.533 81.2385 203.915C81.3249 204.297 81.5097 204.649 81.7746 204.938C82.0392 205.226 82.3748 205.441 82.7477 205.56L127.33 219.789L127.416 219.99C126.451 220.42 125.522 220.928 124.639 221.509C122.05 223.205 120.337 223.09 118.153 225.282C118.673 223.882 118.957 223.025 118.957 223.025L118.96 223.013L82.7477 211.467Z" fill="#171717"/>
<path d="M77.7898 114.18C76.3243 113.456 75.7777 111.544 76.1323 109.952C76.4869 108.359 77.5327 107.018 78.5875 105.771C78.8191 107.24 79.6114 108.562 80.7976 109.459C80.8597 109.503 80.9218 109.55 80.9839 109.591L80.8183 109.792C79.0279 110.572 78.0262 112.513 78.6319 114.372L78.6172 114.446C78.3298 114.399 78.0508 114.31 77.7898 114.18Z" fill="#171717"/>
<path d="M240.552 153.615L239.335 184.532C239.268 186.249 238.852 187.935 238.112 189.486C237.372 191.037 236.324 192.421 235.032 193.554C233.74 194.687 232.23 195.545 230.596 196.075C228.962 196.606 227.236 196.798 225.525 196.64L128.5 187.7C126.239 187.491 124.139 186.437 122.62 184.749C121.101 183.06 120.274 180.861 120.304 178.59L120.954 129.682L121.489 89.6319C121.537 85.9629 122.983 82.4505 125.532 79.8108C128.08 77.1711 131.54 75.603 135.204 75.426L229.95 70.8435C230.505 70.8165 231.062 70.8264 231.616 70.8735C234.887 71.1444 237.927 72.6675 240.102 75.1257C242.277 77.5836 243.419 80.7864 243.29 84.066L241.328 135.14" stroke="#171717" stroke-width="0.9" stroke-linecap="round" stroke-linejoin="round"/>
<path d="M231.207 152.681L230.356 178.1C230.317 179.26 230.041 180.399 229.545 181.448C229.049 182.497 228.342 183.433 227.47 184.199C226.598 184.964 225.579 185.543 224.474 185.899C223.37 186.256 222.204 186.382 221.049 186.27L136.466 180.316C134.158 180.092 132.018 179.009 130.471 177.28C128.925 175.552 128.085 173.305 128.12 170.986L130.965 94.2924C131.004 91.6626 132.054 89.1486 133.897 87.273C135.741 85.3974 138.236 84.3039 140.865 84.2199L223.161 81.6099C224.499 81.5667 225.831 81.7986 227.076 82.2915C228.32 82.7844 229.45 83.5272 230.396 84.4746C231.342 85.422 232.083 86.5533 232.574 87.7989C233.065 89.0442 233.295 90.3771 233.25 91.7151L231.78 135.677" stroke="#171717" stroke-width="0.9" stroke-linecap="round" stroke-linejoin="round"/>
<path d="M127.331 219.787L82.7479 205.557C82.2964 205.417 81.9007 205.139 81.6175 204.76C81.3346 204.381 81.1789 203.923 81.1726 203.45C81.1663 202.978 81.31 202.515 81.583 202.13C81.856 201.743 82.2442 201.454 82.6918 201.303L120.662 188.073C121.831 187.666 123.073 187.514 124.305 187.627L225.504 196.86L227.062 197.002L232.285 197.478C232.677 197.513 233.046 197.677 233.335 197.944C233.624 198.211 233.816 198.567 233.881 198.955C233.946 199.343 233.881 199.741 233.695 200.089C233.51 200.435 233.214 200.711 232.855 200.873L178.198 225.522C169.419 229.478 159.488 230.048 150.315 227.123L136.135 222.703" stroke="#171717" stroke-width="0.9" stroke-linecap="round" stroke-linejoin="round"/>
<path d="M118.957 223.022C118.957 223.022 118.674 223.879 118.154 225.28C117.569 226.86 116.682 229.132 115.569 231.638C112.871 237.716 108.838 245.173 104.499 247.519C96.7802 251.691 24.8255 242.514 19.1969 195.172C13.5683 147.83 68.6252 129.682 68.6252 129.682L68.2145 124.26L72.1826 124.136L88.5365 123.619L94.697 123.424V129.682H120.955" stroke="#171717" stroke-width="0.9" stroke-linecap="round" stroke-linejoin="round"/>
<path d="M58.8213 153.248C58.8213 153.248 33.3789 169.517 62.9931 198.924" stroke="#171717" stroke-width="0.9" stroke-linecap="round" stroke-linejoin="round"/>
<path d="M245.575 153.615L245.038 167.295L244.358 184.532C244.074 191.78 237.848 197.577 230.625 196.912H227.07" stroke="#171717" stroke-width="0.9" stroke-linecap="round" stroke-linejoin="round"/>
<path d="M231.618 70.83L234.972 70.845C236.736 70.7598 238.498 71.0427 240.148 71.6754C241.797 72.3081 243.296 73.2771 244.551 74.5203C245.805 75.7638 246.788 77.2548 247.435 78.8982C248.082 80.5416 248.381 82.3017 248.312 84.0669L246.808 123.437L246.376 134.76" stroke="#171717" stroke-width="0.9" stroke-linecap="round" stroke-linejoin="round"/>
<path d="M120.068 223.365L118.96 223.01L82.7477 211.467C80.6943 210.811 79.8522 202.484 81.888 201.777" stroke="#171717" stroke-width="0.9" stroke-linecap="round" stroke-linejoin="round"/>
<path d="M233.255 197.536C233.675 197.574 233.967 198.044 234.15 198.756C234.764 201.134 234.138 206.201 232.856 206.781L178.198 231.431C169.419 235.388 159.488 235.958 150.315 233.033L150.205 232.997L130.465 226.695" stroke="#171717" stroke-width="0.9" stroke-linecap="round" stroke-linejoin="round"/>
<path d="M118.154 225.28C120.337 223.087 122.051 223.202 124.639 221.507C125.522 220.925 126.451 220.417 127.417 219.988C129.278 219.132 131.309 218.71 133.357 218.753C134.544 218.8 135.907 219.175 136.367 220.271C136.697 221.063 136.424 222.003 135.898 222.683C135.328 223.327 134.651 223.868 133.897 224.281C132.712 225.02 131.527 225.757 130.34 226.494C129.1 227.265 127.858 228.037 126.614 228.81" stroke="#171717" stroke-width="0.9" stroke-linecap="round" stroke-linejoin="round"/>
<path d="M115.725 231.671C122.349 233.618 133.766 237.926 142.261 237.371C149.556 236.895 149.485 236.251 150.2 233.012" stroke="#171717" stroke-width="0.9" stroke-linecap="round" stroke-linejoin="round"/>
<path d="M77.6192 86.5917C76.6823 91.371 75.2687 96.0444 73.4 100.542C72.2648 103.28 70.9304 105.932 69.4082 108.475C68.9792 103.91 69.4262 99.3045 70.7258 94.9071C69.8228 97.0407 68.5088 98.9754 66.8582 100.601C66.5096 100.946 65.972 101.292 65.573 101.012C65.273 100.805 65.2568 100.379 65.2688 100.019C65.4368 95.0076 65.6033 89.9964 65.768 84.9855" stroke="#171717" stroke-width="0.9" stroke-linecap="round" stroke-linejoin="round"/>
<path d="M65.9331 84.7656C73.482 82.8954 78.9924 77.4972 84.7068 72.2232C88.0269 69.1596 91.3341 66.0837 94.6284 62.9958C94.7259 67.1088 92.5632 70.8966 90.4683 74.4393C94.5429 71.91 98.6166 69.3807 102.689 66.8517C102.082 70.6026 100.595 74.1558 98.3484 77.22C100.267 75.5907 102.49 74.3595 104.888 73.5978C105.843 73.2963 107.057 73.1397 107.693 73.9167C108.479 74.883 107.645 76.3011 106.763 77.1816C104.365 79.5087 101.546 81.3588 98.457 82.6329C96.7395 83.3634 94.9695 83.9637 93.162 84.4293C88.1334 85.7382 82.9215 86.1519 77.739 86.5593" stroke="#171717" stroke-width="0.9" stroke-linecap="round" stroke-linejoin="round"/>
<path d="M98.455 82.62V82.6317C98.452 88.2843 98.449 93.9342 98.446 99.5817C98.446 103.349 98.2156 107.63 95.326 110.047C93.9196 111.22 92.0344 111.787 90.823 113.158C88.4209 115.873 89.7388 120.193 88.5361 123.612" stroke="#171717" stroke-width="0.9" stroke-linecap="round" stroke-linejoin="round"/>
<path d="M85.2539 105.968C86.4329 106.506 87.8687 105.668 88.445 104.509C89.0213 103.349 88.9739 101.991 88.9088 100.697C88.7756 97.9878 88.6418 95.2794 88.5071 92.5719C88.4627 91.644 88.433 90.6519 88.9178 89.8596C89.5028 88.908 90.7178 88.4973 91.8278 88.5696C92.9378 88.6419 93.9878 89.1012 95.0078 89.5563" stroke="#171717" stroke-width="0.9" stroke-linecap="round" stroke-linejoin="round"/>
<path d="M92.333 96.9387V94.1556" stroke="#171717" stroke-width="0.9" stroke-linecap="round" stroke-linejoin="round"/>
<path d="M82.748 96.1026C82.7954 95.2695 82.8407 94.4355 82.8839 93.6" stroke="#171717" stroke-width="0.9" stroke-linecap="round" stroke-linejoin="round"/>
<path d="M84.9605 110.539C83.5637 110.719 82.1489 110.382 80.9837 109.591C80.9216 109.549 80.8595 109.501 80.7974 109.458C79.6109 108.561 78.8186 107.239 78.5873 105.77C77.5325 107.017 76.4873 108.358 76.1321 109.951C75.7769 111.543 76.3241 113.455 77.7896 114.179C78.0506 114.309 78.3293 114.398 78.617 114.445C79.937 114.664 81.3824 114.025 82.5851 113.313" stroke="#171717" stroke-width="0.9" stroke-linecap="round" stroke-linejoin="round"/>
<path d="M78.6322 114.371C78.0265 112.511 79.0282 110.572 80.8186 109.792" stroke="#171717" stroke-width="0.9" stroke-linecap="round" stroke-linejoin="round"/>
<path d="M73.4265 100.552C73.0101 108.415 72.5955 116.276 72.1827 124.136C72.1827 124.154 72.1797 124.172 72.1797 124.19" stroke="#171717" stroke-width="0.9" stroke-linecap="round" stroke-linejoin="round"/>
<path d="M243.42 147.587C238.489 147.527 233.764 147.359 228.316 147.114C227.376 147.073 226.194 146.63 225.397 147.132C224.599 147.635 224.35 148.842 224.563 149.759C224.847 150.973 226.262 151.484 227.476 151.762C228.661 152.032 229.929 152.267 231.238 152.471C234.327 152.94 237.44 153.23 240.563 153.34C241.455 153.372 242.327 153.387 243.163 153.387C243.798 153.384 244.439 153.373 245.077 153.334C246.997 153.219 248.898 152.867 250.526 151.877C253.087 150.314 254.556 147.347 254.934 144.369C255.312 141.392 254.73 138.375 253.98 135.467C253.569 133.889 253.11 132.32 252.594 130.772C252.13 129.363 251.623 127.967 251.072 126.586C250.712 125.676 250.313 124.748 249.607 124.071C248.901 123.395 247.804 123.025 246.918 123.439" stroke="#171717" stroke-width="0.9" stroke-linecap="round" stroke-linejoin="round"/>
<path d="M243.42 147.587C244.114 147.611 244.788 147.62 245.438 147.608C244.757 147.605 244.086 147.596 243.42 147.587Z" stroke="#171717" stroke-width="0.9" stroke-linecap="round" stroke-linejoin="round"/>
<path d="M234.613 141.217C231.541 141.22 228.497 141.303 225.785 141.56C225.019 141.622 224.289 141.908 223.685 142.384C223.097 142.869 222.757 143.738 223.103 144.414C223.496 145.185 224.515 145.295 225.372 145.413C231.394 146.237 238.012 147.404 243.419 147.587" stroke="#171717" stroke-width="0.9" stroke-linecap="round" stroke-linejoin="round"/>
<path d="M234.614 141.217C238.649 141.494 242.695 141.565 246.737 141.43C243.162 141.368 238.857 141.214 234.614 141.217Z" stroke="#171717" stroke-width="0.9" stroke-linecap="round" stroke-linejoin="round"/>
<path d="M247.295 134.965C247.002 135.006 246.713 135.048 246.425 135.085C244.735 135.315 243.06 135.487 241.367 135.617C238.311 135.853 235.191 135.957 231.788 136.028C231.359 136.034 230.925 136.042 230.485 136.051C229.749 136.066 226.939 136.273 226.313 136.66C225.996 136.843 225.738 137.113 225.568 137.438C225.399 137.763 225.327 138.13 225.358 138.495C225.58 140.072 229.82 140.855 234.615 141.216" stroke="#171717" stroke-width="0.9" stroke-linecap="round" stroke-linejoin="round"/>
<path d="M252.69 130.74C256.617 132.046 260.328 134.209 263.01 137.358C265.692 140.508 267.265 144.706 266.798 148.818C266.446 151.891 265.002 154.76 263.125 157.224C260.978 160.016 258.292 162.346 255.225 164.078C252.158 165.81 248.775 166.907 245.275 167.304" stroke="#171717" stroke-width="0.9" stroke-linecap="round" stroke-linejoin="round"/>
<path d="M91.6094 129.612L91.7213 125.857" stroke="#171717" stroke-width="0.9" stroke-linecap="round" stroke-linejoin="round"/>
<path d="M85.3799 129.751V125.858" stroke="#171717" stroke-width="0.9" stroke-linecap="round" stroke-linejoin="round"/>
<path d="M78.7061 130.308C78.9368 129.062 78.8894 127.779 78.5669 126.554" stroke="#171717" stroke-width="0.9" stroke-linecap="round" stroke-linejoin="round"/>
<path d="M72.8703 130.586L72.7305 126.692" stroke="#171717" stroke-width="0.9" stroke-linecap="round" stroke-linejoin="round"/>
<path d="M109.545 145.172L112.665 141.099" stroke="#171717" stroke-width="0.9" stroke-linecap="round" stroke-linejoin="round"/>
<path d="M99.9001 157.117L96.4561 152.739" stroke="#171717" stroke-width="0.9" stroke-linecap="round" stroke-linejoin="round"/>
<path d="M94.9038 142.717C95.6127 141.463 96.711 140.475 98.0325 139.902" stroke="#171717" stroke-width="0.9" stroke-linecap="round" stroke-linejoin="round"/>
<path d="M81.5938 123.952C82.4232 148.636 87.8472 172.949 97.5873 195.645" stroke="#171717" stroke-width="0.9" stroke-linecap="round" stroke-linejoin="round"/>
<path d="M109.841 169.869L106.011 174.499" stroke="#171717" stroke-width="0.9" stroke-linecap="round" stroke-linejoin="round"/>
<path d="M103.038 186.828L100.222 184.326" stroke="#171717" stroke-width="0.9" stroke-linecap="round" stroke-linejoin="round"/>
<path d="M73.6308 153.98L70.5024 152.416" stroke="#171717" stroke-width="0.9" stroke-linecap="round" stroke-linejoin="round"/>
<path d="M61.0967 143.955L63.2135 140.778" stroke="#171717" stroke-width="0.9" stroke-linecap="round" stroke-linejoin="round"/>
<path d="M71.1174 183.71L66.7422 179.013" stroke="#171717" stroke-width="0.9" stroke-linecap="round" stroke-linejoin="round"/>
<path d="M76.4458 174.627L79.5745 171.499" stroke="#171717" stroke-width="0.9" stroke-linecap="round" stroke-linejoin="round"/>
<path d="M84.5522 197.196L81.1187 194.995" stroke="#171717" stroke-width="0.9" stroke-linecap="round" stroke-linejoin="round"/>
<path d="M93.6338 229.66L97.0433 227.422" stroke="#171717" stroke-width="0.9" stroke-linecap="round" stroke-linejoin="round"/>
<path d="M75.45 239.732L72.9492 235.352" stroke="#171717" stroke-width="0.9" stroke-linecap="round" stroke-linejoin="round"/>
<path d="M61.7427 220.303L65.8563 218.183L65.8236 217.487" stroke="#171717" stroke-width="0.9" stroke-linecap="round" stroke-linejoin="round"/>
<path d="M45.4743 221.554L43.5972 216.861" stroke="#171717" stroke-width="0.9" stroke-linecap="round" stroke-linejoin="round"/>
<path d="M48.916 202.784L52.0444 201.219" stroke="#171717" stroke-width="0.9" stroke-linecap="round" stroke-linejoin="round"/>
<path d="M33.5864 195.9L30.458 193.398" stroke="#171717" stroke-width="0.9" stroke-linecap="round" stroke-linejoin="round"/>
<path d="M36.9731 179.573L40.7423 176.148" stroke="#171717" stroke-width="0.9" stroke-linecap="round" stroke-linejoin="round"/>
<path d="M36.4059 165.551L33.5898 162.424" stroke="#171717" stroke-width="0.9" stroke-linecap="round" stroke-linejoin="round"/>
<path d="M44.5361 155.231L47.9774 152.103" stroke="#171717" stroke-width="0.9" stroke-linecap="round" stroke-linejoin="round"/>
<path d="M250.7 162.844L250.283 159.089" stroke="#171717" stroke-width="0.9" stroke-linecap="round" stroke-linejoin="round"/>
<path d="M259.043 149.496L262.38 148.244" stroke="#171717" stroke-width="0.9" stroke-linecap="round" stroke-linejoin="round"/>
<path d="M95.1235 248.228C103.109 240.891 108.842 231.435 111.654 220.962" stroke="#171717" stroke-width="0.9" stroke-linecap="round" stroke-linejoin="round"/>
<path d="M258.01 136.864C258.834 137.448 259.492 138.237 259.918 139.153" stroke="#171717" stroke-width="0.9" stroke-linecap="round" stroke-linejoin="round"/>
<path d="M115.86 64.5L123.714 59.5473" stroke="#171717" stroke-width="0.9" stroke-linecap="round" stroke-linejoin="round"/>
<path d="M110.707 61.7514C113.475 54.4086 116.437 47.1435 119.593 39.9558" stroke="#171717" stroke-width="0.9" stroke-linecap="round" stroke-linejoin="round"/>
<path d="M105.853 58.2492L104.915 49.4892" stroke="#171717" stroke-width="0.9" stroke-linecap="round" stroke-linejoin="round"/>
<path d="M132.132 68.7444L135.265 68.0484" stroke="#171717" stroke-width="0.9" stroke-linecap="round" stroke-linejoin="round"/>
<path d="M133.84 70.1454L132.782 66.3207" stroke="#171717" stroke-width="0.9" stroke-linecap="round" stroke-linejoin="round"/>
<path d="M140.137 45.8829L136.2 45.1848" stroke="#171717" stroke-width="0.9" stroke-linecap="round" stroke-linejoin="round"/>
<path d="M137.694 47.8611L138.39 43.6845" stroke="#171717" stroke-width="0.9" stroke-linecap="round" stroke-linejoin="round"/>
<path d="M12.066 188.39C11.8401 208.834 22.446 229.09 39.3778 240.551" stroke="#171717" stroke-width="0.9" stroke-linecap="round" stroke-linejoin="round"/>
<path d="M85.422 60.5049L82.752 58.3365" stroke="#171717" stroke-width="0.9" stroke-linecap="round" stroke-linejoin="round"/>
<path d="M82.5859 61.1724L85.0759 57.6624" stroke="#171717" stroke-width="0.9" stroke-linecap="round" stroke-linejoin="round"/>
<path d="M55.4276 102.16L50.2217 98.2563" stroke="#171717" stroke-width="0.9" stroke-linecap="round" stroke-linejoin="round"/>
<path d="M50.8198 103.689L54.8278 96.7287" stroke="#171717" stroke-width="0.9" stroke-linecap="round" stroke-linejoin="round"/>
<path d="M65.9132 60.66L62.7485 58.65" stroke="#171717" stroke-width="0.9" stroke-linecap="round" stroke-linejoin="round"/>
<path d="M62.6157 62.1975L65.7699 56.1843" stroke="#171717" stroke-width="0.9" stroke-linecap="round" stroke-linejoin="round"/>
<path d="M27.5503 114.764C29.3575 114.717 31.1319 115.253 32.6112 116.292C34.0905 117.331 35.1963 118.819 35.7654 120.534C36.3342 122.25 36.3363 124.104 35.7708 125.821C35.2053 127.538 34.1022 129.028 32.625 130.07C31.0113 131.208 28.7575 131.722 27.064 130.706C25.3705 129.691 24.964 126.815 26.6545 125.793C27.7021 125.158 29.1409 125.46 30.0444 126.288C30.948 127.116 31.3725 128.36 31.4688 129.581C31.5597 130.94 31.293 132.3 30.6954 133.524C30.0975 134.749 29.1894 135.795 28.0615 136.56C25.0426 138.555 21.0142 138.2 17.7508 139.763C16.4432 140.389 15.2968 141.308 14.4002 142.447C13.5035 143.587 12.8804 144.917 12.579 146.335C12.2776 147.753 12.3058 149.221 12.6615 150.627C13.0173 152.033 13.691 153.338 14.6308 154.442" stroke="#171717" stroke-width="0.9" stroke-linecap="round" stroke-linejoin="round"/>
<path d="M262.624 99.27C258.769 103.752 258.385 110.862 261.732 115.733C262.687 117.122 263.959 118.365 265.555 118.907C267.15 119.45 269.098 119.156 270.214 117.894C271.33 116.631 271.245 114.38 269.841 113.448C267.909 112.166 265.152 114.269 265.049 116.585C264.947 118.9 266.568 120.931 268.319 122.448C271.39 125.104 275.464 127.461 276.01 131.484C276.163 132.854 275.87 134.237 275.173 135.426C274.477 136.616 273.414 137.548 272.144 138.084" stroke="#171717" stroke-width="0.9" stroke-linecap="round" stroke-linejoin="round"/>
<path d="M16.7845 132.707L13.2637 130.412" stroke="#171717" stroke-width="0.9" stroke-linecap="round" stroke-linejoin="round"/>
<path d="M13.7729 133.228L16.2756 129.891" stroke="#171717" stroke-width="0.9" stroke-linecap="round" stroke-linejoin="round"/>
<path d="M78.7949 46.3728L80.6969 47.9835C80.7542 48.0321 80.7953 48.0972 80.8145 48.1698C80.834 48.2427 80.8304 48.3195 80.8049 48.39C80.7791 48.4608 80.7323 48.522 80.6711 48.5652C80.6096 48.6087 80.5361 48.6321 80.4611 48.6324L77.9684 48.6453C77.8955 48.6459 77.8247 48.6678 77.7644 48.7083C77.7041 48.7491 77.6573 48.8067 77.6297 48.8739L76.6856 51.1806C76.6571 51.2502 76.6079 51.3096 76.5446 51.3504C76.4816 51.3912 76.4075 51.4116 76.3322 51.4089C76.2572 51.4065 76.1846 51.381 76.1243 51.336C76.0643 51.2907 76.0193 51.2283 75.9956 51.1569L75.2135 48.7902C75.1907 48.7212 75.1478 48.6606 75.0905 48.6159C75.0332 48.5709 74.9639 48.5442 74.8913 48.5388L72.4055 48.3534C72.3305 48.348 72.2591 48.3195 72.2006 48.2721C72.1424 48.2244 72.1001 48.1602 72.0791 48.0879C72.0584 48.0159 72.0605 47.9388 72.0845 47.8677C72.1088 47.7966 72.1544 47.7345 72.215 47.6898L74.225 46.2144C74.2835 46.1715 74.3282 46.1121 74.3531 46.0437C74.378 45.9753 74.3819 45.9012 74.3648 45.8304L73.7726 43.4091C73.7546 43.3362 73.7597 43.2594 73.7867 43.1892C73.8137 43.119 73.8617 43.0587 73.9241 43.0167C73.9865 42.9744 74.0603 42.9525 74.1356 42.9537C74.2109 42.9549 74.2838 42.9789 74.345 43.0227L76.3691 44.4777C76.4282 44.5203 76.4984 44.5443 76.571 44.5467C76.6436 44.5494 76.7156 44.5302 76.7774 44.4918L78.8972 43.1805C78.9611 43.1412 79.0355 43.122 79.1108 43.1262C79.1858 43.1304 79.2578 43.1574 79.3172 43.2036C79.3763 43.2498 79.4201 43.3131 79.4423 43.3851C79.4645 43.4568 79.4642 43.5339 79.4414 43.6053L78.6833 45.9798C78.6611 46.0491 78.6596 46.1235 78.6797 46.1934C78.6995 46.2633 78.7394 46.3257 78.7949 46.3728Z" fill="#171717"/>
<g opacity="0.1">
<path d="M96.5878 82.7436C95.3182 82.7436 94.1989 83.6028 92.9929 83.9466C91.5958 84.3153 90.1693 84.5616 88.7293 84.6825C85.96 84.9672 83.1598 85.0098 80.5303 86.0325C77.9542 87.036 75.9403 88.7088 74.6755 91.1901C74.0878 92.3439 73.6555 93.5709 73.0594 94.7202C72.4945 95.8077 71.5693 96.6222 71.0917 97.7406C70.564 98.9757 71.1532 100.515 72.6817 100.513C75.6793 100.508 76.9147 97.3596 77.9104 95.0055C78.9409 92.5695 80.1073 90.7524 82.6981 89.8137C85.3237 88.8624 88.1137 88.6785 90.8371 88.1802C93.0313 87.7785 97.1167 86.7876 97.744 84.261C97.7902 84.0828 97.7956 83.8968 97.7593 83.7165C97.723 83.5362 97.6462 83.3664 97.5349 83.2203C97.4236 83.0739 97.2802 82.9548 97.1161 82.872C96.952 82.7892 96.7711 82.7448 96.5872 82.7421L96.5878 82.7436Z" fill="#171717"/>
</g>
<g opacity="0.1">
<path d="M68.7721 125.825C68.7493 129.351 65.5621 131.132 62.7421 132.446C59.9296 133.756 57.0721 134.901 54.3421 136.39C48.8404 139.39 43.7299 142.862 39.1672 147.176C29.7596 156.07 22.4396 168.09 19.9613 180.87C18.7284 187.077 18.7927 193.471 20.1502 199.652C21.5077 205.833 24.1291 211.666 27.8495 216.785C35.1193 226.885 45.2656 234.172 56.6593 238.976C71.2636 245.134 87.2263 247.495 102.935 248.696C106.058 248.936 106.823 243.691 103.683 243.172C90.2683 240.957 76.6528 239.348 63.769 234.781C52.7365 230.869 42.5809 224.531 35.089 215.437C27.8336 206.63 24.1775 195.297 26.0366 183.927C28.0586 171.56 34.7065 160.276 43.3717 151.382C47.9338 146.7 53.0695 142.5 58.8103 139.355C61.8598 137.684 65.359 136.558 68.0566 134.323C70.6255 132.193 72.3829 128.803 71.4517 125.462C71.0386 123.981 68.7817 124.276 68.7721 125.825Z" fill="#171717"/>
</g>
<path fill-rule="evenodd" clip-rule="evenodd" d="M162.407 116.003C164.059 117.346 164.679 117.243 167.782 117.036L197.034 115.28C197.654 115.28 197.138 114.661 196.931 114.558L192.073 111.046C191.142 110.323 189.902 109.496 187.525 109.703L159.201 111.769C158.168 111.871 157.961 112.388 158.373 112.802L162.407 116.003ZM164.163 122.82V153.599C164.163 155.253 164.99 155.872 166.85 155.769L198.998 153.909C200.859 153.807 201.067 152.669 201.067 151.325V120.754C201.067 119.412 200.551 118.689 199.411 118.792L165.816 120.754C164.576 120.858 164.163 121.478 164.163 122.82ZM195.899 124.472C196.106 125.402 195.899 126.332 194.967 126.436L193.418 126.745V149.467C192.073 150.19 190.833 150.603 189.8 150.603C188.145 150.603 187.731 150.086 186.491 148.538L176.36 132.632V148.022L179.566 148.745C179.566 148.745 179.566 150.603 176.979 150.603L169.848 151.017C169.641 150.603 169.848 149.571 170.571 149.365L172.432 148.849V128.501L169.849 128.294C169.641 127.364 170.157 126.022 171.606 125.918L179.255 125.402L189.8 141.515V127.261L187.111 126.953C186.905 125.815 187.731 124.989 188.765 124.887L195.899 124.472ZM156.822 108.98L186.285 106.811C189.903 106.5 190.834 106.708 193.108 108.36L202.512 114.97C204.064 116.107 204.581 116.416 204.581 117.655V153.909C204.581 156.181 203.754 157.525 200.86 157.73L166.645 159.797C164.473 159.9 163.439 159.59 162.302 158.144L155.376 149.158C154.135 147.504 153.619 146.266 153.619 144.819V112.594C153.619 110.736 154.447 109.186 156.822 108.98Z" fill="black"/>
</g>
<defs>
<linearGradient id="paint0_linear_28_12860" x1="255.959" y1="130.74" x2="255.959" y2="167.304" gradientUnits="userSpaceOnUse">
<stop stop-color="#FF9A34"/>
<stop offset="1" stop-color="#EB6421"/>
</linearGradient>
<linearGradient id="paint1_linear_28_12860" x1="122.159" y1="123.424" x2="122.159" y2="248.417" gradientUnits="userSpaceOnUse">
<stop stop-color="#FF9A34"/>
<stop offset="1" stop-color="#EB6421"/>
</linearGradient>
</defs>
</svg>
