<svg width="288" height="288" viewBox="0 0 288 288" fill="none" xmlns="http://www.w3.org/2000/svg">
<g clip-path="url(#clip0_28_12816)">
<mask id="mask0_28_12816" style="mask-type:luminance" maskUnits="userSpaceOnUse" x="0" y="0" width="288" height="288">
<path d="M288 0H0V288H288V0Z" fill="white"/>
</mask>
<g mask="url(#mask0_28_12816)">
<mask id="mask1_28_12816" style="mask-type:luminance" maskUnits="userSpaceOnUse" x="38" y="11" width="213" height="266">
<path d="M250.202 11.4004H38.1016V276.6H250.202V11.4004Z" fill="white"/>
</mask>
<g mask="url(#mask1_28_12816)">
<path d="M149.101 81.6565C166.093 81.1225 183.086 80.5864 200.081 80.0482C204.796 79.8982 210.067 79.9507 213.47 83.221C215.248 84.931 216.243 87.3205 216.687 89.749C217.13 92.1775 217.064 94.6591 216.994 97.1251C216.925 99.679 216.854 102.233 216.781 104.787L214.268 104.954L214.183 104.951C214.224 104.392 214.195 103.831 214.098 103.279C214.035 102.879 213.894 102.495 213.682 102.149C213.469 101.804 213.189 101.505 212.86 101.269C212.116 100.795 211.176 100.795 210.294 100.811C205.845 100.892 201.3 100.986 197.112 102.476L197.056 102.312C197.222 100.148 197.191 98.0521 195.504 96.6859C194.251 95.668 192.482 95.6776 190.867 95.7373C185.067 95.9509 179.268 96.1636 173.47 96.3751C172.339 96.4159 171.12 96.4882 170.244 97.2043C169.367 97.9204 169.179 99.532 170.165 100.082L170.253 100.663L140.277 105.249L140.262 105.139L139.762 100.484L133.884 102.312L134.44 106.028L134.456 106.141L120.691 108.245L120.943 113.922L120.691 113.935L114.779 115.342L115.241 120.114L114.927 120.145L110.619 121.26C110.494 120.872 110.28 120.518 109.993 120.228C109.705 119.938 109.354 119.72 108.966 119.592C108.182 119.343 107.358 119.237 106.536 119.281C104.23 119.302 101.929 119.511 99.6566 119.906C97.8848 120.211 96.0344 120.67 94.7528 121.933C93.6689 123.004 93.1727 124.477 93.0029 126.017L92.9054 126.007L89.9429 126.799L90.1658 131.307L93.1031 130.531L93.2507 130.497C93.4625 131.56 93.9149 132.56 94.5734 133.421C94.8236 133.788 95.2007 134.049 95.6321 134.153C95.9135 134.17 96.194 134.104 96.4379 133.963C96.6821 133.821 96.8792 133.611 97.0049 133.359C97.2455 132.854 97.3769 132.303 97.3913 131.744C97.5827 132.725 98.1311 133.601 98.9306 134.201C99.3515 134.55 99.8933 134.72 100.438 134.672C100.713 134.614 100.97 134.494 101.19 134.321C101.411 134.147 101.589 133.926 101.711 133.673C101.851 133.401 101.952 133.11 102.011 132.809C102.164 133.146 102.42 133.426 102.742 133.609C103.065 133.791 103.436 133.866 103.804 133.824C104.192 133.763 104.559 133.608 104.874 133.374C105.19 133.14 105.444 132.833 105.614 132.479C105.947 131.765 106.074 130.972 105.981 130.189L105.984 130.18C106.901 130.33 107.83 130.394 108.758 130.371C109.118 130.364 109.477 130.331 109.833 130.271L109.87 130.472C110.05 131.744 110.229 133.035 110.046 134.308C109.864 135.58 109.261 136.849 108.18 137.55C106.999 138.313 105.491 138.272 104.087 138.206L101.344 138.074C99.2804 137.977 97.2185 137.879 95.159 137.779C90.5441 137.559 85.4864 137.154 82.1816 133.931C78.9116 130.739 78.3491 125.722 78.4151 121.151C78.5375 112.505 80.3975 103.499 85.9232 96.8509C90.6227 91.1962 97.5653 87.7753 104.709 86.035C111.828 84.304 119.216 84.1 126.542 83.9113L126.527 83.3113C126.344 82.3945 126.286 81.457 126.357 80.5249C126.395 80.059 126.527 79.6057 126.746 79.1923C126.965 78.7792 127.265 78.415 127.629 78.1216C128.443 77.5342 129.514 77.4775 130.516 77.443C131.132 77.4211 131.745 77.4022 132.36 77.3803L143.506 76.9939L145.159 76.9375C146.145 76.903 147.219 76.8934 148.014 77.4775C149.23 78.3706 149.23 80.1517 149.101 81.6565Z" fill="currentColor"/>
<path d="M216.78 104.787C216.746 106.053 216.711 107.319 216.676 108.585L213.849 108.825L213.783 108.813C213.955 107.782 214.071 106.743 214.132 105.699C214.151 105.451 214.17 105.2 214.182 104.952L214.267 104.955L216.78 104.787Z" fill="url(#paint0_linear_28_12816)"/>
<path d="M209.618 111.758C209.702 112.314 209.863 112.93 210.346 113.218C210.553 113.324 210.784 113.374 211.016 113.363C211.248 113.352 211.473 113.281 211.669 113.156C212.058 112.9 212.378 112.552 212.602 112.144C213.2 111.117 213.601 109.986 213.783 108.811L213.849 108.824L216.676 108.584C216.642 109.771 216.607 110.962 216.576 112.149C216.522 114.034 216.378 116.139 214.989 117.418C213.969 118.357 212.514 118.615 211.141 118.816C208.797 119.155 206.444 119.44 204.082 119.67C202.282 119.846 200.322 119.953 198.814 118.954C197.306 117.955 196.781 115.394 198.293 114.398L198.29 114.332C198.89 114.293 199.487 114.208 200.074 114.078C200.666 113.994 201.218 113.728 201.654 113.318C201.848 113.078 201.988 112.798 202.062 112.498C202.136 112.199 202.144 111.887 202.084 111.584C201.958 110.978 201.711 110.404 201.356 109.897L201.353 109.875L201.903 109.828L202 109.819C202.051 110.29 202.126 110.755 202.223 111.22C202.403 112.068 202.748 113.001 203.546 113.34C203.791 113.436 204.054 113.475 204.317 113.456C204.579 113.437 204.834 113.36 205.063 113.23C205.52 112.967 205.888 112.573 206.119 112.099L206.326 112.046C206.368 112.226 206.431 112.401 206.511 112.567C206.6 112.768 206.733 112.945 206.9 113.086C207.068 113.227 207.266 113.328 207.479 113.381C207.713 113.409 207.95 113.381 208.171 113.298C208.391 113.214 208.588 113.079 208.745 112.903C209.054 112.549 209.302 112.147 209.48 111.712L209.608 111.694C209.611 111.717 209.614 111.736 209.618 111.758Z" fill="currentColor"/>
<path d="M201.931 105.767L202.019 105.776C201.865 107.119 201.859 108.475 202 109.819L201.901 109.83L201.351 109.877L193.641 110.524L187.767 111.018H187.694L187.735 106.692L187.933 106.695L193.827 106.305L201.931 105.767Z" fill="url(#paint1_linear_28_12816)"/>
<path d="M187.769 103.254L187.738 106.69L187.697 111.016L187.659 115.229L180.286 116.099L180.167 103.807L187.769 103.254Z" fill="url(#paint2_linear_28_12816)"/>
<path d="M175.838 190.218L173.658 190.561L173.579 190.071L173.466 181.089L180.452 180.533L180.917 180.53L181.005 189.405L175.838 190.218Z" fill="url(#paint3_linear_28_12816)"/>
<path d="M180.286 116.1L180.305 117.888L180.12 117.891L166.706 118.224L165.374 140.622L180.12 139.623L180.515 139.62L180.917 180.531L180.452 180.534L173.466 181.09L173.579 190.072L173.657 190.562L128.357 197.699L124.682 198.277L123.984 182.539L124.129 182.533L136.657 179.983L134.216 157.917L123.031 161.019L122.481 148.632L121.536 127.302L120.942 113.922L120.69 108.246L134.456 106.141L140.276 105.249L170.251 100.663L180.118 99.1548L180.165 103.807L180.286 116.1ZM154.84 178.32L164.488 154.147L156.725 155.257L158.72 116.897L145.749 117.45L147.301 155.7L137.877 156.696L154.84 178.32Z" fill="url(#paint4_linear_28_12816)"/>
<path d="M180.304 117.887L180.515 139.62L180.119 139.623L165.373 140.622L166.705 118.223L180.119 117.89L180.304 117.887Z" fill="url(#paint5_linear_28_12816)"/>
<path d="M169.916 197.84L133.996 203.601L129.413 204.336L128.379 197.83L128.357 197.698L173.657 190.561L175.837 190.219L176.425 196.797L172.633 197.406L169.916 197.84Z" fill="url(#paint6_linear_28_12816)"/>
<path d="M168.761 269.883L168.767 270.043C168.695 270.03 168.632 270.021 168.579 270.011C165.132 269.421 161.63 266.974 158.289 267.878L158.279 267.85L160.274 255.85L160.409 255.872C162.288 256.06 164.194 256.252 166.06 255.957C167.557 255.751 168.964 255.125 170.119 254.151C174.901 258.834 182.765 258.69 188.134 262.698C189.026 263.364 189.868 264.184 190.229 265.243C190.59 266.302 190.333 267.627 189.396 268.24C188.806 268.626 188.061 268.67 187.356 268.705C181.263 268.994 174.858 269.594 168.761 269.883Z" fill="url(#paint7_linear_28_12816)"/>
<path d="M164.487 154.145L154.84 178.319L137.876 156.696L147.3 155.7L145.749 117.447L158.72 116.894L156.725 155.254L164.487 154.145Z" fill="currentColor"/>
<path d="M160.491 49.3202C158.108 51.0692 155.367 52.268 152.465 52.8302L152.307 52.7924C152.413 52.6151 152.483 52.4186 152.512 52.2143C152.628 51.3974 152.037 50.609 151.299 50.2382C150.561 49.8674 149.703 49.8329 148.877 49.8266C143.649 49.7921 138.472 50.7722 133.358 51.8465C131.781 52.1795 130.122 52.5665 128.966 53.6843C128.639 54.0071 128.356 54.3728 128.126 54.7712L127.91 54.6392C127.262 54.6833 126.455 54.6362 126.191 54.0455C126.128 53.9024 126.107 53.7446 126.128 53.5901C126.173 53.3051 126.316 53.0441 126.53 52.8518C126.878 52.5758 127.281 52.3775 127.712 52.2707C134.72 50.0309 141.986 48.812 149.303 47.9135C150.528 47.7659 151.753 47.6243 152.978 47.4893C155.048 47.2601 157.118 47.0465 159.186 46.8359C159.631 46.7618 160.086 46.7714 160.527 46.8641C160.748 46.9136 160.951 47.0222 161.114 47.1782C161.277 47.3342 161.395 47.5319 161.454 47.75C161.575 48.3884 161.015 48.938 160.491 49.3202Z" fill="url(#paint8_linear_28_12816)"/>
<path d="M149.958 54.0245C149.918 53.4245 149.868 52.8245 149.808 52.2245L149.83 51.8045C145.482 51.5501 141.09 51.7355 136.84 52.6904C135.583 52.973 134.267 53.3657 133.403 54.3209C132.263 55.5839 132.212 57.4625 132.225 59.165C132.24 61.1411 132.255 63.116 132.269 65.0897H132.162C131.228 66.2567 130.189 67.3355 129.058 68.3129C128.6 68.7119 128.066 69.1139 127.456 69.1013C126.429 69.0794 125.795 67.826 126.015 66.8213C126.234 65.8166 127.014 65.0402 127.755 64.3271C126.837 65.2172 125.703 65.8526 124.465 66.1712C124.065 66.3131 123.626 66.3008 123.234 66.1367C122.709 65.8508 122.568 65.1284 122.744 64.5596C122.97 64.007 123.303 63.5042 123.724 63.08C125.02 61.5332 126.06 59.7884 126.802 57.9122C127.217 56.8598 127.556 55.7351 128.128 54.7739C128.358 54.3752 128.64 54.0098 128.968 53.687C130.124 52.5686 131.783 52.1822 133.36 51.8492C138.474 50.7749 143.651 49.7948 148.878 49.8293C149.705 49.8356 150.558 49.8734 151.301 50.2409C152.043 50.6084 152.629 51.4001 152.513 52.217C152.484 52.4213 152.415 52.6178 152.309 52.7951C151.875 53.5301 150.867 53.9165 149.959 54.0455C149.958 54.0371 149.958 54.0305 149.958 54.0245Z" fill="currentColor"/>
<path d="M140.26 105.139L140.276 105.249L134.455 106.141L134.439 106.028L133.883 102.311L139.76 100.483L140.26 105.139Z" fill="url(#paint9_linear_28_12816)"/>
<path d="M134.217 157.915L136.658 179.981L124.13 182.531L123.985 182.538L123.03 161.019L134.217 157.915Z" fill="url(#paint10_linear_28_12816)"/>
<path d="M128.386 43.5538C129.586 40.2898 131.503 37.1986 134.324 35.1661C137.144 33.1336 140.949 32.2918 144.2 33.5293C146.405 34.3711 148.205 36.0895 149.456 38.0938C150.706 40.0981 151.444 42.382 151.966 44.6845C152.173 45.6082 152.368 46.5787 152.962 47.317L152.981 47.4898C151.755 47.6248 150.53 47.7661 149.305 47.914L149.277 47.6659C148.9 45.6586 148.504 43.6009 147.449 41.848C145.959 39.3724 143.204 37.7611 140.33 37.4563C137.419 37.2028 134.52 38.0551 132.209 39.8437C130.183 41.4214 128.608 43.5049 127.642 45.8848C127.859 45.0994 128.103 44.3203 128.386 43.5538Z" fill="url(#paint11_linear_28_12816)"/>
<path d="M125.788 260.355C126.284 262.472 126.787 264.627 126.652 266.798C126.517 268.969 125.647 271.199 123.892 272.478C122.202 273.706 119.992 273.885 117.911 274.023C107.993 274.68 98.0744 275.334 88.1549 275.987C86.603 276.09 84.5831 275.877 84.1904 274.372C83.8103 272.918 85.3559 271.746 86.6783 271.036C93.0131 267.645 99.3482 264.254 105.683 260.861L105.953 260.685C106.77 261.326 107.97 261.363 109.041 261.348L120.291 261.168C122.141 261.139 124.114 261.067 125.71 260.213L125.788 260.355Z" fill="url(#paint12_linear_28_12816)"/>
<path d="M126.124 53.5908C126.481 50.9949 126.988 48.4221 127.641 45.8847C128.608 43.5048 130.184 41.4213 132.211 39.8436C134.521 38.055 137.421 37.2027 140.331 37.4562C143.206 37.761 145.961 39.3726 147.45 41.8479C148.505 43.6008 148.901 45.6579 149.278 47.6658L149.306 47.9139C141.99 48.8139 134.724 50.0313 127.715 52.2711C127.284 52.3779 126.882 52.5762 126.534 52.8522C126.319 53.0445 126.177 53.3052 126.132 53.5905H126.126L126.124 53.5908Z" fill="url(#paint13_linear_28_12816)"/>
<path d="M121.535 127.302L122.481 148.632L122.295 148.641C117.457 148.751 113.49 148.861 108.718 148.968C108.52 148.974 108.319 148.98 108.118 148.983C106.359 149.024 104.477 149.031 103.01 148.057C101.552 147.089 100.804 145.302 100.672 143.555C100.54 141.808 100.936 140.068 101.332 138.362L101.345 138.073L104.088 138.205C105.492 138.271 107 138.312 108.181 137.549C109.261 136.848 109.861 135.579 110.047 134.307C110.233 133.034 110.05 131.743 109.871 130.471L109.833 130.27C110.536 130.185 111.182 129.843 111.649 129.312C112.394 128.366 112.18 127.012 111.932 125.834L111.863 125.567L115.592 124.581L115.67 124.574L116.035 128.35L121.285 127.314L121.535 127.302Z" fill="currentColor"/>
<path d="M120.94 113.922L121.534 127.302L121.282 127.314L116.033 128.351L115.669 124.575L115.238 120.114L114.776 115.342L120.689 113.935L120.94 113.922Z" fill="url(#paint14_linear_28_12816)"/>
<path d="M110.618 121.26L114.925 120.145L115.239 120.115L115.669 124.576L115.591 124.583L111.862 125.569L107.062 126.838L107.102 126.992C106.781 127.069 106.467 127.169 106.16 127.292L106.122 127.204C106.242 125.609 106.226 124.006 106.075 122.413L106.204 122.401L110.618 121.26Z" fill="url(#paint15_linear_28_12816)"/>
<path d="M93.2492 130.496L93.1016 130.531L90.1643 131.307L89.9414 126.799L92.9039 126.007L93.0014 126.016C92.8559 127.513 92.9393 129.024 93.2492 130.496Z" fill="url(#paint16_linear_28_12816)"/>
<path d="M140.619 66.3545C141.2 66.7943 142.102 66.3482 142.391 65.6792C142.68 65.0102 142.545 64.2437 142.4 63.5273C141.982 61.4159 141.562 59.303 141.14 57.188C141.05 56.7326 140.967 56.2172 141.234 55.8308C141.491 55.5365 141.842 55.3409 142.227 55.2779C143.664 54.8996 145.155 54.764 146.637 54.8759" stroke="currentColor" stroke-width="0.9423" stroke-linecap="round" stroke-linejoin="round"/>
<path d="M146.408 58.0578C146.293 57.7995 146.1 57.5835 145.856 57.4401C145.612 57.2964 145.329 57.2325 145.047 57.2571C144.765 57.2817 144.498 57.3933 144.282 57.5769C144.067 57.7605 143.914 58.0065 143.845 58.281" stroke="currentColor" stroke-width="0.9423" stroke-linecap="round" stroke-linejoin="round"/>
<path d="M139.396 70.9252C139.145 71.0998 138.856 71.2108 138.552 71.2486C138.249 71.2864 137.941 71.2501 137.654 71.1424C137.368 71.035 137.112 70.8595 136.909 70.6312C136.705 70.4029 136.56 70.1287 136.486 69.832" stroke="currentColor" stroke-width="0.9423" stroke-linecap="round" stroke-linejoin="round"/>
<path d="M138.64 58.2087C138.507 57.8775 138.261 57.6045 137.945 57.4389C137.629 57.2733 137.265 57.2262 136.917 57.306C136.57 57.3855 136.262 57.5868 136.05 57.8733C135.837 58.1598 135.734 58.5129 135.76 58.8687" stroke="currentColor" stroke-width="0.9423" stroke-linecap="round" stroke-linejoin="round"/>
<path d="M143.502 76.8847C143.249 76.207 143.193 75.4714 143.34 74.7631C143.487 74.0548 143.832 73.4026 144.335 72.8824C145.271 71.9401 146.645 71.5537 147.617 70.6489C148.868 69.4867 149.254 67.6834 149.499 65.9902C150.069 62.0347 150.223 58.0306 149.958 54.0433V54.0244C149.918 53.4244 149.868 52.8244 149.808 52.2244" stroke="currentColor" stroke-width="0.9423" stroke-linecap="round" stroke-linejoin="round"/>
<path d="M132.361 77.3525C132.333 73.2656 132.303 69.1775 132.271 65.0882C132.255 63.1121 132.241 61.1372 132.227 59.1635C132.214 57.4607 132.265 55.5821 133.405 54.3194C134.269 53.3645 135.585 52.9718 136.842 52.6889C141.092 51.734 145.484 51.5489 149.832 51.803C149.851 51.803 149.873 51.806 149.892 51.806" stroke="currentColor" stroke-width="0.9423" stroke-linecap="round" stroke-linejoin="round"/>
<path d="M132.162 65.0884C131.228 66.2548 130.189 67.3333 129.058 68.3104C128.599 68.7094 128.065 69.1114 127.456 69.0988C126.429 69.0769 125.794 67.8235 126.014 66.8188C126.234 65.8141 127.013 65.0377 127.754 64.3246C126.837 65.2147 125.703 65.8504 124.465 66.1687C124.065 66.3103 123.626 66.298 123.235 66.1342C122.71 65.8483 122.569 65.1259 122.745 64.5571C122.971 64.0045 123.304 63.5017 123.725 63.0775C125.021 61.5307 126.06 59.7859 126.803 57.9097C127.218 56.8573 127.557 55.7326 128.129 54.7714C128.359 54.373 128.641 54.0073 128.969 53.6845C130.125 52.5661 131.784 52.1797 133.361 51.8467C138.475 50.7724 143.652 49.7923 148.879 49.8268C149.706 49.8331 150.559 49.8709 151.302 50.2384C152.044 50.6059 152.63 51.3976 152.514 52.2145C152.485 52.4188 152.416 52.6153 152.31 52.7926C151.876 53.5276 150.868 53.914 149.96 54.043C149.941 54.046 149.925 54.046 149.907 54.0493C149.925 54.0421 149.943 54.0337 149.96 54.0241C150.013 54.0022 150.07 53.9737 150.126 53.9488" stroke="currentColor" stroke-width="0.9423" stroke-linecap="round" stroke-linejoin="round"/>
<path d="M127.911 54.6399C127.264 54.684 126.457 54.6369 126.193 54.0462C126.13 53.9031 126.108 53.7453 126.13 53.5908C126.175 53.3058 126.317 53.0448 126.532 52.8525C126.88 52.5765 127.283 52.3782 127.713 52.2714C134.722 50.0316 141.988 48.8127 149.305 47.9142C150.53 47.7666 151.755 47.625 152.98 47.49C155.05 47.2608 157.12 47.0472 159.188 46.8366C159.633 46.7625 160.088 46.7721 160.529 46.8648C160.75 46.9143 160.953 47.0229 161.116 47.1789C161.279 47.3349 161.397 47.5326 161.456 47.7507C161.576 48.3885 161.016 48.9381 160.491 49.3215C158.109 51.0705 155.367 52.2693 152.465 52.8315" stroke="currentColor" stroke-width="0.9423" stroke-linecap="round" stroke-linejoin="round"/>
<path d="M126.105 53.7133L126.124 53.5909C126.481 50.995 126.988 48.4222 127.642 45.8848C127.859 45.0994 128.103 44.3203 128.386 43.5538C129.586 40.2898 131.503 37.1986 134.324 35.1661C137.145 33.1336 140.949 32.2918 144.2 33.5293C146.406 34.3711 148.206 36.0895 149.456 38.0938C150.706 40.0981 151.444 42.382 151.966 44.6845C152.173 45.6082 152.368 46.5787 152.962 47.317" stroke="currentColor" stroke-width="0.9423" stroke-linecap="round" stroke-linejoin="round"/>
<path d="M127.28 46.824C127.39 46.5066 127.513 46.1958 127.64 45.8847C128.607 43.5045 130.183 41.421 132.211 39.8436C134.521 38.055 137.421 37.2027 140.331 37.4562C143.206 37.761 145.961 39.3726 147.45 41.8479C148.505 43.6008 148.901 45.6579 149.278 47.6658" stroke="currentColor" stroke-width="0.9423" stroke-linecap="round" stroke-linejoin="round"/>
<path d="M126.526 83.3118C126.343 82.395 126.286 81.4575 126.357 80.5254C126.394 80.0595 126.527 79.6062 126.745 79.1928C126.964 78.7797 127.265 78.4155 127.629 78.1221C128.442 77.5347 129.514 77.478 130.516 77.4435C131.131 77.4216 131.744 77.4027 132.36 77.3808L143.506 76.9944L145.158 76.938C146.145 76.9035 147.219 76.8939 148.014 77.478C149.229 78.3702 149.23 80.1513 149.101 81.6561V81.675" stroke="currentColor" stroke-width="0.9423" stroke-linecap="round" stroke-linejoin="round"/>
<path d="M122.295 148.642C117.457 148.751 113.49 148.862 108.718 148.968C108.52 148.975 108.319 148.981 108.118 148.984C106.359 149.025 104.477 149.031 103.01 148.057C101.552 147.09 100.804 145.302 100.672 143.555C100.54 141.809 100.936 140.069 101.332 138.363" stroke="currentColor" stroke-width="0.9423" stroke-linecap="round" stroke-linejoin="round"/>
<path d="M109.87 130.47C110.05 131.743 110.229 133.034 110.046 134.306C109.864 135.578 109.261 136.847 108.18 137.548C106.999 138.312 105.491 138.271 104.087 138.205L101.344 138.073C99.2804 137.975 97.2185 137.877 95.159 137.778C90.5441 137.558 85.4864 137.152 82.1816 133.929C78.9116 130.738 78.3491 125.721 78.4151 121.149C78.5375 112.504 80.3975 103.498 85.9232 96.8492C90.6227 91.1945 97.5653 87.7737 104.709 86.0334C111.828 84.3024 119.216 84.0983 126.542 83.9096C126.565 83.9072 126.588 83.906 126.611 83.9066" stroke="currentColor" stroke-width="0.9423" stroke-linecap="round" stroke-linejoin="round"/>
<path d="M148.906 81.6627C148.972 81.6597 149.035 81.6597 149.101 81.6564C166.093 81.1224 183.086 80.5863 200.08 80.0481C204.796 79.8981 210.067 79.9506 213.469 83.2209C215.247 84.9309 216.243 87.3204 216.686 89.7489C217.129 92.1774 217.063 94.659 216.994 97.125C216.925 99.6789 216.854 102.233 216.78 104.787C216.746 106.053 216.711 107.319 216.677 108.585C216.642 109.772 216.608 110.963 216.576 112.15C216.523 114.035 216.378 116.14 214.99 117.419C213.97 118.358 212.514 118.616 211.141 118.817C208.798 119.157 206.445 119.442 204.083 119.671C202.283 119.847 200.322 119.954 198.814 118.955C197.306 117.956 196.782 115.396 198.293 114.4" stroke="currentColor" stroke-width="0.9423" stroke-linecap="round" stroke-linejoin="round"/>
<path d="M197.055 102.311C197.221 100.147 197.19 98.0514 195.503 96.6852C194.249 95.6673 192.48 95.6769 190.866 95.7366C185.067 95.9502 179.268 96.1626 173.469 96.3744C172.338 96.4152 171.119 96.4875 170.242 97.2036C169.366 97.9197 169.177 99.5313 170.164 100.081" stroke="currentColor" stroke-width="0.9423" stroke-linecap="round" stroke-linejoin="round"/>
<path d="M108.726 149.323C107.379 185.657 106.348 221.049 105 257.383C104.963 258.442 104.96 259.614 105.66 260.408C105.749 260.509 105.847 260.602 105.953 260.685C106.77 261.326 107.97 261.363 109.041 261.347L120.291 261.167C122.141 261.139 124.114 261.067 125.709 260.213C125.985 260.064 126.248 259.893 126.495 259.7C128.458 258.152 128.97 255.44 129.345 252.968C131.387 239.539 133.43 226.109 135.474 212.678" stroke="currentColor" stroke-width="0.9423" stroke-linecap="round" stroke-linejoin="round"/>
<path d="M105.683 260.861C99.3499 264.254 93.0145 267.645 86.6773 271.036C85.3549 271.746 83.8093 272.917 84.1894 274.372C84.5821 275.877 86.602 276.09 88.1539 275.987C98.0716 275.333 107.99 274.679 117.91 274.023C119.993 273.885 122.2 273.706 123.891 272.477C125.647 271.199 126.517 268.967 126.651 266.798C126.785 264.628 126.284 262.472 125.787 260.355" stroke="currentColor" stroke-width="0.9423" stroke-linecap="round" stroke-linejoin="round"/>
<path d="M134.455 106.141L120.689 108.246L120.941 113.922L121.534 127.302L122.48 148.632L123.03 161.019L123.985 182.538L124.682 198.277L128.358 197.699L173.657 190.561L175.838 190.219L181.005 189.405L180.917 180.531L180.515 139.619L180.305 117.887L180.286 116.1L180.167 103.807L180.119 99.1543L170.252 100.662L140.276 105.249L134.455 106.141Z" stroke="currentColor" stroke-width="0.9423" stroke-linecap="round" stroke-linejoin="round"/>
<path d="M128.38 197.831L129.413 204.336L133.997 203.601L169.916 197.84L172.633 197.406L176.425 196.797L175.838 190.219L175.831 190.143" stroke="currentColor" stroke-width="0.9423" stroke-linecap="round" stroke-linejoin="round"/>
<path d="M133.996 203.598V203.601L135.52 212.671H135.523L145.377 271.306" stroke="currentColor" stroke-width="0.9423" stroke-linecap="round" stroke-linejoin="round"/>
<path d="M169.919 197.83L169.915 197.84L160.271 255.85L158.276 267.85" stroke="currentColor" stroke-width="0.9423" stroke-linecap="round" stroke-linejoin="round"/>
<path d="M137.119 273.583C137.57 272.491 138.386 271.589 139.429 271.033C140.472 270.477 141.676 270.302 142.834 270.536C143.688 270.734 144.518 271.164 145.357 271.391C145.848 271.54 146.367 271.574 146.874 271.488C147.892 271.29 148.671 270.492 149.581 269.99C150.535 269.49 151.623 269.305 152.689 269.461C153.754 269.618 154.742 270.107 155.512 270.86C156.37 269.886 156.851 268.321 158.092 267.935C158.158 267.916 158.221 267.897 158.287 267.878C161.63 266.974 165.132 269.421 168.577 270.011C168.631 270.021 168.693 270.03 168.766 270.043C170.233 270.275 175.336 270.97 176.424 271.158" stroke="currentColor" stroke-width="0.9423" stroke-linecap="round" stroke-linejoin="round"/>
<path d="M160.407 255.872C162.286 256.06 164.193 256.252 166.059 255.957C167.555 255.751 168.962 255.125 170.117 254.151C170.408 253.895 170.672 253.61 170.902 253.299C172.04 251.766 172.297 249.775 172.489 247.874C174.163 231.254 173.529 214.493 172.699 197.809" stroke="currentColor" stroke-width="0.9423" stroke-linecap="round" stroke-linejoin="round"/>
<path d="M170.098 254.13L170.117 254.149C174.901 258.834 182.764 258.69 188.133 262.698C189.025 263.364 189.867 264.184 190.228 265.243C190.589 266.301 190.332 267.627 189.396 268.24C188.805 268.626 188.061 268.67 187.356 268.705C181.261 268.994 174.856 269.594 168.758 269.883C168.74 269.883 168.724 269.886 168.705 269.886" stroke="currentColor" stroke-width="0.9423" stroke-linecap="round" stroke-linejoin="round"/>
<path d="M164.487 154.145L154.84 178.319L137.876 156.696L147.3 155.7L145.749 117.447L158.72 116.894L156.725 155.254L164.487 154.145Z" stroke="currentColor" stroke-width="0.9423" stroke-linecap="round" stroke-linejoin="round"/>
<path d="M124.129 182.531L136.657 179.981L134.216 157.915L123.029 161.019L123.02 161.022" stroke="currentColor" stroke-width="0.9423" stroke-linecap="round" stroke-linejoin="round"/>
<path d="M180.119 117.89L166.705 118.223L165.373 140.621L180.119 139.622" stroke="currentColor" stroke-width="0.9423" stroke-linecap="round" stroke-linejoin="round"/>
<path d="M173.579 190.071L173.466 181.09L180.452 180.533" stroke="currentColor" stroke-width="0.9423" stroke-linecap="round" stroke-linejoin="round"/>
<path d="M175.9 185.852C176.145 185.432 176.391 185.012 176.635 184.592C176.909 184.127 177.182 183.659 177.452 183.194" stroke="currentColor" stroke-width="0.9423" stroke-linecap="round" stroke-linejoin="round"/>
<path d="M177.789 185.419C177.405 185.142 177.019 184.866 176.636 184.593C176.243 184.31 175.854 184.03 175.464 183.751" stroke="currentColor" stroke-width="0.9423" stroke-linecap="round" stroke-linejoin="round"/>
<path d="M170.349 121.459C169.987 121.195 169.628 120.931 169.271 120.667C168.971 120.444 168.665 120.221 168.363 120.001" stroke="currentColor" stroke-width="0.9423" stroke-linecap="round" stroke-linejoin="round"/>
<path d="M170.107 119.636C169.828 119.982 169.551 120.324 169.272 120.667C169.039 120.956 168.804 121.245 168.571 121.534" stroke="currentColor" stroke-width="0.9423" stroke-linecap="round" stroke-linejoin="round"/>
<path d="M169.357 138.523C169.018 138.199 168.678 137.879 168.339 137.555C168.053 137.282 167.767 137.009 167.481 136.739" stroke="currentColor" stroke-width="0.9423" stroke-linecap="round" stroke-linejoin="round"/>
<path d="M167.592 138.623C167.84 138.269 168.091 137.913 168.339 137.555C168.606 137.172 168.873 136.789 169.144 136.406" stroke="currentColor" stroke-width="0.9423" stroke-linecap="round" stroke-linejoin="round"/>
<path d="M132.586 162.068C132.228 161.883 131.866 161.698 131.508 161.512C131.191 161.349 130.878 161.186 130.56 161.022" stroke="currentColor" stroke-width="0.9423" stroke-linecap="round" stroke-linejoin="round"/>
<path d="M132.111 160.356C131.91 160.742 131.709 161.125 131.508 161.512L130.782 162.907" stroke="currentColor" stroke-width="0.9423" stroke-linecap="round" stroke-linejoin="round"/>
<path d="M134.106 178.429C133.751 178.067 133.355 177.747 132.928 177.474C132.564 177.239 132.179 177.039 131.778 176.877" stroke="currentColor" stroke-width="0.9423" stroke-linecap="round" stroke-linejoin="round"/>
<path d="M133.594 176.39C133.374 176.751 133.152 177.113 132.928 177.474C132.649 177.936 132.366 178.394 132.083 178.856" stroke="currentColor" stroke-width="0.9423" stroke-linecap="round" stroke-linejoin="round"/>
<path d="M120.689 113.935L114.776 115.342L115.238 120.114L115.669 124.575L116.033 128.351L121.282 127.314" stroke="currentColor" stroke-width="0.9423" stroke-linecap="round" stroke-linejoin="round"/>
<path d="M106.333 127.028L107.062 126.837L111.862 125.568L115.591 124.581" stroke="currentColor" stroke-width="0.9423" stroke-linecap="round" stroke-linejoin="round"/>
<path d="M92.9036 126.008L89.9414 126.799L90.1643 131.307L93.1016 130.531" stroke="currentColor" stroke-width="0.9423" stroke-linecap="round" stroke-linejoin="round"/>
<path d="M114.924 120.146L110.618 121.261L106.204 122.401" stroke="currentColor" stroke-width="0.9423" stroke-linecap="round" stroke-linejoin="round"/>
<path d="M180.119 103.81L180.166 103.807L187.769 103.254L187.737 106.69L187.697 111.016L187.658 115.229L180.286 116.099L180.119 116.118" stroke="currentColor" stroke-width="0.9423" stroke-linecap="round" stroke-linejoin="round"/>
<path d="M201.903 109.829L201.353 109.876L193.644 110.523L187.77 111.017" stroke="currentColor" stroke-width="0.9423" stroke-linecap="round" stroke-linejoin="round"/>
<path d="M214.267 104.954L216.78 104.787L218.149 104.696L218.093 108.466L216.676 108.585L213.849 108.824" stroke="currentColor" stroke-width="0.9423" stroke-linecap="round" stroke-linejoin="round"/>
<path d="M187.936 106.694L193.829 106.304L201.931 105.767" stroke="currentColor" stroke-width="0.9423" stroke-linecap="round" stroke-linejoin="round"/>
<path d="M140.26 105.139L139.76 100.483L133.883 102.311L134.439 106.028" stroke="currentColor" stroke-width="0.9423" stroke-linecap="round" stroke-linejoin="round"/>
<path d="M107.534 126.893C107.389 126.925 107.245 126.956 107.103 126.991C106.782 127.068 106.467 127.168 106.16 127.291V127.294C105.541 127.528 105 127.933 104.601 128.462C104.372 128.77 104.176 129.179 104.34 129.524C104.49 129.841 104.874 129.957 105.216 130.034C105.471 130.09 105.728 130.138 105.986 130.179C106.903 130.329 107.831 130.393 108.76 130.37C109.12 130.363 109.479 130.329 109.834 130.27C110.537 130.185 111.184 129.844 111.65 129.312C112.395 128.366 112.181 127.012 111.933 125.834" stroke="currentColor" stroke-width="0.9423" stroke-linecap="round" stroke-linejoin="round"/>
<path d="M110.624 121.28C110.624 121.273 110.622 121.266 110.618 121.261C110.494 120.872 110.279 120.518 109.992 120.228C109.705 119.939 109.353 119.721 108.966 119.593C108.181 119.343 107.357 119.237 106.534 119.282C104.228 119.303 101.927 119.512 99.6542 119.907C97.8824 120.212 96.032 120.67 94.7504 121.933C93.6665 123.004 93.1703 124.478 93.0005 126.017C92.9216 126.78 92.9069 127.548 92.9564 128.313C92.996 129.048 93.0935 129.778 93.2486 130.497C93.4604 131.56 93.9131 132.56 94.5713 133.421C94.8215 133.788 95.1989 134.049 95.63 134.153C95.9117 134.17 96.1919 134.104 96.4361 133.963C96.6803 133.821 96.8774 133.611 97.0028 133.359C97.2434 132.854 97.3751 132.303 97.3892 131.744V131.729C97.6343 128.898 97.6628 126.053 97.4741 123.218" stroke="currentColor" stroke-width="0.9423" stroke-linecap="round" stroke-linejoin="round"/>
<path d="M97.3207 130.698C97.2949 131.048 97.3183 131.4 97.3897 131.744C97.5814 132.725 98.1298 133.6 98.929 134.201C99.3502 134.55 99.8917 134.719 100.437 134.672C100.711 134.614 100.969 134.493 101.189 134.32C101.41 134.147 101.588 133.926 101.709 133.673C101.85 133.401 101.951 133.11 102.009 132.809C102.066 132.561 102.103 132.306 102.135 132.055C102.528 128.848 102.122 125.599 101.717 122.392" stroke="currentColor" stroke-width="0.9423" stroke-linecap="round" stroke-linejoin="round"/>
<path d="M101.971 132.686C101.983 132.727 101.996 132.768 102.012 132.808C102.165 133.146 102.421 133.426 102.743 133.608C103.066 133.79 103.437 133.866 103.805 133.823C104.193 133.762 104.561 133.608 104.876 133.374C105.191 133.139 105.444 132.832 105.615 132.478C105.948 131.764 106.076 130.971 105.982 130.188" stroke="currentColor" stroke-width="0.9423" stroke-linecap="round" stroke-linejoin="round"/>
<path d="M106.122 127.204C106.242 125.609 106.226 124.006 106.075 122.414C106.05 122.144 106.019 121.876 105.987 121.606" stroke="currentColor" stroke-width="0.9423" stroke-linecap="round" stroke-linejoin="round"/>
<path d="M193.816 106.09C193.762 105.667 193.812 105.237 193.962 104.837C194.112 104.437 194.357 104.08 194.677 103.797C195.32 103.234 196.073 102.811 196.888 102.553C196.964 102.525 197.036 102.5 197.111 102.475C201.299 100.985 205.845 100.891 210.293 100.81C211.176 100.794 212.115 100.794 212.859 101.268C213.189 101.504 213.468 101.803 213.68 102.148C213.893 102.494 214.034 102.878 214.097 103.278C214.194 103.83 214.223 104.391 214.182 104.95C214.169 105.198 214.15 105.449 214.131 105.697C214.07 106.74 213.954 107.779 213.783 108.81C213.6 109.985 213.2 111.116 212.602 112.143C212.378 112.551 212.057 112.899 211.669 113.155C211.473 113.28 211.248 113.352 211.016 113.362C210.784 113.374 210.553 113.323 210.346 113.218C209.862 112.929 209.702 112.313 209.617 111.757C209.614 111.735 209.611 111.716 209.608 111.694C209.212 108.986 209.577 106.231 209.941 103.52" stroke="currentColor" stroke-width="0.9423" stroke-linecap="round" stroke-linejoin="round"/>
<path d="M209.479 111.714C209.301 112.148 209.052 112.551 208.744 112.905C208.587 113.08 208.39 113.216 208.169 113.299C207.949 113.382 207.712 113.411 207.478 113.382C207.265 113.33 207.067 113.229 206.9 113.088C206.732 112.947 206.599 112.769 206.51 112.569C206.43 112.402 206.368 112.227 206.325 112.047C206.265 111.802 206.221 111.553 206.193 111.303C205.811 108.656 205.808 105.969 206.184 103.323" stroke="currentColor" stroke-width="0.9423" stroke-linecap="round" stroke-linejoin="round"/>
<path d="M206.119 112.1C205.887 112.574 205.52 112.968 205.063 113.231C204.834 113.361 204.579 113.439 204.317 113.458C204.054 113.477 203.791 113.437 203.546 113.341C202.748 113.002 202.402 112.069 202.223 111.221C202.125 110.757 202.051 110.29 202 109.82C201.859 108.475 201.865 107.119 202.019 105.777C202.123 104.839 202.273 103.908 202.471 102.987" stroke="currentColor" stroke-width="0.9423" stroke-linecap="round" stroke-linejoin="round"/>
<path d="M193.651 110.611C193.617 111.591 193.632 112.671 194.276 113.41C194.864 114.082 195.825 114.277 196.717 114.336C197.241 114.37 197.767 114.369 198.291 114.333C198.891 114.294 199.488 114.209 200.075 114.079C200.668 113.994 201.22 113.729 201.655 113.319C201.849 113.079 201.989 112.799 202.063 112.499C202.137 112.2 202.145 111.887 202.086 111.585C201.96 110.979 201.712 110.405 201.357 109.898" stroke="currentColor" stroke-width="0.9423" stroke-linecap="round" stroke-linejoin="round"/>
<path d="M105.446 241.993C104.502 237.3 99.9185 233.616 95.1305 233.704C90.3425 233.793 85.8989 237.643 85.1291 242.368C83.8298 241.076 82.1621 240.219 80.3552 239.915C78.5486 239.61 76.6919 239.873 75.0407 240.667C71.783 242.317 69.9086 245.656 70.1243 249.49C68.9963 247.514 66.6221 247.105 64.4573 247.805C62.2925 248.505 60.6536 250.357 59.6873 252.416C58.721 254.476 58.3352 256.752 57.9596 258.996C50.4473 258.028 42.5477 262.344 39.3041 269.189C38.672 270.523 38.2361 272.201 39.1028 273.396C39.9695 274.591 41.6888 274.697 43.169 274.682C56.9762 274.54 70.7702 273.967 84.5504 272.963" stroke="currentColor" stroke-width="0.9423" stroke-linecap="round" stroke-linejoin="round"/>
<path d="M197.658 262.971C198.046 260.545 198.482 258.099 199.458 255.843C200.434 253.588 202.003 251.51 204.18 250.369C206.356 249.229 209.185 249.178 211.172 250.623C212.262 248.28 213.395 245.876 215.279 244.108C217.163 242.339 220.001 241.335 222.389 242.32C224.903 243.358 226.154 246.169 226.839 248.802C226.834 246.229 229.846 244.323 232.326 245.008C234.806 245.693 236.402 248.362 236.367 250.934C237.767 248.977 240.024 247.496 242.429 247.574C245.648 247.68 248.237 250.55 249.095 253.654C249.953 256.758 249.468 260.055 248.977 263.238" stroke="currentColor" stroke-width="0.9423" stroke-linecap="round" stroke-linejoin="round"/>
<path d="M197.416 262.857L248.566 263.064" stroke="currentColor" stroke-width="0.9423" stroke-linecap="round" stroke-linejoin="round"/>
<path d="M173.023 206.406L206.286 202.267L208.06 249.425" stroke="currentColor" stroke-width="0.9423" stroke-linecap="round" stroke-linejoin="round"/>
<path d="M107.385 188.666L82.8451 191.918L80.332 239.816" stroke="currentColor" stroke-width="0.9423" stroke-linecap="round" stroke-linejoin="round"/>
<path d="M81.0721 220.154L58.3057 222.667L60.2275 250.756" stroke="currentColor" stroke-width="0.9423" stroke-linecap="round" stroke-linejoin="round"/>
<path d="M125.127 203.136C124.037 203.133 122.965 202.867 122.001 202.36C121.036 201.854 120.209 201.122 119.588 200.227C118.967 199.332 118.572 198.3 118.435 197.219C118.299 196.139 118.425 195.041 118.804 194.02" stroke="currentColor" stroke-width="0.9423" stroke-linecap="round" stroke-linejoin="round"/>
<path d="M119.371 204.431C118.681 204.297 118.048 203.956 117.558 203.451C117.068 202.947 116.745 202.304 116.632 201.611" stroke="currentColor" stroke-width="0.9423" stroke-linecap="round" stroke-linejoin="round"/>
<path d="M181.872 193.14C183.112 192.319 184.13 191.204 184.835 189.894C185.54 188.585 185.911 187.121 185.913 185.634" stroke="currentColor" stroke-width="0.9423" stroke-linecap="round" stroke-linejoin="round"/>
<path d="M183.454 198.291C185.758 197.155 187.717 195.424 189.129 193.278C190.54 191.131 191.353 188.646 191.483 186.081" stroke="currentColor" stroke-width="0.9423" stroke-linecap="round" stroke-linejoin="round"/>
<path d="M180.331 117.073C185.013 118.099 188.062 123.746 186.351 128.224C185.976 129.204 185.406 130.161 185.434 131.211C185.508 133.979 189.447 135.241 189.904 137.973C190.368 140.752 187.089 142.588 185.89 145.138C184.879 147.289 185.435 149.807 185.335 152.182C185.235 154.557 183.846 157.352 181.47 157.318" stroke="currentColor" stroke-width="0.9423" stroke-linecap="round" stroke-linejoin="round"/>
<path d="M215.394 122.327C216.083 122.425 216.787 122.353 217.442 122.116C218.097 121.879 218.685 121.485 219.152 120.968C219.619 120.451 219.952 119.827 220.122 119.151C220.292 118.476 220.293 117.768 220.126 117.092" stroke="currentColor" stroke-width="0.9423" stroke-linecap="round" stroke-linejoin="round"/>
<path d="M221.229 87.8529C221.679 83.6505 218.449 79.3833 214.281 78.678" stroke="currentColor" stroke-width="0.9423" stroke-linecap="round" stroke-linejoin="round"/>
<path d="M224.432 80.2899C224.344 79.2675 224.018 78.2796 223.479 77.4057C222.941 76.5318 222.206 75.7959 221.333 75.2568" stroke="currentColor" stroke-width="0.9423" stroke-linecap="round" stroke-linejoin="round"/>
<path d="M74.1963 106.003C75.0936 100.748 77.9931 96.0464 82.2852 92.8853" stroke="currentColor" stroke-width="0.9423" stroke-linecap="round" stroke-linejoin="round"/>
<path d="M71.1846 98.0405C71.2506 97.0493 71.5302 96.0845 72.0045 95.2118C72.4785 94.3391 73.1361 93.5792 73.9317 92.9849" stroke="currentColor" stroke-width="0.9423" stroke-linecap="round" stroke-linejoin="round"/>
<path d="M92.2749 44.0811C94.4121 48.3303 96.6006 52.8024 96.4806 57.5574C96.3606 62.3124 93.0717 67.3509 88.3269 67.6869C84.4317 67.9629 80.6661 64.5498 80.559 60.6465C80.5371 59.8518 80.679 58.9881 81.2538 58.4388C82.3749 57.3681 84.2985 58.1883 85.2663 59.3988C85.9896 60.3042 86.4642 61.3827 86.643 62.5278C86.8218 63.6729 86.6988 64.8447 86.286 65.9277C85.8732 67.0107 85.1847 67.9671 84.2892 68.7027C83.3934 69.438 82.3212 69.927 81.1788 70.1214C79.3188 70.437 77.4042 69.9534 75.5271 70.1514C74.0796 70.3044 72.7038 70.8591 71.5548 71.7525C70.4055 72.6459 69.5292 73.8429 69.0243 75.2079C68.5191 76.5732 68.4057 78.0522 68.6967 79.4784C68.9877 80.9046 69.6717 82.221 70.671 83.2794" stroke="currentColor" stroke-width="0.9423" stroke-linecap="round" stroke-linejoin="round"/>
<path d="M121.591 53.4602C119.495 50.9285 119.477 46.9079 121.55 44.3579" stroke="currentColor" stroke-width="0.9423" stroke-linecap="round" stroke-linejoin="round"/>
<path d="M163.038 52.8002C164.16 51.7838 164.999 50.4932 165.472 49.055C165.945 47.6168 166.036 46.0805 165.736 44.5964" stroke="currentColor" stroke-width="0.9423" stroke-linecap="round" stroke-linejoin="round"/>
<path d="M170.131 35.7429C168.704 34.1874 167.066 32.8389 165.267 31.7361" stroke="currentColor" stroke-width="0.9423" stroke-linecap="round" stroke-linejoin="round"/>
<path d="M165.041 36.3979C166.298 34.5832 167.789 32.9428 169.476 31.5193" stroke="currentColor" stroke-width="0.9423" stroke-linecap="round" stroke-linejoin="round"/>
<path d="M151.033 19.5465C150.938 17.0341 150.844 14.5217 150.749 12.0093" stroke="currentColor" stroke-width="0.9423" stroke-linecap="round" stroke-linejoin="round"/>
<path d="M145.972 16.6664C148.795 15.3894 151.782 14.51 154.847 14.0535" stroke="currentColor" stroke-width="0.9423" stroke-linecap="round" stroke-linejoin="round"/>
<path d="M74.7396 169.359C75.8106 172.806 76.8852 176.268 77.4462 179.834C77.8539 182.425 77.9667 185.178 76.8948 187.571C75.8229 189.965 73.2789 191.861 70.689 191.447C68.0991 191.032 66.2454 187.672 67.788 185.551C68.9901 183.898 71.6148 183.774 73.2855 184.951C74.9562 186.128 75.7455 188.251 75.8262 190.294C75.8898 191.935 75.5082 193.674 74.379 194.866C71.5554 197.846 66.0435 195.894 62.8719 198.501C61.0293 200.015 60.5481 202.726 61.0719 205.053C61.5957 207.38 62.9481 209.421 64.2744 211.403" stroke="currentColor" stroke-width="0.9423" stroke-linecap="round" stroke-linejoin="round"/>
<path d="M210.593 152.739C206.824 155.69 204.593 160.329 203.963 165.074C203.333 169.818 204.192 174.667 205.756 179.191C206.457 181.217 207.32 183.231 208.714 184.861C210.108 186.491 212.106 187.706 214.251 187.744C216.395 187.781 218.607 186.431 219.181 184.364C219.754 182.298 218.239 179.792 216.098 179.679C213.619 179.548 211.862 182.452 212.228 184.907C212.594 187.362 214.36 189.345 216.096 191.119C217.832 192.893 219.689 194.742 220.321 197.142C221.263 200.718 218.726 204.822 215.106 205.577" stroke="currentColor" stroke-width="0.9423" stroke-linecap="round" stroke-linejoin="round"/>
<path d="M136.62 100.07C136.389 98.7894 135.732 97.6242 134.756 96.7641C134.265 96.3423 133.681 96.0447 133.051 95.8956C132.422 95.7465 131.765 95.7504 131.138 95.9073C129.414 96.4014 128.324 98.1981 128.105 99.978C127.887 101.758 128.366 103.541 128.84 105.271L129.125 104.923" stroke="url(#paint17_linear_28_12816)" stroke-width="0.9423" stroke-miterlimit="10"/>
<path d="M119.782 130.967C115.118 131.477 111.512 136.554 112.567 141.125C113.675 145.923 118.926 149.663 118.087 154.515C117.577 157.469 114.931 159.521 113.474 162.14C112.604 163.706 112.165 165.475 112.203 167.266C112.242 169.057 112.755 170.806 113.692 172.333C114.629 173.86 115.955 175.111 117.534 175.957C119.113 176.802 120.889 177.213 122.679 177.147" stroke="url(#paint18_linear_28_12816)" stroke-width="0.9423" stroke-miterlimit="10"/>
<path d="M146.865 80.8582C146.791 80.0452 146.717 79.2319 146.644 78.4189" stroke="url(#paint19_linear_28_12816)" stroke-width="0.9423" stroke-miterlimit="10"/>
<path d="M143.2 80.9704L142.978 78.4204" stroke="url(#paint20_linear_28_12816)" stroke-width="0.9423" stroke-miterlimit="10"/>
<path d="M139.336 81.1906L139.227 78.8623" stroke="url(#paint21_linear_28_12816)" stroke-width="0.9423" stroke-miterlimit="10"/>
<path d="M135.459 81.6328L135.235 79.1938" stroke="url(#paint22_linear_28_12816)" stroke-width="0.9423" stroke-miterlimit="10"/>
<path d="M131.667 81.9676C131.593 81.2275 131.519 80.4883 131.445 79.75" stroke="url(#paint23_linear_28_12816)" stroke-width="0.9423" stroke-miterlimit="10"/>
<path d="M128.186 82.1908L128.099 79.8616" stroke="url(#paint24_linear_28_12816)" stroke-width="0.9423" stroke-miterlimit="10"/>
<path d="M84.3291 272.959C98.7585 274.538 113.341 272.026 126.411 265.71" stroke="currentColor" stroke-width="0.9423" stroke-linecap="round" stroke-linejoin="round"/>
<path d="M158.714 265.273C168.835 267.547 179.372 267.18 189.31 264.208" stroke="currentColor" stroke-width="0.9423" stroke-linecap="round" stroke-linejoin="round"/>
<path d="M102.979 262.389C105.414 263.926 108.015 265.183 110.732 266.135" stroke="currentColor" stroke-width="0.9423" stroke-linecap="round" stroke-linejoin="round"/>
<path d="M98.082 265.235C99.2625 266.618 100.867 267.572 102.646 267.947" stroke="currentColor" stroke-width="0.9423" stroke-linecap="round" stroke-linejoin="round"/>
<path d="M171.71 262.604C173.642 261.078 175.772 259.821 178.041 258.867" stroke="currentColor" stroke-width="0.9423" stroke-linecap="round" stroke-linejoin="round"/>
<path d="M168.443 259.334L173.026 256.671" stroke="currentColor" stroke-width="0.9423" stroke-linecap="round" stroke-linejoin="round"/>
<path d="M137.061 220.08L168.237 203.64" stroke="currentColor" stroke-width="0.9423" stroke-linecap="round" stroke-linejoin="round"/>
<path d="M139.41 234.1L165.711 219.44" stroke="currentColor" stroke-width="0.9423" stroke-linecap="round" stroke-linejoin="round"/>
<path d="M141.356 245.21C148.765 242.181 156.017 238.804 163.115 235.08" stroke="currentColor" stroke-width="0.9423" stroke-linecap="round" stroke-linejoin="round"/>
<path d="M142.978 256.446L161.038 247.776" stroke="currentColor" stroke-width="0.9423" stroke-linecap="round" stroke-linejoin="round"/>
<path d="M144.753 266.944L158.994 260.25" stroke="currentColor" stroke-width="0.9423" stroke-linecap="round" stroke-linejoin="round"/>
<path d="M87.2624 197.185L87.1514 200.179" stroke="currentColor" stroke-width="0.9423" stroke-linecap="round" stroke-linejoin="round"/>
<path d="M94.8021 195.928L94.6914 198.922" stroke="currentColor" stroke-width="0.9423" stroke-linecap="round" stroke-linejoin="round"/>
<path d="M102.341 194.986L102.23 197.979" stroke="currentColor" stroke-width="0.9423" stroke-linecap="round" stroke-linejoin="round"/>
<path d="M87.2624 207.237L87.1514 210.231" stroke="currentColor" stroke-width="0.9423" stroke-linecap="round" stroke-linejoin="round"/>
<path d="M94.8021 205.981L94.6914 208.974" stroke="currentColor" stroke-width="0.9423" stroke-linecap="round" stroke-linejoin="round"/>
<path d="M102.341 205.038L102.23 208.032" stroke="currentColor" stroke-width="0.9423" stroke-linecap="round" stroke-linejoin="round"/>
<path d="M87.2624 218.547L87.1514 221.54" stroke="currentColor" stroke-width="0.9423" stroke-linecap="round" stroke-linejoin="round"/>
<path d="M94.8021 217.29L94.6914 220.284" stroke="currentColor" stroke-width="0.9423" stroke-linecap="round" stroke-linejoin="round"/>
<path d="M102.341 216.348L102.23 219.341" stroke="currentColor" stroke-width="0.9423" stroke-linecap="round" stroke-linejoin="round"/>
<path d="M62.1305 227.971L62.0195 230.965" stroke="currentColor" stroke-width="0.9423" stroke-linecap="round" stroke-linejoin="round"/>
<path d="M69.6693 226.715L69.5586 229.708" stroke="currentColor" stroke-width="0.9423" stroke-linecap="round" stroke-linejoin="round"/>
<path d="M77.2096 225.772L77.0986 228.766" stroke="currentColor" stroke-width="0.9423" stroke-linecap="round" stroke-linejoin="round"/>
<path d="M62.7585 237.081L62.6475 240.074" stroke="currentColor" stroke-width="0.9423" stroke-linecap="round" stroke-linejoin="round"/>
<path d="M70.2982 235.825L70.1875 238.818" stroke="currentColor" stroke-width="0.9423" stroke-linecap="round" stroke-linejoin="round"/>
<path d="M77.8376 234.882L77.7266 237.876" stroke="currentColor" stroke-width="0.9423" stroke-linecap="round" stroke-linejoin="round"/>
<path d="M185.897 209.944L186.053 212.936" stroke="currentColor" stroke-width="0.9423" stroke-linecap="round" stroke-linejoin="round"/>
<path d="M192.982 209.281L193.138 212.272" stroke="currentColor" stroke-width="0.9423" stroke-linecap="round" stroke-linejoin="round"/>
<path d="M200.094 208.302L200.249 211.294" stroke="currentColor" stroke-width="0.9423" stroke-linecap="round" stroke-linejoin="round"/>
<path d="M178.358 210.886L178.513 213.878" stroke="currentColor" stroke-width="0.9423" stroke-linecap="round" stroke-linejoin="round"/>
<path d="M185.897 219.368L186.053 222.36" stroke="currentColor" stroke-width="0.9423" stroke-linecap="round" stroke-linejoin="round"/>
<path d="M192.982 218.705L193.138 221.697" stroke="currentColor" stroke-width="0.9423" stroke-linecap="round" stroke-linejoin="round"/>
<path d="M200.094 217.727L200.249 220.718" stroke="currentColor" stroke-width="0.9423" stroke-linecap="round" stroke-linejoin="round"/>
<path d="M178.358 220.311L178.513 223.303" stroke="currentColor" stroke-width="0.9423" stroke-linecap="round" stroke-linejoin="round"/>
<path d="M185.897 228.793L186.053 231.784" stroke="currentColor" stroke-width="0.9423" stroke-linecap="round" stroke-linejoin="round"/>
<path d="M192.982 228.13L193.138 231.121" stroke="currentColor" stroke-width="0.9423" stroke-linecap="round" stroke-linejoin="round"/>
<path d="M200.094 227.151L200.249 230.143" stroke="currentColor" stroke-width="0.9423" stroke-linecap="round" stroke-linejoin="round"/>
<path d="M178.358 229.735L178.513 232.727" stroke="currentColor" stroke-width="0.9423" stroke-linecap="round" stroke-linejoin="round"/>
<path d="M185.897 238.531L186.053 241.523" stroke="currentColor" stroke-width="0.9423" stroke-linecap="round" stroke-linejoin="round"/>
<path d="M192.982 237.868L193.138 240.86" stroke="currentColor" stroke-width="0.9423" stroke-linecap="round" stroke-linejoin="round"/>
<path d="M200.094 236.89L200.249 239.881" stroke="currentColor" stroke-width="0.9423" stroke-linecap="round" stroke-linejoin="round"/>
<path d="M178.358 239.474L178.513 242.465" stroke="currentColor" stroke-width="0.9423" stroke-linecap="round" stroke-linejoin="round"/>
<g opacity="0.1">
<path d="M139.64 32.6757C138.028 32.2167 135.804 33.8367 134.583 34.7712C132.979 35.9877 131.516 37.3803 130.222 38.9229C127.405 42.306 126.164 46.9119 125.733 51.2052C125.571 52.8096 127.218 54.1866 128.714 54.1866C130.432 54.1866 131.568 52.8171 131.695 51.2052C131.964 47.7981 133.257 44.7252 134.711 41.6829C135.405 40.185 136.267 38.7708 137.279 37.467C137.826 36.777 138.419 36.117 138.948 35.4165C139.388 34.8342 140.012 34.2588 140.121 33.5235C140.164 33.3477 140.139 33.1617 140.05 33.0042C139.96 32.8464 139.814 32.7288 139.641 32.6757H139.64Z" fill="currentColor"/>
</g>
<g opacity="0.1">
<path d="M141.226 52.6443C140.536 51.0933 137.699 51.9723 136.595 52.5171C134.487 53.5671 132.83 55.3446 131.931 57.5214C129.656 62.7414 132.07 68.3514 130.701 73.6692C129.745 77.3799 135.588 78.9645 136.424 75.2469C137.564 70.1679 135.902 65.2926 136.015 60.204C136.06 58.1778 136.576 55.998 138.271 54.6882C139.058 54.0801 140.116 53.9982 140.86 53.4333C141.1 53.2503 141.37 52.9629 141.227 52.6443H141.226Z" fill="currentColor"/>
</g>
<g opacity="0.1">
<path d="M120.136 109.352C119.639 114.874 120.004 120.468 120.175 126.002C120.346 131.551 120.543 137.099 120.764 142.647C121.207 153.741 121.752 164.83 122.399 175.915C122.768 182.248 123.17 188.58 123.605 194.909C123.728 196.698 125.043 198.228 126.924 198.228C128.617 198.228 130.377 196.706 130.243 194.909C128.574 172.56 127.312 150.185 126.457 127.785C126.214 121.406 126.243 114.975 125.356 108.645C125.176 107.355 123.598 106.567 122.44 106.741C121.063 106.949 120.257 107.998 120.136 109.351V109.352Z" fill="currentColor"/>
</g>
<g opacity="0.1">
<path d="M128.691 198.176C128.487 198.91 128.544 199.671 128.532 200.426C128.493 201.216 128.547 202.009 128.694 202.787C129.019 204.263 130.61 205.153 132.027 204.963C133.455 204.771 134.73 203.496 134.661 201.98C134.599 201.191 134.445 200.412 134.201 199.659C133.996 198.941 133.855 198.202 133.471 197.552C132.33 195.615 129.293 196.003 128.691 198.177V198.176Z" fill="currentColor"/>
</g>
<g opacity="0.1">
<path d="M133.931 203.624C133.267 206.296 134.038 209.272 134.567 211.904C135.109 214.597 135.642 217.29 136.187 219.982C137.296 225.459 138.342 230.948 139.327 236.449C141.262 247.263 142.956 258.117 144.409 269.01C144.662 270.917 145.941 272.46 148.057 272.173C150.15 271.89 150.995 270.073 150.735 268.153C149.231 257.082 147.482 246.048 145.488 235.052C144.506 229.652 143.465 224.263 142.364 218.885C141.813 216.197 141.23 213.516 140.615 210.843C139.973 208.047 139.38 204.947 137.525 202.673C136.491 201.403 134.293 202.157 133.929 203.622L133.931 203.624Z" fill="currentColor"/>
</g>
<g opacity="0.1">
<path d="M108.397 149.972C107.536 153.422 107.717 157.201 107.589 160.739C107.463 164.223 107.374 167.708 107.279 171.194C107.086 178.264 106.895 185.334 106.705 192.404C106.325 206.544 105.949 220.684 105.579 234.824C105.384 242.791 105.197 250.757 104.956 258.722C104.827 262.989 111.538 263.001 111.593 258.722C111.958 230.442 112.553 202.163 113.003 173.882C113.067 169.9 113.151 165.917 113.179 161.933C113.206 158.006 113.604 153.838 112.817 149.972C112.361 147.729 108.927 147.846 108.396 149.972L108.397 149.972Z" fill="currentColor"/>
</g>
<g opacity="0.1">
<path d="M94.8904 233.792C94.2178 233.305 93.7531 233.689 93.0439 233.832C91.8493 234.072 91.1382 234.233 90.1567 235.028C88.459 236.402 86.8515 237.808 85.9125 239.829C85.2264 241.306 85.6075 243.024 87.2182 243.702C87.5743 243.852 87.958 243.924 88.3444 243.915C88.7305 243.905 89.1103 243.814 89.4586 243.647C89.8069 243.479 90.1156 243.24 90.3646 242.944C90.6133 242.649 90.7966 242.304 90.9025 241.932C91.1587 240.969 91.4935 240.029 91.9033 239.12C92.3326 238.194 92.9815 237.71 93.5761 236.914C93.8302 236.573 93.9442 236.175 94.1995 235.845C94.4416 235.533 94.8594 235.392 95.0547 235.035C95.1834 234.843 95.2378 234.611 95.2074 234.381C95.1775 234.152 95.0644 233.942 94.8904 233.79V233.792Z" fill="currentColor"/>
</g>
<g opacity="0.1">
<path d="M76.9753 239.628C74.9737 240.152 73.1737 241.476 71.8114 243.044C71.1265 243.834 70.5373 244.703 70.0561 245.631C69.7624 246.204 69.5047 246.796 69.2839 247.401C69.1387 247.794 69.0793 248.416 68.86 248.762C67.6462 250.675 69.2332 253.206 71.41 253.206C73.7146 253.206 75.0022 250.716 73.96 248.762L73.7839 248.432L74.1565 249.81C73.9138 246.26 75.4342 243.465 77.7007 240.873C77.8129 240.755 77.884 240.604 77.9032 240.443C77.9224 240.281 77.8885 240.118 77.8066 239.977C77.7247 239.837 77.5996 239.726 77.4496 239.663C77.2996 239.6 77.1331 239.588 76.9756 239.627L76.9753 239.628Z" fill="currentColor"/>
</g>
<g opacity="0.1">
<path d="M65.5368 247.653C62.8173 247.201 60.5253 249.513 59.1975 251.63C57.5529 254.254 56.6709 257.794 57.9579 260.713C58.4538 261.838 60.0456 262.316 61.1499 262.012C62.4072 261.667 63.1329 260.536 63.225 259.287C63.297 258.309 63.0429 257.312 63.0813 256.317C63.1086 255.352 63.2796 254.397 63.5892 253.483C64.1952 251.719 65.4678 250.281 66.0192 248.503C66.0669 248.326 66.0432 248.139 65.9535 247.98C65.8635 247.821 65.7147 247.705 65.5392 247.655L65.5368 247.653Z" fill="currentColor"/>
</g>
<g opacity="0.1">
<path d="M219.884 242.199C215.668 242.837 212.686 246.553 211.424 250.452C210.399 253.622 215.75 254.718 216.134 251.09C216.173 250.723 216.144 250.264 216.188 249.968C216.262 249.616 216.37 249.272 216.512 248.942C216.787 248.221 217.139 247.532 217.562 246.887C218.397 245.538 219.343 244.26 220.39 243.068C220.468 242.986 220.517 242.88 220.529 242.768C220.542 242.656 220.519 242.542 220.462 242.444C220.405 242.346 220.318 242.27 220.214 242.225C220.109 242.181 219.994 242.172 219.884 242.198L219.884 242.199Z" fill="currentColor"/>
</g>
<g opacity="0.1">
<path d="M207.435 249.625C206.256 249.895 205.177 249.846 204.082 250.479C202.972 251.178 201.98 252.048 201.142 253.056C199.393 255.069 198.187 257.494 197.638 260.103C197.317 261.586 198.081 263.144 199.602 263.562C200.922 263.925 202.844 263.112 203.062 261.598C203.34 259.619 203.946 257.7 204.852 255.919C205.314 255.054 205.829 254.217 206.393 253.414C206.993 252.528 207.329 251.374 207.983 250.564C208.066 250.475 208.119 250.361 208.133 250.24C208.147 250.119 208.121 249.996 208.059 249.89C207.998 249.785 207.904 249.702 207.792 249.654C207.679 249.606 207.554 249.595 207.435 249.624L207.435 249.625Z" fill="currentColor"/>
</g>
</g>
</g>
</g>
<defs>
<linearGradient id="paint0_linear_28_12816" x1="215.282" y1="104.787" x2="215.282" y2="108.825" gradientUnits="userSpaceOnUse">
<stop stop-color="#FFB800"/>
<stop offset="1" stop-color="#FF7F0A"/>
</linearGradient>
<linearGradient id="paint1_linear_28_12816" x1="194.857" y1="105.767" x2="194.857" y2="111.018" gradientUnits="userSpaceOnUse">
<stop stop-color="#FFB800"/>
<stop offset="1" stop-color="#FF7F0A"/>
</linearGradient>
<linearGradient id="paint2_linear_28_12816" x1="183.968" y1="103.254" x2="183.968" y2="116.099" gradientUnits="userSpaceOnUse">
<stop stop-color="#FFB800"/>
<stop offset="1" stop-color="#FF7F0A"/>
</linearGradient>
<linearGradient id="paint3_linear_28_12816" x1="177.235" y1="180.53" x2="177.235" y2="190.561" gradientUnits="userSpaceOnUse">
<stop stop-color="#FFB800"/>
<stop offset="1" stop-color="#FF7F0A"/>
</linearGradient>
<linearGradient id="paint4_linear_28_12816" x1="150.804" y1="99.1548" x2="150.804" y2="198.277" gradientUnits="userSpaceOnUse">
<stop stop-color="#FFB800"/>
<stop offset="1" stop-color="#FF7F0A"/>
</linearGradient>
<linearGradient id="paint5_linear_28_12816" x1="172.944" y1="117.887" x2="172.944" y2="140.622" gradientUnits="userSpaceOnUse">
<stop stop-color="#FFB800"/>
<stop offset="1" stop-color="#FF7F0A"/>
</linearGradient>
<linearGradient id="paint6_linear_28_12816" x1="152.391" y1="190.219" x2="152.391" y2="204.336" gradientUnits="userSpaceOnUse">
<stop stop-color="#FFB800"/>
<stop offset="1" stop-color="#FF7F0A"/>
</linearGradient>
<linearGradient id="paint7_linear_28_12816" x1="174.332" y1="254.151" x2="174.332" y2="270.043" gradientUnits="userSpaceOnUse">
<stop stop-color="#FFB800"/>
<stop offset="1" stop-color="#FF7F0A"/>
</linearGradient>
<linearGradient id="paint8_linear_28_12816" x1="143.795" y1="46.7867" x2="143.795" y2="54.7712" gradientUnits="userSpaceOnUse">
<stop stop-color="#FFB800"/>
<stop offset="1" stop-color="#FF7F0A"/>
</linearGradient>
<linearGradient id="paint9_linear_28_12816" x1="137.079" y1="100.483" x2="137.079" y2="106.141" gradientUnits="userSpaceOnUse">
<stop stop-color="#FFB800"/>
<stop offset="1" stop-color="#FF7F0A"/>
</linearGradient>
<linearGradient id="paint10_linear_28_12816" x1="129.844" y1="157.915" x2="129.844" y2="182.538" gradientUnits="userSpaceOnUse">
<stop stop-color="#FFB800"/>
<stop offset="1" stop-color="#FF7F0A"/>
</linearGradient>
<linearGradient id="paint11_linear_28_12816" x1="140.311" y1="32.9509" x2="140.311" y2="47.914" gradientUnits="userSpaceOnUse">
<stop stop-color="#FFB800"/>
<stop offset="1" stop-color="#FF7F0A"/>
</linearGradient>
<linearGradient id="paint12_linear_28_12816" x1="105.403" y1="260.213" x2="105.403" y2="276.009" gradientUnits="userSpaceOnUse">
<stop stop-color="#FFB800"/>
<stop offset="1" stop-color="#FF7F0A"/>
</linearGradient>
<linearGradient id="paint13_linear_28_12816" x1="137.715" y1="37.4124" x2="137.715" y2="53.5908" gradientUnits="userSpaceOnUse">
<stop stop-color="#FFB800"/>
<stop offset="1" stop-color="#FF7F0A"/>
</linearGradient>
<linearGradient id="paint14_linear_28_12816" x1="118.155" y1="113.922" x2="118.155" y2="128.351" gradientUnits="userSpaceOnUse">
<stop stop-color="#FFB800"/>
<stop offset="1" stop-color="#FF7F0A"/>
</linearGradient>
<linearGradient id="paint15_linear_28_12816" x1="110.872" y1="120.115" x2="110.872" y2="127.292" gradientUnits="userSpaceOnUse">
<stop stop-color="#FFB800"/>
<stop offset="1" stop-color="#FF7F0A"/>
</linearGradient>
<linearGradient id="paint16_linear_28_12816" x1="91.5953" y1="126.007" x2="91.5953" y2="131.307" gradientUnits="userSpaceOnUse">
<stop stop-color="#FFB800"/>
<stop offset="1" stop-color="#FF7F0A"/>
</linearGradient>
<linearGradient id="paint17_linear_28_12816" x1="132.336" y1="95.7867" x2="132.336" y2="105.271" gradientUnits="userSpaceOnUse">
<stop stop-color="#FFB800"/>
<stop offset="1" stop-color="#FF7F0A"/>
</linearGradient>
<linearGradient id="paint18_linear_28_12816" x1="117.44" y1="130.967" x2="117.44" y2="177.154" gradientUnits="userSpaceOnUse">
<stop stop-color="#FFB800"/>
<stop offset="1" stop-color="#FF7F0A"/>
</linearGradient>
<linearGradient id="paint19_linear_28_12816" x1="146.754" y1="78.4189" x2="146.754" y2="80.8582" gradientUnits="userSpaceOnUse">
<stop stop-color="#FFB800"/>
<stop offset="1" stop-color="#FF7F0A"/>
</linearGradient>
<linearGradient id="paint20_linear_28_12816" x1="143.089" y1="78.4204" x2="143.089" y2="80.9704" gradientUnits="userSpaceOnUse">
<stop stop-color="#FFB800"/>
<stop offset="1" stop-color="#FF7F0A"/>
</linearGradient>
<linearGradient id="paint21_linear_28_12816" x1="139.281" y1="78.8623" x2="139.281" y2="81.1906" gradientUnits="userSpaceOnUse">
<stop stop-color="#FFB800"/>
<stop offset="1" stop-color="#FF7F0A"/>
</linearGradient>
<linearGradient id="paint22_linear_28_12816" x1="135.348" y1="79.1938" x2="135.348" y2="81.6328" gradientUnits="userSpaceOnUse">
<stop stop-color="#FFB800"/>
<stop offset="1" stop-color="#FF7F0A"/>
</linearGradient>
<linearGradient id="paint23_linear_28_12816" x1="131.556" y1="79.75" x2="131.556" y2="81.9676" gradientUnits="userSpaceOnUse">
<stop stop-color="#FFB800"/>
<stop offset="1" stop-color="#FF7F0A"/>
</linearGradient>
<linearGradient id="paint24_linear_28_12816" x1="128.142" y1="79.8616" x2="128.142" y2="82.1908" gradientUnits="userSpaceOnUse">
<stop stop-color="#FFB800"/>
<stop offset="1" stop-color="#FF7F0A"/>
</linearGradient>
<clipPath id="clip0_28_12816">
<rect width="288" height="288" fill="white"/>
</clipPath>
</defs>
</svg>
