<svg width="288" height="288" viewBox="0 0 288 288" fill="none" xmlns="http://www.w3.org/2000/svg">
<g clip-path="url(#clip0_28_12846)">
<mask id="mask0_28_12846" style="mask-type:luminance" maskUnits="userSpaceOnUse" x="0" y="0" width="288" height="288">
<path d="M288 0H0V288H288V0Z" fill="white"/>
</mask>
<g mask="url(#mask0_28_12846)">
<mask id="mask1_28_12846" style="mask-type:luminance" maskUnits="userSpaceOnUse" x="17" y="11" width="254" height="266">
<path d="M270.6 11.7H17.7002V276.3H270.6V11.7Z" fill="white"/>
</mask>
<g mask="url(#mask1_28_12846)">
<path fill-rule="evenodd" clip-rule="evenodd" d="M103.14 177.68C103.647 175.229 103.028 172.641 101.847 170.434C100.664 168.227 98.9512 166.35 97.1647 164.6C90.0091 157.599 81.4336 152.216 72.0178 148.816L71.665 148.954C73.4002 153.309 77.6596 159.288 83.4589 165.087C84.5398 166.168 85.6282 167.195 86.7082 168.16C90.955 171.961 95.1181 174.838 98.4925 176.407C100.308 177.25 101.892 177.718 103.14 177.744V177.68ZM92.206 163.54C91.9861 163.391 91.687 163.448 91.5379 163.668C91.3888 163.888 91.4461 164.187 91.6663 164.336C95.341 166.827 98.1334 170.416 99.6436 174.591C99.7342 174.841 100.01 174.97 100.26 174.88C100.509 174.789 100.639 174.514 100.548 174.264C98.9692 169.898 96.049 166.144 92.206 163.54Z" fill="url(#paint0_linear_28_12846)"/>
<path fill-rule="evenodd" clip-rule="evenodd" d="M139.672 224.13C151.95 210.75 159.906 193.978 162.501 176.005L162.58 176.018C164.857 179.306 167.196 182.65 169.568 186.043C183.925 206.579 199.524 228.891 210.238 251.141L210.256 251.18C212.818 256.502 215.702 262.494 219.119 264.334C221.427 265.575 223.988 265.55 226.557 264.87C229.687 264.042 232.834 262.243 235.567 260.588C239.977 257.919 244.516 254.368 246.104 249.644C246.379 248.829 246.561 247.985 246.644 247.129C247.17 241.646 243.552 236.732 240.158 232.399C218.221 204.382 197.71 175.389 178.625 145.421C178.567 145.431 178.51 145.444 178.455 145.457C170.058 147.263 161.307 149.139 152.534 151.02C144.017 152.846 135.479 154.676 127.222 156.452L127.238 156.529C128.973 162.774 129.356 169.317 128.361 175.721C127.366 182.125 125.015 188.244 121.467 193.667C117.919 199.091 113.254 203.695 107.784 207.172C102.314 210.649 96.1655 212.918 89.7485 213.829C89.2334 213.902 88.7132 213.968 88.1915 214.033C85.4912 214.374 82.7522 214.719 80.4725 216.154C77.9321 217.754 76.3187 220.534 75.5489 223.444C75.5267 223.516 75.5072 223.584 75.4913 223.654C74.7407 226.634 74.7728 229.752 74.8466 232.825C74.93 236.283 75.0752 239.788 76.1552 243.073C76.9667 245.536 78.3782 247.887 80.3603 249.514C81.0215 250.062 81.7514 250.521 82.5317 250.88C85.9766 252.456 89.9909 251.86 93.6809 251C111.365 246.874 127.394 237.509 139.672 224.13ZM177.51 150.771C177.349 150.559 177.047 150.518 176.836 150.679C176.624 150.839 176.583 151.141 176.743 151.353C198.313 179.761 219.026 208.769 238.88 238.378C239.028 238.598 239.327 238.657 239.548 238.51C239.768 238.361 239.827 238.063 239.68 237.842C219.814 208.218 199.091 179.194 177.51 150.771Z" fill="#171717"/>
<path fill-rule="evenodd" clip-rule="evenodd" d="M155.015 77.9424H154.961C154.962 77.3532 154.887 76.7664 154.735 76.197C154.654 75.879 154.511 75.5802 154.314 75.3177C154.116 75.0552 153.87 74.8341 153.587 74.667C153.009 74.3589 152.32 74.3781 151.669 74.4039C150.361 74.4531 149.055 74.5131 147.749 74.5839C143.596 74.802 139.452 75.1581 135.384 75.9921C135.266 76.0146 135.15 76.0368 135.035 76.0626C134.175 76.2453 133.271 76.4763 132.648 77.1018C132.151 77.6436 131.856 78.3399 131.811 79.0743C131.768 79.8036 131.81 80.5356 131.936 81.2553L131.58 81.39L129.915 81.777L129.832 81.87L148.355 98.4399L148.592 98.6484C148.988 97.8465 149.511 97.1088 150.332 96.8232C150.783 96.6867 151.266 96.6927 151.714 96.8409C152.162 96.9891 152.553 97.2717 152.834 97.6506C153.088 98.0154 153.247 98.4378 153.298 98.8794C153.348 99.3213 153.288 99.7686 153.123 100.181C153.119 100.184 153.119 100.184 153.119 100.188C153.104 100.235 153.084 100.281 153.062 100.326L153.242 100.4C153.46 100.165 153.648 99.9264 153.831 99.6933C154.205 99.2172 154.56 98.7651 155.118 98.427C155.524 98.1582 155.98 97.9746 156.458 97.8873C156.937 97.8003 157.428 97.8114 157.902 97.9203C158.836 98.1864 159.615 99.0846 159.538 100.053C159.519 100.351 159.457 100.645 159.355 100.926C160.029 100.313 160.83 99.8643 161.7 100.14C162.221 100.296 162.668 100.633 162.96 101.092C163.397 101.807 163.326 102.74 162.993 103.51L163.07 103.526C163.619 103.435 164.181 103.559 164.641 103.873C165.1 104.187 165.421 104.666 165.536 105.21C165.774 106.352 165.379 107.531 164.863 108.581C164.342 109.637 163.695 110.626 162.935 111.526L178.289 125.251L178.366 125.164C176.427 116.323 174.486 107.481 172.542 98.6379C177.664 100.5 182.115 103.469 185.355 107.85C191.137 115.667 191.479 124.567 191.667 129.469C191.745 131.477 191.796 132.814 192.184 133.132C192.762 133.602 193.471 134.164 194.298 134.812C196.713 136.691 200.158 139.286 204.373 142.442C205.051 142.951 205.751 143.475 206.473 144.014L206.479 144.005C211.475 133.253 212.106 120.982 208.241 109.775C204.375 98.5668 196.314 89.2947 185.753 83.9085C176.358 79.1196 165.558 77.7084 155.015 77.9424ZM179.809 83.1015C179.566 82.9944 179.282 83.1048 179.175 83.3478C179.068 83.5911 179.178 83.8749 179.421 83.982C188.178 87.8394 195.514 94.3326 200.406 102.557C205.299 110.78 207.504 120.325 206.714 129.862C206.692 130.127 206.889 130.359 207.154 130.381C207.419 130.403 207.651 130.206 207.673 129.941C208.479 120.206 206.228 110.461 201.233 102.065C196.239 93.6687 188.749 87.0399 179.809 83.1015Z" fill="url(#paint1_linear_28_12846)"/>
<path fill-rule="evenodd" clip-rule="evenodd" d="M128.12 44.2989C128.233 43.9764 128.379 43.6659 128.553 43.3719C129.746 41.361 132.193 40.4979 134.484 40.0398C135.087 39.9177 135.693 39.8154 136.302 39.7254L136.289 39.6453C141.466 37.4289 146.525 35.418 151.66 33.6153L151.621 33.5094C150.203 32.3781 149.7 30.5172 149.219 28.7382C149.162 28.5297 149.106 28.3223 149.049 28.1173C148.901 27.5881 148.715 27.0268 148.279 26.6899C147.66 26.2087 146.778 26.3467 146.015 26.5198C138.452 28.2271 131.145 30.9141 124.277 34.5126L124.383 34.7148C125.551 37.8804 126.718 41.0463 127.886 44.2122L128.12 44.2989ZM146.971 28.2005C146.83 27.9749 146.534 27.9057 146.308 28.0461C146.083 28.1864 146.014 28.483 146.154 28.7086C146.935 29.9642 147.451 31.3659 147.671 32.8281C147.711 33.0906 147.956 33.2715 148.219 33.2319C148.482 33.1923 148.663 32.9472 148.623 32.6847C148.383 31.0932 147.821 29.5672 146.971 28.2005Z" fill="url(#paint2_linear_28_12846)"/>
<path fill-rule="evenodd" clip-rule="evenodd" d="M49.3821 49.7517C49.9407 48.9045 50.574 48.1092 51.2745 47.3748C53.7699 44.7639 57.1089 43.0287 60.63 42.2172C64.1733 41.4528 67.8381 41.445 71.3847 42.1947L71.4264 42.1851C71.3319 41.7582 71.2803 41.3232 71.2725 40.8861C71.2875 39.0351 71.907 37.2396 73.0365 35.7732C73.9953 34.4808 75.3585 33.387 76.8918 32.9892L76.8597 32.8545C70.8564 27.1405 62.8821 23.9596 54.5943 23.9729C51.1398 23.9966 47.6661 24.5888 44.5164 26.0066C41.3667 27.4244 38.5602 29.6888 36.7575 32.6334C34.9035 35.6646 34.2045 39.2247 34.1274 42.8076H34.2909C35.1504 41.3865 37.3284 40.482 38.0661 42.4515C39.0306 42.9537 40.0794 41.9337 41.0982 40.9431C42.39 39.6873 43.6335 38.478 44.5965 40.4757C44.9385 46.6365 46.3188 46.254 47.5068 45.9249C48.5571 45.6339 49.4571 45.3843 49.3563 49.7358L49.3821 49.7517ZM58.5084 25.8196C58.2429 25.8101 58.02 26.0177 58.0104 26.2832C58.0011 26.5487 58.2087 26.7716 58.4742 26.7811C62.8059 26.9355 66.942 28.6254 70.1424 31.5489C70.3386 31.728 70.6428 31.7142 70.8222 31.518C71.0013 31.3218 70.9875 31.0176 70.7913 30.8385C67.4223 27.7611 63.0684 25.9821 58.5084 25.8196Z" fill="#171717"/>
<path d="M166.677 30.42C166.86 30.8499 166.623 31.3599 166.308 31.7061C165.977 32.0349 165.594 32.3058 165.173 32.508C162.369 34.0344 159.568 35.5623 156.769 37.0914L156.388 37.0785C156.448 35.8785 155.698 34.0764 153.228 35.526C152.205 36.1326 151.142 36.6702 150.047 37.1361C145.742 38.9661 140.944 39.0156 136.302 39.7245L136.29 39.6444C141.466 37.428 146.525 35.4168 151.66 33.6144C155.666 32.1999 159.717 30.9144 163.91 29.7461C164.419 29.6054 166.232 29.3615 166.677 30.42Z" fill="url(#paint3_linear_28_12846)"/>
<path d="M154.752 40.0616C155.378 39.4745 156.051 38.9006 156.879 38.6984C157.787 38.477 158.925 38.8973 159.15 39.8051C159.326 40.5074 158.91 41.2292 158.393 41.7359C156.937 43.1504 154.763 43.4486 152.748 43.6733C152.448 43.7087 152.145 43.7408 151.843 43.7759C146.803 44.3405 141.763 44.9072 136.723 45.476C134.933 45.6749 132.9 46.0214 131.938 47.546C131.139 48.8162 131.386 50.456 131.652 51.9338C132.143 54.6278 132.609 57.3254 133.051 60.0263L132.775 60.0713C132.778 60.5366 132.681 60.9971 132.491 61.4219C132.302 61.8467 132.023 62.2262 131.675 62.5346C131.318 62.8337 130.877 63.0155 130.413 63.0557C129.948 63.0959 129.483 62.9924 129.08 62.759C128.304 62.2523 128.018 61.0622 128.589 60.3308C128.188 60.8666 127.762 61.4213 127.152 61.7036C126.542 61.9859 125.702 61.88 125.369 61.2995C125.035 60.719 125.336 59.9972 125.612 59.3879C126.985 56.3447 127.697 53.0459 127.704 49.7078C127.707 47.8925 127.524 45.971 128.121 44.3C128.235 43.9775 128.38 43.667 128.554 43.373C129.747 41.363 132.194 40.499 134.484 40.0403C135.087 39.9185 135.694 39.8159 136.303 39.7259C140.944 39.017 145.743 38.969 150.047 37.1375C151.142 36.6716 152.205 36.1337 153.229 35.5274C155.7 34.0763 156.45 35.8799 156.388 37.0799C156.379 37.274 156.343 37.466 156.279 37.6499C155.96 38.5592 155.436 39.3833 154.749 40.0586L154.752 40.0616Z" fill="#171717"/>
<path d="M157.209 115.881L181.063 136.96L180.922 137.121C181.157 138.189 181.391 138.937 181.625 140.005C181.932 141.413 182.192 143.045 181.272 144.155C180.633 144.922 179.607 145.201 178.626 145.422C178.568 145.432 178.51 145.444 178.455 145.457C161.905 149.018 143.985 152.848 127.222 156.453C125.827 156.754 124.439 157.052 123.059 157.348C122.853 153.864 122.645 150.688 122.439 147.215C132.851 140.05 142.534 131.816 152.176 123.614C153.321 122.639 154.544 121.529 154.742 120.041C154.887 118.954 154.457 117.946 153.819 117.029L154.136 116.936C155.147 116.558 156.163 116.179 157.148 115.743L157.209 115.881Z" fill="url(#paint4_linear_28_12846)"/>
<path d="M144.825 108.285C145.883 108.581 146.72 109.425 147.49 110.226C149.11 111.916 150.729 113.605 152.346 115.294C152.88 115.834 153.372 116.414 153.818 117.029C154.457 117.946 154.886 118.953 154.742 120.041C154.543 121.529 153.321 122.639 152.176 123.614C142.534 131.816 132.851 140.049 122.439 147.215C119.472 149.261 116.442 151.209 113.349 153.059C111.168 154.358 108.535 155.631 106.197 154.646C104.362 153.876 103.329 151.949 102.524 150.127C97.3708 138.46 95.5075 125.606 97.1353 112.957C98.0143 106.207 100.006 99.3759 104.403 94.1862C107.7 90.3 112.178 87.5514 116.9 85.6269C118.35 85.0335 119.504 84.5139 120.999 84.0456L121.095 83.9364L145.611 105.59L145.791 105.661C145.489 106.45 145.193 107.241 144.902 108.035L144.825 108.285Z" fill="url(#paint5_linear_28_12846)"/>
<path d="M105.096 177.24C104.518 177.62 103.83 177.797 103.14 177.744V177.679C103.647 175.229 103.028 172.639 101.847 170.434C100.667 168.228 98.9506 166.351 97.1641 164.599C90.0088 157.598 81.433 152.215 72.0172 148.815L71.6644 148.953C70.5994 146.291 70.4776 144.235 71.5201 143.193C74.269 140.447 84.0679 145.791 93.4114 155.134C102.755 164.478 108.099 174.277 105.353 177.026L105.096 177.24Z" fill="#171717"/>
<path d="M98.4927 176.406L98.4864 176.422C92.793 181.012 87.0984 185.602 81.4032 190.192C79.5621 191.677 77.58 193.222 75.2289 193.486C74.2923 193.592 73.1247 193.319 72.8745 192.412C72.6405 191.555 73.3749 190.769 74.0445 190.186C77.5119 187.161 80.9814 184.136 84.453 181.112C84.8688 180.793 85.2177 180.395 85.4793 179.942C85.6068 179.712 85.6644 179.45 85.6449 179.189C85.6257 178.927 85.5303 178.677 85.3704 178.469C84.777 177.818 83.7057 178.213 82.9404 178.646C81.1923 179.63 79.4454 180.615 77.6994 181.6C77.2659 181.888 76.7742 182.077 76.2594 182.155C76.0008 182.187 75.7389 182.136 75.5115 182.009C75.2841 181.883 75.1032 181.686 74.9955 181.449C74.7903 180.84 75.2655 180.233 75.7077 179.769C79.3002 175.978 82.8936 172.188 86.4882 168.402L86.7096 168.162C90.9552 171.96 95.1183 174.838 98.4927 176.406Z" fill="url(#paint6_linear_28_12846)"/>
<path d="M49.3568 49.7358L49.3826 49.7517C47.5736 52.4685 46.4831 55.6728 45.9185 58.9017C45.1775 63.1356 45.2801 67.4688 45.3827 71.7669L45.3227 71.8245C38.7794 65.1432 35.0627 55.9602 34.2632 46.6425C34.1489 45.3672 34.1042 44.0865 34.1285 42.8064H34.2902C35.1497 41.3856 37.3277 40.4811 38.0654 42.4503C40.253 43.5903 42.8735 36.9003 44.5958 40.4745C45.2417 52.0836 49.5716 40.4628 49.3568 49.7358Z" fill="url(#paint7_linear_28_12846)"/>
<path d="M142.262 60.3045C143.106 60.1443 143.952 59.9844 144.799 59.8245C144.036 56.1579 143.273 52.4928 142.509 48.8292C144.488 47.8404 146.77 47.643 148.889 48.2775" stroke="#171717" stroke-width="0.9621" stroke-linecap="round" stroke-linejoin="round"/>
<path d="M136.86 52.2567C137.278 51.8979 137.79 51.6663 138.336 51.5883C138.881 51.5106 139.437 51.5898 139.939 51.8172" stroke="#171717" stroke-width="0.9621" stroke-linecap="round" stroke-linejoin="round"/>
<path d="M148.577 51.564C148.425 51.342 148.215 51.1659 147.97 51.054C147.725 50.9421 147.454 50.8989 147.186 50.9289C146.919 50.9589 146.664 51.0609 146.45 51.2241C146.236 51.3873 146.07 51.6057 145.97 51.8559" stroke="#171717" stroke-width="0.9621" stroke-linecap="round" stroke-linejoin="round"/>
<path d="M141.379 65.5583C140.977 65.7617 140.538 65.882 140.088 65.9117C139.638 65.9414 139.186 65.8802 138.76 65.7311C138.335 65.5823 137.943 65.3492 137.61 65.0456C137.276 64.742 137.007 64.3739 136.819 63.9641" stroke="#171717" stroke-width="0.9621" stroke-linecap="round" stroke-linejoin="round"/>
<path d="M135.388 76.0115C135.388 76.0052 135.385 75.9986 135.385 75.9923C134.699 70.6583 133.92 65.336 133.05 60.0254C132.607 57.3254 132.141 54.6278 131.651 51.9329C131.385 50.4542 131.138 48.8153 131.937 47.5451C132.899 46.0214 134.933 45.6752 136.722 45.4751C141.762 44.9075 146.802 44.3408 151.842 43.775C152.142 43.7396 152.445 43.7075 152.747 43.6724C154.761 43.448 156.936 43.1495 158.392 41.735C158.908 41.2283 159.325 40.5065 159.149 39.8042C158.925 38.8964 157.786 38.4764 156.878 38.6975C156.051 38.8997 155.378 39.4736 154.751 40.0607L154.569 40.2338" stroke="#171717" stroke-width="0.9621" stroke-linecap="round" stroke-linejoin="round"/>
<path d="M147.734 74.2697C147.409 73.1054 147.221 71.9075 147.172 70.6997C147.126 69.4805 147.504 68.2832 148.244 67.3127C148.898 66.5237 149.838 66.0227 150.569 65.2985C151.602 64.2785 152.166 62.8544 152.399 61.4174C152.582 59.9738 152.613 58.5149 152.492 57.0647C152.28 52.6799 152.069 48.2963 151.857 43.9139" stroke="#171717" stroke-width="0.9621" stroke-linecap="round" stroke-linejoin="round"/>
<path d="M154.437 40.32C154.546 40.2396 154.65 40.1529 154.748 40.0602C155.436 39.3849 155.959 38.5608 156.278 37.6515C156.342 37.4676 156.379 37.2756 156.388 37.0815C156.448 35.8815 155.698 34.0794 153.228 35.529C152.204 36.1356 151.142 36.6735 150.047 37.1391C145.742 38.9706 140.944 39.0186 136.302 39.7275C135.693 39.8175 135.087 39.9198 134.484 40.0419C132.194 40.5006 129.746 41.3634 128.553 43.3746C128.379 43.6689 128.234 43.9791 128.12 44.3016C127.523 45.9726 127.706 47.8941 127.703 49.7094C127.697 53.0475 126.984 56.3466 125.612 59.3895C125.336 59.9988 125.038 60.7206 125.368 61.3011C125.698 61.8816 126.545 61.9842 127.151 61.7052C127.758 61.4262 128.187 60.8679 128.588 60.3324C128.018 61.0638 128.303 62.2524 129.079 62.7606C129.482 62.9937 129.948 63.0972 130.412 63.0573C130.876 63.0171 131.317 62.835 131.674 62.5362C132.023 62.2278 132.301 61.8483 132.491 61.4235C132.68 60.9987 132.777 60.5382 132.774 60.0729" stroke="#171717" stroke-width="0.9621" stroke-linecap="round" stroke-linejoin="round"/>
<path d="M127.886 44.2122C126.718 41.0463 125.551 37.8804 124.383 34.7148" stroke="#171717" stroke-width="0.9621" stroke-linecap="round" stroke-linejoin="round"/>
<path d="M124.184 34.56C124.216 34.5441 124.244 34.5279 124.277 34.512C131.144 30.9135 138.452 28.2269 146.014 26.5198C146.778 26.3467 147.66 26.2087 148.279 26.6899C148.715 27.0268 148.901 27.5881 149.049 28.1173C149.594 30.0708 150.037 32.2455 151.621 33.5094" stroke="#171717" stroke-width="0.9621" stroke-linecap="round" stroke-linejoin="round"/>
<path d="M136.29 39.6447C141.467 37.4283 146.525 35.4171 151.661 33.6147C155.667 32.2002 159.718 30.9147 163.91 29.7465C164.42 29.6055 166.232 29.3616 166.678 30.42C166.861 30.8499 166.624 31.3599 166.309 31.7061C165.978 32.0349 165.594 32.3061 165.174 32.508C162.37 34.0347 159.569 35.5623 156.77 37.0914" stroke="#171717" stroke-width="0.9621" stroke-linecap="round" stroke-linejoin="round"/>
<path d="M131.937 81.2559C131.811 80.5362 131.769 79.8042 131.812 79.0749C131.856 78.3405 132.152 77.6442 132.649 77.1024C133.271 76.4769 134.176 76.2459 135.036 76.0632C135.151 76.0374 135.267 76.0152 135.385 75.9927C139.452 75.1587 143.596 74.8026 147.75 74.5845C149.056 74.5137 150.362 74.4537 151.669 74.4045C152.32 74.3787 153.01 74.3595 153.588 74.6676C153.87 74.8347 154.117 75.0558 154.314 75.3183C154.511 75.5808 154.654 75.8796 154.736 76.1976C154.887 76.7667 154.962 77.3535 154.96 77.9424C154.964 78.0099 154.964 78.0738 154.967 78.1413" stroke="#171717" stroke-width="0.9621" stroke-linecap="round" stroke-linejoin="round"/>
<path d="M121 84.0463C119.505 84.5146 118.35 85.0342 116.9 85.6276C112.179 87.5521 107.7 90.3001 104.404 94.1884C100.006 99.3784 98.0139 106.21 97.1358 112.959C95.508 125.608 97.3715 138.461 102.524 150.127C103.33 151.949 104.362 153.877 106.197 154.647C108.535 155.631 111.169 154.358 113.35 153.059C116.448 151.215 119.478 149.267 122.44 147.215C132.85 140.05 142.534 131.816 152.176 123.614C153.322 122.639 154.544 121.529 154.742 120.041C154.887 118.954 154.457 117.947 153.819 117.029C153.372 116.415 152.88 115.835 152.347 115.294C150.727 113.607 149.108 111.918 147.49 110.226C146.721 109.424 145.883 108.581 144.825 108.286C144.741 108.26 144.655 108.238 144.568 108.222C142.945 107.911 141.415 108.979 140.107 109.986C132.027 116.228 123.948 122.468 115.871 128.708C115.534 123.544 116.111 118.454 116.147 113.219" stroke="#171717" stroke-width="0.9621" stroke-linecap="round" stroke-linejoin="round"/>
<path d="M131.58 81.39L129.915 81.7749" stroke="#171717" stroke-width="0.9621" stroke-linecap="round" stroke-linejoin="round"/>
<path d="M71.5201 143.193C74.269 140.447 84.0679 145.791 93.4114 155.134C102.755 164.478 108.099 174.277 105.353 177.026C105.274 177.105 105.189 177.177 105.096 177.24C104.518 177.62 103.83 177.797 103.14 177.744C101.892 177.718 100.308 177.25 98.4922 176.407C95.1178 174.838 90.9547 171.961 86.7079 168.16C85.6279 167.195 84.5395 166.168 83.4586 165.087C77.6593 159.288 73.3999 153.309 71.6647 148.954C70.6 146.291 70.4782 144.235 71.5201 143.193Z" stroke="#171717" stroke-width="0.9621" stroke-linecap="round" stroke-linejoin="round"/>
<path d="M71.5194 143.193L42.5235 167.24C38.6808 170.893 42.9501 181.616 52.0563 191.187C61.1625 200.758 71.6574 205.559 75.4968 201.906L105.096 177.24L105.353 177.025" stroke="#171717" stroke-width="0.9621" stroke-linecap="round" stroke-linejoin="round"/>
<path d="M103.14 177.68C103.647 175.229 103.028 172.64 101.847 170.434C100.667 168.228 98.951 166.351 97.1645 164.6C90.0089 157.598 81.4331 152.216 72.0176 148.815" stroke="#171717" stroke-width="0.9621" stroke-linecap="round" stroke-linejoin="round"/>
<path d="M86.4866 168.401C82.8911 172.189 79.2977 175.978 75.7061 179.768C75.2636 180.233 74.7887 180.839 74.9939 181.448C75.1016 181.685 75.2825 181.881 75.5099 182.009C75.7373 182.135 75.9992 182.186 76.2578 182.153C76.7726 182.076 77.2643 181.887 77.6978 181.598C79.4459 180.614 81.1928 179.629 82.9388 178.644C83.7053 178.211 84.7766 177.817 85.3688 178.468C85.5287 178.676 85.6241 178.926 85.6433 179.188C85.6628 179.45 85.6052 179.711 85.4777 179.94C85.2164 180.394 84.8675 180.792 84.4514 181.11C80.981 184.135 77.5115 187.16 74.0429 190.184C73.3724 190.768 72.638 191.554 72.8729 192.41C73.1231 193.318 74.2907 193.591 75.2273 193.485C77.5784 193.222 79.5605 191.676 81.4016 190.191C87.095 185.601 92.7893 181.011 98.4848 176.421" stroke="#171717" stroke-width="0.9621" stroke-linecap="round" stroke-linejoin="round"/>
<path d="M204.09 148.395L249.466 188.98C249.466 188.98 251.468 191.546 250.034 193.66C248.6 195.774 243.769 192.377 243.769 192.377L200.779 154.387" stroke="#171717" stroke-width="0.9621" stroke-linecap="round" stroke-linejoin="round"/>
<path d="M162.912 111.503L162.935 111.525L178.289 125.25L191.379 136.951" stroke="#171717" stroke-width="0.9621" stroke-linecap="round" stroke-linejoin="round"/>
<path d="M145.611 105.591L121.096 83.9373L78.5226 46.3389L76.6011 44.6421L81.0147 38.1885L82.3554 39.3882L129.833 81.8685L148.356 98.4384" stroke="#171717" stroke-width="0.9621" stroke-linecap="round" stroke-linejoin="round"/>
<path d="M186.397 141.676L181.063 136.961L157.208 115.881" stroke="#171717" stroke-width="0.9621" stroke-linecap="round" stroke-linejoin="round"/>
<path d="M82.5542 39.1638C82.8473 38.352 82.9127 37.4754 82.7429 36.6294C82.5734 35.7831 82.1756 34.9995 81.5924 34.3632C81.0089 33.7272 80.2628 33.2628 79.4345 33.0207C78.6062 32.7783 77.7272 32.7675 76.8932 32.9892C75.3599 33.387 73.9967 34.4808 73.0379 35.7732C71.9084 37.2396 71.2892 39.0351 71.2739 40.8861C71.2817 41.3232 71.3333 41.7582 71.4278 42.1851C71.711 43.5684 72.4748 44.8068 73.5833 45.6813C75.0458 46.788 76.8935 47.2626 78.4973 46.3677" stroke="#171717" stroke-width="0.9621" stroke-linecap="round" stroke-linejoin="round"/>
<path d="M76.86 32.8545C70.8567 27.1404 62.8824 23.9596 54.5943 23.9729C51.1398 23.9954 47.6643 24.5918 44.5164 26.0066C41.3685 27.4214 38.5602 29.6888 36.7575 32.6334C34.9035 35.6634 34.2042 39.2247 34.1274 42.8076C34.1034 44.0877 34.1484 45.3684 34.2621 46.6437C35.0607 55.9614 38.7783 65.1447 45.3216 71.8257C45.3363 71.8389 45.3504 71.8527 45.3633 71.8674" stroke="#171717" stroke-width="0.9621" stroke-linecap="round" stroke-linejoin="round"/>
<path d="M45.3826 71.7681C45.28 67.47 45.1774 63.1368 45.9184 58.9029C46.483 55.6728 47.5735 52.4685 49.3825 49.7529C49.9414 48.9057 50.5747 48.1104 51.2749 47.376C53.7703 44.766 57.1093 43.0299 60.6313 42.2184C64.1746 41.454 67.8394 41.4462 71.386 42.1959" stroke="#171717" stroke-width="0.9621" stroke-linecap="round" stroke-linejoin="round"/>
<path d="M49.3564 49.7357C49.5712 40.4627 45.2413 52.0835 44.5966 40.4756C42.8743 36.9023 40.2535 43.5902 38.0662 42.4514C37.3285 40.4819 35.1505 41.3864 34.291 42.8075" stroke="#171717" stroke-width="0.9621" stroke-linecap="round" stroke-linejoin="round"/>
<path d="M155.015 77.9425C165.558 77.7085 176.358 79.1197 185.753 83.9086C196.314 89.2948 204.375 98.5669 208.241 109.775C212.106 120.983 211.475 133.253 206.479 144.005" stroke="#171717" stroke-width="0.9621" stroke-linecap="round" stroke-linejoin="round"/>
<path d="M180.922 137.121C181.156 138.189 181.39 138.937 181.624 140.005C181.932 141.413 182.192 143.045 181.272 144.155C180.633 144.922 179.607 145.201 178.625 145.422C178.568 145.432 178.51 145.444 178.455 145.457C161.905 149.018 143.985 152.848 127.222 156.453C125.827 156.754 124.439 157.052 123.058 157.348C122.853 153.864 122.645 150.688 122.439 147.215C122.436 147.16 122.433 147.106 122.43 147.052" stroke="#171717" stroke-width="0.9621" stroke-linecap="round" stroke-linejoin="round"/>
<path d="M206.476 144.017L206.473 144.014C205.751 143.475 205.051 142.951 204.373 142.442C200.158 139.286 196.713 136.691 194.298 134.811C193.471 134.163 192.762 133.602 192.184 133.131C190.847 132.037 193.504 118.867 185.355 107.85C182.115 103.468 177.664 100.5 172.542 98.6376C174.485 107.481 176.427 116.323 178.366 125.164" stroke="#171717" stroke-width="0.9621" stroke-linecap="round" stroke-linejoin="round"/>
<path d="M127.238 156.53C128.974 162.774 129.357 169.317 128.362 175.722C127.367 182.127 125.016 188.245 121.468 193.669C117.92 199.093 113.255 203.697 107.785 207.174C102.315 210.651 96.1659 212.921 89.7486 213.832C86.5668 214.284 83.1924 214.444 80.4726 216.157C77.9322 217.757 76.3188 220.538 75.549 223.447C75.5265 223.517 75.5073 223.585 75.4914 223.655C74.7414 226.635 74.7714 229.753 74.8467 232.826C74.9301 236.284 75.0744 239.789 76.1553 243.074C76.9653 245.537 78.378 247.888 80.3604 249.515C81.0216 250.063 81.7515 250.522 82.5318 250.881C85.9767 252.456 89.9925 251.859 93.681 251.001C111.365 246.875 127.394 237.51 139.672 224.131C151.949 210.751 159.906 193.979 162.501 176.006C162.784 174.079 163.002 172.141 163.155 170.195" stroke="#171717" stroke-width="0.9621" stroke-linecap="round" stroke-linejoin="round"/>
<path d="M178.625 145.422C197.71 175.39 218.22 204.382 240.158 232.4C243.551 236.733 247.169 241.647 246.643 247.13C246.56 247.986 246.379 248.83 246.103 249.644C244.516 254.369 239.977 257.92 235.567 260.588C232.834 262.243 229.687 264.043 226.557 264.87C223.988 265.55 221.427 265.576 219.119 264.334C215.693 262.49 212.803 256.473 210.239 251.142C197.755 225.216 178.638 199.206 162.582 176.019" stroke="#171717" stroke-width="0.9621" stroke-linecap="round" stroke-linejoin="round"/>
<path d="M75.2996 223.38C72.3647 223.306 69.1892 223.303 66.8189 225.038C64.8269 226.495 63.8039 228.907 62.954 231.223C60.5453 237.779 58.7972 244.556 57.0521 251.321C56.369 253.977 55.7051 256.901 56.9141 259.361C58.3127 262.219 61.6841 263.405 64.7276 264.326C66.5975 264.894 68.7593 265.426 70.3976 264.362C71.2124 263.836 71.7575 262.989 72.2771 262.168C74.8922 258.031 77.5073 253.896 80.1224 249.763" stroke="#171717" stroke-width="0.9621" stroke-linecap="round" stroke-linejoin="round"/>
<path d="M226.597 265.014C227.767 266.836 228.38 268.952 229.323 270.903C230.266 272.853 231.677 274.748 233.733 275.429C235.542 276.029 237.508 275.589 239.359 275.146C244.841 273.834 250.322 272.521 255.804 271.208C259.018 270.441 262.392 269.585 264.788 267.308C266.978 265.223 268.028 262.243 269.006 259.379C269.644 257.512 270.286 255.485 269.679 253.605C268.826 250.959 265.76 249.621 262.979 249.618C260.198 249.615 257.519 250.593 254.774 251.045C252.029 251.498 248.273 251.626 246.271 249.698" stroke="#171717" stroke-width="0.9621" stroke-linecap="round" stroke-linejoin="round"/>
<path d="M153.062 100.325C153.085 100.28 153.104 100.234 153.12 100.187C153.12 100.183 153.12 100.183 153.123 100.18C153.139 100.139 153.155 100.097 153.174 100.055" stroke="#171717" stroke-width="0.9621" stroke-linecap="round" stroke-linejoin="round"/>
<path d="M144.902 108.035C145.194 107.243 145.49 106.452 145.79 105.662C146.579 103.586 147.394 101.52 148.235 99.4617C148.344 99.1917 148.459 98.9163 148.595 98.6469C148.989 97.845 149.512 97.1073 150.335 96.8217C150.786 96.6852 151.268 96.6915 151.716 96.8394C152.164 96.9876 152.555 97.2702 152.837 97.6491C153.091 98.0139 153.25 98.4363 153.3 98.8779C153.351 99.3198 153.29 99.7671 153.125 100.18" stroke="#171717" stroke-width="0.9621" stroke-linecap="round" stroke-linejoin="round"/>
<path d="M153.24 100.398C153.904 99.686 154.286 98.9282 155.116 98.4257C155.522 98.1566 155.978 97.973 156.456 97.886C156.935 97.7987 157.426 97.8101 157.9 97.919C158.834 98.1851 159.613 99.0833 159.536 100.052C159.517 100.35 159.455 100.644 159.353 100.924C159.09 101.633 158.545 102.223 157.599 103.17" stroke="#171717" stroke-width="0.9621" stroke-linecap="round" stroke-linejoin="round"/>
<path d="M159.355 100.924C160.028 100.312 160.83 99.8625 161.7 100.138C162.22 100.294 162.667 100.633 162.96 101.091C163.396 101.806 163.325 102.741 162.992 103.51C162.615 104.259 162.122 104.943 161.529 105.537C161.613 105.424 161.696 105.312 161.78 105.203" stroke="#171717" stroke-width="0.9621" stroke-linecap="round" stroke-linejoin="round"/>
<path d="M163.069 103.526C163.618 103.434 164.181 103.559 164.64 103.872C165.1 104.186 165.42 104.665 165.536 105.209C165.773 106.351 165.378 107.532 164.862 108.581C163.654 111.02 161.793 113.076 159.486 114.521C158.737 114.983 157.956 115.392 157.148 115.743C156.163 116.179 155.146 116.558 154.136 116.936" stroke="#171717" stroke-width="0.9621" stroke-linecap="round" stroke-linejoin="round"/>
<path d="M188.283 146.548C188.257 146.57 188.229 146.596 188.203 146.622" stroke="#171717" stroke-width="0.9621" stroke-linecap="round" stroke-linejoin="round"/>
<path d="M188.418 146.419L188.415 146.423" stroke="#171717" stroke-width="0.9621" stroke-linecap="round" stroke-linejoin="round"/>
<path d="M188.415 146.423C188.373 146.464 188.328 146.506 188.283 146.548" stroke="#171717" stroke-width="0.9621" stroke-linecap="round" stroke-linejoin="round"/>
<path d="M194.224 134.905C193.499 135.535 192.634 136.277 191.719 137.07C189.929 138.619 187.943 140.345 186.439 141.72C186.256 141.887 186.076 142.047 185.909 142.204C185.056 142.993 184.145 143.939 184.178 145.097C184.208 145.568 184.383 146.017 184.679 146.384C184.975 146.752 185.376 147.019 185.829 147.15C186.256 147.257 186.703 147.259 187.131 147.154C187.559 147.048 187.954 146.84 188.283 146.547" stroke="#171717" stroke-width="0.9621" stroke-linecap="round" stroke-linejoin="round"/>
<path d="M188.547 146.564C188.117 147.434 187.543 148.058 187.363 149.011C187.254 149.486 187.243 149.978 187.33 150.457C187.417 150.937 187.601 151.394 187.87 151.8C188.447 152.58 189.563 152.993 190.442 152.58C190.715 152.456 190.968 152.294 191.196 152.1C191.764 151.603 192.126 150.884 192.678 149.67" stroke="#171717" stroke-width="0.9621" stroke-linecap="round" stroke-linejoin="round"/>
<path d="M191.196 152.097C190.859 152.947 190.721 153.851 191.282 154.57C191.613 155.002 192.088 155.301 192.62 155.413C193.444 155.57 194.291 155.176 194.894 154.592C195.462 153.976 195.929 153.273 196.276 152.51C196.202 152.63 196.126 152.744 196.052 152.863" stroke="#171717" stroke-width="0.9621" stroke-linecap="round" stroke-linejoin="round"/>
<path d="M194.936 154.66C195.043 155.206 195.357 155.689 195.813 156.009C196.268 156.329 196.83 156.46 197.38 156.376C198.534 156.196 199.5 155.41 200.298 154.557C200.401 154.448 200.501 154.336 200.6 154.223C202.093 152.522 203.174 150.5 203.759 148.313C203.836 148.022 203.907 147.73 203.964 147.434C204.295 145.793 204.432 144.117 204.372 142.444V142.418" stroke="#171717" stroke-width="0.9621" stroke-linecap="round" stroke-linejoin="round"/>
<path d="M116.553 127.972C113.661 125.37 109.469 125.793 104.223 127.723C91.567 132.379 83.0779 142.19 73.498 151.682" stroke="#171717" stroke-width="0.9621" stroke-linecap="round" stroke-linejoin="round"/>
<path d="M103.851 168.912C108.993 164.04 113.008 158.651 115.614 152.066" stroke="#171717" stroke-width="0.9621" stroke-linecap="round" stroke-linejoin="round"/>
<path d="M27.5399 42.4941C27.3522 49.0485 28.8199 55.5444 31.807 61.3815" stroke="#171717" stroke-width="0.9621" stroke-linecap="round" stroke-linejoin="round"/>
<path d="M23.13 51.0867C22.772 52.7079 23.0318 54.4044 23.8584 55.8444" stroke="#171717" stroke-width="0.9621" stroke-linecap="round" stroke-linejoin="round"/>
<path d="M55.9707 54.0366C56.1546 52.1208 58.1673 50.5896 60.0627 50.9235" stroke="#171717" stroke-width="0.9621" stroke-linecap="round" stroke-linejoin="round"/>
<path d="M123.474 46.5618C122.979 46.0131 122.602 45.3687 122.366 44.6685C122.13 43.9683 122.04 43.2273 122.101 42.4911" stroke="#171717" stroke-width="0.9621" stroke-linecap="round" stroke-linejoin="round"/>
<path d="M90.26 115.395C90.1226 109.08 92.1425 102.908 95.9864 97.8964" stroke="#171717" stroke-width="0.9621" stroke-linecap="round" stroke-linejoin="round"/>
<path d="M134.562 80.3028V78.0387" stroke="#171717" stroke-width="0.9621" stroke-linecap="round" stroke-linejoin="round"/>
<path d="M137.506 79.8501V77.3601" stroke="#171717" stroke-width="0.9621" stroke-linecap="round" stroke-linejoin="round"/>
<path d="M140.452 79.3959C140.281 79.0431 140.192 78.6564 140.191 78.2643C140.19 77.8722 140.277 77.4852 140.447 77.1315" stroke="#171717" stroke-width="0.9621" stroke-linecap="round" stroke-linejoin="round"/>
<path d="M143.2 79.1735C143.265 78.4178 143.33 77.6621 143.395 76.9067" stroke="#171717" stroke-width="0.9621" stroke-linecap="round" stroke-linejoin="round"/>
<path d="M145.883 78.9445V76.6801" stroke="#171717" stroke-width="0.9621" stroke-linecap="round" stroke-linejoin="round"/>
<path d="M148.398 78.7158C148.332 77.9604 148.265 77.2047 148.199 76.4493" stroke="#171717" stroke-width="0.9621" stroke-linecap="round" stroke-linejoin="round"/>
<path d="M150.864 78.718V76.6801" stroke="#171717" stroke-width="0.9621" stroke-linecap="round" stroke-linejoin="round"/>
<path d="M152.942 78.4875C152.866 77.7327 152.791 76.9779 152.715 76.2234" stroke="#171717" stroke-width="0.9621" stroke-linecap="round" stroke-linejoin="round"/>
<path d="M152.539 123.163C149.751 117.87 146.048 113.113 141.6 109.112" stroke="#171717" stroke-width="0.9621" stroke-linecap="round" stroke-linejoin="round"/>
<path d="M150.159 124.845C147.211 119.719 143.661 114.963 139.583 110.679" stroke="#171717" stroke-width="0.9621" stroke-linecap="round" stroke-linejoin="round"/>
<path d="M123.083 154.442C142.383 149.294 161.822 144.71 181.401 140.69" stroke="#171717" stroke-width="0.9621" stroke-linecap="round" stroke-linejoin="round"/>
<path d="M191.848 130.105C197.695 132.603 203.174 135.886 208.135 139.863" stroke="#171717" stroke-width="0.9621" stroke-linecap="round" stroke-linejoin="round"/>
<path d="M191.783 127.122C198.013 128.998 203.871 131.938 209.097 135.814" stroke="#171717" stroke-width="0.9621" stroke-linecap="round" stroke-linejoin="round"/>
<path d="M93.7349 80.3043L97.3574 75.7758" stroke="#171717" stroke-width="0.9621" stroke-linecap="round" stroke-linejoin="round"/>
<path d="M97.0028 79.5946L94.2056 76.5115" stroke="#171717" stroke-width="0.9621" stroke-linecap="round" stroke-linejoin="round"/>
<path d="M162.958 19.4434L161.231 14.0305" stroke="#171717" stroke-width="0.9621" stroke-linecap="round" stroke-linejoin="round"/>
<path d="M159.388 17.7929C161.322 17.3751 163.175 16.6456 164.876 15.6329" stroke="#171717" stroke-width="0.9621" stroke-linecap="round" stroke-linejoin="round"/>
<path d="M180.264 36.9962C180.925 35.006 181.776 33.0839 182.805 31.2563" stroke="#171717" stroke-width="0.9621" stroke-linecap="round" stroke-linejoin="round"/>
<path d="M178.264 33.1974C180.308 33.9267 182.436 34.3935 184.598 34.587" stroke="#171717" stroke-width="0.9621" stroke-linecap="round" stroke-linejoin="round"/>
<path d="M214.929 113.358C215.229 108.961 214.468 104.555 212.711 100.513" stroke="#171717" stroke-width="0.9621" stroke-linecap="round" stroke-linejoin="round"/>
<path d="M134.787 236.222C140.182 233.485 144.808 229.444 148.246 224.468" stroke="#171717" stroke-width="0.9621" stroke-linecap="round" stroke-linejoin="round"/>
<path d="M209.217 266.708L202.007 253.707" stroke="#171717" stroke-width="0.9621" stroke-linecap="round" stroke-linejoin="round"/>
<path d="M249.817 251.486C248.779 252.237 247.917 253.205 247.292 254.324C246.667 255.442 246.294 256.684 246.198 257.962" stroke="#171717" stroke-width="0.9621" stroke-linecap="round" stroke-linejoin="round"/>
<path d="M253.891 251.33C252.957 252.18 252.234 253.236 251.779 254.414C251.324 255.592 251.149 256.859 251.269 258.117" stroke="#171717" stroke-width="0.9621" stroke-linecap="round" stroke-linejoin="round"/>
<path d="M258.706 250.26C257.347 252.25 256.753 254.665 257.035 257.058" stroke="#171717" stroke-width="0.9621" stroke-linecap="round" stroke-linejoin="round"/>
<path d="M78.7557 251.689C77.2728 250.997 75.9903 249.939 75.0291 248.614C74.0676 247.29 73.4589 245.743 73.2603 244.118" stroke="#171717" stroke-width="0.9621" stroke-linecap="round" stroke-linejoin="round"/>
<path d="M76.7035 254.666C75.427 254.119 74.2711 253.324 73.3033 252.328C72.3352 251.332 71.5741 250.155 71.0635 248.863" stroke="#171717" stroke-width="0.9621" stroke-linecap="round" stroke-linejoin="round"/>
<path d="M74.7526 257.575C73.5364 257.135 72.4342 256.429 71.5273 255.507C70.6204 254.585 69.9319 253.472 69.5122 252.248" stroke="#171717" stroke-width="0.9621" stroke-linecap="round" stroke-linejoin="round"/>
<path d="M43.2115 94.6149C42.3976 95.8095 40.7341 96.0684 39.2974 95.9103C37.8607 95.7522 36.4327 95.2899 34.9987 95.4711C32.176 95.8275 30.175 98.7024 29.9859 101.541C29.7969 104.38 31.0261 107.124 32.5147 109.548C34.0033 111.973 35.7874 114.238 36.9121 116.85C38.4649 120.497 38.6467 124.582 37.4242 128.353C36.6046 130.848 35.0734 133.228 32.7502 134.452C30.427 135.676 27.2427 135.447 25.5135 133.47C23.7843 131.494 24.3075 127.83 26.7417 126.845C28.7442 126.035 31.1518 127.269 32.1958 129.16C33.2398 131.05 33.1669 133.376 32.641 135.471C31.621 139.538 29.0754 143.034 26.4756 146.324C23.8758 149.614 21.1233 152.886 19.5597 156.777C17.9961 160.668 17.8197 165.393 20.2353 168.82" stroke="#171717" stroke-width="0.9621" stroke-linecap="round" stroke-linejoin="round"/>
<path d="M35.2879 175.067C34.6504 174.32 34.1731 173.45 33.8851 172.511C33.5971 171.572 33.5047 170.585 33.6136 169.609C33.7225 168.633 34.0303 167.69 34.5181 166.838C35.0059 165.986 35.6635 165.242 36.4498 164.654" stroke="#171717" stroke-width="0.9621" stroke-linecap="round" stroke-linejoin="round"/>
<path d="M249.426 104.894C243.779 108.074 240.403 114.249 238.761 120.517C237.519 125.257 237.164 130.527 239.462 134.854C241.76 139.181 247.401 141.96 251.79 139.783C253.254 139.056 254.51 137.773 254.878 136.178C255.246 134.584 254.548 132.718 253.073 132.014C250.938 130.996 248.467 132.674 247.073 134.587C245.613 136.591 244.654 139.027 244.735 141.504C244.829 144.347 246.259 146.979 247.955 149.262C249.652 151.544 251.651 153.605 253.163 156.014C254.675 158.423 255.685 161.321 255.113 164.106C254.54 166.892 251.993 169.379 249.158 169.15" stroke="#171717" stroke-width="0.9621" stroke-linecap="round" stroke-linejoin="round"/>
<path d="M90.967 88.7772C90.2989 87.2739 89.6308 85.7706 88.9624 84.2676" stroke="#171717" stroke-width="0.9621" stroke-linecap="round" stroke-linejoin="round"/>
<path d="M87.8369 87.8333L91.6154 85.7291" stroke="#171717" stroke-width="0.9621" stroke-linecap="round" stroke-linejoin="round"/>
<path d="M203.46 126.03L206.317 123.302" stroke="#171717" stroke-width="0.9621" stroke-linecap="round" stroke-linejoin="round"/>
<path d="M197.58 118.34L194.712 115.774" stroke="#171717" stroke-width="0.9621" stroke-linecap="round" stroke-linejoin="round"/>
<path d="M199.09 108.227C199.878 107.459 200.496 106.533 200.901 105.51" stroke="#171717" stroke-width="0.9621" stroke-linecap="round" stroke-linejoin="round"/>
<path d="M189.417 101.903L186.57 99.6125" stroke="#171717" stroke-width="0.9621" stroke-linecap="round" stroke-linejoin="round"/>
<path d="M180.375 89.8134L181.886 87.0972" stroke="#171717" stroke-width="0.9621" stroke-linecap="round" stroke-linejoin="round"/>
<path d="M171.015 89.8121C170.071 89.0297 168.998 88.4168 167.845 88.0007" stroke="#171717" stroke-width="0.9621" stroke-linecap="round" stroke-linejoin="round"/>
<path d="M159.694 83.3218L161.052 80.7559" stroke="#171717" stroke-width="0.9621" stroke-linecap="round" stroke-linejoin="round"/>
<path d="M148.977 92.529C148.363 91.8054 147.588 91.2366 146.713 90.8685" stroke="#171717" stroke-width="0.9621" stroke-linecap="round" stroke-linejoin="round"/>
<path d="M169.05 112.149L170.862 109.584" stroke="#171717" stroke-width="0.9621" stroke-linecap="round" stroke-linejoin="round"/>
<path d="M165.111 136.788L162.395 135.429" stroke="#171717" stroke-width="0.9621" stroke-linecap="round" stroke-linejoin="round"/>
<path d="M153.549 133.617L155.472 131.022" stroke="#171717" stroke-width="0.9621" stroke-linecap="round" stroke-linejoin="round"/>
<path d="M147.946 143.061L144.927 140.797" stroke="#171717" stroke-width="0.9621" stroke-linecap="round" stroke-linejoin="round"/>
<path d="M133.572 145.503L135.076 143.236" stroke="#171717" stroke-width="0.9621" stroke-linecap="round" stroke-linejoin="round"/>
<path d="M141.294 126.196L142.503 123.782" stroke="#171717" stroke-width="0.9621" stroke-linecap="round" stroke-linejoin="round"/>
<path d="M134.786 122.574L132.219 121.67" stroke="#171717" stroke-width="0.9621" stroke-linecap="round" stroke-linejoin="round"/>
<path d="M127.311 137.226L128.301 133.435" stroke="#171717" stroke-width="0.9621" stroke-linecap="round" stroke-linejoin="round"/>
<path d="M113.655 140.23C112.849 139.703 111.902 139.434 110.939 139.461" stroke="#171717" stroke-width="0.9621" stroke-linecap="round" stroke-linejoin="round"/>
<path d="M107.49 133.897L108.507 131.465" stroke="#171717" stroke-width="0.9621" stroke-linecap="round" stroke-linejoin="round"/>
<path d="M112.017 119.66L109.312 118.277" stroke="#171717" stroke-width="0.9621" stroke-linecap="round" stroke-linejoin="round"/>
<path d="M107.199 150.8L108 147.604" stroke="#171717" stroke-width="0.9621" stroke-linecap="round" stroke-linejoin="round"/>
<path d="M101.712 117.578L103.062 114.102" stroke="#171717" stroke-width="0.9621" stroke-linecap="round" stroke-linejoin="round"/>
<path d="M117.582 101.888L115.016 99.6234" stroke="#171717" stroke-width="0.9621" stroke-linecap="round" stroke-linejoin="round"/>
<path d="M108.374 96.6045L110.336 94.0386" stroke="#171717" stroke-width="0.9621" stroke-linecap="round" stroke-linejoin="round"/>
<path d="M129.15 99.3972L126.65 97.6428" stroke="#171717" stroke-width="0.9621" stroke-linecap="round" stroke-linejoin="round"/>
<path d="M135.699 107.468L133.285 105.202" stroke="#171717" stroke-width="0.9621" stroke-linecap="round" stroke-linejoin="round"/>
<path d="M129.038 114.41L129.945 112.146" stroke="#171717" stroke-width="0.9621" stroke-linecap="round" stroke-linejoin="round"/>
<path d="M159.09 92.529C158.279 91.9887 157.606 91.2648 157.127 90.4158" stroke="#171717" stroke-width="0.9621" stroke-linecap="round" stroke-linejoin="round"/>
<path d="M148.809 85.4124C149.839 84.585 150.765 83.6349 151.565 82.5834" stroke="#171717" stroke-width="0.9621" stroke-linecap="round" stroke-linejoin="round"/>
<path d="M119.513 93.7146L121.334 91.1559" stroke="#171717" stroke-width="0.9621" stroke-linecap="round" stroke-linejoin="round"/>
<path d="M152.892 170.784C151.658 170.419 150.352 171.437 149.952 172.661C149.552 173.884 149.824 175.217 150.152 176.462C150.479 177.706 150.866 178.984 150.685 180.258C150.504 181.532 149.561 182.808 148.277 182.886" stroke="url(#paint8_linear_28_12846)" stroke-width="0.9621" stroke-linecap="round" stroke-linejoin="round"/>
<path d="M188.19 177.335C187.036 178.348 187.422 180.32 188.448 181.463C189.474 182.605 190.941 183.236 192.156 184.175C193.371 185.114 194.394 186.65 193.931 188.115" stroke="url(#paint9_linear_28_12846)" stroke-width="0.9621" stroke-linecap="round" stroke-linejoin="round"/>
<path d="M142.812 206.268C141.951 205.411 140.382 205.978 139.711 206.99C139.041 208.003 138.942 209.275 138.619 210.446C138.295 211.617 137.558 212.851 136.359 213.048" stroke="url(#paint10_linear_28_12846)" stroke-width="0.9621" stroke-linecap="round" stroke-linejoin="round"/>
<path d="M118.436 208.36C117.286 207.536 115.628 208.032 114.536 208.93C113.444 209.827 112.67 211.064 111.582 211.968C110.494 212.872 108.845 213.385 107.682 212.579" stroke="url(#paint11_linear_28_12846)" stroke-width="0.9621" stroke-linecap="round" stroke-linejoin="round"/>
<path d="M120.225 233.155C120.079 232.274 118.743 232.155 118.062 232.732C117.382 233.309 117.125 234.228 116.685 235.004C116.244 235.78 115.369 236.495 114.532 236.186" stroke="url(#paint12_linear_28_12846)" stroke-width="0.9621" stroke-linecap="round" stroke-linejoin="round"/>
<path d="M101.862 228.84C101.353 228.383 100.781 228 100.165 227.703C99.8553 227.556 99.5184 227.476 99.1758 227.468C98.8332 227.46 98.493 227.524 98.1768 227.656C97.3338 228.062 96.9468 229.022 96.3717 229.761C95.7444 230.53 94.8846 231.076 93.921 231.315C92.9577 231.555 91.9425 231.475 91.0278 231.089" stroke="url(#paint13_linear_28_12846)" stroke-width="0.9621" stroke-linecap="round" stroke-linejoin="round"/>
<path d="M138.242 182.683C137.444 182.37 136.632 183.247 136.513 184.096C136.393 184.946 136.667 185.811 136.573 186.664C136.479 187.516 135.742 188.434 134.917 188.195" stroke="url(#paint14_linear_28_12846)" stroke-width="0.9621" stroke-linecap="round" stroke-linejoin="round"/>
<path d="M188.327 197.235C188.034 197.533 187.814 197.894 187.684 198.291C187.555 198.688 187.519 199.11 187.58 199.524C187.64 199.937 187.796 200.33 188.035 200.673C188.274 201.016 188.589 201.299 188.956 201.499C189.44 201.718 189.939 201.903 190.448 202.055C190.963 202.211 191.396 202.561 191.658 203.03C191.878 203.515 191.695 204.2 191.188 204.36" stroke="url(#paint15_linear_28_12846)" stroke-width="0.9621" stroke-linecap="round" stroke-linejoin="round"/>
<path d="M211.046 205.792C210.67 206.023 210.36 206.346 210.144 206.732C209.929 207.117 209.816 207.551 209.817 207.992C209.817 208.433 209.931 208.867 210.148 209.252C210.364 209.636 210.676 209.959 211.052 210.189C212.035 210.789 213.358 210.699 214.251 211.426C214.526 211.65 214.742 211.938 214.878 212.265C215.015 212.592 215.068 212.948 215.033 213.301C214.999 213.654 214.877 213.993 214.68 214.287C214.483 214.581 214.215 214.823 213.902 214.988" stroke="url(#paint16_linear_28_12846)" stroke-width="0.9621" stroke-linecap="round" stroke-linejoin="round"/>
<path d="M212.836 232.026C212.496 232.294 212.227 232.641 212.05 233.036C211.874 233.431 211.796 233.863 211.823 234.295C211.85 234.727 211.981 235.146 212.206 235.516C212.43 235.886 212.74 236.196 213.111 236.42C213.765 236.815 214.551 236.912 215.282 237.13C216.013 237.348 216.773 237.762 217.024 238.483C217.116 238.824 217.116 239.183 217.026 239.524C216.935 239.865 216.757 240.177 216.509 240.427C216.006 240.922 215.42 241.324 214.777 241.613" stroke="url(#paint17_linear_28_12846)" stroke-width="0.9621" stroke-linecap="round" stroke-linejoin="round"/>
<path d="M234.065 236.957C233.536 237.667 233.195 238.5 233.073 239.377C233.018 239.816 233.076 240.262 233.242 240.672C233.409 241.081 233.678 241.441 234.024 241.717C234.785 242.254 235.869 242.234 236.541 242.878C236.767 243.094 236.927 243.37 237.003 243.673C237.078 243.977 237.066 244.295 236.967 244.592C236.869 244.889 236.688 245.152 236.447 245.35C236.205 245.548 235.912 245.674 235.602 245.712" stroke="url(#paint18_linear_28_12846)" stroke-width="0.9621" stroke-linecap="round" stroke-linejoin="round"/>
<path d="M166.775 156.478C165.841 156.675 165.445 157.902 165.785 158.794C166.125 159.685 166.95 160.288 167.758 160.796C168.566 161.303 169.432 161.797 169.95 162.598C170.468 163.399 170.487 164.621 169.715 165.181" stroke="url(#paint19_linear_28_12846)" stroke-width="0.9621" stroke-linecap="round" stroke-linejoin="round"/>
<path d="M141.625 158.963C140.978 158.556 140.069 159.073 139.804 159.789C139.539 160.505 139.73 161.303 139.957 162.032C140.184 162.761 140.45 163.517 140.324 164.271C140.199 165.024 139.514 165.748 138.764 165.609" stroke="url(#paint20_linear_28_12846)" stroke-width="0.9621" stroke-linecap="round" stroke-linejoin="round"/>
<path d="M184.078 19.0473L184.691 22.2102C184.709 22.3056 184.698 22.4045 184.658 22.4934C184.619 22.5823 184.553 22.657 184.47 22.7074C184.387 22.7578 184.291 22.7816 184.193 22.7755C184.097 22.7693 184.004 22.7336 183.928 22.6731L181.406 20.67C181.332 20.6114 181.243 20.5761 181.149 20.5683C181.055 20.5605 180.961 20.5806 180.879 20.6262L178.061 22.1862C177.975 22.2333 177.878 22.2533 177.781 22.2433C177.684 22.2334 177.593 22.194 177.519 22.1305C177.446 22.067 177.393 21.9824 177.369 21.8882C177.345 21.794 177.35 21.6946 177.385 21.6036L178.512 18.5856C178.545 18.4976 178.551 18.4018 178.529 18.3103C178.508 18.2188 178.46 18.1357 178.392 18.0714L176.037 15.873C175.965 15.8066 175.916 15.7201 175.896 15.625C175.875 15.5299 175.885 15.4308 175.922 15.3411C175.96 15.2514 176.024 15.1754 176.106 15.1234C176.189 15.0713 176.285 15.0457 176.382 15.0501L179.601 15.1896C179.694 15.1933 179.787 15.1693 179.867 15.1206C179.947 15.0718 180.011 15.0006 180.051 14.9157L181.414 11.9967C181.455 11.9086 181.522 11.8352 181.606 11.7864C181.691 11.7377 181.787 11.7159 181.884 11.7239C181.981 11.732 182.073 11.7696 182.148 11.8316C182.223 11.8936 182.277 11.9771 182.303 12.0708L183.165 15.1749C183.191 15.2655 183.242 15.3466 183.313 15.408C183.384 15.4694 183.472 15.5083 183.566 15.5199L186.763 15.9144C186.86 15.926 186.95 15.9671 187.023 16.0321C187.096 16.0971 187.147 16.1829 187.169 16.2778C187.192 16.3728 187.184 16.4723 187.148 16.5629C187.112 16.6535 187.049 16.7308 186.968 16.7844L184.282 18.5634C184.204 18.615 184.143 18.6885 184.107 18.7745C184.07 18.8606 184.06 18.9555 184.078 19.0473Z" fill="#171717"/>
<g opacity="0.1">
<path d="M125.106 35.2983C125.128 36.1704 125.303 37.032 125.621 37.8441C125.738 38.1669 125.861 38.4879 125.983 38.8092C126.052 38.9937 126.396 39.7026 126.398 39.7368C126.539 41.5917 128.262 42.9318 130.08 42.1668C130.477 41.9961 130.827 41.7312 131.099 41.3952C131.371 41.0592 131.557 40.662 131.642 40.2378C131.726 39.8136 131.706 39.3753 131.583 38.961C131.46 38.5464 131.237 38.1681 130.936 37.8585C130.768 37.5516 130.624 37.2327 130.505 36.9039C130.352 36.5958 130.203 36.2859 130.047 35.9796C129.677 35.1957 129.175 34.4814 128.563 33.8676C127.318 32.676 125.085 33.5097 125.106 35.2995V35.2983Z" fill="#171717"/>
</g>
<g opacity="0.1">
<path d="M133.624 46.2708C131.236 47.7753 131.258 51.8808 131.293 54.357C131.34 57.7506 131.947 61.1184 132.661 64.4265C133.295 67.3665 133.802 70.2036 133.812 73.2204C133.846 74.3601 133.635 75.4938 133.195 76.5453C132.608 77.8488 131.401 78.7032 131.024 80.0892C130.531 81.8997 132.184 83.3019 133.895 82.9608C136.72 82.3971 138.272 78.2016 138.928 75.7512C139.819 72.4212 139.524 69.2412 138.879 65.8884C138.237 62.5482 137.507 59.2545 137.03 55.8831C136.778 54.1083 136.652 52.3038 136.332 50.5407C136.08 49.1514 135.672 47.2971 134.51 46.3851C134.393 46.2747 134.245 46.2045 134.086 46.1838C133.926 46.1634 133.765 46.1937 133.624 46.2708Z" fill="#171717"/>
</g>
<g opacity="0.1">
<path d="M121.096 83.7168C118.583 83.5392 116.146 84.8388 114.008 86.0805C111.903 87.3264 109.952 88.815 108.195 90.5157C104.365 94.1757 101.611 98.6676 99.6923 103.581C95.4191 114.524 96.2819 126.827 98.9243 138.043C100.263 143.727 101.644 150.477 106.244 154.501C107.359 155.477 108.881 155.765 110.207 155.011C118.222 150.523 125.929 145.504 133.275 139.987C140.616 134.41 147.855 128.395 154.125 121.613C156.777 118.744 152.672 114.612 149.829 117.318C143.352 123.481 136.858 129.521 129.684 134.884C122.49 140.31 114.874 145.152 106.908 149.364L110.87 149.874C107.648 146.859 106.756 142.08 105.727 137.97C104.418 132.739 103.43 127.407 103.243 122.01C102.926 112.838 104.923 103.058 110.938 95.8554C112.438 94.0209 114.17 92.3889 116.091 91.0002C118.158 89.5401 120.551 88.6368 122.448 86.9826C123.794 85.809 122.62 83.8254 121.096 83.7177V83.7168Z" fill="#171717"/>
</g>
<g opacity="0.1">
<path d="M116.122 112.89C114.975 114.52 115.022 116.874 114.9 118.786C114.772 120.802 114.552 122.849 114.595 124.869C114.669 128.374 119.519 128.186 119.91 124.869C120.147 122.862 120.127 120.805 120.194 118.786C120.259 116.843 120.446 114.635 119.449 112.89C118.684 111.55 116.929 111.746 116.122 112.89Z" fill="#171717"/>
</g>
<g opacity="0.1">
<path d="M123.462 145.864C120.865 147.817 121.997 152.078 122.224 154.908C122.35 156.49 123.484 157.848 125.164 157.848C126.621 157.848 128.273 156.498 128.104 154.908C127.925 153.249 127.786 151.578 127.538 149.928C127.31 148.405 127.023 146.605 125.495 145.864C124.895 145.572 124.052 145.421 123.464 145.864L123.462 145.864Z" fill="#171717"/>
</g>
<g opacity="0.1">
<path d="M69.6243 145.161C67.9569 145.248 66.9444 146.174 65.6784 147.161C64.5732 148.021 63.4884 148.897 62.4192 149.803C60.0624 151.801 57.7071 153.801 55.353 155.803C50.7297 159.76 46.1148 163.716 41.3889 167.551C40.0611 168.629 40.2687 170.905 41.3889 172.025C41.9883 172.607 42.7911 172.932 43.6263 172.932C44.4615 172.932 45.264 172.607 45.8637 172.025C50.1792 167.902 54.5982 163.9 59.0208 159.892C61.2318 157.889 63.4353 155.877 65.631 153.857C66.6594 152.916 67.677 151.973 68.6652 150.99C69.7569 149.903 71.0016 148.942 71.292 147.35C71.4819 146.311 70.8333 145.098 69.6243 145.16V145.161Z" fill="#171717"/>
</g>
</g>
</g>
</g>
<defs>
<linearGradient id="paint0_linear_28_12846" x1="87.4918" y1="148.816" x2="87.4918" y2="177.744" gradientUnits="userSpaceOnUse">
<stop stop-color="#FF9A34"/>
<stop offset="1" stop-color="#EB6421"/>
</linearGradient>
<linearGradient id="paint1_linear_28_12846" x1="170.288" y1="74.3907" x2="170.288" y2="144.014" gradientUnits="userSpaceOnUse">
<stop stop-color="#FF9A34"/>
<stop offset="1" stop-color="#EB6421"/>
</linearGradient>
<linearGradient id="paint2_linear_28_12846" x1="137.968" y1="26.3594" x2="137.968" y2="44.2989" gradientUnits="userSpaceOnUse">
<stop stop-color="#FF9A34"/>
<stop offset="1" stop-color="#EB6421"/>
</linearGradient>
<linearGradient id="paint3_linear_28_12846" x1="151.515" y1="29.6177" x2="151.515" y2="39.7245" gradientUnits="userSpaceOnUse">
<stop stop-color="#FF9A34"/>
<stop offset="1" stop-color="#EB6421"/>
</linearGradient>
<linearGradient id="paint4_linear_28_12846" x1="152.175" y1="115.743" x2="152.175" y2="157.348" gradientUnits="userSpaceOnUse">
<stop stop-color="#FF9A34"/>
<stop offset="1" stop-color="#EB6421"/>
</linearGradient>
<linearGradient id="paint5_linear_28_12846" x1="125.667" y1="83.9364" x2="125.667" y2="154.996" gradientUnits="userSpaceOnUse">
<stop stop-color="#FF9A34"/>
<stop offset="1" stop-color="#EB6421"/>
</linearGradient>
<linearGradient id="paint6_linear_28_12846" x1="85.6614" y1="168.162" x2="85.6614" y2="193.508" gradientUnits="userSpaceOnUse">
<stop stop-color="#FF9A34"/>
<stop offset="1" stop-color="#EB6421"/>
</linearGradient>
<linearGradient id="paint7_linear_28_12846" x1="41.7521" y1="39.4125" x2="41.7521" y2="71.8245" gradientUnits="userSpaceOnUse">
<stop stop-color="#FF9A34"/>
<stop offset="1" stop-color="#EB6421"/>
</linearGradient>
<linearGradient id="paint8_linear_28_12846" x1="150.584" y1="170.709" x2="150.584" y2="182.886" gradientUnits="userSpaceOnUse">
<stop stop-color="#FF9A34"/>
<stop offset="1" stop-color="#EB6421"/>
</linearGradient>
<linearGradient id="paint9_linear_28_12846" x1="190.764" y1="177.335" x2="190.764" y2="188.115" gradientUnits="userSpaceOnUse">
<stop stop-color="#FF9A34"/>
<stop offset="1" stop-color="#EB6421"/>
</linearGradient>
<linearGradient id="paint10_linear_28_12846" x1="139.586" y1="205.849" x2="139.586" y2="213.048" gradientUnits="userSpaceOnUse">
<stop stop-color="#FF9A34"/>
<stop offset="1" stop-color="#EB6421"/>
</linearGradient>
<linearGradient id="paint11_linear_28_12846" x1="113.059" y1="207.94" x2="113.059" y2="212.981" gradientUnits="userSpaceOnUse">
<stop stop-color="#FF9A34"/>
<stop offset="1" stop-color="#EB6421"/>
</linearGradient>
<linearGradient id="paint12_linear_28_12846" x1="117.378" y1="232.378" x2="117.378" y2="236.26" gradientUnits="userSpaceOnUse">
<stop stop-color="#FF9A34"/>
<stop offset="1" stop-color="#EB6421"/>
</linearGradient>
<linearGradient id="paint13_linear_28_12846" x1="96.4449" y1="227.467" x2="96.4449" y2="231.451" gradientUnits="userSpaceOnUse">
<stop stop-color="#FF9A34"/>
<stop offset="1" stop-color="#EB6421"/>
</linearGradient>
<linearGradient id="paint14_linear_28_12846" x1="136.58" y1="182.618" x2="136.58" y2="188.233" gradientUnits="userSpaceOnUse">
<stop stop-color="#FF9A34"/>
<stop offset="1" stop-color="#EB6421"/>
</linearGradient>
<linearGradient id="paint15_linear_28_12846" x1="189.65" y1="197.235" x2="189.65" y2="204.36" gradientUnits="userSpaceOnUse">
<stop stop-color="#FF9A34"/>
<stop offset="1" stop-color="#EB6421"/>
</linearGradient>
<linearGradient id="paint16_linear_28_12846" x1="212.43" y1="205.792" x2="212.43" y2="214.988" gradientUnits="userSpaceOnUse">
<stop stop-color="#FF9A34"/>
<stop offset="1" stop-color="#EB6421"/>
</linearGradient>
<linearGradient id="paint17_linear_28_12846" x1="214.456" y1="232.026" x2="214.456" y2="241.613" gradientUnits="userSpaceOnUse">
<stop stop-color="#FF9A34"/>
<stop offset="1" stop-color="#EB6421"/>
</linearGradient>
<linearGradient id="paint18_linear_28_12846" x1="235.052" y1="236.957" x2="235.052" y2="245.712" gradientUnits="userSpaceOnUse">
<stop stop-color="#FF9A34"/>
<stop offset="1" stop-color="#EB6421"/>
</linearGradient>
<linearGradient id="paint19_linear_28_12846" x1="167.992" y1="156.478" x2="167.992" y2="165.181" gradientUnits="userSpaceOnUse">
<stop stop-color="#FF9A34"/>
<stop offset="1" stop-color="#EB6421"/>
</linearGradient>
<linearGradient id="paint20_linear_28_12846" x1="140.194" y1="158.819" x2="140.194" y2="165.626" gradientUnits="userSpaceOnUse">
<stop stop-color="#FF9A34"/>
<stop offset="1" stop-color="#EB6421"/>
</linearGradient>
<clipPath id="clip0_28_12846">
<rect width="288" height="288" fill="white"/>
</clipPath>
</defs>
</svg>
