<svg width="288" height="288" viewBox="0 0 288 288" fill="none" xmlns="http://www.w3.org/2000/svg">
<mask id="mask0_28_12852" style="mask-type:luminance" maskUnits="userSpaceOnUse" x="11" y="55" width="266" height="178">
<path d="M276.6 55.5H11.3999V232.5H276.6V55.5Z" fill="white"/>
</mask>
<g mask="url(#mask0_28_12852)">
<path fill-rule="evenodd" clip-rule="evenodd" d="M209.543 179.829C209.543 179.829 259.505 179.697 259.238 205.078C258.97 230.46 214.513 231.807 207.933 226.702C207.164 226.094 206.475 225.391 205.884 224.61C202.927 220.779 201.459 214.806 201.584 210.45C201.597 210.011 201.627 209.589 201.674 209.186L201.578 209.176C201.578 209.176 195.576 203.603 193.695 205.213C191.815 206.824 197.055 211.258 197.055 211.258C197.055 211.258 181.207 210.183 181.071 212.869C180.966 214.948 190.597 215.337 194.956 215.403C191.65 215.413 185.335 215.591 182.754 216.759C182.038 217.082 181.609 217.479 181.609 217.973C181.609 220.452 193.719 220 197.61 219.788C194.779 219.976 187.615 220.57 184.117 221.969L184.038 221.781H169.88L168.715 200.781C168.715 200.781 150.019 200.241 142.792 194.871C129.679 185.134 126.339 161.593 126.138 156.676C126.078 155.198 128.2 154.334 131.2 153.845C134.909 153.241 139.954 153.218 143.868 153.324C147.329 153.42 149.91 153.621 149.91 153.621C149.91 153.621 152.932 172.443 157.565 176.809C162.198 181.174 189.398 180.949 189.398 180.949H189.801V177.278C189.801 174.391 192.015 174.994 192.015 174.994C192.015 174.994 193.826 175.031 196.232 175.08C196.819 175.092 197.44 175.105 198.08 175.118L198.081 175.119C201.421 175.188 205.242 175.267 207.042 175.311C207.326 175.318 207.557 175.324 207.732 175.331C210.081 175.397 209.408 177.011 209.408 177.011V179.829L209.543 179.829ZM211.351 182.224C211.365 181.976 211.577 181.787 211.825 181.801C219.803 182.252 231.544 184.035 240.827 187.933C245.467 189.88 249.532 192.373 252.196 195.527C254.877 198.699 256.132 202.535 255.14 207.096C255.087 207.339 254.847 207.493 254.604 207.44C254.361 207.387 254.207 207.147 254.26 206.904C255.187 202.645 254.028 199.09 251.509 196.108C248.974 193.108 245.056 190.684 240.478 188.762C231.326 184.92 219.697 183.148 211.774 182.699C211.526 182.685 211.337 182.473 211.351 182.224ZM147.75 156.013C147.757 155.765 147.562 155.558 147.313 155.55C147.065 155.543 146.858 155.738 146.85 155.986C146.673 161.882 148.255 170.383 153.621 176.695C159.017 183.043 168.168 187.097 182.937 184.192C183.181 184.144 183.34 183.907 183.292 183.663C183.244 183.419 183.007 183.26 182.763 183.308C168.252 186.163 159.453 182.167 154.307 176.112C149.13 170.023 147.577 161.768 147.75 156.013Z" fill="var(--illustration-currentColor)"/>
<path fill-rule="evenodd" clip-rule="evenodd" d="M96.5093 208.416C96.6566 208.422 96.806 208.428 96.9584 208.434L96.3014 216.43C99.2975 216.404 101.871 216.7 101.871 217.78C101.871 219.632 95.1695 220.09 91.3814 220.202C94.9451 220.219 101.013 220.523 101.013 222.39C101.013 223.572 98.2898 224.153 95.2835 224.43C95.5139 224.506 120.371 232.604 130.623 221.78C133.521 218.721 135.25 214.151 134.926 207.459C134.108 190.584 118.902 186.179 105.492 185.612C100.614 185.434 95.7302 185.652 90.8876 186.265C90.8876 186.265 93.6992 198.608 80.7839 200.761C67.8686 202.913 71.0957 187.373 71.0957 187.373C65.4086 187.727 59.7602 188.546 54.2075 189.825C42.1403 192.703 29.5385 198.712 29.8616 211.267C29.8986 214.871 31.1432 218.357 33.3959 221.17C40.9655 230.65 58.9361 232.475 69.8582 231.93C70.8578 224.803 71.2496 217.603 71.0297 210.409C71.3567 210.419 71.6807 210.429 72.0008 210.438C72.5291 210.454 73.0463 210.469 73.5497 210.485V210.482C73.5497 210.482 70.2011 210.381 70.4744 207.992C70.7477 205.603 82.2677 208.434 82.2677 208.434C82.2677 208.434 79.2587 206.068 81.0206 204.511C82.7825 202.953 87.686 208.434 87.686 208.434L87.7388 207.88C87.7388 207.88 88.9664 208.094 94.8695 208.348C95.3807 208.372 95.9255 208.394 96.5093 208.416ZM100.965 187.35C100.717 187.342 100.509 187.537 100.5 187.785C100.492 188.033 100.687 188.241 100.935 188.25C106.118 188.423 113.673 189.66 119.916 192.35C126.19 195.052 130.95 199.13 130.95 204.9C130.95 205.148 131.152 205.35 131.4 205.35C131.649 205.35 131.85 205.148 131.85 204.9C131.85 198.55 126.61 194.253 120.272 191.523C113.903 188.78 106.232 187.527 100.965 187.35Z" fill="url(#paint0_linear_28_12852)"/>
<path fill-rule="evenodd" clip-rule="evenodd" d="M85.526 161.419C87.5552 159.907 86.8028 157.237 86.7599 157.087C86.8674 157.205 88.5299 159.017 90.7377 158.269C91.7475 157.926 92.2457 156.91 92.4899 155.88C99.4973 171.111 88.9169 180.768 85.2812 184.086C84.7103 184.607 84.3107 184.972 84.1772 185.177C83.1938 186.692 85.0352 187.183 85.0352 187.183C85.0352 187.183 86.4737 186.88 88.8596 186.536C89.4767 186.448 90.1533 186.356 90.8889 186.266C95.7314 185.654 100.616 185.436 105.494 185.613L105.497 185.544C106.345 185.2 107.073 184.612 107.587 183.854C108.101 183.096 108.378 182.203 108.384 181.287C108.447 178.03 103.9 177.661 103.9 177.661C105.267 176.933 106.391 175.82 107.134 174.461C107.876 173.102 108.204 171.554 108.077 170.011C107.708 164.51 101.504 164.942 101.504 164.942C101.504 164.942 105.56 158.365 105.19 153.697C104.821 149.028 99.1682 150.258 99.1682 150.258C99.1682 150.258 96.9557 141.963 91.1463 140.857C85.3368 139.752 83.7362 144.114 83.7362 144.114C83.7362 144.114 82.2743 138.648 73.8566 140.735C65.4389 142.823 68.3264 151.793 68.3264 151.793C68.3264 151.793 62.552 151.179 59.9087 154.129C57.2654 157.079 60.9512 164.942 60.9512 164.942C60.9512 164.942 56.0348 166.909 54.1934 171.532C52.352 176.155 56.4668 180.732 56.4668 180.732C55.6136 181.005 54.8333 181.467 54.1838 182.084C53.5346 182.702 53.033 183.457 52.7168 184.295C51.6113 187.183 54.2084 189.826 54.2084 189.826C59.7611 188.547 65.4095 187.727 71.0966 187.374C71.6735 187.334 72.2048 187.305 72.6866 187.282C74.5739 187.186 75.6959 187.183 75.6959 187.183C75.6959 187.183 75.983 187.885 76.9664 186.265C77.9 184.728 76.2503 168.74 76.0787 167.123C77.318 167.153 79.118 166.935 80.078 165.599C81.6356 163.429 80.804 161.789 80.804 161.789C80.804 161.789 83.4371 162.977 85.526 161.419ZM86.2448 145.84C87.5087 144.743 89.5598 143.778 91.6508 144.294C93.7166 144.805 96.0119 146.813 97.6706 152.085L97.7867 152.454L98.1695 152.395C98.9285 152.276 99.7874 152.264 100.564 152.436C101.34 152.609 101.997 152.957 102.417 153.529C102.833 154.095 103.067 154.949 102.864 156.239C102.66 157.538 102.017 159.248 100.712 161.472C100.586 161.687 100.658 161.963 100.872 162.088C101.087 162.214 101.362 162.142 101.488 161.928C102.823 159.652 103.525 157.831 103.753 156.379C103.983 154.92 103.737 153.805 103.143 152.996C102.553 152.193 101.67 151.76 100.759 151.558C99.9827 151.385 99.1598 151.373 98.4131 151.455C96.7172 146.301 94.3169 144.026 91.8665 143.421C89.3849 142.807 87.0413 143.957 85.655 145.16C85.4672 145.323 85.4471 145.607 85.61 145.795C85.7729 145.983 86.0573 146.003 86.2448 145.84Z" fill="var(--illustration-currentColor)"/>
<path d="M210.768 157.826C210.989 158.139 213.288 161.538 211.626 163.779C209.88 166.131 208.468 161.495 208.468 161.495L207.91 161.475C208.134 154.755 207.943 147.669 206.254 146.385C204.168 144.801 195.209 143.478 188.293 142.379C184.059 141.706 180.591 141.119 179.928 140.609C178.182 139.266 177.041 138.194 177.513 136.782C177.984 135.37 183.218 135.775 187.383 138.462C191.547 141.148 180.13 133.426 184.093 131.344C188.003 129.292 192.57 135.733 192.692 135.908C192.606 135.726 189.155 128.513 191.21 127.652C193.293 126.777 196.784 135.238 196.784 135.238C196.784 135.238 196.671 129.262 199.651 130.133C202.631 131.004 202.09 137.723 202.09 137.723C202.09 137.723 210.686 138.125 211.761 142.356C212.837 146.587 212.029 154.446 212.029 154.446C212.029 154.446 217.064 158.138 215.79 160.488C214.563 162.746 211.048 158.192 210.768 157.826Z" fill="var(--illustration-currentColor)"/>
<path d="M153.342 91.2264C153.718 91.383 154.06 91.6122 154.348 91.9008C154.636 92.1897 154.864 92.5323 155.019 92.9091C155.175 93.2862 155.254 93.69 155.253 94.0977C155.253 94.5054 155.172 94.9089 155.015 95.2851L151.642 103.376L139.219 98.0736L142.126 91.0944L142.546 90.0915C142.703 89.715 142.932 89.373 143.221 89.085C143.51 88.797 143.853 88.569 144.23 88.4136C144.608 88.2582 145.012 88.1787 145.42 88.1796C145.827 88.1802 146.231 88.2615 146.608 88.4184L153.342 91.2264Z" fill="url(#paint1_linear_28_12852)"/>
<path d="M151.642 103.376L147 114.523C146.682 115.283 146.076 115.885 145.314 116.198C144.553 116.512 143.698 116.51 142.938 116.193L136.203 113.388C135.826 113.231 135.484 113.001 135.196 112.712C134.908 112.424 134.68 112.081 134.525 111.703C134.37 111.326 134.29 110.922 134.291 110.514C134.292 110.106 134.373 109.702 134.53 109.326L139.219 98.0736L151.642 103.376Z" fill="var(--illustration-currentColor)"/>
<path d="M109.412 115.849C109.62 116.646 109.504 117.493 109.088 118.204C108.672 118.915 107.991 119.432 107.195 119.641L100.136 121.489C99.7418 121.592 99.3305 121.617 98.9264 121.561C98.5223 121.506 98.1332 121.371 97.781 121.165C97.4291 120.959 97.121 120.686 96.8744 120.361C96.6281 120.036 96.4481 119.666 96.3449 119.271L93.2549 107.481L106.352 104.168L109.412 115.849Z" fill="var(--illustration-currentColor)"/>
<path d="M104.132 95.691L106.352 104.168L93.2549 107.481L91.3376 100.166L91.0604 99.1155C90.8516 98.3187 90.968 97.4718 91.3841 96.7605C91.7999 96.0495 92.4812 95.5329 93.278 95.3241L100.339 93.4731C100.734 93.3696 101.145 93.3447 101.55 93.4002C101.954 93.4557 102.343 93.5901 102.695 93.7962C103.047 94.0023 103.356 94.2756 103.602 94.6008C103.848 94.9257 104.028 95.2965 104.132 95.691Z" fill="url(#paint2_linear_28_12852)"/>
<path d="M94.8694 208.35L94.8661 208.436L94.5331 216.477C90.8602 216.632 87.1831 217.107 87.1831 217.107C87.1831 217.107 92.5915 212.131 90.562 210.904C89.842 210.465 88.6318 210.93 87.3712 211.712L87.6847 208.436L87.7375 207.881C87.7375 207.881 88.9663 208.094 94.8694 208.35Z" fill="url(#paint3_linear_28_12852)"/>
<path d="M88.8576 186.537C88.8576 186.537 89.9499 196.892 80.9184 198.489C71.8869 200.086 72.6855 187.283 72.6855 187.283C74.5728 187.187 75.6948 187.184 75.6948 187.184C75.6948 187.184 77.1699 193.678 81.1032 193.196C85.0365 192.714 85.0332 187.184 85.0332 187.184C85.0332 187.184 86.4717 186.88 88.8576 186.537Z" fill="url(#paint4_linear_28_12852)"/>
<path d="M82.6402 215.575C82.7161 219.726 81.6967 225.682 79.9015 228.788C79.5613 229.429 79.0915 229.991 78.5215 230.441C77.8285 230.932 75.7993 231.404 72.9385 231.701C72.9385 231.701 74.4793 215.357 73.5487 210.486C77.5387 210.599 80.6587 210.701 81.4687 211.146C82.2277 211.563 82.5973 213.298 82.6402 215.575Z" fill="url(#paint5_linear_28_12852)"/>
<path d="M95.2819 224.432C95.5129 224.508 120.37 232.605 130.622 221.782C133.519 218.722 135.248 214.153 134.925 207.461C134.106 190.586 118.901 186.181 105.491 185.613C100.613 185.436 95.7286 185.654 90.886 186.266C90.1504 186.356 89.4739 186.448 88.8568 186.536C86.4709 186.88 85.0324 187.183 85.0324 187.183C85.0324 187.183 85.0324 192.714 81.1024 193.195C77.1724 193.677 75.694 187.183 75.694 187.183C75.694 187.183 74.572 187.186 72.6847 187.282C72.2029 187.305 71.6716 187.335 71.0947 187.375C65.4076 187.728 59.7592 188.548 54.2065 189.826C42.1393 192.704 29.5375 198.713 29.8606 211.268C29.8977 214.872 31.1422 218.358 33.3949 221.171C40.9645 230.651 58.9351 232.476 69.8572 231.931C70.9627 231.879 71.9956 231.799 72.9394 231.7C75.8002 231.403 77.8294 230.932 78.5224 230.44C79.0924 229.991 79.5622 229.429 79.9024 228.787C81.6976 225.682 82.717 219.727 82.6411 215.575C82.5982 213.298 82.2286 211.563 81.4711 211.147C80.6626 210.701 77.5411 210.599 73.5511 210.487C72.7429 210.46 71.8981 210.437 71.0311 210.411C63.1711 210.171 53.3674 209.661 50.5066 206.725C48.1702 204.325 51.1204 202.485 51.1204 202.485" stroke="var(--illustration-currentColor)" stroke-width="0.9" stroke-linecap="round" stroke-linejoin="round"/>
<path d="M123.373 207.214C123.373 207.214 110.428 208.916 98.031 208.474C97.6614 208.461 97.3017 208.447 96.9585 208.434C96.2028 208.404 95.5098 208.378 94.8696 208.348C88.9665 208.094 87.7389 207.88 87.7389 207.88L87.6861 208.434L87.3726 211.71" stroke="var(--illustration-currentColor)" stroke-width="0.9" stroke-linecap="round" stroke-linejoin="round"/>
<path d="M71.0284 210.411C71.2486 217.605 70.8565 224.804 69.8569 231.932" stroke="var(--illustration-currentColor)" stroke-width="0.9" stroke-linecap="round" stroke-linejoin="round"/>
<path d="M91.3783 220.205C94.942 220.221 101.01 220.525 101.01 222.392C101.01 223.574 98.2882 224.155 95.2804 224.432H95.2801C92.6701 224.645 90.0511 224.723 87.4333 224.667C87.4333 224.667 100.949 225.587 100.702 227.92C100.454 230.253 79.9033 228.788 79.9033 228.788" stroke="var(--illustration-currentColor)" stroke-width="0.9" stroke-linecap="round" stroke-linejoin="round"/>
<path d="M91.3783 220.205C89.8837 220.251 88.8442 220.241 88.8442 220.241C88.8442 220.241 89.8936 220.198 91.3783 220.205Z" stroke="var(--illustration-currentColor)" stroke-width="0.9" stroke-linecap="round" stroke-linejoin="round"/>
<path d="M82.6406 215.576C82.6406 215.576 85.0892 213.124 87.3725 211.712C88.6325 210.929 89.8442 210.464 90.5633 210.903C92.5928 212.13 87.1844 217.106 87.1844 217.106C87.1844 217.106 90.8603 216.631 94.5344 216.476C95.1281 216.453 95.7221 216.437 96.2996 216.434C99.2957 216.407 101.87 216.704 101.87 217.784C101.87 219.635 95.1677 220.093 91.3796 220.206" stroke="var(--illustration-currentColor)" stroke-width="0.9" stroke-linecap="round" stroke-linejoin="round"/>
<path d="M96.2983 216.433L96.9583 208.434" stroke="var(--illustration-currentColor)" stroke-width="0.9" stroke-linecap="round" stroke-linejoin="round"/>
<path d="M94.5332 216.476L94.8662 208.434" stroke="var(--illustration-currentColor)" stroke-width="0.9" stroke-linecap="round" stroke-linejoin="round"/>
<path d="M87.686 208.435C87.686 208.435 82.7825 202.954 81.0206 204.511C79.2587 206.069 82.2677 208.435 82.2677 208.435C82.2677 208.435 70.7477 205.604 70.4744 207.992C70.2011 210.381 73.5497 210.482 73.5497 210.482V210.486C74.4797 215.356 72.9395 231.7 72.9395 231.7" stroke="var(--illustration-currentColor)" stroke-width="0.9" stroke-linecap="round" stroke-linejoin="round"/>
<path d="M72.6855 187.283C72.6855 187.283 71.8869 200.089 80.9184 198.489C89.9499 196.889 88.8576 186.537 88.8576 186.537" stroke="var(--illustration-currentColor)" stroke-width="0.9" stroke-linecap="round" stroke-linejoin="round"/>
<path d="M71.0946 187.375C71.0946 187.375 67.8675 202.915 80.7828 200.763C93.6981 198.61 90.8865 186.267 90.8865 186.267" stroke="var(--illustration-currentColor)" stroke-width="0.9" stroke-linecap="round" stroke-linejoin="round"/>
<path d="M75.6943 187.184C75.6943 187.184 75.9814 187.887 76.9648 186.267C77.8984 184.729 76.2487 168.742 76.0771 167.125C76.0672 167.039 76.0639 166.993 76.0639 166.993" stroke="var(--illustration-currentColor)" stroke-width="0.9" stroke-linecap="round" stroke-linejoin="round"/>
<path d="M85.0333 187.184C85.0333 187.184 83.1919 186.692 84.1753 185.178C85.1587 183.663 100.598 173.503 92.4904 155.88" stroke="var(--illustration-currentColor)" stroke-width="0.9" stroke-linecap="round" stroke-linejoin="round"/>
<path d="M87.5736 174.608C87.5736 174.608 85.848 174.839 84.4323 174.324C83.8665 174.14 83.3742 173.781 83.0265 173.298C81.8385 171.536 81.3933 173.216 80.9412 174.938C80.6046 176.212 80.7663 178.908 82.8054 179.446C83.5182 179.637 84.462 179.566 85.6896 179.076" stroke="var(--illustration-currentColor)" stroke-width="0.9" stroke-linecap="round" stroke-linejoin="round"/>
<path d="M82.8053 179.446C82.8053 179.446 81.3767 175.756 84.4322 174.325" stroke="var(--illustration-currentColor)" stroke-width="0.9" stroke-linecap="round" stroke-linejoin="round"/>
<path d="M87.5737 168.712C87.5737 168.712 90.6853 168.016 90.1537 170.309C89.6221 172.602 87.5737 170.596 87.5737 170.596" stroke="var(--illustration-currentColor)" stroke-width="0.9" stroke-linecap="round" stroke-linejoin="round"/>
<path d="M88.4941 164.125C88.4941 164.125 88.966 161.749 90.5233 161.954C92.0806 162.158 92.4901 164.125 92.4901 164.125" stroke="var(--illustration-currentColor)" stroke-width="0.9" stroke-linecap="round" stroke-linejoin="round"/>
<path d="M88.4941 160.766C88.4941 160.766 89.7448 159.331 92.9818 160.561" stroke="var(--illustration-currentColor)" stroke-width="0.9" stroke-linecap="round" stroke-linejoin="round"/>
<path d="M84.1883 164.943C84.1883 164.943 83.2739 163.346 81.8813 163.508" stroke="var(--illustration-currentColor)" stroke-width="0.9" stroke-linecap="round" stroke-linejoin="round"/>
<path d="M86.7554 157.08L86.7587 157.083V157.087C86.8676 157.207 88.5308 159.017 90.7382 158.268C91.748 157.925 92.2463 156.908 92.4905 155.879C92.6771 155.022 92.7458 154.144 92.6951 153.269" stroke="var(--illustration-currentColor)" stroke-width="0.9" stroke-linecap="round" stroke-linejoin="round"/>
<path d="M74.7544 166.993C75.1909 167.074 75.6337 167.118 76.0777 167.125C77.3185 167.155 79.1167 166.937 80.077 165.6C81.6346 163.429 80.803 161.79 80.803 161.79C80.803 161.79 83.4361 162.978 85.525 161.421C87.5542 159.909 86.8018 157.237 86.7589 157.088" stroke="var(--illustration-currentColor)" stroke-width="0.9" stroke-linecap="round" stroke-linejoin="round"/>
<path d="M54.2065 189.827C54.2065 189.827 51.6094 187.184 52.7149 184.297C53.0311 183.458 53.5327 182.703 54.1819 182.086C54.8314 181.469 55.6117 181.006 56.4649 180.733C56.4649 180.733 52.3501 176.156 54.1915 171.533C56.0329 166.91 60.9493 164.943 60.9493 164.943C60.9493 164.943 57.2635 157.08 59.9068 154.13C62.5501 151.18 68.3245 151.794 68.3245 151.794C68.3245 151.794 65.437 142.824 73.8547 140.736C82.2724 138.649 83.7343 144.115 83.7343 144.115C83.7343 144.115 85.3348 139.753 91.1443 140.858C96.9538 141.964 99.1663 150.26 99.1663 150.26C99.1663 150.26 104.819 149.03 105.188 153.698C105.558 158.366 101.502 164.943 101.502 164.943C101.502 164.943 107.706 164.511 108.075 170.012C108.202 171.556 107.874 173.103 107.132 174.462C106.389 175.822 105.265 176.934 103.898 177.662C103.898 177.662 108.445 178.031 108.382 181.289C108.376 182.204 108.099 183.098 107.585 183.855C107.071 184.613 106.343 185.201 105.495 185.545" stroke="var(--illustration-currentColor)" stroke-width="0.9" stroke-linecap="round" stroke-linejoin="round"/>
<path d="M11.897 222.392L14.8535 222.224L33.3949 221.171" stroke="var(--illustration-currentColor)" stroke-width="0.9" stroke-linecap="round" stroke-linejoin="round"/>
<path d="M130.623 221.782H169.88H184.036" stroke="var(--illustration-currentColor)" stroke-width="0.9" stroke-linecap="round" stroke-linejoin="round"/>
<path d="M209.544 179.829C209.544 179.829 259.505 179.697 259.238 205.079C258.971 230.461 214.513 231.807 207.933 226.702C207.164 226.095 206.475 225.392 205.884 224.61C202.928 220.779 201.459 214.807 201.585 210.45C201.598 210.011 201.627 209.589 201.675 209.186C201.912 207.065 202.605 205.504 203.77 205.078C207.799 203.603 233.854 205.616 236.54 202.125C239.226 198.634 236.002 195.542 236.002 195.542" stroke="var(--illustration-currentColor)" stroke-width="0.9" stroke-linecap="round" stroke-linejoin="round"/>
<path d="M198.799 219.72L198.641 219.73C198.45 219.736 198.093 219.76 197.608 219.79C194.777 219.978 187.613 220.572 184.115 221.971V221.974C182.815 222.489 182.023 223.123 182.145 223.885C182.683 227.241 205.881 224.614 205.881 224.614" stroke="var(--illustration-currentColor)" stroke-width="0.9" stroke-linecap="round" stroke-linejoin="round"/>
<path d="M194.955 215.404C191.648 215.413 185.333 215.592 182.752 216.76C182.036 217.083 181.607 217.48 181.607 217.974C181.607 220.452 193.718 220 197.608 219.789C198.093 219.766 198.453 219.743 198.641 219.729" stroke="var(--illustration-currentColor)" stroke-width="0.9" stroke-linecap="round" stroke-linejoin="round"/>
<path d="M194.955 215.403C196.229 215.426 197.055 215.42 197.055 215.42C197.055 215.42 196.226 215.4 194.955 215.403Z" stroke="var(--illustration-currentColor)" stroke-width="0.9" stroke-linecap="round" stroke-linejoin="round"/>
<path d="M201.578 209.177C201.578 209.177 195.575 203.603 193.695 205.214C191.814 206.824 197.055 211.259 197.055 211.259C197.055 211.259 181.206 210.183 181.071 212.869C180.965 214.948 190.597 215.338 194.956 215.404" stroke="var(--illustration-currentColor)" stroke-width="0.9" stroke-linecap="round" stroke-linejoin="round"/>
<path d="M169.88 221.782L168.715 200.782C168.715 200.782 150.019 200.242 142.792 194.872C129.679 185.134 126.339 161.594 126.138 156.677C126.078 155.199 128.2 154.334 131.2 153.846C134.909 153.242 139.954 153.219 143.868 153.325C147.329 153.42 149.91 153.622 149.91 153.622C149.91 153.622 152.932 172.444 157.565 176.809C162.198 181.175 189.398 180.949 189.398 180.949" stroke="var(--illustration-currentColor)" stroke-width="0.9" stroke-linecap="round" stroke-linejoin="round"/>
<path d="M209.408 180.971V177.011C209.408 177.011 210.081 175.397 207.732 175.331C207.557 175.324 207.326 175.318 207.042 175.311C204.897 175.258 199.881 175.156 196.231 175.08C193.826 175.03 192.014 174.994 192.014 174.994C192.014 174.994 189.8 174.39 189.8 177.277V181.71" stroke="var(--illustration-currentColor)" stroke-width="0.9" stroke-linecap="round" stroke-linejoin="round"/>
<path d="M210.75 157.803C210.757 157.81 210.762 157.818 210.767 157.826C210.988 158.14 213.287 161.538 211.625 163.779C209.879 166.132 208.467 161.495 208.467 161.495" stroke="var(--illustration-currentColor)" stroke-width="0.9" stroke-linecap="round" stroke-linejoin="round"/>
<path d="M192.694 135.912L192.691 135.908C192.605 135.727 189.154 128.514 191.209 127.652C193.292 126.778 196.783 135.238 196.783 135.238C196.783 135.238 196.671 129.263 199.65 130.134C202.63 131.005 202.089 137.724 202.089 137.724C202.089 137.724 210.685 138.126 211.761 142.357C212.836 146.587 212.028 154.447 212.028 154.447C212.028 154.447 217.063 158.139 215.79 160.488C214.562 162.745 211.048 158.192 210.767 157.826" stroke="var(--illustration-currentColor)" stroke-width="0.9" stroke-linecap="round" stroke-linejoin="round"/>
<path d="M207.06 174.39C207.06 174.39 207.69 168.111 207.911 161.475C208.135 154.755 207.944 147.669 206.255 146.385C204.169 144.801 195.21 143.478 188.294 142.379C184.06 141.706 180.592 141.119 179.929 140.609C178.183 139.266 177.042 138.193 177.514 136.781C177.985 135.369 183.219 135.775 187.384 138.461C191.548 141.148 180.131 133.426 184.094 131.344C188.004 129.292 192.571 135.733 192.693 135.907" stroke="var(--illustration-currentColor)" stroke-width="0.9" stroke-linecap="round" stroke-linejoin="round"/>
<path d="M198.307 159.75C198.307 159.75 196.129 160.377 195.796 159.974C195.463 159.572 196.7 147.953 196.7 147.953L191.57 147.62" stroke="var(--illustration-currentColor)" stroke-width="0.9" stroke-linecap="round" stroke-linejoin="round"/>
<path d="M192.955 151.177L192.777 153.619" stroke="var(--illustration-currentColor)" stroke-width="0.9" stroke-linecap="round" stroke-linejoin="round"/>
<path d="M201.574 150.751V153.417" stroke="var(--illustration-currentColor)" stroke-width="0.9" stroke-linecap="round" stroke-linejoin="round"/>
<path d="M198.195 162.66C198.995 162.882 199.833 162.925 200.65 162.785C201.346 162.667 201.981 162.315 202.45 161.789C203.757 160.28 205.169 167.399 201.213 167.349C200.493 167.312 199.788 167.134 199.137 166.824" stroke="var(--illustration-currentColor)" stroke-width="0.9" stroke-linecap="round" stroke-linejoin="round"/>
<path d="M201.215 167.203C201.215 167.203 202.201 163.753 200.65 162.785" stroke="var(--illustration-currentColor)" stroke-width="0.9" stroke-linecap="round" stroke-linejoin="round"/>
<path d="M196.245 174.39C196.245 174.39 197.591 170.876 195.486 169.262C193.381 167.648 191.097 169.444 190.203 166.89C189.309 164.336 188.187 143.072 188.187 143.072" stroke="var(--illustration-currentColor)" stroke-width="0.9" stroke-linecap="round" stroke-linejoin="round"/>
<path d="M134.163 149.88C134.163 149.866 134.16 149.853 134.157 149.84C134.035 149.002 132.006 135.39 129.564 135.879C127.046 136.38 131.108 153.275 131.108 153.275" stroke="var(--illustration-currentColor)" stroke-width="0.9" stroke-linecap="round" stroke-linejoin="round"/>
<path d="M137.91 148.739C137.831 145.465 137.385 133.739 135.072 133.998C132.465 134.289 134.062 148.976 134.158 149.841" stroke="var(--illustration-currentColor)" stroke-width="0.9" stroke-linecap="round" stroke-linejoin="round"/>
<path d="M137.922 149.402C137.925 149.517 137.925 149.577 137.925 149.577" stroke="var(--illustration-currentColor)" stroke-width="0.9" stroke-linecap="round" stroke-linejoin="round"/>
<path d="M137.922 149.402C137.922 149.316 137.919 149.201 137.915 149.059C137.915 149.016 137.915 148.966 137.912 148.913C137.909 148.861 137.912 148.801 137.909 148.739" stroke="var(--illustration-currentColor)" stroke-width="0.9" stroke-linecap="round" stroke-linejoin="round"/>
<path d="M143.868 153.276C143.868 153.276 149.778 148.065 147.93 146.591C146.082 145.116 141.347 149.408 141.347 149.408C141.347 149.408 143.867 133.56 140.677 133.428C137.925 133.312 137.872 145.412 137.909 148.739" stroke="var(--illustration-currentColor)" stroke-width="0.9" stroke-linecap="round" stroke-linejoin="round"/>
<path d="M252.483 219.928L274.014 220.05" stroke="var(--illustration-currentColor)" stroke-width="0.9" stroke-linecap="round" stroke-linejoin="round"/>
<path d="M35.2661 96.0504L73.6754 78.1095L88.2803 71.289L91.1444 69.9492L92.009 73.3248L95.1008 85.4055L96.6287 91.3779" stroke="var(--illustration-currentColor)" stroke-width="0.9" stroke-linecap="round" stroke-linejoin="round"/>
<path d="M14.8535 222.224V125.386V107.712V105.587L17.0939 104.541L35.2659 96.054" stroke="var(--illustration-currentColor)" stroke-width="0.9" stroke-linecap="round" stroke-linejoin="round"/>
<path d="M271.305 219.928V167.128V127.913V123.056L267.206 120.683L248.101 109.626L177.403 68.712L165.811 62.0037L161.831 59.7006L160.198 63.9111L156.044 74.6187L151.352 86.7189" stroke="var(--illustration-currentColor)" stroke-width="0.9" stroke-linecap="round" stroke-linejoin="round"/>
<path d="M106.353 104.168L109.413 115.849C109.621 116.646 109.505 117.493 109.089 118.204C108.673 118.915 107.992 119.432 107.196 119.641L100.137 121.489C99.7428 121.592 99.3318 121.617 98.9277 121.561C98.5236 121.506 98.1342 121.371 97.7823 121.165C97.4301 120.959 97.122 120.686 96.8757 120.361C96.6291 120.036 96.4491 119.666 96.3459 119.271L93.2559 107.481L91.3386 100.165L91.0614 99.1155C90.8526 98.3187 90.969 97.4715 91.3851 96.7605C91.8009 96.0495 92.4822 95.5326 93.279 95.3241L100.34 93.4731C100.735 93.3696 101.146 93.345 101.55 93.4002C101.954 93.4557 102.343 93.5904 102.695 93.7962C103.048 94.002 103.356 94.2753 103.602 94.6005C103.849 94.9254 104.029 95.2956 104.132 95.6904L106.353 104.168Z" stroke="var(--illustration-currentColor)" stroke-width="0.9" stroke-linecap="round" stroke-linejoin="round"/>
<path d="M90.0126 100.354L87.8148 100.928L86.043 94.17L105.3 89.1246L107.072 95.8824L105.455 96.3048" stroke="var(--illustration-currentColor)" stroke-width="0.9" stroke-linecap="round" stroke-linejoin="round"/>
<path d="M93.2563 107.481L106.353 104.168" stroke="var(--illustration-currentColor)" stroke-width="0.9" stroke-linecap="round" stroke-linejoin="round"/>
<path d="M73.6748 78.1095L95.1002 85.4055" stroke="var(--illustration-currentColor)" stroke-width="0.9" stroke-linecap="round" stroke-linejoin="round"/>
<path d="M14.8535 125.386L35.2659 96.0543V96.051" stroke="var(--illustration-currentColor)" stroke-width="0.9" stroke-linecap="round" stroke-linejoin="round"/>
<path d="M156.044 74.6184L177.404 68.7117" stroke="var(--illustration-currentColor)" stroke-width="0.9" stroke-linecap="round" stroke-linejoin="round"/>
<path d="M248.101 109.626L271.305 167.128" stroke="var(--illustration-currentColor)" stroke-width="0.9" stroke-linecap="round" stroke-linejoin="round"/>
<path d="M151.642 103.376L147 114.523C146.682 115.283 146.076 115.885 145.314 116.198C144.553 116.512 143.698 116.51 142.938 116.193L136.203 113.388C135.826 113.231 135.484 113.001 135.196 112.712C134.908 112.424 134.68 112.081 134.525 111.703C134.37 111.326 134.29 110.922 134.291 110.514C134.292 110.106 134.373 109.702 134.53 109.326L139.219 98.0736L142.126 91.0944L142.546 90.0915C142.703 89.715 142.933 89.373 143.221 89.085C143.51 88.797 143.853 88.569 144.231 88.4136C144.608 88.2582 145.012 88.1787 145.42 88.1796C145.828 88.1802 146.232 88.2615 146.608 88.4184L153.343 91.2264C153.719 91.383 154.061 91.6122 154.349 91.9008C154.637 92.1897 154.865 92.5323 155.02 92.9091C155.176 93.2862 155.255 93.69 155.254 94.0977C155.254 94.5054 155.173 94.9089 155.016 95.2851L151.642 103.376Z" stroke="var(--illustration-currentColor)" stroke-width="0.9" stroke-linecap="round" stroke-linejoin="round"/>
<path d="M140.958 90.4413L138.859 89.5671L141.548 83.1159L159.925 90.7713L157.235 97.2225L155.695 96.579" stroke="var(--illustration-currentColor)" stroke-width="0.9" stroke-linecap="round" stroke-linejoin="round"/>
<path d="M139.219 98.0736L151.642 103.376" stroke="var(--illustration-currentColor)" stroke-width="0.9" stroke-linecap="round" stroke-linejoin="round"/>
<path d="M17.0935 104.541C17.2186 104.827 17.2827 105.136 17.2816 105.449C17.282 105.747 17.2235 106.043 17.1096 106.318C16.9957 106.594 16.8286 106.845 16.6177 107.056C16.4069 107.267 16.1565 107.435 15.8809 107.549C15.6053 107.663 15.3099 107.722 15.0115 107.722C14.9585 107.722 14.9056 107.719 14.8531 107.712C14.4517 107.684 14.065 107.549 13.7328 107.322C13.4005 107.095 13.1346 106.784 12.9623 106.42C12.79 106.057 12.7174 105.654 12.7521 105.253C12.7868 104.852 12.9274 104.467 13.1596 104.139C13.3918 103.81 13.7072 103.549 14.0735 103.383C14.4398 103.216 14.8438 103.15 15.2441 103.191C15.6444 103.231 16.0266 103.378 16.3516 103.615C16.6766 103.853 16.9326 104.172 17.0935 104.541Z" stroke="var(--illustration-currentColor)" stroke-width="0.9" stroke-linecap="round" stroke-linejoin="round"/>
<path d="M88.2796 71.289C88.1947 71.0052 88.1512 70.7106 88.1509 70.4145C88.1512 69.651 88.4407 68.9157 88.9609 68.3565C89.4808 67.7973 90.1933 67.4556 90.955 67.4001C91.7167 67.3446 92.4712 67.5792 93.0667 68.0571C93.6625 68.535 94.0555 69.2205 94.1665 69.9759C94.2778 70.7313 94.099 71.5011 93.6661 72.1302C93.2335 72.7593 92.5786 73.2015 91.8331 73.3677C91.0879 73.5339 90.3073 73.4121 89.6479 73.0263C88.9888 72.6408 88.5001 72.0201 88.2796 71.289Z" stroke="var(--illustration-currentColor)" stroke-width="0.9" stroke-linecap="round" stroke-linejoin="round"/>
<path d="M160.198 63.9111C159.303 63.4491 158.609 62.6754 158.246 61.7358C157.883 60.7962 157.878 59.7564 158.23 58.8129C158.583 57.8697 159.269 57.0882 160.158 56.6166C161.048 56.145 162.08 56.016 163.059 56.2542C164.037 56.4921 164.895 57.0807 165.468 57.9084C166.042 58.7361 166.293 59.7453 166.172 60.7452C166.052 61.7451 165.569 62.6661 164.816 63.3339C164.062 64.002 163.089 64.3704 162.082 64.3695C161.427 64.3707 160.78 64.2135 160.198 63.9111Z" stroke="var(--illustration-currentColor)" stroke-width="0.9" stroke-linecap="round" stroke-linejoin="round"/>
<path d="M267.207 120.683C267.642 119.996 268.248 119.434 268.966 119.05C269.683 118.667 270.488 118.476 271.301 118.496C272.114 118.516 272.908 118.747 273.606 119.165C274.304 119.583 274.881 120.174 275.282 120.882C275.683 121.59 275.895 122.389 275.895 123.203C275.895 124.016 275.685 124.816 275.284 125.524C274.884 126.232 274.307 126.824 273.61 127.243C272.912 127.661 272.118 127.892 271.305 127.913C271.265 127.916 271.226 127.916 271.185 127.916C270.341 127.917 269.513 127.691 268.787 127.262C268.06 126.833 267.463 126.216 267.056 125.477C266.649 124.738 266.449 123.903 266.475 123.06C266.501 122.216 266.754 121.396 267.205 120.683H267.207Z" stroke="var(--illustration-currentColor)" stroke-width="0.9" stroke-linecap="round" stroke-linejoin="round"/>
<path d="M208.21 67.0665C195.268 72.0408 185.363 84.1992 183.107 97.8795C182.534 101.352 182.507 105.2 184.573 108.05C185.459 109.273 186.673 110.221 188.075 110.784C189.477 111.347 191.009 111.503 192.496 111.233C193.982 110.964 195.362 110.28 196.477 109.26C197.591 108.24 198.395 106.926 198.795 105.47C199.515 102.849 198.426 99.4995 195.811 98.7639C194.211 98.3139 192.417 98.9823 191.311 100.221C190.204 101.46 189.731 103.181 189.788 104.843C189.86 106.375 190.337 107.861 191.171 109.149C192.005 110.437 193.166 111.48 194.535 112.172C196.166 112.971 198.005 113.226 199.707 113.859C201.408 114.491 203.093 115.679 203.504 117.448C203.941 119.328 202.55 121.431 200.648 121.763C198.746 122.096 196.724 120.591 196.496 118.673" stroke="var(--illustration-currentColor)" stroke-width="0.9" stroke-linecap="round" stroke-linejoin="round"/>
<path d="M182.765 158.024L177.845 153.161" stroke="var(--illustration-currentColor)" stroke-width="0.9" stroke-linecap="round" stroke-linejoin="round"/>
<path d="M167.187 161.86L177.906 161.553" stroke="var(--illustration-currentColor)" stroke-width="0.9" stroke-linecap="round" stroke-linejoin="round"/>
<path d="M174.874 170.57L179.532 165.91" stroke="var(--illustration-currentColor)" stroke-width="0.9" stroke-linecap="round" stroke-linejoin="round"/>
<path d="M249.887 172.43L247.752 168.023" stroke="var(--illustration-currentColor)" stroke-width="0.9" stroke-linecap="round" stroke-linejoin="round"/>
<path d="M246.393 171.75L250.587 168.956" stroke="var(--illustration-currentColor)" stroke-width="0.9" stroke-linecap="round" stroke-linejoin="round"/>
<path d="M232.682 146.13L234.969 140.058" stroke="var(--illustration-currentColor)" stroke-width="0.9" stroke-linecap="round" stroke-linejoin="round"/>
<path d="M230.968 142.223C232.732 143.327 234.753 143.953 236.833 144.038" stroke="var(--illustration-currentColor)" stroke-width="0.9" stroke-linecap="round" stroke-linejoin="round"/>
<path d="M169.052 111.409C168.73 110.038 168.092 108.762 167.189 107.682" stroke="var(--illustration-currentColor)" stroke-width="0.9" stroke-linecap="round" stroke-linejoin="round"/>
<path d="M165.792 110.943L169.985 108.148" stroke="var(--illustration-currentColor)" stroke-width="0.9" stroke-linecap="round" stroke-linejoin="round"/>
<path d="M114.281 173.104L117.3 169.601" stroke="var(--illustration-currentColor)" stroke-width="0.9" stroke-linecap="round" stroke-linejoin="round"/>
<path d="M116.86 172.449L114.672 169.727" stroke="var(--illustration-currentColor)" stroke-width="0.9" stroke-linecap="round" stroke-linejoin="round"/>
<path d="M121.577 165.199C120.915 163.474 120.601 161.636 120.652 159.79C120.702 157.945 121.117 156.127 121.872 154.441" stroke="var(--illustration-currentColor)" stroke-width="0.9" stroke-linecap="round" stroke-linejoin="round"/>
<path d="M56.828 143.302L55.6553 140.277" stroke="var(--illustration-currentColor)" stroke-width="0.9" stroke-linecap="round" stroke-linejoin="round"/>
<path d="M53.5215 143.32C55.2405 142.592 56.8173 141.567 58.1802 140.292" stroke="var(--illustration-currentColor)" stroke-width="0.9" stroke-linecap="round" stroke-linejoin="round"/>
<path d="M36.3001 189.434L34.9072 185.24" stroke="var(--illustration-currentColor)" stroke-width="0.9" stroke-linecap="round" stroke-linejoin="round"/>
<path d="M33.7231 188.74L37.6831 185.945" stroke="var(--illustration-currentColor)" stroke-width="0.9" stroke-linecap="round" stroke-linejoin="round"/>
<path d="M24.0767 214.061C23.2377 212.291 22.9604 210.306 23.2822 208.374C23.604 206.441 24.5093 204.654 25.8767 203.251" stroke="var(--illustration-currentColor)" stroke-width="0.9" stroke-linecap="round" stroke-linejoin="round"/>
<path d="M48.3903 176.398C47.97 175.193 47.8587 173.901 48.0672 172.642C48.2754 171.383 48.7965 170.196 49.5825 169.19" stroke="var(--illustration-currentColor)" stroke-width="0.9" stroke-linecap="round" stroke-linejoin="round"/>
<path d="M29.1449 159.375C29.9321 157.464 32.7922 156.952 34.345 158.316C35.8978 159.679 35.905 162.343 34.5349 163.889C33.1648 165.435 30.7375 165.809 28.8395 164.994C26.9414 164.179 25.5962 162.33 25.1102 160.32C24.6242 158.31 24.9269 156.17 25.664 154.24C26.8005 151.293 28.8864 148.809 31.5922 147.18C34.2112 145.613 37.2922 144.924 39.8584 143.274C41.6878 142.071 43.1851 140.427 44.2126 138.493C45.2404 136.56 45.7657 134.399 45.7399 132.21C45.6856 129.775 44.6218 127.045 42.3064 126.292C39.2833 125.308 36.1459 128.962 37.0528 132.01C37.9597 135.057 41.7571 136.602 44.806 135.701C47.8549 134.8 50.0602 132.011 51.061 128.995C52.0618 125.978 52.0411 122.726 51.9232 119.549C51.8053 116.372 51.6043 113.153 52.2712 110.045" stroke="var(--illustration-currentColor)" stroke-width="0.9" stroke-linecap="round" stroke-linejoin="round"/>
<path d="M264.78 209.237L264.733 209.346C265.922 205.109 265.879 200.622 264.607 196.409" stroke="var(--illustration-currentColor)" stroke-width="0.9" stroke-linecap="round" stroke-linejoin="round"/>
<path d="M163.909 134.123L162.519 136.204C162.477 136.267 162.417 136.316 162.346 136.343C162.276 136.371 162.199 136.376 162.125 136.358C162.052 136.341 161.986 136.301 161.935 136.245C161.885 136.188 161.853 136.118 161.844 136.043L161.547 133.557C161.538 133.485 161.509 133.416 161.461 133.361C161.414 133.305 161.351 133.265 161.28 133.245L158.871 132.567C158.799 132.546 158.735 132.504 158.687 132.445C158.639 132.387 158.61 132.316 158.605 132.241C158.599 132.166 158.616 132.091 158.654 132.026C158.691 131.96 158.748 131.909 158.816 131.877L161.088 130.827C161.154 130.796 161.21 130.746 161.248 130.684C161.286 130.622 161.305 130.55 161.302 130.477L161.203 127.976C161.2 127.9 161.22 127.825 161.261 127.762C161.302 127.698 161.361 127.648 161.431 127.619C161.501 127.59 161.578 127.583 161.651 127.599C161.725 127.616 161.792 127.654 161.844 127.709L163.545 129.546C163.595 129.599 163.659 129.637 163.73 129.654C163.801 129.671 163.876 129.666 163.944 129.641L166.293 128.774C166.363 128.748 166.44 128.744 166.513 128.764C166.586 128.783 166.652 128.824 166.7 128.881C166.75 128.939 166.78 129.009 166.787 129.084C166.795 129.159 166.779 129.235 166.743 129.301L165.522 131.486C165.486 131.55 165.47 131.623 165.476 131.696C165.482 131.769 165.509 131.838 165.555 131.896L167.105 133.861C167.152 133.92 167.179 133.992 167.184 134.068C167.188 134.143 167.17 134.218 167.13 134.283C167.091 134.347 167.033 134.398 166.963 134.428C166.894 134.459 166.817 134.467 166.743 134.453L164.287 133.967C164.216 133.953 164.142 133.96 164.075 133.988C164.007 134.015 163.95 134.062 163.909 134.123Z" fill="var(--illustration-currentColor)"/>
<g opacity="0.1">
<path d="M91.6502 156.703C88.4573 158.983 85.136 160.847 81.3767 162.017C80.9984 162.133 80.666 162.364 80.426 162.678C80.1863 162.993 80.0513 163.375 80.0402 163.77C79.9661 164.715 78.9533 165.57 78.0116 165.366C76.7669 165.096 75.4589 165.936 75.4772 167.297C75.5471 172.453 75.764 177.602 75.9599 182.754C76.0118 184.123 76.7552 187.698 75.3482 188.585C74.6264 189.04 73.4186 188.735 72.6557 188.596C71.5757 188.401 70.5032 188.206 69.4157 188.064C60.3935 186.877 51.0452 188.737 43.0418 193.032C35.6531 196.997 28.4277 204.184 29.4021 213.284C30.4283 222.865 39.722 226.688 47.7881 229.274C57.9689 232.536 69.1832 233.6 79.4915 230.296C82.7015 229.267 81.3323 224.193 78.0935 225.224C69.5834 227.935 60.578 227.336 52.0535 224.997C48.0935 223.91 44.0087 222.62 40.4135 220.597C37.2419 218.813 34.7018 216.155 34.541 212.335C34.1867 203.935 41.8457 198.289 48.7511 195.215C52.6259 193.504 56.7536 192.436 60.9719 192.052C63.0119 191.869 65.0624 191.833 67.1075 191.943C69.2642 192.056 71.3675 192.532 73.5155 192.678C75.683 192.825 77.9351 192.217 79.1231 190.25C80.3111 188.282 80.0702 185.829 80.0129 183.63C79.8707 178.184 79.757 172.74 79.4819 167.298L76.9478 169.228C80.345 169.836 83.8223 167.414 83.6768 163.771L82.7768 165.34C86.5295 163.665 90.0872 161.353 92.9444 158.383C93.7517 157.543 92.6726 155.974 91.6493 156.703L91.6502 156.703Z" fill="var(--illustration-currentColor)"/>
</g>
<g opacity="0.1">
<path d="M87.7715 207.193C89.6741 209.132 93.0068 208.845 95.5484 209.023C98.5784 209.233 101.632 209.253 104.668 209.241C110.652 209.203 116.63 208.846 122.575 208.173C123.835 208.033 124.924 207.193 124.924 205.824C124.924 204.669 123.844 203.327 122.575 203.476C116.725 204.159 110.849 204.556 104.963 204.708C102.018 204.783 99.0794 204.746 96.1352 204.721C94.763 204.709 93.3917 204.711 92.0195 204.682C90.4928 204.651 89.2415 204.643 87.9779 205.582C87.452 205.972 87.2666 206.682 87.77 207.195L87.7715 207.193Z" fill="var(--illustration-currentColor)"/>
</g>
<g opacity="0.1">
<path d="M190.701 145.92C193.157 146.153 195.626 146.13 198.077 146.463C199.924 146.714 202.539 146.89 204.04 148.14C205.475 149.334 205.087 151.65 204.885 153.276C204.606 155.526 204.238 157.817 205.035 160.011C206.085 162.905 210.593 161.77 209.718 158.721C208.984 156.169 209.935 153.648 209.845 151.063C209.755 148.449 208.804 145.991 206.593 144.471C204.474 143.014 201.69 142.693 199.205 142.371C196.232 141.985 193.18 141.781 190.212 142.302C188.022 142.687 188.787 145.739 190.702 145.921L190.701 145.92Z" fill="var(--illustration-currentColor)"/>
</g>
</g>
<defs>
<linearGradient id="paint0_linear_28_12852" x1="82.4102" y1="185.552" x2="82.4102" y2="232.017" gradientUnits="userSpaceOnUse">
<stop stop-color="#FF9A34"/>
<stop offset="1" stop-color="#EB6421"/>
</linearGradient>
<linearGradient id="paint1_linear_28_12852" x1="147.236" y1="88.1796" x2="147.236" y2="103.376" gradientUnits="userSpaceOnUse">
<stop stop-color="#FF9A34"/>
<stop offset="1" stop-color="#EB6421"/>
</linearGradient>
<linearGradient id="paint2_linear_28_12852" x1="98.6555" y1="93.3714" x2="98.6555" y2="107.481" gradientUnits="userSpaceOnUse">
<stop stop-color="#FF9A34"/>
<stop offset="1" stop-color="#EB6421"/>
</linearGradient>
<linearGradient id="paint3_linear_28_12852" x1="91.0264" y1="207.881" x2="91.0264" y2="217.107" gradientUnits="userSpaceOnUse">
<stop stop-color="#FF9A34"/>
<stop offset="1" stop-color="#EB6421"/>
</linearGradient>
<linearGradient id="paint4_linear_28_12852" x1="80.7831" y1="186.537" x2="80.7831" y2="198.627" gradientUnits="userSpaceOnUse">
<stop stop-color="#FF9A34"/>
<stop offset="1" stop-color="#EB6421"/>
</linearGradient>
<linearGradient id="paint5_linear_28_12852" x1="77.7913" y1="210.486" x2="77.7913" y2="231.701" gradientUnits="userSpaceOnUse">
<stop stop-color="#FF9A34"/>
<stop offset="1" stop-color="#EB6421"/>
</linearGradient>
</defs>
</svg>
