<svg width="288" height="288" viewBox="0 0 288 288" fill="none" xmlns="http://www.w3.org/2000/svg">
<g clip-path="url(#clip0_28_12854)">
<mask id="mask0_28_12854" style="mask-type:luminance" maskUnits="userSpaceOnUse" x="0" y="0" width="288" height="288">
<path d="M288 0H0V288H288V0Z" fill="white"/>
</mask>
<g mask="url(#mask0_28_12854)">
<mask id="mask1_28_12854" style="mask-type:luminance" maskUnits="userSpaceOnUse" x="11" y="27" width="266" height="234">
<path d="M276.599 27.5996H11.3989V260.4H276.599V27.5996Z" fill="white"/>
</mask>
<g mask="url(#mask1_28_12854)">
<path fill-rule="evenodd" clip-rule="evenodd" d="M101.696 216.796C104.549 210.708 106.564 204.262 107.992 197.686C107.39 205.274 106.824 213.039 106.257 220.806C105.832 226.632 105.407 232.458 104.967 238.213C104.806 240.33 104.642 242.435 104.475 244.526C104.414 245.308 104.364 246.141 104.747 246.823C105.204 247.63 106.09 247.967 107.041 248.11C107.484 248.175 107.93 248.211 108.378 248.218C110.644 248.279 112.909 248.338 115.174 248.397C116.599 248.435 118.117 248.446 119.314 247.677C119.477 247.57 119.633 247.452 119.779 247.323C121.417 245.854 121.502 243.172 121.403 240.887C121.318 238.911 121.245 236.937 121.183 234.965C120.589 216.746 120.85 198.61 122.046 180.386V180.369C113.06 180.429 104.072 180.488 95.0817 180.547C95.3538 199.377 86.8404 218.144 72.5022 230.347C71.7885 230.953 71.0073 231.646 70.9254 232.576C70.8978 233.009 70.9977 233.44 71.2122 233.817C71.4516 234.237 71.7405 234.627 72.0723 234.978C73.2177 236.253 74.4597 237.438 75.7875 238.521C77.0514 239.551 78.4878 240.525 80.1174 240.624C80.1525 240.627 80.1876 240.627 80.2227 240.627C82.1652 240.697 83.9295 239.519 85.4508 238.281C85.4769 238.257 85.503 238.235 85.5291 238.214C85.5411 238.204 85.5531 238.195 85.5648 238.184C92.5131 232.456 97.8756 224.947 101.696 216.796ZM120.505 182.257C120.513 182.009 120.318 181.801 120.07 181.793C119.821 181.786 119.614 181.981 119.606 182.229L118.65 212.275L117.694 242.321C117.686 242.57 117.881 242.777 118.129 242.785C118.378 242.793 118.585 242.598 118.593 242.35L119.549 212.304L120.505 182.257Z" fill="var(--illustration-currentColor)"/>
<path fill-rule="evenodd" clip-rule="evenodd" d="M109.168 168.153C109.249 167.664 109.223 167.164 109.092 166.687L109.164 166.666C109.431 165.857 109.806 165.087 110.278 164.378C110.33 164.273 110.404 164.18 110.496 164.106C110.587 164.032 110.694 163.979 110.808 163.951C110.941 163.952 111.07 164 111.171 164.086C111.272 164.172 111.34 164.291 111.364 164.422C111.405 164.685 111.381 164.955 111.293 165.206C111.185 165.639 111.055 166.024 110.924 166.409C110.794 166.792 110.665 167.175 110.556 167.606V167.612C112.217 167.172 113.888 166.776 115.568 166.424C115.903 166.329 116.254 166.308 116.597 166.364C116.768 166.396 116.924 166.48 117.044 166.606C117.164 166.731 117.241 166.891 117.265 167.063C117.285 167.517 116.823 167.824 116.413 168.017C116.32 168.061 116.226 168.105 116.129 168.146L116.132 168.149C116.275 168.123 116.393 168.087 116.502 168.054C116.744 167.981 116.94 167.921 117.242 168.023C117.681 168.17 118.053 168.623 117.942 169.07C117.902 169.199 117.835 169.317 117.746 169.417C117.656 169.518 117.547 169.598 117.424 169.653L117.45 169.699C118.936 170.209 118.232 170.838 117.885 171.148C117.864 171.166 117.845 171.183 117.827 171.199C117.493 171.467 117.1 171.652 116.68 171.739C114.095 172.472 111.412 172.8 108.726 172.71C108.874 171.19 109.021 169.671 109.168 168.153ZM97.2782 165.455V165.464C96.9506 165.426 96.623 165.388 96.2993 165.344C95.1593 165.195 94.0016 164.999 92.9894 164.463C91.9772 163.928 91.1111 162.992 90.9386 161.86C90.7016 160.309 91.7783 158.855 93.0041 157.875C94.976 156.307 97.6721 155.655 100.192 155.687C99.221 158.943 98.2496 162.199 97.2782 165.455ZM159.429 135.451C158.966 134.469 158.444 133.426 157.694 132.669C157.31 132.268 156.841 131.959 156.321 131.765C154.686 131.177 152.919 132.005 151.345 132.745C145.016 135.731 138.226 137.62 131.264 138.333C127.277 138.738 123.267 138.756 119.258 138.774C118.67 138.776 118.082 138.779 117.494 138.783C116.22 138.787 114.949 138.803 113.679 138.833C110.443 138.879 107.214 139.142 104.013 139.62C101.409 140.016 98.8517 140.676 96.3803 141.588C90.8918 143.66 85.8539 147.42 83.2532 152.679C80.6525 157.939 80.9099 164.771 84.716 169.235C87.2885 172.251 91.0385 173.863 94.9085 174.94L94.9058 174.946C94.5833 175.864 94.3328 176.81 94.0823 177.757C93.8327 178.7 93.5828 179.643 93.2615 180.56C93.5789 180.558 93.8969 180.556 94.2149 180.554C94.5038 180.552 94.793 180.549 95.0813 180.548C104.068 180.488 113.056 180.428 122.046 180.37C122.645 180.365 123.244 180.361 123.842 180.357C124.387 180.354 124.933 180.351 125.478 180.346C125.563 175.615 125.647 170.994 125.732 166.374C125.82 161.583 125.908 156.795 125.995 151.89L125.99 151.822C136.782 150.856 147.302 147.901 157.018 143.107C158.32 142.463 159.704 141.682 160.248 140.337C160.475 139.748 160.547 139.111 160.456 138.487C160.333 137.455 159.879 136.411 159.429 135.451ZM153.772 135.168C153.994 135.059 154.086 134.789 153.976 134.566C153.867 134.343 153.597 134.251 153.374 134.361C143.949 139.006 133.513 141.225 123.014 140.816C122.765 140.806 122.556 141 122.546 141.248C122.537 141.496 122.73 141.705 122.979 141.715C133.628 142.13 144.212 139.879 153.772 135.168Z" fill="url(#paint0_linear_28_12854)"/>
<path fill-rule="evenodd" clip-rule="evenodd" d="M53.126 216.234L53.3219 184.682C49.115 161.982 40.7714 139.748 29.3059 119.52C26.0323 113.74 22.5188 108.147 18.7654 102.74L18.5311 102.857C11.8171 132.294 15.8017 164.396 31.2107 190.364C31.3628 190.622 31.5179 190.879 31.673 191.134C35.8826 198.096 40.8569 204.566 46.5026 210.424C48.4412 212.437 50.4548 214.373 52.5437 216.231L53.126 216.234ZM25.2845 117.004C25.1593 116.789 24.8838 116.717 24.6691 116.842C24.4544 116.967 24.3819 117.243 24.5071 117.457C30.7034 128.083 35.8979 139.263 40.0232 150.851C40.1066 151.085 40.364 151.207 40.598 151.124C40.8323 151.04 40.9544 150.783 40.871 150.549C36.7271 138.908 31.5089 127.678 25.2845 117.004Z" fill="url(#paint1_linear_28_12854)"/>
<path fill-rule="evenodd" clip-rule="evenodd" d="M229.782 70.8715C231.207 70.3129 232.427 68.8822 231.789 67.2001C231.609 66.7531 231.324 66.3562 230.958 66.0421C230.593 65.7283 230.158 65.5063 229.689 65.395C227.852 64.9207 226.058 65.8864 224.759 67.1707C226.289 64.8274 225.072 61.1971 222.439 60.2461C219.806 59.2951 216.553 61.3138 216.231 64.093C216.351 61.6648 213.94 59.4388 211.53 59.7517C209.119 60.0646 207.355 62.8321 208.089 65.1493C207.384 64.3915 206.459 63.8731 205.445 63.6664C204.431 63.4594 203.377 63.5746 202.431 63.9958C201.486 64.417 200.695 65.1229 200.17 66.0154C199.645 66.9076 199.412 67.9414 199.503 68.9728C199.506 69.0166 199.499 69.061 199.483 69.1021C199.466 69.1429 199.441 69.1798 199.408 69.2095C199.376 69.2395 199.337 69.2614 199.295 69.2743C199.252 69.2869 199.208 69.2899 199.164 69.283C197.745 69.0898 193.394 70.8247 195.732 72.7879C196.961 73.8184 199.236 72.9952 201.087 72.3253C201.822 72.0595 202.49 71.818 202.999 71.7259C208.016 70.8139 213.571 71.0038 218.97 71.1883C221.488 71.2744 223.973 71.3593 226.354 71.3308C227.512 71.3161 228.702 71.2957 229.782 70.8715ZM220.569 62.1391C220.324 62.0953 220.091 62.2582 220.047 62.503C220.003 62.7478 220.166 62.9815 220.411 63.025C221.171 63.1606 221.837 63.6832 222.248 64.3876C222.659 65.092 222.786 65.9299 222.53 66.6586C222.448 66.8932 222.572 67.15 222.806 67.2322C223.041 67.3144 223.298 67.1911 223.38 66.9565C223.738 65.9359 223.544 64.8238 223.025 63.934C222.507 63.0445 221.634 62.329 220.569 62.1391Z" fill="url(#paint2_linear_28_12854)"/>
<path fill-rule="evenodd" clip-rule="evenodd" d="M231.734 185.756L231.652 204.134L231.829 204.133C241.155 198.685 247.167 190.716 251.921 181.018C256.675 171.319 259.098 160.612 260.224 149.869C260.716 145.178 260.968 140.467 261.22 135.755C261.458 131.302 261.696 126.849 262.137 122.413C263.044 113.284 264.855 104.095 269.082 95.9531C259.466 101.901 253.95 112.804 251.175 123.763C249.589 130.027 248.744 136.438 247.899 142.851C247.265 147.658 246.631 152.467 245.685 157.217C243.476 168.305 240.489 178.406 231.9 185.756H231.734ZM259.218 134.716C259.212 134.468 259.005 134.272 258.757 134.278C258.509 134.284 258.312 134.491 258.319 134.739C258.468 140.531 257.95 146.321 256.774 151.994C256.724 152.238 256.88 152.476 257.124 152.527C257.367 152.577 257.605 152.42 257.656 152.177C258.845 146.436 259.37 140.577 259.218 134.716Z" fill="url(#paint3_linear_28_12854)"/>
<path d="M270.436 76.29C270.53 76.8867 270.132 77.4543 269.678 77.8581C267.824 79.5051 265.071 79.4991 262.593 79.4028L252.09 78.99L252.005 78.9519C252.312 78.2619 252.628 77.5719 252.95 76.8864C253.014 76.7517 253.076 76.6164 253.14 76.4826L253.307 76.5615C255.911 75.5961 257.856 74.9349 260.594 74.4699C263.332 74.0049 266.2 74.0136 268.83 74.8998C269.538 75.1377 270.319 75.5532 270.436 76.29Z" fill="var(--illustration-currentColor)"/>
<path d="M266.685 54.9282L266.65 54.8958C266.653 54.8814 266.659 54.8697 266.662 54.855C268.495 53.2962 270.714 52.26 273.086 51.855C273.667 51.7233 274.271 51.7293 274.85 51.8727C275.138 51.9477 275.4 52.1007 275.606 52.3149C275.813 52.5291 275.956 52.7964 276.02 53.0868C276.04 53.3565 275.996 53.6274 275.892 53.877C275.788 54.1266 275.626 54.348 275.42 54.5232C274.522 55.3716 273.188 55.5132 271.956 55.6056C269.896 55.7655 267.836 55.9245 265.776 56.0826L265.767 56.0766C265.861 55.9566 265.954 55.8396 266.048 55.7196C266.261 55.4547 266.471 55.1913 266.685 54.9282Z" fill="var(--illustration-currentColor)"/>
<path d="M266.662 54.8547C266.659 54.8694 266.653 54.8811 266.65 54.8955L266.686 54.9279C266.472 55.191 266.261 55.4544 266.051 55.7205C264.497 52.9971 262.935 50.247 261.941 47.2746C261.74 46.7715 261.643 46.2333 261.654 45.6918C261.662 45.4218 261.74 45.1584 261.88 44.9274C262.021 44.6967 262.219 44.5065 262.456 44.3754C262.677 44.2848 262.917 44.2476 263.155 44.2674C263.394 44.2872 263.624 44.3634 263.828 44.4894C264.234 44.7432 264.584 45.0765 264.858 45.4695C265.849 46.7955 266.527 48.3288 266.839 49.9548C267.152 51.5805 267.091 53.256 266.662 54.8547Z" fill="var(--illustration-currentColor)"/>
<path d="M259.295 64.9482L259.445 65.0418C259.103 65.58 258.767 66.1212 258.436 66.6654L258.237 66.5454C256.432 63.1137 254.662 59.6265 253.587 55.8993C253.36 55.2438 253.263 54.5499 253.303 53.8575C253.328 53.5116 253.442 53.1777 253.634 52.8888C253.825 52.5996 254.088 52.365 254.397 52.2075C254.687 52.1007 254.997 52.0641 255.304 52.1013C255.61 52.1385 255.903 52.248 256.159 52.4208C256.667 52.7709 257.09 53.2308 257.396 53.7666C259.453 57.0171 259.605 61.1127 259.295 64.9482Z" fill="var(--illustration-currentColor)"/>
<path d="M258.318 66.8614C258.357 66.7972 258.398 66.73 258.436 66.6655C258.766 66.1213 259.103 65.5801 259.445 65.0419C259.46 65.014 259.476 64.9876 259.495 64.9627L259.556 65.0008C262.668 63.3055 266.222 62.5993 269.746 62.9764C270.326 63.0016 270.893 63.1597 271.402 63.4387C271.653 63.5824 271.857 63.7975 271.987 64.0567C272.117 64.3159 272.168 64.6075 272.133 64.8955C271.975 65.6755 271.083 66.0355 270.308 66.2209C266.431 67.1425 262.394 67.0309 258.412 66.9172L258.318 66.8614Z" fill="var(--illustration-currentColor)"/>
<path d="M252.005 78.9527C251.952 79.0697 251.9 79.1897 251.85 79.3067L251.593 79.1924C248.603 73.9295 245.537 68.4293 245.145 62.3852C245.098 61.6652 245.133 60.8375 245.68 60.3665C245.933 60.1805 246.233 60.0701 246.546 60.0485C246.859 60.0266 247.172 60.0944 247.447 60.2438C247.995 60.5495 248.461 60.9833 248.805 61.5077C250.399 63.6491 251.341 66.2177 251.882 68.8331C252.423 71.4485 252.581 74.1224 252.737 76.7876L252.95 76.8872C252.63 77.5718 252.312 78.2621 252.005 78.9527Z" fill="var(--illustration-currentColor)"/>
<path d="M246.95 92.7438C247.002 92.5593 247.055 92.3751 247.11 92.1939C247.242 91.7517 247.377 91.3101 247.514 90.8685C250.563 89.1981 253.632 87.5247 256.92 86.4069C260.267 85.2669 263.886 84.7161 267.355 85.3977C267.826 85.4877 268.379 85.6845 268.482 86.1525C268.572 86.5563 268.272 86.9364 267.972 87.2232C265.286 89.7978 261.386 90.5817 257.694 91.0266C254.002 91.4715 250.284 90.9183 247.06 92.7759L246.95 92.7438Z" fill="var(--illustration-currentColor)"/>
<path d="M247.43 90.9153C247.46 90.8976 247.485 90.8832 247.514 90.8685C247.377 91.3101 247.242 91.7517 247.111 92.1939L247.002 92.1615C246.92 92.2515 246.839 92.343 246.757 92.4315C243.737 89.9535 241.04 87.1074 238.729 83.9592C237.123 81.771 235.666 79.3164 235.502 76.6074C235.449 75.7122 235.631 74.6619 236.418 74.2374C237.351 73.737 238.469 74.4246 239.247 75.1443C243.644 79.2165 245.826 85.1145 247.418 90.8925L247.43 90.9153Z" fill="var(--illustration-currentColor)"/>
<path d="M245.976 241.41C246.119 241.843 245.943 243.233 245.943 243.233L245.844 243.707C245.805 243.707 245.766 243.71 245.727 243.716L238.925 244.661C238.674 244.696 238.418 244.666 238.182 244.576L235.28 243.482C235.14 243.428 235.016 243.34 234.922 243.224C234.827 243.108 234.764 242.969 234.74 242.822C234.716 242.674 234.731 242.522 234.784 242.382C234.838 242.243 234.927 242.119 235.043 242.024L243.161 235.404C243.313 235.281 243.503 235.214 243.7 235.214H244.393V235.834L243.293 237.9C243.293 237.9 245.633 240.36 245.976 241.41Z" fill="var(--illustration-currentColor)"/>
<path d="M195.42 225.695C195.507 225.73 195.581 225.793 195.63 225.874L200.577 234.083L201.92 236.312C201.953 236.367 201.973 236.429 201.979 236.492C201.985 236.556 201.977 236.621 201.955 236.681L200.319 241.212C200.293 241.283 200.25 241.346 200.192 241.395C200.135 241.443 200.066 241.476 199.992 241.49C198.362 241.79 189.036 243.532 188.532 243.784C188.426 243.837 188.005 243.752 187.4 243.579L188.035 243.243L186.055 239.516L189.91 235.663L192.526 227.538L195.021 226.283L195.279 225.64L195.42 225.695Z" fill="url(#paint4_linear_28_12854)"/>
<path d="M180.914 223.273C181.332 220.777 181.944 218.82 183.021 215.773C184.545 211.472 187.032 207.412 190.659 204.641C191.762 213.31 189.331 222.464 183.609 229.001C182.752 229.657 181.942 230.309 181.807 230.414C181.794 230.426 181.779 230.436 181.763 230.444L178.826 232.261L174.73 226.577C174.663 226.486 174.573 226.415 174.47 226.372L172.893 225.717L172.911 225.673C169.956 222.861 167.742 219.362 166.465 215.489C170.795 217.366 174.398 220.599 176.733 224.7C174.551 219.285 175.098 214.183 177.012 208.197C179.731 212.744 181.086 217.977 180.914 223.273Z" fill="url(#paint5_linear_28_12854)"/>
<path d="M174.572 241.204C174.464 241.218 174.353 241.191 174.264 241.127C174.175 241.064 174.113 240.969 174.092 240.861V240.858C174.074 240.769 174.085 240.675 174.124 240.592L177.722 233.024C177.758 232.949 177.815 232.886 177.886 232.842L178.826 232.26L181.763 230.444C181.779 230.435 181.793 230.425 181.807 230.414C181.941 230.308 182.752 229.656 183.609 229.001C184.562 228.272 185.572 227.538 185.78 227.538H189.635C189.725 227.538 189.812 227.511 189.884 227.459L193.298 225.057C193.357 225.016 193.426 224.99 193.497 224.982C193.568 224.974 193.641 224.984 193.708 225.01L195.279 225.64L195.021 226.284L192.526 227.539L189.91 235.663L186.054 239.516L188.034 243.243L187.4 243.58C185.053 242.916 179.913 240.959 179.132 240.657C179.066 240.632 178.994 240.624 178.924 240.634L174.572 241.204Z" fill="var(--illustration-currentColor)"/>
<path d="M171.391 225.224L172.424 227.676L169.396 234.975L168.296 239.655L165.961 241.849C165.924 241.845 165.887 241.837 165.85 241.826L158.413 239.632C158.319 239.603 158.232 239.552 158.162 239.482C158.092 239.413 158.039 239.328 158.009 239.233C157.979 239.139 157.973 239.039 157.99 238.942C158.007 238.844 158.048 238.753 158.109 238.675L161.067 234.922C161.112 234.864 161.168 234.815 161.231 234.778L164.946 232.531L166.944 231.323C167.018 231.279 167.081 231.219 167.129 231.148L171.046 225.466C171.127 225.346 171.25 225.259 171.391 225.224Z" fill="var(--illustration-currentColor)"/>
<path d="M104.724 116.075L104.671 116.057C103.609 116.57 102.916 117.061 101.854 117.573C101.924 116.83 102.243 116.132 102.759 115.592C103.275 115.052 103.958 114.701 104.698 114.598C104.338 114.389 103.939 114.257 103.525 114.213C103.112 114.168 102.694 114.21 102.298 114.337C102.543 113.691 103.02 113.16 103.637 112.849C104.254 112.538 104.965 112.468 105.63 112.655C106.227 112.848 106.74 113.243 107.327 113.451C107.992 113.64 108.685 113.711 109.375 113.659C111.39 113.621 113.406 113.584 115.422 113.547L115.574 113.624C116.145 112.436 116.972 111.39 117.996 110.56C118.342 110.279 118.854 110.025 119.202 110.306C119.506 110.549 119.445 111.023 119.339 111.397C119.061 112.385 118.671 113.338 118.178 114.238C119.073 113.539 121.984 112.213 122.031 112.588C121.448 113.918 120.521 115.07 119.345 115.923L119.421 116.025C121.004 115.333 122.741 115.067 124.459 115.256C124.047 116.368 122.935 117.102 121.782 117.383C120.63 117.664 119.424 117.558 118.242 117.456C118.184 117.45 118.122 117.444 118.064 117.441C115.773 117.236 113.483 117.034 111.194 116.833C110.111 116.739 108.935 116.663 108.022 117.257C106.642 118.152 106.513 120.092 106.533 121.739L106.586 126.487H106.53C106.457 126.899 105.158 128.737 104.804 128.512C104.427 128.275 104.787 126.42 104.681 125.987C104.394 126.68 103.969 127.307 103.432 127.83C103.273 123.962 103.413 119.723 104.724 116.075Z" fill="var(--illustration-currentColor)"/>
<path d="M106.684 134.974C109.075 134.81 111.466 134.646 113.858 134.483C113.928 134.477 114.001 134.474 114.071 134.468C115.142 134.395 116.344 134.363 117.146 135.08C117.407 135.338 117.613 135.647 117.752 135.987C117.891 136.327 117.959 136.692 117.954 137.06C117.971 137.791 117.673 138.031 117.494 138.74V138.783C116.221 138.789 114.95 138.806 113.679 138.833C110.443 138.88 107.214 139.143 104.013 139.62L104.002 139.55C103.733 138.829 103.561 138.075 103.489 137.309C103.463 136.978 103.513 136.646 103.635 136.337C103.757 136.029 103.948 135.753 104.195 135.53C104.701 135.124 105.391 135.062 106.041 135.018L106.684 134.974Z" fill="url(#paint6_linear_28_12854)"/>
<path d="M46.5026 210.424L46.2626 210.658C42.2546 211.287 38.1605 211.089 34.2314 210.077C30.3026 209.066 26.6222 207.261 23.4163 204.775C20.2104 202.289 17.5467 199.173 15.5892 195.62C13.6315 192.066 12.4212 188.15 12.0327 184.112L12.5358 184.076C17.9295 188.307 24.4573 190.842 31.2926 191.361L31.673 191.133C35.8829 198.095 40.8569 204.566 46.5026 210.424Z" fill="var(--illustration-currentColor)"/>
<path d="M41.3273 247.063L41.4032 247.698L41.3732 247.701C41.3411 247.706 41.3087 247.708 41.2766 247.707L31.9568 247.35C31.7999 247.344 31.6514 247.279 31.541 247.167C31.4306 247.056 31.3667 246.907 31.3628 246.75C31.3592 246.663 31.3748 246.576 31.4081 246.496C31.4414 246.416 31.4918 246.344 31.556 246.284L33.5249 244.43L37.4549 240.729C37.5554 240.635 37.6838 240.576 37.8206 240.562L40.7006 240.292C40.8392 240.279 40.9784 240.314 41.0957 240.389L40.7855 240.866L40.0892 243.268L41.3297 244.92L41.3273 247.063Z" fill="var(--illustration-currentColor)"/>
<path d="M111.792 126.677C112.176 127.034 112.854 126.762 113.088 126.291C113.322 125.82 113.247 125.267 113.165 124.749C113.004 123.74 112.843 122.734 112.682 121.724C112.553 120.908 112.457 119.972 113.004 119.354C113.222 119.137 113.49 118.977 113.785 118.887C114.08 118.797 114.392 118.779 114.695 118.836C115.299 118.955 115.879 119.172 116.412 119.48" stroke="var(--illustration-currentColor)" stroke-width="0.6" stroke-linecap="round" stroke-linejoin="round"/>
<path d="M114.466 121.806C114.419 121.441 114.372 121.072 114.326 120.706" stroke="var(--illustration-currentColor)" stroke-width="0.6" stroke-linecap="round" stroke-linejoin="round"/>
<path d="M111.693 129.21C111.506 129.315 111.3 129.381 111.087 129.405C110.875 129.429 110.659 129.411 110.453 129.351C110.248 129.29 110.056 129.19 109.889 129.055C109.723 128.92 109.585 128.752 109.484 128.563" stroke="var(--illustration-currentColor)" stroke-width="0.6" stroke-linecap="round" stroke-linejoin="round"/>
<path d="M106.684 135.024V134.974L106.587 126.487L106.535 121.739C106.514 120.092 106.643 118.152 108.024 117.257C108.936 116.663 110.113 116.739 111.195 116.832C113.486 117.035 115.775 117.237 118.065 117.441C118.124 117.444 118.185 117.45 118.244 117.456C119.426 117.558 120.631 117.661 121.784 117.383C122.936 117.105 124.048 116.368 124.46 115.256C122.743 115.068 121.006 115.333 119.423 116.025" stroke="var(--illustration-currentColor)" stroke-width="0.9" stroke-linecap="round" stroke-linejoin="round"/>
<path d="M118.176 114.24C118.126 114.281 118.083 114.319 118.044 114.354" stroke="var(--illustration-currentColor)" stroke-width="0.9" stroke-linecap="round" stroke-linejoin="round"/>
<path d="M119.322 115.94C119.331 115.934 119.337 115.928 119.346 115.923C120.521 115.07 121.448 113.918 122.031 112.588C121.985 112.213 119.073 113.538 118.178 114.238" stroke="var(--illustration-currentColor)" stroke-width="0.9" stroke-linecap="round" stroke-linejoin="round"/>
<path d="M118.03 114.504C118.08 114.416 118.129 114.329 118.176 114.241L118.179 114.238C118.673 113.338 119.063 112.385 119.341 111.397C119.446 111.023 119.507 110.549 119.203 110.306C118.855 110.025 118.343 110.279 117.998 110.56C116.974 111.39 116.146 112.436 115.575 113.624C115.485 113.814 115.4 114.007 115.321 114.203" stroke="var(--illustration-currentColor)" stroke-width="0.9" stroke-linecap="round" stroke-linejoin="round"/>
<path d="M115.423 113.547C113.407 113.586 111.391 113.623 109.376 113.659C108.686 113.711 107.993 113.64 107.328 113.451C106.74 113.243 106.228 112.848 105.631 112.655C104.966 112.469 104.255 112.538 103.639 112.849C103.022 113.161 102.545 113.691 102.3 114.337C102.696 114.21 103.114 114.168 103.528 114.213C103.941 114.258 104.34 114.389 104.7 114.598C103.96 114.702 103.277 115.052 102.761 115.592C102.245 116.132 101.926 116.83 101.856 117.573C102.918 117.061 103.611 116.57 104.673 116.058" stroke="var(--illustration-currentColor)" stroke-width="0.9" stroke-linecap="round" stroke-linejoin="round"/>
<path d="M104.812 115.83C104.782 115.912 104.752 115.994 104.724 116.076C103.413 119.724 103.273 123.963 103.434 127.831C103.971 127.307 104.396 126.68 104.683 125.987C104.788 126.42 104.429 128.275 104.806 128.512C105.16 128.738 106.459 126.9 106.532 126.488" stroke="var(--illustration-currentColor)" stroke-width="0.9" stroke-linecap="round" stroke-linejoin="round"/>
<path d="M118.073 117.409C118.07 117.421 118.067 117.43 118.064 117.441C117.488 119.589 117.892 121.856 118 124.076C118.111 126.306 117.82 128.769 116.213 130.316C115.578 130.925 114.776 131.349 114.194 132.01C113.612 132.671 113.31 133.724 113.852 134.418" stroke="var(--illustration-currentColor)" stroke-width="0.9" stroke-linecap="round" stroke-linejoin="round"/>
<path d="M117.494 138.739C117.673 138.031 117.971 137.791 117.954 137.059C117.959 136.692 117.891 136.327 117.752 135.987C117.613 135.646 117.407 135.338 117.146 135.079C116.344 134.362 115.142 134.394 114.071 134.467C114.001 134.473 113.928 134.476 113.858 134.482C111.468 134.643 109.076 134.807 106.684 134.973L106.041 135.018C105.391 135.061 104.701 135.123 104.195 135.529C103.948 135.752 103.757 136.028 103.635 136.337C103.513 136.645 103.463 136.977 103.489 137.308C103.561 138.075 103.733 138.828 104.002 139.549" stroke="var(--illustration-currentColor)" stroke-width="0.9" stroke-linecap="round" stroke-linejoin="round"/>
<path d="M108.536 174.674C107.462 176.25 99.6557 176.072 97.7933 175.656C96.8333 175.443 95.8682 175.206 94.9085 174.94C91.0385 173.863 87.2885 172.251 84.716 169.235C80.9099 164.771 80.6525 157.939 83.2532 152.679C85.8539 147.42 90.8918 143.66 96.3803 141.588C98.8517 140.676 101.409 140.016 104.013 139.62C107.214 139.142 110.443 138.879 113.679 138.833C114.949 138.803 116.22 138.787 117.494 138.783C122.09 138.753 126.692 138.798 131.264 138.333C138.226 137.62 145.016 135.731 151.345 132.745C152.919 132.005 154.686 131.177 156.322 131.765C156.841 131.959 157.31 132.268 157.693 132.669C158.443 133.427 158.966 134.469 159.428 135.451C159.878 136.411 160.333 137.455 160.455 138.488C160.546 139.112 160.475 139.749 160.248 140.337C159.703 141.682 158.32 142.464 157.018 143.107C147.301 147.902 136.781 150.857 125.989 151.822C124.679 151.942 123.365 152.031 122.049 152.089" stroke="var(--illustration-currentColor)" stroke-width="0.9" stroke-linecap="round" stroke-linejoin="round"/>
<path d="M125.996 151.89C125.823 161.526 125.651 170.71 125.478 180.347" stroke="var(--illustration-currentColor)" stroke-width="0.9" stroke-linecap="round" stroke-linejoin="round"/>
<path d="M125.478 180.347C124.334 180.355 123.191 180.361 122.047 180.37C113.057 180.429 104.069 180.488 95.082 180.548C94.4763 180.551 93.8679 180.557 93.2622 180.56" stroke="var(--illustration-currentColor)" stroke-width="0.9" stroke-linecap="round" stroke-linejoin="round"/>
<path d="M93.2622 180.56C93.9057 178.723 94.2627 176.78 94.9065 174.946" stroke="var(--illustration-currentColor)" stroke-width="0.9" stroke-linecap="round" stroke-linejoin="round"/>
<path d="M97.2788 165.455C98.2502 162.199 99.2213 158.943 100.193 155.687" stroke="var(--illustration-currentColor)" stroke-width="0.9" stroke-linecap="round" stroke-linejoin="round"/>
<path d="M100.192 155.687C97.6722 155.655 94.9761 156.307 93.0042 157.875C91.7784 158.855 90.7017 160.309 90.9387 161.86C91.1112 162.992 91.9773 163.928 92.9895 164.463C94.0017 164.999 95.1594 165.195 96.2994 165.344C96.6243 165.388 96.9519 165.426 97.2795 165.464C100.355 165.812 103.456 165.888 106.545 165.689C107.376 165.636 108.35 165.622 108.868 166.274C108.966 166.398 109.042 166.537 109.093 166.687C109.224 167.164 109.25 167.664 109.169 168.153C109.023 169.671 108.875 171.19 108.727 172.71C108.663 173.366 108.602 174.018 108.537 174.674" stroke="var(--illustration-currentColor)" stroke-width="0.9" stroke-linecap="round" stroke-linejoin="round"/>
<path d="M157.694 132.683V132.669C157.598 131.186 157.744 129.698 158.128 128.263C158.259 127.769 158.59 127.172 159.09 127.265C159.523 127.347 159.672 127.877 159.736 128.31C159.885 129.307 160.033 130.303 160.181 131.297C161.979 129.821 163.929 128.54 165.997 127.476C166.339 127.267 166.724 127.139 167.123 127.104C167.323 127.092 167.522 127.144 167.691 127.252C167.86 127.361 167.99 127.52 168.063 127.707C168.2 128.204 167.773 128.652 167.358 128.98C167.331 128.997 167.308 129.018 167.284 129.035C165.819 130.15 164.354 131.264 162.89 132.376" stroke="var(--illustration-currentColor)" stroke-width="0.9" stroke-linecap="round" stroke-linejoin="round"/>
<path d="M167.064 129.313C167.173 129.22 167.287 129.123 167.401 129.032C167.769 128.691 168.23 128.468 168.726 128.392C169.367 128.333 170.093 128.874 169.961 129.506C169.844 129.848 169.611 130.138 169.303 130.325C169.294 130.331 169.285 130.34 169.276 130.346C167.74 131.513 166.203 132.681 164.666 133.851L164.99 133.508" stroke="var(--illustration-currentColor)" stroke-width="0.9" stroke-linecap="round" stroke-linejoin="round"/>
<path d="M169.148 130.384C169.197 130.358 169.249 130.338 169.303 130.325C169.552 130.279 169.81 130.324 170.029 130.451C170.249 130.578 170.415 130.779 170.499 131.019C170.573 131.292 170.577 131.58 170.51 131.855C170.443 132.13 170.307 132.384 170.116 132.593C169.728 133.005 169.273 133.348 168.77 133.608C166.011 135.234 163.25 136.86 160.488 138.485C160.614 138.438 160.739 138.388 160.865 138.341" stroke="var(--illustration-currentColor)" stroke-width="0.9" stroke-linecap="round" stroke-linejoin="round"/>
<path d="M109.165 166.67C109.432 165.86 109.807 165.091 110.28 164.382C110.331 164.276 110.406 164.183 110.497 164.109C110.589 164.036 110.695 163.983 110.809 163.955C110.942 163.956 111.071 164.003 111.172 164.09C111.273 164.176 111.342 164.294 111.365 164.426C111.406 164.689 111.382 164.958 111.295 165.21C111.078 166.073 110.774 166.745 110.558 167.61" stroke="var(--illustration-currentColor)" stroke-width="0.9" stroke-linecap="round" stroke-linejoin="round"/>
<path d="M110.464 167.638C110.496 167.629 110.525 167.62 110.557 167.615C112.216 167.172 113.887 166.776 115.569 166.427C115.903 166.331 116.255 166.31 116.599 166.367C116.769 166.398 116.926 166.483 117.045 166.608C117.165 166.733 117.242 166.894 117.266 167.066C117.286 167.519 116.824 167.826 116.414 168.019C116.321 168.063 116.227 168.107 116.131 168.148C114.694 168.801 113.171 169.241 111.608 169.456" stroke="var(--illustration-currentColor)" stroke-width="0.9" stroke-linecap="round" stroke-linejoin="round"/>
<path d="M116.134 168.15C116.59 168.068 116.804 167.88 117.244 168.024C117.684 168.168 118.054 168.624 117.943 169.072C117.903 169.2 117.836 169.318 117.747 169.419C117.658 169.519 117.548 169.599 117.425 169.654C117.243 169.747 117.052 169.823 116.855 169.879C115.304 170.341 113.737 170.739 112.154 171.072" stroke="var(--illustration-currentColor)" stroke-width="0.9" stroke-linecap="round" stroke-linejoin="round"/>
<path d="M117.449 169.7C119.024 170.24 118.139 170.915 117.827 171.2C117.492 171.468 117.099 171.653 116.68 171.74C114.095 172.473 111.411 172.801 108.725 172.712H108.682" stroke="var(--illustration-currentColor)" stroke-width="0.9" stroke-linecap="round" stroke-linejoin="round"/>
<path d="M95.0817 180.466V180.548C95.3538 199.377 86.8404 218.145 72.5022 230.348C71.7885 230.954 71.0073 231.647 70.9254 232.578C70.8978 233.01 70.9977 233.441 71.2122 233.818C71.4516 234.238 71.7405 234.628 72.0723 234.979C73.2177 236.254 74.4597 237.439 75.7875 238.522C77.0514 239.552 78.4875 240.526 80.1174 240.626C80.1525 240.629 80.1876 240.629 80.2227 240.629C82.1652 240.699 83.9295 239.519 85.4508 238.282C85.4886 238.247 85.5267 238.218 85.5648 238.186C92.5131 232.458 97.8756 224.948 101.696 216.797C104.549 210.709 106.564 204.264 107.992 197.687C108.478 195.455 108.892 193.211 109.252 190.958" stroke="var(--illustration-currentColor)" stroke-width="0.9" stroke-linecap="round" stroke-linejoin="round"/>
<path d="M107.995 197.665C107.995 197.672 107.994 197.68 107.992 197.686C106.939 210.965 105.994 224.785 104.967 238.214C104.807 240.329 104.643 242.433 104.476 244.527C104.416 245.307 104.364 246.142 104.748 246.823C105.204 247.631 106.091 247.967 107.041 248.111C107.484 248.176 107.931 248.212 108.378 248.219C110.643 248.278 112.908 248.337 115.174 248.398C116.599 248.436 118.118 248.447 119.314 247.678C119.477 247.571 119.633 247.453 119.78 247.324C121.418 245.854 121.503 243.172 121.403 240.887C121.318 238.912 121.245 236.938 121.184 234.966C120.59 216.746 120.85 198.61 122.047 180.387" stroke="var(--illustration-currentColor)" stroke-width="0.9" stroke-linecap="round" stroke-linejoin="round"/>
<path d="M71.136 233.857C69.996 234.045 69.1146 234.961 68.664 236.047C68.5482 236.323 68.46 236.609 68.4006 236.902C68.1198 238.326 68.427 239.792 68.7306 241.214C69.1434 243.145 69.5568 245.075 69.9711 247.004C70.17 247.931 70.3836 248.891 70.9686 249.637C71.817 250.719 73.2507 251.12 74.5845 251.456C76.1967 251.866 77.8098 252.274 79.4235 252.679C80.0613 252.84 80.8014 252.984 81.3252 252.583C81.9453 252.106 81.8838 251.167 81.7611 250.394C81.2493 247.141 80.7363 243.889 80.2221 240.638" stroke="var(--illustration-currentColor)" stroke-width="0.9" stroke-linecap="round" stroke-linejoin="round"/>
<path d="M107.029 248.19C106.33 250.431 105.736 252.892 107.132 254.779C107.986 255.934 109.412 256.496 110.757 256.999C113.518 258.032 116.307 259.073 119.226 259.494C122.146 259.916 125.244 259.679 127.83 258.264C129.416 257.398 130.89 255.567 130.127 253.931C129.755 253.133 128.948 252.644 128.187 252.203L119.779 247.323" stroke="var(--illustration-currentColor)" stroke-width="0.9" stroke-linecap="round" stroke-linejoin="round"/>
<path d="M121.142 234.975C121.157 234.972 121.168 234.969 121.183 234.966C130.366 232.772 130.852 232.532 140.348 227.263" stroke="var(--illustration-currentColor)" stroke-width="0.9" stroke-linecap="round" stroke-linejoin="round"/>
<path d="M85.5176 238.363C95.0696 239.293 95.1221 239.085 104.879 238.208" stroke="var(--illustration-currentColor)" stroke-width="0.9" stroke-linecap="round" stroke-linejoin="round"/>
<path d="M200.185 234.08C200.316 234.08 200.448 234.083 200.577 234.083C225.353 234.256 226.254 231.602 226.254 231.602L226.266 227.316L226.661 87.0446L226.667 84.7715C175.455 70.7288 140.761 97.3691 140.761 97.3691C140.761 97.3691 113.501 78.9899 58.5707 87.2495L58.553 89.1188L57.143 230.985L57.1256 232.84C57.1256 232.84 56.9705 233.77 68.5352 235.99" stroke="var(--illustration-currentColor)" stroke-width="0.9" stroke-linecap="round" stroke-linejoin="round"/>
<path d="M140.656 149.376L140.349 227.263C153.358 231.373 152.393 231.186 164.923 232.494" stroke="var(--illustration-currentColor)" stroke-width="0.9" stroke-linecap="round" stroke-linejoin="round"/>
<path d="M140.761 97.3687L140.864 136.504" stroke="var(--illustration-currentColor)" stroke-width="0.9" stroke-linecap="round" stroke-linejoin="round"/>
<path d="M58.5706 89.1104L58.5529 89.119L55.6771 90.3479L55.6537 93.7211L54.6766 226.439L54.6445 230.774L56.9176 230.982" stroke="var(--illustration-currentColor)" stroke-width="0.9" stroke-linecap="round" stroke-linejoin="round"/>
<path d="M55.54 93.7209L53.89 93.8583L53.7085 122.897L53.3224 184.682L53.1265 216.234L53.1061 219.546L53.0797 223.58L53.0707 225.023L53.062 226.439H54.5776" stroke="var(--illustration-currentColor)" stroke-width="0.9" stroke-linecap="round" stroke-linejoin="round"/>
<path d="M226.666 87.0448L228.527 86.8372L228.536 89.4205L228.934 224.993L228.94 227.059L228.738 227.079L226.307 227.316" stroke="var(--illustration-currentColor)" stroke-width="0.9" stroke-linecap="round" stroke-linejoin="round"/>
<path d="M228.577 89.4204L232.176 89.04L231.734 185.756L231.652 204.134L231.579 220.105L231.556 225.06L228.94 224.993" stroke="var(--illustration-currentColor)" stroke-width="0.9" stroke-linecap="round" stroke-linejoin="round"/>
<path d="M174.092 240.861L172.281 241.362C172.196 241.416 172.098 241.448 171.998 241.455L166.062 241.85C165.991 241.857 165.919 241.849 165.852 241.827L158.415 239.633C158.32 239.604 158.234 239.553 158.164 239.484C158.093 239.414 158.041 239.329 158.011 239.235C157.981 239.14 157.974 239.04 157.991 238.943C158.009 238.845 158.05 238.754 158.111 238.676L161.069 234.923C161.114 234.865 161.169 234.817 161.232 234.779L164.948 232.533L166.946 231.324C167.02 231.28 167.082 231.22 167.13 231.149L171.048 225.467C171.126 225.353 171.242 225.269 171.375 225.23C171.508 225.19 171.651 225.198 171.779 225.251L172.894 225.716L174.47 226.371C174.574 226.415 174.664 226.485 174.731 226.576L178.826 232.26L178.896 232.357" stroke="var(--illustration-currentColor)" stroke-width="0.9" stroke-linecap="round" stroke-linejoin="round"/>
<path d="M174.592 240.721L174.091 240.858" stroke="var(--illustration-currentColor)" stroke-width="0.9" stroke-linecap="round" stroke-linejoin="round"/>
<path d="M174.092 240.858C174.074 240.769 174.085 240.675 174.124 240.592L177.722 233.024C177.758 232.949 177.815 232.886 177.886 232.842L178.826 232.26L181.763 230.444C181.779 230.435 181.793 230.425 181.807 230.414C181.941 230.308 182.752 229.656 183.609 229.001C184.562 228.272 185.572 227.538 185.78 227.538H189.635C189.725 227.538 189.812 227.511 189.884 227.459L193.298 225.057C193.357 225.016 193.426 224.99 193.497 224.982C193.568 224.974 193.641 224.984 193.708 225.01L195.279 225.64L195.419 225.696C195.507 225.731 195.581 225.795 195.629 225.876L200.576 234.085L201.919 236.314C201.952 236.369 201.973 236.431 201.979 236.495C201.985 236.558 201.977 236.623 201.954 236.683L200.319 241.214C200.293 241.285 200.249 241.348 200.192 241.397C200.134 241.446 200.065 241.479 199.991 241.493C198.362 241.793 189.035 243.535 188.531 243.786C188.426 243.839 188.005 243.754 187.399 243.581C185.053 242.917 179.912 240.96 179.132 240.659C179.066 240.634 178.994 240.626 178.924 240.635L174.57 241.205C174.462 241.22 174.352 241.193 174.263 241.13C174.173 241.066 174.112 240.971 174.09 240.863L174.092 240.858Z" stroke="var(--illustration-currentColor)" stroke-width="0.9" stroke-linecap="round" stroke-linejoin="round"/>
<path d="M195.021 226.283L192.526 227.538L189.91 235.663L186.055 239.516L188.035 243.243L188.05 243.269" stroke="var(--illustration-currentColor)" stroke-width="0.9" stroke-linecap="round" stroke-linejoin="round"/>
<path d="M171.323 225.06L171.391 225.224L172.424 227.676L169.396 234.975L168.296 239.656L165.961 241.85L165.956 241.856" stroke="var(--illustration-currentColor)" stroke-width="0.9" stroke-linecap="round" stroke-linejoin="round"/>
<path d="M181.958 230.724C182.535 230.174 183.085 229.598 183.608 229.001C189.331 222.463 191.762 213.308 190.658 204.641C187.031 207.412 184.544 211.472 183.02 215.773C181.943 218.821 181.332 220.778 180.913 223.273C180.744 224.3 180.603 225.42 180.478 226.748" stroke="var(--illustration-currentColor)" stroke-width="0.9" stroke-linecap="round" stroke-linejoin="round"/>
<path d="M180.578 226.775C180.769 225.617 180.881 224.447 180.914 223.273C181.086 217.978 179.731 212.745 177.011 208.198C175.098 214.183 174.551 219.285 176.733 224.701C177.056 225.494 177.421 226.27 177.827 227.024" stroke="var(--illustration-currentColor)" stroke-width="0.9" stroke-linecap="round" stroke-linejoin="round"/>
<path d="M177.802 226.848C177.489 226.111 177.132 225.394 176.734 224.7C174.398 220.599 170.795 217.366 166.465 215.488C167.742 219.361 169.956 222.86 172.91 225.672" stroke="var(--illustration-currentColor)" stroke-width="0.9" stroke-linecap="round" stroke-linejoin="round"/>
<path d="M245.844 243.708C245.805 243.708 245.766 243.711 245.727 243.717L238.925 244.662C238.674 244.697 238.418 244.667 238.182 244.577L235.28 243.483C235.14 243.429 235.016 243.341 234.922 243.225C234.827 243.109 234.764 242.97 234.74 242.823C234.716 242.675 234.731 242.523 234.784 242.383C234.838 242.244 234.927 242.12 235.043 242.025L243.161 235.405C243.313 235.282 243.503 235.215 243.7 235.215H244.639C244.835 235.214 245.026 235.283 245.179 235.408L250.342 239.668L250.775 240.025C250.81 240.054 250.847 240.08 250.886 240.101L252.978 241.331L254.14 242.013C254.275 242.093 254.385 242.208 254.459 242.346C254.533 242.485 254.568 242.641 254.558 242.798C254.549 242.954 254.497 243.105 254.408 243.234C254.318 243.363 254.195 243.465 254.052 243.528L250.281 245.181C250.096 245.262 249.896 245.303 249.695 245.3C249.493 245.297 249.295 245.25 249.113 245.164L246.205 243.792C246.092 243.738 245.969 243.709 245.844 243.708Z" stroke="var(--illustration-currentColor)" stroke-width="0.9" stroke-linecap="round" stroke-linejoin="round"/>
<path d="M244.393 235.835L243.292 237.9C243.292 237.9 245.632 240.36 245.975 241.41C246.118 241.843 245.943 243.233 245.943 243.233" stroke="var(--illustration-currentColor)" stroke-width="0.9" stroke-linecap="round" stroke-linejoin="round"/>
<path d="M253.035 241.236C257.372 236.298 260.265 230.26 261.396 223.785C257.034 227.767 254.761 233.48 252.625 238.986C253.027 236.369 252.753 233.691 251.827 231.21C250.596 233.85 250.084 236.767 250.343 239.668C250.349 239.728 250.355 239.794 250.361 239.855" stroke="var(--illustration-currentColor)" stroke-width="0.9" stroke-linecap="round" stroke-linejoin="round"/>
<path d="M31.3628 246.75C31.3592 246.663 31.3748 246.576 31.4081 246.496C31.4414 246.416 31.4918 246.344 31.556 246.285L33.5249 244.43L37.4549 240.729C37.5554 240.635 37.6838 240.576 37.8206 240.562L40.7006 240.292C40.8392 240.279 40.9784 240.313 41.0957 240.389L43.1084 241.703C43.2263 241.779 43.3661 241.814 43.5062 241.802L45.2324 241.635C45.3785 241.623 45.5246 241.662 45.6449 241.746L49.5767 244.517C49.6955 244.601 49.781 244.724 49.8182 244.865C49.8551 245.006 49.841 245.155 49.7786 245.286L49.217 246.471C49.172 246.565 49.1045 246.646 49.0199 246.707C48.9356 246.768 48.8375 246.806 48.7343 246.819L41.4056 247.697L41.3756 247.7C41.3435 247.704 41.3111 247.706 41.279 247.706L31.9568 247.35C31.7999 247.344 31.6514 247.279 31.541 247.168C31.4306 247.056 31.3667 246.907 31.3628 246.75Z" stroke="var(--illustration-currentColor)" stroke-width="0.9" stroke-linecap="round" stroke-linejoin="round"/>
<path d="M40.7832 240.867L40.0869 243.269L41.3274 244.922V247.064" stroke="var(--illustration-currentColor)" stroke-width="0.9" stroke-linecap="round" stroke-linejoin="round"/>
<path d="M33.1685 245.299C33.2942 245.01 33.4112 244.72 33.5255 244.429C35.7635 238.701 35.942 232.613 35.4005 226.44C32.4839 231.738 32.0801 238.011 31.7438 244.052C31.4462 239.5 30.5399 235.008 29.0491 230.697C28.2621 235.325 28.7154 240.08 30.3629 244.476C29.1868 242.744 28.0097 241.011 26.8315 239.277C26.311 242.307 27.7765 245.523 31.3634 246.75C31.3898 246.758 31.4189 246.77 31.4483 246.78" stroke="var(--illustration-currentColor)" stroke-width="0.9" stroke-linecap="round" stroke-linejoin="round"/>
<path d="M110.455 121.757C110.408 121.388 110.365 121.022 110.317 120.654" stroke="var(--illustration-currentColor)" stroke-width="0.6" stroke-linecap="round" stroke-linejoin="round"/>
<path d="M53.3637 184.898C53.349 184.826 53.3373 184.755 53.3226 184.682C49.1157 161.983 40.7721 139.748 29.3066 119.52C26.039 113.753 22.5255 108.161 18.7661 102.742" stroke="var(--illustration-currentColor)" stroke-width="0.9" stroke-linecap="round" stroke-linejoin="round"/>
<path d="M18.5312 102.857C11.8172 132.294 15.8012 164.396 31.2107 190.363C31.3628 190.621 31.5179 190.878 31.673 191.133C35.8829 198.095 40.8569 204.565 46.5026 210.423C48.4391 212.435 50.453 214.371 52.5437 216.23" stroke="var(--illustration-currentColor)" stroke-width="0.9" stroke-linecap="round" stroke-linejoin="round"/>
<path d="M52.9362 209.049C50.8299 201.624 48.6231 194.228 46.3158 186.862C44.4696 180.961 42.5562 175.081 40.5756 169.222C35.9739 155.57 31.023 142.043 25.7227 128.64" stroke="var(--illustration-currentColor)" stroke-width="0.9" stroke-linecap="round" stroke-linejoin="round"/>
<path d="M53.6261 122.897C47.5052 106.073 37.8335 90.7643 25.269 78.0107" stroke="var(--illustration-currentColor)" stroke-width="0.9" stroke-linecap="round" stroke-linejoin="round"/>
<path d="M24.8042 77.5369C24.8159 77.7037 24.8276 77.8705 24.8393 78.04C25.7393 91.477 27.2822 106.204 29.3993 119.466" stroke="var(--illustration-currentColor)" stroke-width="0.9" stroke-linecap="round" stroke-linejoin="round"/>
<path d="M31.2933 191.361C24.4583 190.842 17.9309 188.307 12.5376 184.076" stroke="var(--illustration-currentColor)" stroke-width="0.9" stroke-linecap="round" stroke-linejoin="round"/>
<path d="M12.0342 184.112C12.4227 188.15 13.633 192.066 15.5906 195.62C17.5482 199.173 20.2119 202.289 23.4178 204.775C26.6237 207.261 30.3041 209.066 34.2329 210.077C38.162 211.089 42.2561 211.287 46.2641 210.658" stroke="var(--illustration-currentColor)" stroke-width="0.9" stroke-linecap="round" stroke-linejoin="round"/>
<path d="M52.658 219.543C50.2724 217.05 47.5427 214.911 44.5514 213.191C44.4422 213.107 44.3159 213.047 44.1812 213.016C44.0465 212.985 43.9067 212.983 43.7714 213.011C43.3649 213.169 43.3706 213.743 43.4714 214.167C43.8713 215.811 44.5997 217.358 45.6128 218.713C47.3537 221.091 49.8515 222.806 52.6958 223.576" stroke="var(--illustration-currentColor)" stroke-width="0.9" stroke-linecap="round" stroke-linejoin="round"/>
<path d="M45.4292 218.85C43.4192 218.73 40.9121 218.745 38.8994 218.625C40.0508 221.087 42.0161 223.076 44.4638 224.257C47.009 225.41 49.8665 225.679 52.5821 225.02" stroke="var(--illustration-currentColor)" stroke-width="0.9" stroke-linecap="round" stroke-linejoin="round"/>
<path d="M34.6792 99.2034C37.3969 105.906 39.9625 112.728 42.3556 119.624C46.672 132.063 50.4169 144.748 53.4592 157.44" stroke="var(--illustration-currentColor)" stroke-width="0.9" stroke-linecap="round" stroke-linejoin="round"/>
<path d="M42.6263 108.521C42.5387 112.222 42.4487 115.923 42.3563 119.624C42.3536 119.684 42.3536 119.746 42.3506 119.808" stroke="var(--illustration-currentColor)" stroke-width="0.9" stroke-linecap="round" stroke-linejoin="round"/>
<path d="M38.3315 124.217C41.888 128.877 45.2078 133.713 48.2783 138.707" stroke="var(--illustration-currentColor)" stroke-width="0.9" stroke-linecap="round" stroke-linejoin="round"/>
<path d="M32.0098 133.312C32.4226 138.131 32.8339 142.95 33.2443 147.77" stroke="var(--illustration-currentColor)" stroke-width="0.9" stroke-linecap="round" stroke-linejoin="round"/>
<path d="M30.2485 157.694C33.7855 162.217 37.2985 165.669 40.8361 170.189" stroke="var(--illustration-currentColor)" stroke-width="0.9" stroke-linecap="round" stroke-linejoin="round"/>
<path d="M46.0259 175.227C46.1225 179.106 46.2191 182.985 46.3157 186.861C46.3178 186.886 46.3187 186.91 46.3184 186.935" stroke="var(--illustration-currentColor)" stroke-width="0.9" stroke-linecap="round" stroke-linejoin="round"/>
<path d="M41.4855 161.816C40.7307 164.733 40.4091 166.222 40.5756 169.22C40.5756 169.235 40.5786 169.247 40.5786 169.262" stroke="var(--illustration-currentColor)" stroke-width="0.9" stroke-linecap="round" stroke-linejoin="round"/>
<path d="M22.7593 137.601C25.9276 140.945 29.8186 144.438 32.9892 147.785" stroke="var(--illustration-currentColor)" stroke-width="0.9" stroke-linecap="round" stroke-linejoin="round"/>
<path d="M49.683 129.173C49.3029 132.391 48.9216 135.611 48.5391 138.833C48.5799 138.572 48.618 138.312 48.6591 138.053" stroke="var(--illustration-currentColor)" stroke-width="0.9" stroke-linecap="round" stroke-linejoin="round"/>
<path d="M33.5425 113.114C36.2194 115.326 39.5107 117.391 42.1876 119.603" stroke="var(--illustration-currentColor)" stroke-width="0.9" stroke-linecap="round" stroke-linejoin="round"/>
<path d="M231.9 185.756C240.489 178.406 243.476 168.305 245.685 157.217C247.894 146.13 248.4 134.723 251.175 123.764C253.95 112.805 259.466 101.901 269.082 95.9536C264.855 104.095 263.044 113.284 262.137 122.414C261.23 131.543 261.18 140.745 260.224 149.87C259.097 160.613 256.675 171.32 251.921 181.018C247.167 190.717 241.155 198.686 231.828 204.133" stroke="var(--illustration-currentColor)" stroke-width="0.9" stroke-linecap="round" stroke-linejoin="round"/>
<path d="M231.693 220.105C243.778 212.738 249.333 200.322 254.316 187.078C259.299 173.834 262.941 159.847 270.793 148.072C265.033 162.492 267.581 179.317 261.212 193.482C256.036 204.991 245.303 213.917 242.754 226.277" stroke="var(--illustration-currentColor)" stroke-width="0.9" stroke-linecap="round" stroke-linejoin="round"/>
<path d="M242.7 226.722C242.767 226.602 242.834 226.482 242.905 226.362C245.087 222.625 248.189 219.508 251.915 217.308C252.875 216.743 254.063 216.234 255.06 216.728C256.345 217.363 256.415 219.166 256.116 220.568C255.701 222.674 254.812 224.657 253.516 226.367" stroke="var(--illustration-currentColor)" stroke-width="0.9" stroke-linecap="round" stroke-linejoin="round"/>
<path d="M228.527 227.07L228.737 227.079C233.392 227.272 238.05 227.285 242.713 227.119C246.323 226.996 249.925 226.765 253.519 226.426C254.207 226.359 254.892 226.292 255.576 226.219" stroke="var(--illustration-currentColor)" stroke-width="0.9" stroke-linecap="round" stroke-linejoin="round"/>
<path d="M232.039 194.567C241.187 190.934 245.698 182.95 248.922 173.65C252.146 164.35 252.71 154.376 253.459 144.561C254.209 134.746 255.22 124.743 259.234 115.753" stroke="var(--illustration-currentColor)" stroke-width="0.9" stroke-linecap="round" stroke-linejoin="round"/>
<path d="M232.039 179.217C239.659 169.428 240.549 159.695 241.564 147.332C242.579 134.968 241.918 122.492 243.384 110.171C244.086 104.273 245.279 98.4435 246.95 92.7438C247.003 92.5593 247.055 92.3751 247.111 92.1939C247.243 91.7517 247.377 91.3101 247.515 90.8685C248.74 86.9358 250.188 83.0757 251.85 79.3068C251.9 79.1898 251.952 79.0698 252.005 78.9528C252.312 78.2628 252.628 77.5728 252.95 76.8873C253.014 76.7526 253.076 76.6173 253.14 76.4835C254.704 73.1916 256.433 69.9801 258.318 66.8613C258.356 66.7971 258.397 66.7299 258.436 66.6654C258.766 66.1212 259.102 65.58 259.445 65.0418C259.459 65.0142 259.476 64.9878 259.495 64.9629C261.432 61.8951 263.527 58.9296 265.77 56.0778C265.864 55.9578 265.957 55.8408 266.051 55.7208C266.261 55.4547 266.471 55.1913 266.686 54.9282" stroke="var(--illustration-currentColor)" stroke-width="0.9" stroke-linecap="round" stroke-linejoin="round"/>
<path d="M226.354 71.3316C227.513 71.3169 228.703 71.2962 229.783 70.872C231.207 70.3134 232.427 68.883 231.79 67.2009C231.609 66.7542 231.324 66.3573 230.959 66.0432C230.594 65.7291 230.159 65.5071 229.69 65.3955C227.852 64.9215 226.06 65.8869 224.76 67.1712C226.29 64.8279 225.073 61.1973 222.44 60.2466C219.807 59.2959 216.554 61.3143 216.232 64.0935C216.352 61.6653 213.941 59.439 211.531 59.7519C209.12 60.0648 207.356 62.8329 208.09 65.1501C207.385 64.3923 206.46 63.8739 205.446 63.6672C204.432 63.4602 203.378 63.5754 202.432 63.9966C201.487 64.4178 200.696 65.1237 200.171 66.0159C199.646 66.9084 199.413 67.9422 199.504 68.9736C199.507 69.0174 199.5 69.0618 199.484 69.1029C199.467 69.1437 199.442 69.1806 199.409 69.2103C199.376 69.2403 199.338 69.2622 199.295 69.2751C199.253 69.2877 199.208 69.2907 199.165 69.2835C197.746 69.0903 193.395 70.8252 195.733 72.7884C197.45 74.2284 201.206 72.0513 203 71.7267C210.357 70.3896 218.87 71.4225 226.354 71.3316Z" stroke="var(--illustration-currentColor)" stroke-width="0.9" stroke-linecap="round" stroke-linejoin="round"/>
<path d="M159.011 50.5982C161.761 50.5016 164.51 50.4071 167.258 50.3144C168.63 50.2646 170.048 50.2091 171.243 49.472C171.675 49.2086 172.039 48.848 172.308 48.4187C173.604 46.3034 171.579 44.4194 169.651 44.4077C168.159 44.402 166.79 45.2387 165.675 46.2305C167.071 44.4371 166.67 41.5232 164.841 40.1744C164.271 39.7778 163.614 39.5234 162.926 39.4316C162.238 39.3401 161.537 39.4142 160.883 39.6479C160.049 39.9164 159.322 40.4441 158.809 41.1545C159.836 38.2055 157.381 34.8149 154.312 34.2245C151.243 33.6341 148.069 35.3507 146.203 37.8545C147.291 35.3591 145.96 32.1845 143.549 30.9152C141.138 29.6459 138.005 30.1778 135.905 31.9127C133.805 33.6476 132.701 36.4064 132.637 39.1301C131.604 36.5996 130.027 33.7301 127.052 33.8801C126.375 33.9296 125.717 34.1321 125.129 34.4726C124.542 34.8131 124.038 35.2829 123.659 35.846C121.883 38.3738 122.187 41.39 122.506 44.2511C119.44 42.5777 115.122 45.1025 114.431 48.5282C114.546 47.9582 106.202 48.6182 109.496 51.9221C111.014 53.4461 118.322 51.9923 120.174 51.9278L150.114 50.9009C153.078 50.7998 156.044 50.6987 159.011 50.5982Z" stroke="var(--illustration-currentColor)" stroke-width="0.9" stroke-linecap="round" stroke-linejoin="round"/>
<path d="M160.842 39.8557C160.854 39.7855 160.868 39.7153 160.883 39.6481C162.361 32.0008 169.192 28.5309 175.353 28.1037C181.567 27.6738 187.877 31.2837 190.653 36.8638C193.619 42.829 192.483 50.2657 188.943 55.9093C186.096 60.4468 181.567 64.1416 176.278 64.9993C174.241 65.3191 172.16 65.2213 170.161 64.7125C168.162 64.2034 166.288 63.2938 164.652 62.0386C161.469 59.5693 159.444 54.6487 159.012 50.5995C159.003 50.5116 158.994 50.4241 158.985 50.3392" stroke="var(--illustration-currentColor)" stroke-width="0.9" stroke-linecap="round" stroke-linejoin="round"/>
<path d="M59.624 44.8318C59.6534 44.9677 59.6915 45.1018 59.738 45.2326C59.7155 45.0952 59.6771 44.9608 59.624 44.8318Z" stroke="var(--illustration-currentColor)" stroke-width="0.9" stroke-linecap="round" stroke-linejoin="round"/>
<path d="M59.6243 44.8319C59.1299 43.6793 57.389 43.2491 56.2394 43.8986C54.9638 44.6186 54.3728 46.1573 54.2237 47.6171C54.323 46.6487 51.6521 46.2392 51.0785 46.3151C50.4785 46.4045 49.9136 46.6538 49.4432 47.0369C48.9725 47.42 48.614 47.9225 48.4046 48.4919C47.6762 50.4419 48.5627 52.3214 50.5433 52.7837C52.8251 53.3189 55.7156 52.88 58.0211 52.7894C61.5185 52.6496 65.0027 52.2773 68.4506 51.6749C69.767 51.4436 71.1332 51.1541 72.1706 50.3114C73.208 49.4687 73.7855 47.9066 73.1069 46.757C72.8195 46.3223 72.4028 45.989 71.9156 45.8036C71.4287 45.6185 70.8956 45.5906 70.3919 45.7241C69.8933 45.8738 69.4364 46.1384 69.0584 46.4966C68.6804 46.8548 68.3918 47.297 68.2154 47.7869C68.9234 45.8999 68.7302 43.6412 67.5161 42.035C66.302 40.4288 64.0229 39.6302 62.1389 40.3412C60.3848 40.9994 59.2235 43.0268 59.6243 44.8319Z" stroke="var(--illustration-currentColor)" stroke-width="0.9" stroke-linecap="round" stroke-linejoin="round"/>
<path d="M122.049 253.438C123.213 252.523 124.538 251.834 125.955 251.407" stroke="var(--illustration-currentColor)" stroke-width="0.9" stroke-linecap="round" stroke-linejoin="round"/>
<path d="M119.153 251.572C120.362 250.648 121.738 249.965 123.205 249.559" stroke="var(--illustration-currentColor)" stroke-width="0.9" stroke-linecap="round" stroke-linejoin="round"/>
<path d="M116.959 250.276C118.153 249.368 119.495 248.675 120.926 248.228" stroke="var(--illustration-currentColor)" stroke-width="0.9" stroke-linecap="round" stroke-linejoin="round"/>
<path d="M76.127 247.008C77.6834 247.348 79.2398 247.686 80.7962 248.023" stroke="var(--illustration-currentColor)" stroke-width="0.9" stroke-linecap="round" stroke-linejoin="round"/>
<path d="M76.2559 244.226C77.7037 244.506 79.153 244.788 80.6032 245.071" stroke="var(--illustration-currentColor)" stroke-width="0.9" stroke-linecap="round" stroke-linejoin="round"/>
<path d="M75.644 241.438C77.0567 241.863 78.5099 242.139 79.9796 242.262" stroke="var(--illustration-currentColor)" stroke-width="0.9" stroke-linecap="round" stroke-linejoin="round"/>
<path d="M266.651 54.8955C266.653 54.8811 266.659 54.8694 266.662 54.8547C267.091 53.256 267.152 51.5805 266.839 49.9545C266.527 48.3288 265.849 46.7952 264.857 45.4695C264.584 45.0765 264.233 44.7432 263.827 44.4894C263.624 44.3634 263.393 44.2872 263.155 44.2674C262.916 44.2476 262.677 44.2848 262.455 44.3754C262.219 44.5065 262.02 44.6967 261.88 44.9274C261.739 45.1584 261.661 45.4218 261.654 45.6918C261.642 46.2333 261.74 46.7715 261.94 47.2746C262.935 50.247 264.497 52.9971 266.05 55.7205C266.053 55.7289 266.057 55.737 266.062 55.7439" stroke="var(--illustration-currentColor)" stroke-width="0.9" stroke-linecap="round" stroke-linejoin="round"/>
<path d="M266.525 54.969C266.569 54.9288 266.614 54.8907 266.662 54.855C268.496 53.2962 270.715 52.26 273.087 51.855C273.668 51.7233 274.272 51.7293 274.851 51.8727C275.139 51.9477 275.401 52.1007 275.607 52.3149C275.813 52.5291 275.957 52.7964 276.021 53.0868C276.041 53.3565 275.997 53.6274 275.893 53.877C275.789 54.1266 275.627 54.348 275.421 54.5232C274.523 55.3716 273.189 55.5132 271.957 55.6056C269.897 55.7655 267.837 55.9245 265.777 56.0826" stroke="var(--illustration-currentColor)" stroke-width="0.9" stroke-linecap="round" stroke-linejoin="round"/>
<path d="M259.295 64.9482C259.605 61.1127 259.453 57.0171 257.397 53.7666C257.09 53.2308 256.667 52.7709 256.159 52.4208C255.904 52.248 255.61 52.1385 255.304 52.1013C254.998 52.0641 254.687 52.1007 254.398 52.2075C254.089 52.365 253.826 52.5996 253.634 52.8888C253.442 53.1777 253.329 53.5116 253.304 53.8575C253.264 54.5499 253.36 55.2438 253.587 55.8993C254.661 59.6265 256.431 63.1137 258.237 66.5454" stroke="var(--illustration-currentColor)" stroke-width="0.9" stroke-linecap="round" stroke-linejoin="round"/>
<path d="M259.556 65.0008C262.667 63.3055 266.222 62.5993 269.746 62.9764C270.326 63.0016 270.892 63.1597 271.402 63.4387C271.653 63.5824 271.857 63.7975 271.987 64.0567C272.117 64.3159 272.168 64.6075 272.133 64.8955C271.975 65.6755 271.083 66.0355 270.307 66.2209C266.431 67.1425 262.394 67.0309 258.412 66.9172" stroke="var(--illustration-currentColor)" stroke-width="0.9" stroke-linecap="round" stroke-linejoin="round"/>
<path d="M252.737 76.7876C252.581 74.1224 252.424 71.4458 251.882 68.8331C251.341 66.2204 250.399 63.6491 248.805 61.5077C248.461 60.9833 247.995 60.5495 247.447 60.2438C247.172 60.0944 246.859 60.0266 246.546 60.0485C246.233 60.0701 245.933 60.1805 245.68 60.3665C245.133 60.8375 245.098 61.6655 245.145 62.3852C245.537 68.4293 248.603 73.9295 251.593 79.1924" stroke="var(--illustration-currentColor)" stroke-width="0.9" stroke-linecap="round" stroke-linejoin="round"/>
<path d="M253.307 76.5624C255.911 75.597 257.856 74.9358 260.595 74.4708C263.333 74.0058 266.2 74.0146 268.83 74.9008C269.538 75.1378 270.319 75.5532 270.436 76.2906C270.53 76.8873 270.132 77.4549 269.679 77.8587C267.824 79.5057 265.071 79.4998 262.593 79.4035L252.09 78.99" stroke="var(--illustration-currentColor)" stroke-width="0.9" stroke-linecap="round" stroke-linejoin="round"/>
<path d="M247.418 90.8918C245.828 85.1138 243.644 79.2158 239.247 75.1436C238.469 74.4236 237.351 73.7363 236.418 74.2367C235.631 74.6609 235.449 75.7112 235.502 76.6067C235.666 79.3157 237.122 81.7703 238.729 83.9585C241.04 87.1064 243.737 89.9522 246.757 92.4299C246.839 92.3423 246.92 92.2517 247.002 92.1599" stroke="var(--illustration-currentColor)" stroke-width="0.9" stroke-linecap="round" stroke-linejoin="round"/>
<path d="M247.354 90.9561C247.38 90.9417 247.403 90.9261 247.43 90.9153C247.46 90.8976 247.485 90.8832 247.515 90.8685C250.563 89.1981 253.632 87.5247 256.92 86.4069C260.267 85.2669 263.886 84.7161 267.356 85.3977C267.827 85.4877 268.38 85.6845 268.482 86.1525C268.572 86.5563 268.272 86.9364 267.972 87.2232C265.286 89.7978 261.387 90.5817 257.694 91.0263C254.002 91.4709 250.284 90.9183 247.06 92.7759" stroke="var(--illustration-currentColor)" stroke-width="0.9" stroke-linecap="round" stroke-linejoin="round"/>
<path d="M155.259 76.2773L157.85 77.6096C157.888 77.6294 157.92 77.6609 157.941 77.6993C157.961 77.738 157.969 77.7818 157.964 77.8253C157.959 77.8685 157.94 77.9093 157.911 77.9417C157.882 77.9744 157.844 77.9972 157.801 78.0071L154.967 78.6794C154.925 78.689 154.888 78.7106 154.859 78.7415C154.83 78.7724 154.811 78.8111 154.805 78.8528L154.338 81.7286C154.331 81.7718 154.311 81.8117 154.281 81.8432C154.25 81.8744 154.211 81.8957 154.169 81.9041C154.126 81.9125 154.081 81.9077 154.041 81.89C154.001 81.8726 153.968 81.8429 153.945 81.8057L152.43 79.3172C152.408 79.2812 152.376 79.2524 152.337 79.2344C152.299 79.2167 152.256 79.2107 152.215 79.217L149.335 79.6619C149.291 79.6688 149.247 79.6619 149.208 79.6427C149.169 79.6238 149.136 79.5929 149.115 79.5548C149.094 79.5167 149.085 79.4729 149.09 79.4294C149.094 79.3859 149.112 79.3448 149.14 79.3118L151.039 77.1017C151.066 77.0699 151.084 77.0306 151.089 76.9886C151.094 76.9469 151.087 76.9043 151.069 76.8665L149.756 74.2655C149.736 74.2265 149.729 74.1824 149.735 74.1395C149.741 74.0963 149.76 74.0558 149.79 74.024C149.82 73.9922 149.858 73.97 149.901 73.9607C149.944 73.9517 149.988 73.9556 150.029 73.9724L152.717 75.095C152.756 75.1112 152.799 75.1157 152.84 75.1076C152.882 75.0995 152.92 75.0794 152.95 75.0497L155.018 72.9971C155.048 72.9665 155.088 72.9458 155.131 72.9383C155.174 72.9308 155.218 72.9365 155.258 72.9551C155.297 72.9734 155.33 73.0034 155.352 73.0412C155.374 73.079 155.384 73.1225 155.381 73.166L155.144 76.0697C155.14 76.1117 155.15 76.154 155.17 76.1909C155.19 76.2278 155.221 76.2578 155.259 76.2773Z" stroke="var(--illustration-currentColor)" stroke-width="0.9" stroke-linecap="round" stroke-linejoin="round"/>
<path d="M86.6229 60.8397L90.9264 61.3275C90.9624 61.3323 90.9963 61.3476 91.0233 61.3719C91.0503 61.3962 91.0696 61.428 91.0783 61.4631C91.087 61.4985 91.0849 61.5357 91.072 61.5696C91.0591 61.6035 91.0362 61.6329 91.0065 61.6536L87.4194 64.0797C87.39 64.0998 87.3676 64.1277 87.3541 64.1607C87.3406 64.1934 87.3372 64.2294 87.3441 64.2639L88.2105 68.5074C88.2171 68.5431 88.213 68.58 88.1983 68.6133C88.1839 68.6466 88.1593 68.6748 88.1287 68.6937C88.0978 68.7129 88.0618 68.7222 88.0255 68.7207C87.9892 68.7189 87.9544 68.7063 87.9253 68.6844L84.5095 66.0237C84.4816 66.0021 84.4477 65.9892 84.4126 65.9868C84.3772 65.9841 84.3421 65.9922 84.3112 66.0093L80.5429 68.1444C80.511 68.1621 80.4745 68.1693 80.4385 68.1657C80.4022 68.1621 80.368 68.1477 80.3401 68.124C80.3125 68.1006 80.2923 68.0694 80.2827 68.0343C80.2731 67.9992 80.2743 67.962 80.2863 67.9275L81.7615 63.855C81.7735 63.822 81.7753 63.786 81.7669 63.7515C81.7585 63.7173 81.7398 63.6861 81.714 63.6621L78.519 60.738C78.4926 60.7131 78.4744 60.681 78.4666 60.6453C78.4588 60.6099 78.4621 60.5727 78.4756 60.5391C78.4894 60.5055 78.5127 60.4767 78.5433 60.4569C78.5736 60.4368 78.6093 60.4263 78.6456 60.4269L82.9744 60.5712C83.0098 60.5724 83.0442 60.5628 83.0742 60.5442C83.1042 60.5256 83.1282 60.4986 83.1429 60.4665L84.9366 56.5242C84.9522 56.4915 84.9772 56.4639 85.0087 56.4456C85.0402 56.4273 85.0765 56.4189 85.1128 56.4216C85.1491 56.4243 85.1835 56.4378 85.212 56.4606C85.2402 56.4834 85.2613 56.514 85.2717 56.5488L86.4717 60.7104C86.4813 60.7446 86.5009 60.7749 86.5279 60.798C86.5549 60.8211 86.5878 60.8355 86.6229 60.8397Z" fill="var(--illustration-currentColor)"/>
<path d="M222.371 32.5144L225.091 32.179C225.114 32.1763 225.137 32.1805 225.158 32.1913C225.178 32.2021 225.195 32.2189 225.206 32.2393C225.216 32.26 225.22 32.2834 225.217 32.3062C225.214 32.3293 225.204 32.3506 225.188 32.3677L223.34 34.3906C223.325 34.4071 223.315 34.4278 223.312 34.45C223.308 34.4719 223.312 34.4947 223.321 34.5148L224.481 36.9976C224.491 37.0186 224.494 37.042 224.489 37.0648C224.486 37.0876 224.474 37.1086 224.458 37.1248C224.442 37.1413 224.421 37.1521 224.398 37.1563C224.375 37.1602 224.352 37.1572 224.331 37.1476L221.836 36.0151C221.815 36.0061 221.792 36.0031 221.771 36.0067C221.748 36.0103 221.728 36.0202 221.712 36.0355L219.709 37.9057C219.692 37.9216 219.671 37.9318 219.648 37.9351C219.625 37.9381 219.602 37.9345 219.581 37.924C219.56 37.9138 219.543 37.8973 219.532 37.8769C219.521 37.8565 219.516 37.8334 219.519 37.8103L219.825 35.0872C219.827 35.065 219.823 35.0425 219.813 35.0227C219.803 35.0029 219.787 34.9864 219.767 34.9753L217.37 33.6484C217.349 33.6373 217.333 33.6202 217.323 33.5995C217.313 33.5785 217.309 33.5551 217.312 33.5323C217.316 33.5095 217.326 33.4882 217.342 33.4714C217.358 33.4546 217.379 33.4432 217.402 33.4384L220.086 32.8876C220.108 32.8831 220.128 32.8723 220.144 32.8561C220.16 32.8402 220.17 32.8198 220.175 32.7976L220.696 30.1075C220.7 30.0847 220.711 30.064 220.728 30.0478C220.745 30.0316 220.766 30.0208 220.788 30.0172C220.811 30.0133 220.835 30.0166 220.856 30.0268C220.877 30.0367 220.894 30.0529 220.906 30.073L222.259 32.4559C222.269 32.476 222.286 32.4922 222.306 32.5027C222.326 32.5132 222.349 32.5171 222.371 32.5144Z" fill="var(--illustration-currentColor)"/>
<path d="M86.2425 131.882L88.5399 133.674C88.5741 133.7 88.5996 133.737 88.6125 133.779C88.6254 133.821 88.6251 133.865 88.6119 133.907C88.5984 133.948 88.5729 133.985 88.5381 134.011C88.5036 134.038 88.4616 134.053 88.4181 134.055L85.5081 134.187C85.4658 134.189 85.4253 134.203 85.3911 134.229C85.3572 134.253 85.3314 134.288 85.317 134.328L84.3228 137.066C84.3078 137.107 84.2805 137.143 84.2451 137.168C84.2094 137.193 84.1668 137.206 84.1233 137.207C84.0798 137.207 84.0369 137.194 84.0012 137.169C83.9652 137.145 83.9376 137.109 83.9223 137.069L82.8972 134.341C82.8822 134.302 82.8561 134.268 82.8219 134.243C82.7877 134.219 82.7469 134.205 82.7049 134.203L79.7931 134.104C79.7493 134.102 79.7073 134.087 79.6725 134.061C79.6377 134.035 79.6116 133.999 79.5978 133.957C79.584 133.916 79.5834 133.872 79.5957 133.83C79.608 133.788 79.6329 133.751 79.6671 133.724L81.9441 131.906C81.9771 131.88 82.0014 131.844 82.0143 131.804C82.0272 131.764 82.0278 131.721 82.0161 131.68L81.2097 128.88C81.1977 128.838 81.1989 128.793 81.213 128.752C81.2271 128.711 81.2535 128.675 81.2886 128.649C81.3237 128.623 81.366 128.609 81.4095 128.608C81.453 128.607 81.4959 128.619 81.5325 128.643L83.9649 130.246C84 130.27 84.0411 130.282 84.0834 130.282C84.1254 130.282 84.1668 130.27 84.2019 130.246L86.616 128.615C86.652 128.59 86.6949 128.578 86.7384 128.578C86.7819 128.579 86.8245 128.593 86.8599 128.618C86.8953 128.644 86.922 128.679 86.9367 128.721C86.9511 128.762 86.9526 128.806 86.9412 128.848L86.1675 131.657C86.1564 131.698 86.1579 131.741 86.1711 131.781C86.1846 131.821 86.2092 131.856 86.2425 131.882Z" stroke="var(--illustration-currentColor)" stroke-width="0.9" stroke-miterlimit="10"/>
<path d="M51.9255 75.9332L47.3511 71.8376" stroke="var(--illustration-currentColor)" stroke-width="0.9" stroke-linecap="round" stroke-linejoin="round"/>
<path d="M47.6968 76.7646C48.85 74.9646 50.0032 73.164 51.1558 71.3625" stroke="var(--illustration-currentColor)" stroke-width="0.9" stroke-linecap="round" stroke-linejoin="round"/>
<path d="M104.634 33.7744C105.462 32.605 106.289 31.4356 107.117 30.2668" stroke="var(--illustration-currentColor)" stroke-width="0.9" stroke-linecap="round" stroke-linejoin="round"/>
<path d="M107.321 33.7535C106.287 32.3093 105.253 30.8648 104.219 29.4204" stroke="var(--illustration-currentColor)" stroke-width="0.9" stroke-linecap="round" stroke-linejoin="round"/>
<path d="M235.397 50.4201C233.403 48.1704 231.795 45.6069 230.636 42.8328" stroke="var(--illustration-currentColor)" stroke-width="0.9" stroke-linecap="round" stroke-linejoin="round"/>
<path d="M229.979 49.0518L234.737 44.1018" stroke="var(--illustration-currentColor)" stroke-width="0.9" stroke-linecap="round" stroke-linejoin="round"/>
<path d="M94.9012 113.694L91.1812 108.534" stroke="var(--illustration-currentColor)" stroke-width="0.9" stroke-linecap="round" stroke-linejoin="round"/>
<path d="M90.5786 113.477C92.6318 112.053 94.4447 110.31 95.9486 108.315" stroke="var(--illustration-currentColor)" stroke-width="0.9" stroke-linecap="round" stroke-linejoin="round"/>
<path d="M132.225 112.173L134.535 109.731" stroke="var(--illustration-currentColor)" stroke-width="0.9" stroke-linecap="round" stroke-linejoin="round"/>
<path d="M134.565 112.65C133.739 111.549 132.913 110.447 132.087 109.346" stroke="var(--illustration-currentColor)" stroke-width="0.9" stroke-linecap="round" stroke-linejoin="round"/>
<path d="M82.7042 174.039C81.1358 173.216 79.8425 171.952 78.9842 170.403C78.1259 168.853 77.7401 167.086 77.8742 165.32" stroke="var(--illustration-currentColor)" stroke-width="0.9" stroke-linecap="round" stroke-linejoin="round"/>
<path d="M65.8052 246.877C65.2313 246.04 64.8731 245.075 64.7621 244.066C64.6511 243.058 64.7909 242.038 65.1689 241.096" stroke="var(--illustration-currentColor)" stroke-width="0.9" stroke-linecap="round" stroke-linejoin="round"/>
<path d="M173.389 124.835L184.747 112.651" stroke="var(--illustration-currentColor)" stroke-width="0.9" stroke-linecap="round" stroke-linejoin="round"/>
<path d="M169.465 122.77L169.878 117.194" stroke="var(--illustration-currentColor)" stroke-width="0.9" stroke-linecap="round" stroke-linejoin="round"/>
<path d="M175.454 128.14L182.268 129.379" stroke="var(--illustration-currentColor)" stroke-width="0.9" stroke-linecap="round" stroke-linejoin="round"/>
<path fill-rule="evenodd" clip-rule="evenodd" d="M162.926 39.4316C162.238 39.3401 161.537 39.4142 160.883 39.6479C160.049 39.9167 159.322 40.445 158.809 41.156C159.836 38.2076 157.378 34.8146 154.312 34.226C151.246 33.6374 148.069 35.3519 146.203 37.856C147.291 35.3606 145.957 32.1893 143.549 30.9167C141.142 29.644 138.003 30.1793 135.905 31.9142C133.807 33.6491 132.701 36.4079 132.637 39.1316C131.604 36.5996 130.027 33.7295 127.052 33.8816C126.375 33.9308 125.717 34.1336 125.129 34.4741C124.542 34.8146 124.038 35.2841 123.659 35.8475C121.883 38.3753 122.187 41.3915 122.506 44.2526C119.44 42.5792 115.121 45.104 114.431 48.5297C114.546 47.9594 106.202 48.6206 109.496 51.9236C110.652 53.0843 115.167 52.5176 118.072 52.1531C118.981 52.0388 119.733 51.9446 120.174 51.9293L150.114 50.9024C153.078 50.7995 156.044 50.6981 159.011 50.5982C161.759 50.5025 164.508 50.408 167.258 50.3144C168.63 50.2646 170.049 50.2091 171.243 49.472C171.675 49.2086 172.039 48.848 172.308 48.4187C173.604 46.3034 171.579 44.4194 169.651 44.4077C168.159 44.402 166.79 45.2387 165.675 46.2305C167.071 44.4371 166.671 41.5244 164.841 40.1744C164.271 39.7778 163.614 39.5231 162.926 39.4316ZM162.038 41.291C161.789 41.2877 161.585 41.4866 161.582 41.735C161.579 41.9837 161.778 42.1877 162.026 42.191C162.433 42.1961 162.832 42.3101 163.181 42.5213C163.529 42.7322 163.815 43.0325 164.009 43.391C164.202 43.7498 164.297 44.1536 164.282 44.5607C164.267 44.9678 164.144 45.3638 163.925 45.7073C163.791 45.917 163.852 46.1951 164.062 46.3286C164.271 46.4624 164.55 46.4009 164.683 46.1912C164.989 45.7124 165.161 45.161 165.181 44.5934C165.202 44.0258 165.071 43.4633 164.801 42.9635C164.531 42.4637 164.133 42.0452 163.647 41.7512C163.161 41.4572 162.606 41.2982 162.038 41.291ZM152.911 36.1844C152.931 35.9366 153.147 35.7515 153.395 35.771C154.518 35.8589 155.571 36.3491 156.361 37.1519C157.151 37.9544 157.625 39.0152 157.695 40.1393C157.71 40.3874 157.521 40.601 157.273 40.6166C157.026 40.6319 156.812 40.4435 156.796 40.1954C156.74 39.2879 156.357 38.4311 155.72 37.7831C155.082 37.1351 154.231 36.7391 153.325 36.6683C153.077 36.6488 152.892 36.4322 152.911 36.1844ZM141.086 30.8171C140.845 30.7556 140.6 30.9011 140.538 31.1417C140.477 31.3826 140.622 31.6277 140.863 31.6892C141.808 31.9307 142.64 32.4938 143.216 33.2822C143.791 34.0703 144.074 35.0342 144.016 36.0083C144.001 36.2564 144.19 36.4694 144.438 36.4841C144.687 36.4988 144.9 36.3098 144.914 36.0617C144.985 34.8788 144.641 33.7085 143.943 32.7515C143.244 31.7945 142.234 31.1105 141.086 30.8171Z" fill="var(--illustration-currentColor)"/>
<path d="M178.782 35.4782C176.689 35.1428 174.57 37.1711 174.812 39.2759C175.055 41.3807 177.581 42.8732 179.542 42.0701C181.503 41.267 182.257 38.4317 180.952 36.7601" stroke="var(--illustration-currentColor)" stroke-width="0.9" stroke-linecap="round" stroke-linejoin="round"/>
<path d="M166.806 55.0413C166.69 55.509 166.705 55.9995 166.847 56.46C166.99 56.9202 167.255 57.333 167.614 57.654C167.974 57.9747 168.414 58.1916 168.888 58.281C169.361 58.3704 169.85 58.329 170.302 58.1613" stroke="var(--illustration-currentColor)" stroke-width="0.9" stroke-linecap="round" stroke-linejoin="round"/>
<path d="M178.422 48.7402C177.485 49.0477 176.672 49.648 176.101 50.4529C175.531 51.2575 175.234 52.2241 175.254 53.2102C175.315 54.1948 175.669 55.1389 176.271 55.9201C176.874 56.7013 177.697 57.2836 178.634 57.5923C179.58 57.8698 180.586 57.8779 181.537 57.6157C182.488 57.3535 183.347 56.8315 184.017 56.1082C184.669 55.3678 185.119 54.472 185.324 53.5072C185.53 52.5424 185.483 51.541 185.189 50.5996" stroke="var(--illustration-currentColor)" stroke-width="0.9" stroke-linecap="round" stroke-linejoin="round"/>
<path d="M113.111 138.722C113.061 137.38 113.01 136.037 112.959 134.695" stroke="var(--illustration-currentColor)" stroke-width="0.9" stroke-linecap="round" stroke-linejoin="round"/>
<path d="M109.443 138.93L109.376 135.006" stroke="var(--illustration-currentColor)" stroke-width="0.9" stroke-linecap="round" stroke-linejoin="round"/>
<path d="M105.82 138.981C105.806 137.759 105.792 136.538 105.778 135.316" stroke="var(--illustration-currentColor)" stroke-width="0.9" stroke-linecap="round" stroke-linejoin="round"/>
<path d="M99.21 159.303C99.6822 160.06 100.383 160.646 101.211 160.977C102.038 161.308 102.95 161.366 103.813 161.144C105.945 160.544 107.219 158.375 109.117 157.234C109.935 156.752 110.853 156.465 111.8 156.397C112.747 156.328 113.697 156.479 114.575 156.838C115.915 157.399 117.002 158.414 118.097 159.368C119.192 160.322 120.377 161.258 121.787 161.602C123.197 161.946 124.893 161.532 125.632 160.282" stroke="var(--illustration-currentColor)" stroke-width="0.9" stroke-linecap="round" stroke-linejoin="round"/>
<path d="M99.8472 156.586C100.597 157.655 102.166 157.874 103.386 157.412C104.605 156.949 105.543 155.961 106.38 154.961C107.217 153.96 108.021 152.895 109.115 152.184C109.861 151.709 110.708 151.414 111.588 151.325C112.468 151.236 113.357 151.354 114.184 151.67C116.539 152.595 118.093 155.039 120.514 155.782C121.421 156.047 122.385 156.055 123.297 155.806C124.209 155.558 125.035 155.061 125.683 154.372" stroke="var(--illustration-currentColor)" stroke-width="0.9" stroke-linecap="round" stroke-linejoin="round"/>
<path d="M93.9858 178.218L125.531 177.765" stroke="var(--illustration-currentColor)" stroke-width="0.9" stroke-linecap="round" stroke-linejoin="round"/>
<path d="M106.241 175.485C106.734 172.303 107.05 169.096 107.187 165.878" stroke="var(--illustration-currentColor)" stroke-width="0.9" stroke-linecap="round" stroke-linejoin="round"/>
<path d="M158.25 142.607C158.39 140.61 158.046 138.61 157.247 136.775C156.449 134.94 155.219 133.325 153.664 132.067" stroke="var(--illustration-currentColor)" stroke-width="0.9" stroke-linecap="round" stroke-linejoin="round"/>
<g opacity="0.1">
<path d="M24.988 79.1061C24.4213 80.5629 24.6208 82.1541 24.7366 83.6757C24.8701 85.4337 25.0192 87.1929 25.1431 88.9512C25.3864 92.3961 25.7521 95.7954 26.1631 99.2316C26.5624 102.564 26.8483 105.914 27.2812 109.242C27.5095 110.999 27.7912 112.747 28.0612 114.497C28.3171 116.16 28.3411 117.917 29.1919 119.399C29.8414 120.531 31.3819 120.16 31.7878 119.06C32.3791 117.464 32.0779 115.633 32.0278 113.96C31.9777 112.287 31.9378 110.615 31.8079 108.947C31.534 105.407 31.0579 101.872 30.6223 98.349C30.196 94.8948 29.6275 91.5408 28.9315 88.1412C28.5967 86.5053 28.2325 84.8799 27.8581 83.2527C27.4957 81.6786 27.1648 80.0817 26.1154 78.8079C25.7593 78.3759 25.1515 78.6831 24.9871 79.1058L24.988 79.1061Z" fill="var(--illustration-currentColor)"/>
</g>
<g opacity="0.1">
<path d="M19.1902 103.768C18.8032 104.869 18.2695 105.778 18.0007 106.918C17.7877 107.822 17.533 108.718 17.3455 109.627C16.9303 111.643 16.2601 113.511 15.9355 115.563C15.3113 119.678 14.9934 123.834 14.9845 127.997C14.9312 136.134 15.7016 144.257 17.2837 152.24C20.2278 167.153 25.8209 181.418 33.7978 194.358C35.9305 197.816 38.2189 201.171 40.6636 204.423C43.228 207.826 45.8665 211.406 49.0021 214.308C49.4959 214.789 50.1463 215.076 50.8345 215.118C51.523 215.158 52.2031 214.95 52.7503 214.531C53.7478 213.736 54.3646 211.99 53.4856 210.848C51.2704 207.971 48.7939 205.307 46.5796 202.424C44.4154 199.608 42.3778 196.698 40.4671 193.694C36.6541 187.702 33.346 181.403 30.5773 174.862C24.6799 160.912 21.5512 145.912 20.8465 130.805C20.6365 126.315 20.7265 121.83 20.7733 117.339C20.785 116.221 20.8333 115.101 20.8297 113.984C20.8246 112.84 20.5597 111.786 20.6446 110.638C20.7271 109.528 20.7475 108.414 20.8381 107.304C20.9305 106.17 20.7367 105.117 20.7637 103.983C20.7862 103.041 19.4785 102.947 19.1893 103.77L19.1902 103.768Z" fill="var(--illustration-currentColor)"/>
</g>
<g opacity="0.1">
<path d="M108.442 116.882C107.434 119.612 106.804 122.467 106.571 125.367C106.435 126.863 106.41 128.354 106.366 129.853C106.323 131.293 106.006 132.766 106.46 134.166C107.006 135.846 109.152 135.371 109.361 133.773C109.553 132.303 108.986 130.773 108.939 129.292C108.897 127.985 108.928 126.672 109.001 125.367C109.154 122.598 109.478 119.817 109.796 117.065C109.891 116.241 108.695 116.211 108.442 116.882Z" fill="var(--illustration-currentColor)"/>
</g>
<g opacity="0.1">
<path d="M104.541 135.512C104.047 136.39 103.921 137.205 103.692 138.171C103.572 138.676 103.531 138.88 103.212 139.08C102.773 139.311 102.299 139.47 101.809 139.552C99.5032 140.04 97.2529 140.761 95.0923 141.703C90.8023 143.61 86.9389 146.4 84.3154 150.347C81.6871 154.284 80.6941 159.089 81.5464 163.745C82.4215 168.22 85.6609 171.945 89.7004 173.933C95.1004 176.59 101.106 176.483 106.959 175.988C110.344 175.701 110.421 170.438 106.959 170.644C99.9259 171.064 88.2994 171.276 86.7799 162.071C85.4257 153.862 92.9803 148.033 99.4567 144.868C101.217 144.008 103.706 143.34 104.991 141.776C105.54 141.038 105.907 140.179 106.06 139.272C106.252 138.111 105.785 137.011 105.825 135.86C105.822 135.711 105.77 135.567 105.677 135.449C105.585 135.332 105.457 135.247 105.313 135.208C105.169 135.169 105.016 135.178 104.877 135.233C104.738 135.287 104.62 135.386 104.541 135.512Z" fill="var(--illustration-currentColor)"/>
</g>
<g opacity="0.1">
<path d="M99.8696 156.194C98.468 158.009 96.7196 161.882 97.6469 164.151C98.3669 165.917 100.497 166.298 101.63 164.671C102.408 163.556 102.333 162.061 102.484 160.745C102.66 159.501 102.771 158.248 102.817 156.993C102.833 155.273 100.759 155.043 99.8696 156.194Z" fill="var(--illustration-currentColor)"/>
</g>
<g opacity="0.1">
<path d="M95.8408 180.439C95.5831 180.569 96.2386 180.248 96.2971 180.202C96.4927 180.033 96.6598 179.835 96.7921 179.613C96.9754 179.339 97.1371 179.053 97.2991 178.766L95.8687 179.587L96.1915 179.544C96.8086 179.462 97.3987 179.346 97.846 178.859C98.2684 178.409 98.512 177.821 98.5312 177.204L98.5402 177.023C98.6386 175.021 96.0121 174.081 94.6684 175.419L94.537 175.55C93.8521 176.231 93.5839 177.547 94.171 178.385L94.4383 178.766L94.2712 177.49C94.1671 177.801 94.0612 178.11 93.9838 178.429C93.9259 178.621 93.8905 178.819 93.8788 179.019C93.8698 179.22 93.9145 179.421 94.0084 179.599C94.102 179.801 94.1137 179.837 94.0435 179.707C94.0963 179.886 94.1884 180.051 94.3135 180.189C94.4386 180.327 94.5934 180.436 94.7659 180.506C94.9387 180.576 95.125 180.607 95.311 180.595C95.4973 180.583 95.6782 180.53 95.8408 180.439Z" fill="var(--illustration-currentColor)"/>
</g>
<g opacity="0.1">
<path d="M121.824 152.363C125.549 153.061 129.348 152.273 133.035 151.586C136.812 150.882 140.547 149.975 144.225 148.867C147.689 147.854 151.087 146.627 154.398 145.192C157.074 144.006 161.06 142.049 161.778 138.936C162.248 136.897 160.245 135.611 158.48 136.4C157.225 136.961 156.389 138.083 155.255 138.838C154.049 139.626 152.774 140.302 151.445 140.859C148.379 142.132 145.24 143.226 142.046 144.132C138.812 145.087 135.538 145.887 132.223 146.532C128.773 147.203 125.106 147.366 121.824 148.64C120.24 149.255 119.754 151.975 121.824 152.362L121.824 152.363Z" fill="var(--illustration-currentColor)"/>
</g>
<g opacity="0.1">
<path d="M233.457 222.756C235.674 222.456 237.939 220.306 239.527 218.83C241.284 217.181 242.932 215.42 244.46 213.557C247.666 209.718 250.477 205.565 252.851 201.163C257.94 191.63 261.683 181.251 264.603 170.865C265.445 167.869 266.518 164.906 267.17 161.862C267.485 160.395 267.294 158.841 267.514 157.365C267.799 155.457 268.699 153.495 269.483 151.746C269.504 151.706 269.516 151.663 269.519 151.618C269.523 151.574 269.517 151.529 269.502 151.486C269.487 151.444 269.463 151.406 269.433 151.373C269.402 151.34 269.365 151.315 269.324 151.297C269.282 151.28 269.238 151.271 269.193 151.272C269.148 151.273 269.104 151.283 269.063 151.301C269.023 151.32 268.986 151.347 268.957 151.381C268.927 151.415 268.905 151.454 268.891 151.496C268.316 152.867 267.669 154.195 267.06 155.549C266.485 156.825 265.631 157.692 264.85 158.804C264.095 159.873 263.439 161.006 262.887 162.192C262.274 163.482 261.752 164.772 261.257 166.115C259.322 171.372 257.254 176.585 255.335 181.852C251.961 191.112 247.887 200.35 242.089 208.375C240.564 210.482 238.894 212.478 237.089 214.35C236.199 215.275 235.293 216.187 234.389 217.099C233.381 218.117 232.182 218.998 231.598 220.339C230.989 221.737 231.982 222.954 233.456 222.756H233.457Z" fill="var(--illustration-currentColor)"/>
</g>
<g opacity="0.1">
<path d="M179.2 28.146C175.316 28.5417 171.702 28.5678 168.097 30.3093C165.04 31.7856 162.542 34.2867 161.344 37.4565C160.313 40.182 164.908 41.5314 165.761 38.6742C166.518 36.1362 168.196 34.3143 170.414 32.9442C173.061 31.3074 176.367 30.168 179.372 29.4183C180.062 29.2461 179.939 28.0722 179.2 28.1475V28.146Z" fill="var(--illustration-currentColor)"/>
</g>
<g opacity="0.1">
<path d="M180.357 62.023C178.467 62.1652 176.636 62.413 174.763 62.0458C172.923 61.6831 171.172 60.9625 169.609 59.9251C167.162 58.2871 164.375 54.9271 164.731 51.7603C164.904 50.2255 163.212 49.0918 161.863 49.2742C160.49 49.4599 159.201 50.9842 159.759 52.4332C160.604 54.631 161.099 56.7679 162.492 58.7383C163.814 60.6085 165.539 62.3197 167.598 63.3649C171.458 65.3236 177.134 65.5384 180.626 62.6713C180.677 62.6176 180.712 62.5501 180.726 62.4769C180.74 62.4037 180.732 62.3281 180.703 62.2594C180.675 62.1907 180.627 62.1316 180.566 62.0896C180.504 62.0476 180.432 62.0245 180.357 62.023Z" fill="var(--illustration-currentColor)"/>
</g>
<g opacity="0.1">
<path d="M50.3009 46.786C48.1139 46.7371 47.6096 49.6021 48.554 51.1285C49.0994 52.0942 49.9121 52.8817 50.894 53.3965C52.3202 54.1102 53.8253 53.9503 55.364 53.7808C58.4309 53.443 61.514 53.3089 64.5704 52.8556C67.4942 52.4218 71.0678 51.8875 73.2659 49.7629C73.8728 49.1761 73.4498 47.8984 72.53 47.9863C70.4948 48.1813 68.63 49.0015 66.6359 49.4293C64.5083 49.8616 62.3495 50.1226 60.1802 50.2093C58.0376 50.3188 55.934 50.1778 53.795 50.077C52.9046 50.0353 51.995 50.1163 51.1145 50.0149C49.7876 49.8616 49.9361 48.5923 50.7092 47.7697C50.7866 47.6878 50.8388 47.5855 50.8592 47.4748C50.8796 47.3638 50.8676 47.2495 50.8244 47.1454C50.7812 47.0413 50.7089 46.9519 50.6162 46.888C50.5235 46.8241 50.414 46.7887 50.3015 46.7854L50.3009 46.786Z" fill="var(--illustration-currentColor)"/>
</g>
</g>
</g>
</g>
<defs>
<linearGradient id="paint0_linear_28_12854" x1="121.016" y1="131.565" x2="121.016" y2="180.56" gradientUnits="userSpaceOnUse">
<stop stop-color="#FFB800"/>
<stop offset="1" stop-color="#FF7F0A"/>
</linearGradient>
<linearGradient id="paint1_linear_28_12854" x1="34.3574" y1="102.74" x2="34.3574" y2="216.234" gradientUnits="userSpaceOnUse">
<stop stop-color="#FFB800"/>
<stop offset="1" stop-color="#FF7F0A"/>
</linearGradient>
<linearGradient id="paint2_linear_28_12854" x1="213.509" y1="59.722" x2="213.509" y2="73.2751" gradientUnits="userSpaceOnUse">
<stop stop-color="#FFB800"/>
<stop offset="1" stop-color="#FF7F0A"/>
</linearGradient>
<linearGradient id="paint3_linear_28_12854" x1="250.367" y1="95.9531" x2="250.367" y2="204.134" gradientUnits="userSpaceOnUse">
<stop stop-color="#FFB800"/>
<stop offset="1" stop-color="#FF7F0A"/>
</linearGradient>
<linearGradient id="paint4_linear_28_12854" x1="194.018" y1="225.64" x2="194.018" y2="243.8" gradientUnits="userSpaceOnUse">
<stop stop-color="#FFB800"/>
<stop offset="1" stop-color="#FF7F0A"/>
</linearGradient>
<linearGradient id="paint5_linear_28_12854" x1="178.692" y1="204.641" x2="178.692" y2="232.261" gradientUnits="userSpaceOnUse">
<stop stop-color="#FFB800"/>
<stop offset="1" stop-color="#FF7F0A"/>
</linearGradient>
<linearGradient id="paint6_linear_28_12854" x1="110.718" y1="134.432" x2="110.718" y2="139.62" gradientUnits="userSpaceOnUse">
<stop stop-color="#FFB800"/>
<stop offset="1" stop-color="#FF7F0A"/>
</linearGradient>
<clipPath id="clip0_28_12854">
<rect width="288" height="288" fill="white"/>
</clipPath>
</defs>
</svg>
