<svg width="288" height="288" viewBox="0 0 288 288" fill="none" xmlns="http://www.w3.org/2000/svg">
<mask id="mask0_28_12826" style="mask-type:luminance" maskUnits="userSpaceOnUse" x="51" y="11" width="186" height="266">
<path d="M236.7 11.3999H51.2998V276.6H236.7V11.3999Z" fill="white"/>
</mask>
<g mask="url(#mask0_28_12826)">
<path fill-rule="evenodd" clip-rule="evenodd" d="M187.601 103.652C186.383 94.2305 183.968 85.4717 177.398 81.4085L177.016 81.3176C174.972 89.9585 171.684 98.2934 167.721 106.335L168.105 106.522C168.701 109.967 169.448 113.714 170.195 117.461C170.942 121.207 171.689 124.954 172.283 128.397C172.811 131.437 173.631 134.94 175.853 136.014C177.204 136.668 178.76 136.172 179.959 135.121C181.158 134.071 182.054 132.523 182.847 130.943C186.851 122.968 188.818 113.074 187.601 103.652ZM180.038 89.4416C179.933 89.2136 179.663 89.1137 179.435 89.2184C179.207 89.3231 179.108 89.5928 179.212 89.8208C185.256 102.983 184.909 118.916 178.296 131.802C178.181 132.025 178.269 132.299 178.493 132.414C178.716 132.528 178.989 132.44 179.104 132.217C185.844 119.083 186.198 102.857 180.038 89.4416Z" fill="url(#paint0_linear_28_12826)"/>
<path fill-rule="evenodd" clip-rule="evenodd" d="M145.838 126.981C146.424 129.978 147.152 133.702 150.558 134.513C155.744 135.745 158.741 126.175 160.14 119.771C160.543 117.928 160.813 116.347 160.963 115.363C162.014 108.185 162.795 79.786 151.823 81.0031C143.352 84.3547 143.147 104.038 143.597 112.018C143.837 115.278 144.27 118.518 144.827 121.733C145.081 123.193 145.362 124.649 145.662 126.099C145.721 126.383 145.779 126.679 145.838 126.981ZM156.262 87.6231C156.185 87.384 155.93 87.2524 155.691 87.3286C155.452 87.4048 155.32 87.6604 155.396 87.8992C159.694 101.372 159.093 115.929 153.701 129.002C153.605 129.233 153.715 129.499 153.947 129.595C154.179 129.69 154.445 129.58 154.54 129.348C160.015 116.077 160.624 101.3 156.262 87.6231Z" fill="url(#paint1_linear_28_12826)"/>
<path fill-rule="evenodd" clip-rule="evenodd" d="M137.103 35.8102C149.998 39.4381 163.596 39.7786 176.656 36.8002L176.998 36.7246C173.916 22.5829 168.036 11.98 160.525 11.98C149.883 11.98 141.731 24.3781 136.961 35.7529L137.103 35.8102ZM161.533 14.1521C161.328 14.0076 161.045 14.0567 160.901 14.2617C160.756 14.4668 160.805 14.7501 161.01 14.8946C164.169 17.1208 166.798 20.015 168.713 23.3718C170.627 26.7286 171.778 30.4656 172.086 34.3176C172.106 34.5675 172.325 34.7541 172.575 34.734C172.825 34.7142 173.011 34.4953 172.991 34.2453C172.673 30.2605 171.482 26.3944 169.502 22.9218C167.521 19.4492 164.801 16.4551 161.533 14.1521Z" fill="url(#paint2_linear_28_12826)"/>
<path d="M209.545 219.561L183.05 235.535L164.88 246.488L146.926 228.323L184.008 206.373C184.057 206.358 184.105 206.346 184.154 206.33L209.545 219.561Z" fill="url(#paint3_linear_28_12826)"/>
<path d="M184.152 206.331C184.104 206.346 184.055 206.358 184.007 206.373L184.113 206.31L184.152 206.331Z" fill="url(#paint4_linear_28_12826)"/>
<path d="M121.357 130.5C120.543 129.525 120.04 128.205 119.61 126.888C116.708 117.744 116.442 107.968 118.841 98.6799C121.241 89.5668 124.541 81.9462 131.051 77.1099L131.261 77.0916C131.449 79.3743 131.697 81.6543 131.997 83.9187C132.839 90.5859 134.269 97.1655 136.272 103.58C133.181 111.691 130.091 119.802 127.002 127.913C126.421 129.445 125.706 131.125 124.432 131.628C123.364 132.054 122.171 131.479 121.357 130.5Z" fill="url(#paint5_linear_28_12826)"/>
<path d="M147.782 275.98C147.497 260.182 147.195 244.136 146.925 228.323L164.88 246.488L183.052 235.535L183.17 235.732L181.762 256.534L147.782 275.98Z" fill="var(--illustration-currentColor)"/>
<path d="M146.925 228.323C147.195 244.136 147.497 260.183 147.782 275.98L114.227 255.892L112.001 237.778L112.061 237.628C116.385 239.436 120.72 241.216 125.092 242.923C126.909 243.529 128.422 245.043 130.239 244.74C135.628 239.351 141.314 233.962 146.739 228.506C146.769 228.479 146.797 228.448 146.824 228.421C146.863 228.385 146.89 228.355 146.906 228.34L146.925 228.323Z" fill="url(#paint6_linear_28_12826)"/>
<path d="M145.56 229.658C145.546 229.67 145.533 229.684 145.521 229.697C145.508 229.707 145.497 229.718 145.487 229.731C145.477 229.738 145.468 229.748 145.46 229.758C145.406 229.81 145.409 229.803 145.46 229.758C145.468 229.748 145.478 229.739 145.487 229.731L145.521 229.697L145.56 229.658ZM112.062 237.63C104.112 234.303 96.1975 230.888 88.1562 227.681C88.1896 227.681 88.8585 227.17 88.9191 227.115C88.8918 227.13 88.6861 227.282 88.1562 227.681C90.5782 225.668 93.3028 223.852 95.9914 221.768L96.0886 221.444C96.682 221.7 97.2906 221.92 97.911 222.101C102.231 223.37 118.478 224.36 115.695 211.393L116.131 211.299C126.304 216.888 136.598 222.641 146.925 228.323L146.907 228.341L146.825 228.423C146.237 228.995 145.868 229.356 145.656 229.563C145.956 229.273 146.466 228.773 146.74 228.507C141.315 233.963 135.629 239.352 130.24 244.741C128.424 245.044 126.91 243.53 125.093 242.924C120.72 241.217 116.385 239.437 112.062 237.63Z" fill="url(#paint7_linear_28_12826)"/>
<path d="M112.001 237.778L114.227 255.892L147.782 275.981L181.76 256.534L183.168 235.732" stroke="var(--illustration-currentColor)" stroke-width="0.9159" stroke-linecap="round" stroke-linejoin="round"/>
<path d="M116.13 211.299C126.303 216.888 136.596 222.64 146.923 228.323" stroke="var(--illustration-currentColor)" stroke-width="0.9159" stroke-linecap="round" stroke-linejoin="round"/>
<path d="M88.9222 227.112C88.9222 227.113 88.9215 227.113 88.9212 227.114C88.9206 227.115 88.9197 227.115 88.9191 227.115C88.8591 227.169 88.1895 227.681 88.1562 227.681C90.5781 225.668 93.3028 223.851 95.9914 221.768" stroke="var(--illustration-currentColor)" stroke-width="0.9159" stroke-linecap="round" stroke-linejoin="round"/>
<path d="M146.74 228.508C141.315 233.963 135.629 239.353 130.24 244.741C128.424 245.044 126.91 243.531 125.093 242.925C120.721 241.217 116.386 239.437 112.063 237.63C104.113 234.302 96.1979 230.887 88.1567 227.681C88.6865 227.281 88.8923 227.13 88.9196 227.115" stroke="var(--illustration-currentColor)" stroke-width="0.9159" stroke-linecap="round" stroke-linejoin="round"/>
<path d="M146.925 228.323L146.907 228.341" stroke="var(--illustration-currentColor)" stroke-width="0.9159" stroke-linecap="round" stroke-linejoin="round"/>
<path d="M146.907 228.341C146.891 228.356 146.864 228.386 146.825 228.423" stroke="var(--illustration-currentColor)" stroke-width="0.9159" stroke-linecap="round" stroke-linejoin="round"/>
<path d="M146.825 228.423C146.798 228.45 146.771 228.48 146.74 228.508" stroke="var(--illustration-currentColor)" stroke-width="0.9159" stroke-linecap="round" stroke-linejoin="round"/>
<path d="M145.656 229.564C145.956 229.273 146.466 228.774 146.74 228.508" stroke="var(--illustration-currentColor)" stroke-width="0.9159" stroke-linecap="round" stroke-linejoin="round"/>
<path d="M145.459 229.758C145.468 229.748 145.477 229.739 145.487 229.731L145.52 229.697L145.559 229.658" stroke="var(--illustration-currentColor)" stroke-width="0.9159" stroke-linecap="round" stroke-linejoin="round"/>
<path d="M145.46 229.758C145.408 229.803 145.405 229.81 145.46 229.758Z" stroke="var(--illustration-currentColor)" stroke-width="0.9159" stroke-linecap="round" stroke-linejoin="round"/>
<path d="M147.781 275.98C147.497 260.182 147.194 244.136 146.925 228.323L146.907 228.341L146.825 228.423C146.238 228.995 145.868 229.355 145.656 229.563C145.62 229.599 145.587 229.63 145.559 229.657C145.546 229.669 145.532 229.682 145.52 229.696C145.507 229.706 145.496 229.717 145.487 229.729C145.476 229.737 145.467 229.746 145.459 229.757" stroke="var(--illustration-currentColor)" stroke-width="0.9159" stroke-linecap="round" stroke-linejoin="round"/>
<path d="M184.007 206.373L184.113 206.31L184.152 206.331L209.545 219.561L183.05 235.535L164.879 246.489L146.925 228.323L184.007 206.373Z" stroke="var(--illustration-currentColor)" stroke-width="0.9159" stroke-linecap="round" stroke-linejoin="round"/>
<path d="M131.051 77.1125C124.541 81.9473 121.241 89.5679 118.841 98.6825C116.442 107.971 116.708 117.747 119.61 126.891C120.04 128.208 120.543 129.528 121.357 130.503C122.171 131.478 123.364 132.056 124.43 131.632C125.705 131.129 126.419 129.449 127 127.917C130.089 119.806 133.179 111.695 136.27 103.584C136.273 103.572 136.277 103.56 136.282 103.548" stroke="var(--illustration-currentColor)" stroke-width="0.9084" stroke-linecap="round" stroke-linejoin="round"/>
<path d="M177.398 81.4084C183.968 85.4716 186.384 94.2304 187.601 103.652C188.818 113.074 186.851 122.968 182.847 130.943C182.054 132.523 181.158 134.07 179.959 135.121C178.76 136.172 177.204 136.668 175.854 136.014C173.631 134.94 172.811 131.436 172.284 128.397C171.094 121.509 169.295 113.41 168.105 106.522" stroke="var(--illustration-currentColor)" stroke-width="0.9084" stroke-linecap="round" stroke-linejoin="round"/>
<path d="M160.14 119.771C160.543 117.928 160.812 116.347 160.963 115.363C162.013 108.185 162.795 79.786 151.823 81.0031C143.352 84.3547 143.146 104.037 143.597 112.018C143.837 115.278 144.269 118.518 144.827 121.733C145.081 123.193 145.363 124.649 145.663 126.099C146.305 129.196 146.807 133.62 150.558 134.513C155.744 135.745 158.741 126.175 160.14 119.771Z" stroke="var(--illustration-currentColor)" stroke-width="0.9084" stroke-linecap="round" stroke-linejoin="round"/>
<path d="M147.309 51.2265C145.478 53.9724 145.338 57.6903 146.716 60.6909C148.094 63.6915 150.867 65.9559 154.003 66.9792C155.687 67.527 157.549 67.7361 159.208 67.1214C161.23 66.3714 162.647 64.5147 163.613 62.583C165.248 59.3103 165.878 55.329 164.373 51.993C161.527 45.6921 150.958 45.7557 147.309 51.2265Z" stroke="var(--illustration-currentColor)" stroke-width="0.9084" stroke-linecap="round" stroke-linejoin="round"/>
<path d="M183.979 178.34C183.977 178.343 183.975 178.346 183.973 178.349C183.922 178.439 183.468 179.143 182.484 180.638C185.342 176.318 190.791 175.41 195.03 177.226C201.69 180.254 203.205 189.034 200.48 195.392C197.477 201.398 190.61 204.432 184.152 206.33C184.104 206.346 184.055 206.358 184.007 206.373C184.004 206.373 183.998 206.376 183.995 206.376" stroke="var(--illustration-currentColor)" stroke-width="0.9084" stroke-linecap="round" stroke-linejoin="round"/>
<path d="M156.955 161.31C162.562 159.16 166.992 165.316 165.678 171.292C167.397 165.246 169.831 157.837 176.892 156.49C179.287 155.73 182.012 156.638 183.828 158.455C188.975 165.115 186.25 173.896 182.484 180.638C183.35 179.291 183.907 178.44 183.973 178.349" stroke="var(--illustration-currentColor)" stroke-width="0.9084" stroke-linecap="round" stroke-linejoin="round"/>
<path d="M115.662 211.235C115.674 211.287 115.686 211.341 115.695 211.393C118.478 224.36 102.231 223.37 97.9111 222.101C97.2907 221.92 96.682 221.7 96.0886 221.444C88.2016 218.047 83.2393 208.553 84.6715 200.148C85.4857 195.368 88.6375 190.884 93.2638 189.14C89.9365 186.433 87.3328 182.942 86.7967 178.595C86.5495 176.652 86.6917 174.679 87.2152 172.791C87.7387 170.904 88.633 169.14 89.8456 167.601C94.8352 161.443 104.636 160.689 110.442 166.079C113.63 169.04 115.502 173.454 115.147 177.817C118.953 168.601 126.473 158.201 137.794 159.412C140.479 159.699 142.032 159.812 144.034 161.632" stroke="var(--illustration-currentColor)" stroke-width="0.9084" stroke-linecap="round" stroke-linejoin="round"/>
<path d="M141.406 116.108C141.916 127.538 143.11 144.779 144.258 161.616C145.257 176.26 146.22 190.593 146.661 200.533" stroke="var(--illustration-currentColor)" stroke-width="0.9084" stroke-linecap="round" stroke-linejoin="round"/>
<path d="M161.915 117.192C161.279 128.485 159.047 144.964 156.955 161.31C154.972 176.799 153.11 192.17 152.845 202.885" stroke="var(--illustration-currentColor)" stroke-width="0.9084" stroke-linecap="round" stroke-linejoin="round"/>
<path d="M153.231 200.532C154.264 198.495 155.738 196.63 157.688 195.437C159.638 194.244 162.096 193.784 164.261 194.511C166.426 195.237 168.185 197.26 168.303 199.542" stroke="var(--illustration-currentColor)" stroke-width="0.9084" stroke-linecap="round" stroke-linejoin="round"/>
<path d="M147.878 204.662C147.741 203.234 147.249 201.864 146.446 200.675C144.808 198.192 141.984 196.454 138.995 196.406C134.569 196.333 130.388 199.97 129.845 204.362" stroke="var(--illustration-currentColor)" stroke-width="0.9084" stroke-linecap="round" stroke-linejoin="round"/>
<path d="M145.83 207.148C146.408 206.247 147.141 205.456 147.995 204.81C149.405 203.736 151.084 203.073 152.848 202.894C153.26 202.855 153.675 202.845 154.089 202.864C155.717 202.959 157.292 203.472 158.663 204.353C160.034 205.235 161.154 206.455 161.916 207.896" stroke="var(--illustration-currentColor)" stroke-width="0.9084" stroke-linecap="round" stroke-linejoin="round"/>
<path d="M84.0418 171.004C85.8823 167.55 84.2293 162.7 80.6599 161.086C82.861 157.922 81.4228 152.89 77.8834 151.366C74.344 149.842 69.697 152.244 68.9038 156.016C66.3394 153.826 62.0938 153.988 59.7028 156.364C57.3118 158.741 57.1228 162.985 59.2972 165.565C56.5633 165.395 53.7838 167.185 52.93 169.789C52.0762 172.392 53.3296 175.556 55.7971 176.752C58.2646 177.948 61.6132 176.897 62.8423 174.448C62.5246 176.928 65.5219 178.783 67.9801 178.329C70.0783 177.942 70.9987 176.485 72.7093 175.526C74.7439 174.386 74.32 174.793 76.5967 174.663C79.6063 174.492 82.4674 173.97 84.0418 171.004Z" stroke="var(--illustration-currentColor)" stroke-width="0.9084" stroke-linecap="round" stroke-linejoin="round"/>
<path d="M75.6601 185.143C73.9042 183.403 70.7494 183.36 68.9509 185.056C67.1524 186.751 66.9994 189.9 68.6311 191.76C70.2628 193.62 73.4056 193.879 75.319 192.311C77.2324 190.743 77.602 187.612 76.1032 185.647" stroke="var(--illustration-currentColor)" stroke-width="0.9084" stroke-linecap="round" stroke-linejoin="round"/>
<path d="M59.1183 248.862C58.2207 249.2 57.4182 249.75 56.7783 250.464C56.3316 250.963 55.9989 251.553 55.8036 252.194C55.608 252.834 55.5543 253.509 55.6461 254.173C56.0397 256.568 58.5342 258.105 60.9381 258.42C65.2254 258.981 69.7305 256.35 71.3481 252.338C71.2581 253.722 72.2049 255.03 73.44 255.659C74.6751 256.289 76.1316 256.335 77.5002 256.122C82.2927 255.381 86.3952 251.352 87.2247 246.573C87.6336 244.218 87.1431 241.475 85.1964 240.091C86.8191 241.084 89.1351 240.481 90.2736 238.956C91.4121 237.431 91.4151 235.229 90.5097 233.558C89.6043 231.887 87.903 230.73 86.0697 230.212C84.2364 229.695 79.8207 227.787 75.0039 231.729" stroke="var(--illustration-currentColor)" stroke-width="0.9084" stroke-linecap="round" stroke-linejoin="round"/>
<path d="M59.1211 248.862C59.4988 248.804 59.8663 248.694 60.214 248.535C59.8414 248.614 59.4757 248.723 59.1211 248.862Z" stroke="var(--illustration-currentColor)" stroke-width="0.9084" stroke-linecap="round" stroke-linejoin="round"/>
<path d="M59.1212 248.862H59.1182" stroke="var(--illustration-currentColor)" stroke-width="0.9084" stroke-linecap="round" stroke-linejoin="round"/>
<path d="M75.0041 231.729C74.7899 230.924 74.4173 230.17 73.9085 229.51C73.3997 228.85 72.7646 228.299 72.0401 227.887C71.3156 227.476 70.5167 227.213 69.6893 227.114C68.8622 227.014 68.0237 227.081 67.2224 227.309C66.4214 227.538 65.6738 227.924 65.0234 228.444C64.373 228.965 63.8327 229.609 63.434 230.341C63.0356 231.073 62.7869 231.876 62.7023 232.705C62.6177 233.534 62.6993 234.371 62.942 235.168C61.9247 233.3 59.2847 232.777 57.341 233.642C55.3973 234.508 54.1076 236.425 53.375 238.42C52.4786 240.863 52.3091 243.712 53.5868 245.98C54.6737 247.909 56.993 249.19 59.1182 248.862" stroke="var(--illustration-currentColor)" stroke-width="0.9084" stroke-linecap="round" stroke-linejoin="round"/>
<path d="M208.02 174.362C209.158 175.255 210.787 175.37 212.146 174.877C213.506 174.383 214.623 173.354 215.471 172.179C216.228 171.126 216.812 169.766 216.358 168.552C216.016 167.629 215.126 166.996 214.184 166.708C213.228 166.47 212.24 166.379 211.256 166.438C211.927 165.682 212.399 164.771 212.628 163.786C212.857 162.802 212.836 161.775 212.567 160.801C211.977 158.875 210.167 157.337 208.153 157.24C206.139 157.143 204.117 158.62 203.754 160.6C203.584 160.149 203.292 159.753 202.912 159.455C202.532 159.158 202.078 158.97 201.598 158.914C200.631 158.815 199.66 159.055 198.849 159.592C197.78 160.252 196.943 161.229 196.454 162.386C195.966 163.544 195.851 164.825 196.125 166.051C196.399 167.277 197.048 168.388 197.983 169.228C198.917 170.067 200.091 170.595 201.339 170.737C200.086 171.267 199.477 172.859 199.874 174.157C200.27 175.455 201.5 176.403 202.835 176.67C204.17 176.936 206.765 176.7 208.02 174.362Z" stroke="var(--illustration-currentColor)" stroke-width="0.9084" stroke-linecap="round" stroke-linejoin="round"/>
<path d="M225.334 188.743C224.91 186.669 223.027 185.023 220.931 184.726C219.877 184.604 218.809 184.756 217.83 185.167C216.851 185.577 215.994 186.234 215.342 187.072C214.498 188.096 214.076 189.404 214.162 190.729C214.346 192.622 215.854 194.226 217.653 194.847C219.273 195.404 221.867 195.495 223.199 194.193C224.577 192.852 225.73 190.69 225.334 188.743Z" stroke="var(--illustration-currentColor)" stroke-width="0.9084" stroke-linecap="round" stroke-linejoin="round"/>
<path d="M224.026 203.363C221.806 202.779 219.256 204.275 218.682 206.497C217.18 205.237 214.962 204.753 213.187 205.592C211.412 206.431 210.378 208.731 211.204 210.509C211.77 211.729 213.048 212.504 214.365 212.764C215.682 213.025 217.047 212.837 218.364 212.57C218.037 213.148 217.853 213.795 217.828 214.458C217.802 215.121 217.936 215.781 218.217 216.381C218.499 216.982 218.92 217.506 219.447 217.911C219.972 218.315 220.588 218.588 221.241 218.706C221.894 218.823 222.565 218.783 223.199 218.588C223.833 218.393 224.412 218.049 224.886 217.585C225.36 217.12 225.715 216.549 225.923 215.919C226.131 215.289 226.185 214.618 226.08 213.963C226.713 214.424 227.468 214.685 228.25 214.712C229.032 214.739 229.804 214.532 230.467 214.118C231.757 213.242 232.335 211.402 231.667 209.994C231.237 209.086 230.38 208.577 229.433 208.356C228.761 208.202 227.933 208.274 227.465 207.675C226.935 206.997 226.968 205.907 226.457 205.15C225.888 204.281 225.024 203.647 224.026 203.363Z" stroke="var(--illustration-currentColor)" stroke-width="0.9084" stroke-linecap="round" stroke-linejoin="round"/>
<path d="M145.311 49.8066C142.98 53.3004 142.804 58.0296 144.554 61.8474C146.304 65.6652 149.834 68.5443 153.831 69.8493C155.968 70.5456 158.339 70.8093 160.446 70.0278C163.023 69.0711 164.824 66.7128 166.053 64.2573C168.133 60.0912 168.936 55.026 167.019 50.7813C163.401 42.7644 149.952 42.846 145.311 49.8066Z" stroke="var(--illustration-currentColor)" stroke-width="0.9084" stroke-linecap="round" stroke-linejoin="round"/>
<path d="M160.401 119.796C160.909 118.933 161.413 118.065 161.911 117.192C163.951 113.634 165.908 110.016 167.721 106.335C171.684 98.2936 174.972 89.9587 177.016 81.3178C177.902 77.6017 178.535 73.8298 178.911 70.0279C179.998 58.8439 179.22 46.873 176.998 36.7243C173.916 22.5826 168.036 11.9797 160.525 11.9797C149.883 11.9797 141.729 24.3778 136.961 35.7526C135.21 39.8773 133.824 44.1475 132.819 48.514C130.782 57.8722 130.482 67.5301 131.259 77.0944C131.447 79.3771 131.695 81.6571 131.995 83.9215C132.837 90.5887 134.268 97.1683 136.27 103.583C137.629 107.894 139.347 112.084 141.405 116.108C142.398 118.04 143.483 119.925 144.66 121.764" stroke="var(--illustration-currentColor)" stroke-width="0.9084" stroke-linecap="round" stroke-linejoin="round"/>
<path d="M137.103 35.8098C149.998 39.4377 163.595 39.7782 176.656 36.7998" stroke="var(--illustration-currentColor)" stroke-width="0.9084" stroke-linecap="round" stroke-linejoin="round"/>
<path d="M218.952 55.5583L215.43 52.666" stroke="var(--illustration-currentColor)" stroke-width="0.9084" stroke-linecap="round" stroke-linejoin="round"/>
<path d="M215.266 56.6755L219.117 51.5491" stroke="var(--illustration-currentColor)" stroke-width="0.9084" stroke-linecap="round" stroke-linejoin="round"/>
<path d="M222.735 108.948L220.175 100.933" stroke="var(--illustration-currentColor)" stroke-width="0.9084" stroke-linecap="round" stroke-linejoin="round"/>
<path d="M217.853 106.676L224.297 102.885" stroke="var(--illustration-currentColor)" stroke-width="0.9084" stroke-linecap="round" stroke-linejoin="round"/>
<path d="M204.049 137.16L207.909 124.662" stroke="var(--illustration-currentColor)" stroke-width="0.9084" stroke-linecap="round" stroke-linejoin="round"/>
<path d="M214.368 142.966L236.1 127.167" stroke="var(--illustration-currentColor)" stroke-width="0.9084" stroke-linecap="round" stroke-linejoin="round"/>
<path d="M219.161 157.064L229.097 157.187" stroke="var(--illustration-currentColor)" stroke-width="0.9084" stroke-linecap="round" stroke-linejoin="round"/>
<path d="M88.47 147.346L59.3931 112.646" stroke="var(--illustration-currentColor)" stroke-width="0.9084" stroke-linecap="round" stroke-linejoin="round"/>
<path d="M96.7409 139.726L93.1802 129.48" stroke="var(--illustration-currentColor)" stroke-width="0.9084" stroke-linecap="round" stroke-linejoin="round"/>
<path d="M63.3665 145.8L51.8252 144.848" stroke="var(--illustration-currentColor)" stroke-width="0.9084" stroke-linecap="round" stroke-linejoin="round"/>
<path d="M130.034 185.601C127.079 184.145 123.355 183.784 120.585 185.567C117.816 187.351 116.719 191.667 118.955 194.086C115.933 193.951 113.236 197.118 113.851 200.079C114.465 203.04 118.201 204.873 120.918 203.547" stroke="var(--illustration-currentColor)" stroke-width="0.9084" stroke-linecap="round" stroke-linejoin="round"/>
<path d="M167.145 184.448C168.469 182.348 171.62 181.682 173.679 183.07C175.739 184.457 176.308 187.627 174.859 189.643C176.229 189.322 177.667 189.475 178.94 190.076C180.212 190.678 181.242 191.692 181.864 192.955C182.485 194.218 182.66 195.653 182.361 197.028C182.061 198.403 181.304 199.636 180.213 200.525" stroke="var(--illustration-currentColor)" stroke-width="0.9084" stroke-linecap="round" stroke-linejoin="round"/>
<path fill-rule="evenodd" clip-rule="evenodd" d="M146.716 60.6909C148.09 63.6942 150.867 65.956 154.003 66.9793C155.687 67.5271 157.548 67.7361 159.208 67.1208C161.23 66.3699 162.647 64.5142 163.613 62.5824C165.248 59.3104 165.877 55.3291 164.373 51.9924C161.527 45.6921 150.957 45.7558 147.309 51.2266C145.477 53.971 145.341 57.6876 146.716 60.6909ZM159.468 49.1608C159.244 49.0471 158.971 49.1359 158.857 49.3594C158.743 49.5829 158.832 49.8561 159.055 49.9701C162.225 51.5859 163.838 55.7649 162.575 59.0913C162.486 59.3259 162.604 59.5881 162.839 59.6772C163.073 59.766 163.335 59.6482 163.424 59.4139C164.852 55.654 163.051 50.9872 159.468 49.1608Z" fill="var(--illustration-currentColor)"/>
<path d="M133.89 25.7229L132.18 21.2349" stroke="var(--illustration-currentColor)" stroke-width="0.9084" stroke-linecap="round" stroke-linejoin="round"/>
<path d="M130.438 24.8163L134.696 22.2249" stroke="var(--illustration-currentColor)" stroke-width="0.9084" stroke-linecap="round" stroke-linejoin="round"/>
<path d="M118.074 22.7308L116.151 19.3108" stroke="var(--illustration-currentColor)" stroke-width="0.9084" stroke-linecap="round" stroke-linejoin="round"/>
<path d="M115.245 22.0231L118.745 19.3501" stroke="var(--illustration-currentColor)" stroke-width="0.9084" stroke-linecap="round" stroke-linejoin="round"/>
<path d="M118.765 135.521C116.96 133.739 115.524 131.618 114.542 129.279C113.559 126.94 113.049 124.43 113.04 121.893" stroke="var(--illustration-currentColor)" stroke-width="0.9084" stroke-linecap="round" stroke-linejoin="round"/>
<path d="M181.579 139.253C183.862 137.745 185.815 135.789 187.319 133.503C188.823 131.218 189.848 128.651 190.33 125.958" stroke="var(--illustration-currentColor)" stroke-width="0.9084" stroke-linecap="round" stroke-linejoin="round"/>
<path d="M150.517 185.576L152.759 161.63" stroke="var(--illustration-currentColor)" stroke-width="0.9084" stroke-linecap="round" stroke-linejoin="round"/>
<path d="M149.076 160.148L148.935 136.853" stroke="var(--illustration-currentColor)" stroke-width="0.9084" stroke-linecap="round" stroke-linejoin="round"/>
<path d="M77.9134 90.8939L75.562 87.2612" stroke="var(--illustration-currentColor)" stroke-width="0.9084" stroke-linecap="round" stroke-linejoin="round"/>
<path d="M74.937 90.51L78.3657 87.0999" stroke="var(--illustration-currentColor)" stroke-width="0.9084" stroke-linecap="round" stroke-linejoin="round"/>
<path d="M96.7405 101.308L93.5356 100.237" stroke="var(--illustration-currentColor)" stroke-width="0.9084" stroke-linecap="round" stroke-linejoin="round"/>
<path d="M95.4271 98.7954L94.3618 103.07" stroke="var(--illustration-currentColor)" stroke-width="0.9084" stroke-linecap="round" stroke-linejoin="round"/>
<path d="M78.3271 113.353L81.7471 111.855" stroke="var(--illustration-currentColor)" stroke-width="0.9084" stroke-linecap="round" stroke-linejoin="round"/>
<path d="M80.4602 114.84L79.6055 111.207" stroke="var(--illustration-currentColor)" stroke-width="0.9084" stroke-linecap="round" stroke-linejoin="round"/>
<path d="M116.852 41.6701L118.142 36.9055" stroke="var(--illustration-currentColor)" stroke-width="1.1427" stroke-linecap="round" stroke-linejoin="round"/>
<path d="M114.938 38.5386L120.436 39.2286" stroke="var(--illustration-currentColor)" stroke-width="1.1427" stroke-linecap="round" stroke-linejoin="round"/>
<path d="M193.288 32.5139L195.256 34.8269L198.189 34.499L196.7 37.1063L197.959 39.8897L195.071 39.188L192.916 41.2364L192.62 38.1956L190.029 36.6779L192.735 35.5004L193.288 32.5139Z" fill="var(--illustration-currentColor)"/>
<path d="M100.1 72.2344L100.557 75.2371L103.223 76.5019L100.584 77.9347L100.19 80.9644L98.1028 78.8473L95.1931 79.4548L96.5419 76.7137L95.1382 74.0596L98.0584 74.4823L100.1 72.2344Z" fill="var(--illustration-currentColor)"/>
<g opacity="0.1">
<path d="M157.733 11.9873C151.253 14.9993 145.849 20.4422 141.893 26.3273C137.575 32.7545 134.8 40.2272 133.053 47.7377C129.494 63.035 129.417 79.3529 133.116 94.6277C134.145 98.9132 135.462 103.125 137.058 107.233C138.539 111.03 139.927 115.857 142.873 118.786C143.893 119.801 145.259 118.726 145.082 117.5C144.828 115.738 144.028 113.977 143.326 112.34C142.561 110.553 141.826 108.751 141.194 106.912C139.994 103.418 138.96 99.8588 138.111 96.2636C136.386 89.0036 135.391 81.5897 135.141 74.1317C134.675 59.4155 137.087 44.0516 144.058 30.9527C145.865 27.5585 147.937 24.182 150.455 21.2696C152.994 18.3911 155.783 15.7431 158.79 13.3568C159.613 12.692 158.564 11.6012 157.733 11.9873Z" fill="var(--illustration-currentColor)"/>
</g>
<g opacity="0.1">
<path d="M130.608 78.1797C128.801 78.0768 127.614 80.2911 126.738 81.5841C125.641 83.169 124.641 84.8181 123.742 86.523C122.017 89.8365 120.633 93.3162 119.61 96.909C117.582 104.095 116.887 111.591 117.559 119.027C117.743 120.999 118.015 122.969 118.383 124.916C118.724 126.723 119.065 128.944 120.133 130.493C121.16 131.983 123.472 131.867 124.01 129.986C124.49 128.306 123.491 125.747 123.159 124.097C121.744 116.931 121.758 109.557 123.2 102.396C124.024 98.3004 125.246 94.2948 126.847 90.4359C127.667 88.4589 128.685 86.5818 129.607 84.6552C130.344 83.1165 132.487 80.8713 131.774 79.0665C131.695 78.8163 131.54 78.5967 131.332 78.438C131.123 78.279 130.87 78.1884 130.608 78.1788L130.608 78.1797Z" fill="var(--illustration-currentColor)"/>
</g>
<g opacity="0.1">
<path d="M151.144 81.3601C149.467 82.3942 148.153 84.7963 147.283 86.5141C146.224 88.5634 145.35 90.7024 144.668 92.9056C143.356 97.3192 142.656 101.892 142.587 106.496C142.484 111.108 142.933 115.716 143.923 120.222C144.421 122.467 145.033 124.686 145.755 126.869C146.453 128.983 147.125 131.337 148.393 133.179C149.448 134.711 151.633 133.742 151.323 131.943C150.963 129.865 150.059 127.874 149.471 125.844C148.876 123.792 148.378 121.716 147.976 119.615C147.141 115.375 146.731 111.062 146.755 106.741C146.802 102.506 147.347 98.2921 148.379 94.1848C148.9 92.1226 149.519 90.0265 150.218 88.0219C150.574 87.0019 150.918 85.987 151.268 84.9682C151.609 83.9782 152.106 82.999 152.159 81.9433C152.157 81.8251 152.125 81.7093 152.065 81.6076C152.005 81.5056 151.919 81.421 151.817 81.3622C151.714 81.3034 151.598 81.2725 151.48 81.2722C151.362 81.2719 151.245 81.3025 151.143 81.3607L151.144 81.3601Z" fill="var(--illustration-currentColor)"/>
</g>
<g opacity="0.1">
<path d="M169.592 104.643L169.534 104.664C169.218 104.76 168.94 104.954 168.74 105.217C168.54 105.479 168.427 105.799 168.419 106.129C168.407 111.044 169.439 115.989 170.326 120.808C171.056 124.771 171.428 129.151 173.433 132.734C174.144 134.004 175.493 135.776 177.06 135.953C177.425 135.998 177.795 135.92 178.109 135.73C178.424 135.54 178.666 135.249 178.795 134.905C179.055 134.051 178.519 133.426 177.93 132.907C175.004 130.334 175.096 125.958 174.574 122.353C173.773 116.81 173.212 111.047 171.402 105.725C171.307 105.409 171.114 105.13 170.851 104.93C170.588 104.73 170.268 104.618 169.938 104.61C169.822 104.605 169.705 104.616 169.592 104.643Z" fill="var(--illustration-currentColor)"/>
</g>
<g opacity="0.1">
<path d="M141.63 119.503C140.979 121.989 141.136 124.993 141.288 127.544C141.446 130.225 141.602 132.906 141.794 135.584C142.186 141.044 142.578 146.504 142.97 151.962C143.761 162.884 144.647 173.802 145.502 184.719C145.735 187.697 145.978 190.675 146.231 193.652C146.492 196.718 146.458 199.99 147.301 202.96C147.766 204.6 149.867 204.071 150.063 202.586C150.411 199.949 150.007 197.192 149.853 194.546C149.69 191.766 149.521 188.986 149.344 186.208C148.994 180.847 148.63 175.487 148.251 170.128C147.489 159.31 146.827 148.486 146.051 137.669C145.838 134.689 145.605 131.711 145.355 128.735C145.223 127.168 145.046 125.642 144.788 124.089C144.534 122.554 144.405 120.947 143.8 119.503C143.403 118.555 141.94 118.322 141.631 119.503H141.63Z" fill="var(--illustration-currentColor)"/>
</g>
<g opacity="0.1">
<path d="M131.398 204.972C132.118 204.708 132.33 204.147 132.694 203.514C133.183 202.677 133.771 201.901 134.446 201.204C135.113 200.509 135.852 199.887 136.652 199.349C137.263 198.932 137.714 198.617 137.771 197.834C137.772 197.723 137.743 197.614 137.688 197.518C137.633 197.422 137.553 197.343 137.457 197.287C135.913 196.423 133.753 198.845 132.867 199.903C131.969 200.975 130.077 203.283 130.842 204.747C130.897 204.84 130.981 204.913 131.082 204.954C131.182 204.994 131.293 205.001 131.398 204.973L131.398 204.972Z" fill="var(--illustration-currentColor)"/>
</g>
<g opacity="0.1">
<path d="M147.746 208.324C148.466 208.13 148.823 207.38 149.403 206.944C149.906 206.522 150.509 206.235 151.154 206.11C152.076 206.007 152.813 205.357 152.677 204.354C152.559 203.484 151.639 202.762 150.743 203.066C149.659 203.388 148.669 203.967 147.856 204.753C147.227 205.403 146.219 206.727 146.605 207.674C146.675 207.908 146.834 208.106 147.046 208.226C147.258 208.347 147.509 208.382 147.746 208.322V208.324Z" fill="var(--illustration-currentColor)"/>
</g>
<g opacity="0.1">
<path d="M155.194 202.22C155.508 201.144 155.841 200.237 156.684 199.451C157.502 198.688 158.738 198.566 159.456 197.73C160.163 196.905 159.834 195.851 158.857 195.463C157.314 194.851 155.411 196.327 154.432 197.416C153.352 198.616 152.52 200.212 152.506 201.856C152.494 203.411 154.765 203.698 155.194 202.219V202.22Z" fill="var(--illustration-currentColor)"/>
</g>
<g opacity="0.1">
<path d="M121.373 202.783C121.07 202.142 120.318 202.208 119.731 202.065C118.902 201.863 117.969 201.366 117.585 200.555C116.69 198.663 118.587 197.386 120.16 197.034C121.165 196.808 121.853 195.373 121.194 194.49C119.771 192.581 120.426 190.649 120.073 188.485C120.038 188.363 119.957 188.26 119.847 188.197C119.737 188.135 119.606 188.118 119.484 188.151C116.297 189.359 117.035 193.857 118.204 196.238L119.7 193.633C116.245 193.196 113.346 197.145 114.143 200.364C114.797 203.007 118.391 205.524 121 203.956C121.14 203.876 121.256 203.759 121.336 203.62C121.416 203.48 121.458 203.321 121.457 203.159C121.453 203.03 121.425 202.902 121.373 202.783H121.373Z" fill="var(--illustration-currentColor)"/>
</g>
<g opacity="0.1">
<path d="M113.477 211.453C112.61 213.194 112.739 215.252 111.594 216.903C110.39 218.638 108.425 219.595 106.351 219.796C101.528 220.262 96.7686 217.388 93.7008 213.874C90.8508 210.608 89.2401 206.138 89.8689 201.796C90.4485 197.796 92.5857 193.576 95.9664 191.273C96.2454 191.101 96.4758 190.86 96.6354 190.573C96.795 190.287 96.879 189.965 96.879 189.637C96.879 189.309 96.795 188.986 96.6354 188.7C96.4758 188.414 96.2454 188.173 95.9664 188C92.1882 185.42 90.3354 180.917 90.3732 176.416C90.3918 174.212 90.5037 172.069 91.4961 170.054C92.5248 167.965 94.3275 166.45 95.4396 164.433C95.9118 163.577 95.1174 162.317 94.0896 162.677C91.4739 163.593 89.9196 166.059 88.7637 168.457C87.585 170.905 86.4555 173.659 86.448 176.416C86.4333 182.035 89.4807 187.372 93.6699 190.977L94.0533 188C85.4103 192.572 82.8576 203.073 86.7732 211.69C88.704 215.939 92.2161 219.543 96.3 221.77C100.76 224.2 106.571 225.414 111.265 222.88C113.414 221.666 115.072 219.742 115.957 217.438C116.75 215.414 116.967 212.253 114.65 211.146C114.453 211.035 114.221 211.005 114.002 211.062C113.783 211.12 113.594 211.26 113.477 211.453L113.477 211.453Z" fill="var(--illustration-currentColor)"/>
</g>
<g opacity="0.1">
<path d="M65.3853 155.303C64.9224 153.893 63.3042 153.878 62.1615 154.474C60.7584 155.206 59.7156 156.671 59.0895 158.083C58.4073 159.602 58.1064 161.266 58.2129 162.929C58.3194 164.591 58.8303 166.202 59.7012 167.623L62.1768 164.402C57.4617 163.552 52.4721 166.871 52.7361 171.999C52.8561 174.302 54.2781 176.487 56.5395 177.189C58.5723 177.819 60.9828 177.309 62.0256 175.324C62.208 174.991 62.2773 174.607 62.2233 174.231C62.1696 173.855 61.995 173.506 61.7262 173.237C61.4577 172.969 61.1091 172.794 60.7329 172.74C60.3567 172.686 59.9733 172.756 59.6397 172.938C58.1397 173.739 56.7825 172.788 57.228 171.08C57.738 169.123 59.8026 168.496 61.5942 168.71C63.2142 168.902 64.3749 166.692 63.4869 165.41C62.8833 164.57 62.4816 163.601 62.3124 162.581C62.1432 161.56 62.2113 160.514 62.5116 159.524C62.7972 158.552 63.3789 157.694 64.1757 157.068C64.6557 156.697 65.6439 156.088 65.3853 155.302V155.303Z" fill="var(--illustration-currentColor)"/>
</g>
<g opacity="0.1">
<path d="M71.5671 184.018C69.0198 183.347 67.3749 186.759 67.3404 188.862C67.2963 191.562 69.8082 194.47 72.6126 194.301C73.0887 194.285 73.5438 194.102 73.8975 193.782C74.2512 193.463 74.4801 193.029 74.544 192.557C74.6079 192.085 74.5026 191.605 74.2464 191.204C73.9902 190.802 73.6002 190.504 73.1454 190.363C72.0726 190 70.8102 189.76 70.5939 188.421C70.3749 187.066 71.5959 186.381 72.0714 185.258C72.2775 184.771 72.1479 184.171 71.5671 184.018Z" fill="var(--illustration-currentColor)"/>
</g>
<g opacity="0.1">
<path d="M58.7457 232.844C54.5205 233.156 51.5358 237.39 51.9852 241.478C52.4826 246.005 56.6652 249.37 61.1214 249.397L60.0834 245.565C54.651 247.858 54.5532 255.798 59.8716 258.292C62.4486 259.501 65.5341 259.038 67.884 257.512C70.4304 255.859 72.0336 253.247 73.404 250.61L69.18 249.465C69.0021 254.36 74.1987 257.286 78.5568 255.903C80.8902 255.163 82.6008 253.563 84.0357 251.641C85.3902 249.827 86.6835 247.945 87.018 245.657C87.1545 244.724 86.0604 243.8 85.278 244.645C84.288 245.715 83.1534 246.655 82.0662 247.625C81.0132 248.564 80.0139 249.665 78.8748 250.493C77.3937 251.569 73.6749 252.373 73.7133 249.465C73.7415 247.305 70.5009 246.26 69.4887 248.321C68.2053 250.935 66.1944 255.027 62.6721 254.771C62.0091 254.716 61.3851 254.434 60.9045 253.974C60.4239 253.513 60.1161 252.902 60.0321 252.242C59.8821 250.768 60.9036 249.673 62.1576 249.115C64.0815 248.26 63.0384 245.258 61.1196 245.283C58.581 245.316 56.1912 243.532 55.7343 240.97C55.2465 238.237 57.3888 236.592 59.397 235.254C60.3813 234.598 60.1146 232.742 58.7439 232.843L58.7457 232.844Z" fill="var(--illustration-currentColor)"/>
</g>
<g opacity="0.1">
<path d="M205.116 162.523C205.881 160.573 208.114 158.574 209.612 161.117C210.752 163.052 209.436 165.323 208.507 167.061C207.83 168.328 209.275 170.102 210.618 169.172C212.199 168.076 213.511 169.84 212.912 171.399C212.092 173.534 209.868 172.615 208.347 173.474C208.19 173.569 208.056 173.699 207.955 173.853C207.855 174.007 207.791 174.182 207.767 174.365C207.744 174.547 207.762 174.733 207.819 174.908C207.878 175.082 207.974 175.242 208.102 175.374C209.332 176.714 211.852 176.145 213.29 175.386C214.143 174.945 214.87 174.293 215.4 173.492C215.93 172.692 216.247 171.769 216.32 170.811C216.552 167.084 212.272 164.167 209.062 166.508L211.173 168.618C212.781 165.426 214.397 160.792 210.77 158.257C207.627 156.061 204.731 159.285 203.979 162.208C203.785 162.961 204.846 163.216 205.119 162.523H205.116Z" fill="var(--illustration-currentColor)"/>
</g>
<g opacity="0.1">
<path d="M215.994 191.952C215.17 194.969 220.454 195.273 222.21 194.692C224.604 193.901 227.277 189.925 225.038 187.711C224.929 187.606 224.798 187.526 224.653 187.478C224.509 187.43 224.356 187.415 224.205 187.435C224.055 187.454 223.91 187.507 223.783 187.59C223.656 187.673 223.549 187.783 223.47 187.913C222.532 189.394 222.702 191.149 220.836 191.997C219.212 192.735 217.924 191.237 216.357 191.589C216.27 191.612 216.191 191.658 216.127 191.722C216.063 191.786 216.017 191.865 215.994 191.952Z" fill="var(--illustration-currentColor)"/>
</g>
<g opacity="0.1">
<path d="M211.392 208.198C211.583 210.031 212.352 211.378 214.111 212.126C215.034 212.509 216.039 212.647 217.031 212.528C218.023 212.408 218.967 212.035 219.772 211.444L217.694 210.6C218.554 213.286 217.034 216.801 220.048 218.61C223.03 220.401 225.425 217.415 226.248 214.86C226.885 212.882 223.839 212.082 223.158 214.008C222.704 215.293 221.418 216.824 220.898 214.703C220.506 213.106 220.923 211.452 220.421 209.845C220.17 209.041 219.121 208.451 218.344 209C216.334 210.419 213.98 209.565 212.544 207.719C212.195 207.269 211.333 207.637 211.392 208.196V208.198Z" fill="var(--illustration-currentColor)"/>
</g>
</g>
<defs>
<linearGradient id="paint0_linear_28_12826" x1="177.839" y1="81.3176" x2="177.839" y2="136.309" gradientUnits="userSpaceOnUse">
<stop stop-color="#FF9A34"/>
<stop offset="1" stop-color="#EB6421"/>
</linearGradient>
<linearGradient id="paint1_linear_28_12826" x1="152.496" y1="80.9653" x2="152.496" y2="134.621" gradientUnits="userSpaceOnUse">
<stop stop-color="#FF9A34"/>
<stop offset="1" stop-color="#EB6421"/>
</linearGradient>
<linearGradient id="paint2_linear_28_12826" x1="156.979" y1="11.98" x2="156.979" y2="38.8078" gradientUnits="userSpaceOnUse">
<stop stop-color="#FF9A34"/>
<stop offset="1" stop-color="#EB6421"/>
</linearGradient>
<linearGradient id="paint3_linear_28_12826" x1="178.235" y1="206.33" x2="178.235" y2="246.488" gradientUnits="userSpaceOnUse">
<stop stop-color="#FF9A34"/>
<stop offset="1" stop-color="#EB6421"/>
</linearGradient>
<linearGradient id="paint4_linear_28_12826" x1="184.08" y1="206.31" x2="184.08" y2="206.373" gradientUnits="userSpaceOnUse">
<stop stop-color="#FF9A34"/>
<stop offset="1" stop-color="#EB6421"/>
</linearGradient>
<linearGradient id="paint5_linear_28_12826" x1="126.745" y1="77.0916" x2="126.745" y2="131.77" gradientUnits="userSpaceOnUse">
<stop stop-color="#FF9A34"/>
<stop offset="1" stop-color="#EB6421"/>
</linearGradient>
<linearGradient id="paint6_linear_28_12826" x1="129.891" y1="228.323" x2="129.891" y2="275.98" gradientUnits="userSpaceOnUse">
<stop stop-color="#FF9A34"/>
<stop offset="1" stop-color="#EB6421"/>
</linearGradient>
<linearGradient id="paint7_linear_28_12826" x1="117.54" y1="211.299" x2="117.54" y2="244.78" gradientUnits="userSpaceOnUse">
<stop stop-color="#FF9A34"/>
<stop offset="1" stop-color="#EB6421"/>
</linearGradient>
</defs>
</svg>
