<svg width="288" height="288" viewBox="0 0 288 288" fill="none" xmlns="http://www.w3.org/2000/svg">
<mask id="mask0_28_12827" style="mask-type:luminance" maskUnits="userSpaceOnUse" x="30" y="11" width="228" height="266">
<path d="M258 11.3999H30.2998V276.6H258V11.3999Z" fill="white"/>
</mask>
<g mask="url(#mask0_28_12827)">
<path fill-rule="evenodd" clip-rule="evenodd" d="M135.182 141.963C135.175 141.967 135.175 141.963 135.182 141.96C135.559 141.82 160.126 128.294 173.2 110.792L172.48 110.562C171.461 110.969 170.412 111.382 169.317 111.412C168.221 111.442 167.042 111.012 166.476 110.073C166.308 109.794 166.199 109.482 166.09 109.171C165.955 108.782 165.819 108.394 165.567 108.072C164.667 106.923 162.906 107.212 161.487 107.659C161.455 107.668 161.422 107.679 161.39 107.69C161.366 107.697 161.343 107.705 161.321 107.712L151.994 110.779C150.552 111.254 149.11 111.728 147.668 112.201C146.1 112.717 144.382 113.366 143.432 114.645C143.255 114.885 143.107 115.145 142.993 115.421C142.623 116.319 142.659 117.294 142.694 118.276C142.72 118.983 142.746 119.693 142.62 120.379C142.171 122.843 139.767 124.608 137.289 124.957C134.811 125.307 132.307 124.488 130.07 123.369C123.834 120.251 119.122 114.89 115.1 109.119C114.265 107.92 113.458 106.705 112.675 105.487C106.429 95.7701 101.072 85.5101 96.6687 74.8313L96.2226 74.3618C94.1769 74.8781 92.16 75.4907 90.1722 76.1999C87.1608 77.2673 84.2301 78.551 81.4032 80.0405C80.9337 80.2868 80.4615 80.5499 80.0115 80.8463C79.0236 81.4958 78.1611 82.3016 77.7915 83.4005C77.3388 84.7391 77.7282 86.2028 78.1446 87.5528C78.5364 88.8293 78.9537 90.0968 79.3965 91.3556C83.4858 103.057 89.6361 114.075 97.9908 123.213C98.2038 123.446 98.4201 123.679 98.6367 123.909C107.764 133.648 119.488 141.088 132.428 144.351C133.277 143.479 134.199 142.68 135.182 141.963ZM94.4406 80.2118C94.3494 79.9517 94.0641 79.8146 93.804 79.9061C93.5436 79.9976 93.4068 80.2826 93.4983 80.5427C99.7197 98.2589 110.831 113.851 125.547 125.513C125.764 125.684 126.078 125.648 126.249 125.432C126.42 125.215 126.384 124.901 126.168 124.73C111.6 113.185 100.6 97.7498 94.4406 80.2118Z" fill="url(#paint0_linear_28_12827)"/>
<path d="M143.567 186.161C143.157 181.509 142.747 176.857 142.335 172.205C142.318 172.015 142.302 171.825 142.292 171.633C142.225 170.624 142.265 169.588 142.832 168.775C143.464 167.873 144.6 167.484 145.675 167.23C149.169 166.411 152.795 166.455 156.371 166.18C159.161 165.964 162.015 165.528 164.556 164.399C165.27 164.084 165.956 163.71 166.607 163.28C169.571 161.309 171.702 157.732 171.066 154.233C177.809 150.007 189.12 147.09 200.785 141.945C201.711 141.536 202.61 141.12 203.482 140.69L203.755 141.239C204.508 148.788 204.342 156.507 202.323 163.819C200.305 171.132 196.333 178.035 190.403 182.763C184.239 187.683 176.407 189.979 168.688 191.604C166.361 192.093 164.013 192.536 161.656 192.894C155.875 193.773 150.034 194.159 144.226 193.6C144.006 191.119 143.787 188.639 143.567 186.161Z" fill="url(#paint1_linear_28_12827)"/>
<path d="M153.136 97.6922C152.876 96.6467 152.614 95.6021 152.35 94.559L152.311 94.4624C152.491 94.3883 152.678 94.3325 152.87 94.2959C153.74 94.1294 154.788 94.529 155.035 95.3813C155.254 96.1505 154.731 96.9764 154.032 97.3694C153.752 97.523 153.452 97.6352 153.14 97.7024L153.136 97.6922Z" fill="var(--illustration-currentColor)"/>
<path d="M161.525 204.84C161.525 204.84 160.235 219.648 146.487 219.648C132.739 219.648 125.562 212.598 123.684 205.546C122.861 202.459 121.406 192.466 121.593 181.075L122.585 181.095C122.585 181.171 122.592 181.247 122.605 181.321C122.791 182.341 124.017 182.746 125.039 182.893C126.087 183.043 127.144 183.129 128.202 183.149C127.426 183.226 126.647 183.299 125.871 183.376C124.551 183.502 122.861 183.999 122.814 185.32C122.765 186.662 124.456 187.27 125.788 187.418C131.575 188.057 137.43 187.646 143.07 186.204L143.566 186.161C143.786 188.638 144.006 191.118 144.226 193.601C150.033 194.16 155.874 193.774 161.656 192.895L161.759 193.435C161.541 200.01 161.525 204.84 161.525 204.84Z" fill="var(--illustration-currentColor)"/>
<path d="M97.9906 123.213C98.2036 123.446 98.4199 123.679 98.6365 123.909L98.2801 124.242C95.8321 124.741 93.3082 124.739 90.8611 124.236C88.414 123.732 86.0941 122.737 84.0424 121.312C81.9907 119.886 80.2492 118.059 78.9235 115.941C77.5978 113.823 76.7155 111.459 76.3297 108.99C75.3997 103.03 77.4097 97.0504 79.3963 91.3555C83.4856 103.057 89.6359 114.075 97.9906 123.213Z" fill="var(--illustration-currentColor)"/>
<path d="M142.604 276.064C153.054 276.064 161.524 267.593 161.524 257.144C161.524 246.694 153.054 238.223 142.604 238.223C132.155 238.223 123.684 246.694 123.684 257.144C123.684 267.593 132.155 276.064 142.604 276.064Z" stroke="var(--illustration-currentColor)" stroke-width="0.999" stroke-linecap="round" stroke-linejoin="round"/>
<path d="M135.182 141.96C135.559 141.821 160.127 128.294 173.2 110.792C178.165 104.149 181.475 96.9325 181.172 89.6611C180.962 84.4864 178.924 79.2811 174.359 74.2336C161.582 60.1051 136.331 44.9074 120.984 67.6906C112.286 80.6038 123.162 97.9891 115.35 108.948" stroke="var(--illustration-currentColor)" stroke-width="0.999" stroke-linecap="round" stroke-linejoin="round"/>
<path d="M135.203 141.946C135.196 141.95 135.19 141.956 135.183 141.96C135.176 141.963 135.176 141.966 135.183 141.963" stroke="var(--illustration-currentColor)" stroke-width="0.999" stroke-linecap="round" stroke-linejoin="round"/>
<path d="M161.758 193.433C161.541 200.01 161.525 204.841 161.525 204.841C161.525 204.841 160.235 219.649 146.487 219.649C132.739 219.649 125.562 212.599 123.684 205.547C122.861 202.46 121.406 192.467 121.593 181.076C121.806 167.843 124.233 152.722 132.428 144.35C133.277 143.479 134.198 142.68 135.182 141.963V141.96" stroke="var(--illustration-currentColor)" stroke-width="0.999" stroke-linecap="round" stroke-linejoin="round"/>
<path d="M91.8203 66.7242C102.033 48.75 120.884 26.7688 151.595 28.2406C203.075 30.708 234.275 74.0964 229.694 102.301C226.491 122 218.929 133.099 203.482 140.688V140.691C202.609 141.121 201.712 141.537 200.784 141.946C189.12 147.091 177.808 150.008 171.065 154.234C168.971 155.545 167.319 156.984 166.23 158.656C165.531 159.731 164.935 161.553 164.43 163.87" stroke="var(--illustration-currentColor)" stroke-width="0.999" stroke-linecap="round" stroke-linejoin="round"/>
<path d="M150.586 95.5979C151.1 95.1347 151.682 94.7519 152.311 94.4624C152.492 94.3883 152.679 94.3325 152.87 94.2959C153.74 94.1294 154.788 94.529 155.035 95.3813C155.255 96.1505 154.732 96.9764 154.033 97.3694C153.753 97.523 153.452 97.6352 153.14 97.7024C152.669 97.7996 152.189 97.8587 151.708 97.8788" stroke="var(--illustration-currentColor)" stroke-width="0.999" stroke-linecap="round" stroke-linejoin="round"/>
<path d="M153.137 97.692C152.876 96.6465 152.615 95.6022 152.351 94.5588" stroke="var(--illustration-currentColor)" stroke-width="0.999" stroke-linecap="round" stroke-linejoin="round"/>
<path d="M148.232 85.6346C148.129 84.7988 148.029 83.963 147.926 83.1272" stroke="var(--illustration-currentColor)" stroke-width="0.999" stroke-linecap="round" stroke-linejoin="round"/>
<path d="M139.777 86.4169C139.621 85.3714 139.463 84.3268 139.305 83.2834" stroke="var(--illustration-currentColor)" stroke-width="0.999" stroke-linecap="round" stroke-linejoin="round"/>
<path d="M129.658 92.9402C127.863 89.6171 126.055 86.2571 125.043 82.6175C124.03 78.9779 123.857 74.9855 125.313 71.4992C126.781 67.9727 129.795 65.2622 133.171 63.4739C137.34 61.2533 142.093 60.3731 146.781 60.9539C151.474 61.5605 155.823 63.7403 159.118 67.1375C161.625 69.7649 163.357 73.0214 165.065 76.2314C166.773 79.4414 168.525 82.688 171.059 85.2914C173.593 87.8948 177.063 89.8169 180.695 89.6768" stroke="var(--illustration-currentColor)" stroke-width="0.999" stroke-linecap="round" stroke-linejoin="round"/>
<path d="M129.164 93.1467C128.981 102.214 134.875 111.102 143.3 114.461" stroke="var(--illustration-currentColor)" stroke-width="0.999" stroke-linecap="round" stroke-linejoin="round"/>
<path d="M133.278 77.1902C131.733 84.5126 134.683 92.5943 140.583 97.2002C142.961 99.0548 145.738 100.363 148.042 102.308C150.347 104.253 152.208 107.138 151.779 110.12" stroke="var(--illustration-currentColor)" stroke-width="0.999" stroke-linecap="round" stroke-linejoin="round"/>
<path d="M131.806 75.6082C132.289 76.141 132.799 76.6477 133.336 77.1268C138.301 81.5788 145.35 83.6668 151.93 82.5178C152.228 83.4016 152.742 84.1969 153.425 84.832C154.109 85.4668 154.939 85.9213 155.843 86.1541C155.909 86.1709 155.979 86.1841 156.049 86.1973C156.929 86.3692 157.838 86.3266 158.699 86.0734C159.56 85.8202 160.346 85.3636 160.994 84.7423" stroke="var(--illustration-currentColor)" stroke-width="0.999" stroke-linecap="round" stroke-linejoin="round"/>
<path d="M144.043 87.303C144.361 87.6996 144.564 88.1763 144.628 88.6809C144.693 89.1852 144.618 89.6976 144.41 90.1617C144.203 90.6261 143.871 91.0239 143.452 91.3122C143.033 91.6002 142.543 91.7673 142.035 91.7952C142.908 92.0847 143.78 92.3712 144.652 92.661" stroke="var(--illustration-currentColor)" stroke-width="0.999" stroke-linecap="round" stroke-linejoin="round"/>
<path d="M155.961 86.6003C157.543 93.5966 159.36 100.535 161.412 107.416" stroke="var(--illustration-currentColor)" stroke-width="0.999" stroke-linecap="round" stroke-linejoin="round"/>
<path d="M96.6689 74.8323C101.072 85.5111 106.429 95.7711 112.676 105.487C113.458 106.706 114.266 107.921 115.1 109.12C119.122 114.891 123.834 120.252 130.07 123.37C132.307 124.489 134.812 125.308 137.289 124.958C139.767 124.609 142.171 122.844 142.62 120.38C142.92 118.741 142.357 116.967 142.993 115.422C143.107 115.146 143.255 114.886 143.433 114.646C144.382 113.367 146.1 112.718 147.668 112.201C149.11 111.729 150.552 111.255 151.994 110.78L161.321 107.713C161.374 107.696 161.431 107.676 161.487 107.659C162.906 107.213 164.668 106.924 165.568 108.073C166.02 108.652 166.097 109.444 166.477 110.074C167.043 111.013 168.221 111.442 169.317 111.412C170.413 111.382 171.461 110.97 172.48 110.563" stroke="var(--illustration-currentColor)" stroke-width="0.999" stroke-linecap="round" stroke-linejoin="round"/>
<path d="M171.052 154.158C171.056 154.184 171.062 154.207 171.065 154.234C171.701 157.734 169.57 161.31 166.607 163.281C165.956 163.711 165.269 164.086 164.555 164.4C162.015 165.529 159.161 165.966 156.371 166.182C152.794 166.455 149.168 166.412 145.675 167.232C144.599 167.485 143.464 167.875 142.831 168.777C142.265 169.59 142.225 170.625 142.291 171.634C142.301 171.827 142.318 172.017 142.335 172.207C142.744 176.859 143.155 181.511 143.567 186.162C143.786 188.64 144.006 191.12 144.227 193.602C150.034 194.162 155.875 193.776 161.657 192.897C164.014 192.54 166.361 192.097 168.689 191.607C176.408 189.982 184.24 187.687 190.403 182.766C196.334 178.037 200.306 171.135 202.324 163.822C204.342 156.51 204.509 148.792 203.756 141.242" stroke="var(--illustration-currentColor)" stroke-width="0.999" stroke-linecap="round" stroke-linejoin="round"/>
<path d="M128.203 183.15C127.427 183.227 126.647 183.3 125.872 183.376C124.552 183.503 122.861 183.999 122.815 185.321C122.765 186.663 124.457 187.271 125.788 187.419C131.575 188.058 137.43 187.646 143.07 186.204" stroke="var(--illustration-currentColor)" stroke-width="0.999" stroke-linecap="round" stroke-linejoin="round"/>
<path d="M128.203 183.15C130.236 183.192 132.266 182.996 134.254 182.568C132.235 182.761 130.219 182.955 128.203 183.15Z" stroke="var(--illustration-currentColor)" stroke-width="0.999" stroke-linecap="round" stroke-linejoin="round"/>
<path d="M127.523 179.001C126.944 179.038 126.368 179.071 125.792 179.105C125.055 179.148 124.296 179.198 123.644 179.541C123.346 179.684 123.091 179.903 122.905 180.176C122.719 180.449 122.609 180.766 122.585 181.096C122.585 181.172 122.592 181.248 122.605 181.323C122.791 182.343 124.017 182.748 125.039 182.894C126.087 183.045 127.144 183.13 128.202 183.15" stroke="var(--illustration-currentColor)" stroke-width="0.999" stroke-linecap="round" stroke-linejoin="round"/>
<path d="M127.523 179.002C130.094 179.203 132.68 179.052 135.209 178.552C132.645 178.705 130.083 178.855 127.523 179.002Z" stroke="var(--illustration-currentColor)" stroke-width="0.999" stroke-linecap="round" stroke-linejoin="round"/>
<path d="M141.822 171.662C139.887 169.944 137.951 168.226 136.014 166.508C135.193 168.782 135.25 171.28 136.174 173.514C132.897 173.914 129.62 174.312 126.341 174.709C125.604 174.75 124.881 174.936 124.216 175.259C123.577 175.622 123.071 176.327 123.171 177.057C123.327 178.192 124.701 178.662 125.835 178.822C126.398 178.902 126.96 178.962 127.523 179.002" stroke="var(--illustration-currentColor)" stroke-width="0.999" stroke-linecap="round" stroke-linejoin="round"/>
<path d="M96.2224 74.363C94.1782 74.8793 92.1613 75.4922 90.172 76.2011C87.1609 77.2685 84.2308 78.5519 81.4042 80.0411C80.9347 80.2874 80.4619 80.5511 80.0125 80.8469C79.0225 81.4964 78.1609 82.3022 77.7925 83.4011C77.3398 84.7397 77.7292 86.2049 78.1456 87.5534C78.5386 88.8287 78.9559 90.0965 79.3975 91.3562C83.4868 103.056 89.6371 114.076 97.9918 123.213C98.2048 123.446 98.4211 123.679 98.6377 123.909C107.765 133.649 119.489 141.088 132.429 144.351L132.579 144.391" stroke="var(--illustration-currentColor)" stroke-width="0.999" stroke-linecap="round" stroke-linejoin="round"/>
<path d="M77.9849 68.4661C77.3159 66.8917 76.5548 65.3581 75.7049 63.874C75.1154 62.8486 74.1197 61.6963 72.9911 62.0527C72.2516 62.2891 71.8487 63.1348 71.8721 63.9127C71.8955 64.6906 72.2552 65.4109 72.6047 66.1069C75.029 70.9387 77.4554 75.7702 79.8839 80.602" stroke="var(--illustration-currentColor)" stroke-width="0.999" stroke-linecap="round" stroke-linejoin="round"/>
<path d="M77.9844 68.4661C78.5418 70.4527 79.209 72.4069 79.9824 74.32C79.4568 72.3235 78.789 70.3672 77.9844 68.4661Z" stroke="var(--illustration-currentColor)" stroke-width="0.999" stroke-linecap="round" stroke-linejoin="round"/>
<path d="M82.8257 68.426C82.1075 65.7815 81.1778 63.1991 80.0453 60.7037C79.5524 59.6183 78.5867 58.3529 77.4611 58.7492C76.4111 59.1188 76.349 60.5639 76.5155 61.6661C76.862 63.9614 77.3531 66.2324 77.9855 68.4659" stroke="var(--illustration-currentColor)" stroke-width="0.999" stroke-linecap="round" stroke-linejoin="round"/>
<path d="M82.8262 68.426C83.0992 69.7046 83.3932 70.9778 83.7085 72.2453C83.4655 70.9631 83.1715 69.6899 82.8262 68.426Z" stroke="var(--illustration-currentColor)" stroke-width="0.999" stroke-linecap="round" stroke-linejoin="round"/>
<path d="M90.1425 76.1214C91.6212 74.0295 92.3997 71.5233 92.3667 68.9622C92.3928 68.4087 92.2722 67.8585 92.0172 67.3671C91.8519 67.0899 91.6002 66.8748 91.3011 66.7545C91.0884 66.6642 90.8514 66.6477 90.6285 66.7077C90.1392 66.8475 89.8428 67.3272 89.5929 67.77C88.8435 69.105 88.0935 70.4382 87.3429 71.769C86.7939 67.32 85.7034 62.9547 84.0954 58.77C83.7354 57.8376 82.9965 56.73 82.0374 57.0018C81.0951 57.2718 81.0351 58.5735 81.1818 59.5458C81.6345 62.523 82.1829 65.4831 82.8267 68.4261" stroke="var(--illustration-currentColor)" stroke-width="0.999" stroke-linecap="round" stroke-linejoin="round"/>
<path d="M79.4073 91.3223C79.4037 91.3322 79.4004 91.3454 79.3971 91.3556C77.4093 97.0496 75.4014 103.03 76.3305 108.99C76.716 111.459 77.5986 113.824 78.9243 115.941C80.2497 118.059 81.9912 119.886 84.0429 121.312C86.0949 122.737 88.4145 123.732 90.8616 124.236C93.309 124.739 95.8329 124.741 98.2809 124.242" stroke="var(--illustration-currentColor)" stroke-width="0.999" stroke-linecap="round" stroke-linejoin="round"/>
<path d="M55.802 46.9553C59.5358 51.5948 63.4187 56.5778 64.0985 62.4953C64.445 65.5118 63.8207 68.7875 61.7351 70.9943C59.6495 73.2011 55.9076 73.9325 53.4944 72.0896C51.0812 70.2467 51.1727 65.7863 53.9333 64.5224C56.7362 63.239 60.0917 65.9207 60.5654 68.9666C61.0391 72.0125 59.516 75.0002 57.7829 77.5502C56.0498 80.1002 54.0128 82.5602 53.2373 85.5428C52.0973 89.9321 54.1025 94.8281 57.7127 97.5728" stroke="var(--illustration-currentColor)" stroke-width="0.999" stroke-linecap="round" stroke-linejoin="round"/>
<path d="M223.217 155.953C216.337 159.276 211.751 166.861 212.004 174.497C212.09 177.073 212.737 179.74 214.446 181.667C216.156 183.595 219.104 184.566 221.423 183.442C223.742 182.318 224.697 178.816 222.88 176.989C221.35 175.451 218.602 175.716 216.973 177.15C215.344 178.584 214.68 180.852 214.605 183.021C214.489 186.354 215.565 189.603 216.69 192.741C217.816 195.879 219.023 199.058 219.186 202.389C219.35 205.72 218.284 209.304 215.626 211.319C212.969 213.334 208.584 213.095 206.776 210.294" stroke="var(--illustration-currentColor)" stroke-width="0.999" stroke-linecap="round" stroke-linejoin="round"/>
<path d="M246.265 146.668L242.739 140.674" stroke="var(--illustration-currentColor)" stroke-width="0.999" stroke-linecap="round" stroke-linejoin="round"/>
<path d="M241.002 145.996L245.976 142.167" stroke="var(--illustration-currentColor)" stroke-width="0.999" stroke-linecap="round" stroke-linejoin="round"/>
<path d="M247.558 103.643C247.563 102.831 247.768 102.032 248.155 101.318C248.542 100.604 249.099 99.9969 249.776 99.549C250.454 99.1014 251.231 98.8273 252.039 98.7511C252.848 98.6749 253.663 98.7991 254.412 99.1126C255.161 99.4258 255.821 99.919 256.335 100.548C256.848 101.177 257.199 101.923 257.356 102.72C257.512 103.517 257.471 104.34 257.234 105.116C256.997 105.893 256.573 106.6 255.998 107.174C254.501 108.67 252.248 109.048 250.377 110.04C248.507 111.033 246.917 113.423 248.103 115.176L248.373 114.223" stroke="var(--illustration-currentColor)" stroke-width="0.999" stroke-linecap="round" stroke-linejoin="round"/>
<path d="M246.541 121.618L246.85 120.198" stroke="var(--illustration-currentColor)" stroke-width="0.999" stroke-linecap="round" stroke-linejoin="round"/>
<path d="M223.853 16.2425C223.98 15.4311 224.307 14.6642 224.804 14.0109C225.302 13.3576 225.955 12.8385 226.703 12.5003C227.452 12.1622 228.272 12.0157 229.091 12.074C229.911 12.1324 230.702 12.3937 231.395 12.8345C232.088 13.2753 232.661 13.8817 233.061 14.5989C233.461 15.3161 233.676 16.1217 233.687 16.9429C233.698 17.7641 233.504 18.575 233.123 19.3027C232.743 20.0303 232.187 20.6517 231.506 21.1109C230.281 21.9362 228.758 22.1738 227.429 22.8176C226.1 23.4614 224.874 24.833 225.232 26.2658L225.78 25.6991" stroke="var(--illustration-currentColor)" stroke-width="0.999" stroke-linecap="round" stroke-linejoin="round"/>
<path d="M224.702 33.1307L225.03 30.6602" stroke="var(--illustration-currentColor)" stroke-width="0.999" stroke-linecap="round" stroke-linejoin="round"/>
<path d="M182.393 17.3101L179.94 13.7749" stroke="var(--illustration-currentColor)" stroke-width="0.999" stroke-linecap="round" stroke-linejoin="round"/>
<path d="M178.219 16.9201L182.097 13.7461" stroke="var(--illustration-currentColor)" stroke-width="0.999" stroke-linecap="round" stroke-linejoin="round"/>
<path d="M108.055 22.5602L105.235 20.4446" stroke="var(--illustration-currentColor)" stroke-width="0.999" stroke-linecap="round" stroke-linejoin="round"/>
<path d="M104.451 23.5657L107.295 19.3501" stroke="var(--illustration-currentColor)" stroke-width="0.999" stroke-linecap="round" stroke-linejoin="round"/>
<path d="M72.9003 77.4545C71.0556 74.5244 69.8454 71.2403 69.3477 67.814" stroke="var(--illustration-currentColor)" stroke-width="0.999" stroke-linecap="round" stroke-linejoin="round"/>
<path d="M75.5548 22.5916C75.1507 21.6482 75.0898 20.5929 75.3832 19.6093C75.6766 18.6258 76.3051 17.7761 77.1601 17.2081C77.7847 16.7886 78.5452 16.6213 79.2883 16.7398C80.7046 17.0305 81.5059 18.6151 81.5497 20.0602C81.5935 21.5053 81.0997 22.9081 80.9149 24.3418C80.7301 25.7755 80.9464 27.4186 82.0738 28.3237L81.8473 28.2019" stroke="var(--illustration-currentColor)" stroke-width="0.999" stroke-linecap="round" stroke-linejoin="round"/>
<path d="M85.0203 32.5501L84.0801 31.1401" stroke="var(--illustration-currentColor)" stroke-width="0.999" stroke-linecap="round" stroke-linejoin="round"/>
<path d="M33.6528 99.9904C32.7393 99.4609 31.995 98.6827 31.5072 97.7461C31.0194 96.8098 30.8082 95.7538 30.8982 94.7017C31.1382 92.6113 32.856 90.7417 34.9404 90.4525C37.0248 90.1633 39.2475 91.5925 39.7323 93.6394C40.2012 95.6218 39.1533 97.7551 39.7299 99.709C40.2903 101.607 42.1815 102.739 43.9188 103.688" stroke="var(--illustration-currentColor)" stroke-width="0.999" stroke-linecap="round" stroke-linejoin="round"/>
<path d="M48.1171 106.59L47.0596 105.768" stroke="var(--illustration-currentColor)" stroke-width="0.999" stroke-linecap="round" stroke-linejoin="round"/>
<path d="M112.443 143.636C107.251 141.331 102.998 137.329 100.381 132.288" stroke="var(--illustration-currentColor)" stroke-width="0.999" stroke-linecap="round" stroke-linejoin="round"/>
<path d="M103.878 143.012L101.37 140.662" stroke="var(--illustration-currentColor)" stroke-width="0.999" stroke-linecap="round" stroke-linejoin="round"/>
<path d="M76.5968 157.105C74.9768 155.949 74.7454 153.349 76.0165 151.819C77.2876 150.29 79.7323 149.985 81.4339 151.015C83.1355 152.045 84.0037 154.21 83.662 156.169C83.3647 157.875 82.2787 159.363 81.9766 161.067C81.8137 162.058 81.9187 163.075 82.2808 164.012C82.6429 164.95 83.2486 165.773 84.0355 166.397" stroke="var(--illustration-currentColor)" stroke-width="0.999" stroke-linecap="round" stroke-linejoin="round"/>
<path d="M88.2332 172.132L87.293 170.878" stroke="var(--illustration-currentColor)" stroke-width="0.999" stroke-linecap="round" stroke-linejoin="round"/>
<path d="M56.0782 165.446L51.7246 162.881" stroke="var(--illustration-currentColor)" stroke-width="0.999" stroke-linecap="round" stroke-linejoin="round"/>
<path d="M52.5049 166.491L54.6985 162.417" stroke="var(--illustration-currentColor)" stroke-width="0.999" stroke-linecap="round" stroke-linejoin="round"/>
<path d="M230.2 196.413L233.962 194.849" stroke="var(--illustration-currentColor)" stroke-width="0.999" stroke-linecap="round" stroke-linejoin="round"/>
<path d="M232.867 197.204C232.08 196.253 231.542 195.123 231.3 193.913" stroke="var(--illustration-currentColor)" stroke-width="0.999" stroke-linecap="round" stroke-linejoin="round"/>
<path d="M206.824 190.502L204.795 188.769" stroke="var(--illustration-currentColor)" stroke-width="0.999" stroke-linecap="round" stroke-linejoin="round"/>
<path d="M204.213 191.574C204.942 190.257 206.003 189.152 207.29 188.37" stroke="var(--illustration-currentColor)" stroke-width="0.999" stroke-linecap="round" stroke-linejoin="round"/>
<path d="M162.822 112.742L162.038 110.548" stroke="var(--illustration-currentColor)" stroke-width="0.999" stroke-linecap="round" stroke-linejoin="round"/>
<path d="M157.673 114.459L157.067 112.572" stroke="var(--illustration-currentColor)" stroke-width="0.999" stroke-linecap="round" stroke-linejoin="round"/>
<path d="M152.48 116.19C152.083 115.584 151.866 114.878 151.854 114.153" stroke="var(--illustration-currentColor)" stroke-width="0.999" stroke-linecap="round" stroke-linejoin="round"/>
<path d="M146.618 118.091L146.041 116.351" stroke="var(--illustration-currentColor)" stroke-width="0.999" stroke-linecap="round" stroke-linejoin="round"/>
<path d="M94.7451 88.992C95.0397 88.7421 95.3937 88.5726 95.7729 88.4994C96.1521 88.4265 96.5436 88.4526 96.9099 88.575C97.2762 88.6977 97.6047 88.9125 97.8636 89.199C98.1225 89.4855 98.3031 89.8341 98.3877 90.2109C98.6277 91.2747 98.0772 92.3658 98.1432 93.4542C98.2131 94.1877 98.5512 94.8696 99.0927 95.3691C99.6342 95.8686 100.341 96.1503 101.078 96.1608" stroke="var(--illustration-currentColor)" stroke-width="0.999" stroke-linecap="round" stroke-linejoin="round"/>
<path d="M101.485 116.157C101.649 115.832 101.895 115.555 102.199 115.355C102.503 115.155 102.854 115.038 103.217 115.016C103.58 114.993 103.943 115.067 104.269 115.228C104.595 115.39 104.872 115.634 105.075 115.937C105.929 117.216 105.203 119.087 106.017 120.393C106.334 120.861 106.818 121.191 107.369 121.315C107.921 121.44 108.499 121.35 108.987 121.063" stroke="var(--illustration-currentColor)" stroke-width="0.999" stroke-linecap="round" stroke-linejoin="round"/>
<path d="M90.0332 102.837C90.1331 102.574 90.3032 102.343 90.5255 102.171C90.7475 101.998 91.013 101.89 91.2923 101.859C91.5716 101.827 91.8545 101.874 92.1095 101.992C92.3645 102.111 92.5817 102.298 92.7374 102.532C92.9951 103.003 93.1193 103.535 93.0974 104.071C93.0749 104.607 93.1748 105.14 93.3899 105.631C93.6452 106.1 94.2263 106.441 94.7201 106.237" stroke="var(--illustration-currentColor)" stroke-width="0.999" stroke-linecap="round" stroke-linejoin="round"/>
<path d="M121.574 127.372C122.077 126.267 123.803 126.005 124.611 126.911C125.103 127.461 125.217 128.241 125.317 128.972C125.418 129.704 125.552 130.485 126.067 131.012C126.582 131.54 127.617 131.605 127.97 130.957" stroke="var(--illustration-currentColor)" stroke-width="0.999" stroke-linecap="round" stroke-linejoin="round"/>
<path d="M146.573 125.132C146.643 124.891 146.784 124.678 146.977 124.519C147.171 124.36 147.407 124.264 147.657 124.243C147.906 124.221 148.156 124.276 148.373 124.4C148.591 124.523 148.766 124.71 148.875 124.935C149.195 125.591 148.957 126.538 149.552 126.963C150.049 127.318 150.744 127.002 151.217 126.617C151.691 126.231 152.181 125.747 152.792 125.767" stroke="var(--illustration-currentColor)" stroke-width="0.999" stroke-linecap="round" stroke-linejoin="round"/>
<path d="M197.035 153.625L197.171 154.116C197.078 153.806 196.903 153.528 196.664 153.31C196.425 153.092 196.132 152.943 195.815 152.879C195.498 152.815 195.17 152.838 194.865 152.946C194.561 153.053 194.291 153.242 194.085 153.491C193.433 154.278 193.57 155.451 193.91 156.415C194.25 157.38 194.762 158.321 194.756 159.343C194.75 160.366 193.938 161.486 192.926 161.329L192.77 160.845" stroke="var(--illustration-currentColor)" stroke-width="0.999" stroke-linecap="round" stroke-linejoin="round"/>
<path d="M178.839 157.38C178.132 156.79 176.973 157.067 176.387 157.778C175.801 158.488 175.687 159.483 175.787 160.399C175.887 161.314 176.172 162.2 176.29 163.114C176.408 164.027 176.336 165.019 175.795 165.764C174.988 166.874 173.301 167.08 172.08 166.456" stroke="var(--illustration-currentColor)" stroke-width="0.999" stroke-linecap="round" stroke-linejoin="round"/>
<path d="M184.811 180.721C184.952 179.746 184.031 178.833 183.05 178.765C182.069 178.698 181.132 179.308 180.566 180.115C180.123 180.747 179.868 181.488 179.529 182.182C179.191 182.876 178.734 183.558 178.043 183.904C177.353 184.249 176.388 184.138 175.971 183.488" stroke="var(--illustration-currentColor)" stroke-width="0.999" stroke-linecap="round" stroke-linejoin="round"/>
<path d="M163.093 179.652C163.179 179.109 163.128 178.553 162.945 178.035C162.762 177.516 162.453 177.051 162.045 176.682C161.638 176.313 161.145 176.051 160.612 175.919C160.078 175.788 159.52 175.791 158.988 175.929C158.065 176.169 157.295 176.789 156.566 177.403C155.838 178.017 155.092 178.658 154.185 178.952C153.279 179.247 152.157 179.106 151.567 178.356" stroke="var(--illustration-currentColor)" stroke-width="0.999" stroke-linecap="round" stroke-linejoin="round"/>
<path fill-rule="evenodd" clip-rule="evenodd" d="M155.841 86.1542C155.908 86.171 155.977 86.1842 156.047 86.1974L155.959 86.6015C157.546 93.6017 159.362 100.54 161.41 107.417L161.487 107.66C162.906 107.214 164.667 106.924 165.567 108.073C165.819 108.395 165.954 108.783 166.09 109.172C166.199 109.483 166.308 109.794 166.476 110.074C167.042 111.013 168.217 111.443 169.316 111.413C170.415 111.383 171.46 110.97 172.48 110.563L173.2 110.793C178.165 104.15 181.475 96.9344 181.172 89.6618L180.695 89.6783C177.063 89.8184 173.593 87.8963 171.059 85.2929C168.525 82.6895 166.773 79.4429 165.065 76.2329L165.059 76.2212C163.353 73.0148 161.622 69.7631 159.118 67.139C155.823 63.7418 151.474 61.562 146.781 60.9554C142.093 60.3746 137.34 61.2548 133.171 63.4754C129.795 65.2637 126.781 67.9742 125.313 71.5007C123.857 74.987 124.03 78.9794 125.043 82.619C126.055 86.2586 127.863 89.6186 129.658 92.9417L129.165 93.1481C128.982 102.216 134.876 111.103 143.3 114.463L143.434 114.646C144.383 113.367 146.101 112.718 147.669 112.202C149.111 111.726 150.553 111.253 151.995 110.78L151.778 110.12C152.208 107.138 150.346 104.253 148.042 102.308C146.8 101.259 145.419 100.395 144.038 99.5312C142.859 98.7929 141.679 98.0546 140.583 97.2002C134.683 92.5943 131.732 84.5126 133.277 77.1902L133.334 77.1269C138.299 81.5789 145.348 83.6669 151.928 82.5179C152.227 83.4014 152.741 84.1967 153.424 84.8318C154.107 85.4666 154.938 85.9211 155.841 86.1542ZM155.903 68.1482C152.576 65.0867 148.054 62.8835 143.456 63.4418C143.182 63.4751 142.987 63.7241 143.021 63.998C143.054 64.2719 143.303 64.4669 143.577 64.4336C147.783 63.9227 152.028 65.9393 155.227 68.8832C158.166 71.5883 160.355 74.9858 162.566 78.4178L162.57 78.4232C162.769 78.7319 162.968 79.0409 163.168 79.3499C165.576 83.0708 168.195 86.8733 171.84 89.5733C172.061 89.7374 172.374 89.6909 172.538 89.4692C172.702 89.2475 172.656 88.9349 172.434 88.7705C168.951 86.1905 166.417 82.532 164.006 78.8072C163.803 78.4931 163.6 78.1781 163.396 77.8619C161.199 74.4494 158.942 70.9448 155.903 68.1482Z" fill="var(--illustration-currentColor)"/>
<path fill-rule="evenodd" clip-rule="evenodd" d="M142.291 171.632C142.225 170.623 142.265 169.588 142.831 168.775C143.464 167.873 144.601 167.483 145.676 167.231C148.233 166.631 150.86 166.493 153.488 166.355C154.451 166.305 155.413 166.255 156.372 166.181C159.163 165.965 162.016 165.529 164.557 164.4L164.431 163.87C164.935 161.553 165.532 159.731 166.231 158.656C167.32 156.984 168.971 155.545 171.066 154.234C175.025 151.753 180.56 149.722 186.815 147.428C191.214 145.814 195.969 144.07 200.785 141.946C201.712 141.537 202.61 141.121 203.482 140.691V140.688C218.93 133.099 226.492 122 229.695 102.301C234.276 74.0964 203.076 30.708 151.596 28.2406C120.884 26.7688 102.034 48.75 91.8198 66.7245L91.3002 66.7545C91.5993 66.8751 91.851 67.0902 92.0163 67.3671C92.2713 67.8588 92.3919 68.409 92.3658 68.9622C92.3988 71.5236 91.6203 74.0298 90.1416 76.1214L90.1716 76.2012C92.1606 75.4923 94.1775 74.8797 96.222 74.3631L96.6681 74.8326C101.071 85.5114 106.429 95.7714 112.675 105.488C113.457 106.706 114.263 107.92 115.099 109.12L115.349 108.947C119.143 103.624 118.529 96.7845 117.89 89.6775C117.214 82.1538 116.51 74.3307 120.983 67.6902C136.331 44.907 161.581 60.1047 174.358 74.2332C178.923 79.2807 180.961 84.486 181.171 89.6607C181.474 96.9321 178.164 104.149 173.199 110.792C160.126 128.294 135.558 141.82 135.182 141.96V141.963C134.198 142.68 133.277 143.479 132.428 144.351C124.232 152.722 121.805 167.843 121.592 181.076L122.585 181.096C122.609 180.767 122.719 180.449 122.905 180.176C123.091 179.903 123.346 179.684 123.644 179.541C124.296 179.198 125.055 179.148 125.792 179.105C126.368 179.071 126.944 179.038 127.523 179.002C126.96 178.962 126.397 178.902 125.835 178.822C124.701 178.662 123.327 178.192 123.171 177.057C123.071 176.327 123.577 175.622 124.216 175.258C124.881 174.936 125.603 174.75 126.341 174.709C129.62 174.312 132.897 173.914 136.174 173.514C135.25 171.28 135.193 168.782 136.014 166.508C137.951 168.226 139.887 169.944 141.821 171.662L142.291 171.632ZM200.573 51.6405C200.331 51.5064 200.027 51.5931 199.893 51.834C199.759 52.0749 199.845 52.3791 200.087 52.5135C214.694 60.6456 224.43 76.9008 224.703 93.618C224.976 110.335 215.778 126.9 201.443 135.505C201.207 135.648 201.13 135.954 201.272 136.191C201.414 136.427 201.721 136.504 201.958 136.362C216.598 127.573 225.981 110.675 225.702 93.6018C225.423 76.5279 215.491 59.9463 200.573 51.6405Z" fill="var(--illustration-currentColor)"/>
<path fill-rule="evenodd" clip-rule="evenodd" d="M161.524 257.144C161.524 267.593 153.054 276.064 142.604 276.064C132.155 276.064 123.684 267.593 123.684 257.144C123.684 246.694 132.155 238.223 142.604 238.223C153.054 238.223 161.524 246.694 161.524 257.144ZM146.036 241.989C145.768 241.924 145.498 242.09 145.434 242.358C145.37 242.626 145.535 242.896 145.803 242.96C148.048 243.498 150.132 244.565 151.881 246.073C153.629 247.58 154.991 249.485 155.852 251.627C156.714 253.768 157.05 256.085 156.833 258.384C156.616 260.682 155.852 262.895 154.605 264.838C154.455 265.07 154.523 265.379 154.755 265.528C154.987 265.677 155.296 265.609 155.445 265.378C156.779 263.301 157.596 260.935 157.828 258.478C158.06 256.021 157.7 253.543 156.779 251.254C155.858 248.964 154.402 246.928 152.533 245.316C150.664 243.704 148.436 242.563 146.036 241.989Z" fill="var(--illustration-currentColor)"/>
<g opacity="0.1">
<path d="M79.4787 81.5019C79.1589 83.0805 78.7317 84.4548 78.8244 86.0844C78.9474 87.789 79.1748 89.4846 79.5054 91.1613C80.0397 94.1373 80.8917 97.0476 82.047 99.8415C84.2403 104.99 87.0003 109.877 90.2763 114.413C100.398 128.699 114.661 139.535 131.138 145.456C134.244 146.583 135.638 141.566 132.507 140.493C113.01 133.809 96.7074 118.836 87.7311 100.356C87.1122 99.0822 86.5011 97.8027 85.9266 96.5085C85.3224 95.1483 84.5109 93.9009 83.9466 92.5236C83.2224 90.8211 82.6122 89.0721 82.1199 87.2883C81.912 86.4927 81.7584 85.6923 81.6132 84.8838C81.4197 83.8077 81.0162 82.7958 80.943 81.6999C80.8902 80.9106 79.6557 80.6295 79.479 81.5019H79.4787Z" fill="var(--illustration-currentColor)"/>
</g>
<g opacity="0.1">
<path d="M132.561 78.9984C132.356 81.285 134.201 82.5189 135.885 83.676C137.778 84.978 139.81 85.5456 142.078 85.8738C144.51 86.226 146.965 86.2203 149.401 86.5158C150.538 86.6463 151.661 86.886 152.752 87.2316C153.91 87.6069 154.9 88.0947 156.139 88.1982C157.659 88.3254 158.68 86.3787 157.887 85.1511C155.474 81.4119 149.052 81.6558 145.137 81.3918C142.972 81.2688 140.826 80.9235 138.731 80.3616C136.925 79.8648 135.638 78.4944 133.841 78.0216C133.691 77.9832 133.534 77.9796 133.383 78.0105C133.231 78.0414 133.088 78.1062 132.964 78.2001C132.841 78.294 132.741 78.4146 132.671 78.5526C132.6 78.6909 132.562 78.843 132.559 78.9981L132.561 78.9984Z" fill="var(--illustration-currentColor)"/>
</g>
<g opacity="0.1">
<path d="M143.926 114.953C143.096 115.651 142.639 116.933 142.186 117.898C141.632 119.082 141.632 120.413 141.849 121.678C142.231 123.898 145.875 123.38 145.772 121.147C145.728 120.215 145.689 119.282 145.601 118.354C145.52 117.492 145.978 116.701 146.085 115.849C146.238 114.645 144.658 114.338 143.925 114.954L143.926 114.953Z" fill="var(--illustration-currentColor)"/>
</g>
</g>
<defs>
<linearGradient id="paint0_linear_28_12827" x1="125.395" y1="74.3618" x2="125.395" y2="144.351" gradientUnits="userSpaceOnUse">
<stop stop-color="#FFB800"/>
<stop offset="1" stop-color="#FF7F0A"/>
</linearGradient>
<linearGradient id="paint1_linear_28_12827" x1="173.218" y1="140.69" x2="173.218" y2="193.861" gradientUnits="userSpaceOnUse">
<stop stop-color="#FFB800"/>
<stop offset="1" stop-color="#FF7F0A"/>
</linearGradient>
</defs>
</svg>
