<svg width="288" height="288" viewBox="0 0 288 288" fill="none" xmlns="http://www.w3.org/2000/svg">
<mask id="mask0_28_12839" style="mask-type:luminance" maskUnits="userSpaceOnUse" x="11" y="32" width="266" height="224">
<path d="M276.6 32.4H11.3999V255.6H276.6V32.4Z" fill="white"/>
</mask>
<g mask="url(#mask0_28_12839)">
<path fill-rule="evenodd" clip-rule="evenodd" d="M152.114 138.919C152.114 138.919 156.64 134.033 162.564 134.813C168.487 135.594 173.154 139.007 175.349 143.891C175.349 143.891 176.857 146.983 178.709 151.601C181.584 158.746 185.289 169.549 185.522 178.208C185.622 181.669 185.162 184.785 183.875 187.192C183.289 188.322 182.465 189.313 181.46 190.095C180.455 190.878 179.293 191.434 178.052 191.725C170.009 193.828 165.614 192.272 163.22 189.869C160.165 186.809 160.351 182.369 160.351 182.369L160.269 182.363C160.157 184.015 159.859 185.65 159.379 187.235C158.782 189.282 157.687 191.15 156.192 192.672C153.601 195.217 149.5 196.68 143.124 195.882C141.048 195.655 139.043 194.995 137.239 193.944C136.633 193.584 136.058 193.172 135.522 192.714C131.92 189.65 130.247 184.779 129.684 179.424C129.684 179.424 121.296 182.369 115.014 179.25C108.732 176.131 110.817 157.67 110.817 157.67L110.814 157.658C112.396 157.228 113.814 156.812 115.014 156.447V156.45L118.178 160.332H121.503C121.503 160.332 132.521 130.808 143.749 132.472C147.713 133.061 150.355 135.72 152.114 138.919ZM148.858 137.921C149.067 137.787 149.346 137.848 149.479 138.058C153.429 144.236 160.807 162.263 158.999 185.285C158.98 185.533 158.763 185.718 158.515 185.699C158.267 185.679 158.082 185.462 158.102 185.215C159.894 162.398 152.571 144.564 148.721 138.542C148.587 138.333 148.648 138.055 148.858 137.921ZM168.969 138.792C168.827 138.588 168.546 138.539 168.342 138.681C168.139 138.824 168.089 139.104 168.232 139.308C170.711 142.853 174.391 149.256 177.346 156.908C180.301 164.563 182.517 173.435 182.101 181.928C182.089 182.176 182.28 182.387 182.528 182.399C182.776 182.412 182.988 182.22 183 181.972C183.424 173.306 181.165 164.302 178.185 156.584C175.204 148.864 171.49 142.397 168.969 138.792Z" fill="var(--illustration-currentColor)"/>
<path d="M220.362 108.979C237.098 110.125 234.291 126.513 234.291 126.513H201.857C201.857 126.513 203.624 107.837 220.362 108.979Z" fill="url(#paint0_linear_28_12839)"/>
<path d="M197.43 199.124C198.549 201.029 199.05 202.649 198.773 203.594C197.943 206.454 191.151 212.654 182.975 212.931C174.798 213.208 163.848 198.378 162.185 196.101C161.31 194.905 161.643 193.244 162.152 191.936C162.152 191.936 177.117 210.542 182.525 210.123C187.933 209.705 198.72 203.612 197.43 199.124Z" fill="url(#paint1_linear_28_12839)"/>
<path d="M172.648 117.503L172.666 117.971L127.532 119.792L122.451 141.817L122.098 141.734L111.503 143.578L112.148 132.474L95.1601 137.655V137.658L93.4372 138.182L88.7572 128.887L84.9136 121.247C88.0858 119.856 91.2358 118.636 94.3636 117.587C101.084 115.319 107.995 113.66 115.013 112.629C121.394 111.687 127.838 111.242 134.288 111.298C142.109 111.353 149.911 112.11 157.598 113.56C166.996 115.332 172.648 117.503 172.648 117.503Z" fill="url(#paint2_linear_28_12839)"/>
<path d="M135.932 79.1316C136.091 79.0611 142.285 76.266 143.389 78.1068C144.508 79.974 140.406 81.8385 137.233 82.4922C134.061 83.1459 121.284 81.9327 118.486 83.2374C116.902 83.9766 116.993 91.8996 117.37 98.6298C117.37 98.6298 114.475 103.012 112.89 101.984C111.341 100.983 113.529 97.5813 113.633 97.422C113.529 97.4988 108.717 101.204 110.838 97.9758C112.982 94.7094 114.009 81.2787 116.06 79.0404C118.11 76.8021 130.356 77.3604 130.356 77.3604C130.356 77.3604 132.197 71.2989 134.156 71.8584C136.114 72.4179 133.876 77.5458 133.876 77.5458C133.876 77.5458 138.167 73.0689 139.846 74.1882C141.501 75.294 136.08 79.0314 135.932 79.1316Z" fill="var(--illustration-currentColor)"/>
<path d="M137.239 193.946C137.239 193.946 135.743 208.358 140.735 210.022C145.728 211.686 160.189 214.487 160.946 206.066C161.22 208.313 161.129 210.316 160.351 211.547C157.547 215.983 143.611 214.596 138.344 212.516C133.076 210.437 135.522 192.716 135.522 192.716C136.058 193.175 136.633 193.586 137.239 193.946Z" fill="url(#paint3_linear_28_12839)"/>
<path d="M134.289 111.294V111.297C127.839 111.241 121.395 111.686 115.014 112.628V109.604L134.289 108.979V111.294Z" fill="url(#paint4_linear_28_12839)"/>
<path d="M95.1601 137.658L93.4372 138.182L88.7572 128.887L84.9136 121.247C88.0858 119.856 91.2358 118.636 94.3636 117.587C101.084 115.319 107.995 113.66 115.013 112.629C121.394 111.687 127.838 111.242 134.288 111.298C142.109 111.353 149.911 112.11 157.598 113.56C166.996 115.333 172.648 117.504 172.648 117.504" stroke="var(--illustration-currentColor)" stroke-width="0.9" stroke-linecap="round" stroke-linejoin="round"/>
<path d="M111.503 143.578L112.148 132.474L95.1597 137.655" stroke="var(--illustration-currentColor)" stroke-width="0.9" stroke-linecap="round" stroke-linejoin="round"/>
<path d="M122.098 141.734L111.503 143.578L103.625 144.947L109.462 149.807" stroke="var(--illustration-currentColor)" stroke-width="0.9" stroke-linecap="round" stroke-linejoin="round"/>
<path d="M84.913 121.247C82.6594 122.879 80.4997 124.637 78.445 126.513C70.8697 133.388 60.349 145.658 68.695 155.136C74.3704 161.583 85.6216 162.045 96.0688 160.682C101.045 159.999 105.97 158.99 110.813 157.66C112.395 157.23 113.813 156.815 115.013 156.449C117.649 155.639 119.24 155.056 119.24 155.056" stroke="var(--illustration-currentColor)" stroke-width="0.9" stroke-linecap="round" stroke-linejoin="round"/>
<path d="M121.043 146.933L116.929 148.898C116.929 148.898 119.839 146.403 119.008 144.842C118.177 143.281 111.73 148.061 111.73 148.061L109.462 149.808L106.326 152.226C102.966 153.625 99.461 154.645 95.8757 155.268V155.271C89.5196 156.332 81.9707 155.975 78.4658 149.731C78.2534 149.356 78.0605 148.969 77.8886 148.574C72.911 137.299 88.7567 128.887 88.7567 128.887" stroke="var(--illustration-currentColor)" stroke-width="0.9" stroke-linecap="round" stroke-linejoin="round"/>
<path d="M115.014 156.452L118.178 160.334L119.388 155.089L121.258 146.983L122.451 141.817L127.532 119.792L172.666 117.972L184.291 117.503L182.816 126.513L179.558 146.432L178.71 151.601L178.677 151.808" stroke="var(--illustration-currentColor)" stroke-width="0.9" stroke-linecap="round" stroke-linejoin="round"/>
<path d="M110.817 157.672C110.817 157.672 108.735 176.133 115.014 179.252C121.293 182.371 129.684 179.426 129.684 179.426" stroke="var(--illustration-currentColor)" stroke-width="0.9" stroke-linecap="round" stroke-linejoin="round"/>
<path d="M133.355 150.977C133.355 150.977 128.333 166.584 129.685 179.426C130.247 184.781 131.92 189.652 135.522 192.716C136.058 193.174 136.633 193.586 137.24 193.946C139.044 194.997 141.049 195.657 143.124 195.884C149.501 196.682 153.601 195.218 156.193 192.674C157.688 191.152 158.783 189.284 159.38 187.237C159.859 185.652 160.157 184.017 160.269 182.365C160.487 178.737 160.174 175.097 159.341 171.559" stroke="var(--illustration-currentColor)" stroke-width="0.9" stroke-linecap="round" stroke-linejoin="round"/>
<path d="M118.177 160.334H121.502C121.502 160.334 132.521 130.81 143.748 132.474C147.713 133.06 150.355 135.72 152.113 138.919C155.338 144.774 156 151.65 156 151.65" stroke="var(--illustration-currentColor)" stroke-width="0.9" stroke-linecap="round" stroke-linejoin="round"/>
<path d="M152.113 138.919C152.113 138.919 156.64 134.033 162.563 134.813C168.486 135.594 173.153 139.007 175.349 143.891C175.349 143.891 176.857 146.983 178.709 151.601C181.583 158.746 185.289 169.549 185.521 178.208C185.621 181.669 185.161 184.785 183.875 187.192C183.289 188.323 182.465 189.313 181.46 190.096C180.454 190.878 179.292 191.434 178.052 191.725C170.008 193.828 165.614 192.272 163.219 189.869C160.165 186.809 160.351 182.369 160.351 182.369" stroke="var(--illustration-currentColor)" stroke-width="0.9" stroke-linecap="round" stroke-linejoin="round"/>
<path d="M135.522 192.715C135.522 192.715 133.078 210.437 138.344 212.515C143.61 214.593 157.547 215.982 160.351 211.546C161.129 210.316 161.221 208.312 160.946 206.065C160.236 200.222 157.055 192.715 157.055 192.715" stroke="var(--illustration-currentColor)" stroke-width="0.9" stroke-linecap="round" stroke-linejoin="round"/>
<path d="M163.22 189.87C162.795 190.522 162.437 191.214 162.151 191.938C161.641 193.245 161.309 194.908 162.183 196.102C163.848 198.379 174.795 213.211 182.973 212.932C191.151 212.653 197.942 206.455 198.772 203.595C199.049 202.65 198.548 201.03 197.429 199.125C195.167 195.275 190.363 190.26 184.289 187.294" stroke="var(--illustration-currentColor)" stroke-width="0.9" stroke-linecap="round" stroke-linejoin="round"/>
<path d="M115.014 112.626V109.604L134.289 108.979V111.294" stroke="var(--illustration-currentColor)" stroke-width="0.9" stroke-linecap="round" stroke-linejoin="round"/>
<path d="M113.636 97.4164C113.636 97.4173 113.635 97.4185 113.635 97.4194C113.634 97.4203 113.633 97.4212 113.633 97.4221C113.53 97.5814 111.341 100.983 112.891 101.984C114.475 103.012 117.37 98.6299 117.37 98.6299" stroke="var(--illustration-currentColor)" stroke-width="0.9" stroke-linecap="round" stroke-linejoin="round"/>
<path d="M135.932 79.1316C136.079 79.0314 141.501 75.294 139.846 74.1894C138.166 73.0701 133.876 77.547 133.876 77.547C133.876 77.547 136.115 72.4194 134.156 71.8596C132.197 71.2998 130.357 77.3616 130.357 77.3616C130.357 77.3616 118.113 76.8018 116.06 79.0416C114.007 81.2814 112.982 94.7106 110.838 97.977C108.717 101.205 113.53 97.5 113.633 97.4232" stroke="var(--illustration-currentColor)" stroke-width="0.9" stroke-linecap="round" stroke-linejoin="round"/>
<path d="M118.113 108.234C118.113 108.234 117.656 103.781 117.37 98.6298C116.994 91.8996 116.902 83.9766 118.487 83.2374C121.285 81.9327 134.062 83.1432 137.234 82.4922C140.406 81.8412 144.509 79.974 143.389 78.1068C142.285 76.266 136.091 79.0611 135.932 79.1316L135.929 79.1346" stroke="var(--illustration-currentColor)" stroke-width="0.9" stroke-linecap="round" stroke-linejoin="round"/>
<path d="M127.814 108.979C127.814 108.979 127.44 105.622 128.654 104.782C129.868 103.943 132.572 104.782 133.876 102.078C135.181 99.3744 136.486 87.5019 135.461 82.6659" stroke="var(--illustration-currentColor)" stroke-width="0.9" stroke-linecap="round" stroke-linejoin="round"/>
<path d="M96.0728 160.702L96.3467 167.609L100.373 174.94L132.315 233.098L138.969 231.266L204.039 213.344L216.101 210.022L185.525 178.209" stroke="var(--illustration-currentColor)" stroke-width="0.9" stroke-linecap="round" stroke-linejoin="round"/>
<path d="M95.1597 137.656V137.659L95.5542 147.478L95.8665 155.225" stroke="var(--illustration-currentColor)" stroke-width="0.9" stroke-linecap="round" stroke-linejoin="round"/>
<path d="M157.597 113.557L155.601 63.8661L92.3174 65.9454L94.3643 117.586" stroke="var(--illustration-currentColor)" stroke-width="0.9" stroke-linecap="round" stroke-linejoin="round"/>
<path d="M119.98 98.3466C119.98 98.3466 119.356 102.016 123.898 101.828" stroke="var(--illustration-currentColor)" stroke-width="0.9" stroke-linecap="round" stroke-linejoin="round"/>
<path d="M124.704 96.42C124.704 96.42 126.942 96.5319 127.502 95.8221C128.062 95.1123 127.502 84.7302 127.502 84.7302H133.098" stroke="var(--illustration-currentColor)" stroke-width="0.9" stroke-linecap="round" stroke-linejoin="round"/>
<path d="M121.099 88.6476C121.099 88.6476 122.527 86.6568 124.33 88.6476" stroke="var(--illustration-currentColor)" stroke-width="0.9" stroke-linecap="round" stroke-linejoin="round"/>
<path d="M130.053 89.2695C130.053 89.2695 131.481 87.5895 132.723 89.2695" stroke="var(--illustration-currentColor)" stroke-width="0.9" stroke-linecap="round" stroke-linejoin="round"/>
<path d="M182.815 126.513H201.857H234.291H275.938" stroke="var(--illustration-currentColor)" stroke-width="0.9" stroke-linecap="round" stroke-linejoin="round"/>
<path d="M22.2275 126.513H78.4449" stroke="var(--illustration-currentColor)" stroke-width="0.9" stroke-linecap="round" stroke-linejoin="round"/>
<path d="M179.558 146.432C209.786 147.322 242.408 149.698 275.937 154.408" stroke="var(--illustration-currentColor)" stroke-width="0.9" stroke-linecap="round" stroke-linejoin="round"/>
<path d="M77.8882 148.573C83.4931 148.176 89.3797 147.811 95.5483 147.478" stroke="var(--illustration-currentColor)" stroke-width="0.9" stroke-linecap="round" stroke-linejoin="round"/>
<path d="M11.9365 155.73C11.9365 155.73 32.221 152.305 65.6266 149.52" stroke="var(--illustration-currentColor)" stroke-width="0.9" stroke-linecap="round" stroke-linejoin="round"/>
<path d="M201.857 126.513C201.857 126.513 203.624 107.837 220.362 108.979C237.101 110.122 234.291 126.513 234.291 126.513" stroke="var(--illustration-currentColor)" stroke-width="0.9" stroke-linecap="round" stroke-linejoin="round"/>
<path d="M220.153 96.0909L219.426 101.808" stroke="var(--illustration-currentColor)" stroke-width="0.9" stroke-linecap="round" stroke-linejoin="round"/>
<path d="M211.317 104.093L202.275 87.0105" stroke="var(--illustration-currentColor)" stroke-width="0.9" stroke-linecap="round" stroke-linejoin="round"/>
<path d="M203.209 108.929L199.362 105.654" stroke="var(--illustration-currentColor)" stroke-width="0.9" stroke-linecap="round" stroke-linejoin="round"/>
<path d="M199.987 117.503L181.587 110.803" stroke="var(--illustration-currentColor)" stroke-width="0.9" stroke-linecap="round" stroke-linejoin="round"/>
<path d="M230.55 106.382L240.114 93.2836" stroke="var(--illustration-currentColor)" stroke-width="0.9" stroke-linecap="round" stroke-linejoin="round"/>
<path d="M236.164 112.626L240.529 110.228" stroke="var(--illustration-currentColor)" stroke-width="0.9" stroke-linecap="round" stroke-linejoin="round"/>
<path d="M238.865 118.543L254.666 117.721" stroke="var(--illustration-currentColor)" stroke-width="0.9" stroke-linecap="round" stroke-linejoin="round"/>
<path d="M137.239 193.946C137.239 193.946 135.743 208.358 140.736 210.022C145.728 211.686 160.189 214.486 160.946 206.066" stroke="var(--illustration-currentColor)" stroke-width="0.9" stroke-linecap="round" stroke-linejoin="round"/>
<path d="M162.15 191.937C162.15 191.937 177.115 210.543 182.523 210.124C187.931 209.706 198.72 203.612 197.43 199.124" stroke="var(--illustration-currentColor)" stroke-width="0.9" stroke-linecap="round" stroke-linejoin="round"/>
<path d="M95.8667 190.27L100.373 174.94" stroke="var(--illustration-currentColor)" stroke-width="0.9" stroke-linecap="round" stroke-linejoin="round"/>
<path d="M138.969 255.138V231.266" stroke="var(--illustration-currentColor)" stroke-width="0.9" stroke-linecap="round" stroke-linejoin="round"/>
<path d="M208.407 235.178L204.039 213.344" stroke="var(--illustration-currentColor)" stroke-width="0.9" stroke-linecap="round" stroke-linejoin="round"/>
<path d="M69.6198 60.9937C65.9616 63.3679 62.8929 66.5452 60.6477 70.2838C58.4028 74.0227 57.0402 78.2245 56.6637 82.5691C56.3607 86.4259 57.1737 90.8655 60.4437 92.9322C63.3723 94.7826 67.7241 93.7897 69.5598 90.8515C70.9698 88.597 70.5414 85.0639 68.127 83.9515C66.0408 82.9897 63.3969 84.3295 62.4333 86.4148C61.4697 88.5001 61.9122 91.0162 63.0141 93.0321C64.116 95.0481 65.802 96.67 67.4442 98.2765C69.0864 99.883 70.7406 101.548 71.7519 103.611C73.8618 107.915 72.5142 113.624 68.7021 116.53C67.2681 117.623 65.4789 118.346 63.6825 118.189C61.8861 118.032 60.1293 116.864 59.5929 115.142C59.0565 113.421 60.0408 111.28 61.7886 110.836C63.5364 110.393 65.5353 112.137 65.0931 113.885" stroke="var(--illustration-currentColor)" stroke-width="0.9" stroke-linecap="round" stroke-linejoin="round"/>
<path d="M47.7481 103.34L45.4648 98.9718" stroke="var(--illustration-currentColor)" stroke-width="0.9" stroke-linecap="round" stroke-linejoin="round"/>
<path d="M44.5352 102.682L48.5429 99.8531" stroke="var(--illustration-currentColor)" stroke-width="0.9" stroke-linecap="round" stroke-linejoin="round"/>
<path d="M80.9615 69.4797L79.2983 65.9454" stroke="var(--illustration-currentColor)" stroke-width="0.9" stroke-linecap="round" stroke-linejoin="round"/>
<path d="M78.2368 69.0222L81.7675 67.1436" stroke="var(--illustration-currentColor)" stroke-width="0.9" stroke-linecap="round" stroke-linejoin="round"/>
<path d="M126.494 57.6267L121.53 51.5754" stroke="var(--illustration-currentColor)" stroke-width="0.9" stroke-linecap="round" stroke-linejoin="round"/>
<path d="M132.821 57.1935L131.316 33.1056" stroke="var(--illustration-currentColor)" stroke-width="0.9" stroke-linecap="round" stroke-linejoin="round"/>
<path d="M139.74 56.3442L142.88 51.1599" stroke="var(--illustration-currentColor)" stroke-width="0.9" stroke-linecap="round" stroke-linejoin="round"/>
<path d="M202.917 129.371C213.777 127.975 224.775 128.012 235.626 129.482" stroke="var(--illustration-currentColor)" stroke-width="0.9" stroke-linecap="round" stroke-linejoin="round"/>
<path d="M207.784 132.245L230.653 132.194" stroke="var(--illustration-currentColor)" stroke-width="0.9" stroke-linecap="round" stroke-linejoin="round"/>
<path d="M213.328 135.636L223.03 135.626" stroke="var(--illustration-currentColor)" stroke-width="0.9" stroke-linecap="round" stroke-linejoin="round"/>
<path d="M255.78 68.6022C253.405 74.0979 252.687 80.1678 253.715 86.0658C254.046 87.9456 254.576 89.8395 255.695 91.3869C256.814 92.9343 258.611 94.0911 260.518 94.0299C262.924 93.9525 264.883 92.0322 266.106 89.9595C266.947 88.5327 267.527 86.6082 266.496 85.3113C265.35 83.8713 262.931 84.2817 261.594 85.5483C259.308 87.7143 259.227 91.3242 259.806 94.4196C260.224 96.654 261.148 99.1221 263.267 99.9447C265.139 100.671 267.38 99.8547 269.194 100.714C269.771 101.009 270.267 101.442 270.636 101.975C271.006 102.508 271.238 103.124 271.311 103.768C271.441 105.069 271.058 106.37 270.244 107.394C269.362 108.536 267.883 109.354 266.484 109.001C265.084 108.649 264.16 106.781 265.05 105.645" stroke="var(--illustration-currentColor)" stroke-width="0.9" stroke-linecap="round" stroke-linejoin="round"/>
<path d="M173.457 101.887L169.437 94.4016" stroke="var(--illustration-currentColor)" stroke-width="0.9" stroke-linecap="round" stroke-linejoin="round"/>
<path d="M168.813 100.357L174.827 95.8542" stroke="var(--illustration-currentColor)" stroke-width="0.9" stroke-linecap="round" stroke-linejoin="round"/>
<path d="M182.435 87.2193L182.307 83.6151" stroke="var(--illustration-currentColor)" stroke-width="0.9" stroke-linecap="round" stroke-linejoin="round"/>
<path d="M180.756 85.6947L184.499 85.1403" stroke="var(--illustration-currentColor)" stroke-width="0.9" stroke-linecap="round" stroke-linejoin="round"/>
<path d="M269.884 79.4547L268.107 76.2528" stroke="var(--illustration-currentColor)" stroke-width="0.9" stroke-linecap="round" stroke-linejoin="round"/>
<path d="M267.471 78.6954L270.983 76.1256" stroke="var(--illustration-currentColor)" stroke-width="0.9" stroke-linecap="round" stroke-linejoin="round"/>
<path d="M150.287 116.784L149.342 115.23" stroke="var(--illustration-currentColor)" stroke-width="0.9" stroke-linecap="round" stroke-linejoin="round"/>
<path d="M138.341 115.32L139.484 113.76" stroke="var(--illustration-currentColor)" stroke-width="0.9" stroke-linecap="round" stroke-linejoin="round"/>
<path d="M128.672 117.923L127.528 116.26" stroke="var(--illustration-currentColor)" stroke-width="0.9" stroke-linecap="round" stroke-linejoin="round"/>
<path d="M120.045 128.103C120.708 127.713 121.282 127.187 121.726 126.559" stroke="var(--illustration-currentColor)" stroke-width="0.9" stroke-linecap="round" stroke-linejoin="round"/>
<path d="M114.93 118.984L113.7 117.72" stroke="var(--illustration-currentColor)" stroke-width="0.9" stroke-linecap="round" stroke-linejoin="round"/>
<path d="M117.553 139.127L118.8 137.567" stroke="var(--illustration-currentColor)" stroke-width="0.9" stroke-linecap="round" stroke-linejoin="round"/>
<path d="M108.066 129.9L106.623 128.329" stroke="var(--illustration-currentColor)" stroke-width="0.9" stroke-linecap="round" stroke-linejoin="round"/>
<path d="M101.049 122.825L102.394 121.055" stroke="var(--illustration-currentColor)" stroke-width="0.9" stroke-linecap="round" stroke-linejoin="round"/>
<path d="M97.68 132.396L95.0063 130.485" stroke="var(--illustration-currentColor)" stroke-width="0.9" stroke-linecap="round" stroke-linejoin="round"/>
<path d="M90.0054 124.261L91.0449 122.806" stroke="var(--illustration-currentColor)" stroke-width="0.9" stroke-linecap="round" stroke-linejoin="round"/>
<path d="M141.979 204.913C146.431 204.065 150.978 203.833 155.494 204.223" stroke="var(--illustration-currentColor)" stroke-width="0.9" stroke-linecap="round" stroke-linejoin="round"/>
<path d="M142.29 200.317C146.257 199.821 150.26 199.679 154.252 199.892" stroke="var(--illustration-currentColor)" stroke-width="0.9" stroke-linecap="round" stroke-linejoin="round"/>
<path d="M178.459 201.377C182.157 199.156 186.081 197.335 190.165 195.945" stroke="var(--illustration-currentColor)" stroke-width="0.9" stroke-linecap="round" stroke-linejoin="round"/>
<path d="M175.29 197.296C178.642 194.893 182.43 193.168 186.443 192.218" stroke="var(--illustration-currentColor)" stroke-width="0.9" stroke-linecap="round" stroke-linejoin="round"/>
<path d="M63.2378 142.25C64.1159 139.477 65.5652 136.918 67.4918 134.738" stroke="var(--illustration-currentColor)" stroke-width="0.9" stroke-linecap="round" stroke-linejoin="round"/>
<g opacity="0.1">
<path d="M119.884 108.702C120.524 105.603 120.172 102.274 120.131 99.1315C120.089 95.8481 119.954 92.5283 120.126 89.2475C120.189 88.04 120.349 86.6015 121.456 85.8713C122.562 85.1411 124.229 85.244 125.487 85.1513L130.453 84.7838C132.024 84.6674 133.737 84.8248 134.803 83.4691C135.193 82.9714 135.316 82.2665 134.803 81.7787C133.41 80.4521 131.623 80.9036 129.868 81.0392C127.96 81.1862 126.046 81.3013 124.14 81.4828C120.845 81.7963 118.11 83.1815 117.295 86.6021C116.502 89.9291 116.987 93.7043 117.105 97.0874C117.237 100.847 117.05 105.087 118.23 108.702C118.475 109.453 119.703 109.58 119.884 108.702H119.884Z" fill="var(--illustration-currentColor)"/>
</g>
<g opacity="0.1">
<path d="M112.17 130.618L112.096 130.474C111.749 129.796 110.977 129.637 110.3 129.743C105.001 130.572 99.7705 132.275 94.7173 134.042C92.341 134.873 93.3634 138.679 95.764 137.839C100.857 136.057 106.069 134.621 111.146 132.809C111.478 132.71 111.769 132.508 111.979 132.232C112.189 131.957 112.306 131.622 112.313 131.276C112.319 131.048 112.27 130.822 112.17 130.618Z" fill="var(--illustration-currentColor)"/>
</g>
<g opacity="0.1">
<path d="M72.8464 133.211C71.9641 134.045 70.999 134.625 70.2418 135.599C69.4825 136.579 68.7874 137.607 68.1604 138.677C66.8893 140.765 66.0328 143.08 65.6383 145.493C64.9246 150.322 66.727 154.531 70.6573 157.421C74.5876 160.311 79.6099 160.973 84.3673 160.96C89.7886 160.943 95.2138 160.297 100.549 159.367C106.594 158.313 112.551 156.823 118.476 155.241C121.185 154.518 120.036 150.318 117.318 151.038C105.904 154.061 93.8503 157.153 81.9388 156.472C77.3038 156.207 71.7946 154.556 69.6988 149.942C68.4868 147.272 68.8831 144.226 70.0498 141.619C70.6459 140.336 71.3482 139.106 72.1498 137.941C72.9598 136.727 73.4347 135.463 74.1274 134.2C74.2216 134.029 74.2516 133.829 74.2117 133.638C74.1721 133.447 74.0653 133.276 73.9105 133.157C73.756 133.037 73.5637 132.977 73.3687 132.987C73.1734 132.996 72.9883 133.076 72.8464 133.21V133.211Z" fill="var(--illustration-currentColor)"/>
</g>
<g opacity="0.1">
<path d="M118.669 111.048L118.672 110.849C118.672 110.551 118.593 110.259 118.444 110.001C118.294 109.743 118.08 109.529 117.821 109.381C117.563 109.233 117.27 109.156 116.972 109.157C116.674 109.158 116.382 109.237 116.125 109.388L115.927 109.475C115.652 109.636 115.423 109.867 115.264 110.144C115.106 110.422 115.023 110.736 115.024 111.055C115.026 111.375 115.111 111.688 115.272 111.964C115.432 112.241 115.663 112.47 115.94 112.629C116.217 112.788 116.531 112.871 116.851 112.87C117.17 112.87 117.484 112.785 117.76 112.625C118.036 112.465 118.266 112.235 118.426 111.958C118.585 111.681 118.669 111.367 118.669 111.048Z" fill="var(--illustration-currentColor)"/>
</g>
</g>
<defs>
<linearGradient id="paint0_linear_28_12839" x1="218.163" y1="108.929" x2="218.163" y2="126.513" gradientUnits="userSpaceOnUse">
<stop stop-color="#FF9A34"/>
<stop offset="1" stop-color="#EB6421"/>
</linearGradient>
<linearGradient id="paint1_linear_28_12839" x1="180.246" y1="191.936" x2="180.246" y2="212.935" gradientUnits="userSpaceOnUse">
<stop stop-color="#FF9A34"/>
<stop offset="1" stop-color="#EB6421"/>
</linearGradient>
<linearGradient id="paint2_linear_28_12839" x1="128.79" y1="111.294" x2="128.79" y2="143.578" gradientUnits="userSpaceOnUse">
<stop stop-color="#FF9A34"/>
<stop offset="1" stop-color="#EB6421"/>
</linearGradient>
<linearGradient id="paint3_linear_28_12839" x1="148.021" y1="192.716" x2="148.021" y2="214.477" gradientUnits="userSpaceOnUse">
<stop stop-color="#FF9A34"/>
<stop offset="1" stop-color="#EB6421"/>
</linearGradient>
<linearGradient id="paint4_linear_28_12839" x1="124.651" y1="108.979" x2="124.651" y2="112.628" gradientUnits="userSpaceOnUse">
<stop stop-color="#FF9A34"/>
<stop offset="1" stop-color="#EB6421"/>
</linearGradient>
</defs>
</svg>
