<svg width="288" height="288" viewBox="0 0 288 288" fill="none" xmlns="http://www.w3.org/2000/svg">
<path fill-rule="evenodd" clip-rule="evenodd" d="M212.512 189.369L204.968 202.073L204.933 202.089C204.845 201.923 204.741 201.766 204.622 201.622C203.247 199.972 200.353 200.73 199.107 202.478C197.999 204.032 197.784 206.008 197.574 207.926C197.548 208.167 197.522 208.406 197.494 208.643C196.378 217.984 192.071 226.652 185.3 233.183C185.222 233.261 185.141 233.339 185.059 233.413C179.712 234.818 174.284 235.895 168.806 236.638C160.397 237.783 151.899 238.153 143.421 237.744L143.472 236.689C139.648 201.236 135.822 165.782 131.995 130.327L138.047 129.755C138.057 129.755 138.065 129.754 138.074 129.753C138.083 129.752 138.092 129.751 138.101 129.751C141.026 129.47 144.134 129.241 146.732 130.608C149.345 131.983 150.969 135.64 149.186 137.992L149.248 138.268C158.003 136.255 167.28 136.352 175.895 138.898C184.568 141.469 192.533 146.563 198.223 153.597C206.304 163.594 209.353 176.622 212.173 189.166L212.512 189.369ZM184.245 145.244C184.448 144.993 184.817 144.955 185.067 145.159C197.389 155.172 205.238 169.661 206.895 185.451C206.928 185.772 206.696 186.06 206.375 186.093C206.054 186.127 205.766 185.894 205.733 185.573C204.108 170.09 196.412 155.883 184.33 146.065C184.079 145.862 184.041 145.494 184.245 145.244ZM145.486 132.083C145.222 131.897 144.857 131.959 144.671 132.223C144.485 132.487 144.548 132.851 144.811 133.037C145.412 133.462 145.839 134.09 146.014 134.805C146.188 135.52 146.098 136.274 145.761 136.928C145.613 137.215 145.725 137.568 146.012 137.716C146.299 137.863 146.651 137.751 146.799 137.464C147.266 136.56 147.39 135.517 147.149 134.528C146.907 133.539 146.317 132.671 145.486 132.083Z" fill="url(#paint0_linear_28_12829)"/>
<path fill-rule="evenodd" clip-rule="evenodd" d="M257.269 52.646C258.519 45.8099 259.283 38.3723 256.004 32.2499C252.873 26.4077 246.625 22.9103 240.363 20.7305C230.776 17.3927 220.189 16.4309 210.406 19.1531C200.622 21.8753 191.766 28.5272 187.42 37.703C183.712 45.5309 183.439 54.6329 185.04 63.1463C186.641 71.6597 189.994 79.7255 193.328 87.7211C198.299 99.6476 203.271 111.572 208.244 123.493C210.707 129.404 213.171 135.313 215.636 141.221C216.87 144.179 218.102 147.133 219.332 150.085C219.552 150.613 219.783 151.299 220.037 152.05C220.792 154.291 221.741 157.106 223.157 157.975C226.361 152.462 228.445 145.723 230.452 139.232C231.289 136.525 232.112 133.862 232.998 131.348C236.184 122.301 239.3 113.23 242.412 104.16C248.218 87.2378 254.049 70.2419 257.269 52.646ZM229.256 32.3783C237.789 38.7263 237.668 52.4861 228.652 58.2968C223.554 61.58 216.39 61.3421 211.617 57.6077C207.36 54.2777 205.323 48.3113 206.628 43.0691C208.688 34.7852 221.513 26.6183 229.256 32.3783ZM239.314 24.3225C239.001 24.2473 238.685 24.4407 238.61 24.7545C238.535 25.0683 238.728 25.3836 239.042 25.4588C243.863 26.6141 247.815 30.4787 249.84 35.0897C251.864 39.7004 252.135 44.9621 251.424 50.0219C250.713 55.0877 249.078 59.9801 247.429 64.8977C247.326 65.2037 247.491 65.5349 247.797 65.6375C248.103 65.7398 248.434 65.5751 248.537 65.2691C250.181 60.3686 251.853 55.3745 252.582 50.1845C253.311 44.9885 253.049 39.491 250.909 34.6199C248.77 29.7492 244.563 25.5804 239.314 24.3225Z" fill="url(#paint1_linear_28_12829)"/>
<path fill-rule="evenodd" clip-rule="evenodd" d="M168.807 236.638C160.398 237.783 151.9 238.153 143.422 237.744L143.473 236.689C139.646 201.234 135.82 165.78 131.995 130.327C128.606 130.648 125.215 130.969 121.823 131.289L121.313 131.336C118.89 131.566 116.308 131.862 114.431 133.416C113.829 133.933 113.359 134.588 113.063 135.325C112.767 136.061 112.652 136.858 112.729 137.649L112.714 137.653C89.2016 137.462 65.5379 148.716 52.0706 167.988C38.6033 187.26 36.3794 214.23 47.8202 234.769C59.8649 256.399 84.3578 268.387 108.66 273.127C131.508 277.534 155.057 276.722 177.546 270.751L177.48 270.502C175.434 259.069 172.543 247.803 168.831 236.798L168.807 236.638ZM122.882 194.666C123.003 196.765 123.057 199.083 121.737 200.718C120.144 202.689 117.255 202.86 114.724 202.873C109.342 202.894 103.962 202.915 98.5838 202.935C97.3337 202.943 95.9474 202.896 95.0438 202.031C94.1168 201.144 94.0313 199.718 94.0079 198.437C93.8624 191.082 93.7157 183.727 93.5678 176.37V176.023C102.744 174.244 112.051 173.229 121.395 172.989L121.64 173.071C122.056 180.266 122.469 187.465 122.882 194.666ZM62.5358 197.122C62.426 196.818 62.0912 196.661 61.7876 196.771C61.4843 196.88 61.3271 197.215 61.4369 197.519C65.8808 209.818 75.8207 219.464 86.9999 226.067C98.1737 232.666 110.674 236.592 122.972 240.441C123.28 240.537 123.608 240.366 123.705 240.058C123.801 239.75 123.629 239.422 123.322 239.326C111.001 235.47 98.6324 231.58 87.5942 225.061C76.5614 218.544 66.8582 209.084 62.5358 197.122Z" fill="url(#paint2_linear_28_12829)"/>
<path d="M185.301 233.184C187.022 238.449 188.742 243.713 190.461 248.976C192.178 254.226 193.894 259.476 195.609 264.726C189.721 267.112 183.688 269.124 177.546 270.751L177.48 270.502C175.434 259.069 172.543 247.804 168.83 236.798L168.807 236.638C174.285 235.895 179.712 234.818 185.059 233.414C185.141 233.34 185.223 233.261 185.301 233.184Z" fill="url(#paint3_linear_28_12829)"/>
<path d="M153.073 81.0373L153.213 81.2047C155.18 79.8883 157.248 78.5368 159.6 78.2947C161.952 78.0526 164.644 79.3384 165.138 81.6517C165.551 83.5717 164.305 85.5463 162.63 86.5783C160.955 87.6103 158.942 87.8947 156.99 88.105C154.131 88.4128 151.265 88.6048 148.391 88.6813C142.786 88.8304 137.177 88.5439 131.617 87.8245C127.668 87.3145 122.909 86.8858 120.447 90.0211C118.765 92.1631 118.905 95.1697 119.123 97.8844C119.345 100.642 119.567 103.398 119.789 106.153L119.641 106.164C118.193 107.578 117.601 109.642 116.409 111.282C115.216 112.921 112.795 114.098 111.217 112.828C109.804 111.688 110.111 109.424 110.945 107.812C111.778 106.199 113.032 104.696 113.157 102.881C112.53 104.139 111.833 105.475 110.586 106.125C109.34 106.776 107.428 106.273 107.194 104.887C107.093 104.283 107.327 103.676 107.556 103.107C109.359 98.6245 111.164 94.1404 112.97 89.6551C114.115 86.8159 115.365 83.8327 117.803 81.9751C120.803 79.693 124.88 79.6384 128.654 79.9498C127.787 77.5162 127.612 74.8903 128.147 72.3631C128.385 71.2453 128.867 70.0381 129.911 69.5707C131.485 68.8696 133.253 70.3339 133.857 71.9464C134.46 73.5589 134.402 75.3697 135.052 76.9666L135.076 76.9627C134.219 74.1634 134.339 71.1562 135.414 68.4334C135.948 67.0936 137.14 65.6488 138.53 66.0265C139.481 66.2797 140.006 67.2766 140.365 68.1919C140.679 68.9875 140.953 69.7987 141.186 70.6219C141.412 69.0607 141.95 67.561 142.768 66.2119C143.784 64.5451 145.79 63.0145 147.558 63.8479C148.832 64.4515 149.318 65.9977 149.508 67.396C149.952 70.7683 149.43 74.1976 148.001 77.2843L148.028 77.296C148.071 77.4595 148.11 77.623 148.148 77.7868C148.736 76.0186 149.336 74.2231 150.426 72.7198C151.517 71.2165 153.191 70.0132 155.049 69.9664C156.907 69.9196 158.831 71.3101 158.952 73.1638C159.049 74.5969 158.138 75.8899 157.203 76.9804C155.947 78.4501 154.565 79.8076 153.073 81.0373Z" fill="#171717"/>
<path d="M122.882 194.666C123.002 196.766 123.057 199.083 121.737 200.718C120.144 202.689 117.255 202.86 114.723 202.872C109.341 202.892 103.961 202.913 98.5829 202.934C97.3328 202.942 95.9462 202.895 95.0429 202.031C94.1159 201.143 94.0304 199.718 94.007 198.436C93.8591 191.079 93.7124 183.724 93.5669 176.369V176.023C102.743 174.244 112.05 173.229 121.394 172.989L121.639 173.071C122.052 180.268 122.466 187.466 122.882 194.666Z" fill="url(#paint4_linear_28_12829)"/>
<path d="M149.186 137.992C150.97 135.64 149.346 131.983 146.733 130.608C144.135 129.241 141.027 129.47 138.102 129.751C138.083 129.751 138.067 129.755 138.048 129.755L131.996 130.327C128.607 130.647 125.216 130.968 121.823 131.289L121.313 131.336C118.89 131.566 116.308 131.862 114.431 133.416C113.829 133.933 113.36 134.588 113.063 135.325C112.767 136.061 112.652 136.859 112.729 137.649C112.769 138.059 112.891 138.456 113.088 138.817C113.286 139.178 113.555 139.495 113.878 139.749" stroke="#171717" stroke-width="1.1685" stroke-linecap="round" stroke-linejoin="round"/>
<path d="M112.714 137.653C89.2019 137.462 65.5382 148.713 52.0706 167.988C38.603 187.262 36.3806 214.228 47.8178 234.768C59.8637 256.398 84.3578 268.386 108.659 273.126C131.508 277.533 155.057 276.721 177.547 270.75C183.689 269.123 189.722 267.111 195.61 264.725C193.897 259.475 192.18 254.225 190.462 248.975C188.744 243.709 187.024 238.445 185.302 233.182C185.298 233.171 185.294 233.155 185.29 233.143" stroke="#171717" stroke-width="1.1685" stroke-linecap="round" stroke-linejoin="round"/>
<path d="M85.5247 154.44C73.4788 157.626 65.0896 169.894 64.4977 182.34C63.9058 194.786 70.1527 206.915 79.2661 215.413C88.3795 223.911 100.106 229.138 112.082 232.58C122.294 235.507 132.811 237.24 143.422 237.745C151.899 238.153 160.397 237.783 168.807 236.638C174.285 235.895 179.712 234.818 185.059 233.414L185.281 233.355" stroke="#171717" stroke-width="1.1685" stroke-linecap="round" stroke-linejoin="round"/>
<path d="M184.896 233.569C184.95 233.519 185.004 233.468 185.059 233.414C185.141 233.339 185.223 233.262 185.299 233.184C192.07 226.653 196.377 217.984 197.493 208.644C197.742 206.51 197.859 204.231 199.106 202.479C200.352 200.726 203.246 199.971 204.621 201.622C204.74 201.767 204.844 201.923 204.932 202.089C205.396 202.962 205.412 204.052 205.376 205.065C205.272 207.898 204.951 210.72 204.418 213.504C203.779 216.834 203.156 221.017 205.945 222.949C207.619 224.109 209.867 223.864 211.872 223.482C220.317 221.885 228.408 218.789 235.762 214.342C236.899 213.656 238.196 212.905 239.478 213.267C241.059 213.711 241.737 215.752 241.23 217.317C241.019 217.946 240.69 218.528 240.26 219.034C239.615 219.774 238.875 220.426 238.06 220.974C234.501 223.492 230.451 225.231 226.173 226.076" stroke="#171717" stroke-width="1.1685" stroke-linecap="round" stroke-linejoin="round"/>
<path d="M240.262 219.035C241.831 219.369 242.894 221.021 242.891 222.625C242.887 224.23 241.995 225.729 240.819 226.825C240.405 227.208 239.961 227.555 239.491 227.865C238.616 228.432 237.71 228.948 236.776 229.411C233.863 230.919 230.951 232.426 228.041 233.933" stroke="#171717" stroke-width="1.1685" stroke-linecap="round" stroke-linejoin="round"/>
<path d="M239.631 228.066C241.765 229.834 241.454 233.413 239.689 235.547C237.925 237.682 235.179 238.71 232.539 239.547C225.026 241.927 217.284 243.489 209.556 245.047C203.415 246.285 197.273 247.522 191.131 248.758" stroke="#171717" stroke-width="1.1685" stroke-linecap="round" stroke-linejoin="round"/>
<path d="M204.969 202.074L212.513 189.369L218.027 180.081L248.128 188.053L251.291 192.586L239.478 213.267" stroke="#171717" stroke-width="1.1685" stroke-linecap="round" stroke-linejoin="round"/>
<path d="M149.062 138.311C149.124 138.295 149.186 138.284 149.248 138.268C158.004 136.254 167.281 136.352 175.895 138.898C184.569 141.468 192.533 146.563 198.223 153.596C206.305 163.594 209.353 176.621 212.173 189.166" stroke="#171717" stroke-width="1.1685" stroke-linecap="round" stroke-linejoin="round"/>
<path d="M169.143 151.066C187.486 169.106 196.599 196.088 192.946 221.554" stroke="#171717" stroke-width="1.1685" stroke-linecap="round" stroke-linejoin="round"/>
<path d="M131.995 130.32V130.328C135.82 165.78 139.645 201.234 143.473 236.689" stroke="#171717" stroke-width="1.1685" stroke-linecap="round" stroke-linejoin="round"/>
<path d="M121.64 173.07C122.053 180.267 122.467 187.466 122.882 194.666C123.002 196.766 123.057 199.082 121.737 200.718C120.144 202.688 117.255 202.86 114.723 202.871C109.34 202.892 103.96 202.912 98.5829 202.934C97.3328 202.942 95.9462 202.895 95.0429 202.03C94.1159 201.142 94.0304 199.717 94.007 198.436C93.8588 191.079 93.7121 183.723 93.5669 176.369" stroke="#171717" stroke-width="1.1685" stroke-linecap="round" stroke-linejoin="round"/>
<path d="M93.5674 176.023C102.743 174.244 112.051 173.229 121.394 172.989" stroke="#171717" stroke-width="1.1685" stroke-linecap="round" stroke-linejoin="round"/>
<path d="M168.831 236.798C172.543 247.803 175.434 259.069 177.48 270.502" stroke="#171717" stroke-width="1.1685" stroke-linecap="round" stroke-linejoin="round"/>
<path d="M242.411 104.16C248.218 87.2379 254.048 70.242 257.269 52.6461C258.519 45.8112 259.283 38.3724 256.003 32.25C252.872 26.4081 246.625 22.9107 240.363 20.73C230.774 17.3922 220.189 16.4265 210.405 19.1526C200.622 21.8787 191.766 28.527 187.419 37.7025C183.712 45.5307 183.439 54.6363 185.04 63.1458C186.64 71.6553 189.994 79.725 193.327 87.7206C198.301 99.6459 203.273 111.57 208.244 123.493C210.709 129.405 213.173 135.314 215.636 141.221C216.866 144.177 218.098 147.131 219.332 150.085C220.208 152.185 221.267 156.815 223.156 157.975C227.697 150.162 229.987 139.889 232.998 131.348C236.184 122.3 239.299 113.23 242.411 104.16Z" stroke="#171717" stroke-width="1.1685" stroke-linecap="round" stroke-linejoin="round"/>
<path d="M211.617 57.6073C216.391 61.3423 223.554 61.5799 228.652 58.2973C237.667 52.4866 237.788 38.7268 229.255 32.3788C221.513 26.6188 208.688 34.7857 206.628 43.0696C205.323 48.3109 207.36 54.2776 211.617 57.6073Z" stroke="#171717" stroke-width="1.1685" stroke-linecap="round" stroke-linejoin="round"/>
<path d="M138.063 129.334C136.579 127.438 137.276 124.575 138.729 122.655C140.181 120.735 142.246 119.355 143.804 117.522C146.958 113.799 147.706 108.619 147.749 103.739C147.792 98.8594 147.269 93.9052 148.407 89.1616" stroke="#171717" stroke-width="1.1685" stroke-linecap="round" stroke-linejoin="round"/>
<path d="M121.78 130.849C121.114 122.62 120.45 114.388 119.789 106.154C119.567 103.396 119.345 100.64 119.123 97.8853C118.905 95.1709 118.765 92.164 120.448 90.022C122.908 86.8867 127.668 87.3154 131.617 87.8254C137.178 88.5448 142.786 88.8313 148.391 88.6822C151.266 88.6042 154.132 88.4122 156.99 88.1059C158.94 87.8959 160.959 87.6112 162.63 86.5792C164.302 85.5472 165.551 83.5726 165.138 81.6526C164.644 79.3393 161.953 78.0526 159.6 78.2956C157.248 78.5386 155.18 79.8886 153.213 81.2056" stroke="#171717" stroke-width="1.1685" stroke-linecap="round" stroke-linejoin="round"/>
<path d="M152.76 81.2944C152.866 81.2086 152.967 81.127 153.072 81.0373C154.564 79.8085 155.947 78.4519 157.204 76.9831C158.139 75.8926 159.05 74.5996 158.953 73.1665C158.833 71.3128 156.908 69.9184 155.051 69.9691C153.193 70.0198 151.514 71.2153 150.427 72.7225C149.341 74.2297 148.737 76.0225 148.149 77.7895C148.11 77.626 148.071 77.4625 148.029 77.2987" stroke="#171717" stroke-width="1.1685" stroke-linecap="round" stroke-linejoin="round"/>
<path d="M147.889 77.5241C147.928 77.4461 147.963 77.3684 148.002 77.2865C149.431 74.1998 149.953 70.7705 149.509 67.3982C149.318 65.9999 148.831 64.454 147.559 63.8501C145.791 63.0167 143.785 64.5473 142.768 66.2141C141.951 67.5632 141.413 69.0629 141.187 70.6241C140.858 72.7667 141.118 74.9582 141.939 76.9646" stroke="#171717" stroke-width="1.1685" stroke-linecap="round" stroke-linejoin="round"/>
<path d="M142.191 76.9869C142.117 74.8326 141.779 72.6954 141.187 70.623C140.954 69.7998 140.679 68.9886 140.365 68.193C140.007 67.2777 139.481 66.2808 138.53 66.0276C137.14 65.6499 135.948 67.0947 135.415 68.4345C134.339 71.1573 134.22 74.1645 135.076 76.9638" stroke="#171717" stroke-width="1.1685" stroke-linecap="round" stroke-linejoin="round"/>
<path d="M135.053 76.9675C134.402 75.3706 134.461 73.5637 133.857 71.9473C133.254 70.3309 131.485 68.8705 129.912 69.5716C128.868 70.039 128.385 71.2462 128.148 72.364C127.612 74.8912 127.787 77.5171 128.654 79.9507C128.732 80.1766 128.817 80.3986 128.911 80.6206C129.028 80.5192 129.141 80.4181 129.258 80.3206" stroke="#171717" stroke-width="1.1685" stroke-linecap="round" stroke-linejoin="round"/>
<path d="M128.965 79.9779C128.86 79.9701 128.759 79.9584 128.654 79.9506C124.88 79.6389 120.802 79.6935 117.803 81.9759C115.365 83.8335 114.115 86.817 112.97 89.6559C111.167 94.1424 109.362 98.6262 107.556 103.108C107.327 103.678 107.093 104.284 107.194 104.888C107.428 106.274 109.344 106.778 110.586 106.126C111.829 105.475 112.53 104.14 113.157 102.882C113.032 104.697 111.782 106.196 110.945 107.812C110.107 109.429 109.805 111.688 111.217 112.829C112.795 114.098 115.221 112.922 116.409 111.283C117.597 109.643 118.193 107.579 119.641 106.165" stroke="#171717" stroke-width="1.1685" stroke-linecap="round" stroke-linejoin="round"/>
<path d="M132.794 116.809C131.817 117.034 130.791 116.88 129.923 116.377C129.056 115.875 128.411 115.062 128.12 114.103" stroke="#171717" stroke-width="1.1685" stroke-linecap="round" stroke-linejoin="round"/>
<path d="M130.048 97.0634C129.495 96.773 128.854 96.6962 128.248 96.8477C127.642 96.9992 127.112 97.3685 126.761 97.8851" stroke="#171717" stroke-width="1.1685" stroke-linecap="round" stroke-linejoin="round"/>
<path d="M142.422 97.0596C141.915 96.5694 141.253 96.2727 140.55 96.2214C139.848 96.1701 139.149 96.3674 138.578 96.779" stroke="#171717" stroke-width="1.1685" stroke-linecap="round" stroke-linejoin="round"/>
<path d="M142.612 91.3201C140.006 91.5694 137.401 91.8175 134.795 92.0641C135.695 97.5241 136.595 102.986 137.495 108.449C135.836 108.573 134.18 108.696 132.526 108.818" stroke="#171717" stroke-width="1.1685" stroke-linecap="round" stroke-linejoin="round"/>
<path d="M105.173 81.99L109.05 78.168" stroke="#171717" stroke-width="1.1685" stroke-linecap="round" stroke-linejoin="round"/>
<path d="M109.17 82.3247L105.473 77.3081" stroke="#171717" stroke-width="1.1685" stroke-linecap="round" stroke-linejoin="round"/>
<path d="M119.706 63.6113C120.971 60.9947 122.446 58.4846 124.116 56.1062" stroke="#171717" stroke-width="1.1685" stroke-linecap="round" stroke-linejoin="round"/>
<path d="M124.81 62.8929C122.996 60.6858 120.982 58.6521 118.792 56.8176" stroke="#171717" stroke-width="1.1685" stroke-linecap="round" stroke-linejoin="round"/>
<path d="M187.68 30.2589C187.192 29.0979 186.704 27.9368 186.216 26.7756" stroke="#171717" stroke-width="1.1685" stroke-linecap="round" stroke-linejoin="round"/>
<path d="M183.134 35.52L164.048 26.9622" stroke="#171717" stroke-width="1.1685" stroke-linecap="round" stroke-linejoin="round"/>
<path d="M179.816 42.4883L177.25 42.3191" stroke="#171717" stroke-width="1.1685" stroke-linecap="round" stroke-linejoin="round"/>
<path d="M178.518 50.8345L166.98 52.0249" stroke="#171717" stroke-width="1.1685" stroke-linecap="round" stroke-linejoin="round"/>
<path d="M191.19 25.3003C190.03 20.9017 188.87 16.5031 187.71 12.1042" stroke="#171717" stroke-width="1.1685" stroke-linecap="round" stroke-linejoin="round"/>
<path d="M75.5141 114.758C78.1787 108.477 76.2893 100.672 71.3297 95.9873C66.3701 91.3022 58.7576 89.8145 52.2512 91.868C45.7448 93.9215 40.481 99.2843 38.1104 105.682C35.7398 112.079 36.1709 119.373 38.8457 125.65C40.5644 129.683 43.3382 133.466 47.2994 135.345C51.2606 137.225 56.5196 136.737 59.3918 133.425C61.9442 130.482 62.0672 125.886 60.176 122.479C58.2848 119.073 54.6815 116.83 50.8799 115.98C43.4282 114.315 35.0954 118.061 31.3946 124.74C28.1502 130.596 28.4451 137.743 29.5128 144.352C30.5804 150.96 32.3357 157.582 31.7078 164.248C31.232 169.299 28.9557 174.655 24.3408 176.763C22.8691 177.435 21.2536 177.731 19.6392 177.625C18.0247 177.52 16.4617 177.015 15.09 176.157C13.7183 175.299 12.5809 174.115 11.7795 172.709C10.9782 171.304 10.5379 169.721 10.4982 168.104C10.4127 164.618 12.9372 160.812 16.4244 160.851C19.9377 160.89 22.2972 164.568 23.0583 168C25.9932 181.23 15.3975 194.525 17.7783 207.866" stroke="#171717" stroke-width="1.1685" stroke-linecap="round" stroke-linejoin="round"/>
<path d="M252.535 136.094C249.488 139.408 247.153 143.31 245.673 147.561C244.194 151.812 243.601 156.322 243.932 160.811C244.249 164.787 245.362 168.818 247.868 171.922C250.373 175.027 254.448 177.042 258.379 176.364C262.311 175.685 265.673 171.875 265.173 167.917C264.674 163.959 259.697 161.085 256.282 163.147C253.492 164.831 252.809 168.603 253.109 171.847C253.493 175.94 254.965 179.855 257.371 183.187C261.276 188.578 267.427 192.149 270.799 197.889C272.356 200.54 273.238 203.533 273.37 206.605C273.501 209.677 272.876 212.734 271.551 215.509C270.225 218.283 268.239 220.69 265.767 222.518C263.294 224.346 260.411 225.539 257.37 225.994" stroke="url(#paint5_linear_28_12829)" stroke-width="1.1685" stroke-linecap="round" stroke-linejoin="round"/>
<path d="M93.8999 180.865L121.099 177.822" stroke="#171717" stroke-width="1.1685" stroke-linecap="round" stroke-linejoin="round"/>
<path d="M134.074 151.37C132.788 144.062 129.909 137.128 125.64 131.06" stroke="#171717" stroke-width="1.1685" stroke-linecap="round" stroke-linejoin="round"/>
<path d="M270.912 186.409L273.852 182.016" stroke="#171717" stroke-width="1.1685" stroke-linecap="round" stroke-linejoin="round"/>
<path d="M274.026 185.843L270.226 182.128" stroke="#171717" stroke-width="1.1685" stroke-linecap="round" stroke-linejoin="round"/>
<path d="M262.104 218.109L264.12 214.993" stroke="#171717" stroke-width="1.1685" stroke-linecap="round" stroke-linejoin="round"/>
<path d="M264.296 217.758C263.114 217.165 262.107 216.275 261.375 215.174" stroke="#171717" stroke-width="1.1685" stroke-linecap="round" stroke-linejoin="round"/>
<path d="M58.8242 104.19L61.2941 98.9646" stroke="#171717" stroke-width="1.1685" stroke-linecap="round" stroke-linejoin="round"/>
<path d="M62.0844 103.466L57.7197 100.122" stroke="#171717" stroke-width="1.1685" stroke-linecap="round" stroke-linejoin="round"/>
<path d="M18.4399 149.564L21.1891 145.716" stroke="url(#paint6_linear_28_12829)" stroke-width="1.1685" stroke-linecap="round" stroke-linejoin="round"/>
<path d="M21.5002 149.807L17.8525 145.749" stroke="url(#paint7_linear_28_12829)" stroke-width="1.1685" stroke-linecap="round" stroke-linejoin="round"/>
<path d="M172.615 186.19L175.01 181.982" stroke="#171717" stroke-width="1.1685" stroke-linecap="round" stroke-linejoin="round"/>
<path d="M156.538 171.924L152.322 168.808" stroke="#171717" stroke-width="1.1685" stroke-linecap="round" stroke-linejoin="round"/>
<path d="M164.25 160.931C164.565 159.452 165.321 158.102 166.417 157.061" stroke="#171717" stroke-width="1.1685" stroke-linecap="round" stroke-linejoin="round"/>
<path d="M148.84 196.483C149.223 195.435 149.929 194.537 150.856 193.917" stroke="#171717" stroke-width="1.1685" stroke-linecap="round" stroke-linejoin="round"/>
<path d="M170.466 210.962L166.984 207.296" stroke="#171717" stroke-width="1.1685" stroke-linecap="round" stroke-linejoin="round"/>
<path d="M181.607 199.393L183.269 196.468" stroke="#171717" stroke-width="1.1685" stroke-linecap="round" stroke-linejoin="round"/>
<path d="M178.8 215.795L175.842 219.44" stroke="#171717" stroke-width="1.1685" stroke-linecap="round" stroke-linejoin="round"/>
<path d="M157.44 227.838L155.062 225.817" stroke="#171717" stroke-width="1.1685" stroke-linecap="round" stroke-linejoin="round"/>
<path d="M192.626 173.568C192.993 172.359 193.701 171.281 194.664 170.463" stroke="#171717" stroke-width="1.1685" stroke-linecap="round" stroke-linejoin="round"/>
<path d="M186.039 151.403L182.775 148.251" stroke="#171717" stroke-width="1.1685" stroke-linecap="round" stroke-linejoin="round"/>
<path d="M198.858 193.356L201.077 190.071" stroke="#171717" stroke-width="1.1685" stroke-linecap="round" stroke-linejoin="round"/>
<path d="M162.396 267.772L165.325 263.92" stroke="#171717" stroke-width="1.1685" stroke-linecap="round" stroke-linejoin="round"/>
<path d="M145.648 251.737L142.013 248.587" stroke="#171717" stroke-width="1.1685" stroke-linecap="round" stroke-linejoin="round"/>
<path d="M117.76 263.668C118.582 262.528 119.405 261.388 120.227 260.248" stroke="#171717" stroke-width="1.1685" stroke-linecap="round" stroke-linejoin="round"/>
<path d="M107.266 244.665L103.966 239.718" stroke="#171717" stroke-width="1.1685" stroke-linecap="round" stroke-linejoin="round"/>
<path d="M80.8447 251.1C82.2715 250.252 83.5168 249.13 84.5098 247.8" stroke="#171717" stroke-width="1.1685" stroke-linecap="round" stroke-linejoin="round"/>
<path d="M68.1183 232.26L65.9697 227.654" stroke="#171717" stroke-width="1.1685" stroke-linecap="round" stroke-linejoin="round"/>
<path d="M78.0957 226.54L82.1277 224.341" stroke="#171717" stroke-width="1.1685" stroke-linecap="round" stroke-linejoin="round"/>
<path d="M56.0794 194.783L52.5835 196.403" stroke="#171717" stroke-width="1.1685" stroke-linecap="round" stroke-linejoin="round"/>
<path d="M58.1099 213.531C57.6386 212.388 57.1673 211.245 56.6963 210.102" stroke="#171717" stroke-width="1.1685" stroke-linecap="round" stroke-linejoin="round"/>
<path d="M61.063 164.592C61.183 166.119 61.3036 167.647 61.4251 169.174" stroke="#171717" stroke-width="1.1685" stroke-linecap="round" stroke-linejoin="round"/>
<path d="M74.2471 187.502C75.2245 186.28 76.2022 185.059 77.1796 183.837" stroke="#171717" stroke-width="1.1685" stroke-linecap="round" stroke-linejoin="round"/>
<path d="M86.1463 169.189L83.2114 166.443" stroke="#171717" stroke-width="1.1685" stroke-linecap="round" stroke-linejoin="round"/>
<path d="M99.8833 153.765C100.636 152.637 101.387 151.51 102.139 150.382" stroke="#171717" stroke-width="1.1685" stroke-linecap="round" stroke-linejoin="round"/>
<path d="M126.66 166.063L123.93 162.748" stroke="#171717" stroke-width="1.1685" stroke-linecap="round" stroke-linejoin="round"/>
<path d="M125.985 216.687L130.352 211.163" stroke="#171717" stroke-width="1.1685" stroke-linecap="round" stroke-linejoin="round"/>
<path d="M102.071 220.544C100.912 219.787 100.03 218.672 99.5601 217.369" stroke="#171717" stroke-width="1.1685" stroke-linecap="round" stroke-linejoin="round"/>
<path d="M114.55 214.793L116.978 212.271" stroke="#171717" stroke-width="1.1685" stroke-linecap="round" stroke-linejoin="round"/>
<path d="M137.284 227.832L134.899 225.452" stroke="#171717" stroke-width="1.1685" stroke-linecap="round" stroke-linejoin="round"/>
<path d="M81.5528 200.864L79.7192 203.429" stroke="#171717" stroke-width="1.1685" stroke-linecap="round" stroke-linejoin="round"/>
<path d="M149.755 148.833L146.742 146.175" stroke="#171717" stroke-width="1.1685" stroke-linecap="round" stroke-linejoin="round"/>
<path fill-rule="evenodd" clip-rule="evenodd" d="M248.129 188.053L251.291 192.586L239.479 213.267C238.198 212.904 236.901 213.657 235.763 214.341C228.409 218.789 220.318 221.884 211.874 223.482C209.868 223.864 207.621 224.109 205.946 222.948C203.157 221.017 203.781 216.834 204.419 213.504C204.952 210.719 205.273 207.898 205.377 205.065C205.413 204.052 205.397 202.962 204.934 202.089L204.969 202.074L212.512 189.369L218.027 180.081L248.129 188.053ZM246.627 189.146C246.883 188.95 247.25 189 247.446 189.256C247.842 189.777 248.282 190.376 248.595 191.025C248.91 191.678 249.115 192.42 248.999 193.22C248.997 193.233 248.995 193.246 248.992 193.259C248.841 193.964 248.554 194.633 248.146 195.228L244.995 200.494C244.829 200.771 244.47 200.861 244.194 200.696C243.917 200.53 243.826 200.171 243.992 199.894L247.153 194.612C247.159 194.601 247.166 194.591 247.173 194.58C247.496 194.113 247.724 193.588 247.845 193.034C247.911 192.547 247.793 192.052 247.542 191.532C247.286 191.001 246.912 190.483 246.516 189.965C246.321 189.708 246.37 189.342 246.627 189.146ZM227.796 206.388C226.238 205.547 224.218 205.886 222.793 206.823C221.347 207.774 220.332 209.478 221.102 211.447C221.105 211.455 221.109 211.463 221.112 211.47C221.389 212.097 221.833 212.635 222.395 213.026C222.957 213.416 223.615 213.644 224.297 213.685C226.094 213.816 227.965 212.591 228.908 211.127C229.388 210.38 229.676 209.5 229.539 208.626C229.397 207.725 228.822 206.941 227.796 206.388ZM223.062 212.066C222.679 211.8 222.376 211.435 222.186 211.01C221.689 209.724 222.289 208.554 223.435 207.799C224.605 207.029 226.16 206.832 227.242 207.416C228.005 207.828 228.309 208.329 228.384 208.807C228.463 209.312 228.306 209.903 227.925 210.494C227.147 211.703 225.64 212.613 224.378 212.52L224.37 212.519C223.901 212.491 223.448 212.334 223.062 212.066Z" fill="#171717"/>
<path d="M97.3018 69.2572L102.633 68.1619" stroke="url(#paint8_linear_28_12829)" stroke-width="1.1685" stroke-linecap="round" stroke-linejoin="round"/>
<path d="M100.47 71.7142C100.347 69.6406 100.223 67.567 100.1 65.4934" stroke="url(#paint9_linear_28_12829)" stroke-width="1.1685" stroke-linecap="round" stroke-linejoin="round"/>
<g opacity="0.1">
<path d="M117.354 131.404C113.902 132.736 111.809 136.414 112.898 140.062L115.34 136.857C105.875 136.514 96.0774 138.339 87.1905 141.543C78.1878 144.774 69.8916 149.708 62.7549 156.076C48.8703 168.531 40.3362 186.984 40.5024 205.704C40.6671 224.249 50.1288 241.514 63.945 253.527C79.245 266.829 99.021 273.262 118.986 274.962C141.226 276.857 163.507 272.75 185.038 267.513C187.763 266.851 190.483 266.171 193.198 265.473C197.038 264.495 195.412 258.565 191.561 259.533C170.921 264.725 149.899 269.455 128.492 269.154C109.425 268.885 89.946 264.515 74.1228 253.468C60.4662 243.934 49.9308 229.441 47.2887 212.794C44.5995 195.85 50.6133 177.753 61.9347 165.037C73.7061 151.815 91.0872 143.927 108.599 142.306C110.84 142.098 113.091 142.006 115.34 141.919C116.84 141.861 118.397 140.326 117.781 138.714C117.241 137.301 117.583 135.97 118.969 135.232C121.019 134.138 119.601 130.534 117.354 131.402V131.404Z" fill="#171717"/>
</g>
<g opacity="0.1">
<path d="M190.433 247.419C192.74 247.767 195.005 247.109 197.278 246.687C199.493 246.276 201.702 245.831 203.906 245.351C208.386 244.38 212.881 243.459 217.346 242.418C225.388 240.543 234.327 238.753 240.756 233.224C243.396 230.954 239.562 227.149 236.938 229.406C234.231 231.733 230.855 233.072 227.488 234.134C223.399 235.424 219.228 236.415 215.06 237.411C210.887 238.409 206.713 239.403 202.539 240.396C200.448 240.893 198.362 241.419 196.283 241.974C194.192 242.534 191.806 242.873 189.999 244.104C188.863 244.878 188.752 247.167 190.432 247.42L190.433 247.419Z" fill="#171717"/>
</g>
<g opacity="0.1">
<path d="M129.079 84.3327C125.532 83.4627 122.131 85.9272 120.152 88.6911C117.719 92.0883 117.749 96.6654 118.087 100.641C118.477 105.224 118.949 109.802 119.382 114.381C119.605 116.743 119.824 119.105 120.037 121.468C120.253 123.836 120.217 126.444 120.846 128.738C121.744 132.008 126.355 131.17 126.564 127.964C126.689 126.032 126.229 123.981 126.013 122.059C125.782 119.992 125.547 117.925 125.323 115.858C124.883 111.822 124.444 107.787 124.006 103.751C123.631 100.304 122.944 96.5214 123.766 93.0909C124.486 90.0885 126.123 88.1313 129.08 87.1809C130.412 86.7525 130.555 84.6951 129.08 84.333L129.079 84.3327Z" fill="#171717"/>
</g>
<g opacity="0.1">
<path d="M218.753 17.681C209.144 16.2155 199.643 20.6012 193.534 28.0085C186.994 35.9369 184.361 46.5584 184.92 56.7005C185.553 68.1998 189.523 79.1105 193.963 89.6222C198.234 99.7304 203.107 109.564 207.66 119.545C212.752 130.703 217.367 142.114 220.119 154.098C220.977 157.837 226.728 156.254 225.868 152.513C221.148 131.986 211.054 113.333 202.441 94.2782C198.095 84.6629 193.848 74.7647 191.774 64.3718C189.92 55.0871 190.079 44.8361 194.255 36.17C198.657 27.0311 207.93 20.2511 218.34 20.7194C220.048 20.7965 220.495 17.9468 218.752 17.681H218.753Z" fill="#171717"/>
</g>
<defs>
<linearGradient id="paint0_linear_28_12829" x1="172.253" y1="129.538" x2="172.253" y2="237.905" gradientUnits="userSpaceOnUse">
<stop stop-color="#FF9A34"/>
<stop offset="1" stop-color="#EB6421"/>
</linearGradient>
<linearGradient id="paint1_linear_28_12829" x1="221.226" y1="17.5711" x2="221.226" y2="157.975" gradientUnits="userSpaceOnUse">
<stop stop-color="#FF9A34"/>
<stop offset="1" stop-color="#EB6421"/>
</linearGradient>
<linearGradient id="paint2_linear_28_12829" x1="108.997" y1="130.327" x2="108.997" y2="275.923" gradientUnits="userSpaceOnUse">
<stop stop-color="#FF9A34"/>
<stop offset="1" stop-color="#EB6421"/>
</linearGradient>
<linearGradient id="paint3_linear_28_12829" x1="182.208" y1="233.184" x2="182.208" y2="270.751" gradientUnits="userSpaceOnUse">
<stop stop-color="#FF9A34"/>
<stop offset="1" stop-color="#EB6421"/>
</linearGradient>
<linearGradient id="paint4_linear_28_12829" x1="108.253" y1="172.989" x2="108.253" y2="202.935" gradientUnits="userSpaceOnUse">
<stop stop-color="#FF9A34"/>
<stop offset="1" stop-color="#EB6421"/>
</linearGradient>
<linearGradient id="paint5_linear_28_12829" x1="258.615" y1="136.094" x2="258.615" y2="225.994" gradientUnits="userSpaceOnUse">
<stop stop-color="#FF9A34"/>
<stop offset="1" stop-color="#EB6421"/>
</linearGradient>
<linearGradient id="paint6_linear_28_12829" x1="19.8145" y1="145.716" x2="19.8145" y2="149.564" gradientUnits="userSpaceOnUse">
<stop stop-color="#FF9A34"/>
<stop offset="1" stop-color="#EB6421"/>
</linearGradient>
<linearGradient id="paint7_linear_28_12829" x1="19.6764" y1="145.749" x2="19.6764" y2="149.807" gradientUnits="userSpaceOnUse">
<stop stop-color="#FF9A34"/>
<stop offset="1" stop-color="#EB6421"/>
</linearGradient>
<linearGradient id="paint8_linear_28_12829" x1="99.9676" y1="68.1619" x2="99.9676" y2="69.2572" gradientUnits="userSpaceOnUse">
<stop stop-color="#FF9A34"/>
<stop offset="1" stop-color="#EB6421"/>
</linearGradient>
<linearGradient id="paint9_linear_28_12829" x1="100.285" y1="65.4934" x2="100.285" y2="71.7142" gradientUnits="userSpaceOnUse">
<stop stop-color="#FF9A34"/>
<stop offset="1" stop-color="#EB6421"/>
</linearGradient>
</defs>
</svg>
