<svg width="288" height="288" viewBox="0 0 288 288" fill="none" xmlns="http://www.w3.org/2000/svg">
<path d="M198.926 136.152L198.923 136.144C199.469 135.918 200.106 135.984 200.705 135.987C201.246 136.025 201.784 135.871 202.223 135.553C203.025 135.547 203.725 136.162 204.068 136.887C204.366 137.636 204.518 138.435 204.516 139.241C205.748 159.946 205.848 180.702 204.814 201.418L204.883 201.801C203.629 202.025 202.361 202.165 201.088 202.219C199.885 202.27 198.633 202.267 197.392 202.318C196.351 202.347 195.315 202.453 194.29 202.635L194.276 202.563C194.656 183.263 195.038 163.964 195.421 144.666C195.454 143.041 195.488 141.39 195.97 139.84C196.452 138.29 197.448 136.823 198.926 136.152Z" fill="url(#paint0_linear_28_12828)"/>
<path d="M202.403 139.997C203.697 158.33 203.481 176.737 201.758 195.034" stroke="white" stroke-width="0.9" stroke-linecap="round" stroke-linejoin="round"/>
<path d="M87.4611 126.552C88.8645 128.046 88.9284 130.315 88.9125 132.362C88.7553 150.455 88.6002 168.546 88.4466 186.635L88.4361 186.96C85.7571 186.877 83.0886 186.583 80.4561 186.081L80.5227 185.754C80.5707 171.557 80.6193 157.36 80.6688 143.164C80.6877 137.814 80.7222 132.364 82.3707 127.273L82.4373 127.177C83.1057 127.606 84.0189 127.588 84.8394 127.534C85.593 127.484 86.4027 127.412 86.9697 126.914C87.0957 126.802 87.2061 126.673 87.297 126.53L87.4611 126.552Z" fill="var(--illustration-currentColor)"/>
<path d="M87.776 130.761L86.666 180.383" stroke="white" stroke-width="0.9" stroke-linecap="round" stroke-linejoin="round"/>
<path d="M99.3442 187.668C100.16 187.932 100.929 188.32 101.626 188.819C103.053 189.894 104.119 191.378 104.681 193.074C105.586 195.551 105.773 198.459 105.845 201.135C105.916 203.971 105.935 207.007 104.645 209.481C104.478 209.806 104.288 210.119 104.075 210.416C101.561 213.945 96.6205 214.608 92.2906 214.459C84.4105 214.184 76.6825 212.269 69.0901 210.142C61.6975 208.07 54.2251 205.721 47.959 201.287C40.9126 196.302 35.7703 188.848 33.0112 180.67C30.2521 172.492 29.8013 163.63 31.0912 155.097C32.1193 148.301 34.2763 141.585 38.1511 135.91C42.0259 130.235 47.7298 125.659 54.3715 123.899C55.7989 123.521 57.3595 123.217 58.3615 122.131C58.9498 121.492 59.2696 120.65 59.8207 119.979C60.2434 119.476 60.7669 119.067 61.3573 118.779C67.5616 121.165 74.0728 122.66 80.6962 123.219L81.0184 123.161C81.1249 123.909 81.265 124.65 81.4384 125.384C81.5287 125.957 81.7726 126.494 82.144 126.94C82.2337 127.029 82.3318 127.109 82.4371 127.18L82.3705 127.276C80.7205 132.365 80.6875 137.816 80.6686 143.166C80.6212 157.363 80.5723 171.559 80.5222 185.756L80.4556 186.083C83.0884 186.586 85.7566 186.88 88.4356 186.962C89.5276 187.002 90.6166 187.013 91.7056 187.002C94.2604 186.976 96.9766 186.883 99.3442 187.668Z" fill="url(#paint1_linear_28_12828)"/>
<path d="M64.8517 145.572C57.3901 151.716 54.0955 162.477 56.8378 171.745C59.5801 181.014 68.2 188.25 77.8036 189.344" stroke="white" stroke-width="0.9" stroke-linecap="round" stroke-linejoin="round"/>
<path d="M194.572 101.437C195.37 101.697 196.145 102.022 196.889 102.409C198.109 102.987 199.378 103.456 200.681 103.81C202.858 104.426 205.117 104.704 207.378 104.636C209.506 104.54 211.533 103.48 213.506 102.788C214.656 102.35 215.873 102.117 217.104 102.098C217.824 102.097 218.537 102.242 219.2 102.524C220.768 103.208 221.865 104.726 222.355 106.367C222.845 108.007 222.8 109.759 222.579 111.456C222.153 114.75 220.994 118.111 218.518 120.326C217.476 121.231 216.284 121.948 214.997 122.446C213.832 122.902 212.632 123.262 211.408 123.522C209.053 124.037 206.66 124.357 204.252 124.478C202.859 124.55 201.464 124.563 200.071 124.526C199.517 124.51 198.955 124.483 198.391 124.436C197.278 124.353 196.177 124.149 195.107 123.829C193.784 123.454 192.585 122.732 191.635 121.738C189.92 119.872 189.475 117.193 189.225 114.671C188.86 110.985 188.775 107.111 190.322 103.744C190.751 102.814 191.358 101.888 192.298 101.483C193.027 101.203 193.832 101.187 194.572 101.437ZM214.784 109.444C214.784 107.407 212.15 105.754 208.899 105.754C205.648 105.754 203.014 107.404 203.014 109.444C203.014 111.484 205.647 113.133 208.899 113.133C212.151 113.133 214.784 111.481 214.784 109.444Z" fill="var(--illustration-currentColor)"/>
<path d="M194.964 69.4936C197.715 71.0638 200.132 73.1563 202.082 75.6532C201.381 74.6569 200.895 73.5253 200.656 72.331C200.417 71.1364 200.43 69.9052 200.694 68.716C200.874 67.9171 201.531 66.9691 202.287 67.2805C202.57 67.4341 202.798 67.6726 202.939 67.9624C204.715 70.825 206.49 73.687 208.265 76.5481C208.912 75.8131 209.037 74.7718 209.435 73.8796C209.833 72.9874 210.825 72.1567 211.712 72.5668C212.271 72.8278 212.532 73.48 212.618 74.0926C212.703 74.7052 212.663 75.3415 212.862 75.9247C213.347 77.3347 214.992 77.938 216.46 78.2071C217.928 78.4762 219.56 78.6625 220.561 79.7671C221.27 80.5447 221.509 81.6271 221.725 82.6564C222.785 87.7534 223.847 92.8504 224.91 97.9474C223.869 97.1833 222.827 96.4207 221.784 95.6599C221.837 96.5599 222.559 97.255 223.009 98.038C223.459 98.821 223.483 100.075 222.631 100.373C222.143 100.547 221.619 100.302 221.161 100.062C220.056 99.4867 218.951 98.9113 217.848 98.3362L217.773 98.3257C218.17 95.7658 218.376 93.1801 218.391 90.5896C218.404 88.9279 218.309 87.1621 217.366 85.7935C216.186 84.0892 213.994 83.4394 211.949 83.1196C207.523 82.4272 202.979 82.7335 198.567 81.9613C197.982 81.8575 197.396 81.7324 196.81 81.5779C192.996 80.5792 189.361 78.4834 187.69 74.9761C187.607 74.8525 187.557 74.7109 187.542 74.5633C187.527 74.4157 187.548 74.2666 187.605 74.1292C187.78 73.8445 188.185 73.831 188.521 73.8592C190.722 74.0494 192.879 74.5927 194.909 75.4675C193.888 74.1424 193.214 72.5836 192.947 70.9324C192.848 70.3066 192.883 69.5224 193.442 69.2224C193.917 68.9716 194.495 69.2272 194.964 69.4936Z" fill="var(--illustration-currentColor)"/>
<path d="M199.069 130.786C198.835 130.772 198.613 130.681 198.436 130.528C198.121 130.228 198.121 129.734 198.143 129.3C198.22 127.718 198.299 126.136 198.379 124.554L198.39 124.434C198.955 124.482 199.517 124.509 200.07 124.524C201.463 124.562 202.858 124.548 204.251 124.476L204.267 124.74C204.264 126.213 204.263 127.685 204.262 129.158C204.259 129.603 204.24 130.098 203.926 130.415C203.642 130.65 203.28 130.771 202.912 130.753C202.832 130.758 202.755 130.761 202.677 130.761C201.636 130.775 200.592 130.791 199.551 130.804C199.39 130.81 199.229 130.804 199.069 130.786Z" fill="url(#paint2_linear_28_12828)"/>
<path d="M202.678 130.762C202.755 130.762 202.832 130.759 202.912 130.754L202.923 130.943C202.846 132.045 202.769 133.148 202.694 134.251C202.698 134.614 202.613 134.972 202.446 135.295C202.386 135.392 202.31 135.479 202.223 135.553C201.783 135.871 201.246 136.025 200.705 135.987C200.105 135.984 199.469 135.918 198.923 136.144C198.875 136.162 198.83 136.186 198.782 136.21C198.698 134.397 198.794 132.58 199.07 130.786C199.23 130.804 199.391 130.81 199.551 130.804C200.594 130.791 201.637 130.775 202.678 130.762Z" fill="url(#paint3_linear_28_12828)"/>
<path d="M156.011 106.664C157.541 108.638 157.721 111.327 157.619 113.822C157.127 125.912 151.462 137.473 143.167 146.282C137.314 152.503 129.967 157.562 121.647 159.497C113.327 161.431 103.994 159.909 97.472 154.394L97.0301 154.434C96.0686 143.782 94.8977 133.151 93.5174 122.542C93.3656 121.364 93.2093 120.188 93.0488 119.013L93.0833 119.008C94.817 124.108 97.3949 129.034 101.323 132.714C105.251 136.395 110.673 138.711 116.023 138.094C121.882 137.42 126.936 133.348 130.093 128.368C133.25 123.388 134.773 117.562 135.967 111.788C136.41 109.661 136.881 107.389 138.407 105.844C139.44 104.794 140.793 104.238 142.247 103.94C143.473 103.712 144.717 103.593 145.964 103.583C148.457 103.52 151.2 103.639 153.397 104.646C154.42 105.094 155.318 105.787 156.011 106.664Z" fill="url(#paint4_linear_28_12828)"/>
<path d="M101.073 75.8022C102.396 77.2482 101.573 79.7649 99.9461 80.8593C98.3192 81.9537 96.239 82.0293 94.2761 82.0656L93.842 82.0737C88.5347 82.1748 83.2265 82.2768 77.9171 82.38C76.2179 82.4118 74.3432 82.5156 73.1315 83.706C71.7707 85.0431 71.7893 87.2028 71.864 89.1093C72.0476 93.7644 72.02 98.4204 71.7815 103.077L71.7254 103.074C70.2128 103.058 69.8615 105.274 68.3888 105.624C67.4033 105.859 66.3728 105.071 66.1118 104.094C65.8508 103.118 66.2291 102.054 66.8576 101.261C67.4861 100.467 68.3381 99.8868 69.1769 99.3195C68.0612 99.1065 67.0571 99.9399 66.0533 100.467C65.0495 100.995 63.4622 101.024 63.1238 99.9399C62.8655 99.1065 63.5714 98.3199 64.1384 97.6551C65.3594 96.2079 66.131 94.4352 66.3584 92.5551C66.7658 89.1411 65.3783 85.4316 66.9389 82.3689C68.1746 79.9455 70.9589 78.6861 73.6523 78.3291C76.3457 77.9721 79.0823 78.3345 81.7985 78.2391C84.5147 78.1437 87.3938 77.4855 89.2631 75.5148C90.2432 74.4843 91.0073 73.0677 92.3831 72.7107C92.8853 72.5775 93.4169 72.609 93.8999 72.8007C94.3829 72.9921 94.7918 73.3338 95.066 73.7751C95.3405 74.2164 95.4656 74.7342 95.4236 75.252C95.3816 75.7701 95.1746 76.2609 94.8329 76.6521C94.6013 76.8384 94.3748 77.0301 94.1486 77.2221C94.4123 77.0799 94.6451 76.8861 94.8329 76.6521C95.5958 75.9831 96.4739 75.4578 97.4243 75.1017C98.6678 74.6916 100.188 74.8383 101.073 75.8022Z" fill="var(--illustration-currentColor)"/>
<path d="M97.0303 154.434C98.0287 165.493 98.8 176.572 99.3445 187.668C96.9769 186.883 94.2607 186.976 91.7068 187C90.6175 187.011 89.5285 187 88.4368 186.96L88.4476 186.635C88.6021 168.545 88.7572 150.454 88.9135 132.362C88.9294 130.315 88.8655 128.046 87.4621 126.552L87.2998 126.53C87.694 125.923 87.7579 125.106 87.787 124.36C87.8005 124.003 87.8137 123.665 87.8269 123.337H87.8458C89.6989 123.352 91.5439 123.093 93.3208 122.568L93.5179 122.541C94.897 133.148 96.0679 143.779 97.0303 154.434Z" fill="url(#paint5_linear_28_12828)"/>
<path d="M87.8267 123.338C87.9014 121.441 87.9548 119.955 87.9866 117.886L88.0424 117.524C89.6936 117.796 91.3313 118.128 92.9558 118.523L92.9858 118.52C93.0071 118.685 93.0284 118.847 93.0497 119.013C93.2096 120.19 93.3659 121.366 93.5183 122.541L93.3212 122.568C91.5443 123.093 89.6993 123.353 87.8462 123.338H87.8267Z" fill="url(#paint6_linear_28_12828)"/>
<path d="M88.0421 117.524L87.9863 117.886C87.9545 119.956 87.9011 121.441 87.8264 123.337C87.8132 123.665 87.8 124.003 87.7865 124.36C87.7565 125.106 87.6935 125.923 87.2993 126.53C87.2084 126.673 87.098 126.802 86.9717 126.914C86.4044 127.412 85.595 127.484 84.8417 127.534C84.0212 127.588 83.108 127.606 82.4396 127.177C82.3343 127.107 82.2362 127.027 82.1465 126.937C81.7751 126.492 81.5312 125.955 81.4409 125.382C81.2681 124.647 81.128 123.906 81.0209 123.159C80.7167 121.068 80.6675 118.948 80.8745 116.845L80.8799 116.738C82.3526 116.821 83.8199 116.951 85.2818 117.13C86.2052 117.242 87.1253 117.373 88.0421 117.524Z" fill="var(--illustration-currentColor)"/>
<path d="M81.02 123.159L80.6978 123.218C74.0744 122.658 67.5632 121.163 61.3589 118.778C62.3333 118.328 63.365 118.016 64.4246 117.848C66.47 117.451 68.5295 117.152 70.6028 116.953C74.018 116.621 77.4536 116.549 80.8796 116.74L80.8742 116.846C80.6672 118.949 80.7161 121.068 81.02 123.159Z" fill="url(#paint7_linear_28_12828)"/>
<path d="M80.4843 103.458L80.3805 103.668C78.4872 104.312 77.2887 106.27 77.7921 108.206L77.7522 108.384C77.4606 108.319 77.1798 108.212 76.9185 108.067C76.3392 107.714 75.8541 107.227 75.5043 106.646C75.1548 106.065 74.9508 105.408 74.9106 104.731C74.8494 103.368 75.2364 102.023 76.0131 100.901C76.4739 100.201 77.2887 99.5082 78.0636 99.8304C78.7746 100.126 78.9105 101.045 79.1769 101.769C79.4361 102.449 79.8912 103.036 80.4843 103.458Z" fill="var(--illustration-currentColor)"/>
<path d="M82.2715 99.884C82.6951 100.537 83.7949 100.315 84.229 99.6741C84.6631 99.0327 84.6337 98.1905 84.5857 97.4156C84.4153 94.649 84.2455 91.883 84.0757 89.1176C84.0304 88.412 83.9932 87.6777 84.2809 87.0324C84.6775 86.151 85.6228 85.6185 86.5762 85.4667C87.5296 85.3149 88.5016 85.4772 89.4562 85.6398" stroke="var(--illustration-currentColor)" stroke-width="0.9" stroke-linecap="round" stroke-linejoin="round"/>
<path d="M80.9932 86.0284C80.7895 85.6654 80.4878 85.3669 80.1224 85.1677C79.7567 84.9685 79.3423 84.8764 78.9268 84.9019C78.5113 84.9274 78.1114 85.0699 77.7733 85.3126C77.4349 85.555 77.1721 85.8883 77.0146 86.2735" stroke="var(--illustration-currentColor)" stroke-width="0.9" stroke-linecap="round" stroke-linejoin="round"/>
<path d="M79.9201 91.4022L79.6646 89.397" stroke="var(--illustration-currentColor)" stroke-width="0.9" stroke-linecap="round" stroke-linejoin="round"/>
<path d="M88.2822 92.1585V89.5275" stroke="var(--illustration-currentColor)" stroke-width="0.9" stroke-linecap="round" stroke-linejoin="round"/>
<path d="M83.5602 104.132C83.0289 104.243 82.4802 104.24 81.9501 104.124C81.4197 104.008 80.9202 103.781 80.4843 103.458C79.8912 103.037 79.4364 102.449 79.1769 101.77C78.9105 101.045 78.7746 100.127 78.0636 99.8307C77.2887 99.5085 76.4736 100.201 76.0131 100.901C75.2364 102.023 74.8494 103.368 74.9106 104.731C74.9508 105.408 75.1548 106.065 75.5043 106.646C75.8541 107.227 76.3392 107.715 76.9185 108.068C77.1798 108.212 77.4606 108.319 77.7522 108.385C78.2625 108.516 78.7983 108.515 79.308 108.381C79.818 108.248 80.2851 107.985 80.6655 107.62" stroke="var(--illustration-currentColor)" stroke-width="0.9" stroke-linecap="round" stroke-linejoin="round"/>
<path d="M77.7924 108.206C77.289 106.27 78.4875 104.313 80.3808 103.668" stroke="var(--illustration-currentColor)" stroke-width="0.9" stroke-linecap="round" stroke-linejoin="round"/>
<path d="M85.3345 116.707C85.2706 115.187 85.2067 113.645 85.5394 112.162C85.8721 110.678 86.6527 109.23 87.9415 108.42C89.425 107.493 91.4887 107.43 92.5405 106.031C93.121 105.262 93.2464 104.252 93.3421 103.291C94.0408 96.3456 94.2097 89.3571 93.8482 82.386" stroke="var(--illustration-currentColor)" stroke-width="0.9" stroke-linecap="round" stroke-linejoin="round"/>
<path d="M94.8329 76.6518C95.1746 76.2606 95.3816 75.7698 95.4236 75.2517C95.4656 74.7339 95.3405 74.2161 95.066 73.7748C94.7918 73.3335 94.3829 72.9918 93.8999 72.8004C93.4169 72.6087 92.8853 72.5772 92.3831 72.7104C91.0061 73.0674 90.242 74.484 89.2631 75.5145C87.3938 77.4852 84.515 78.1431 81.7985 78.2388C79.082 78.3345 76.3475 77.9727 73.6523 78.3288C70.9571 78.6849 68.1746 79.9452 66.9389 82.3686C65.3789 85.4313 66.7658 89.1408 66.3584 92.5548C66.131 94.4349 65.3594 96.2076 64.1384 97.6548C63.5714 98.3205 62.8655 99.1062 63.1238 99.9396C63.4622 101.023 65.0465 100.997 66.0533 100.467C67.0601 99.9372 68.0612 99.1062 69.1769 99.3192C68.3369 99.8865 67.4834 100.464 66.8576 101.26C66.2318 102.057 65.8535 103.114 66.1118 104.094C66.3701 105.074 67.4033 105.859 68.3888 105.624C69.8615 105.272 70.2128 103.057 71.7254 103.074" stroke="var(--illustration-currentColor)" stroke-width="0.9" stroke-linecap="round" stroke-linejoin="round"/>
<path d="M94.8332 76.6519C94.6016 76.8382 94.3751 77.0299 94.1489 77.2219C94.4129 77.0797 94.6457 76.8856 94.8332 76.6519Z" stroke="var(--illustration-currentColor)" stroke-width="0.9" stroke-linecap="round" stroke-linejoin="round"/>
<path d="M70.5381 116.331C71.1426 111.934 71.5572 107.516 71.7819 103.077C72.0189 98.4246 72.0465 93.7686 71.8644 89.1093C71.7897 87.2028 71.7711 85.0431 73.1319 83.706C74.3436 82.5156 76.2183 82.4118 77.9175 82.38C83.2275 82.2762 88.5357 82.1739 93.8424 82.0737L94.2765 82.0656C96.2391 82.0284 98.3217 81.9537 99.9465 80.8593C101.571 79.7649 102.396 77.2482 101.073 75.8022C100.189 74.8383 98.6682 74.6922 97.4244 75.1017C96.4743 75.4575 95.5962 75.9828 94.8333 76.6518" stroke="var(--illustration-currentColor)" stroke-width="0.9" stroke-linecap="round" stroke-linejoin="round"/>
<path d="M69.3716 145.832C66.9881 147.134 64.8893 148.899 63.1988 151.025C61.508 153.15 60.2597 155.592 59.5271 158.207C58.7948 160.822 58.5929 163.557 58.9337 166.252C59.2745 168.946 60.1511 171.545 61.5116 173.895C64.3958 178.875 69.3356 182.457 74.7257 184.475C76.5896 185.167 78.5072 185.704 80.459 186.081C83.0918 186.584 85.76 186.878 88.439 186.96C89.531 187 90.62 187.011 91.709 187C94.2629 186.976 96.9791 186.883 99.3467 187.668C100.162 187.932 100.932 188.32 101.629 188.819C103.056 189.894 104.122 191.378 104.683 193.074C105.589 195.551 105.775 198.459 105.847 201.135C105.919 203.972 105.937 207.008 104.647 209.481C104.481 209.807 104.29 210.119 104.077 210.416C101.563 213.945 96.623 214.608 92.2931 214.459C84.413 214.184 76.685 212.269 69.0926 210.142C61.7 208.07 54.2276 205.721 47.9615 201.287C40.9151 196.302 35.7728 188.848 33.0137 180.67C30.2546 172.492 29.8037 163.63 31.0937 155.097C32.1218 148.301 34.2788 141.585 38.1536 135.91C42.0284 130.235 47.7323 125.66 54.374 123.899C55.8014 123.521 57.362 123.218 58.364 122.131C58.9523 121.492 59.2721 120.65 59.8232 119.979C60.2456 119.476 60.7691 119.067 61.3598 118.779C62.3339 118.33 63.365 118.016 64.4243 117.848C66.4697 117.451 68.5292 117.152 70.6025 116.953C74.0177 116.621 77.4533 116.549 80.8793 116.74C82.352 116.822 83.8193 116.952 85.2812 117.131C86.2052 117.243 87.1253 117.374 88.0412 117.525C89.6924 117.797 91.3301 118.13 92.9546 118.524" stroke="var(--illustration-currentColor)" stroke-width="0.9" stroke-linecap="round" stroke-linejoin="round"/>
<path d="M92.9771 118.467C92.9798 118.485 92.9825 118.501 92.9852 118.52C93.0065 118.685 93.0277 118.847 93.049 119.013C93.2089 120.19 93.3653 121.366 93.5177 122.541C94.8977 133.148 96.0685 143.779 97.0303 154.434C98.0287 165.493 98.8001 176.572 99.3446 187.668C99.347 187.706 99.347 187.743 99.3497 187.78" stroke="var(--illustration-currentColor)" stroke-width="0.9" stroke-linecap="round" stroke-linejoin="round"/>
<path d="M93.0835 119.007C94.8172 124.107 97.3951 129.034 101.323 132.714C105.251 136.394 110.673 138.711 116.023 138.093C121.882 137.419 126.936 133.348 130.093 128.368C133.25 123.388 134.773 117.561 135.968 111.788C136.41 109.66 136.881 107.389 138.407 105.844C139.44 104.794 140.793 104.238 142.247 103.94C143.473 103.712 144.717 103.593 145.964 103.583C148.457 103.519 151.2 103.639 153.397 104.646C154.42 105.094 155.317 105.787 156.009 106.664C157.539 108.637 157.719 111.327 157.618 113.822C157.125 125.912 151.461 137.473 143.165 146.282C137.312 152.503 129.965 157.562 121.646 159.496C113.326 161.431 103.992 159.909 97.4704 154.394" stroke="var(--illustration-currentColor)" stroke-width="0.9" stroke-linecap="round" stroke-linejoin="round"/>
<path d="M142.184 103.644C138.469 100.901 132.145 94.8058 133.33 93.1519C134.013 92.1976 137.371 93.9847 139.106 95.1007C140.841 96.2164 142.274 97.7443 143.276 99.5476C141.635 92.5138 137.924 78.0939 140.781 78.0939C143.684 77.7024 145.385 89.8621 146.821 96.004C146.155 90.1873 144.824 78.4972 146.826 78.4972C149.721 78.0925 149.092 90.3985 150.048 97.4422C150.674 92.6476 151.214 78.9807 153.119 78.5373C155.024 78.0939 155.915 95.887 153.399 104.646" stroke="var(--illustration-currentColor)" stroke-width="0.9" stroke-linecap="round" stroke-linejoin="round"/>
<path d="M176.825 185.16C171.105 193.247 164.044 200.299 155.95 206.01C155.89 206.055 155.827 206.098 155.766 206.14C153.449 207.762 150.653 209.341 147.936 208.55C145.907 207.959 144.477 206.183 143.302 204.425C142.964 203.915 142.634 203.397 142.32 202.867C140.727 200.183 139.542 197.222 139.691 194.137C139.817 192.101 140.45 190.129 141.534 188.401C142.824 186.36 144.449 184.551 146.341 183.051C146.967 182.537 147.608 182.055 148.258 181.6C152.554 178.59 157.432 176.284 160.993 172.431C164.838 168.269 166.764 162.711 168.239 157.238C169.714 151.766 170.87 146.128 173.554 141.135C176.239 136.142 180.806 131.775 186.422 131.01C188.675 130.704 191.072 130.967 193.13 130.003C195.188 129.039 196.768 125.38 195.106 123.828" stroke="var(--illustration-currentColor)" stroke-width="0.9" stroke-linecap="round" stroke-linejoin="round"/>
<path d="M214.997 122.445C213.951 123.636 214.673 126.075 215.908 127.074C217.144 128.072 218.779 128.365 220.323 128.735C234.23 132.056 244.784 143.763 251.092 156.593C255.177 164.903 257.894 174.17 256.916 183.378C255.521 196.523 246.552 208.086 235.21 214.874C223.967 221.601 210.646 224.114 197.544 224.48C197.424 224.485 197.307 224.488 197.187 224.49C194.388 224.562 191.28 224.424 189.275 222.469C188.467 221.659 187.888 220.649 187.597 219.542C187.07 217.705 187.113 215.596 187.217 213.649C187.342 211.274 187.547 208.715 188.583 206.645C188.952 205.887 189.453 205.201 190.063 204.619C191.246 203.506 192.705 202.933 194.29 202.635C195.314 202.453 196.351 202.347 197.392 202.318C198.633 202.267 199.885 202.27 201.088 202.219C202.361 202.166 203.629 202.026 204.883 201.801C208.836 201.119 212.611 199.646 215.981 197.468C219.35 195.291 222.245 192.455 224.49 189.131C226.736 185.807 228.287 182.063 229.049 178.125C229.812 174.187 229.77 170.135 228.928 166.212" stroke="var(--illustration-currentColor)" stroke-width="0.9" stroke-linecap="round" stroke-linejoin="round"/>
<path d="M170.066 214.288C165.291 214.823 160.924 215.54 161.092 216.85C161.4 219.248 172.439 217.833 178.37 216.56C173.882 217.556 169.394 218.552 164.905 219.548C164.301 219.635 163.725 219.863 163.225 220.214C162.76 220.604 162.504 221.321 162.823 221.838C163.123 222.325 163.771 222.44 164.341 222.498C171.904 223.278 180.29 222.074 187.471 219.576" stroke="var(--illustration-currentColor)" stroke-width="0.9" stroke-linecap="round" stroke-linejoin="round"/>
<path d="M170.066 214.288C172.689 214.283 175.303 214.008 177.869 213.465C175.645 213.732 172.788 213.979 170.066 214.288Z" stroke="var(--illustration-currentColor)" stroke-width="0.9" stroke-linecap="round" stroke-linejoin="round"/>
<path d="M177.995 208.768C171.508 208.81 161.13 210.853 161.638 213.369C161.638 214.747 167.233 214.297 170.068 214.288" stroke="var(--illustration-currentColor)" stroke-width="0.9" stroke-linecap="round" stroke-linejoin="round"/>
<path d="M177.995 208.768C178.492 208.803 178.991 208.812 179.489 208.794C179.022 208.77 178.522 208.762 177.995 208.768Z" stroke="var(--illustration-currentColor)" stroke-width="0.9" stroke-linecap="round" stroke-linejoin="round"/>
<path d="M188.583 206.645C184.42 206.283 180.498 205.588 176.338 205.226C175.989 205.196 175.638 205.166 175.286 205.162C174.799 205.146 174.313 205.217 173.851 205.372C173.065 205.66 172.381 206.408 172.455 207.244C172.455 208.297 176.065 208.634 177.994 208.767" stroke="var(--illustration-currentColor)" stroke-width="0.9" stroke-linecap="round" stroke-linejoin="round"/>
<path d="M183.123 145.784C180.341 158.791 178.248 171.935 176.853 185.162C176.161 191.719 175.64 198.312 175.29 204.941" stroke="var(--illustration-currentColor)" stroke-width="0.9" stroke-linecap="round" stroke-linejoin="round"/>
<path d="M207.977 103.479C206.757 103.234 205.537 102.988 204.316 102.742C204.726 97.6263 205.618 92.5611 206.979 87.6129C209.581 87.9243 212.182 88.2348 214.784 88.5447" stroke="var(--illustration-currentColor)" stroke-width="0.9" stroke-linecap="round" stroke-linejoin="round"/>
<path d="M204.729 87.618C202.844 87.1272 200.87 87.0861 198.966 87.498" stroke="var(--illustration-currentColor)" stroke-width="0.9" stroke-linecap="round" stroke-linejoin="round"/>
<path d="M208.899 113.133C212.15 113.133 214.784 111.482 214.784 109.445C214.784 107.408 212.15 105.756 208.899 105.756C205.649 105.756 203.014 107.408 203.014 109.445C203.014 111.482 205.649 113.133 208.899 113.133Z" stroke="var(--illustration-currentColor)" stroke-width="0.9" stroke-linecap="round" stroke-linejoin="round"/>
<path d="M217.104 102.097C215.873 102.116 214.656 102.35 213.506 102.787C211.533 103.48 209.506 104.539 207.378 104.635C205.116 104.704 202.858 104.426 200.681 103.81C199.378 103.456 198.109 102.987 196.888 102.409C196.144 102.022 195.369 101.697 194.572 101.437C193.832 101.187 193.027 101.203 192.297 101.482C191.357 101.887 190.75 102.814 190.321 103.743C188.774 107.11 188.859 110.984 189.224 114.67C189.475 117.192 189.919 119.871 191.634 121.738C192.585 122.731 193.784 123.453 195.107 123.828C196.176 124.148 197.277 124.352 198.39 124.435C198.955 124.483 199.517 124.51 200.07 124.525C201.463 124.562 202.859 124.549 204.252 124.477C206.659 124.356 209.052 124.036 211.407 123.521C212.631 123.261 213.832 122.902 214.997 122.445C216.284 121.947 217.475 121.23 218.517 120.325C220.994 118.11 222.153 114.749 222.579 111.455C222.8 109.759 222.849 108.005 222.355 106.366C221.861 104.727 220.768 103.207 219.199 102.523C218.536 102.242 217.824 102.097 217.104 102.097Z" stroke="var(--illustration-currentColor)" stroke-width="0.9" stroke-linecap="round" stroke-linejoin="round"/>
<path d="M217.107 101.908C217.368 100.702 217.591 99.5111 217.772 98.3261C218.169 95.7662 218.376 93.1805 218.39 90.59C218.403 88.9283 218.308 87.1625 217.365 85.7939C216.185 84.0896 213.993 83.4398 211.948 83.12C207.522 82.4276 202.978 82.7339 198.567 81.9617C197.981 81.8579 197.395 81.7328 196.809 81.5783C192.996 80.5796 189.36 78.4838 187.689 74.9765C187.606 74.8529 187.556 74.7113 187.541 74.5637C187.526 74.4161 187.548 74.267 187.604 74.1296C187.779 73.8449 188.184 73.8314 188.52 73.8596C190.722 74.0501 192.879 74.5931 194.908 75.4679C193.887 74.1428 193.213 72.584 192.946 70.9328C192.847 70.307 192.882 69.5228 193.441 69.2228C193.918 68.9699 194.496 69.2255 194.964 69.4928C197.715 71.063 200.133 73.1555 202.083 75.6524C201.381 74.6561 200.896 73.5248 200.657 72.3302C200.418 71.1356 200.431 69.9044 200.695 68.7152C200.875 67.9163 201.531 66.9683 202.288 67.2797C202.571 67.4333 202.799 67.6718 202.94 67.9616C204.716 70.8242 206.491 73.6862 208.266 76.5473C208.913 75.8123 209.038 74.771 209.436 73.8788C209.834 72.9866 210.826 72.1559 211.713 72.566C212.272 72.827 212.533 73.4792 212.619 74.0918C212.704 74.7044 212.664 75.3407 212.863 75.9239C213.348 77.3339 214.993 77.9372 216.461 78.2063C217.929 78.4754 219.561 78.6617 220.562 79.7663C221.271 80.5439 221.51 81.6263 221.726 82.6556C222.786 87.7526 223.848 92.8496 224.911 97.9466C223.869 97.1825 222.828 96.4199 221.785 95.6591C221.838 96.5591 222.56 97.2542 223.01 98.0372C223.46 98.8202 223.484 100.075 222.632 100.373C222.144 100.546 221.619 100.301 221.162 100.061C220.056 99.4859 218.952 98.9105 217.849 98.3354" stroke="var(--illustration-currentColor)" stroke-width="0.9" stroke-linecap="round" stroke-linejoin="round"/>
<path d="M196.793 81.6396C195.629 88.1841 194.887 94.7968 194.573 101.437C194.573 101.455 194.57 101.471 194.57 101.49" stroke="var(--illustration-currentColor)" stroke-width="0.9" stroke-linecap="round" stroke-linejoin="round"/>
<path d="M206.1 108.608C206.809 109.191 207.533 109.787 208.396 110.096C209.258 110.405 210.305 110.373 211.003 109.779C211.369 109.425 211.664 109.004 211.871 108.538" stroke="var(--illustration-currentColor)" stroke-width="0.9" stroke-linecap="round" stroke-linejoin="round"/>
<path d="M104.895 192.986C108.791 190.676 112.748 188.345 117.118 187.154C121.326 186.009 126.034 186.036 129.844 188.119C129.991 188.198 130.137 188.284 130.281 188.369C130.838 188.702 131.402 189.119 131.618 189.732C131.999 190.812 131.085 191.99 130.002 192.356C128.918 192.721 127.735 192.518 126.598 192.387C123.131 191.987 119.618 192.288 116.268 193.271" stroke="var(--illustration-currentColor)" stroke-width="0.9" stroke-linecap="round" stroke-linejoin="round"/>
<path d="M121.847 192.358C117.97 194.475 115.09 198.042 113.839 202.278C113.61 203.077 113.456 203.993 113.908 204.691C114.343 205.359 115.243 205.609 116.031 205.474C116.813 205.291 117.539 204.92 118.145 204.394C119.402 203.417 120.507 202.26 121.424 200.96C122.167 199.908 122.87 198.691 124.074 198.23C125.001 197.875 126.034 198.05 127.025 198.11C129.346 198.242 131.66 197.731 133.709 196.632C134.369 196.283 134.995 195.873 135.578 195.407" stroke="var(--illustration-currentColor)" stroke-width="0.9" stroke-linecap="round" stroke-linejoin="round"/>
<path d="M129.9 188.009C133.66 187.02 137.623 187.114 141.332 188.279" stroke="var(--illustration-currentColor)" stroke-width="0.9" stroke-linecap="round" stroke-linejoin="round"/>
<path d="M133.788 196.778C134.395 196.759 135.024 196.478 135.591 196.692C135.882 196.786 136.139 196.962 136.332 197.198C136.526 197.435 136.646 197.723 136.68 198.026C136.704 198.959 135.687 199.534 134.811 199.848C131.264 201.119 127.514 201.725 123.748 201.635" stroke="var(--illustration-currentColor)" stroke-width="0.9" stroke-linecap="round" stroke-linejoin="round"/>
<path d="M134.909 199.996C135.428 200.062 135.961 199.865 136.422 200.116C136.657 200.23 136.858 200.407 137.001 200.626C137.145 200.846 137.226 201.1 137.236 201.362C137.2 201.709 137.06 202.037 136.834 202.302C136.395 202.873 135.85 203.353 135.228 203.716C134.522 204.132 133.775 204.476 132.999 204.741C129.533 205.994 125.865 206.597 122.18 206.518C122.283 206.515 122.39 206.515 122.494 206.512" stroke="var(--illustration-currentColor)" stroke-width="0.9" stroke-linecap="round" stroke-linejoin="round"/>
<path d="M123.824 209.66C125.939 209.436 131.821 208.667 133.754 207.782C134.545 207.42 135.355 206.967 135.789 206.214C136.004 205.827 136.085 205.379 136.018 204.941C135.993 204.729 135.92 204.525 135.804 204.347C135.687 204.168 135.531 204.018 135.347 203.91" stroke="var(--illustration-currentColor)" stroke-width="0.9" stroke-linecap="round" stroke-linejoin="round"/>
<path d="M136.022 204.941C138.227 204.75 140.358 204.055 142.251 202.909" stroke="var(--illustration-currentColor)" stroke-width="0.9" stroke-linecap="round" stroke-linejoin="round"/>
<path d="M104.814 209.566C105.757 209.782 110.127 209.572 111.091 209.463" stroke="var(--illustration-currentColor)" stroke-width="0.9" stroke-linecap="round" stroke-linejoin="round"/>
<path d="M111.581 209.231C112.238 208.224 113.174 207.43 114.276 206.948C114.705 206.764 115.243 206.644 115.605 206.94C115.94 207.214 115.956 207.715 115.932 208.149C115.911 208.503 115.879 208.857 115.828 209.209C115.769 209.685 115.66 210.155 115.504 210.609C115.443 210.786 115.372 210.959 115.294 211.129C115.09 211.599 114.79 212.021 114.414 212.37C114.038 212.718 113.594 212.985 113.11 213.152C112.726 213.268 112.32 213.29 111.925 213.217C111.53 213.145 111.159 212.979 110.841 212.735C110.173 212.191 110.623 211.408 110.867 210.686C111.042 210.173 111.282 209.684 111.581 209.231Z" stroke="var(--illustration-currentColor)" stroke-width="0.9" stroke-linecap="round" stroke-linejoin="round"/>
<path d="M115.504 210.611C115.389 211.316 115.037 212.52 115.426 213.09C115.563 213.259 115.758 213.371 115.972 213.407C116.987 213.641 118.324 213.077 118.96 212.254C119.074 212.106 119.178 211.951 119.272 211.79C119.674 211.033 119.951 210.217 120.095 209.372C120.103 209.335 120.111 209.298 120.116 209.258C120.174 208.915 120.15 208.562 120.045 208.23C119.941 207.898 119.759 207.596 119.514 207.348C118.295 206.256 116.46 208.041 115.898 209.069C115.874 209.114 115.85 209.162 115.829 209.21C115.662 209.621 115.559 210.054 115.522 210.496C115.517 210.533 115.512 210.571 115.504 210.611Z" stroke="var(--illustration-currentColor)" stroke-width="0.9" stroke-linecap="round" stroke-linejoin="round"/>
<path d="M119.341 211.614C119.317 211.674 119.293 211.732 119.272 211.79C119.099 212.175 119.003 212.591 118.992 213.013C118.986 213.256 119.054 213.496 119.187 213.7C119.319 213.904 119.51 214.064 119.735 214.158C120.161 214.294 120.622 214.091 121.002 213.854C122.218 213.088 123.142 211.937 123.626 210.584C123.738 210.288 123.803 209.976 123.82 209.66C123.841 209.378 123.782 209.096 123.65 208.845C123.47 208.567 123.208 208.351 122.9 208.228C122.592 208.105 122.254 208.08 121.932 208.158C121.288 208.333 120.731 208.739 120.366 209.298" stroke="var(--illustration-currentColor)" stroke-width="0.9" stroke-linecap="round" stroke-linejoin="round"/>
<path d="M80.8732 116.845C80.6662 118.948 80.7151 121.068 81.0196 123.159C81.1258 123.907 81.2659 124.648 81.4396 125.383C81.5296 125.955 81.7735 126.493 82.1452 126.938C82.2346 127.027 82.3327 127.108 82.4383 127.178C83.1067 127.606 84.0199 127.588 84.8404 127.535C85.594 127.484 86.4034 127.412 86.9704 126.914C87.0964 126.802 87.2068 126.673 87.298 126.531C87.6922 125.923 87.7561 125.106 87.7852 124.36C87.7987 124.003 87.8119 123.665 87.8251 123.338C87.8998 121.441 87.9532 119.956 87.985 117.886" stroke="var(--illustration-currentColor)" stroke-width="0.9" stroke-linecap="round" stroke-linejoin="round"/>
<path d="M82.3727 127.274C80.7227 132.362 80.6897 137.814 80.6708 143.164C80.6231 157.361 80.5745 171.557 80.5244 185.754" stroke="var(--illustration-currentColor)" stroke-width="0.9" stroke-linecap="round" stroke-linejoin="round"/>
<path d="M87.4619 126.552C88.8653 128.046 88.9292 130.315 88.9133 132.362C88.7561 150.455 88.6007 168.546 88.4474 186.635" stroke="var(--illustration-currentColor)" stroke-width="0.9" stroke-linecap="round" stroke-linejoin="round"/>
<path d="M198.379 124.554C198.3 126.136 198.221 127.718 198.143 129.3C198.121 129.734 198.121 130.227 198.436 130.528C198.613 130.681 198.835 130.772 199.069 130.786C199.23 130.804 199.39 130.81 199.551 130.805C200.593 130.791 201.636 130.775 202.678 130.762C202.755 130.762 202.832 130.759 202.912 130.754C203.281 130.772 203.643 130.651 203.927 130.416C204.241 130.099 204.26 129.604 204.262 129.159C204.262 127.686 204.264 126.214 204.268 124.741" stroke="var(--illustration-currentColor)" stroke-width="0.9" stroke-linecap="round" stroke-linejoin="round"/>
<path d="M199.072 130.759C199.07 130.768 199.069 130.777 199.07 130.786C198.794 132.58 198.698 134.397 198.782 136.21C198.83 136.186 198.875 136.162 198.923 136.144C199.469 135.918 200.106 135.984 200.705 135.987C201.246 136.025 201.783 135.872 202.223 135.553C202.31 135.479 202.386 135.392 202.446 135.295C202.613 134.972 202.698 134.614 202.694 134.251C202.771 133.148 202.847 132.046 202.923 130.943" stroke="var(--illustration-currentColor)" stroke-width="0.9" stroke-linecap="round" stroke-linejoin="round"/>
<path d="M198.931 136.149C198.928 136.149 198.928 136.152 198.926 136.152C197.448 136.823 196.454 138.29 195.97 139.84C195.485 141.39 195.453 143.041 195.421 144.666C195.041 163.966 194.659 183.265 194.276 202.563" stroke="var(--illustration-currentColor)" stroke-width="0.9" stroke-linecap="round" stroke-linejoin="round"/>
<path d="M202.217 135.553H202.223C203.024 135.547 203.724 136.162 204.068 136.887C204.365 137.636 204.517 138.435 204.516 139.241C205.748 159.946 205.848 180.702 204.814 201.418" stroke="var(--illustration-currentColor)" stroke-width="0.9" stroke-linecap="round" stroke-linejoin="round"/>
<path d="M211.004 148.966C212.251 149.161 213.502 149.337 214.757 149.496C215.987 149.656 217.22 149.796 218.453 149.92C220.698 150.146 222.945 150.319 225.196 150.439" stroke="var(--illustration-currentColor)" stroke-width="0.9" stroke-linecap="round" stroke-linejoin="round"/>
<path d="M210.764 148.988C210.534 152.679 210.708 156.385 211.283 160.039C211.491 161.365 211.792 162.764 212.721 163.733C213.523 164.569 214.7 164.966 215.858 165.046C217.019 165.08 218.179 164.971 219.312 164.721C220.977 164.425 222.844 163.997 223.709 162.542C224.154 161.797 224.247 160.902 224.33 160.039C224.636 156.889 224.941 153.737 225.246 150.585" stroke="var(--illustration-currentColor)" stroke-width="0.9" stroke-linecap="round" stroke-linejoin="round"/>
<path d="M218.467 149.776C218.582 148.761 218.685 147.678 218.222 146.767C217.758 145.856 216.499 145.278 215.679 145.888C215.109 146.314 214.979 147.102 214.907 147.811C214.848 148.372 214.798 148.934 214.757 149.496C214.525 152.552 214.524 155.621 214.754 158.677" stroke="var(--illustration-currentColor)" stroke-width="0.9" stroke-linecap="round" stroke-linejoin="round"/>
<path d="M146.438 183.17C146.387 191.727 149.835 199.719 155.822 205.83" stroke="var(--illustration-currentColor)" stroke-width="0.9" stroke-linecap="round" stroke-linejoin="round"/>
<path d="M197.398 202.43C196.246 209.738 196.296 217.186 197.544 224.48C197.544 224.493 197.546 224.506 197.549 224.519" stroke="var(--illustration-currentColor)" stroke-width="0.9" stroke-linecap="round" stroke-linejoin="round"/>
<path d="M61.0845 118.674C61.1745 118.709 61.2681 118.746 61.3587 118.778C67.563 121.164 74.0739 122.659 80.6976 123.218" stroke="var(--illustration-currentColor)" stroke-width="0.9" stroke-linecap="round" stroke-linejoin="round"/>
<path d="M87.8457 123.338C89.6988 123.353 91.5438 123.093 93.3207 122.568" stroke="var(--illustration-currentColor)" stroke-width="0.9" stroke-linecap="round" stroke-linejoin="round"/>
<path d="M203.107 92.6434C202.968 92.3854 202.763 92.1678 202.514 92.0133C202.265 91.8585 201.98 91.7721 201.687 91.7619C201.394 91.752 201.103 91.8189 200.844 91.9563C200.584 92.0937 200.366 92.2965 200.209 92.5446" stroke="var(--illustration-currentColor)" stroke-width="0.9" stroke-linecap="round" stroke-linejoin="round"/>
<path d="M208.238 93.3009C208.423 92.9946 208.685 92.743 208.999 92.5714C209.312 92.3998 209.666 92.3142 210.023 92.3238C210.381 92.3331 210.729 92.4372 211.033 92.6253C211.337 92.8134 211.586 93.0786 211.754 93.3942" stroke="var(--illustration-currentColor)" stroke-width="0.9" stroke-linecap="round" stroke-linejoin="round"/>
<path d="M256.313 127.565C253.854 133.69 253.675 140.494 255.809 146.739C257.942 152.985 262.246 158.258 267.938 161.598C270.688 163.212 273.929 164.556 275.318 167.425C276.594 170.061 275.886 173.222 274.769 175.93C273.973 177.861 272.928 179.777 271.251 181.022C269.573 182.268 267.135 182.679 265.389 181.532C263.643 180.385 263.203 177.476 264.852 176.192C265.16 175.937 265.532 175.771 265.927 175.714C266.323 175.656 266.726 175.709 267.094 175.866C267.806 176.224 268.183 177.209 267.754 177.882" stroke="var(--illustration-currentColor)" stroke-width="0.9" stroke-linecap="round" stroke-linejoin="round"/>
<path d="M240.421 217.995C243.042 217.846 245.582 217.025 247.793 215.611C250.005 214.196 251.815 212.235 253.049 209.917" stroke="var(--illustration-currentColor)" stroke-width="0.9" stroke-linecap="round" stroke-linejoin="round"/>
<path d="M110.881 221.027C117.573 224.408 126.162 223.627 132.135 219.095" stroke="var(--illustration-currentColor)" stroke-width="0.9" stroke-linecap="round" stroke-linejoin="round"/>
<path d="M118.331 227.306L123.999 226.346" stroke="var(--illustration-currentColor)" stroke-width="0.9" stroke-linecap="round" stroke-linejoin="round"/>
<path d="M114.956 183.034C116.492 182.109 118.246 181.611 120.038 181.589C121.831 181.567 123.597 182.023 125.156 182.909" stroke="var(--illustration-currentColor)" stroke-width="0.9" stroke-linecap="round" stroke-linejoin="round"/>
<path d="M38.8059 205.896C32.022 204.808 26.408 198.622 25.9805 191.766" stroke="var(--illustration-currentColor)" stroke-width="0.9" stroke-linecap="round" stroke-linejoin="round"/>
<path d="M17.1012 164.687C15.6002 163.546 14.352 162.105 13.4355 160.457" stroke="var(--illustration-currentColor)" stroke-width="0.9" stroke-linecap="round" stroke-linejoin="round"/>
<path d="M12 165.792L15.9486 161.282" stroke="var(--illustration-currentColor)" stroke-width="0.9" stroke-linecap="round" stroke-linejoin="round"/>
<path d="M18.3662 145.006C19.4234 142.675 23.4821 143.152 24.3341 145.565C25.1861 147.979 22.9982 150.758 20.4467 150.959C17.8952 151.16 15.4934 149.243 14.5847 146.85C13.676 144.457 14.0414 141.736 14.9879 139.357C16.3065 136.069 18.6485 133.292 21.6674 131.437C26.7596 128.329 33.905 127.642 36.7022 122.372C37.7294 120.437 37.9067 117.943 36.7082 116.108C35.5097 114.274 32.7689 113.474 30.9857 114.746C29.6195 115.721 29.1308 117.656 29.6258 119.259C30.1208 120.861 31.4609 122.117 33.002 122.782C36.3119 124.209 40.5779 122.826 42.422 119.729C44.3336 116.517 43.6136 112.48 43.511 108.744C43.4084 105.008 44.5775 100.524 48.1457 99.4104" stroke="var(--illustration-currentColor)" stroke-width="0.9" stroke-linecap="round" stroke-linejoin="round"/>
<path d="M61.3643 83.1976C61.3112 81.8917 61.6889 80.6047 62.4389 79.5346C63.1892 78.4642 64.2704 77.6704 65.516 77.2747" stroke="var(--illustration-currentColor)" stroke-width="0.9" stroke-linecap="round" stroke-linejoin="round"/>
<path d="M94.9365 66.2837C95.5644 64.3859 96.7254 62.7092 98.2809 61.4537" stroke="var(--illustration-currentColor)" stroke-width="0.9" stroke-linecap="round" stroke-linejoin="round"/>
<path d="M98.6441 65.37L92.9849 60.6" stroke="var(--illustration-currentColor)" stroke-width="0.9" stroke-linecap="round" stroke-linejoin="round"/>
<path d="M107.306 73.2948L110.4 71.0292" stroke="var(--illustration-currentColor)" stroke-width="0.9" stroke-linecap="round" stroke-linejoin="round"/>
<path d="M110.151 73.8931L107.895 70.2277" stroke="var(--illustration-currentColor)" stroke-width="0.9" stroke-linecap="round" stroke-linejoin="round"/>
<path d="M161.144 85.7265C161.47 84.096 161.338 82.407 160.764 80.8464C160.189 79.2858 159.194 77.9148 157.889 76.8846" stroke="var(--illustration-currentColor)" stroke-width="0.9" stroke-linecap="round" stroke-linejoin="round"/>
<path d="M164.948 81.7359L163.254 78.6354" stroke="var(--illustration-currentColor)" stroke-width="0.9" stroke-linecap="round" stroke-linejoin="round"/>
<path d="M220.4 66.5619L219.554 62.3319" stroke="var(--illustration-currentColor)" stroke-width="0.9" stroke-linecap="round" stroke-linejoin="round"/>
<path d="M217.58 65.1509L221.246 64.0229" stroke="var(--illustration-currentColor)" stroke-width="0.9" stroke-linecap="round" stroke-linejoin="round"/>
<path d="M228.845 76.1331L236.461 69.0867" stroke="var(--illustration-currentColor)" stroke-width="0.9" stroke-linecap="round" stroke-linejoin="round"/>
<path d="M235.075 75.5775L229.996 68.5308" stroke="var(--illustration-currentColor)" stroke-width="0.9" stroke-linecap="round" stroke-linejoin="round"/>
<path d="M251.363 106.643L247.684 101.86" stroke="var(--illustration-currentColor)" stroke-width="0.9" stroke-linecap="round" stroke-linejoin="round"/>
<path d="M246.905 106.319C248.902 105.306 250.566 103.74 251.699 101.808" stroke="var(--illustration-currentColor)" stroke-width="0.9" stroke-linecap="round" stroke-linejoin="round"/>
<path d="M190.665 145.297L188.533 142.541" stroke="var(--illustration-currentColor)" stroke-width="0.9" stroke-linecap="round" stroke-linejoin="round"/>
<path d="M206.472 129.178C208.739 128.584 210.954 127.809 213.096 126.86" stroke="var(--illustration-currentColor)" stroke-width="0.9" stroke-linecap="round" stroke-linejoin="round"/>
<path d="M196.809 129.378L195.932 128.877" stroke="var(--illustration-currentColor)" stroke-width="0.9" stroke-linecap="round" stroke-linejoin="round"/>
<path d="M212.71 139.388L215.656 136.568" stroke="var(--illustration-currentColor)" stroke-width="0.9" stroke-linecap="round" stroke-linejoin="round"/>
<path d="M229.425 140.969L227.745 138.414" stroke="var(--illustration-currentColor)" stroke-width="0.9" stroke-linecap="round" stroke-linejoin="round"/>
<path d="M239.097 155.743L241.947 152.457" stroke="var(--illustration-currentColor)" stroke-width="0.9" stroke-linecap="round" stroke-linejoin="round"/>
<path d="M235.404 167.352L233.536 163.586" stroke="var(--illustration-currentColor)" stroke-width="0.9" stroke-linecap="round" stroke-linejoin="round"/>
<path d="M213.713 178.869L216.072 175.595" stroke="var(--illustration-currentColor)" stroke-width="0.9" stroke-linecap="round" stroke-linejoin="round"/>
<path d="M219.231 186.402L218.229 183.519" stroke="var(--illustration-currentColor)" stroke-width="0.9" stroke-linecap="round" stroke-linejoin="round"/>
<path d="M183.184 196.954L185.837 193.839L185.657 194.043" stroke="var(--illustration-currentColor)" stroke-width="0.9" stroke-linecap="round" stroke-linejoin="round"/>
<path d="M186.404 179.759L184.148 176.375" stroke="var(--illustration-currentColor)" stroke-width="0.9" stroke-linecap="round" stroke-linejoin="round"/>
<path d="M188.469 165.899L190.845 163.387" stroke="var(--illustration-currentColor)" stroke-width="0.9" stroke-linecap="round" stroke-linejoin="round"/>
<path d="M172.374 166.47C171.686 165.935 171.191 165.192 170.96 164.351" stroke="var(--illustration-currentColor)" stroke-width="0.9" stroke-linecap="round" stroke-linejoin="round"/>
<path d="M170.097 180.622L172.477 176.861" stroke="var(--illustration-currentColor)" stroke-width="0.9" stroke-linecap="round" stroke-linejoin="round"/>
<path d="M160.551 193.684L159.254 190.444" stroke="var(--illustration-currentColor)" stroke-width="0.9" stroke-linecap="round" stroke-linejoin="round"/>
<path d="M153.714 183.542C154.608 183.044 155.569 182.676 156.567 182.449" stroke="var(--illustration-currentColor)" stroke-width="0.9" stroke-linecap="round" stroke-linejoin="round"/>
<path d="M241.789 180.837L245.719 178.179" stroke="var(--illustration-currentColor)" stroke-width="0.9" stroke-linecap="round" stroke-linejoin="round"/>
<path d="M232.026 192.606L232.303 187.702" stroke="var(--illustration-currentColor)" stroke-width="0.9" stroke-linecap="round" stroke-linejoin="round"/>
<path d="M245.839 193.352L246.016 190.156" stroke="var(--illustration-currentColor)" stroke-width="0.9" stroke-linecap="round" stroke-linejoin="round"/>
<path d="M229.14 203.712L233.088 204.083" stroke="var(--illustration-currentColor)" stroke-width="0.9" stroke-linecap="round" stroke-linejoin="round"/>
<path d="M213.338 208.577L214.086 205.193" stroke="var(--illustration-currentColor)" stroke-width="0.9" stroke-linecap="round" stroke-linejoin="round"/>
<path d="M204.33 216.069L207.338 216.245" stroke="var(--illustration-currentColor)" stroke-width="0.9" stroke-linecap="round" stroke-linejoin="round"/>
<path d="M267.208 154.536L268.053 150.589" stroke="var(--illustration-currentColor)" stroke-width="0.9" stroke-linecap="round" stroke-linejoin="round"/>
<path d="M269.181 153.127C267.991 153.228 266.801 152.93 265.797 152.281" stroke="var(--illustration-currentColor)" stroke-width="0.9" stroke-linecap="round" stroke-linejoin="round"/>
<path d="M131.196 160.806C135.095 159.563 138.515 157.146 140.988 153.885" stroke="var(--illustration-currentColor)" stroke-width="0.9" stroke-linecap="round" stroke-linejoin="round"/>
<path d="M66.6018 134.892L63.069 133.012C63.069 133.012 62.4663 135.268 62.4663 135.644C62.4663 136.02 66.6018 134.892 66.6018 134.892Z" stroke="var(--illustration-currentColor)" stroke-width="0.9" stroke-linecap="round" stroke-linejoin="round"/>
<path d="M51.1879 157.951L47.5537 160.294L52.9426 162.572L51.1879 157.951Z" stroke="var(--illustration-currentColor)" stroke-width="0.9" stroke-linecap="round" stroke-linejoin="round"/>
<path d="M45.2981 137.557L41.1626 139.529L45.2981 142.537V137.557Z" stroke="var(--illustration-currentColor)" stroke-width="0.9" stroke-linecap="round" stroke-linejoin="round"/>
<path d="M74.8977 160.457L70.8906 161.836L73.4949 165.411L74.8977 160.457Z" stroke="var(--illustration-currentColor)" stroke-width="0.9" stroke-linecap="round" stroke-linejoin="round"/>
<path d="M120.141 145.67L115.94 150.973H121.408L120.141 145.67Z" stroke="var(--illustration-currentColor)" stroke-width="0.9" stroke-linecap="round" stroke-linejoin="round"/>
<path d="M142.922 127.274L147.809 127.561L145.804 131.932L142.922 127.274Z" stroke="var(--illustration-currentColor)" stroke-width="0.9" stroke-linecap="round" stroke-linejoin="round"/>
<path d="M133.398 133.012L133.899 135.721L129.708 134.892L133.398 133.012Z" stroke="var(--illustration-currentColor)" stroke-width="0.9" stroke-linecap="round" stroke-linejoin="round"/>
<path d="M97.4308 191.765L99.349 195.672H91.165L97.4308 191.765Z" stroke="var(--illustration-currentColor)" stroke-width="0.9" stroke-linecap="round" stroke-linejoin="round"/>
<path d="M68.1369 201.644L65.0985 194.5L61.5894 199.984L68.1369 201.644Z" stroke="var(--illustration-currentColor)" stroke-width="0.9" stroke-linecap="round" stroke-linejoin="round"/>
<path d="M49.3082 180.622L45.9248 185.755L44.4209 180.622H49.3082Z" stroke="var(--illustration-currentColor)" stroke-width="0.9" stroke-linecap="round" stroke-linejoin="round"/>
<path d="M95.2568 171.611L92.2925 174.368L96.1628 176.375L95.2568 171.611Z" stroke="var(--illustration-currentColor)" stroke-width="0.9" stroke-linecap="round" stroke-linejoin="round"/>
<g opacity="0.1">
<path d="M93.8447 81.0003C89.3489 80.1105 84.5129 80.337 79.9448 80.4954C76.2065 80.625 73.1948 82.2264 72.9122 86.2821C72.7622 88.4385 72.9788 90.6555 73.0193 92.8158C73.0664 95.3136 73.0265 97.8111 72.8993 100.308C72.6836 105.167 72.2138 110.011 71.4914 114.82C71.2247 116.515 73.7459 117.292 74.1221 115.545C75.9323 107.141 76.7885 98.5305 76.1132 89.9352C75.9866 88.3242 75.2732 85.686 76.3937 84.2859C77.3744 83.0595 79.3622 83.088 80.7773 83.0454C85.1363 82.914 89.5691 83.1567 93.845 82.1934C94.4255 82.0626 94.445 81.1188 93.845 81.0003H93.8447Z" fill="var(--illustration-currentColor)"/>
</g>
<g opacity="0.1">
<path d="M69.0917 115.883C66.4193 116.851 63.9017 118.3 61.4051 119.656C60.1244 120.351 58.8377 120.858 57.602 121.646C56.3303 122.457 55.0598 123.271 53.7905 124.086C49.286 126.978 44.738 130.001 41.2928 134.162C34.8329 141.964 31.5278 152.375 31.1591 162.413C30.8042 172.081 33.2108 182.145 38.8655 190.093C44.9297 198.618 53.9855 204.156 63.6488 207.778C75.833 212.291 88.8545 214.094 101.807 213.062C103.268 212.947 104.521 211.896 104.521 210.348C104.521 208.964 103.276 207.523 101.807 207.633C91.1252 208.456 80.3843 207.268 70.1405 204.133C61.157 201.366 52.2947 197.095 45.911 190.019C40.0019 183.468 37.0337 174.648 36.6959 165.918C36.3473 156.908 38.4452 147.445 43.3622 139.824C46.3922 135.128 50.6909 131.767 55.2449 128.64C57.698 126.956 60.3398 125.426 62.5193 123.403C64.8536 121.237 67.6832 119.648 70.0223 117.482C70.7003 116.854 69.9977 115.556 69.0923 115.884L69.0917 115.883Z" fill="var(--illustration-currentColor)"/>
</g>
<g opacity="0.1">
<path d="M196.478 124.436C197.713 127.541 193.488 128.786 191.243 128.869C188.234 128.977 185.303 129.658 182.735 131.293C177.393 134.697 174.466 140.661 172.685 146.532C170.763 152.868 170.047 159.776 166.603 165.55C163.855 170.158 159.346 173.265 155.04 176.286C152.56 178.026 150.072 179.776 147.789 181.772C145.61 183.676 142.679 186.272 142.152 189.238C141.775 191.361 143.965 192.538 145.607 191.248C146.689 190.399 147.42 189.205 148.325 188.17C149.241 187.133 150.226 186.16 151.274 185.256C153.351 183.443 155.628 181.884 157.883 180.306C162.511 177.066 167.171 173.716 170.333 168.936C174.299 162.936 175.274 155.674 177.095 148.873C178.659 143.032 181.26 137.025 186.918 134.111C189.93 132.561 193.854 132.99 196.615 130.909C198.905 129.183 200.101 125.83 198.148 123.465C197.529 122.715 196.115 123.52 196.479 124.436H196.478Z" fill="var(--illustration-currentColor)"/>
</g>
<g opacity="0.1">
<path d="M185.392 144.714C183.436 145.843 183.243 148.941 182.752 150.934C182.145 153.401 181.67 155.904 181.222 158.406C180.342 163.339 179.668 168.317 179.048 173.289C178.429 178.248 177.919 183.22 177.518 188.203C177.314 190.743 177.138 193.285 176.991 195.828C176.923 197.002 176.861 198.176 176.805 199.351C176.741 200.701 176.485 202.178 176.961 203.461C177.545 205.04 180.134 205.88 180.996 203.988C182.014 201.752 181.677 198.85 181.807 196.414C181.939 193.968 182.096 191.524 182.28 189.081C182.655 184.099 183.139 179.126 183.732 174.163C184.312 169.313 185.049 164.491 185.795 159.665C186.185 157.141 186.607 154.62 186.948 152.088C187.218 150.078 188.335 146.922 187.026 145.141C186.861 144.873 186.599 144.679 186.295 144.6C185.99 144.52 185.667 144.56 185.391 144.712L185.392 144.714Z" fill="var(--illustration-currentColor)"/>
</g>
<g opacity="0.1">
<path d="M190.01 208.074C190.935 207.942 191.812 207.482 192.695 207.182C193.84 206.806 195.004 206.493 196.182 206.244C198.735 205.681 201.379 205.731 203.978 205.607C208.776 205.413 213.477 204.2 217.769 202.046C221.966 199.911 225.642 196.879 228.535 193.163C231.428 189.449 233.468 185.142 234.509 180.55C235.112 177.867 235.383 175.121 235.315 172.372C235.235 169.628 235.117 166.304 233.354 164.089C232.376 162.859 229.964 163.51 229.712 165.051C229.342 167.308 230.162 169.609 230.269 171.884C230.614 178.568 228.544 185.153 224.437 190.438C221.754 193.763 218.357 196.441 214.497 198.274C210.308 200.291 205.968 200.778 201.387 201.008C198.622 201.147 195.699 201.358 193.205 202.67C191.472 203.581 189.211 205.346 189.297 207.532C189.3 207.618 189.321 207.702 189.36 207.779C189.399 207.855 189.455 207.922 189.523 207.974C189.592 208.026 189.671 208.062 189.755 208.08C189.839 208.097 189.926 208.095 190.01 208.074Z" fill="var(--illustration-currentColor)"/>
</g>
<defs>
<linearGradient id="paint0_linear_28_12828" x1="199.899" y1="135.553" x2="199.899" y2="202.635" gradientUnits="userSpaceOnUse">
<stop stop-color="#FF9A34"/>
<stop offset="1" stop-color="#EB6421"/>
</linearGradient>
<linearGradient id="paint1_linear_28_12828" x1="68.1361" y1="118.779" x2="68.1361" y2="214.478" gradientUnits="userSpaceOnUse">
<stop stop-color="#FF9A34"/>
<stop offset="1" stop-color="#EB6421"/>
</linearGradient>
<linearGradient id="paint2_linear_28_12828" x1="201.201" y1="124.434" x2="201.201" y2="130.806" gradientUnits="userSpaceOnUse">
<stop stop-color="#FF9A34"/>
<stop offset="1" stop-color="#EB6421"/>
</linearGradient>
<linearGradient id="paint3_linear_28_12828" x1="200.838" y1="130.754" x2="200.838" y2="136.21" gradientUnits="userSpaceOnUse">
<stop stop-color="#FF9A34"/>
<stop offset="1" stop-color="#EB6421"/>
</linearGradient>
<linearGradient id="paint4_linear_28_12828" x1="125.346" y1="103.569" x2="125.346" y2="160.297" gradientUnits="userSpaceOnUse">
<stop stop-color="#FF9A34"/>
<stop offset="1" stop-color="#EB6421"/>
</linearGradient>
<linearGradient id="paint5_linear_28_12828" x1="93.3223" y1="122.541" x2="93.3223" y2="187.668" gradientUnits="userSpaceOnUse">
<stop stop-color="#FF9A34"/>
<stop offset="1" stop-color="#EB6421"/>
</linearGradient>
<linearGradient id="paint6_linear_28_12828" x1="90.6725" y1="117.524" x2="90.6725" y2="123.338" gradientUnits="userSpaceOnUse">
<stop stop-color="#FF9A34"/>
<stop offset="1" stop-color="#EB6421"/>
</linearGradient>
<linearGradient id="paint7_linear_28_12828" x1="71.1896" y1="116.636" x2="71.1896" y2="123.218" gradientUnits="userSpaceOnUse">
<stop stop-color="#FF9A34"/>
<stop offset="1" stop-color="#EB6421"/>
</linearGradient>
</defs>
</svg>
