<svg width="288" height="288" viewBox="0 0 288 288" fill="none" xmlns="http://www.w3.org/2000/svg">
<mask id="mask0_28_12820" style="mask-type:luminance" maskUnits="userSpaceOnUse" x="11" y="33" width="266" height="222">
<path d="M276.6 33.8999H11.3999V254.4H276.6V33.8999Z" fill="white"/>
</mask>
<g mask="url(#mask0_28_12820)">
<path d="M236.619 168.348C236.255 171.612 235.032 177.149 230.889 177.226C225.012 177.336 231.136 151.458 231.136 151.458C232.832 151.656 234.299 151.828 235.203 151.934C238.926 152.365 238.116 150.639 238.116 150.639C238.116 150.639 238.333 141.633 238.547 137.642C238.761 133.651 235.635 133.599 235.635 133.599L234.342 133.534V133.531C234.342 133.531 237.728 125.124 244.564 126.42C250.933 127.624 244.641 141.064 244.641 141.064C244.641 141.064 251.331 153.282 249.066 156.088C246.801 158.893 243.672 156.301 243.672 156.301C243.672 156.301 244.752 174.961 240.111 176.147C236.838 176.984 236.521 171.597 236.619 168.347C236.769 166.978 236.769 166.009 236.769 166.009C236.769 166.009 236.658 166.991 236.619 168.348Z" fill="#171717"/>
<path d="M182.515 108.558C182.515 108.326 182.561 108.097 182.649 107.883C182.738 107.669 182.868 107.474 183.031 107.311C183.195 107.147 183.39 107.017 183.604 106.929C183.818 106.84 184.047 106.794 184.279 106.794H200.384C200.851 106.795 201.3 106.98 201.63 107.311C201.961 107.642 202.147 108.09 202.147 108.558V125.742C202.147 125.973 202.192 126.202 202.28 126.416C202.369 126.63 202.498 126.824 202.662 126.988C202.825 127.152 203.019 127.282 203.233 127.371C203.447 127.459 203.676 127.505 203.907 127.505H206.208C206.675 127.505 207.123 127.691 207.453 128.021C207.783 128.351 207.969 128.798 207.969 129.265V149.254C207.969 149.486 207.924 149.715 207.835 149.929C207.747 150.143 207.617 150.337 207.454 150.501C207.29 150.664 207.096 150.794 206.882 150.883C206.669 150.972 206.44 151.017 206.208 151.017H203.508C203.274 151.017 203.043 151.064 202.827 151.155C202.611 151.245 202.416 151.378 202.252 151.545C202.088 151.712 201.959 151.91 201.872 152.128C201.786 152.345 201.744 152.578 201.748 152.811L202.115 173.541C202.118 173.78 202.073 174.017 201.983 174.238C201.892 174.459 201.757 174.659 201.587 174.826C201.417 174.994 201.214 175.125 200.992 175.212C200.77 175.299 200.532 175.34 200.293 175.332L192.65 175.082L184.222 174.804C183.765 174.789 183.331 174.597 183.013 174.269C182.695 173.94 182.517 173.501 182.517 173.043V161.733L153.274 163.563L145.7 136.71V122.184L182.515 120.458V108.558Z" fill="url(#paint0_linear_28_12820)"/>
<path d="M58.6926 216.379C58.2279 218.536 58.8789 220.412 60.2847 221.968V221.971C60.2358 222.219 57.5739 236.09 61.1373 237.233C64.7343 238.382 84.8673 242.553 89.7573 238.526C94.6473 234.498 94.5033 231.161 92.9202 231.106C91.3371 231.051 77.9421 227.219 77.9421 227.219C78.8637 227.176 79.7829 227.085 80.6955 226.949C84.3171 226.412 91.4355 218.799 99.0897 209.234H135.217C136.513 217.064 137.509 223.264 137.647 224.575C137.993 227.86 142.076 228.098 143.686 228.062V228.065C143.686 228.065 140.092 235.219 145.126 237.951C150.16 240.683 166.986 246.578 172.594 243.989C178.201 241.401 180.79 237.767 178.489 236.35C176.188 234.932 164.254 233.923 163.102 232.056C161.95 230.189 162.93 225.739 162.93 225.739V225.736C164.318 225.487 165.676 225.098 166.986 224.575C171.732 222.42 169.143 219.832 169.143 219.832L166.154 209.234H192.51C192.626 222.732 193.033 235.106 194.127 235.185C196.535 235.362 214.871 237.596 214.227 235.185C214.074 234.617 213.573 234.22 212.897 233.942C216.454 234.143 220.253 234.146 220.482 233.278C220.696 232.459 217.659 231.925 214.529 231.591C217.209 231.714 219.685 231.689 219.617 231.191C219.489 230.231 210.651 229.556 208.705 229.418C210.517 229.541 218.251 230.012 218.251 229.25C218.251 228.389 203.296 226.806 203.296 226.806L202.606 209.234H227.24L276.135 253.912H12.1377L45.7533 209.234H62.5308C60.3336 212.702 58.9431 215.224 58.6926 216.379Z" fill="url(#paint1_linear_28_12820)"/>
<path d="M182.515 124.052V108.558C182.515 108.326 182.56 108.097 182.649 107.883C182.737 107.669 182.867 107.474 183.031 107.311C183.195 107.147 183.389 107.017 183.603 106.929C183.817 106.84 184.047 106.794 184.278 106.794H200.383C200.851 106.795 201.299 106.98 201.63 107.311C201.961 107.642 202.146 108.09 202.147 108.558V125.742C202.146 125.973 202.192 126.202 202.28 126.416C202.368 126.63 202.498 126.824 202.661 126.988C202.825 127.152 203.019 127.282 203.233 127.371C203.446 127.459 203.676 127.505 203.907 127.505H206.208C206.675 127.505 207.122 127.691 207.452 128.021C207.783 128.351 207.968 128.798 207.968 129.265V149.254C207.969 149.486 207.923 149.715 207.835 149.929C207.746 150.143 207.617 150.337 207.453 150.501C207.29 150.664 207.096 150.794 206.882 150.883C206.668 150.972 206.439 151.017 206.208 151.017H203.508C203.274 151.017 203.042 151.064 202.826 151.155C202.611 151.245 202.415 151.378 202.251 151.545C202.087 151.712 201.958 151.91 201.872 152.128C201.786 152.345 201.743 152.578 201.748 152.811L202.114 173.541C202.118 173.78 202.073 174.017 201.982 174.238C201.892 174.459 201.757 174.659 201.587 174.826C201.417 174.994 201.214 175.125 200.992 175.212C200.769 175.299 200.532 175.34 200.293 175.332L192.65 175.082L184.222 174.804C183.765 174.789 183.331 174.597 183.013 174.269C182.695 173.94 182.517 173.501 182.517 173.043V157.491" stroke="#171717" stroke-width="0.9" stroke-linecap="round" stroke-linejoin="round"/>
<path d="M60.2846 221.97C58.8788 220.414 58.2278 218.538 58.6925 216.38C58.943 215.225 60.3335 212.704 62.5307 209.236C75.5279 188.718 116.723 135.055 116.723 135.055C116.723 135.055 124.393 121.996 135.813 122.112C136.713 122.122 145.699 122.186 145.699 122.186" stroke="#171717" stroke-width="0.9" stroke-linecap="round" stroke-linejoin="round"/>
<path d="M182.515 120.457L145.7 122.184V136.709L153.273 163.562L166.153 209.234L169.142 219.832C169.142 219.832 171.731 222.421 166.985 224.575C165.675 225.098 164.317 225.488 162.929 225.737C155.928 227.188 144.334 228.029 144.334 228.029C144.334 228.029 144.086 228.053 143.686 228.062C142.075 228.099 137.993 227.86 137.647 224.575C137.51 223.264 136.513 217.064 135.217 209.234C132.464 192.56 128.37 168.491 128.37 168.491C128.37 168.491 112.86 192.023 99.0902 209.234C91.4348 218.799 84.3176 226.412 80.696 226.949C79.7834 227.085 78.8645 227.176 77.9426 227.219C71.1491 227.562 63.6131 225.661 60.2852 221.972" stroke="#171717" stroke-width="0.9" stroke-linecap="round" stroke-linejoin="round"/>
<path d="M182.515 161.732L153.272 163.563" stroke="#171717" stroke-width="0.9" stroke-linecap="round" stroke-linejoin="round"/>
<path d="M207.969 132.196L234.342 133.534L235.634 133.598C235.634 133.598 238.764 133.653 238.547 137.641C238.33 141.63 238.116 150.638 238.116 150.638C238.116 150.638 238.926 152.365 235.203 151.934C234.299 151.827 232.833 151.656 231.136 151.457C225.858 150.834 218.326 149.939 218.326 149.939C218.326 149.939 214.928 149.832 214.766 147.188C214.604 144.545 215.145 143.897 213.632 143.466C212.12 143.035 207.97 143.09 207.97 143.09" stroke="#171717" stroke-width="0.9" stroke-linecap="round" stroke-linejoin="round"/>
<path d="M216.653 140.23C216.653 140.23 215.196 137.751 216.653 136.725" stroke="#171717" stroke-width="0.9" stroke-linecap="round" stroke-linejoin="round"/>
<path d="M234.342 148.481L233.963 142.1L222.909 142.821V140.502" stroke="#171717" stroke-width="0.9" stroke-linecap="round" stroke-linejoin="round"/>
<path d="M230.19 148.481C230.19 148.481 227.547 146.795 230.19 144.915" stroke="#171717" stroke-width="0.9" stroke-linecap="round" stroke-linejoin="round"/>
<path d="M230.889 139.099C230.889 139.099 228.841 137.158 230.889 136.404" stroke="#171717" stroke-width="0.9" stroke-linecap="round" stroke-linejoin="round"/>
<path d="M236.619 168.348C236.521 171.596 236.838 176.984 240.111 176.148C244.75 174.962 243.671 156.302 243.671 156.302C243.671 156.302 246.798 158.891 249.066 156.088C251.333 153.286 244.641 141.065 244.641 141.065C244.641 141.065 250.933 127.625 244.564 126.421C237.728 125.125 234.342 133.532 234.342 133.532" stroke="#171717" stroke-width="0.9" stroke-linecap="round" stroke-linejoin="round"/>
<path d="M236.619 168.348C236.769 166.979 236.769 166.01 236.769 166.01C236.769 166.01 236.658 166.991 236.619 168.348Z" stroke="#171717" stroke-width="0.9" stroke-linecap="round" stroke-linejoin="round"/>
<path d="M231.136 151.458C231.136 151.458 225.012 177.336 230.889 177.226C235.032 177.149 236.255 171.612 236.619 168.348" stroke="#171717" stroke-width="0.9" stroke-linecap="round" stroke-linejoin="round"/>
<path d="M193.767 47.6883C193.768 47.6784 193.769 47.6682 193.77 47.6583V47.6553C193.822 46.9218 194.675 34.533 192.581 34.6398C190.424 34.7469 190.641 48.1197 190.641 48.1197C190.641 48.1197 189.021 36.5805 186.651 37.0113C184.281 37.4421 188.237 50.916 189.78 55.2402C193.661 66.1302 195.064 98.7057 193.23 106.364" stroke="#171717" stroke-width="0.9" stroke-linecap="round" stroke-linejoin="round"/>
<path d="M200.347 106.795L198.3 55.2399C198.3 55.2399 205.848 49.1982 204.662 47.2578C203.477 45.3174 197.759 50.1702 197.759 50.1702C197.759 50.1702 200.459 37.011 197.759 37.011C195.152 37.011 193.853 47.004 193.771 47.655" stroke="#171717" stroke-width="0.9" stroke-linecap="round" stroke-linejoin="round"/>
<path d="M143.685 228.065C143.685 228.065 140.092 235.219 145.125 237.952C150.159 240.684 166.985 246.578 172.593 243.99C178.201 241.402 180.789 237.768 178.488 236.35C176.187 234.932 164.253 233.924 163.101 232.057C161.949 230.189 162.929 225.74 162.929 225.74" stroke="#171717" stroke-width="0.9" stroke-linecap="round" stroke-linejoin="round"/>
<path d="M60.2847 221.97V221.973C60.2358 222.221 57.5739 236.092 61.1373 237.235C64.7343 238.384 84.8673 242.555 89.7573 238.528C94.6473 234.5 94.5033 231.163 92.9202 231.108C91.3371 231.053 77.9421 227.22 77.9421 227.22" stroke="#171717" stroke-width="0.9" stroke-linecap="round" stroke-linejoin="round"/>
<path d="M208.329 229.394C208.329 229.394 208.344 229.394 208.372 229.397C208.381 229.397 208.39 229.398 208.399 229.4C208.421 229.4 208.445 229.404 208.476 229.404C208.524 229.407 208.589 229.413 208.662 229.416C208.676 229.418 208.69 229.419 208.705 229.419C210.517 229.541 218.252 230.012 218.252 229.251C218.252 228.389 203.296 226.806 203.296 226.806L202.606 209.234L201.26 175.08" stroke="#171717" stroke-width="0.9" stroke-linecap="round" stroke-linejoin="round"/>
<path d="M214.53 231.592C217.21 231.715 219.685 231.69 219.618 231.192C219.49 230.232 210.652 229.557 208.705 229.419" stroke="#171717" stroke-width="0.9" stroke-linecap="round" stroke-linejoin="round"/>
<path d="M214.53 231.592C211.333 231.25 208.042 231.121 208.042 231.121C208.042 231.121 211.422 231.451 214.53 231.592Z" stroke="#171717" stroke-width="0.9" stroke-linecap="round" stroke-linejoin="round"/>
<path d="M212.898 233.942C216.455 234.143 220.254 234.146 220.483 233.278C220.697 232.459 217.659 231.925 214.53 231.592" stroke="#171717" stroke-width="0.9" stroke-linecap="round" stroke-linejoin="round"/>
<path d="M212.895 233.942C210.705 233.042 206.676 233.422 206.676 233.422C206.676 233.422 209.686 233.761 212.895 233.942Z" stroke="#171717" stroke-width="0.9" stroke-linecap="round" stroke-linejoin="round"/>
<path d="M212.895 233.942H212.898" stroke="#171717" stroke-width="0.9" stroke-linecap="round" stroke-linejoin="round"/>
<path d="M192.648 175.08C192.648 175.08 192.37 192.972 192.511 209.233C192.627 222.732 193.034 235.105 194.128 235.185C196.536 235.362 214.872 237.596 214.228 235.185C214.075 234.616 213.574 234.219 212.898 233.941" stroke="#171717" stroke-width="0.9" stroke-linecap="round" stroke-linejoin="round"/>
<path d="M202.605 209.234H227.239L276.135 253.912H12.1377L45.7533 209.234H62.5308H62.5338" stroke="#171717" stroke-width="0.9" stroke-linecap="round" stroke-linejoin="round"/>
<path d="M166.153 209.234H192.511" stroke="#171717" stroke-width="0.9" stroke-linecap="round" stroke-linejoin="round"/>
<path d="M99.0898 209.234H135.218" stroke="#171717" stroke-width="0.9" stroke-linecap="round" stroke-linejoin="round"/>
<path d="M182.802 112.616L202.073 112.884" stroke="#171717" stroke-width="0.9" stroke-linecap="round" stroke-linejoin="round"/>
<path d="M182.666 169.38L201.926 170.422" stroke="#171717" stroke-width="0.9" stroke-linecap="round" stroke-linejoin="round"/>
<path d="M207.973 138.403L146.85 139.142" stroke="#171717" stroke-width="0.9" stroke-linecap="round" stroke-linejoin="round"/>
<path d="M203.366 135.404L206.246 135" stroke="#171717" stroke-width="0.9" stroke-linecap="round" stroke-linejoin="round"/>
<path d="M203.657 131.41L205.958 131.272" stroke="#171717" stroke-width="0.9" stroke-linecap="round" stroke-linejoin="round"/>
<path d="M203.656 141.604L205.813 141.46" stroke="#171717" stroke-width="0.9" stroke-linecap="round" stroke-linejoin="round"/>
<path d="M203.657 146.223L205.528 146.094" stroke="#171717" stroke-width="0.9" stroke-linecap="round" stroke-linejoin="round"/>
<path d="M190.415 159.85L192.859 157.835" stroke="#171717" stroke-width="0.9" stroke-linecap="round" stroke-linejoin="round"/>
<path d="M189.403 147.363L187.276 144.892" stroke="#171717" stroke-width="0.9" stroke-linecap="round" stroke-linejoin="round"/>
<path d="M173.167 156.266C173.6 155.444 174.186 154.712 174.893 154.109" stroke="#171717" stroke-width="0.9" stroke-linecap="round" stroke-linejoin="round"/>
<path d="M173.43 145.515L171.583 144.189" stroke="#171717" stroke-width="0.9" stroke-linecap="round" stroke-linejoin="round"/>
<path d="M159.218 154.972L161.087 152.959" stroke="#171717" stroke-width="0.9" stroke-linecap="round" stroke-linejoin="round"/>
<path d="M157.497 144.895L155.487 143.88" stroke="#171717" stroke-width="0.9" stroke-linecap="round" stroke-linejoin="round"/>
<path d="M156.75 134.672L158.91 132.517" stroke="#171717" stroke-width="0.9" stroke-linecap="round" stroke-linejoin="round"/>
<path d="M169.155 128.352L166.768 125.993" stroke="#171717" stroke-width="0.9" stroke-linecap="round" stroke-linejoin="round"/>
<path d="M174.744 135.409L176.61 133.393" stroke="#171717" stroke-width="0.9" stroke-linecap="round" stroke-linejoin="round"/>
<path d="M187.532 129.679L185.812 128.091" stroke="#171717" stroke-width="0.9" stroke-linecap="round" stroke-linejoin="round"/>
<path d="M195.171 133.976L197.759 131.243" stroke="#171717" stroke-width="0.9" stroke-linecap="round" stroke-linejoin="round"/>
<path d="M195.073 121.695L193.339 120.268" stroke="#171717" stroke-width="0.9" stroke-linecap="round" stroke-linejoin="round"/>
<path d="M186.254 118.156L187.692 116.287" stroke="#171717" stroke-width="0.9" stroke-linecap="round" stroke-linejoin="round"/>
<path d="M87.2999 229.717C84.6527 230.653 82.3259 232.321 80.5898 234.528L80.9852 234.212" stroke="#171717" stroke-width="0.9" stroke-linecap="round" stroke-linejoin="round"/>
<path d="M80.4037 228.013C77.9077 228.858 75.7459 230.477 74.2324 232.635" stroke="#171717" stroke-width="0.9" stroke-linecap="round" stroke-linejoin="round"/>
<path d="M170.135 234.36C168.613 234.499 167.136 234.952 165.797 235.691C164.459 236.429 163.287 237.436 162.357 238.65" stroke="#171717" stroke-width="0.9" stroke-linecap="round" stroke-linejoin="round"/>
<path d="M163.244 232.342C162.117 232.412 161.03 232.783 160.095 233.416C159.161 234.049 158.413 234.921 157.931 235.942" stroke="#171717" stroke-width="0.9" stroke-linecap="round" stroke-linejoin="round"/>
<path d="M113.621 129.592C115.49 127.342 117.369 125.078 119.568 123.148C121.768 121.217 124.32 119.617 127.158 118.899" stroke="#171717" stroke-width="0.9" stroke-linecap="round" stroke-linejoin="round"/>
<path d="M131.856 64.4493C132.912 61.1604 137.156 59.6031 140.379 60.8448C143.602 62.0865 145.65 65.49 146.008 68.9241C146.365 72.3582 145.275 75.8007 143.722 78.8841C141.693 82.9125 138.645 86.6841 134.427 88.2819C130.21 89.8797 124.731 88.6512 122.547 84.7044C121.531 82.8672 121.491 80.2086 123.203 78.9921C124.285 78.2229 125.809 78.2628 126.987 78.8751C128.166 79.4874 129.027 80.5917 129.6 81.7899C131.568 85.9038 130.031 91.365 126.207 93.8499C123.432 95.6523 119.918 95.8848 116.624 95.5737C113.331 95.2626 110.082 94.4652 106.773 94.4169C97.7179 94.2846 88.9069 100.411 85.8784 108.946C85.0918 111.163 84.682 113.668 85.6039 115.832C86.0554 116.892 86.7991 117.801 87.7486 118.453C88.6981 119.104 89.8135 119.472 90.9643 119.513C92.1151 119.554 93.2539 119.266 94.2472 118.683C95.2402 118.1 96.0466 117.246 96.5719 116.221C97.0942 115.202 97.3138 113.972 96.9019 112.905C96.49 111.837 95.3326 111.028 94.2094 111.248" stroke="#171717" stroke-width="0.9" stroke-linecap="round" stroke-linejoin="round"/>
<path d="M116.797 74.4382L117.053 70.5532" stroke="#171717" stroke-width="0.9" stroke-linecap="round" stroke-linejoin="round"/>
<path d="M114.924 72.8556C115.984 72.4725 117.104 72.2778 118.231 72.2805" stroke="#171717" stroke-width="0.9" stroke-linecap="round" stroke-linejoin="round"/>
<path d="M92.0462 135.996L89.4839 131.522" stroke="#171717" stroke-width="0.9" stroke-linecap="round" stroke-linejoin="round"/>
<path d="M88.4785 135.435L92.2285 132.573" stroke="#171717" stroke-width="0.9" stroke-linecap="round" stroke-linejoin="round"/>
<path d="M250.521 161.691C251.716 161.163 252.736 160.308 253.465 159.224C254.193 158.14 254.6 156.872 254.638 155.567L254.998 155.547" stroke="#171717" stroke-width="0.9" stroke-linecap="round" stroke-linejoin="round"/>
<path d="M258.926 148.278C259.578 149.697 261.316 150.425 262.856 150.16C264.397 149.896 265.699 148.79 266.494 147.446C267.063 146.558 267.321 145.506 267.226 144.455C267.087 143.418 266.4 142.42 265.401 142.111C263.915 141.65 262.295 142.917 261.967 144.438C261.638 145.958 262.315 147.54 263.295 148.748C264.274 149.957 265.542 150.892 266.669 151.963C268.766 153.958 270.433 156.607 270.509 159.5C270.585 162.393 268.677 165.433 265.832 165.96C265.334 166.07 264.819 166.074 264.32 165.971C263.821 165.867 263.349 165.659 262.937 165.36C262.144 164.723 261.763 163.539 262.224 162.633C262.686 161.726 264.061 161.378 264.791 162.085" stroke="#171717" stroke-width="0.9" stroke-linecap="round" stroke-linejoin="round"/>
<path d="M248.643 185.734L247.98 180.136" stroke="#171717" stroke-width="0.9" stroke-linecap="round" stroke-linejoin="round"/>
<path d="M246.09 183.763L251.073 182.272L251.415 182.004" stroke="#171717" stroke-width="0.9" stroke-linecap="round" stroke-linejoin="round"/>
<path d="M218.918 161.896C213.725 166.281 211.666 174.018 213.993 180.406C214.723 182.409 216.269 184.523 218.4 184.429C220.041 184.356 221.43 182.719 221.264 181.085C221.148 180.27 220.727 179.53 220.087 179.011C219.447 178.494 218.635 178.237 217.814 178.293C216.998 178.406 216.252 178.813 215.716 179.438C215.18 180.063 214.89 180.862 214.902 181.685C214.999 183.968 217.272 185.451 219.291 186.521C221.311 187.592 223.598 189.025 223.764 191.303C223.795 191.745 223.739 192.187 223.599 192.607C223.458 193.026 223.237 193.414 222.947 193.747C222.657 194.081 222.304 194.354 221.908 194.552C221.512 194.749 221.082 194.866 220.641 194.897C220.2 194.928 219.757 194.872 219.337 194.731C218.918 194.591 218.531 194.37 218.197 194.08C217.863 193.79 217.59 193.437 217.392 193.041C217.195 192.645 217.078 192.215 217.047 191.773" stroke="#171717" stroke-width="0.9" stroke-linecap="round" stroke-linejoin="round"/>
<path d="M214.42 121.012L217.53 117.796" stroke="#171717" stroke-width="0.9" stroke-linecap="round" stroke-linejoin="round"/>
<path d="M217.243 121.235L214.698 118.037" stroke="#171717" stroke-width="0.9" stroke-linecap="round" stroke-linejoin="round"/>
<path d="M253.812 120.277L258.478 115.966L258.185 116.307" stroke="#171717" stroke-width="0.9" stroke-linecap="round" stroke-linejoin="round"/>
<path d="M257.297 120.889C256.744 119.346 255.969 117.893 254.996 116.574" stroke="#171717" stroke-width="0.9" stroke-linecap="round" stroke-linejoin="round"/>
<path d="M222.066 94.1143C221.891 98.401 222.226 102.853 224.223 106.65C226.221 110.447 230.2 113.442 234.483 113.22C238.767 112.998 242.716 108.74 241.725 104.566C241.357 103.018 239.907 101.45 238.393 101.942C237.206 102.327 236.703 103.892 237.18 105.046C237.657 106.2 238.851 106.925 240.071 107.19C244.605 108.174 248.587 103.91 253.171 103.193C254.739 102.967 256.339 103.159 257.809 103.748C259.279 104.338 260.568 105.304 261.546 106.55" stroke="#171717" stroke-width="0.9" stroke-linecap="round" stroke-linejoin="round"/>
<path fill-rule="evenodd" clip-rule="evenodd" d="M116.723 135.053C116.723 135.053 75.5281 188.717 62.5309 209.234C60.3337 212.703 58.9432 215.224 58.693 216.381C58.2283 218.538 58.8793 220.415 60.2851 221.97V221.973C63.613 225.662 71.149 227.562 77.9425 227.22C78.8641 227.176 79.783 227.086 80.6959 226.95C84.3175 226.412 91.4347 218.8 99.0901 209.234C112.86 192.023 128.37 168.492 128.37 168.492C128.37 168.492 132.464 192.561 135.217 209.235C136.513 217.064 137.51 223.265 137.647 224.576C137.993 227.861 142.075 228.099 143.686 228.063C144.086 228.053 144.334 228.029 144.334 228.029C144.334 228.029 155.928 227.189 162.929 225.737C164.317 225.488 165.675 225.099 166.985 224.576C171.731 222.421 169.142 219.833 169.142 219.833L166.153 209.235L153.273 163.563L145.7 136.71V122.185C145.7 122.185 136.713 122.12 135.813 122.111C124.393 121.995 116.723 135.053 116.723 135.053ZM152.727 167.038C152.667 166.797 152.423 166.651 152.181 166.711C151.94 166.772 151.794 167.016 151.854 167.257L163.544 213.896C163.604 214.137 163.848 214.283 164.089 214.223C164.331 214.163 164.477 213.918 164.417 213.677L152.727 167.038Z" fill="#171717"/>
<g opacity="0.1">
<path d="M186.272 38.1632C185.306 40.577 186.3 43.7903 186.984 46.1663C187.76 48.8642 188.678 51.5147 189.354 54.242C190.68 59.7848 191.621 65.4128 192.169 71.0855C192.759 76.7057 193.031 82.3598 193.116 88.0091C193.204 93.8402 193.247 99.752 192.828 105.569C192.67 107.766 196.374 107.789 196.259 105.569C195.957 99.7301 196.112 93.8564 195.952 88.0091C195.797 82.3562 195.499 76.7063 194.861 71.0855C194.247 65.5676 193.21 60.1049 191.76 54.746C191.018 52.0337 190.132 49.3721 189.266 46.6985C188.808 45.2861 188.356 43.8626 188.017 42.4163C187.687 41.0126 187.59 39.5063 187.06 38.1632C187.033 38.0795 186.981 38.0063 186.91 37.9544C186.839 37.9022 186.754 37.8743 186.666 37.8743C186.578 37.8743 186.493 37.9022 186.422 37.9544C186.352 38.0063 186.299 38.0795 186.273 38.1632H186.272Z" fill="#171717"/>
</g>
<g opacity="0.1">
<path d="M183.881 107.328C181.913 108.315 182.221 111.906 182.109 113.759C181.944 116.489 181.803 119.249 181.731 121.979C181.653 124.944 186.351 124.954 186.343 121.979C186.337 118.863 186.283 115.694 186.096 112.583C186.045 111.732 185.996 106.266 183.881 107.327V107.328Z" fill="#171717"/>
</g>
<g opacity="0.1">
<path d="M183.406 156.9C182.333 157.568 182.211 158.542 182.148 159.713C182.074 161.093 182.021 162.485 181.988 163.867C181.922 166.611 181.922 169.437 182.1 172.177C182.286 175.043 186.55 175.1 186.6 172.177C186.647 169.431 186.51 166.608 186.314 163.867C186.215 162.482 186.088 161.094 185.954 159.713C185.842 158.547 185.717 157.516 184.612 156.9C184.428 156.794 184.22 156.738 184.008 156.738C183.796 156.738 183.588 156.794 183.405 156.9H183.406Z" fill="#171717"/>
</g>
<g opacity="0.1">
<path d="M193.376 175.639C192.297 177.789 192.416 180.403 192.19 182.749C191.961 185.122 191.901 187.515 191.808 189.897C191.613 194.861 191.662 199.825 191.772 204.791C191.883 209.757 192.079 214.716 192.362 219.671C192.498 222.05 192.659 224.428 192.83 226.804C192.997 229.119 192.59 232.407 194.247 234.184C195.177 235.183 196.767 234.837 197.449 233.772C198.183 232.628 197.989 231.662 197.869 230.368C197.749 229.082 197.632 227.796 197.53 226.508C197.342 224.132 197.175 221.754 197.031 219.375C196.732 214.518 196.517 209.656 196.384 204.791C196.255 200.025 196.244 195.258 196.148 190.492C196.1 188.111 196.138 185.722 196.056 183.344C195.974 180.976 196.296 178.138 195.406 175.904C195.086 175.101 193.846 174.699 193.375 175.638L193.376 175.639Z" fill="#171717"/>
</g>
</g>
<defs>
<linearGradient id="paint0_linear_28_12820" x1="176.834" y1="106.794" x2="176.834" y2="175.333" gradientUnits="userSpaceOnUse">
<stop stop-color="#FF9A34"/>
<stop offset="1" stop-color="#EB6421"/>
</linearGradient>
<linearGradient id="paint1_linear_28_12820" x1="144.136" y1="209.234" x2="144.136" y2="253.912" gradientUnits="userSpaceOnUse">
<stop stop-color="#FF9A34"/>
<stop offset="1" stop-color="#EB6421"/>
</linearGradient>
</defs>
</svg>
