<svg width="288" height="288" viewBox="0 0 288 288" fill="none" xmlns="http://www.w3.org/2000/svg">
<g clip-path="url(#clip0_28_12824)">
<mask id="mask0_28_12824" style="mask-type:luminance" maskUnits="userSpaceOnUse" x="0" y="0" width="288" height="288">
<path d="M288 0H0V288H288V0Z" fill="white"/>
</mask>
<g mask="url(#mask0_28_12824)">
<mask id="mask1_28_12824" style="mask-type:luminance" maskUnits="userSpaceOnUse" x="49" y="41" width="190" height="206">
<path d="M238.5 41.3999H49.7998V246.6H238.5V41.3999Z" fill="white"/>
</mask>
<g mask="url(#mask1_28_12824)">
<path fill-rule="evenodd" clip-rule="evenodd" d="M230.069 232.994C230.249 232.268 230.429 231.497 230.192 230.792C229.781 229.562 228.332 229.05 227.051 228.857C225.001 228.547 222.924 228.62 220.846 228.693C219.563 228.739 218.28 228.784 217.001 228.74C213.65 228.623 210.062 227.732 207.941 225.131L207.542 225.005C207.106 226.427 206.404 227.754 205.472 228.914C203.675 231.164 201.197 232.784 198.599 234.023C197.866 234.374 197.115 234.685 196.349 234.956C197.712 237.117 199.076 239.279 200.441 241.442C201.506 243.131 202.685 244.919 204.527 245.687C206.432 246.482 208.601 246.008 210.608 245.522C213.7 244.77 216.791 244.022 219.881 243.275C222.326 242.684 224.888 242.027 226.709 240.293C228.677 238.418 229.415 235.631 230.069 232.994ZM209.31 227.446C209.098 227.317 208.821 227.385 208.692 227.597C208.563 227.81 208.631 228.087 208.843 228.216C214.014 231.354 220.105 232.623 226.099 231.811C226.345 231.777 226.518 231.551 226.484 231.304C226.451 231.058 226.224 230.886 225.978 230.919C220.188 231.704 214.305 230.478 209.31 227.446Z" fill="#171717"/>
<path fill-rule="evenodd" clip-rule="evenodd" d="M186.627 234.815C189.564 236.441 193.116 236.09 196.35 234.956C197.116 234.686 197.867 234.375 198.6 234.024C201.198 232.785 203.676 231.165 205.473 228.915C206.405 227.756 207.107 226.429 207.543 225.006C207.962 223.67 208.071 222.256 207.861 220.872C207.372 217.827 205.284 215.316 203.28 212.97L188.961 196.238L188.871 196.226C188.205 200.795 184.248 204.365 180.585 207.365C177.567 209.837 174.237 212.411 170.598 213.494L170.652 213.68C174.263 218.909 177.873 224.141 181.482 229.373C182.913 231.446 184.422 233.594 186.627 234.815ZM190.357 201.489C190.208 201.29 189.926 201.248 189.727 201.396C189.527 201.545 189.486 201.826 189.634 202.026L203.622 220.866C203.77 221.066 204.052 221.107 204.251 220.959C204.451 220.811 204.493 220.529 204.344 220.329L190.357 201.489Z" fill="url(#paint0_linear_28_12824)"/>
<path fill-rule="evenodd" clip-rule="evenodd" d="M125.659 110.6L125.599 110.93C118.687 109.67 110.947 112.076 105.709 116.75C103.25 118.966 101.21 121.608 99.6854 124.547C97.9331 127.91 96.7886 131.556 96.3044 135.317C95.8613 138.611 95.9492 141.956 96.5654 145.223C97.0454 147.758 97.9073 150.206 99.1214 152.483C99.1784 152.597 99.2414 152.711 99.3044 152.822C101.345 156.486 104.4 159.483 108.103 161.453C108.748 161.79 109.412 162.088 110.092 162.347C111.142 162.751 112.228 163.055 113.335 163.253C116.278 163.781 119.656 163.421 121.696 161.231C121.786 161.135 121.873 161.036 121.954 160.934C123.355 159.227 123.766 156.881 123.91 154.658C124.072 152.234 123.823 149.492 122.509 147.578C122.082 146.946 121.525 146.415 120.874 146.018C120.278 145.668 119.63 145.414 118.954 145.265C118.327 145.116 117.677 145.023 117.025 144.931C115.849 144.763 114.667 144.595 113.605 144.095C113.012 143.812 112.468 143.435 111.994 142.979C110.996 141.996 110.267 140.773 109.879 139.427C109.291 137.462 109.324 135.365 109.555 133.325C109.858 130.622 110.584 127.796 112.549 125.912C114.463 124.076 117.208 123.452 119.803 122.906C121.482 122.551 123.16 122.198 124.837 121.847L174.703 111.344L174.676 111.212C181.012 99.1996 184.894 87.0886 186.511 73.6066C186.895 70.4176 186.997 66.8356 184.918 64.3906C183.667 62.9206 181.792 62.1166 179.866 61.8676C179.551 61.8256 179.236 61.8016 178.921 61.7896C176.68 61.7086 174.469 62.2816 172.327 62.9416C171.241 63.2776 170.092 63.6886 169.393 64.5616C169.345 64.6189 169.3 64.6792 169.258 64.7416C168.346 66.0826 168.748 67.8766 169.126 69.4516C170.554 75.3886 171.142 81.5956 170.161 87.6196C169.18 93.6437 166.552 99.4906 162.205 103.778C157.858 108.065 151.708 110.648 145.627 110.117C145.499 109.585 145.651 109.145 145.809 108.685C145.924 108.35 146.043 108.006 146.059 107.609C146.098 106.667 145.894 105.602 145.117 105.068C144.532 104.663 143.767 104.663 143.056 104.675C142.605 104.684 142.153 104.692 141.701 104.7L141.693 104.7H141.684H141.684C141.233 104.709 140.781 104.717 140.329 104.726C136.888 104.792 133.447 104.855 130.006 104.915L129.052 104.933C128.399 104.9 127.746 105.004 127.135 105.239C126.232 105.665 125.689 106.64 125.521 107.624C125.353 108.608 125.506 109.613 125.659 110.6ZM184.269 66.3496C184.258 66.1015 184.047 65.9098 183.798 65.9218C183.55 65.9338 183.359 66.1447 183.371 66.3928C184.084 81.2329 180.333 95.9458 172.6 108.632C172.471 108.844 172.538 109.121 172.75 109.251C172.962 109.38 173.239 109.313 173.369 109.101C181.195 96.2605 184.992 81.3694 184.269 66.3496ZM143.692 105.165C143.907 105.04 144.182 105.114 144.306 105.329C144.645 105.915 144.823 106.581 144.821 107.258C144.819 107.935 144.637 108.599 144.294 109.183C144.168 109.398 143.893 109.47 143.678 109.344C143.464 109.218 143.392 108.942 143.518 108.728C143.78 108.281 143.919 107.773 143.921 107.255C143.922 106.737 143.787 106.228 143.527 105.78C143.403 105.564 143.476 105.289 143.692 105.165ZM118.217 120.91C118.451 120.825 118.572 120.567 118.487 120.334C118.402 120.1 118.144 119.979 117.911 120.064C113.865 121.528 110.271 124.385 108.196 128.182C106.122 131.979 105.667 136.703 107.282 140.744C108.896 144.783 112.643 147.981 116.97 148.647C117.215 148.685 117.445 148.516 117.483 148.271C117.521 148.025 117.352 147.795 117.107 147.757C113.121 147.144 109.623 144.178 108.117 140.409C106.612 136.641 107.028 132.197 108.986 128.613C110.944 125.03 114.354 122.308 118.217 120.91Z" fill="#171717"/>
<path fill-rule="evenodd" clip-rule="evenodd" d="M85.2621 201.781C86.5911 203.608 88.3881 205.024 90.2001 206.38L90.5601 206.65C98.1141 212.275 106.016 217.756 115.04 220.45C115.658 220.635 116.282 220.804 116.912 220.957C125.483 223.054 135.023 222.283 142.079 217.069C142.921 216.447 143.739 215.76 144.558 215.071C146.98 213.036 149.412 210.992 152.48 210.604C155.134 210.27 157.647 211.261 160.181 212.261C162.122 213.027 164.075 213.798 166.115 213.982C167.627 214.108 169.148 213.942 170.597 213.493C174.236 212.41 177.566 209.836 180.584 207.364C184.247 204.364 188.204 200.794 188.87 196.225C188.925 195.851 188.957 195.473 188.966 195.094C189.086 189.85 184.781 185.71 180.926 182.152C174.878 176.572 169.052 170.575 165.062 163.381C161.072 156.187 158.756 147.862 160.709 139.87L160.703 139.744C156.418 139.933 152.121 140.027 147.824 140.122C138.218 140.333 128.613 140.544 119.138 141.802C119.387 142.893 119.339 144.031 118.997 145.096L118.955 145.264C119.631 145.413 120.278 145.668 120.875 146.017C121.526 146.414 122.083 146.946 122.51 147.577L122.726 147.424C124.688 146.871 126.649 146.317 128.609 145.762C129.095 145.582 129.617 145.522 130.13 145.588C130.634 145.696 131.108 146.14 131.057 146.653C130.985 147.008 130.784 147.324 130.493 147.538C129.128 148.762 127.334 149.746 125.501 149.806C127.231 150.206 129.008 150.294 130.787 150.383C132.47 150.467 134.153 150.551 135.797 150.898C136.571 151.063 137.483 151.45 137.555 152.239C137.636 153.085 136.703 153.625 135.917 153.943L135.92 154.114C136.401 154.08 136.884 154.139 137.342 154.288C137.609 154.349 137.851 154.489 138.036 154.691C138.221 154.892 138.339 155.145 138.376 155.417C138.413 155.688 138.365 155.964 138.241 156.207C138.116 156.45 137.92 156.65 137.678 156.778C137.247 157.042 136.775 157.23 136.28 157.333L136.274 157.459C136.661 157.46 137.045 157.533 137.405 157.672C137.656 157.764 137.876 157.927 138.036 158.141C138.196 158.355 138.291 158.612 138.308 158.878C138.284 159.105 138.211 159.323 138.094 159.518C137.978 159.713 137.821 159.881 137.633 160.009C136.805 160.663 135.719 160.873 134.675 161.026C130.496 161.635 126.251 161.636 122.072 161.029L121.955 160.933C121.874 161.035 121.787 161.134 121.697 161.23C119.657 163.42 116.279 163.78 113.336 163.252C112.229 163.054 111.143 162.751 110.093 162.346L110.057 162.439C105.188 172.509 98.0943 181.34 89.3121 188.266C89.2002 188.355 89.0877 188.443 88.9746 188.531C86.7051 190.311 84.2769 192.215 83.5881 194.992C83.0091 197.329 83.8431 199.837 85.2621 201.781ZM157.225 143.903C157.214 143.655 157.004 143.462 156.756 143.473C156.508 143.483 156.315 143.693 156.326 143.941C157.136 162.975 168.431 181.221 185.105 190.434C185.323 190.554 185.596 190.475 185.717 190.257C185.837 190.04 185.758 189.766 185.54 189.646C169.141 180.585 158.022 162.623 157.225 143.903Z" fill="#171717"/>
<path d="M145.62 94.0196C146.049 90.3356 146.479 86.6508 146.91 82.9647L146.928 82.9106C147.012 82.9406 147.093 82.9707 147.177 83.0007C147.18 82.9857 147.18 82.9676 147.183 82.9526L147.291 82.9676C148.279 83.9153 149.098 85.0256 149.712 86.2496C150.039 86.9006 150.312 87.6416 150.12 88.3436C149.928 89.0456 149.076 89.5946 148.446 89.2286C148.948 89.6894 149.373 90.2282 149.703 90.8246C149.866 91.124 149.955 91.4579 149.963 91.7987C149.97 92.1395 149.897 92.477 149.748 92.7836C149.415 93.3776 148.587 93.6927 148.008 93.3327C148.704 93.9957 148.419 95.3636 147.519 95.6937C146.619 96.0237 145.518 95.1716 145.614 94.2176L145.596 94.2147C145.604 94.1475 145.609 94.0844 145.62 94.0196Z" fill="#171717"/>
<path d="M147.181 82.9514C147.178 82.9664 147.178 82.9844 147.175 82.9994C147.091 82.9694 147.01 82.9394 146.926 82.9094C143.917 81.8294 140.782 81.0044 137.587 80.9774C135.915 80.9558 134.249 81.1883 132.646 81.6674C131.095 82.1282 129.647 82.8815 128.38 83.8874L128.299 83.8814C128.299 83.8742 128.3 83.8673 128.302 83.8604C128.353 82.8854 128.41 81.9044 128.467 80.9294L118.207 76.8344L133.243 63.8474L157.876 73.5884L147.643 79.5974C147.49 80.7164 147.336 81.8345 147.181 82.9514Z" fill="#171717"/>
<path d="M128.303 83.8607C128.3 83.8673 128.299 83.8745 128.3 83.8817L128.381 83.8877C129.648 82.8818 131.096 82.1282 132.647 81.6677L132.719 81.9137C132.814 85.2884 132.158 88.6424 130.799 91.7327C130.526 92.4587 130.094 93.1148 129.536 93.6527C129.434 93.7388 129.326 93.8171 129.212 93.8867C128.945 94.064 128.64 94.1741 128.321 94.2068C128.003 94.2398 127.682 94.1948 127.385 94.0757C127.115 93.9368 126.882 93.7343 126.708 93.4856C126.534 93.2366 126.423 92.9489 126.386 92.6477C126.32 92.0417 126.451 91.4309 126.758 90.9047C126.644 90.9722 126.517 91.0163 126.386 91.0349C126.255 91.0532 126.121 91.0454 125.993 91.0121C125.864 90.9785 125.744 90.92 125.639 90.8399C125.533 90.7595 125.444 90.6593 125.378 90.5447C125.256 90.3053 125.199 90.0377 125.215 89.7692C125.23 89.501 125.316 89.2415 125.465 89.0177C125.767 88.5719 126.175 88.208 126.653 87.9587C126.2 88.0451 125.735 88.04 125.285 87.9437C125.061 87.89 124.857 87.7724 124.699 87.6053C124.541 87.4379 124.435 87.2282 124.394 87.0017C124.4 86.7908 124.449 86.5835 124.538 86.3924C124.627 86.201 124.753 86.0297 124.91 85.8887C125.804 84.908 126.961 84.2033 128.243 83.8577L128.303 83.8607Z" fill="#171717"/>
<path d="M119.138 141.803C119.387 142.894 119.338 144.031 118.997 145.097L118.955 145.265C117.194 144.848 115.256 144.872 113.606 144.095C113.012 143.812 112.468 143.435 111.995 142.979L112.004 142.967C114.371 142.502 116.749 142.114 119.138 141.803Z" fill="url(#paint1_linear_28_12824)"/>
<path d="M119.138 141.802C116.75 142.117 114.371 142.506 112.004 142.966L111.995 142.978C110.996 141.996 110.268 140.773 109.88 139.426C109.292 137.461 109.325 135.364 109.556 133.324C109.859 130.621 110.585 127.795 112.55 125.911C114.464 124.075 117.209 123.451 119.804 122.905C121.481 122.551 123.158 122.199 124.838 121.846L124.874 122.02C121.748 124.035 119.437 127.09 118.349 130.646C117.26 134.201 117.465 138.027 118.928 141.445L119.117 141.706C119.126 141.739 119.132 141.769 119.138 141.802Z" fill="url(#paint2_linear_28_12824)"/>
<path d="M116.912 220.958L116.87 221.126C115.115 223.982 111.974 225.656 108.902 227.003C103.577 229.34 97.9757 231.116 92.2037 231.827C86.4317 232.537 80.4857 232.157 74.9777 230.288C72.9707 229.61 70.8707 228.548 69.6017 226.94C69.0953 226.309 68.7356 225.573 68.5487 224.786C68.1827 223.214 68.5907 221.57 69.0977 220.037C70.3256 216.321 72.1328 212.823 74.4527 209.672C74.6987 209.339 74.9567 209.003 75.2297 208.685C76.0607 207.716 77.0327 206.876 78.2477 206.564C79.6487 206.201 81.1307 206.606 82.4867 207.11C83.8427 207.614 85.2017 208.223 86.6477 208.28C88.0757 208.337 89.6507 207.695 90.1997 206.381L90.5597 206.651C98.1137 212.276 106.016 217.757 115.04 220.451C115.658 220.637 116.282 220.806 116.912 220.958Z" fill="url(#paint3_linear_28_12824)"/>
<path d="M94.8317 158.563C97.1147 157.414 99.3647 155.044 99.0767 152.506L99.1217 152.482C99.1787 152.596 99.2417 152.71 99.3047 152.821C101.345 156.486 104.4 159.483 108.104 161.452L107.993 161.671C105.021 165.297 100.839 167.725 96.2177 168.508C91.7657 169.24 86.8307 168.487 83.0447 170.941C79.4957 173.242 78.2987 177.952 77.4317 182.101L77.2457 182.062C76.1615 178.61 75.4493 175.052 75.1217 171.448C72.6077 173.671 70.0955 175.894 67.5857 178.117L67.4297 178.09C67.9937 174.439 69.4997 170.665 71.3387 167.47C73.2047 164.224 76.1327 161.467 79.7297 160.429C82.1837 159.721 84.7877 159.835 87.3437 159.841C89.8997 159.847 92.5499 159.709 94.8317 158.563Z" fill="url(#paint4_linear_28_12824)"/>
<path d="M75.0495 208.535L75.2295 208.685C74.9565 209.003 74.6985 209.339 74.4525 209.672C72.1326 212.823 70.3254 216.321 69.0975 220.037C68.5905 221.57 68.1825 223.214 68.5485 224.786C68.7354 225.573 69.0951 226.308 69.6015 226.94L69.3465 226.997C66.4935 229.568 63.6414 232.14 60.7905 234.713C60.0735 235.358 59.2935 236.036 58.3365 236.165C56.7435 236.381 55.4085 235.046 54.3615 233.825C53.2665 232.55 52.1625 231.26 51.3945 229.766C50.6265 228.272 50.2245 226.526 50.6145 224.894C51.0105 223.241 52.1565 221.885 53.2665 220.601C56.3235 217.061 59.3793 213.521 62.4345 209.981C63.3405 208.931 64.2795 207.854 65.5125 207.218C66.9915 206.453 68.7615 206.408 70.3905 206.759C72.0195 207.11 73.5435 207.824 75.0495 208.535Z" fill="#171717"/>
<path d="M128.299 83.8934V83.8814C128.299 83.8742 128.3 83.8673 128.302 83.8604C128.353 82.8854 128.41 81.9044 128.467 80.9294L118.207 76.8344L133.243 63.8474L157.876 73.5884L147.643 79.5974C147.49 80.7164 147.336 81.8345 147.181 82.9514C147.178 82.9664 147.178 82.9844 147.175 82.9994C147.091 82.9694 147.01 82.9394 146.926 82.9094C143.917 81.8294 140.782 81.0044 137.587 80.9774C135.915 80.9558 134.249 81.1883 132.646 81.6674C131.095 82.1282 129.647 82.8815 128.38 83.8874" stroke="#171717" stroke-width="0.9" stroke-linecap="round" stroke-linejoin="round"/>
<path d="M128.243 83.8576C126.961 84.2032 125.804 84.9079 124.91 85.8886C124.753 86.0296 124.627 86.2012 124.538 86.3923C124.449 86.5837 124.4 86.791 124.394 87.0016C124.435 87.2281 124.541 87.4378 124.699 87.6052C124.857 87.7726 125.061 87.8902 125.285 87.9436C125.735 88.0402 126.2 88.0453 126.653 87.9586C126.175 88.2082 125.767 88.5718 125.465 89.0176C125.316 89.2417 125.23 89.5009 125.215 89.7694C125.199 90.0376 125.256 90.3052 125.378 90.5446C125.444 90.6592 125.533 90.7597 125.639 90.8398C125.744 90.9199 125.864 90.9784 125.993 91.012C126.121 91.0456 126.255 91.0531 126.386 91.0348C126.517 91.0162 126.644 90.9721 126.758 90.9046C126.451 91.4308 126.32 92.0416 126.386 92.6476C126.423 92.9491 126.534 93.2365 126.708 93.4855C126.882 93.7345 127.115 93.937 127.385 94.0756C127.682 94.1947 128.003 94.2397 128.321 94.207C128.64 94.174 128.945 94.0639 129.212 93.8866C129.326 93.8173 129.434 93.739 129.536 93.6526C130.094 93.1147 130.526 92.4586 130.799 91.7326C132.158 88.6423 132.814 85.2883 132.719 81.9136" stroke="#171717" stroke-width="0.9" stroke-linecap="round" stroke-linejoin="round"/>
<path d="M133.783 85.7473C133.862 85.5475 133.989 85.3708 134.154 85.2334C134.319 85.096 134.515 85.0024 134.726 84.9613C134.937 84.9202 135.155 84.9331 135.359 84.9988C135.563 85.0645 135.748 85.1806 135.895 85.3363" stroke="#171717" stroke-width="0.9" stroke-linecap="round" stroke-linejoin="round"/>
<path d="M140.186 85.9606C140.339 85.7647 140.542 85.6129 140.773 85.5196C141.004 85.4266 141.255 85.3954 141.501 85.4293C141.748 85.4632 141.981 85.5613 142.178 85.7134C142.376 85.8655 142.529 86.0665 142.625 86.2966" stroke="#171717" stroke-width="0.9" stroke-linecap="round" stroke-linejoin="round"/>
<path d="M136.931 93.4124C137.603 93.2264 138.278 93.0404 138.95 92.8514C138.581 89.6804 138.351 86.4986 138.26 83.3054C140.262 83.1089 142.282 83.2202 144.251 83.6354" stroke="#171717" stroke-width="0.9" stroke-linecap="round" stroke-linejoin="round"/>
<path d="M136.49 97.3725C136.136 97.5075 135.756 97.56 135.379 97.5264C135.002 97.4928 134.637 97.3737 134.313 97.1784C133.988 96.9828 133.713 96.7161 133.507 96.3984C133.301 96.081 133.17 95.7204 133.124 95.3445" stroke="#171717" stroke-width="0.9" stroke-linecap="round" stroke-linejoin="round"/>
<path d="M129.33 94.0637C129.786 97.5731 130.01 101.109 130.002 104.648" stroke="#171717" stroke-width="0.9" stroke-linecap="round" stroke-linejoin="round"/>
<path d="M146.91 82.9636C146.481 86.6476 146.051 90.3325 145.62 94.0186C145.611 94.0846 145.605 94.1476 145.596 94.2136C145.428 95.5996 145.173 97.0696 144.162 98.0086C143.46 98.6596 142.491 98.9596 141.78 99.5986C140.493 100.757 140.364 102.698 140.325 104.432" stroke="#171717" stroke-width="0.9" stroke-linecap="round" stroke-linejoin="round"/>
<path d="M147.289 82.9668C148.278 83.9145 149.097 85.0245 149.71 86.2488C150.037 86.8998 150.31 87.6408 150.118 88.3428C149.926 89.0448 149.074 89.5938 148.444 89.2278C148.947 89.6883 149.371 90.2274 149.701 90.8238C149.864 91.1232 149.953 91.4571 149.961 91.7979C149.969 92.1384 149.895 92.4762 149.746 92.7828C149.413 93.3768 148.585 93.6918 148.006 93.3318C148.702 93.9948 148.417 95.3628 147.517 95.6928C146.617 96.0228 145.516 95.1708 145.612 94.2168" stroke="#171717" stroke-width="0.9" stroke-linecap="round" stroke-linejoin="round"/>
<path d="M125.659 110.599C125.506 109.612 125.354 108.607 125.522 107.623C125.69 106.639 126.233 105.664 127.136 105.238C127.746 105.004 128.399 104.9 129.052 104.932L130.006 104.914C133.447 104.854 136.888 104.791 140.329 104.725C141.238 104.707 142.147 104.692 143.056 104.674C143.767 104.662 144.533 104.662 145.118 105.067C145.895 105.601 146.098 106.666 146.059 107.608C146.02 108.55 145.405 109.198 145.627 110.116" stroke="#171717" stroke-width="0.9" stroke-linecap="round" stroke-linejoin="round"/>
<path d="M145.627 110.117C151.708 110.648 157.858 108.065 162.205 103.778C166.552 99.4906 169.18 93.6437 170.161 87.6197C171.142 81.5957 170.554 75.3886 169.126 69.4516C168.748 67.8766 168.346 66.0826 169.258 64.7416C169.3 64.6792 169.345 64.6189 169.393 64.5616C170.092 63.6886 171.241 63.2776 172.327 62.9416C174.469 62.2816 176.68 61.7086 178.921 61.7896C179.236 61.8016 179.551 61.8256 179.866 61.8676C181.792 62.1166 183.667 62.9206 184.918 64.3906C186.997 66.8356 186.895 70.4176 186.511 73.6066C184.894 87.0886 181.012 99.1996 174.676 111.212" stroke="#171717" stroke-width="0.9" stroke-linecap="round" stroke-linejoin="round"/>
<path d="M125.794 110.966L125.599 110.93C118.687 109.67 110.947 112.076 105.709 116.75C103.25 118.966 101.21 121.608 99.6854 124.547C97.9331 127.91 96.7886 131.556 96.3044 135.317C95.8613 138.611 95.9492 141.956 96.5654 145.223C97.0454 147.758 97.9073 150.206 99.1214 152.483C99.1784 152.597 99.2414 152.711 99.3044 152.822C101.345 156.486 104.4 159.483 108.103 161.453C108.748 161.79 109.412 162.088 110.092 162.347C111.142 162.751 112.228 163.054 113.335 163.253C116.278 163.781 119.656 163.421 121.696 161.231C121.786 161.135 121.873 161.036 121.954 160.934C123.355 159.227 123.766 156.881 123.91 154.658C124.072 152.234 123.823 149.492 122.509 147.578C122.082 146.947 121.525 146.415 120.874 146.018C120.278 145.668 119.63 145.414 118.954 145.265C117.193 144.848 115.255 144.872 113.605 144.095C113.012 143.812 112.468 143.435 111.994 142.979C110.996 141.996 110.267 140.773 109.879 139.427C109.291 137.462 109.324 135.365 109.555 133.325C109.858 130.622 110.584 127.796 112.549 125.912C114.463 124.076 117.208 123.452 119.803 122.906C121.48 122.552 123.158 122.199 124.837 121.847L174.703 111.344C177.343 110.789 179.983 110.233 182.623 109.676" stroke="#171717" stroke-width="0.9" stroke-linecap="round" stroke-linejoin="round"/>
<path d="M182.69 109.766C181.254 111.351 179.912 113.019 178.67 114.761C177.333 116.613 176.303 118.669 175.619 120.848C174.674 124.016 174.533 127.508 175.484 130.646C175.818 131.76 176.299 132.824 176.915 133.811C178.004 135.548 179.66 137.084 181.691 137.375C182.07 137.429 182.455 137.438 182.837 137.402C184.417 137.219 185.877 136.471 186.95 135.296C188.291 133.868 189.074 132.002 189.59 130.112C190.451 126.936 190.63 123.614 190.115 120.365C189.824 118.544 189.194 116.591 187.631 115.619C187.059 115.273 186.413 115.072 185.747 115.034C185.154 114.994 184.559 115.059 183.989 115.226C182.787 115.614 181.703 116.3 180.836 117.218C179.652 118.426 178.754 119.883 178.206 121.482C177.659 123.082 177.476 124.784 177.671 126.464C177.758 127.456 178.087 128.412 178.631 129.248C179.106 129.946 179.829 130.439 180.653 130.625C180.804 130.657 180.957 130.674 181.112 130.676C182.507 130.694 183.677 129.572 184.307 128.327C184.85 127.223 185.102 125.999 185.039 124.77C184.976 123.541 184.6 122.349 183.947 121.307" stroke="#171717" stroke-width="0.9" stroke-linecap="round" stroke-linejoin="round"/>
<path d="M183.817 121.23C183.679 121.248 183.544 121.263 183.406 121.278C181.714 121.463 180.009 121.485 178.312 121.344" stroke="#171717" stroke-width="0.9" stroke-linecap="round" stroke-linejoin="round"/>
<path d="M185.752 114.961C183.067 114.541 181.015 114.88 178.669 114.76C178.656 114.758 178.643 114.757 178.63 114.757" stroke="#171717" stroke-width="0.9" stroke-linecap="round" stroke-linejoin="round"/>
<path d="M182.839 137.435C175.537 138.812 168.136 139.421 160.702 139.745C146.836 140.354 132.85 139.982 119.137 141.803C116.749 142.118 114.371 142.506 112.003 142.967" stroke="#171717" stroke-width="0.9" stroke-linecap="round" stroke-linejoin="round"/>
<path d="M99.166 124.27C88.9771 126.713 78.5797 128.186 68.113 128.668C64.366 128.839 60.238 129.031 57.505 131.602C54.82 134.131 54.334 138.304 55.12 141.91C55.69 144.523 57.001 147.184 59.389 148.39C61.288 149.353 63.535 149.236 65.659 149.065C75.994 148.246 86.26 146.737 96.517 145.231" stroke="#171717" stroke-width="0.9" stroke-linecap="round" stroke-linejoin="round"/>
<path d="M119.117 141.706C119.126 141.739 119.132 141.769 119.138 141.802C119.387 142.893 119.338 144.031 118.997 145.096" stroke="#171717" stroke-width="0.9" stroke-linecap="round" stroke-linejoin="round"/>
<path d="M99.0763 152.506C99.3643 155.044 97.1143 157.414 94.8313 158.563C92.5483 159.712 89.8993 159.844 87.3433 159.841C84.7873 159.838 82.1833 159.721 79.7293 160.429C76.1323 161.467 73.2043 164.224 71.3383 167.47C69.4993 170.665 67.9933 174.439 67.4293 178.09C67.4173 178.144 67.4113 178.198 67.4023 178.252" stroke="#171717" stroke-width="0.9" stroke-linecap="round" stroke-linejoin="round"/>
<path d="M67.5854 178.117C70.0964 175.894 72.6084 173.671 75.1215 171.448C75.4494 175.052 76.1612 178.61 77.2454 182.062" stroke="#171717" stroke-width="0.9" stroke-linecap="round" stroke-linejoin="round"/>
<path d="M77.4072 182.221C77.4162 182.182 77.4252 182.14 77.4312 182.101C78.2982 177.952 79.4952 173.242 83.0442 170.941C86.8302 168.487 91.7652 169.24 96.2172 168.508C100.839 167.725 105.021 165.297 107.992 161.671" stroke="#171717" stroke-width="0.9" stroke-linecap="round" stroke-linejoin="round"/>
<path d="M118.928 141.445C117.466 138.027 117.26 134.201 118.349 130.646C119.437 127.09 121.748 124.035 124.874 122.02" stroke="#171717" stroke-width="0.9" stroke-linecap="round" stroke-linejoin="round"/>
<path d="M110.056 162.439C105.187 172.509 98.0934 181.34 89.3112 188.266C86.9502 190.123 84.3102 192.076 83.5872 194.992C83.0082 197.329 83.8422 199.837 85.2612 201.781C86.5902 203.609 88.3872 205.024 90.1992 206.38L90.5592 206.65C98.1132 212.275 106.015 217.756 115.039 220.45C115.657 220.636 116.281 220.806 116.911 220.957C125.482 223.054 135.022 222.283 142.078 217.069C145.405 214.609 148.372 211.123 152.479 210.604C157.165 210.013 161.41 213.556 166.114 213.982C167.626 214.108 169.147 213.942 170.596 213.493C174.235 212.41 177.565 209.836 180.583 207.364C184.246 204.364 188.203 200.794 188.869 196.225C188.924 195.851 188.956 195.473 188.965 195.094C189.085 189.85 184.78 185.71 180.925 182.152C174.877 176.572 169.051 170.578 165.061 163.381C161.071 156.184 158.755 147.862 160.708 139.87" stroke="#171717" stroke-width="0.9" stroke-linecap="round" stroke-linejoin="round"/>
<path d="M122.726 147.424C124.688 146.872 126.649 146.318 128.609 145.762C129.094 145.582 129.616 145.522 130.13 145.588C130.634 145.696 131.108 146.14 131.057 146.653C130.985 147.008 130.784 147.324 130.493 147.538C129.128 148.762 127.334 149.746 125.501 149.806" stroke="#171717" stroke-width="0.9" stroke-linecap="round" stroke-linejoin="round"/>
<path d="M122.071 161.03C126.251 161.636 130.496 161.635 134.674 161.027C135.718 160.874 136.804 160.664 137.632 160.01C137.82 159.881 137.977 159.713 138.093 159.518C138.21 159.323 138.283 159.105 138.307 158.879C138.29 158.612 138.195 158.356 138.035 158.142C137.875 157.928 137.656 157.765 137.404 157.673C137.044 157.533 136.66 157.46 136.273 157.46C136.126 157.454 135.979 157.451 135.832 157.451C132.544 157.427 129.257 157.411 125.971 157.403" stroke="#171717" stroke-width="0.9" stroke-linecap="round" stroke-linejoin="round"/>
<path d="M136.279 157.334C136.773 157.23 137.246 157.042 137.677 156.779C137.919 156.65 138.115 156.45 138.24 156.207C138.364 155.964 138.411 155.688 138.375 155.417C138.339 155.146 138.22 154.892 138.035 154.691C137.85 154.489 137.608 154.349 137.341 154.289C136.883 154.139 136.4 154.08 135.919 154.115C135.829 154.115 135.742 154.118 135.652 154.121L126.466 154.391" stroke="#171717" stroke-width="0.9" stroke-linecap="round" stroke-linejoin="round"/>
<path d="M135.916 153.943C136.702 153.625 137.635 153.085 137.554 152.239C137.482 151.45 136.57 151.063 135.796 150.898C132.415 150.184 128.866 150.583 125.5 149.806" stroke="#171717" stroke-width="0.9" stroke-linecap="round" stroke-linejoin="round"/>
<path d="M169.285 64.3337C166.843 63.0182 164.601 61.3604 162.628 59.4107C162.322 59.1365 162.066 58.8107 161.872 58.4477C161.777 58.2644 161.728 58.061 161.729 57.8543C161.73 57.6479 161.781 57.4448 161.878 57.2627C162.274 56.6147 163.222 56.6717 163.963 56.8487C165.919 57.3242 167.79 58.0973 169.51 59.1407" stroke="#171717" stroke-width="0.9" stroke-linecap="round" stroke-linejoin="round"/>
<path d="M179.896 61.6609C181.702 56.5729 183.022 51.1819 182.527 45.8059C182.51 45.259 182.374 44.7226 182.128 44.2339C182.002 43.9912 181.809 43.7899 181.572 43.6537C181.335 43.5175 181.063 43.4524 180.79 43.4659C180.118 43.5499 179.701 44.2219 179.416 44.8339C178.231 47.3599 177.58 50.0779 177.121 52.8409C176.884 54.2719 176.695 55.7149 176.512 57.1489" stroke="#171717" stroke-width="0.9" stroke-linecap="round" stroke-linejoin="round"/>
<path d="M177.09 52.8347C177.602 49.9808 177.606 47.0588 177.102 44.2037C177.015 43.7147 176.88 43.1747 176.466 42.9017C175.968 42.5777 175.266 42.7967 174.87 43.2377C174.506 43.709 174.269 44.2655 174.183 44.8547C173.67 47.2715 173.374 49.7291 173.298 52.1987C173.223 53.9567 173.211 55.7177 173.199 57.4727C173.268 57.3167 173.337 57.1577 173.409 56.9987" stroke="#171717" stroke-width="0.9" stroke-linecap="round" stroke-linejoin="round"/>
<path d="M173.044 52.6218L173.062 52.1898C173.122 50.0022 172.719 47.8266 171.88 45.8058C171.701 45.2958 171.404 44.835 171.013 44.4618C170.814 44.2791 170.564 44.1606 170.297 44.121C170.03 44.0814 169.757 44.1228 169.513 44.2398C168.865 44.6178 168.841 45.5298 168.898 46.2768C169.216 50.5518 169.535 54.8256 169.855 59.0988" stroke="#171717" stroke-width="0.9" stroke-linecap="round" stroke-linejoin="round"/>
<path d="M90.2207 206.33C90.2147 206.348 90.2057 206.366 90.1997 206.381C89.6507 207.695 88.0757 208.337 86.6477 208.28C85.2017 208.223 83.8457 207.611 82.4867 207.11C81.1277 206.609 79.6487 206.201 78.2477 206.564C77.0327 206.876 76.0607 207.716 75.2297 208.685C74.9567 209.003 74.6987 209.339 74.4527 209.672C72.1328 212.823 70.3256 216.321 69.0977 220.037C68.5907 221.57 68.1827 223.214 68.5487 224.786C68.7356 225.573 69.0953 226.309 69.6017 226.94C70.8707 228.548 72.9707 229.61 74.9777 230.288C80.4857 232.157 86.4347 232.538 92.2037 231.827C97.9727 231.116 103.577 229.34 108.902 227.003C111.974 225.656 115.115 223.982 116.87 221.126" stroke="#171717" stroke-width="0.9" stroke-linecap="round" stroke-linejoin="round"/>
<path d="M188.96 196.238L203.28 212.97C205.284 215.316 207.372 217.827 207.861 220.872C208.071 222.256 207.962 223.67 207.543 225.006C207.108 226.429 206.405 227.756 205.473 228.915C203.676 231.165 201.198 232.785 198.6 234.024C197.867 234.376 197.116 234.687 196.35 234.957C193.116 236.091 189.564 236.442 186.627 234.816C184.422 233.595 182.913 231.447 181.482 229.374C177.873 224.142 174.263 218.911 170.652 213.681" stroke="#171717" stroke-width="0.9" stroke-linecap="round" stroke-linejoin="round"/>
<path d="M75.0495 208.534C73.5435 207.823 72.0195 207.106 70.3905 206.758C68.7615 206.41 66.9915 206.452 65.5125 207.217C64.2795 207.853 63.3405 208.93 62.4345 209.98C59.3805 213.52 56.3244 217.06 53.2665 220.6C52.1565 221.884 51.0105 223.24 50.6145 224.893C50.2245 226.525 50.6295 228.268 51.3945 229.765C52.1595 231.262 53.2665 232.549 54.3615 233.824C55.4085 235.045 56.7435 236.38 58.3365 236.164C59.2935 236.035 60.0735 235.357 60.7905 234.712C63.6435 232.138 66.4956 229.566 69.3465 226.996" stroke="#171717" stroke-width="0.9" stroke-linecap="round" stroke-linejoin="round"/>
<path d="M196.259 234.815C196.289 234.863 196.319 234.908 196.349 234.956C197.714 237.116 199.078 239.277 200.441 241.442C201.506 243.131 202.685 244.919 204.527 245.687C206.432 246.482 208.601 246.008 210.608 245.522C213.701 244.772 216.792 244.023 219.881 243.275C222.326 242.684 224.888 242.027 226.709 240.293C228.677 238.418 229.415 235.631 230.069 232.994C230.249 232.268 230.429 231.497 230.192 230.792C229.781 229.562 228.332 229.049 227.051 228.857C223.736 228.356 220.355 228.854 217.001 228.74C213.647 228.626 210.062 227.732 207.941 225.131" stroke="#171717" stroke-width="0.9" stroke-linecap="round" stroke-linejoin="round"/>
<path d="M180.643 130.68C178.948 130.662 177.253 130.643 175.558 130.623" stroke="#171717" stroke-width="0.9" stroke-linecap="round" stroke-linejoin="round"/>
<path d="M68.301 97.5173L72.1743 96.4546C72.2325 96.4384 72.2943 96.4405 72.351 96.4606C72.408 96.4807 72.4575 96.5179 72.4926 96.5671C72.5277 96.616 72.5469 96.6748 72.5475 96.7351C72.5481 96.7957 72.5301 96.8548 72.4959 96.9046L70.2438 100.23C70.2111 100.278 70.1937 100.335 70.1931 100.393C70.1928 100.451 70.2096 100.508 70.2417 100.557L72.4491 103.912C72.4821 103.962 72.4989 104.022 72.4974 104.082C72.4959 104.142 72.4758 104.2 72.4401 104.248C72.4044 104.297 72.3549 104.333 72.2979 104.353C72.2409 104.372 72.1791 104.373 72.1215 104.357L68.2626 103.242C68.2068 103.226 68.1471 103.227 68.0919 103.245C68.0364 103.262 67.9875 103.296 67.9512 103.341L65.442 106.478C65.4045 106.525 65.3532 106.559 65.2956 106.576C65.238 106.593 65.1765 106.592 65.1192 106.573C65.0622 106.554 65.0121 106.518 64.9761 106.47C64.9401 106.422 64.9197 106.364 64.9179 106.304L64.7853 102.289C64.7832 102.231 64.7643 102.175 64.7304 102.128C64.6965 102.08 64.6494 102.044 64.5951 102.024L60.837 100.606C60.7806 100.585 60.7323 100.547 60.6984 100.497C60.6642 100.448 60.6462 100.389 60.6465 100.329C60.6471 100.269 60.6657 100.21 60.7005 100.161C60.735 100.112 60.7839 100.075 60.8406 100.054L64.6173 98.6876C64.6719 98.6678 64.7196 98.632 64.7541 98.5852C64.7886 98.5384 64.8084 98.4826 64.8111 98.4244L64.9974 94.4122C65.0001 94.3522 65.0214 94.2943 65.058 94.2466C65.0946 94.1989 65.145 94.1635 65.2023 94.1452C65.2596 94.1272 65.3211 94.1269 65.3784 94.1449C65.436 94.1626 65.4867 94.1977 65.5236 94.2451L67.9905 97.4149C68.0265 97.4605 68.0751 97.4947 68.1303 97.513C68.1855 97.531 68.2449 97.5326 68.301 97.5173Z" stroke="#171717" stroke-width="0.9" stroke-miterlimit="10"/>
<path d="M113.946 62.3131L118.377 62.9587C118.443 62.9638 118.506 62.9887 118.557 63.0301C118.609 63.0715 118.647 63.1276 118.666 63.1906C118.686 63.2539 118.686 63.3214 118.666 63.3847C118.647 63.4477 118.609 63.5038 118.557 63.5452L115.033 65.8552C114.982 65.8897 114.943 65.9395 114.922 65.9977C114.901 66.0559 114.899 66.1192 114.916 66.1786L116.056 70.4767C116.073 70.54 116.069 70.6072 116.044 70.6678C116.019 70.7287 115.975 70.7797 115.919 70.813C115.863 70.8466 115.797 70.861 115.731 70.8541C115.666 70.8469 115.605 70.8187 115.557 70.774L111.904 67.975C111.854 67.9348 111.793 67.9099 111.729 67.903C111.666 67.8961 111.601 67.9075 111.544 67.9363L107.817 69.9463C107.757 69.9742 107.69 69.9847 107.624 69.9766C107.559 69.9682 107.496 69.9415 107.445 69.8992C107.394 69.8572 107.356 69.8014 107.335 69.7384C107.315 69.6754 107.313 69.6079 107.329 69.5437L108.595 65.5024C108.612 65.4403 108.612 65.3746 108.593 65.3131C108.574 65.2516 108.537 65.1967 108.489 65.1553L105.047 62.1001C104.993 62.0614 104.954 62.0068 104.935 61.9441C104.916 61.8814 104.917 61.8142 104.939 61.7527C104.961 61.6909 105.003 61.6381 105.058 61.6021C105.113 61.5664 105.178 61.5493 105.244 61.5538L109.68 61.8538C109.741 61.8595 109.803 61.8457 109.856 61.8139C109.909 61.7821 109.951 61.7344 109.975 61.6777L111.575 57.7777C111.606 57.7192 111.653 57.6712 111.711 57.64C111.77 57.6091 111.836 57.5962 111.902 57.6031C111.968 57.61 112.03 57.6367 112.08 57.6793C112.131 57.7222 112.167 57.7789 112.185 57.8428L113.66 62.0704C113.681 62.1328 113.719 62.1886 113.77 62.2312C113.82 62.2738 113.881 62.3023 113.946 62.3131Z" fill="#171717"/>
<path d="M205.065 63.138L209.09 63.7245C209.15 63.7293 209.207 63.7521 209.254 63.7899C209.301 63.8274 209.335 63.8781 209.353 63.9357C209.37 63.993 209.37 64.0542 209.353 64.1115C209.335 64.1688 209.3 64.2198 209.254 64.2573L206.052 66.3573C206.005 66.3885 205.97 66.4338 205.951 66.4869C205.932 66.5397 205.93 66.597 205.946 66.651L206.98 70.5561C206.996 70.6137 206.992 70.6746 206.969 70.7298C206.946 70.785 206.906 70.8312 206.855 70.8618C206.804 70.8921 206.744 70.9053 206.685 70.8987C206.626 70.8924 206.57 70.8669 206.527 70.8261L203.208 68.283C203.162 68.2464 203.107 68.2236 203.049 68.2173C202.991 68.211 202.932 68.2218 202.88 68.2479L199.493 70.0749C199.439 70.1004 199.378 70.11 199.319 70.1025C199.259 70.095 199.202 70.0707 199.156 70.0323C199.109 69.9939 199.075 69.9432 199.056 69.8859C199.037 69.8286 199.035 69.7674 199.05 69.7089L200.201 66.0372C200.216 65.9808 200.216 65.9211 200.198 65.8653C200.181 65.8095 200.149 65.7597 200.104 65.7219L196.977 62.946C196.928 62.9109 196.893 62.8611 196.875 62.8041C196.858 62.7471 196.859 62.6862 196.88 62.6301C196.9 62.574 196.938 62.526 196.988 62.4936C197.038 62.4609 197.097 62.4456 197.157 62.4498L201.187 62.7237C201.243 62.7291 201.299 62.7165 201.347 62.6877C201.395 62.6589 201.433 62.6154 201.455 62.5638L202.909 59.0214C202.937 58.9683 202.98 58.9248 203.033 58.8969C203.086 58.8687 203.147 58.857 203.206 58.8636C203.266 58.8699 203.322 58.8942 203.368 58.9332C203.414 58.9719 203.447 59.0235 203.463 59.0814L204.803 62.9214C204.824 62.9775 204.859 63.0273 204.905 63.0654C204.951 63.1035 205.006 63.1287 205.065 63.138Z" stroke="url(#paint5_linear_28_12824)" stroke-width="0.9" stroke-miterlimit="10"/>
<path d="M209.03 141.622L212.542 142.308C212.594 142.318 212.643 142.345 212.68 142.383C212.717 142.422 212.742 142.471 212.751 142.524C212.759 142.576 212.751 142.631 212.728 142.679C212.705 142.728 212.668 142.768 212.621 142.794L209.506 144.556C209.461 144.581 209.424 144.619 209.401 144.666C209.378 144.712 209.368 144.764 209.375 144.815L209.807 148.368C209.814 148.421 209.803 148.475 209.779 148.522C209.753 148.57 209.714 148.608 209.667 148.633C209.619 148.657 209.565 148.666 209.512 148.659C209.459 148.652 209.409 148.629 209.37 148.593L206.732 146.175C206.694 146.14 206.646 146.117 206.595 146.109C206.543 146.101 206.491 146.108 206.444 146.13L203.199 147.639C203.151 147.662 203.096 147.669 203.044 147.66C202.991 147.651 202.942 147.626 202.904 147.588C202.866 147.55 202.84 147.501 202.831 147.449C202.821 147.396 202.828 147.342 202.85 147.293L204.334 144.037C204.356 143.989 204.363 143.937 204.355 143.886C204.346 143.835 204.323 143.787 204.288 143.749L201.85 141.13C201.814 141.09 201.79 141.041 201.782 140.988C201.775 140.935 201.784 140.881 201.808 140.833C201.832 140.785 201.87 140.746 201.918 140.72C201.965 140.695 202.018 140.684 202.072 140.69L205.627 141.096C205.679 141.102 205.731 141.092 205.777 141.069C205.823 141.045 205.861 141.008 205.886 140.963L207.624 137.835C207.65 137.788 207.69 137.75 207.738 137.727C207.786 137.703 207.841 137.695 207.893 137.703C207.946 137.711 207.995 137.735 208.034 137.772C208.073 137.809 208.099 137.857 208.11 137.91L208.823 141.416C208.834 141.467 208.858 141.514 208.895 141.55C208.932 141.587 208.979 141.612 209.03 141.622Z" fill="url(#paint6_linear_28_12824)"/>
<path d="M103.067 105.95L97.7168 100.713" stroke="#171717" stroke-width="0.9" stroke-linecap="round" stroke-linejoin="round"/>
<path d="M97.3018 106.83C98.3395 104.599 99.7021 102.533 101.345 100.701" stroke="#171717" stroke-width="0.9" stroke-linecap="round" stroke-linejoin="round"/>
<path d="M146.327 61.0393L149.6 54.0967" stroke="#171717" stroke-width="0.9" stroke-linecap="round" stroke-linejoin="round"/>
<path d="M149.841 59.1751C148.049 57.7147 146.446 56.0379 145.066 54.1833" stroke="#171717" stroke-width="0.9" stroke-linecap="round" stroke-linejoin="round"/>
<path d="M179.665 156.406L175.437 150.895" stroke="#171717" stroke-width="0.9" stroke-linecap="round" stroke-linejoin="round"/>
<path d="M174.772 156.353L179.299 150.271" stroke="#171717" stroke-width="0.9" stroke-linecap="round" stroke-linejoin="round"/>
<path d="M214.576 191.8L209.296 185.858" stroke="url(#paint7_linear_28_12824)" stroke-width="0.9" stroke-linecap="round" stroke-linejoin="round"/>
<path d="M209.75 192.17L213.599 186.266" stroke="url(#paint8_linear_28_12824)" stroke-width="0.9" stroke-linecap="round" stroke-linejoin="round"/>
<path d="M65.8135 163.953L62.1655 160.617" stroke="url(#paint9_linear_28_12824)" stroke-width="0.9" stroke-linecap="round" stroke-linejoin="round"/>
<path d="M61.7363 164.858C62.96 163.508 63.8966 161.923 64.4891 160.2" stroke="url(#paint10_linear_28_12824)" stroke-width="0.9" stroke-linecap="round" stroke-linejoin="round"/>
<path d="M103.72 47.288C96.5567 46.6439 89.0123 48.038 83.2145 52.2938C77.4167 56.5496 73.7096 63.9422 74.9258 71.0306C76.142 78.119 82.9277 84.1496 90.0896 83.4926C92.7596 83.2472 95.687 81.7202 96.0977 79.0697C96.3803 77.2448 95.3369 75.4145 93.8891 74.2676C92.657 73.2917 91.157 72.7142 89.5883 72.6119C88.0199 72.5099 86.4575 72.8879 85.1093 73.6958C83.7608 74.5037 82.6907 75.7031 82.0412 77.1344C81.3914 78.5657 81.1931 80.1611 81.4727 81.7076C82.3055 86.3099 87.1493 89.6648 87.1727 94.3421C87.1901 97.8503 83.8901 101.019 80.3855 100.858" stroke="url(#paint11_linear_28_12824)" stroke-width="0.9" stroke-linecap="round" stroke-linejoin="round"/>
<path d="M221.567 126.157C226.134 129.174 229.967 133.175 232.783 137.868C236.867 144.687 238.503 153.696 234.387 160.495C232.846 163.041 230.473 165.186 227.597 165.953C224.721 166.721 221.353 165.903 219.507 163.568C217.662 161.232 217.81 157.412 220.125 155.542C222.815 153.37 227.179 154.642 229.172 157.466C231.166 160.29 231.242 164.066 230.536 167.451C229.829 170.837 228.431 174.044 227.705 177.424C226.979 180.804 227.012 184.575 228.957 187.432C230.903 190.29 235.224 191.658 237.974 189.562" stroke="#171717" stroke-width="0.9" stroke-linecap="round" stroke-linejoin="round"/>
<path d="M193.454 111.705L196.207 105.988" stroke="#171717" stroke-width="0.9" stroke-linecap="round" stroke-linejoin="round"/>
<path d="M195.784 116.788L217.172 104.294" stroke="#171717" stroke-width="0.9" stroke-linecap="round" stroke-linejoin="round"/>
<path d="M199.171 121.235L205.312 123.988" stroke="#171717" stroke-width="0.9" stroke-linecap="round" stroke-linejoin="round"/>
<path d="M53.0454 213.772C54.6078 210.839 56.8011 208.289 59.4672 206.305C62.1333 204.322 65.2059 202.954 68.4639 202.3" stroke="#171717" stroke-width="0.9" stroke-linecap="round" stroke-linejoin="round"/>
<path d="M54.3154 207.418C54.9775 206.148 56.0176 205.116 57.2917 204.462" stroke="#171717" stroke-width="0.9" stroke-linecap="round" stroke-linejoin="round"/>
<path d="M82.7183 177.57C83.0921 176.257 83.8571 175.089 84.9113 174.222C85.9658 173.354 87.2594 172.829 88.6199 172.715" stroke="#171717" stroke-width="0.9" stroke-linecap="round" stroke-linejoin="round"/>
<path d="M186.231 240.529C183.767 239.68 181.558 238.219 179.814 236.282C178.07 234.344 176.848 231.995 176.262 229.455" stroke="#171717" stroke-width="0.9" stroke-linecap="round" stroke-linejoin="round"/>
<path d="M179.278 240.41C178.218 240.128 177.264 239.542 176.533 238.725C175.803 237.907 175.327 236.894 175.165 235.81" stroke="#171717" stroke-width="0.9" stroke-linecap="round" stroke-linejoin="round"/>
<path d="M52.6465 131.749C54.0523 128.029 58.2475 125.585 62.1781 126.199" stroke="#171717" stroke-width="0.9" stroke-linecap="round" stroke-linejoin="round"/>
<path d="M186.237 54.3092C187.12 52.3589 187.528 50.2274 187.43 48.089C187.331 45.9506 186.728 43.8659 185.669 42.0056" stroke="#171717" stroke-width="0.9" stroke-linecap="round" stroke-linejoin="round"/>
<path d="M190.071 50.7186C190.508 48.8646 190.281 46.9161 189.429 45.2124" stroke="#171717" stroke-width="0.9" stroke-linecap="round" stroke-linejoin="round"/>
<path d="M124.427 70.0407C123.457 69.8472 122.458 69.8511 121.49 70.0527C120.522 70.2543 119.605 70.6494 118.793 71.214C117.981 71.7786 117.292 72.5013 116.766 73.3389C116.241 74.1762 115.89 75.1113 115.734 76.0875C115.329 78.6315 116.27 81.1683 116.996 83.64C117.721 86.1117 118.213 88.8936 117.007 91.17C116.379 92.2854 115.399 93.1605 114.22 93.6579C113.041 94.1553 111.73 94.2468 110.493 93.918" stroke="url(#paint12_linear_28_12824)" stroke-width="0.9" stroke-linecap="round" stroke-linejoin="round"/>
<path d="M107.658 95.2569C108.519 94.7049 109.469 94.3056 110.466 94.0767" stroke="url(#paint13_linear_28_12824)" stroke-width="0.9" stroke-linecap="round" stroke-linejoin="round"/>
<path d="M110.132 93.9473L107.742 93.2771" stroke="url(#paint14_linear_28_12824)" stroke-width="0.9" stroke-linecap="round" stroke-linejoin="round"/>
<path d="M110.449 93.5453C110.029 92.9624 108.889 92.3051 108.825 92.2712" stroke="url(#paint15_linear_28_12824)" stroke-width="0.9" stroke-linecap="round" stroke-linejoin="round"/>
<path d="M193.242 215.046L191.55 212.082" stroke="#171717" stroke-width="0.9" stroke-linecap="round" stroke-linejoin="round"/>
<path d="M182.654 214.411L181.024 211.486L181.384 212.082" stroke="#171717" stroke-width="0.9" stroke-linecap="round" stroke-linejoin="round"/>
<path d="M198.113 225.635L196.418 223.729" stroke="#171717" stroke-width="0.9" stroke-linecap="round" stroke-linejoin="round"/>
<path d="M190.278 224.576C189.854 223.94 189.431 223.305 189.007 222.67" stroke="#171717" stroke-width="0.9" stroke-linecap="round" stroke-linejoin="round"/>
<path d="M185.79 230.32C185.205 229.415 184.621 228.51 184.036 227.605" stroke="#171717" stroke-width="0.9" stroke-linecap="round" stroke-linejoin="round"/>
<path d="M90.9406 211.851C90.172 212.601 89.2306 213.152 88.1995 213.455C87.1684 213.757 86.0788 213.801 85.0264 213.584" stroke="#171717" stroke-width="0.9" stroke-linecap="round" stroke-linejoin="round"/>
<path d="M99.4108 225.406C99.0193 225.846 98.5249 226.182 97.9717 226.386C97.4188 226.588 96.8239 226.651 96.2407 226.569" stroke="#171717" stroke-width="0.9" stroke-linecap="round" stroke-linejoin="round"/>
<path d="M92.6538 219.07C91.5909 219.543 90.4119 219.69 89.2656 219.493" stroke="#171717" stroke-width="0.9" stroke-linecap="round" stroke-linejoin="round"/>
<path d="M78.2542 225.849C77.8258 225.913 77.3884 225.869 76.9819 225.72C76.5751 225.571 76.2124 225.323 75.9268 224.997" stroke="#171717" stroke-width="0.9" stroke-linecap="round" stroke-linejoin="round"/>
<path d="M77.7832 216.445L75.0859 215.447" stroke="#171717" stroke-width="0.9" stroke-linecap="round" stroke-linejoin="round"/>
<g opacity="0.1">
<path d="M131.67 104.715C132.164 102.774 131.913 100.72 131.907 98.7394C131.898 96.715 132.289 94.7089 133.057 92.836C134.473 89.2783 136.194 85.8685 135.552 81.931C135.234 79.981 131.94 80.7988 132.542 82.7611C133.698 86.5336 131.347 89.9713 130.287 93.475C129.217 97.015 129.786 100.81 129.716 104.45C129.694 105.567 131.392 105.807 131.67 104.715Z" fill="#171717"/>
</g>
<g opacity="0.1">
<path d="M54.9013 138.522C53.5096 139.293 53.6644 141.067 54.0613 142.416C54.4972 143.899 55.6756 145.183 56.8255 146.163C60.196 149.033 64.2085 149.026 68.4016 148.595C72.943 148.128 77.476 147.584 82 146.963C84.2335 146.657 86.4658 146.345 88.6972 146.025C90.8704 145.713 93.817 145.775 95.6851 144.581C97.6294 143.339 97.3615 140.233 95.0335 139.595C93.0922 139.063 90.8359 139.777 88.8715 140.072C86.9347 140.364 84.9967 140.65 83.0581 140.93C79.2811 141.477 75.5059 142.032 71.7319 142.596C68.2321 143.12 64.7671 143.798 61.2139 143.635C59.7115 143.566 58.4308 143.101 57.5131 141.857C56.7556 140.83 56.6839 139.52 55.7878 138.636C55.672 138.524 55.5232 138.453 55.3636 138.432C55.204 138.412 55.042 138.443 54.9016 138.522H54.9013Z" fill="#171717"/>
</g>
<g opacity="0.1">
<path d="M111.268 142.12C114.14 143.103 116.942 142.68 119.914 142.463C122.667 142.261 125.412 141.949 128.162 141.707C133.862 141.203 139.571 140.803 145.282 140.451C150.994 140.098 156.714 139.844 162.435 139.665C165.221 139.578 167.955 139.247 170.723 139C173.65 138.738 176.59 138.873 179.464 138.202C181.089 137.822 181.084 135.304 179.464 134.92C176.589 134.239 173.655 134.399 170.723 134.215C167.947 134.041 165.226 133.825 162.435 133.897C156.615 134.045 150.798 134.309 144.987 134.655C139.272 134.996 133.565 135.472 127.867 136.024C124.965 136.306 122.06 136.578 119.173 136.99C116.239 137.408 113.438 137.648 110.898 139.293C110.644 139.452 110.44 139.681 110.312 139.953C110.184 140.224 110.137 140.527 110.176 140.825C110.215 141.122 110.338 141.403 110.532 141.632C110.726 141.862 110.981 142.031 111.268 142.12Z" fill="#171717"/>
</g>
<g opacity="0.1">
<path d="M75.1596 210.996C75.7779 210.446 76.2843 209.866 77.1645 209.82C78.1473 209.767 78.1083 210.021 78.9045 210.38C80.6175 211.189 82.4154 211.804 84.2646 212.215C87.1107 212.779 91.9818 211.654 91.7472 207.898C91.6692 206.65 90.2172 205.471 89.0142 206.33C87.957 207.085 87.1446 207.82 85.7781 207.826C84.0081 207.833 82.3185 206.983 80.5563 206.82C78.4968 206.63 74.571 208.047 74.0322 210.339C73.9974 210.482 74.0094 210.632 74.067 210.767C74.1243 210.902 74.2242 211.015 74.3511 211.089C74.478 211.163 74.6253 211.194 74.7711 211.177C74.9172 211.16 75.0537 211.097 75.1605 210.996H75.1596Z" fill="#171717"/>
</g>
<g opacity="0.1">
<path d="M171.555 215.333C174.617 220.174 178.083 224.748 181.916 229.005C184.343 231.747 189.811 238.283 193.947 234.903C194.598 234.372 194.415 233.117 193.671 232.761C192.782 232.335 191.807 232.184 190.92 231.771C190.086 231.352 189.335 230.784 188.704 230.095C187.032 228.358 185.462 226.47 183.881 224.649C180.62 220.891 177.448 217.062 174.216 213.281C172.961 211.811 170.551 213.714 171.555 215.334V215.333Z" fill="#171717"/>
</g>
</g>
</g>
</g>
<defs>
<linearGradient id="paint0_linear_28_12824" x1="189.281" y1="196.226" x2="189.281" y2="235.922" gradientUnits="userSpaceOnUse">
<stop stop-color="#FFB800"/>
<stop offset="1" stop-color="#FF7F0A"/>
</linearGradient>
<linearGradient id="paint1_linear_28_12824" x1="115.645" y1="141.803" x2="115.645" y2="145.265" gradientUnits="userSpaceOnUse">
<stop stop-color="#FFB800"/>
<stop offset="1" stop-color="#FF7F0A"/>
</linearGradient>
<linearGradient id="paint2_linear_28_12824" x1="117.137" y1="121.846" x2="117.137" y2="142.978" gradientUnits="userSpaceOnUse">
<stop stop-color="#FFB800"/>
<stop offset="1" stop-color="#FF7F0A"/>
</linearGradient>
<linearGradient id="paint3_linear_28_12824" x1="92.6597" y1="206.381" x2="92.6597" y2="232.161" gradientUnits="userSpaceOnUse">
<stop stop-color="#FFB800"/>
<stop offset="1" stop-color="#FF7F0A"/>
</linearGradient>
<linearGradient id="paint4_linear_28_12824" x1="87.7667" y1="152.482" x2="87.7667" y2="182.101" gradientUnits="userSpaceOnUse">
<stop stop-color="#FFB800"/>
<stop offset="1" stop-color="#FF7F0A"/>
</linearGradient>
<linearGradient id="paint5_linear_28_12824" x1="203.114" y1="58.8618" x2="203.114" y2="70.9005" gradientUnits="userSpaceOnUse">
<stop stop-color="#FFB800"/>
<stop offset="1" stop-color="#FF7F0A"/>
</linearGradient>
<linearGradient id="paint6_linear_28_12824" x1="207.267" y1="137.7" x2="207.267" y2="148.662" gradientUnits="userSpaceOnUse">
<stop stop-color="#FFB800"/>
<stop offset="1" stop-color="#FF7F0A"/>
</linearGradient>
<linearGradient id="paint7_linear_28_12824" x1="211.936" y1="185.858" x2="211.936" y2="191.8" gradientUnits="userSpaceOnUse">
<stop stop-color="#FFB800"/>
<stop offset="1" stop-color="#FF7F0A"/>
</linearGradient>
<linearGradient id="paint8_linear_28_12824" x1="211.675" y1="186.266" x2="211.675" y2="192.17" gradientUnits="userSpaceOnUse">
<stop stop-color="#FFB800"/>
<stop offset="1" stop-color="#FF7F0A"/>
</linearGradient>
<linearGradient id="paint9_linear_28_12824" x1="63.9895" y1="160.617" x2="63.9895" y2="163.953" gradientUnits="userSpaceOnUse">
<stop stop-color="#FFB800"/>
<stop offset="1" stop-color="#FF7F0A"/>
</linearGradient>
<linearGradient id="paint10_linear_28_12824" x1="63.1127" y1="160.2" x2="63.1127" y2="164.858" gradientUnits="userSpaceOnUse">
<stop stop-color="#FFB800"/>
<stop offset="1" stop-color="#FF7F0A"/>
</linearGradient>
<linearGradient id="paint11_linear_28_12824" x1="89.2076" y1="47.1386" x2="89.2076" y2="100.864" gradientUnits="userSpaceOnUse">
<stop stop-color="#FFB800"/>
<stop offset="1" stop-color="#FF7F0A"/>
</linearGradient>
<linearGradient id="paint12_linear_28_12824" x1="117.46" y1="69.8985" x2="117.46" y2="94.1118" gradientUnits="userSpaceOnUse">
<stop stop-color="#FFB800"/>
<stop offset="1" stop-color="#FF7F0A"/>
</linearGradient>
<linearGradient id="paint13_linear_28_12824" x1="109.062" y1="94.0767" x2="109.062" y2="95.2569" gradientUnits="userSpaceOnUse">
<stop stop-color="#FFB800"/>
<stop offset="1" stop-color="#FF7F0A"/>
</linearGradient>
<linearGradient id="paint14_linear_28_12824" x1="108.937" y1="93.2771" x2="108.937" y2="93.9473" gradientUnits="userSpaceOnUse">
<stop stop-color="#FFB800"/>
<stop offset="1" stop-color="#FF7F0A"/>
</linearGradient>
<linearGradient id="paint15_linear_28_12824" x1="109.637" y1="92.2712" x2="109.637" y2="93.5453" gradientUnits="userSpaceOnUse">
<stop stop-color="#FFB800"/>
<stop offset="1" stop-color="#FF7F0A"/>
</linearGradient>
<clipPath id="clip0_28_12824">
<rect width="288" height="288" fill="white"/>
</clipPath>
</defs>
</svg>
