<svg width="288" height="288" viewBox="0 0 288 288" fill="none" xmlns="http://www.w3.org/2000/svg">
<g clip-path="url(#clip0_28_12832)">
<mask id="mask0_28_12832" style="mask-type:luminance" maskUnits="userSpaceOnUse" x="0" y="0" width="288" height="288">
<path d="M288 0H0V288H288V0Z" fill="white"/>
</mask>
<g mask="url(#mask0_28_12832)">
<mask id="mask1_28_12832" style="mask-type:luminance" maskUnits="userSpaceOnUse" x="36" y="11" width="216" height="266">
<path d="M251.398 11.4004H36.8984V276.9H251.398V11.4004Z" fill="white"/>
</mask>
<g mask="url(#mask1_28_12832)">
<path fill-rule="evenodd" clip-rule="evenodd" d="M161.131 235.95L173.076 158.376L172.878 158.349C172.704 159.462 171.906 161.657 168.331 162.033C164.103 162.477 163.178 158.837 163.012 157.912L162.788 157.956L151.031 236.556L150.836 237.213L152.046 237.573L156.863 239.01L161.488 236.654L161.131 235.95ZM168.625 165.114C168.65 164.816 168.428 164.554 168.13 164.53C167.832 164.505 167.57 164.727 167.546 165.025C165.722 187.274 162.672 209.404 158.412 231.317C158.355 231.611 158.547 231.895 158.84 231.952C159.134 232.009 159.418 231.817 159.475 231.524C163.743 209.572 166.798 187.402 168.625 165.114Z" fill="url(#paint0_linear_28_12832)"/>
<path d="M211.913 135.88L215.74 133.739L212.599 151.396C209.666 151.241 207.413 163.363 207.33 169.04L207.334 169.058C204.543 169.691 201.846 170.684 199.31 172.011C198.278 172.557 197.248 173.174 196.515 174.084C195.782 174.994 195.399 176.261 195.8 177.359C196.201 178.457 197.848 179.367 198.92 178.898L198.938 178.93C198.855 178.973 198.776 179.024 198.693 179.071C197.165 179.988 195.548 181.389 195.735 183.159C195.912 184.805 198.151 185.885 199.613 185.112L199.624 185.13C199.166 185.394 198.714 185.665 198.263 185.94C197.627 186.327 196.973 186.75 196.591 187.388C196.209 188.026 196.187 188.952 196.746 189.446C197.273 189.912 198.071 189.84 198.761 189.716C201.129 189.333 203.456 188.731 205.712 187.918L205.802 188.16L202.73 206.186L200.957 216.579L161.489 236.656L161.132 235.952L173.076 158.376L172.878 158.346C172.912 158.132 172.926 157.914 172.921 157.697L211.913 135.88Z" fill="url(#paint1_linear_28_12832)"/>
<path d="M190.691 118.251C191.044 118.301 191.4 118.32 191.756 118.308L191.77 118.698C191.532 120.288 190.925 122.649 189.398 123.36C188.434 123.808 187.298 123.656 186.238 123.494C184.79 123.274 183.341 123.053 181.891 122.829C180.923 122.685 179.851 122.475 179.291 121.717C178.709 120.927 179.153 119.904 179.367 118.957C179.563 118.146 179.8 117.345 180.078 116.557C180.947 116.871 181.852 117.076 182.772 117.168L190.691 118.251Z" fill="url(#paint2_linear_28_12832)"/>
<path d="M178.882 112.419C179.422 112.82 180.251 112.954 181.392 113.047C185.093 113.354 188.827 113.467 192.539 113.677C193.022 113.719 193.509 113.711 193.991 113.652L194.987 113.677C195.359 115.777 194.886 117.75 193.359 118.108C192.833 118.232 192.295 118.3 191.755 118.31C191.399 118.321 191.043 118.302 190.69 118.252L182.77 117.169C181.851 117.078 180.946 116.873 180.077 116.559C179.661 116.394 179.275 116.161 178.937 115.869C177.926 114.984 177.698 113.193 178.85 112.464L178.882 112.419Z" fill="url(#paint3_linear_28_12832)"/>
<path d="M99.888 267.147C98.1372 265.796 96.7926 263.99 96.0021 261.924C95.2119 259.859 95.0064 257.616 95.4084 255.442C95.8104 253.268 96.8042 251.246 98.2808 249.601C99.7574 247.955 101.659 246.748 103.777 246.113C104.47 246.083 105.164 246.069 105.843 246.062C113.473 245.965 121.101 245.868 128.729 245.773C131.206 245.741 133.961 246.059 136.316 245.131L136.341 245.191C139.039 244.238 142.397 244.938 145.058 246.465L144.979 246.606C141.476 248.029 137.659 248.17 133.842 248.007C132.372 247.947 130.902 247.838 129.451 247.744C128.386 247.672 127.306 247.614 126.227 247.589C123.227 247.505 120.211 247.664 117.419 248.506C116.272 248.845 115.167 249.315 114.126 249.907C111.364 251.492 109.024 254.554 109.739 257.656C110.335 260.241 112.808 261.935 115.238 263C116.273 263.452 117.334 263.84 118.416 264.163C121.167 264.97 124.008 265.429 126.873 265.528C128.981 265.613 131.093 265.551 133.192 265.344C134.456 265.221 135.716 265.055 136.969 264.853C141.729 264.087 146.412 262.813 151.069 261.545L151.301 261.581C150.853 264.223 149.991 266.778 148.744 269.15L148.864 269.948C145.799 270.414 142.724 270.815 139.642 271.15C129.126 272.309 118.376 272.797 108.063 270.435C105.196 269.778 102.297 268.845 99.7365 267.424L99.888 267.147Z" fill="url(#paint4_linear_28_12832)"/>
<path d="M125.353 85.8024C126.476 84.7641 127.811 83.9823 129.265 83.5116C130.72 83.0406 132.26 82.8921 133.778 83.076C134.399 83.1555 135.081 83.3361 135.414 83.8704C135.545 84.1152 135.609 84.3903 135.6 84.6678C135.591 84.9456 135.51 85.2159 135.363 85.452C135.064 85.9194 134.67 86.3193 134.208 86.6256C132.952 87.5622 131.584 88.3365 130.134 88.9296C131.844 88.5033 133.879 88.6659 135.587 89.0991C136.381 89.2977 137.27 89.724 137.414 90.5292C137.566 91.3923 136.768 92.1192 136.002 92.544C133.283 94.0608 130.122 94.2375 126.975 93.894C125.562 93.7314 124.16 93.4977 122.772 93.1935C118.352 92.2581 113.742 91.0737 109.4 92.3196C107.714 92.8035 106.027 93.7569 105.309 95.3565C104.825 96.4398 104.843 97.6746 104.872 98.8626C104.94 101.705 105.01 104.545 105.082 107.385H105.017C104.323 108.013 103.988 108.93 103.612 109.79C103.236 110.649 102.738 111.534 101.886 111.927C101.675 112.041 101.437 112.096 101.197 112.086C100.958 112.076 100.725 112.001 100.525 111.87C100.095 111.53 100.048 110.902 100.08 110.353C100.134 109.501 100.293 108.66 100.554 107.847C100.338 108.156 100.072 108.426 99.7664 108.645C98.8997 109.252 97.4807 109.172 97.0148 108.225C96.6248 107.427 97.0691 106.495 97.4807 105.708C99.1778 102.447 100.416 98.898 100.661 95.2326C100.744 93.9795 100.711 92.7156 100.921 91.4805C101.13 90.2454 101.611 88.9998 102.541 88.1586C103.591 87.2124 105.065 86.9019 106.477 86.7864C108.835 86.595 111.204 86.8464 113.569 86.7537C115.934 86.661 118.379 86.1762 120.242 84.7173C121.878 83.439 122.986 81.4746 124.871 80.6043C125.64 80.2467 126.749 80.2071 127.15 80.9547C127.321 81.3648 127.338 81.8232 127.197 82.2447C126.876 83.5581 126.224 84.7668 125.301 85.7547L125.353 85.8024Z" fill="#171717"/>
<path d="M120.39 190.615C119.74 189.005 117.851 189.015 116.143 189.337L116.136 189.315C116.522 189.185 116.908 189.048 117.295 188.907C118.096 188.615 118.915 188.297 119.548 187.723C120.182 187.149 120.592 186.249 120.364 185.426C120.122 184.57 119.256 184.014 118.378 183.873C117.501 183.733 116.608 183.931 115.742 184.126C112.926 184.758 110.105 185.535 107.289 186.202L107.285 186.181C107.383 185.641 107.462 185.108 107.531 184.581H107.542L112.001 145.207L115.403 146.041L162.983 157.697C162.983 157.697 162.99 157.773 163.015 157.91L162.791 157.954L151.034 236.554L150.839 237.211L103.079 222.951L103.563 218.592L105.119 204.513L105.105 204.34C108.866 204.047 112.572 203.262 116.129 202.004C117.324 201.574 118.523 201.057 119.429 200.174C120.335 199.29 120.895 197.946 120.545 196.729C120.194 195.512 118.475 194.479 117.324 195.01L117.309 194.97C118.145 194.679 118.913 194.22 119.566 193.62C120.349 192.847 120.797 191.637 120.39 190.615Z" fill="url(#paint5_linear_28_12832)"/>
<path d="M55.0719 210.302C59.4414 213.058 64.8903 213.346 70.0611 213.346C73.1307 213.346 76.2795 213.245 79.4535 213.058L79.4571 213.094C101.336 218.088 101.676 218.131 103.207 218.554L103.561 218.593L103.077 222.952L150.837 237.212L152.046 237.572L152.016 237.669C148.131 239.199 139.201 243.656 137.041 244.801C136.807 244.926 136.564 245.036 136.315 245.131C133.961 246.059 131.206 245.741 128.729 245.774C121.099 245.871 113.47 245.968 105.842 246.063C105.163 246.07 104.47 246.085 103.777 246.113C100.52 246.251 97.2156 246.749 94.8216 248.869C93.0702 250.418 92.1855 252.602 92.0316 254.913L91.7787 254.899C78.6129 254.96 66.2958 253.119 53.6031 249.612C48.1578 248.107 42.3477 245.933 39.4626 241.076C37.1913 237.245 37.2201 232.457 38.1048 228.091C39.3 222.176 42.2322 216.377 47.2479 213.015C52.8666 209.252 54.7779 210.144 54.7779 210.144L54.7923 210.119C54.8841 210.183 54.978 210.24 55.0719 210.302Z" fill="#171717"/>
<path d="M119.009 129.087C117.406 127.39 118.259 123.417 119.836 121.696C121.413 119.974 124.075 119.468 125.318 117.489C126.574 115.492 126.199 112.311 126.303 109.956C126.538 104.623 126.759 99.2907 126.968 93.9597" stroke="#171717" stroke-width="1.0833" stroke-linecap="round" stroke-linejoin="round"/>
<path d="M122.981 101.297C122.128 101.048 121.277 100.799 120.428 100.55" stroke="#171717" stroke-width="1.0833" stroke-linecap="round" stroke-linejoin="round"/>
<path d="M123.728 96.5055C121.595 96.0141 119.384 95.9673 117.232 96.3681C116.966 101.103 117.645 105.844 119.229 110.314C118.902 110.644 118.486 110.869 118.032 110.963C117.578 111.057 117.106 111.014 116.676 110.841" stroke="#171717" stroke-width="1.0833" stroke-linecap="round" stroke-linejoin="round"/>
<path d="M113.783 100.091C112.62 99.741 111.379 99.741 110.216 100.091" stroke="#171717" stroke-width="1.0833" stroke-linecap="round" stroke-linejoin="round"/>
<path d="M114.548 118.171C112.966 118.211 111.423 117.682 110.198 116.679" stroke="#171717" stroke-width="1.0833" stroke-linecap="round" stroke-linejoin="round"/>
<path d="M83.7251 160.77C78.497 164.098 74.4197 168.954 72.0473 174.68C70.6136 178.154 70.1189 182.765 73.0403 185.13C74.7842 186.542 77.2145 186.668 79.4603 186.672C85.6076 186.686 91.7483 186.282 97.8404 185.462C97.8704 186.105 97.898 186.744 97.9304 187.387C98.1941 193.114 98.459 198.842 98.7251 204.572C98.8229 206.713 98.9216 208.855 99.0212 210.996" stroke="#171717" stroke-width="1.0833" stroke-linecap="round" stroke-linejoin="round"/>
<path d="M99.0221 210.996C92.7221 211.924 86.0369 212.671 79.454 213.058C76.28 213.245 73.1312 213.346 70.0616 213.346C64.8908 213.346 59.4416 213.058 55.0724 210.302C54.9785 210.242 54.8846 210.182 54.7907 210.118C50.4647 207.255 47.9009 202.348 46.1894 197.433C43.2392 188.976 42.2714 179.667 44.561 171.007C47.6996 159.131 56.8346 149.374 67.7723 143.784C77.717 138.7 89.0231 136.797 100.221 136.858C101.341 136.862 102.458 136.886 103.572 136.93" stroke="#171717" stroke-width="1.0833" stroke-linecap="round" stroke-linejoin="round"/>
<path d="M100.221 136.678C99.8451 135.526 99.4623 134.349 99.4875 133.136C99.5127 131.923 100.026 130.655 101.069 130.037C101.853 129.575 102.803 129.539 103.709 129.514C104.345 129.496 104.984 129.481 105.619 129.463L119.009 129.106C119.587 129.091 120.168 129.073 120.746 129.059C122.703 129.008 124.761 128.979 126.487 129.908C128.213 130.836 128.972 132.915 128.051 134.642" stroke="#171717" stroke-width="1.0833" stroke-linecap="round" stroke-linejoin="round"/>
<path d="M124.299 134.948C125.541 134.865 126.793 134.792 128.054 134.728C148.612 133.695 171.628 135.259 190.933 141.47" stroke="#171717" stroke-width="1.0833" stroke-linecap="round" stroke-linejoin="round"/>
<path d="M107.41 185.737L107.54 184.581L112 145.207L115.401 146.041L162.981 157.697C162.981 157.697 162.988 157.773 163.014 157.91C163.18 158.835 164.104 162.475 168.333 162.031C171.908 161.655 172.706 159.46 172.879 158.347C172.913 158.132 172.928 157.915 172.922 157.697L211.914 135.88L215.742 133.739L212.6 151.396" stroke="#171717" stroke-width="1.0833" stroke-linecap="round" stroke-linejoin="round"/>
<path d="M205.802 188.16L202.729 206.186L200.956 216.578L161.488 236.656L156.862 239.01L152.045 237.573L150.835 237.211L103.076 222.952L103.56 218.593L105.116 204.514" stroke="#171717" stroke-width="1.0833" stroke-linecap="round" stroke-linejoin="round"/>
<path d="M162.789 157.954L151.031 236.555" stroke="#171717" stroke-width="1.0833" stroke-linecap="round" stroke-linejoin="round"/>
<path d="M173.113 158.145L173.076 158.376L161.131 235.951" stroke="#171717" stroke-width="1.0833" stroke-linecap="round" stroke-linejoin="round"/>
<path d="M115.185 146.164L115.401 146.041L119.139 143.932L166.038 155.404L191.023 141.632L205.803 133.482L211.912 135.88L212.089 135.948" stroke="#171717" stroke-width="1.0833" stroke-linecap="round" stroke-linejoin="round"/>
<path d="M207.329 169.039C207.412 163.363 209.666 151.241 212.598 151.396C214.977 151.666 213.984 156.123 213.612 158.672C212.892 163.608 213.833 168.628 213.75 173.615C213.667 178.602 212.229 184.036 208.117 186.856" stroke="#171717" stroke-width="1.0833" stroke-linecap="round" stroke-linejoin="round"/>
<path d="M208.117 186.856C207.337 187.257 206.534 187.612 205.712 187.918C203.456 188.731 201.129 189.333 198.761 189.716C198.071 189.839 197.273 189.911 196.746 189.446C196.186 188.951 196.206 188.031 196.591 187.388C196.975 186.745 197.627 186.326 198.263 185.94C198.713 185.665 199.166 185.394 199.624 185.13C202.822 183.277 206.165 181.686 209.619 180.371" stroke="#171717" stroke-width="1.0833" stroke-linecap="round" stroke-linejoin="round"/>
<path d="M199.642 185.097C199.631 185.101 199.624 185.108 199.612 185.112C198.149 185.885 195.911 184.805 195.734 183.158C195.546 181.388 197.163 179.988 198.691 179.071C198.774 179.024 198.853 178.973 198.936 178.93C202.305 176.951 206.019 175.632 209.881 175.044" stroke="#171717" stroke-width="1.0833" stroke-linecap="round" stroke-linejoin="round"/>
<path d="M198.919 178.897C197.847 179.367 196.197 178.457 195.799 177.359C195.402 176.262 195.785 174.994 196.515 174.084C197.244 173.174 198.277 172.557 199.309 172.011C201.845 170.684 204.542 169.691 207.333 169.057C208.511 168.787 209.702 168.584 210.903 168.447" stroke="#171717" stroke-width="1.0833" stroke-linecap="round" stroke-linejoin="round"/>
<path d="M107.283 186.18C107.381 185.64 107.46 185.108 107.529 184.581C107.731 182.996 107.814 181.446 107.883 179.753C107.908 179.106 108.089 178.388 107.684 177.882C107.15 177.218 106.027 177.384 105.404 177.969C104.782 178.554 104.512 179.409 104.195 180.204C102.964 183.229 100.759 185.756 97.9299 187.386C97.8936 187.408 97.8576 187.426 97.8213 187.448" stroke="#171717" stroke-width="1.0833" stroke-linecap="round" stroke-linejoin="round"/>
<path d="M106.139 186.47C106.522 186.383 106.905 186.293 107.288 186.203C110.104 185.535 112.924 184.758 115.741 184.126C116.607 183.931 117.499 183.733 118.377 183.874C119.254 184.015 120.121 184.571 120.363 185.427C120.591 186.25 120.179 187.145 119.547 187.723C118.915 188.301 118.095 188.615 117.294 188.907C116.907 189.048 116.521 189.186 116.134 189.315C112.396 190.61 108.566 191.624 104.677 192.349" stroke="#171717" stroke-width="1.0833" stroke-linecap="round" stroke-linejoin="round"/>
<path d="M116.141 189.337C117.849 189.016 119.738 189.005 120.388 190.615C120.796 191.637 120.348 192.847 119.565 193.62C118.912 194.219 118.144 194.678 117.308 194.97C117.105 195.053 116.9 195.129 116.697 195.205C112.972 196.572 109.114 197.545 105.186 198.108" stroke="#171717" stroke-width="1.0833" stroke-linecap="round" stroke-linejoin="round"/>
<path d="M117.322 195.01C118.474 194.479 120.196 195.512 120.543 196.729C120.889 197.945 120.333 199.285 119.427 200.173C118.521 201.062 117.322 201.574 116.127 202.003C112.57 203.261 108.864 204.046 105.103 204.34C103.016 204.524 100.907 204.589 98.7764 204.567" stroke="#171717" stroke-width="1.0833" stroke-linecap="round" stroke-linejoin="round"/>
<path d="M202.932 206.222C207.919 203.991 211.638 202.56 217.098 202.701C222.558 202.842 228.295 205.767 230.144 210.906C232 216.062 229.567 221.739 226.66 226.382C220.236 236.634 211.295 245.098 201.108 251.688C199.296 252.862 197.447 253.974 195.562 255.025C194.706 255.505 193.843 255.967 192.976 256.419C191.5 257.195 190.007 257.931 188.499 258.629C187.069 259.293 185.628 259.926 184.176 260.528C181.63 261.582 179.052 262.55 176.442 263.431C174.962 263.933 173.472 264.41 171.972 264.861C169.195 265.695 166.395 266.446 163.572 267.114C158.719 268.27 153.804 269.202 148.864 269.949C145.798 270.415 142.724 270.816 139.642 271.152C129.126 272.311 118.376 272.798 108.063 270.437C105.196 269.779 102.297 268.847 99.7365 267.425C97.7322 266.348 95.9661 264.878 94.5438 263.103C92.7507 260.762 91.8588 257.856 92.0307 254.913C92.1858 252.603 93.0705 250.417 94.8207 248.868C97.2147 246.748 100.519 246.25 103.776 246.113C104.469 246.083 105.163 246.069 105.841 246.062C113.471 245.964 121.1 245.868 128.728 245.773C131.205 245.741 133.96 246.058 136.315 245.13C136.563 245.035 136.806 244.925 137.041 244.8C139.201 243.656 148.13 239.2 152.015 237.669" stroke="#171717" stroke-width="1.0833" stroke-linecap="round" stroke-linejoin="round"/>
<path d="M54.7757 210.144C54.7757 210.144 52.8656 209.252 47.2457 213.014C42.2312 216.376 39.299 222.175 38.1038 228.09C37.2191 232.456 37.1903 237.244 39.4616 241.075C42.3467 245.932 48.1568 248.106 53.6021 249.612C66.2948 253.118 78.6119 254.96 91.7777 254.898" stroke="#171717" stroke-width="1.0833" stroke-linecap="round" stroke-linejoin="round"/>
<path d="M103.207 218.554C101.677 218.131 101.336 218.088 79.457 213.094" stroke="#171717" stroke-width="1.0833" stroke-linecap="round" stroke-linejoin="round"/>
<path d="M163.615 267.302C169.729 271.082 176.142 273.405 183.194 274.795C184.541 275.062 185.909 275.279 187.282 275.423C191.005 275.817 194.774 275.679 198.313 274.517C203.156 272.927 207.489 269.122 208.63 264.153C209.648 259.719 206.922 254.493 202.813 252.511C202.321 252.272 201.807 252.082 201.278 251.944" stroke="#171717" stroke-width="1.0833" stroke-linecap="round" stroke-linejoin="round"/>
<path d="M105.619 129.488V129.463C105.439 122.103 105.26 114.744 105.081 107.386C105.009 104.544 104.939 101.703 104.871 98.8635C104.841 97.6755 104.824 96.4407 105.308 95.3574C106.028 93.7578 107.713 92.8044 109.399 92.3205C113.74 91.0746 118.351 92.2605 122.771 93.1944C124.159 93.4983 125.562 93.7323 126.974 93.8949C130.124 94.2381 133.283 94.0611 136.001 92.5449C136.767 92.1189 137.565 91.3932 137.413 90.5301C137.269 89.7249 136.381 89.3001 135.586 89.1C133.878 88.6668 131.845 88.5042 130.134 88.9305" stroke="#171717" stroke-width="1.0833" stroke-linecap="round" stroke-linejoin="round"/>
<path d="M130.135 88.9296C131.584 88.3365 132.953 87.5622 134.208 86.6256C134.671 86.3193 135.064 85.9197 135.363 85.452C135.51 85.2162 135.592 84.9456 135.601 84.6681C135.609 84.3903 135.545 84.1152 135.414 83.8704C135.082 83.3361 134.399 83.1555 133.778 83.076C132.26 82.8921 130.72 83.0406 129.266 83.5116C127.811 83.9823 126.476 84.7641 125.354 85.8024C125.469 85.7013 125.585 85.6038 125.704 85.5063" stroke="#171717" stroke-width="1.0833" stroke-linecap="round" stroke-linejoin="round"/>
<path d="M100.553 107.844C100.924 107.278 101.23 106.671 101.463 106.035" stroke="#171717" stroke-width="1.0833" stroke-linecap="round" stroke-linejoin="round"/>
<path d="M125.165 85.9036C125.212 85.8529 125.259 85.8061 125.302 85.7554C126.225 84.7675 126.878 83.5588 127.198 82.2454C127.339 81.8239 127.322 81.3655 127.151 80.9554C126.75 80.2078 125.641 80.2474 124.872 80.605C122.987 81.475 121.879 83.4397 120.243 84.718C118.38 86.1769 115.931 86.6608 113.57 86.7547C111.208 86.8486 108.836 86.5957 106.478 86.7871C105.066 86.9026 103.593 87.2131 102.542 88.1593C101.61 88.9993 101.13 90.2428 100.922 91.4815C100.714 92.7202 100.745 93.9802 100.662 95.2333C100.416 98.8984 99.1775 102.448 97.4816 105.709C97.07 106.496 96.6257 107.427 97.0157 108.226C97.4816 109.172 98.9006 109.251 99.7673 108.646C100.073 108.426 100.34 108.157 100.555 107.848" stroke="#171717" stroke-width="1.0833" stroke-linecap="round" stroke-linejoin="round"/>
<path d="M101.34 106.02C101.02 106.602 100.756 107.212 100.553 107.844V107.848C100.292 108.66 100.133 109.502 100.079 110.353C100.047 110.902 100.094 111.531 100.524 111.87C100.724 112.002 100.957 112.077 101.196 112.087C101.436 112.097 101.674 112.042 101.885 111.928C102.737 111.534 103.235 110.646 103.611 109.79C103.987 108.934 104.322 108.013 105.016 107.385" stroke="#171717" stroke-width="1.0833" stroke-linecap="round" stroke-linejoin="round"/>
<path d="M180.078 116.557C179.8 117.345 179.563 118.146 179.367 118.957C179.153 119.903 178.709 120.925 179.291 121.717C179.85 122.475 180.923 122.685 181.891 122.829C183.339 123.053 184.788 123.275 186.238 123.494C187.296 123.656 188.434 123.808 189.398 123.36C190.925 122.649 191.532 120.287 191.77 118.698" stroke="#171717" stroke-width="1.0833" stroke-linecap="round" stroke-linejoin="round"/>
<path d="M178.85 112.462C177.698 113.192 177.926 114.982 178.937 115.867C179.275 116.16 179.661 116.393 180.077 116.557C180.946 116.872 181.851 117.076 182.77 117.168L190.69 118.251C191.043 118.301 191.4 118.32 191.756 118.309C192.296 118.299 192.833 118.231 193.359 118.107C194.887 117.749 195.36 115.777 194.988 113.676" stroke="#171717" stroke-width="1.0833" stroke-linecap="round" stroke-linejoin="round"/>
<path d="M178.883 112.419C179.423 112.82 180.251 112.954 181.392 113.047C185.094 113.354 188.827 113.467 192.539 113.677C193.023 113.719 193.509 113.711 193.991 113.652C194.225 113.617 194.453 113.55 194.67 113.453C195.471 113.043 196.1 112.359 196.44 111.525C198.48 107.036 198.36 106.412 204.063 101.605C223.017 85.6232 215.488 70.811 202.626 68.861C192.984 67.3985 170.419 72.0279 177.07 91.2564C181.772 104.848 178.092 107.741 178.096 110.257C178.095 111.376 178.352 112.029 178.883 112.419Z" stroke="#171717" stroke-width="1.0833" stroke-linecap="round" stroke-linejoin="round"/>
<path d="M191.297 111.426C193.73 106.053 196.165 100.678 198.599 95.3027C198.873 94.6997 199.191 94.0499 199.805 93.7463C200.393 93.4577 201.101 93.5588 201.762 93.5153C202.396 93.4697 203.013 93.29 203.572 92.9879C204.131 92.6861 204.619 92.2688 205.005 91.7639C205.334 91.355 205.563 90.8741 205.672 90.3602C205.78 89.846 205.766 89.3138 205.629 88.8065C205.461 88.2941 205.135 87.8483 204.698 87.533C204.261 87.2177 203.735 87.0491 203.195 87.0515C202.098 87.0986 201.098 88.1276 201.3 89.1497C201.346 89.4137 201.474 89.6564 201.667 89.8427C201.86 90.029 202.107 90.149 202.372 90.1859C202.921 90.2294 203.477 89.6984 203.311 89.2037" stroke="#171717" stroke-width="1.0833" stroke-linecap="round" stroke-linejoin="round"/>
<path d="M182.082 111.339C184.217 104.065 185.762 96.6314 186.704 89.1092C185.603 89.0408 184.931 87.5927 185.621 86.7731C186.311 85.9535 187.957 86.2421 188.275 87.2459" stroke="#171717" stroke-width="1.0833" stroke-linecap="round" stroke-linejoin="round"/>
<path d="M190.159 87.7527C189.932 88.7781 190.867 89.7747 191.936 90.0384C193.005 90.3021 194.142 90.0204 195.189 89.6736C196.236 89.3268 197.291 88.908 198.396 88.9044" stroke="#171717" stroke-width="1.0833" stroke-linecap="round" stroke-linejoin="round"/>
<path d="M134.536 65.4149C136.85 65.9849 139.338 65.4005 141.411 64.2233C143.538 63.0134 145.333 61.1465 146.221 58.868C148.239 53.6684 143.821 46.4066 137.858 47.0999C132.304 47.7497 127.415 53.9606 128.884 59.4599C129.621 62.2154 131.701 64.7144 134.536 65.4149Z" stroke="#171717" stroke-width="1.0833" stroke-linecap="round" stroke-linejoin="round"/>
<path d="M135.044 44.72C132.78 45.5588 130.815 47.0489 129.397 49.0025C128.723 47.8532 127.754 46.9043 126.591 46.2545L123.211 50.5661L126.634 53.4692" stroke="#171717" stroke-width="1.0833" stroke-linecap="round" stroke-linejoin="round"/>
<path d="M125.724 55.2385C125.75 56.6506 125.775 58.0627 125.8 59.4742C125.83 59.8195 125.789 60.1672 125.68 60.4963C125.251 61.5508 123.676 61.6336 123.062 62.5942C123.781 63.7099 124.5 64.8271 125.218 65.9452C125.327 66.1114 125.453 66.2956 125.648 66.3316C125.845 66.3367 126.036 66.2656 126.182 66.133C127.056 65.5084 127.929 64.8826 128.8 64.2553" stroke="#171717" stroke-width="1.0833" stroke-linecap="round" stroke-linejoin="round"/>
<path d="M129.982 65.9346C130.934 66.7767 132.076 67.3752 133.31 67.6788C134.544 67.9827 135.833 67.9827 137.067 67.6788C137.208 69.0366 137.353 70.3977 137.493 71.7555C139.559 71.3823 141.599 70.8813 143.603 70.2555C143.043 69.1755 142.483 68.0955 141.923 67.0155C141.961 67.029 142.002 67.0347 142.042 67.032C142.082 67.0293 142.122 67.0185 142.158 67.0005C142.194 66.9822 142.226 66.957 142.252 66.9261C142.278 66.8952 142.298 66.8592 142.309 66.8205" stroke="#171717" stroke-width="1.0833" stroke-linecap="round" stroke-linejoin="round"/>
<path d="M143.816 65.3351C144.924 64.8461 145.916 64.1294 146.728 63.2315C147.54 62.3339 148.154 61.2752 148.53 60.1244C148.689 59.6333 148.833 59.0807 149.259 58.7921C150.075 58.2431 151.235 59.0339 152.137 58.6475C152.057 56.546 151.978 54.443 151.899 52.3391C150.881 52.6391 149.866 52.9391 148.848 53.2418" stroke="#171717" stroke-width="1.0833" stroke-linecap="round" stroke-linejoin="round"/>
<path d="M147.716 51.4221C147.543 50.2887 147.079 49.2195 146.369 48.3192C145.66 47.4192 144.728 46.719 143.666 46.2873C143.756 45.063 143.85 43.839 143.94 42.6147L140.154 42.1503C139.865 42.0888 139.564 42.1062 139.284 42.2007C139.108 42.2961 138.961 42.4374 138.858 42.6096C138.756 42.7821 138.702 42.9789 138.703 43.1793C138.71 43.5807 138.791 43.977 138.941 44.3493" stroke="#171717" stroke-width="1.0833" stroke-linecap="round" stroke-linejoin="round"/>
<path d="M136.342 245.192C139.039 244.239 142.397 244.939 145.059 246.467C145.88 246.932 146.644 247.493 147.333 248.138C150.074 250.724 151.457 254.548 151.533 258.314C151.552 259.409 151.475 260.502 151.302 261.582C150.855 264.224 149.992 266.779 148.746 269.151" stroke="#171717" stroke-width="1.0833" stroke-linecap="round" stroke-linejoin="round"/>
<path d="M144.979 246.607C141.477 248.03 137.659 248.171 133.843 248.008C132.373 247.948 130.903 247.839 129.452 247.745C128.387 247.673 127.307 247.615 126.227 247.59C123.227 247.507 120.212 247.666 117.42 248.507C116.272 248.846 115.167 249.316 114.127 249.908C111.365 251.493 109.025 254.555 109.739 257.657C110.335 260.242 112.809 261.936 115.239 263.001C116.274 263.453 117.335 263.841 118.417 264.164C121.167 264.971 124.009 265.43 126.874 265.529C128.982 265.614 131.093 265.553 133.193 265.345C134.457 265.222 135.717 265.056 136.97 264.854C141.729 264.088 146.413 262.814 151.07 261.546" stroke="#171717" stroke-width="1.0833" stroke-miterlimit="10" stroke-linecap="round"/>
<path d="M172.032 265.063C173.326 265.636 174.647 266.141 175.992 266.576C178.327 267.332 180.721 267.891 183.149 268.248C184.233 268.411 185.323 268.533 186.414 268.62C187.978 268.766 189.552 268.763 191.115 268.613C192.245 268.499 193.356 268.24 194.419 267.84C196.943 266.873 199.175 264.803 199.717 262.153C200.258 259.502 198.658 256.415 196.015 255.848" stroke="#171717" stroke-width="1.0833" stroke-miterlimit="10" stroke-linecap="round"/>
<path d="M136.966 264.836C137.921 262.042 138.135 259.048 137.585 256.147C137.036 253.246 135.742 250.538 133.832 248.287" stroke="#171717" stroke-width="1.0833" stroke-miterlimit="10" stroke-linecap="round"/>
<path d="M126.891 265.143C129.819 259.994 129.541 253.183 126.205 248.287" stroke="#171717" stroke-width="1.0833" stroke-miterlimit="10" stroke-linecap="round"/>
<path d="M118.423 264.142C119.578 261.692 120.096 258.991 119.929 256.287C119.762 253.584 118.917 250.966 117.47 248.677" stroke="#171717" stroke-width="1.0833" stroke-miterlimit="10" stroke-linecap="round"/>
<path d="M193.049 256.17C193.024 256.253 193.003 256.336 192.977 256.419C191.872 260.267 191.233 264.234 191.074 268.234" stroke="#171717" stroke-width="1.0833" stroke-miterlimit="10" stroke-linecap="round"/>
<path d="M183.154 268.23C183.505 265.685 183.854 263.138 184.202 260.59" stroke="#171717" stroke-width="1.0833" stroke-miterlimit="10" stroke-linecap="round"/>
<path d="M176.063 266.367C176.011 265.487 176.187 264.609 176.573 263.817" stroke="#171717" stroke-width="1.0833" stroke-miterlimit="10" stroke-linecap="round"/>
<path d="M103.829 246.098C103.811 246.102 103.796 246.109 103.778 246.113C101.66 246.748 99.7584 247.954 98.2818 249.601C96.8052 251.246 95.8113 253.268 95.4093 255.442C95.0073 257.616 95.2128 259.859 96.003 261.924C96.7935 263.989 98.1381 265.796 99.8889 267.147C99.9828 267.219 100.077 267.291 100.174 267.36" stroke="#171717" stroke-width="1.0833" stroke-miterlimit="10" stroke-linecap="round"/>
<path d="M187.268 275.568C191.46 276.073 195.739 276.468 199.877 275.625C204.015 274.783 208.049 272.52 210.1 268.83C210.941 267.314 211.418 265.623 211.493 263.892C211.569 262.16 211.24 260.434 210.533 258.851C209.826 257.268 208.76 255.871 207.421 254.771C206.081 253.671 204.503 252.897 202.813 252.512C202.777 252.501 202.741 252.494 202.704 252.487" stroke="#171717" stroke-width="1.0833" stroke-miterlimit="10" stroke-linecap="round"/>
<path d="M122.197 164.75L150.063 171.376" stroke="#171717" stroke-width="1.0833" stroke-linecap="round" stroke-linejoin="round"/>
<path d="M126.953 171.719L144.626 176.305" stroke="#171717" stroke-width="1.0833" stroke-linecap="round" stroke-linejoin="round"/>
<path d="M164.677 166.96L157.032 223.548" stroke="#171717" stroke-width="1.0833" stroke-linecap="round" stroke-linejoin="round"/>
<path d="M82.8015 108.691L86.226 107.592C86.2773 107.575 86.3326 107.575 86.3842 107.591C86.4358 107.607 86.4814 107.638 86.5147 107.68C86.5477 107.723 86.5671 107.775 86.5701 107.829C86.5731 107.883 86.5593 107.936 86.5308 107.982L84.6432 111.042C84.6159 111.086 84.6024 111.138 84.6042 111.19C84.606 111.242 84.6234 111.292 84.6537 111.334L86.7565 114.252C86.788 114.295 86.805 114.348 86.8059 114.402C86.8068 114.455 86.7909 114.508 86.7609 114.553C86.7309 114.598 86.688 114.632 86.6379 114.651C86.5878 114.671 86.5329 114.675 86.4804 114.662L82.986 113.813C82.9353 113.8 82.8823 113.803 82.8334 113.821C82.7845 113.839 82.7421 113.871 82.7112 113.913L80.5866 116.815C80.5548 116.858 80.5104 116.89 80.4597 116.908C80.4087 116.926 80.3535 116.927 80.3019 116.912C80.25 116.897 80.2041 116.867 80.1699 116.825C80.136 116.784 80.1156 116.733 80.1114 116.679L79.8397 113.093C79.8358 113.041 79.8165 112.992 79.7847 112.951C79.7526 112.909 79.7091 112.879 79.6596 112.863L76.2435 111.739C76.1925 111.722 76.1478 111.69 76.1154 111.646C76.083 111.604 76.0647 111.552 76.0626 111.498C76.0608 111.444 76.0755 111.391 76.1046 111.346C76.1337 111.3 76.176 111.265 76.2258 111.245L79.5519 109.878C79.6002 109.858 79.6414 109.825 79.6705 109.781C79.6996 109.738 79.7151 109.687 79.7151 109.635L79.7287 106.039C79.729 105.985 79.7457 105.933 79.7766 105.889C79.8075 105.845 79.8514 105.811 79.9018 105.793C79.9525 105.774 80.0074 105.772 80.0596 105.785C80.1115 105.799 80.1582 105.828 80.193 105.869L82.5205 108.61C82.5544 108.65 82.599 108.678 82.6491 108.693C82.6989 108.707 82.752 108.706 82.8015 108.691Z" stroke="#171717" stroke-width="1.0833" stroke-miterlimit="10"/>
<path d="M207.995 49.6474L213.168 50.7703C213.245 50.7874 213.316 50.8276 213.369 50.8858C213.423 50.9437 213.458 51.0169 213.469 51.0952C213.479 51.1735 213.467 51.253 213.431 51.3238C213.395 51.3943 213.339 51.4525 213.27 51.4903L208.609 54.0004C208.541 54.0367 208.486 54.0922 208.45 54.16C208.414 54.2275 208.399 54.3046 208.407 54.3808L208.937 59.6482C208.945 59.7271 208.928 59.8063 208.89 59.8756C208.851 59.9449 208.793 60.0007 208.721 60.0355C208.65 60.0703 208.57 60.0823 208.491 60.0703C208.413 60.058 208.34 60.022 208.283 59.9674L204.456 56.3104C204.4 56.2576 204.33 56.2222 204.255 56.209C204.179 56.1958 204.101 56.2051 204.031 56.2357L199.186 58.3681C199.113 58.3999 199.032 58.4086 198.955 58.3933C198.877 58.378 198.806 58.3393 198.751 58.2823C198.695 58.2253 198.659 58.1527 198.647 58.0744C198.634 57.9961 198.645 57.916 198.68 57.8446L200.975 53.0746C201.008 53.0053 201.02 52.9282 201.01 52.8523C200.999 52.7764 200.966 52.7053 200.915 52.648L197.39 48.6985C197.337 48.6394 197.303 48.5653 197.294 48.4867C197.284 48.4078 197.299 48.328 197.336 48.2581C197.374 48.1879 197.431 48.1309 197.502 48.0946C197.573 48.0586 197.653 48.0448 197.731 48.0556L202.978 48.7645C203.054 48.7747 203.131 48.7624 203.2 48.7285C203.269 48.6949 203.326 48.6418 203.365 48.5755L206.031 44.0023C206.071 43.9339 206.131 43.8793 206.203 43.8457C206.275 43.8124 206.355 43.8019 206.433 43.8157C206.512 43.8295 206.584 43.8667 206.64 43.9225C206.696 43.9786 206.734 44.0503 206.748 44.1283L207.695 49.3369C207.709 49.4125 207.745 49.4821 207.798 49.5376C207.851 49.5928 207.92 49.6309 207.995 49.6474Z" stroke="#171717" stroke-width="1.0833" stroke-miterlimit="10"/>
<path d="M221.604 132.464L250.662 106.719" stroke="#171717" stroke-width="1.0833" stroke-linecap="round" stroke-linejoin="round"/>
<path d="M217.781 127.366L221.095 120.484" stroke="#171717" stroke-width="1.0833" stroke-linecap="round" stroke-linejoin="round"/>
<path d="M212.173 126.091L214.467 100.857" stroke="#171717" stroke-width="1.0833" stroke-linecap="round" stroke-linejoin="round"/>
<path d="M221.095 141.385L227.977 141.64" stroke="#171717" stroke-width="1.0833" stroke-linecap="round" stroke-linejoin="round"/>
<path d="M221.35 149.287L242.761 165.855" stroke="#171717" stroke-width="1.0833" stroke-linecap="round" stroke-linejoin="round"/>
<path d="M231.299 229.842C233.472 227.217 234.997 224.118 235.751 220.795C236.504 217.472 236.466 214.018 235.637 210.713" stroke="url(#paint6_linear_28_12832)" stroke-width="1.0833" stroke-linecap="round" stroke-linejoin="round"/>
<path fill-rule="evenodd" clip-rule="evenodd" d="M152.017 237.67C148.131 239.202 139.202 243.657 137.042 244.802C136.807 244.927 136.564 245.037 136.315 245.132L136.341 245.192C139.038 244.239 142.396 244.939 145.058 246.467C145.879 246.932 146.643 247.493 147.333 248.139C150.074 250.724 151.457 254.548 151.533 258.314C151.552 259.408 151.474 260.502 151.301 261.582C150.854 264.224 149.991 266.779 148.745 269.151L148.865 269.949C153.805 269.202 158.719 268.27 163.573 267.114C166.396 266.446 169.196 265.695 171.973 264.861C173.473 264.41 174.962 263.933 176.443 263.431C179.053 262.55 181.631 261.582 184.177 260.528C185.629 259.926 187.07 259.293 188.5 258.629C190.008 257.931 191.5 257.195 192.977 256.419C193.844 255.967 194.707 255.505 195.563 255.025C197.448 253.974 199.297 252.862 201.109 251.688C211.296 245.098 220.237 236.634 226.661 226.382C229.567 221.739 232.001 216.062 230.145 210.906C228.296 205.767 222.559 202.842 217.099 202.701C211.639 202.56 207.919 203.991 202.933 206.222L202.731 206.186L200.958 216.579L161.489 236.656L156.864 239.01L152.047 237.573L152.017 237.67ZM227.475 210.989C227.402 210.699 227.108 210.523 226.818 210.596C226.528 210.668 226.351 210.963 226.424 211.253C226.829 212.87 227.042 214.328 226.907 216.032C226.772 217.743 226.283 219.733 225.244 222.404C223.68 226.428 221.593 228.663 219.696 230.695C219.099 231.335 218.52 231.955 217.982 232.605C217.791 232.835 217.823 233.176 218.054 233.367C218.284 233.558 218.626 233.526 218.817 233.295C219.301 232.71 219.844 232.129 220.42 231.513C222.336 229.463 224.606 227.034 226.254 222.796C227.316 220.067 227.841 217.97 227.987 216.118C228.135 214.259 227.898 212.677 227.475 210.989Z" fill="#171717"/>
<path d="M150.073 145.05C157.45 137.73 158.375 124.853 152.118 116.555C148.881 112.261 143.995 109.066 142.12 104.026C139.756 97.6725 142.981 90.6486 146.8 85.0461C150.619 79.4436 155.265 73.938 156.12 67.2129" stroke="url(#paint7_linear_28_12832)" stroke-width="1.0833" stroke-linecap="round" stroke-linejoin="round"/>
<path d="M173.459 145.292C172.217 141.166 174.979 136.738 178.605 134.409C182.23 132.081 186.585 131.259 190.695 129.969C193.8 128.994 196.862 127.702 199.377 125.636C201.892 123.57 203.825 120.645 204.163 117.408" stroke="url(#paint8_linear_28_12832)" stroke-width="1.0833" stroke-linecap="round" stroke-linejoin="round"/>
<path d="M109.358 72.9123L103.24 66.7944" stroke="url(#paint9_linear_28_12832)" stroke-width="1.0833" stroke-linecap="round" stroke-linejoin="round"/>
<path d="M103.529 73.5482L108.163 65.9282" stroke="url(#paint10_linear_28_12832)" stroke-width="1.0833" stroke-linecap="round" stroke-linejoin="round"/>
<path d="M224.866 96.9456L231.785 92.9304" stroke="url(#paint11_linear_28_12832)" stroke-width="1.0833" stroke-linecap="round" stroke-linejoin="round"/>
<path d="M229.456 99.0867C228.767 96.582 227.766 94.1739 226.478 91.9185" stroke="url(#paint12_linear_28_12832)" stroke-width="1.0833" stroke-linecap="round" stroke-linejoin="round"/>
<path d="M92.1176 94.9941C91.0976 93.7197 90.0776 92.4453 89.0576 91.1709" stroke="url(#paint13_linear_28_12832)" stroke-width="1.0833" stroke-linecap="round" stroke-linejoin="round"/>
<path d="M88.0244 95.4902C89.555 93.7922 91.0859 92.0942 92.6168 90.3962" stroke="url(#paint14_linear_28_12832)" stroke-width="1.0833" stroke-linecap="round" stroke-linejoin="round"/>
<path d="M173.429 49.3682C172.101 47.6279 171.146 45.632 170.625 43.5059" stroke="#171717" stroke-width="1.0833" stroke-linecap="round" stroke-linejoin="round"/>
<path d="M168.89 48.6477C170.421 46.9497 171.952 45.2517 173.483 43.554" stroke="#171717" stroke-width="1.0833" stroke-linecap="round" stroke-linejoin="round"/>
<path d="M146.599 128.011C144.99 127.204 143.685 125.899 142.879 124.291" stroke="#171717" stroke-width="1.0833" stroke-linecap="round" stroke-linejoin="round"/>
<path d="M142.587 128.896C144.138 127.38 145.354 125.557 146.157 123.543" stroke="#171717" stroke-width="1.0833" stroke-linecap="round" stroke-linejoin="round"/>
<path d="M83.9611 195.423L72.4912 196.57L81.7945 205.618L83.9611 195.423Z" stroke="url(#paint15_linear_28_12832)" stroke-width="1.0833" stroke-linecap="round" stroke-linejoin="round"/>
<path d="M57.9621 200.393L62.2953 182.168L49.8057 191.727L57.9621 200.393Z" stroke="url(#paint16_linear_28_12832)" stroke-width="1.0833" stroke-linecap="round" stroke-linejoin="round"/>
<path d="M68.54 165.473L76.442 159.737L69.6872 156.679L68.54 165.473Z" stroke="url(#paint17_linear_28_12832)" stroke-width="1.0833" stroke-linecap="round" stroke-linejoin="round"/>
<path d="M89.4414 169.551L90.0789 180.384L97.9803 174.776L89.4414 169.551Z" stroke="url(#paint18_linear_28_12832)" stroke-width="1.0833" stroke-linecap="round" stroke-linejoin="round"/>
<path d="M98.6182 153.237L89.5693 146.61L100.657 142.277L98.6182 153.237Z" stroke="url(#paint19_linear_28_12832)" stroke-width="1.0833" stroke-linecap="round" stroke-linejoin="round"/>
<path d="M109.96 140.111L118.754 139.219L113.146 134.503L109.96 140.111Z" stroke="url(#paint20_linear_28_12832)" stroke-width="1.0833" stroke-linecap="round" stroke-linejoin="round"/>
<path d="M132.773 138.453L138.381 145.081L143.352 138.198L132.773 138.453Z" stroke="url(#paint21_linear_28_12832)" stroke-width="1.0833" stroke-linecap="round" stroke-linejoin="round"/>
<path d="M164.763 139.729L159.537 150.179L171.772 148.65L164.763 139.729Z" stroke="url(#paint22_linear_28_12832)" stroke-width="1.0833" stroke-linecap="round" stroke-linejoin="round"/>
<path d="M160.695 146.535C166.788 142.591 170.275 134.966 169.271 127.777C168.332 121.048 163.961 115.382 161.105 109.217C156.719 99.7533 156.025 88.2232 160.97 79.0393C166.505 68.7589 177.874 62.9703 184.784 53.5587C187.652 49.6056 189.683 45.1089 190.754 40.3437C191.826 35.5788 191.914 30.6453 191.014 25.8448C190.31 22.2025 188.97 18.574 186.442 15.8593C183.914 13.1446 180.034 11.4967 176.42 12.3346C172.806 13.1725 169.885 16.9066 170.606 20.5456" stroke="#171717" stroke-width="1.0833" stroke-linecap="round" stroke-linejoin="round"/>
<path d="M60.3451 172.384L55.084 170.663" stroke="#171717" stroke-width="1.0833" stroke-linecap="round" stroke-linejoin="round"/>
<path d="M57.1123 173.586C57.4288 171.976 58.0027 170.427 58.8115 168.998" stroke="#171717" stroke-width="1.0833" stroke-linecap="round" stroke-linejoin="round"/>
<path d="M78.9273 150.404L75.3291 147.207" stroke="#171717" stroke-width="1.0833" stroke-linecap="round" stroke-linejoin="round"/>
<path d="M74.4297 150.965C76.1061 149.592 77.6517 148.067 79.0467 146.408" stroke="#171717" stroke-width="1.0833" stroke-linecap="round" stroke-linejoin="round"/>
<path d="M103.4 167.736L98.7891 163.511" stroke="#171717" stroke-width="1.0833" stroke-linecap="round" stroke-linejoin="round"/>
<path d="M98.5469 168.469L101.934 163.703" stroke="#171717" stroke-width="1.0833" stroke-linecap="round" stroke-linejoin="round"/>
<path d="M155.639 148.621C155.132 147.487 154.625 146.353 154.118 145.219" stroke="#171717" stroke-width="1.0833" stroke-linecap="round" stroke-linejoin="round"/>
<path d="M152.759 148.035C154.35 147.445 155.827 146.584 157.125 145.491" stroke="#171717" stroke-width="1.0833" stroke-linecap="round" stroke-linejoin="round"/>
<path d="M69.8569 205.704L66.7969 201.965" stroke="#171717" stroke-width="1.0833" stroke-linecap="round" stroke-linejoin="round"/>
<path d="M66.1191 206.213C67.4223 204.91 68.7249 203.607 70.0275 202.304" stroke="#171717" stroke-width="1.0833" stroke-linecap="round" stroke-linejoin="round"/>
<path d="M219.206 86.6137C220.056 82.4668 219.912 78.1777 218.784 74.0974" stroke="#171717" stroke-width="1.0833" stroke-linecap="round" stroke-linejoin="round"/>
<path d="M118.913 54.7504C118.616 52.3948 118.904 50.002 119.752 47.7841C120.6 45.5662 121.982 43.5916 123.776 42.0352" stroke="#171717" stroke-width="1.0833" stroke-linecap="round" stroke-linejoin="round"/>
<path d="M154.646 62.4097C155.57 60.6454 156.085 58.6963 156.155 56.7058C156.224 54.7156 155.846 52.735 155.048 50.9104" stroke="#171717" stroke-width="1.0833" stroke-linecap="round" stroke-linejoin="round"/>
<path d="M223.146 82.9248C222.887 81.0003 222.628 79.0758 222.369 77.1516" stroke="#171717" stroke-width="1.0833" stroke-linecap="round" stroke-linejoin="round"/>
<path fill-rule="evenodd" clip-rule="evenodd" d="M208.63 264.152C209.649 259.718 206.923 254.493 202.813 252.51C202.321 252.271 201.806 252.081 201.277 251.943L201.107 251.687C199.29 252.861 197.442 253.973 195.56 255.023L196.015 255.847C198.658 256.414 200.258 259.501 199.717 262.152C199.175 264.802 196.943 266.871 194.419 267.839C193.356 268.238 192.245 268.498 191.115 268.612C189.552 268.762 187.978 268.765 186.414 268.619C185.323 268.532 184.233 268.409 183.149 268.247C180.721 267.889 178.327 267.33 175.992 266.575C174.647 266.139 173.325 265.634 172.032 265.062L171.972 264.86C169.192 265.69 166.392 266.441 163.572 267.113L163.616 267.301C169.729 271.081 176.142 273.403 183.194 274.794C184.541 275.062 185.91 275.278 187.282 275.422C191.005 275.815 194.774 275.678 198.314 274.516C203.156 272.927 207.49 269.121 208.63 264.152ZM202.838 256.398C202.601 256.214 202.261 256.257 202.078 256.494C201.894 256.73 201.937 257.07 202.173 257.254C203.134 257.999 203.881 258.984 204.34 260.11C204.799 261.235 204.954 262.462 204.789 263.666C204.748 263.962 204.956 264.235 205.252 264.276C205.549 264.317 205.822 264.109 205.862 263.813C206.053 262.42 205.874 261.002 205.343 259.7C204.812 258.399 203.948 257.26 202.838 256.398Z" fill="url(#paint23_linear_28_12832)"/>
</g>
</g>
</g>
<defs>
<linearGradient id="paint0_linear_28_12832" x1="161.956" y1="157.912" x2="161.956" y2="239.01" gradientUnits="userSpaceOnUse">
<stop stop-color="#FF9A34"/>
<stop offset="1" stop-color="#EB6421"/>
</linearGradient>
<linearGradient id="paint1_linear_28_12832" x1="188.436" y1="133.739" x2="188.436" y2="236.656" gradientUnits="userSpaceOnUse">
<stop stop-color="#FF9A34"/>
<stop offset="1" stop-color="#EB6421"/>
</linearGradient>
<linearGradient id="paint2_linear_28_12832" x1="185.387" y1="116.557" x2="185.387" y2="123.656" gradientUnits="userSpaceOnUse">
<stop stop-color="#FF9A34"/>
<stop offset="1" stop-color="#EB6421"/>
</linearGradient>
<linearGradient id="paint3_linear_28_12832" x1="186.593" y1="112.419" x2="186.593" y2="118.313" gradientUnits="userSpaceOnUse">
<stop stop-color="#FF9A34"/>
<stop offset="1" stop-color="#EB6421"/>
</linearGradient>
<linearGradient id="paint4_linear_28_12832" x1="123.254" y1="244.757" x2="123.254" y2="272.114" gradientUnits="userSpaceOnUse">
<stop stop-color="#FF9A34"/>
<stop offset="1" stop-color="#EB6421"/>
</linearGradient>
<linearGradient id="paint5_linear_28_12832" x1="133.047" y1="145.207" x2="133.047" y2="237.211" gradientUnits="userSpaceOnUse">
<stop stop-color="#FF9A34"/>
<stop offset="1" stop-color="#EB6421"/>
</linearGradient>
<linearGradient id="paint6_linear_28_12832" x1="233.794" y1="210.713" x2="233.794" y2="229.842" gradientUnits="userSpaceOnUse">
<stop stop-color="#FF9A34"/>
<stop offset="1" stop-color="#EB6421"/>
</linearGradient>
<linearGradient id="paint7_linear_28_12832" x1="148.792" y1="67.2129" x2="148.792" y2="145.05" gradientUnits="userSpaceOnUse">
<stop stop-color="#FF9A34"/>
<stop offset="1" stop-color="#EB6421"/>
</linearGradient>
<linearGradient id="paint8_linear_28_12832" x1="188.66" y1="117.408" x2="188.66" y2="145.292" gradientUnits="userSpaceOnUse">
<stop stop-color="#FF9A34"/>
<stop offset="1" stop-color="#EB6421"/>
</linearGradient>
<linearGradient id="paint9_linear_28_12832" x1="106.299" y1="66.7944" x2="106.299" y2="72.9123" gradientUnits="userSpaceOnUse">
<stop stop-color="#FF9A34"/>
<stop offset="1" stop-color="#EB6421"/>
</linearGradient>
<linearGradient id="paint10_linear_28_12832" x1="105.846" y1="65.9282" x2="105.846" y2="73.5482" gradientUnits="userSpaceOnUse">
<stop stop-color="#FF9A34"/>
<stop offset="1" stop-color="#EB6421"/>
</linearGradient>
<linearGradient id="paint11_linear_28_12832" x1="228.326" y1="92.9304" x2="228.326" y2="96.9456" gradientUnits="userSpaceOnUse">
<stop stop-color="#FF9A34"/>
<stop offset="1" stop-color="#EB6421"/>
</linearGradient>
<linearGradient id="paint12_linear_28_12832" x1="227.966" y1="91.9185" x2="227.966" y2="99.0867" gradientUnits="userSpaceOnUse">
<stop stop-color="#FF9A34"/>
<stop offset="1" stop-color="#EB6421"/>
</linearGradient>
<linearGradient id="paint13_linear_28_12832" x1="90.5876" y1="91.1709" x2="90.5876" y2="94.9941" gradientUnits="userSpaceOnUse">
<stop stop-color="#FF9A34"/>
<stop offset="1" stop-color="#EB6421"/>
</linearGradient>
<linearGradient id="paint14_linear_28_12832" x1="90.3206" y1="90.3962" x2="90.3206" y2="95.4902" gradientUnits="userSpaceOnUse">
<stop stop-color="#FF9A34"/>
<stop offset="1" stop-color="#EB6421"/>
</linearGradient>
<linearGradient id="paint15_linear_28_12832" x1="78.226" y1="195.423" x2="78.226" y2="205.618" gradientUnits="userSpaceOnUse">
<stop stop-color="#FF9A34"/>
<stop offset="1" stop-color="#EB6421"/>
</linearGradient>
<linearGradient id="paint16_linear_28_12832" x1="56.0505" y1="182.168" x2="56.0505" y2="200.393" gradientUnits="userSpaceOnUse">
<stop stop-color="#FF9A34"/>
<stop offset="1" stop-color="#EB6421"/>
</linearGradient>
<linearGradient id="paint17_linear_28_12832" x1="72.491" y1="156.679" x2="72.491" y2="165.473" gradientUnits="userSpaceOnUse">
<stop stop-color="#FF9A34"/>
<stop offset="1" stop-color="#EB6421"/>
</linearGradient>
<linearGradient id="paint18_linear_28_12832" x1="93.7107" y1="169.551" x2="93.7107" y2="180.384" gradientUnits="userSpaceOnUse">
<stop stop-color="#FF9A34"/>
<stop offset="1" stop-color="#EB6421"/>
</linearGradient>
<linearGradient id="paint19_linear_28_12832" x1="95.1133" y1="142.277" x2="95.1133" y2="153.237" gradientUnits="userSpaceOnUse">
<stop stop-color="#FF9A34"/>
<stop offset="1" stop-color="#EB6421"/>
</linearGradient>
<linearGradient id="paint20_linear_28_12832" x1="114.357" y1="134.503" x2="114.357" y2="140.111" gradientUnits="userSpaceOnUse">
<stop stop-color="#FF9A34"/>
<stop offset="1" stop-color="#EB6421"/>
</linearGradient>
<linearGradient id="paint21_linear_28_12832" x1="138.063" y1="138.198" x2="138.063" y2="145.081" gradientUnits="userSpaceOnUse">
<stop stop-color="#FF9A34"/>
<stop offset="1" stop-color="#EB6421"/>
</linearGradient>
<linearGradient id="paint22_linear_28_12832" x1="165.654" y1="139.729" x2="165.654" y2="150.179" gradientUnits="userSpaceOnUse">
<stop stop-color="#FF9A34"/>
<stop offset="1" stop-color="#EB6421"/>
</linearGradient>
<linearGradient id="paint23_linear_28_12832" x1="186.208" y1="251.687" x2="186.208" y2="275.62" gradientUnits="userSpaceOnUse">
<stop stop-color="#FF9A34"/>
<stop offset="1" stop-color="#EB6421"/>
</linearGradient>
<clipPath id="clip0_28_12832">
<rect width="288" height="288" fill="white"/>
</clipPath>
</defs>
</svg>
