<svg width="288" height="288" viewBox="0 0 288 288" fill="none" xmlns="http://www.w3.org/2000/svg">
<mask id="mask0_28_12855" style="mask-type:luminance" maskUnits="userSpaceOnUse" x="11" y="46" width="266" height="196">
<path d="M276.599 46.8H11.3994V241.5H276.599V46.8Z" fill="white"/>
</mask>
<g mask="url(#mask0_28_12855)">
<path fill-rule="evenodd" clip-rule="evenodd" d="M119.987 141.666C119.983 141.242 120.066 140.821 120.231 140.43C120.434 140.358 120.647 140.32 120.863 140.316C121.27 140.31 121.665 140.447 121.98 140.704C122.295 140.96 122.51 141.32 122.588 141.719C122.688 142.526 121.915 143.352 121.118 143.202C120.444 143.073 120.011 142.352 119.987 141.666ZM123.878 164.775C125.071 163.628 127.21 162.806 128.86 163.205C129.186 163.284 129.502 163.403 129.799 163.56L129.855 163.455C133.454 154.366 134.44 144.452 132.701 134.833C131.898 130.423 130.408 125.931 127.194 122.811C122.777 118.523 115.53 117.752 110.041 120.533C104.552 123.315 100.958 129.245 100.46 135.38C99.9628 141.515 102.361 147.708 106.419 152.335C109.02 155.297 112.216 157.621 115.418 159.949C117.937 161.78 120.459 163.614 122.697 165.764L123.059 165.875C123.26 165.46 123.538 165.087 123.878 164.775ZM114.73 145.242C114.51 145.652 114.201 146.007 113.824 146.28C113.608 146.122 113.424 145.925 113.28 145.699C112.761 144.884 113.169 143.4 114.115 143.582C114.782 143.712 115.014 144.624 114.73 145.242ZM120.257 122.578C120.028 122.48 119.764 122.585 119.665 122.813C119.567 123.042 119.673 123.306 119.901 123.404C123.229 124.834 125.963 127.366 127.645 130.573C129.327 133.781 129.854 137.47 129.137 141.02C129.088 141.264 129.245 141.501 129.489 141.55C129.733 141.599 129.97 141.442 130.019 141.198C130.777 137.445 130.22 133.546 128.442 130.155C126.664 126.765 123.774 124.089 120.257 122.578Z" fill="url(#paint0_linear_28_12855)"/>
<path d="M259.312 137.037C259.686 137.828 259.584 138.749 259.448 139.611C258.781 143.783 256.154 155.997 250.921 156.81C250.544 154.149 252.386 150.175 253.143 147.545C254.108 144.185 255.155 140.849 256.287 137.537C256.467 137.009 256.682 136.437 257.164 136.15C257.915 135.705 258.941 136.249 259.312 137.037Z" fill="url(#paint1_linear_28_12855)"/>
<path d="M131.236 164.64C132.71 166.099 133.866 168.377 134.84 170.463C135.087 170.995 135.322 171.513 135.551 172.005L135.294 172.125C133.882 175.318 132.469 178.51 131.054 181.703L131.005 181.783C129.704 180.98 128.725 179.747 127.954 178.387C127.636 177.82 127.349 177.236 127.095 176.637C126.829 176.019 126.582 175.389 126.338 174.758L126.4 174.734C127.827 171.331 129.409 167.998 131.144 164.736L131.236 164.64Z" fill="url(#paint2_linear_28_12855)"/>
<path d="M122.589 141.72C122.687 142.527 121.915 143.355 121.119 143.204C120.445 143.074 120.012 142.354 119.987 141.668C119.984 141.243 120.067 140.823 120.232 140.432C120.435 140.36 120.649 140.321 120.865 140.317C121.271 140.312 121.666 140.449 121.982 140.706C122.297 140.962 122.512 141.321 122.589 141.72Z" fill="url(#paint3_linear_28_12855)"/>
<path d="M114.114 143.582C114.781 143.712 115.014 144.624 114.729 145.242C114.509 145.653 114.2 146.008 113.823 146.281C113.607 146.122 113.423 145.925 113.279 145.7C112.76 144.884 113.168 143.4 114.114 143.582Z" fill="url(#paint4_linear_28_12855)"/>
<path d="M25.3003 186.393C26.3233 186.933 29.3614 189.123 31.9049 191.539C34.7327 194.228 36.9518 197.198 35.1284 198.515C32.9804 200.066 29.5747 196.966 28.0138 195.694C25.7517 193.858 23.8228 191.645 22.3117 189.153C21.8266 188.35 21.3877 187.311 21.8884 186.513C22.0735 186.258 22.3228 186.057 22.6111 185.929C22.8993 185.801 23.2161 185.752 23.5294 185.787C24.1557 185.863 24.7591 186.069 25.3003 186.393Z" fill="url(#paint5_linear_28_12855)"/>
<path d="M64.3197 110.717C63.5997 111.444 62.8329 112.087 62.6631 112.436C61.8408 114.123 63.9231 117.189 65.049 119.105C65.2128 119.386 65.358 119.643 65.469 119.869C65.8557 120.741 66.3666 121.553 66.9864 122.279C67.2585 122.576 67.5768 122.828 67.929 123.024C67.932 123.024 67.932 123.027 67.9353 123.027C68.4336 123.292 68.9892 123.432 69.5538 123.434C70.1184 123.437 70.6749 123.301 71.1753 123.04C71.6712 122.77 72.0966 122.388 72.417 121.923C72.7377 121.459 72.944 120.925 73.0202 120.366C73.1903 119.059 72.6402 117.776 72.1026 116.574C72.0285 116.407 71.9526 116.244 71.88 116.077C71.7996 115.891 71.7161 115.705 71.6327 115.52C70.9713 114.037 70.3113 112.552 69.6528 111.067L68.7528 109.045C68.7528 109.042 68.7498 109.042 68.7498 109.039C68.583 109.175 68.4129 109.311 68.2431 109.444C67.7514 109.852 67.2117 110.197 66.636 110.473C65.9172 110.824 65.0973 110.911 64.3212 110.717" stroke="var(--illustration-currentColor)" stroke-width="0.9" stroke-linecap="round" stroke-linejoin="round"/>
<path d="M64.3191 110.717C64.2603 110.702 64.2015 110.684 64.1427 110.662C63.3423 110.362 62.7087 109.549 62.7891 108.699C62.8695 107.849 63.8028 107.132 64.6065 107.423C66.5391 108.12 65.493 109.53 64.3191 110.717Z" stroke="var(--illustration-currentColor)" stroke-width="0.9" stroke-linecap="round" stroke-linejoin="round"/>
<path d="M49.0117 95.3481C52.5316 100.114 56.053 104.881 59.5753 109.651" stroke="var(--illustration-currentColor)" stroke-width="0.9" stroke-linecap="round" stroke-linejoin="round"/>
<path d="M49.0108 95.3481C48.7603 95.1336 48.5617 94.8651 48.4297 94.563C48.6247 94.8258 48.8161 95.0853 49.0108 95.3481Z" stroke="var(--illustration-currentColor)" stroke-width="0.9" stroke-linecap="round" stroke-linejoin="round"/>
<path d="M68.2797 109.562C68.2674 109.522 68.2551 109.485 68.2428 109.445C65.9229 101.716 62.9472 94.2006 59.3481 86.979C59.4258 89.7138 58.8684 92.4294 57.7194 94.9125C56.6487 93.1509 55.1685 91.674 53.4048 90.6075C54.2748 92.1033 54.1311 94.2234 52.8237 95.3607C52.2825 95.7939 51.6096 96.0288 50.9166 96.0264C50.2233 96.0243 49.5519 95.7849 49.0137 95.3484" stroke="var(--illustration-currentColor)" stroke-width="0.9" stroke-linecap="round" stroke-linejoin="round"/>
<path d="M122.845 167.411C122.984 168.338 123.54 169.271 124.183 170.205C125.117 171.605 125.725 173.181 126.337 174.757C126.581 175.387 126.829 176.017 127.094 176.636C127.348 177.235 127.635 177.819 127.954 178.385C128.723 179.745 129.703 180.978 131.004 181.782C131.147 181.874 131.294 181.959 131.446 182.035C133.541 183.117 136.548 182.688 137.667 180.611C138.789 178.525 137.633 175.993 136.49 173.921C136.193 173.381 135.881 172.725 135.55 172.005C135.321 171.513 135.087 170.994 134.839 170.462C133.866 168.376 132.709 166.099 131.236 164.64C131.016 164.42 130.782 164.216 130.534 164.028C130.303 163.852 130.057 163.696 129.799 163.561C129.501 163.405 129.186 163.285 128.859 163.206C127.209 162.807 125.07 163.629 123.877 164.776C123.538 165.088 123.26 165.461 123.058 165.876C122.837 166.355 122.763 166.889 122.845 167.411Z" stroke="var(--illustration-currentColor)" stroke-width="0.9" stroke-linecap="round" stroke-linejoin="round"/>
<path d="M113.824 146.28C113.654 146.416 113.481 146.546 113.314 146.682C112.782 147.109 112.264 147.672 112.264 148.351C112.264 149.03 112.777 149.59 113.249 150.082C116.669 153.651 119.526 157.719 121.724 162.147" stroke="var(--illustration-currentColor)" stroke-width="0.9" stroke-linecap="round" stroke-linejoin="round"/>
<path d="M113.823 146.28C113.607 146.122 113.423 145.925 113.279 145.699C112.76 144.884 113.168 143.4 114.114 143.582C114.781 143.712 115.014 144.624 114.729 145.242C114.509 145.652 114.2 146.007 113.823 146.28Z" stroke="var(--illustration-currentColor)" stroke-width="0.9" stroke-linecap="round" stroke-linejoin="round"/>
<path d="M120.231 140.43C119.668 140.637 119.196 141.034 118.896 141.552C118.12 142.872 118.414 144.664 117.483 145.879C116.649 146.97 114.893 147.079 113.823 146.281" stroke="var(--illustration-currentColor)" stroke-width="0.9" stroke-linecap="round" stroke-linejoin="round"/>
<path d="M120.231 140.43C120.066 140.821 119.983 141.242 119.986 141.666C120.011 142.352 120.444 143.072 121.118 143.202C121.915 143.352 122.688 142.525 122.588 141.719C122.511 141.32 122.296 140.96 121.98 140.704C121.665 140.447 121.27 140.31 120.863 140.315C120.648 140.319 120.434 140.358 120.231 140.43Z" stroke="var(--illustration-currentColor)" stroke-width="0.9" stroke-linecap="round" stroke-linejoin="round"/>
<path d="M127.673 162.692C126.779 155.377 125.887 148.062 124.996 140.749C124.832 139.414 124.341 137.742 123.003 137.621C121.863 137.519 121.049 138.678 120.552 139.707C120.438 139.942 120.326 140.183 120.23 140.431" stroke="var(--illustration-currentColor)" stroke-width="0.9" stroke-linecap="round" stroke-linejoin="round"/>
<path d="M195.946 181.946C195.911 183.689 195.982 185.432 196.159 187.166C196.306 188.609 196.527 190.044 196.821 191.465C196.827 191.509 196.837 191.552 196.849 191.594C196.957 192.132 197.08 192.667 197.213 193.198C197.371 193.838 197.659 194.589 198.304 194.725C199.046 194.88 199.636 194.116 199.949 193.424C199.986 193.338 200.026 193.251 200.06 193.162C200.72 191.463 201.094 189.667 201.166 187.846C201.241 186.724 201.256 185.596 201.265 184.477C201.304 183.888 201.235 183.296 201.064 182.731C201.004 182.571 200.925 182.418 200.83 182.276C200.397 181.652 199.368 181.393 198.882 181.98" stroke="var(--illustration-currentColor)" stroke-width="0.9" stroke-linecap="round" stroke-linejoin="round"/>
<path d="M194.117 170.029C193.337 170.384 192.227 170.227 191.737 170.944C191.199 171.738 191.938 172.745 192.559 173.475C194.135 175.332 195.196 177.57 195.637 179.965" stroke="var(--illustration-currentColor)" stroke-width="0.9" stroke-linecap="round" stroke-linejoin="round"/>
<path d="M197.129 166.657C196.768 166.86 196.462 167.147 196.236 167.495C195.84 168.076 195.593 168.754 195.154 169.302C194.89 169.64 194.532 169.892 194.125 170.026M194.125 170.026C194.122 170.026 194.119 170.029 194.116 170.029C193.853 170.112 193.571 170.106 193.312 170.013C193.081 169.926 192.884 169.767 192.75 169.56C192.616 169.352 192.553 169.107 192.57 168.861C192.587 168.614 192.682 168.38 192.843 168.193C193.003 168.005 193.22 167.874 193.46 167.819C193.701 167.764 193.953 167.788 194.179 167.888C194.405 167.988 194.593 168.157 194.714 168.372C194.836 168.587 194.885 168.835 194.855 169.08C194.824 169.325 194.716 169.554 194.545 169.732C194.425 169.855 194.282 169.955 194.125 170.026Z" stroke="var(--illustration-currentColor)" stroke-width="0.9" stroke-linecap="round" stroke-linejoin="round"/>
<path d="M199.398 180.169C200.232 174.797 200.487 169.351 200.159 163.925C199.281 163.569 198.425 164.441 197.881 165.215C197.539 165.641 197.284 166.13 197.131 166.655V166.658C197.092 166.837 197.083 167.022 197.103 167.205C197.193 167.931 198.148 168.521 198.673 168.015C199.18 167.53 198.667 166.565 197.969 166.482C197.678 166.453 197.386 166.514 197.131 166.655" stroke="var(--illustration-currentColor)" stroke-width="0.9" stroke-linecap="round" stroke-linejoin="round"/>
<path d="M200.839 180.079C203.173 174.901 204.763 169.419 205.561 163.795C205.831 161.873 205.994 159.845 205.255 158.05C204.57 156.47 203.316 155.206 201.741 154.508C198.836 153.182 195.242 153.828 192.72 155.784C190.198 157.74 188.714 160.85 188.347 164.024C187.979 167.198 188.653 170.421 189.855 173.379C190.561 175.073 191.397 176.709 192.355 178.274C193.054 179.436 193.801 180.574 194.562 181.699" stroke="var(--illustration-currentColor)" stroke-width="0.9" stroke-linecap="round" stroke-linejoin="round"/>
<path d="M129.854 163.455C133.454 154.367 134.439 144.453 132.701 134.833C131.897 130.423 130.408 125.932 127.193 122.811C122.777 118.524 115.53 117.755 110.041 120.533C104.552 123.312 100.961 129.248 100.46 135.38C99.9594 141.512 102.361 147.708 106.419 152.335C111.067 157.629 117.616 160.885 122.697 165.764" stroke="var(--illustration-currentColor)" stroke-width="0.9" stroke-linecap="round" stroke-linejoin="round"/>
<path d="M68.7193 109.086C68.7304 109.073 68.7406 109.06 68.7496 109.046C71.9731 105.124 72.7366 99.678 72.2698 94.6218C72.2398 94.2756 72.1987 93.9294 72.1555 93.5832C71.3119 86.8674 68.3479 80.2968 63.1804 75.9453C57.7474 71.3715 49.7428 69.6498 43.2586 72.549C39.5623 74.2023 36.5461 77.2248 34.636 80.7975C32.7259 84.3702 31.8793 88.4592 31.9225 92.511C31.9966 99.786 35.1148 107.173 40.9066 111.577C46.6984 115.981 55.2007 116.892 61.3726 113.045" stroke="var(--illustration-currentColor)" stroke-width="0.9" stroke-linecap="round" stroke-linejoin="round"/>
<path d="M67.9102 123.052L67.9288 123.024C69.3373 120.855 70.5643 118.574 71.5975 116.203" stroke="var(--illustration-currentColor)" stroke-width="0.9" stroke-linecap="round" stroke-linejoin="round"/>
<path d="M64.8691 119.423C64.9291 119.318 64.9867 119.21 65.0491 119.105C66.5356 116.444 68.0242 113.784 69.5149 111.125" stroke="var(--illustration-currentColor)" stroke-width="0.9" stroke-linecap="round" stroke-linejoin="round"/>
<path d="M131.054 181.702C132.466 178.509 133.879 175.316 135.294 172.124" stroke="var(--illustration-currentColor)" stroke-width="0.9" stroke-linecap="round" stroke-linejoin="round"/>
<path d="M126.399 174.732C127.827 171.33 129.408 167.997 131.143 164.734" stroke="var(--illustration-currentColor)" stroke-width="0.9" stroke-linecap="round" stroke-linejoin="round"/>
<path d="M197.059 191.415C198.404 190.394 199.591 189.18 200.582 187.812C200.542 187.842 200.502 187.876 200.462 187.907" stroke="var(--illustration-currentColor)" stroke-width="0.9" stroke-linecap="round" stroke-linejoin="round"/>
<path d="M196.49 187.132C197.776 185.521 199.235 184.055 200.84 182.762" stroke="var(--illustration-currentColor)" stroke-width="0.9" stroke-linecap="round" stroke-linejoin="round"/>
<path d="M212.644 189.947C214.474 189.941 216.301 189.806 218.111 189.542C221.217 189.06 224.296 188.016 226.771 186.081C227.594 185.495 228.264 184.718 228.725 183.819C229.145 182.907 229.194 181.776 228.65 180.929C227.853 179.681 226.135 179.446 224.657 179.544C218.974 179.925 213.846 183.346 208.169 183.847C212.906 181.829 217.441 179.37 221.715 176.5C223.841 175.051 225.94 173.419 227.216 171.185C227.813 170.146 228.125 168.641 227.192 167.893C226.388 167.253 225.201 167.612 224.286 168.075C222.349 169.055 220.612 170.378 218.884 171.691C215.144 174.541 211.403 177.389 207.662 180.237C212.134 176.187 216.708 172.013 219.422 166.629C219.8 165.96 220.047 165.226 220.151 164.465C220.201 164.085 220.16 163.698 220.033 163.336C219.906 162.974 219.696 162.646 219.419 162.38C219.094 162.133 218.714 161.97 218.311 161.905C217.908 161.84 217.496 161.874 217.109 162.005C216.339 162.275 215.624 162.683 214.998 163.208C210.811 166.373 207.138 170.159 203.568 174.003" stroke="var(--illustration-currentColor)" stroke-width="0.9" stroke-linecap="round" stroke-linejoin="round"/>
<path d="M212.645 189.947C211.337 189.857 210.008 189.887 208.701 189.923C210.015 189.944 211.331 189.966 212.645 189.947Z" stroke="var(--illustration-currentColor)" stroke-width="0.9" stroke-linecap="round" stroke-linejoin="round"/>
<path d="M200.639 193.248C203.269 194.438 205.936 195.637 208.779 196.144C211.623 196.651 214.707 196.394 217.139 194.833C217.933 194.323 218.712 193.517 218.589 192.58C218.469 191.68 217.575 191.11 216.731 190.779C215.42 190.294 214.042 190.013 212.646 189.947" stroke="var(--illustration-currentColor)" stroke-width="0.9" stroke-linecap="round" stroke-linejoin="round"/>
<path d="M186.299 183.843C181.993 183.306 177.628 183.5 173.387 184.418C172.132 184.69 170.747 185.138 170.166 186.282C169.536 187.524 170.157 189.07 171.109 190.083C172.633 191.709 174.908 192.469 177.133 192.596C179.358 192.722 181.571 192.278 183.753 191.823C185.935 191.369 188.141 190.902 190.366 190.976C187.183 192.015 183.972 193.066 181.076 194.75C178.18 196.435 175.584 198.817 174.243 201.886C173.88 202.644 173.684 203.47 173.668 204.309C173.663 204.728 173.749 205.143 173.918 205.526C174.086 205.91 174.335 206.252 174.648 206.531C175.751 207.431 177.383 207.134 178.712 206.63C182.458 205.208 185.595 202.56 188.527 199.831C191.34 197.217 194.04 194.487 196.627 191.641" stroke="var(--illustration-currentColor)" stroke-width="0.9" stroke-linecap="round" stroke-linejoin="round"/>
<path d="M186.3 183.844C187.663 184.116 189.03 184.366 190.401 184.579C189.049 184.257 187.68 184.012 186.3 183.844Z" stroke="var(--illustration-currentColor)" stroke-width="0.9" stroke-linecap="round" stroke-linejoin="round"/>
<path d="M192.222 178.355C187.774 176.375 183.068 174.349 178.221 174.829C177.124 174.94 176.006 175.19 175.1 175.824C174.194 176.457 173.54 177.53 173.647 178.627C173.749 179.647 174.485 180.515 175.363 181.04C176.24 181.566 177.253 181.81 178.252 182.045C180.929 182.672 183.605 183.303 186.3 183.845" stroke="var(--illustration-currentColor)" stroke-width="0.9" stroke-linecap="round" stroke-linejoin="round"/>
<path d="M156.934 133.223C158.478 128.224 159.354 123.042 159.539 117.813C159.607 115.393 159.221 112.501 157.051 111.419C155.358 110.579 153.222 111.311 151.884 112.649C150.546 113.987 149.832 115.811 149.152 117.575C143.221 132.96 137.289 148.347 131.356 163.736" stroke="var(--illustration-currentColor)" stroke-width="0.9" stroke-linecap="round" stroke-linejoin="round"/>
<path d="M156.935 133.223C153.914 135.838 151.055 138.634 148.374 141.595C145.938 144.281 143.565 147.254 142.863 150.811C142.727 151.507 142.675 152.289 143.092 152.857C143.775 153.794 145.243 153.59 146.269 153.052C149.01 151.621 150.614 148.719 151.95 145.931C153.937 141.831 155.604 137.581 156.935 133.223Z" stroke="var(--illustration-currentColor)" stroke-width="0.9" stroke-linecap="round" stroke-linejoin="round"/>
<path d="M160.583 148.247C161.47 147.61 162.343 146.955 163.201 146.281C168.845 141.846 173.898 136.49 177.124 130.077C177.711 128.912 178.243 127.685 178.339 126.387C178.435 125.089 178.027 123.687 177.013 122.867C175.125 121.343 172.331 122.437 170.235 123.664C165.518 126.436 161.065 129.636 156.934 133.223" stroke="var(--illustration-currentColor)" stroke-width="0.9" stroke-linecap="round" stroke-linejoin="round"/>
<path d="M160.583 148.246C155.172 150.941 150.057 154.421 145.062 157.855C150.347 154.838 155.651 151.804 160.583 148.246Z" stroke="var(--illustration-currentColor)" stroke-width="0.9" stroke-linecap="round" stroke-linejoin="round"/>
<path d="M134.948 170.412C143.376 169.809 151.894 169.191 159.957 166.66C168.021 164.129 175.704 159.465 180.25 152.342C181.421 150.506 182.385 148.188 181.467 146.213C180.855 144.893 179.493 144.04 178.074 143.723C176.656 143.405 175.172 143.553 173.738 143.788C169.121 144.551 164.766 146.165 160.584 148.247" stroke="var(--illustration-currentColor)" stroke-width="0.9" stroke-linecap="round" stroke-linejoin="round"/>
<path d="M108.084 173.339C104.157 174.589 100.358 176.207 96.7354 178.172C92.1181 180.679 87.5554 184.047 85.7455 188.98C85.2655 190.284 85.0468 191.888 85.9432 192.951C86.6539 193.795 87.8964 194.03 88.9812 193.817C90.066 193.604 91.0332 193.016 91.9758 192.437C100.676 187.106 109.374 181.776 118.07 176.449C111.077 182.867 105.521 190.692 101.767 199.41C101.155 200.832 100.707 202.751 101.927 203.703C102.975 204.522 104.505 203.981 105.661 203.323C110.521 200.55 114.29 196.214 117.628 191.721C120.965 187.227 123.997 182.474 127.87 178.431" stroke="var(--illustration-currentColor)" stroke-width="0.9" stroke-linecap="round" stroke-linejoin="round"/>
<path d="M108.084 173.338C110.647 172.874 113.173 172.229 115.644 171.407C113.088 171.899 110.563 172.544 108.084 173.338Z" stroke="var(--illustration-currentColor)" stroke-width="0.9" stroke-linecap="round" stroke-linejoin="round"/>
<path d="M122.235 167.513C116.966 164.264 111.09 162.121 104.967 161.213C98.8433 160.305 92.5991 160.652 86.6135 162.231C83.798 162.988 80.6366 164.497 80.1419 167.374C79.7519 169.633 81.3194 171.874 83.3345 172.971C85.3496 174.068 87.7169 174.263 90.0071 174.368C96.0431 174.643 102.153 174.428 108.084 173.339" stroke="var(--illustration-currentColor)" stroke-width="0.9" stroke-linecap="round" stroke-linejoin="round"/>
<path d="M71.5264 115.545C71.5603 115.536 71.5975 115.529 71.6314 115.52C79.3051 113.72 86.9482 111.617 94.1122 108.341C101.31 105.049 108.047 100.519 113.122 94.4424C113.818 93.6111 114.516 92.4924 114.043 91.5156C113.558 90.5112 112.192 90.3939 111.079 90.4743C105.499 90.8883 100.123 92.8416 95.1847 95.4654C90.2461 98.0892 85.6903 101.375 81.1564 104.651C86.3611 100.154 91.006 95.0505 95.5771 89.9085C99.9967 84.9327 104.506 79.6233 105.989 73.1361C106.113 72.5922 106.209 71.9988 105.955 71.5011C105.6 70.8027 104.651 70.5834 103.897 70.815C103.143 71.0466 102.549 71.6061 101.987 72.1563C93.4756 80.5041 86.4469 90.2145 79.4599 99.8763C84.0679 89.8263 87.9682 79.1325 87.8899 68.0763C87.8776 66.3825 87.757 64.6302 86.9812 63.1263C86.2054 61.6224 84.6262 60.4128 82.939 60.561C81.5758 60.6786 80.4016 61.6491 79.6876 62.8143C78.9736 63.9795 78.643 65.3361 78.3277 66.6681C76.2139 75.5751 74.3092 84.5274 72.6133 93.5253" stroke="var(--illustration-currentColor)" stroke-width="0.9" stroke-linecap="round" stroke-linejoin="round"/>
<path d="M45.4234 138.461C43.8763 141.095 42.52 143.836 41.3653 146.664C41.1058 147.291 40.8739 148.061 41.2789 148.608C41.8075 149.315 42.9139 149.058 43.7143 148.685C49.1143 146.145 53.2207 141.493 56.6791 136.629C60.0913 131.823 63.052 126.669 66.9862 122.279C67.0327 122.221 67.0852 122.165 67.1362 122.109" stroke="var(--illustration-currentColor)" stroke-width="0.9" stroke-linecap="round" stroke-linejoin="round"/>
<path d="M45.4229 138.461C52.0055 134.938 57.5111 129.697 61.3547 123.296C57.5132 123.559 54.3947 126.43 51.8975 129.36C49.478 132.199 47.3114 135.244 45.4229 138.461Z" stroke="var(--illustration-currentColor)" stroke-width="0.9" stroke-linecap="round" stroke-linejoin="round"/>
<path d="M52.1665 119.424C43.513 117.301 33.8149 120.166 27.7018 126.65C26.926 127.475 26.2399 128.909 27.1423 129.598C27.544 129.904 28.1005 129.885 28.6042 129.845C38.8495 129.008 48.5011 124.857 57.8347 120.549C49.8919 124.904 41.7019 129.468 36.2626 136.712C35.323 137.961 34.5196 139.846 35.6353 140.937C36.4789 141.759 37.8604 141.515 38.9854 141.163C41.2102 140.464 43.3654 139.56 45.4231 138.463" stroke="var(--illustration-currentColor)" stroke-width="0.9" stroke-linecap="round" stroke-linejoin="round"/>
<path d="M193.548 74.4033C193.437 73.677 193.308 72.9507 193.156 72.2304C192.986 71.4204 192.776 70.5834 192.25 69.9405C191.725 69.2976 190.804 68.9082 190.047 69.2451C189.12 69.6531 188.888 70.8366 188.804 71.8443C188.342 77.5125 188.699 83.2176 189.864 88.7835C190.155 90.165 191.252 92.4954 192.884 91.083C193.604 90.4617 193.749 88.2798 193.808 86.6172C193.836 85.9341 193.845 85.3407 193.876 84.9729C194.18 81.4491 194.07 77.9016 193.548 74.4033Z" stroke="var(--illustration-currentColor)" stroke-width="0.9" stroke-linecap="round" stroke-linejoin="round"/>
<path d="M201.185 74.5731C205.195 67.8735 206.86 60.0288 205.917 52.2777C205.882 52.0101 205.759 51.762 205.568 51.5712C205.377 51.3807 205.128 51.2589 204.86 51.2241C204.592 51.1896 204.321 51.2445 204.088 51.3804C203.854 51.5163 203.673 51.7254 203.571 51.975L194.444 74.3475" stroke="var(--illustration-currentColor)" stroke-width="0.9" stroke-linecap="round" stroke-linejoin="round"/>
<path d="M201.184 74.5731C200.243 75.7176 199.393 76.9335 198.641 78.21C199.569 77.0559 200.418 75.8409 201.184 74.5731Z" stroke="var(--illustration-currentColor)" stroke-width="0.9" stroke-linecap="round" stroke-linejoin="round"/>
<path d="M197.034 82.92C197.21 82.8273 197.383 82.7313 197.556 82.6326C202.789 79.6722 207.072 75.285 209.906 69.9828C210.032 69.7434 210.075 69.4689 210.028 69.2022C209.981 68.9358 209.847 68.6925 209.647 68.5101C209.447 68.328 209.193 68.217 208.923 68.1948C208.653 68.1729 208.384 68.2407 208.157 68.388C205.519 70.0653 203.165 72.153 201.185 74.5722" stroke="var(--illustration-currentColor)" stroke-width="0.9" stroke-linecap="round" stroke-linejoin="round"/>
<path d="M193.92 86.6202C200.231 87.4239 206.829 85.2387 211.511 80.952C211.696 80.7792 211.822 80.5533 211.873 80.3055C211.924 80.058 211.897 79.8009 211.795 79.5693C211.694 79.3377 211.524 79.143 211.307 79.0122C211.091 78.8814 210.84 78.8205 210.587 78.8382C206.024 79.1619 201.581 80.4558 197.557 82.6335" stroke="var(--illustration-currentColor)" stroke-width="0.9" stroke-linecap="round" stroke-linejoin="round"/>
<path d="M187.385 74.604C181.237 71.5473 174.507 69.8382 167.645 69.5913C166.727 69.5571 165.76 69.5613 164.987 70.1229C164.739 70.2897 164.542 70.5222 164.418 70.7946C164.294 71.0667 164.249 71.3682 164.286 71.6649C164.45 72.6168 165.494 73.0002 166.391 73.2441C172.263 74.8359 178.136 76.4298 184.01 78.0255C179.38 78.495 171.36 79.8054 168.05 81.6228C167.856 81.729 167.704 81.897 167.616 82.1001C167.528 82.3032 167.511 82.5297 167.567 82.7436C167.623 82.9575 167.748 83.1468 167.924 83.2812C168.099 83.4159 168.314 83.4882 168.535 83.4864L183.719 83.403C178.409 85.7949 172.535 90.1311 169.87 94.773C169.72 95.0319 169.652 95.3307 169.676 95.6295C169.7 95.928 169.814 96.2124 170.004 96.444C170.194 96.6756 170.45 96.8439 170.739 96.9258C171.027 97.008 171.333 96.9999 171.617 96.903C177.81 94.7358 183.622 91.6035 188.837 87.6219" stroke="var(--illustration-currentColor)" stroke-width="0.9" stroke-linecap="round" stroke-linejoin="round"/>
<path d="M259.448 139.611C259.584 138.749 259.686 137.828 259.312 137.037C258.938 136.246 257.915 135.705 257.164 136.15C256.682 136.437 256.466 137.009 256.287 137.537C255.155 140.847 254.107 144.183 253.143 147.544C252.386 150.175 250.544 154.149 250.921 156.81C256.154 155.997 258.781 143.783 259.448 139.611Z" stroke="var(--illustration-currentColor)" stroke-width="0.9" stroke-linecap="round" stroke-linejoin="round"/>
<path d="M253.456 142.464C252.572 135.859 250.093 129.569 246.234 124.137C245.384 122.944 244.104 121.661 242.689 122.044C241.304 122.418 240.819 124.127 240.754 125.561C240.47 131.925 244.042 138.311 249.615 141.394C248.234 140.802 246.741 140.52 245.24 140.568C243.738 140.615 242.266 140.991 240.926 141.67C239.586 142.348 238.411 143.312 237.484 144.494C236.556 145.675 235.9 147.046 235.56 148.509C235.38 149.278 235.31 150.153 235.77 150.793C236.499 151.807 238.035 151.649 239.234 151.297C243.219 150.126 246.886 148.066 249.959 145.273" stroke="var(--illustration-currentColor)" stroke-width="0.9" stroke-linecap="round" stroke-linejoin="round"/>
<path d="M262.359 148.129C264.804 147.703 267.391 148.101 269.298 149.647C271.788 151.662 272.46 155.868 270.179 158.118C268.136 160.136 264.526 159.861 262.323 158.019C260.119 156.177 259.167 153.176 259.108 150.302" stroke="var(--illustration-currentColor)" stroke-width="0.9" stroke-linecap="round" stroke-linejoin="round"/>
<path d="M262.36 148.129C261.64 148.369 260.911 148.574 260.172 148.747C260.878 148.466 261.611 148.259 262.36 148.129Z" stroke="var(--illustration-currentColor)" stroke-width="0.9" stroke-linecap="round" stroke-linejoin="round"/>
<path d="M259.121 145.267C263.097 141.484 267.62 138.321 272.537 135.884C273.65 135.334 275.322 134.991 275.857 136.113C276.197 136.83 275.773 137.661 275.328 138.316C272.192 142.915 267.638 146.361 262.36 148.129" stroke="var(--illustration-currentColor)" stroke-width="0.9" stroke-linecap="round" stroke-linejoin="round"/>
<path d="M25.3004 186.393C24.7594 186.069 24.1563 185.863 23.5304 185.788C23.2171 185.753 22.9002 185.802 22.612 185.93C22.3238 186.057 22.0745 186.259 21.8894 186.514C21.3887 187.311 21.8276 188.35 22.3127 189.154C23.8236 191.646 25.7525 193.859 28.0148 195.697C29.5748 196.967 32.9814 200.067 35.1294 198.517C36.9528 197.2 34.7337 194.23 31.9059 191.541C29.3615 189.122 26.3234 186.934 25.3004 186.393Z" stroke="var(--illustration-currentColor)" stroke-width="0.9" stroke-linecap="round" stroke-linejoin="round"/>
<path d="M35.0266 187.89C36.1114 185.454 36.6265 182.802 36.5335 180.137C36.4402 177.472 35.7412 174.863 34.489 172.508C33.9727 171.556 33.1909 170.555 32.1091 170.54C31.318 170.527 30.604 171.087 30.2191 171.779C29.8724 172.494 29.6748 173.272 29.6384 174.066C29.1327 179.167 29.8379 184.315 31.6966 189.092C31.5976 188.771 31.4956 188.45 31.3936 188.128" stroke="var(--illustration-currentColor)" stroke-width="0.9" stroke-linecap="round" stroke-linejoin="round"/>
<path d="M35.0262 187.89C34.9182 188.107 34.8132 188.326 34.7109 188.549C34.8222 188.332 34.9272 188.112 35.0262 187.89Z" stroke="var(--illustration-currentColor)" stroke-width="0.9" stroke-linecap="round" stroke-linejoin="round"/>
<path d="M31.709 191.591C31.7741 191.576 31.8389 191.557 31.9037 191.539C37.7711 189.947 42.9341 186.432 46.5653 181.556C47.0699 180.952 47.4323 180.243 47.6255 179.479C47.7737 178.707 47.5481 177.817 46.8929 177.379C45.9473 176.749 44.6801 177.319 43.7375 177.954C40.0208 180.454 37.0184 183.878 35.0261 187.89" stroke="var(--illustration-currentColor)" stroke-width="0.9" stroke-linecap="round" stroke-linejoin="round"/>
<path d="M25.313 194.432C20.8394 196.611 17.1793 200.163 14.867 204.569C14.4768 205.227 14.2333 205.962 14.153 206.723C14.1172 207.104 14.1837 207.487 14.3456 207.833C14.5076 208.179 14.759 208.475 15.074 208.692C16.3535 209.44 17.8586 208.219 18.8198 207.091C21.3912 204.059 23.8327 200.923 26.1443 197.683C23.0579 202.88 22.0574 209.054 23.3444 214.959C23.4803 215.571 23.7368 216.276 24.3425 216.437C25.2425 216.677 25.8539 215.55 26.0825 214.644C27.4028 209.439 28.1317 204.102 28.2554 198.734" stroke="var(--illustration-currentColor)" stroke-width="0.9" stroke-linecap="round" stroke-linejoin="round"/>
<path d="M100.377 228.759C101.678 229.488 102.939 229.719 103.887 228.935C106.789 226.527 97.9529 221.243 96.1574 220.322C95.5022 219.985 94.6523 219.694 94.0805 220.158C93.3695 220.735 93.7529 221.882 94.2443 222.652C94.8263 223.515 95.468 224.337 96.1643 225.112C96.1859 225.136 96.2078 225.158 96.2261 225.179C97.4129 226.509 98.9213 227.946 100.377 228.759Z" stroke="var(--illustration-currentColor)" stroke-width="0.9" stroke-linecap="round" stroke-linejoin="round"/>
<path d="M101.702 215.541C102.172 213.115 102.224 210.565 101.476 208.206C100.379 208.593 99.9033 209.863 99.6405 210.995C99.177 212.994 98.0148 217.684 99.0657 219.595C100.429 222.077 101.489 216.656 101.702 215.541Z" stroke="var(--illustration-currentColor)" stroke-width="0.9" stroke-linecap="round" stroke-linejoin="round"/>
<path d="M111.292 214.128V214.125" stroke="var(--illustration-currentColor)" stroke-width="0.9" stroke-linecap="round" stroke-linejoin="round"/>
<path d="M111.293 214.128C111.293 214.431 106.357 217.469 105.807 217.92C104.203 219.228 102.154 220.767 101.075 222.538C102.917 223.913 107.439 220.782 108.842 219.546C110.39 218.183 111.515 216.177 111.293 214.128Z" stroke="var(--illustration-currentColor)" stroke-width="0.9" stroke-linecap="round" stroke-linejoin="round"/>
<path d="M95.9661 225.65C96.0528 225.492 96.1392 225.338 96.2256 225.18C96.2598 225.12 96.2937 225.06 96.3246 225C96.2721 225.037 96.2166 225.074 96.1638 225.111C92.2023 227.809 88.8018 231.249 86.1504 235.242C88.4067 235.712 90.7182 234.664 92.5704 233.288C94.4226 231.913 96.0165 230.195 97.9851 228.996C95.5935 231.352 93.7821 234.232 92.694 237.408C92.5026 237.971 92.3727 238.691 92.8269 239.071C93.3894 239.544 94.227 239.031 94.74 238.502C97.2708 235.883 98.9643 232.569 99.6045 228.983C99.8445 228.94 100.087 228.893 100.328 228.848" stroke="var(--illustration-currentColor)" stroke-width="0.9" stroke-linecap="round" stroke-linejoin="round"/>
<path d="M72.1163 130.089C74.0363 133.032 75.8228 136.131 76.6622 139.544C77.5016 142.956 77.2994 146.752 75.437 149.732C73.5746 152.713 69.8459 154.626 66.4415 153.755C63.7631 153.07 61.5248 149.905 62.9399 147.53C64.0799 145.615 67.0355 145.424 68.8199 146.761C70.6043 148.098 71.3306 150.473 71.3174 152.701C71.2913 155.495 70.2923 158.192 68.4926 160.329C67.5128 161.484 66.2468 162.48 64.7582 162.761C63.2696 163.043 61.5527 162.451 60.8525 161.108C60.1523 159.764 60.896 157.781 62.3876 157.514C63.515 157.313 64.6352 158.089 65.2001 159.085C65.765 160.081 65.8967 161.257 66.017 162.396C66.1598 163.748 66.2996 165.14 65.927 166.448C65.5544 167.756 64.5443 168.977 63.1991 169.176C61.8539 169.375 60.3659 168.158 60.6275 166.824" stroke="var(--illustration-currentColor)" stroke-width="0.9" stroke-linecap="round" stroke-linejoin="round"/>
<path d="M141.609 192.042C138.753 194.899 136.166 198.124 134.685 201.882C133.205 205.64 132.928 210 134.601 213.676C136.275 217.353 140.111 220.133 144.145 219.928C148.179 219.723 151.92 216.074 151.65 212.044C151.625 211.115 151.293 210.221 150.708 209.501C149.577 208.234 147.498 208.166 146.028 209.015C144.558 209.864 143.625 211.424 143.074 213.03C141.312 218.164 143.187 224.329 147.509 227.612C151.832 230.895 158.274 231.047 162.747 227.972C164.293 226.909 165.669 224.746 164.48 223.295C163.331 221.89 160.958 222.732 159.802 224.131C156.917 227.623 158.428 233.744 162.606 235.492C166.784 237.241 172.206 234.021 172.666 229.515" stroke="var(--illustration-currentColor)" stroke-width="0.9" stroke-linecap="round" stroke-linejoin="round"/>
<path d="M208.019 208.322C206.331 208.075 204.637 208.978 203.501 210.252C202.365 211.526 201.686 213.132 201.038 214.711C199.812 217.698 198.693 221.347 200.613 223.942C202.002 225.821 204.626 226.432 206.931 226.046C209.235 225.66 211.306 224.451 213.319 223.264C214.434 222.606 215.724 221.434 215.157 220.271C214.587 219.101 212.796 219.422 211.755 220.201C208.226 222.843 208.005 228.841 211.332 231.736C214.659 234.63 220.57 233.579 222.696 229.717C223.281 228.657 223.446 227.049 222.379 226.477C221.647 226.085 220.745 226.431 220.027 226.848C217.651 228.228 215.704 230.523 215.229 233.23C214.754 235.936 216 238.99 218.469 240.194C220.963 241.411 224.072 240.542 226.225 238.791C228.379 237.04 229.782 234.555 231.135 232.131" stroke="var(--illustration-currentColor)" stroke-width="0.9" stroke-linecap="round" stroke-linejoin="round"/>
<path d="M204.744 150.762L207.03 146.179" stroke="var(--illustration-currentColor)" stroke-width="0.9" stroke-linecap="round" stroke-linejoin="round"/>
<path d="M195.934 149.108L194.622 134.71" stroke="var(--illustration-currentColor)" stroke-width="0.9" stroke-linecap="round" stroke-linejoin="round"/>
<path d="M190.381 153.631L187.77 151.007" stroke="var(--illustration-currentColor)" stroke-width="0.9" stroke-linecap="round" stroke-linejoin="round"/>
<path d="M125.939 116.74L132.136 94.8105" stroke="var(--illustration-currentColor)" stroke-width="0.9" stroke-linecap="round" stroke-linejoin="round"/>
<path d="M132.661 121.887L136.942 117.66" stroke="var(--illustration-currentColor)" stroke-width="0.9" stroke-linecap="round" stroke-linejoin="round"/>
<path d="M115.132 113.737L113.409 109.848" stroke="var(--illustration-currentColor)" stroke-width="0.9" stroke-linecap="round" stroke-linejoin="round"/>
<path d="M51.5693 65.013L53.2055 56.5047" stroke="var(--illustration-currentColor)" stroke-width="0.9" stroke-linecap="round" stroke-linejoin="round"/>
<path d="M32.3061 69.5646C28.1968 63.5112 23.6721 57.7509 18.7646 52.3245" stroke="var(--illustration-currentColor)" stroke-width="0.9" stroke-linecap="round" stroke-linejoin="round"/>
<path d="M24.4061 94.4073L11.9795 95.1957" stroke="var(--illustration-currentColor)" stroke-width="0.9" stroke-linecap="round" stroke-linejoin="round"/>
<path d="M21.8462 156.614L19.5449 151.71" stroke="var(--illustration-currentColor)" stroke-width="0.9" stroke-linecap="round" stroke-linejoin="round"/>
<path d="M17.8311 155.546C19.7437 154.959 21.4382 153.815 22.6989 152.262" stroke="var(--illustration-currentColor)" stroke-width="0.9" stroke-linecap="round" stroke-linejoin="round"/>
<path d="M90.2441 215.557L91.532 210.316" stroke="var(--illustration-currentColor)" stroke-width="0.9" stroke-linecap="round" stroke-linejoin="round"/>
<path d="M92.5004 213.824L87.5576 212.3" stroke="var(--illustration-currentColor)" stroke-width="0.9" stroke-linecap="round" stroke-linejoin="round"/>
<path d="M153.383 83.0202L154.356 78.7641" stroke="var(--illustration-currentColor)" stroke-width="0.9" stroke-linecap="round" stroke-linejoin="round"/>
<path d="M155.959 81.3747L151.705 80.0658" stroke="var(--illustration-currentColor)" stroke-width="0.9" stroke-linecap="round" stroke-linejoin="round"/>
<path d="M177.884 56.5044L180.829 53.8866" stroke="var(--illustration-currentColor)" stroke-width="0.9" stroke-linecap="round" stroke-linejoin="round"/>
<path d="M180.279 57.1011L178.285 53.5185" stroke="var(--illustration-currentColor)" stroke-width="0.9" stroke-linecap="round" stroke-linejoin="round"/>
<path d="M225.006 137.005L221.406 137.659" stroke="var(--illustration-currentColor)" stroke-width="0.9" stroke-linecap="round" stroke-linejoin="round"/>
<path d="M223.344 139.959L221.715 135.047" stroke="var(--illustration-currentColor)" stroke-width="0.9" stroke-linecap="round" stroke-linejoin="round"/>
<path d="M115.431 64.2864C114.906 63.9246 114.305 63.6864 113.675 63.5901C113.044 63.4938 112.399 63.5418 111.79 63.7302" stroke="var(--illustration-currentColor)" stroke-width="0.9" stroke-linecap="round" stroke-linejoin="round"/>
<path d="M113.091 66.3216V61.0857" stroke="var(--illustration-currentColor)" stroke-width="0.9" stroke-linecap="round" stroke-linejoin="round"/>
<path d="M170.688 167.443C175.599 165.116 179.783 161.492 182.788 156.963" stroke="var(--illustration-currentColor)" stroke-width="0.9" stroke-linecap="round" stroke-linejoin="round"/>
<path d="M51.8694 150.062C50.2848 151.465 48.4056 152.494 46.3701 153.073C44.3349 153.652 42.1953 153.768 40.1094 153.41" stroke="var(--illustration-currentColor)" stroke-width="0.9" stroke-linecap="round" stroke-linejoin="round"/>
<path d="M169.374 102.019C172.589 102.195 175.748 101.121 178.19 99.0213" stroke="var(--illustration-currentColor)" stroke-width="0.9" stroke-linecap="round" stroke-linejoin="round"/>
<path d="M196.553 55.1967C196.783 52.236 198.043 49.4496 200.114 47.3208" stroke="var(--illustration-currentColor)" stroke-width="0.9" stroke-linecap="round" stroke-linejoin="round"/>
<path d="M265.574 163.865C268.253 164.748 271.491 163.217 272.51 160.587" stroke="var(--illustration-currentColor)" stroke-width="0.9" stroke-linecap="round" stroke-linejoin="round"/>
<path d="M20.8125 222.767C23.839 222.505 26.6479 221.086 28.6539 218.805" stroke="var(--illustration-currentColor)" stroke-width="0.9" stroke-linecap="round" stroke-linejoin="round"/>
<path d="M81.4212 198.422C78.5205 196.387 77.6787 191.939 79.635 188.984" stroke="var(--illustration-currentColor)" stroke-width="0.9" stroke-linecap="round" stroke-linejoin="round"/>
<g opacity="0.1">
<path d="M112.377 120.173C111.376 119.916 110.583 120.281 109.717 120.776C108.701 121.31 107.731 121.926 106.814 122.618C105.17 123.955 103.831 126.036 102.873 127.898C100.613 132.296 100.146 137.234 101.223 142.042C102.338 147.026 105.076 151.608 108.53 155.322C111.903 158.947 116.427 162.474 121.08 164.26C123.894 165.34 125.281 161.143 123.031 159.63C121.273 158.448 119.345 157.53 117.596 156.315C115.903 155.143 114.318 153.823 112.859 152.37C109.804 149.319 107.431 145.612 106.293 141.425C105.243 137.557 105.235 133.498 106.584 129.701C107.228 127.887 108.279 126.427 109.396 124.889C109.92 124.1 110.534 123.376 111.226 122.729C111.906 122.139 112.446 121.747 112.779 120.881C112.818 120.733 112.798 120.576 112.723 120.444C112.648 120.311 112.523 120.213 112.376 120.172L112.377 120.173Z" fill="var(--illustration-currentColor)"/>
</g>
<g opacity="0.1">
<path d="M196.624 154.443C194.437 154.263 193.068 156.288 191.831 157.704C190.316 159.403 189.342 161.515 189.032 163.77C188.705 166.46 188.943 169.188 189.73 171.78C190.529 174.595 191.673 177.778 193.283 180.24C194.691 182.393 198.509 181.088 197.627 178.41C196.848 176.048 195.516 173.875 194.68 171.521C193.936 169.428 193.385 167.229 193.386 164.996C193.406 163.158 193.7 161.332 194.259 159.581C194.745 157.989 196.408 156.946 197.195 155.441C197.25 155.34 197.28 155.226 197.279 155.111C197.278 154.996 197.247 154.883 197.19 154.783C197.133 154.683 197.05 154.599 196.951 154.54C196.852 154.481 196.74 154.449 196.625 154.446L196.624 154.443Z" fill="var(--illustration-currentColor)"/>
</g>
<g opacity="0.1">
<path d="M44.6305 72.0714C39.9715 71.7483 36.2968 75.3186 34.3048 79.218C32.0029 83.7243 31.357 88.7043 31.9621 93.705C33.1087 103.185 38.9245 111.733 48.2011 114.79C50.557 115.571 53.0338 115.923 55.5139 115.829C58.0978 115.716 61.9525 115.421 62.9053 112.574C63.0355 112.087 63.0028 111.571 62.8129 111.103C62.6227 110.636 62.2855 110.244 61.852 109.986C60.4603 109.186 59.2762 109.62 57.8389 109.961C56.7865 110.203 55.7086 110.316 54.6289 110.297C52.4896 110.272 50.377 109.819 48.415 108.967C44.2372 107.145 41.1376 103.763 39.2128 99.6831C37.1776 95.37 36.7561 90.5172 37.1071 85.8231C37.2952 83.3061 37.8469 80.7858 39.3445 78.7053C40.7737 76.7745 42.7129 75.2808 44.9443 74.3916C46.1557 73.8966 46.0246 72.168 44.6305 72.0714Z" fill="var(--illustration-currentColor)"/>
</g>
</g>
<defs>
<linearGradient id="paint0_linear_28_12855" x1="116.966" y1="118.898" x2="116.966" y2="165.875" gradientUnits="userSpaceOnUse">
<stop stop-color="#FF9A34"/>
<stop offset="1" stop-color="#EB6421"/>
</linearGradient>
<linearGradient id="paint1_linear_28_12855" x1="255.221" y1="135.99" x2="255.221" y2="156.81" gradientUnits="userSpaceOnUse">
<stop stop-color="#FF9A34"/>
<stop offset="1" stop-color="#EB6421"/>
</linearGradient>
<linearGradient id="paint2_linear_28_12855" x1="130.944" y1="164.64" x2="130.944" y2="181.783" gradientUnits="userSpaceOnUse">
<stop stop-color="#FF9A34"/>
<stop offset="1" stop-color="#EB6421"/>
</linearGradient>
<linearGradient id="paint3_linear_28_12855" x1="121.292" y1="140.317" x2="121.292" y2="143.222" gradientUnits="userSpaceOnUse">
<stop stop-color="#FF9A34"/>
<stop offset="1" stop-color="#EB6421"/>
</linearGradient>
<linearGradient id="paint4_linear_28_12855" x1="113.95" y1="143.567" x2="113.95" y2="146.281" gradientUnits="userSpaceOnUse">
<stop stop-color="#FF9A34"/>
<stop offset="1" stop-color="#EB6421"/>
</linearGradient>
<linearGradient id="paint5_linear_28_12855" x1="28.7293" y1="185.776" x2="28.7293" y2="198.94" gradientUnits="userSpaceOnUse">
<stop stop-color="#FF9A34"/>
<stop offset="1" stop-color="#EB6421"/>
</linearGradient>
</defs>
</svg>
