<svg width="288" height="288" viewBox="0 0 288 288" fill="none" xmlns="http://www.w3.org/2000/svg">
<g clip-path="url(#clip0_28_12825)">
<mask id="mask0_28_12825" style="mask-type:luminance" maskUnits="userSpaceOnUse" x="0" y="0" width="288" height="288">
<path d="M288 0H0V288H288V0Z" fill="white"/>
</mask>
<g mask="url(#mask0_28_12825)">
<path fill-rule="evenodd" clip-rule="evenodd" d="M183.858 260.487C181.408 260.436 178.874 259.596 176.519 258.742C176.503 258.737 176.486 258.731 176.469 258.724L176.461 258.722C176.447 258.717 176.433 258.712 176.419 258.707C175.991 258.553 175.554 258.387 175.126 258.2C174.872 258.089 174.619 257.97 174.379 257.84C173.395 257.326 172.544 256.645 172.108 255.645C171.379 253.963 172.116 252.038 172.847 250.356C178.94 236.372 185.03 222.388 191.117 208.403C196.246 210.345 201.618 211.571 207.082 212.045L207.095 212.04C208.168 214.039 209.81 215.676 211.813 216.742C214.553 218.227 217.75 218.698 220.861 218.56C223.057 218.46 225.23 218.072 227.325 217.405C227.609 218.795 228.174 220.111 228.984 221.275C229.794 222.44 230.833 223.426 232.036 224.176C233.24 224.926 234.584 225.422 235.986 225.635C237.388 225.848 238.819 225.773 240.191 225.415C240.834 225.248 241.462 225.018 242.09 224.789C243.105 224.418 244.118 224.048 245.188 223.941C246.607 223.818 248.029 224.157 249.238 224.909C250.179 225.476 250.995 226.228 251.637 227.12C252.239 227.939 252.674 228.869 252.916 229.857C253.359 231.841 253.166 233.915 252.363 235.783C252.344 235.829 252.325 235.876 252.303 235.921C251.725 237.275 250.902 238.51 249.875 239.564C247.406 242.1 244.003 243.558 240.542 244.306C236.713 245.112 232.76 245.128 228.924 244.356C225.088 243.583 221.45 242.038 218.231 239.813C211.836 235.339 207.378 227.51 206.313 219.778C202.69 230.298 198.725 240.693 194.419 250.961C193.221 253.818 191.801 256.864 189.432 258.72C188.889 259.151 188.292 259.51 187.657 259.79C186.458 260.301 185.16 260.539 183.858 260.487ZM194.395 215.828C194.875 216.312 195.163 217.002 195.148 217.862V217.862C195.142 218.232 195.059 218.597 194.906 218.934C194.753 219.271 194.533 219.573 194.258 219.821C193.984 220.069 193.662 220.258 193.311 220.377C192.961 220.496 192.59 220.542 192.221 220.511C191.852 220.481 191.494 220.375 191.167 220.201C190.841 220.026 190.554 219.787 190.324 219.497C190.094 219.207 189.926 218.873 189.83 218.516C189.734 218.158 189.713 217.785 189.767 217.419C190.01 215.777 191.381 214.992 192.652 215.064C193.288 215.1 193.922 215.35 194.395 215.828ZM190.66 217.552C190.824 216.444 191.719 215.915 192.601 215.965C193.041 215.99 193.456 216.161 193.754 216.463C194.047 216.759 194.256 217.207 194.245 217.846C194.241 218.093 194.186 218.336 194.084 218.56C193.982 218.785 193.835 218.986 193.653 219.151C193.47 219.317 193.255 219.443 193.021 219.522C192.788 219.601 192.541 219.632 192.295 219.612C192.049 219.592 191.81 219.521 191.593 219.405C191.376 219.289 191.185 219.129 191.031 218.936C190.878 218.743 190.766 218.52 190.702 218.282C190.638 218.044 190.624 217.795 190.66 217.552ZM184.354 237.301C183.852 236.934 183.228 236.902 182.698 237.065C182.169 237.228 181.675 237.601 181.414 238.129C180.913 239.145 181.278 240.378 182.019 241.116C182.119 241.215 182.254 241.258 182.384 241.245C182.468 241.301 182.573 241.33 182.682 241.319C183.127 241.273 183.556 241.123 183.933 240.882C184.31 240.641 184.626 240.315 184.855 239.931L184.858 239.926L184.859 239.923L184.863 239.917C185.094 239.495 185.173 239.005 185.084 238.532C184.996 238.059 184.747 237.631 184.379 237.321C184.371 237.314 184.363 237.307 184.354 237.301ZM183.447 240.121C183.192 240.284 182.902 240.386 182.601 240.42C182.111 239.89 181.941 239.101 182.224 238.528C182.36 238.252 182.638 238.028 182.963 237.928C183.281 237.831 183.588 237.866 183.809 238.021C184.011 238.196 184.148 238.435 184.197 238.698C184.246 238.963 184.204 239.238 184.075 239.476C183.918 239.737 183.703 239.958 183.447 240.121ZM188.896 246.913C189.384 246.753 189.914 246.784 190.379 247.001C190.466 247.041 190.534 247.105 190.579 247.182C190.667 247.19 190.754 247.225 190.827 247.286C191.22 247.616 191.473 248.083 191.533 248.593C191.595 249.102 191.46 249.616 191.156 250.029C190.852 250.443 190.403 250.726 189.899 250.82C189.394 250.915 188.873 250.814 188.44 250.538C188.008 250.262 187.696 249.832 187.569 249.336C187.441 248.839 187.507 248.312 187.754 247.862C188.001 247.412 188.409 247.073 188.896 246.913ZM190.147 247.86C190.097 247.855 190.047 247.842 189.998 247.819C189.741 247.699 189.448 247.682 189.178 247.771C188.908 247.859 188.682 248.047 188.546 248.296C188.409 248.545 188.373 248.836 188.443 249.111C188.514 249.386 188.686 249.624 188.926 249.777C189.165 249.929 189.454 249.985 189.733 249.933C190.012 249.88 190.26 249.724 190.428 249.495C190.596 249.266 190.671 248.982 190.637 248.7C190.603 248.418 190.464 248.16 190.246 247.977C190.206 247.943 190.172 247.903 190.147 247.86ZM221.469 220.554C220.976 220.284 220.398 220.214 219.854 220.358C219.31 220.501 218.842 220.847 218.546 221.326C218.25 221.803 218.149 222.376 218.262 222.927C218.375 223.478 218.695 223.964 219.157 224.286C219.617 224.608 220.184 224.741 220.74 224.658C221.296 224.575 221.8 224.282 222.146 223.84C222.493 223.397 222.657 222.839 222.605 222.279C222.553 221.719 222.288 221.2 221.865 220.83C221.8 220.773 221.723 220.738 221.644 220.725C221.604 220.655 221.545 220.595 221.469 220.554ZM221.037 221.346C221.081 221.37 221.128 221.386 221.176 221.395C221.2 221.437 221.231 221.475 221.27 221.509C221.519 221.727 221.675 222.033 221.706 222.363C221.737 222.693 221.64 223.022 221.436 223.283C221.231 223.544 220.935 223.717 220.607 223.765C220.279 223.814 219.945 223.736 219.673 223.546C219.402 223.357 219.213 223.07 219.146 222.745C219.079 222.421 219.139 222.083 219.314 221.801C219.488 221.519 219.764 221.315 220.085 221.23C220.405 221.146 220.746 221.187 221.037 221.346ZM195.276 232.879C194.8 233.201 194.224 233.341 193.653 233.273C193.082 233.204 192.555 232.932 192.169 232.507C191.782 232.081 191.563 231.53 191.55 230.956C191.536 230.381 191.731 229.821 192.098 229.378C192.661 228.699 193.344 228.409 194.021 228.453C194.68 228.496 195.266 228.85 195.675 229.324C196.084 229.798 196.349 230.431 196.326 231.084C196.302 231.755 195.973 232.406 195.276 232.879ZM192.793 229.954C193.198 229.467 193.612 229.331 193.963 229.354C194.333 229.378 194.707 229.583 194.992 229.913C195.276 230.243 195.438 230.66 195.424 231.051C195.41 231.425 195.237 231.815 194.77 232.132L192.793 229.954ZM194.77 232.132C194.474 232.332 194.115 232.419 193.76 232.376C193.405 232.334 193.077 232.165 192.837 231.9C192.597 231.635 192.46 231.293 192.452 230.935C192.444 230.578 192.565 230.23 192.793 229.954L194.77 232.132ZM223.176 234.679C223.873 234.206 224.202 233.555 224.226 232.884C224.249 232.231 223.984 231.598 223.575 231.124C223.166 230.65 222.58 230.296 221.921 230.253C221.244 230.209 220.561 230.499 219.998 231.178C219.631 231.621 219.436 232.181 219.45 232.756C219.463 233.33 219.682 233.881 220.069 234.307C220.455 234.732 220.982 235.004 221.553 235.073C222.124 235.141 222.7 235.001 223.176 234.679ZM221.863 231.154C221.512 231.131 221.098 231.267 220.693 231.754L222.669 233.932L220.693 231.754C220.465 232.03 220.344 232.378 220.352 232.735C220.36 233.093 220.497 233.435 220.737 233.7C220.977 233.965 221.305 234.134 221.66 234.176C222.015 234.219 222.373 234.132 222.669 233.932C223.136 233.615 223.31 233.225 223.324 232.851C223.338 232.46 223.176 232.043 222.892 231.713C222.607 231.383 222.233 231.178 221.863 231.154ZM237.618 239.586C237.142 239.908 236.566 240.048 235.995 239.979C235.424 239.911 234.897 239.639 234.511 239.213C234.124 238.788 233.905 238.237 233.892 237.662C233.879 237.088 234.073 236.528 234.44 236.085H234.44C235.003 235.406 235.686 235.115 236.364 235.159C237.022 235.202 237.608 235.556 238.017 236.031C238.426 236.505 238.691 237.137 238.668 237.79C238.644 238.462 238.315 239.113 237.618 239.586ZM235.135 236.661C235.54 236.173 235.954 236.038 236.305 236.06C236.675 236.084 237.049 236.29 237.334 236.62C237.618 236.95 237.78 237.367 237.766 237.758C237.752 238.132 237.579 238.522 237.112 238.838L235.135 236.661ZM237.112 238.838C236.815 239.038 236.457 239.125 236.102 239.083C235.747 239.041 235.42 238.871 235.179 238.607C234.939 238.342 234.802 238 234.794 237.642C234.786 237.285 234.907 236.936 235.135 236.661L237.112 238.838ZM245.629 228.172C246.173 228.032 246.749 228.107 247.238 228.381C247.36 228.363 247.489 228.396 247.591 228.481C248.001 228.825 248.271 229.306 248.35 229.834C248.43 230.363 248.314 230.902 248.023 231.351C247.733 231.8 247.289 232.127 246.774 232.271C246.259 232.415 245.71 232.366 245.229 232.134C245.225 232.132 245.222 232.13 245.219 232.129C245.216 232.127 245.213 232.126 245.21 232.124C244.707 231.85 244.329 231.393 244.156 230.847C243.983 230.301 244.028 229.709 244.282 229.196C244.287 229.185 244.293 229.174 244.299 229.164C244.595 228.671 245.072 228.314 245.629 228.172ZM247.458 229.969C247.416 229.691 247.284 229.435 247.084 229.24C246.994 229.248 246.901 229.229 246.817 229.18C246.526 229.01 246.18 228.962 245.854 229.046C245.533 229.128 245.257 229.331 245.083 229.612C244.94 229.912 244.916 230.256 245.017 230.574C245.118 230.894 245.338 231.163 245.632 231.326C245.912 231.459 246.232 231.486 246.531 231.402C246.833 231.317 247.095 231.125 247.265 230.861C247.436 230.597 247.504 230.28 247.458 229.969Z" fill="currentColor"/>
<path d="M154.47 220.167C147.963 220.92 136.279 221.088 129.202 220.167C127.619 219.961 126.305 219.024 126.305 217.614C126.312 217.251 126.395 216.893 126.547 216.564C126.7 216.235 126.92 215.941 127.192 215.7C127.465 215.46 127.784 215.28 128.13 215.17C128.476 215.059 128.841 215.022 129.202 215.061C142.359 216.818 146.823 216.4 154.47 215.061C156.039 214.786 157.368 216.204 157.368 217.614C157.367 219.024 156.056 219.983 154.47 220.167Z" fill="url(#paint0_linear_28_12825)"/>
<path d="M157.4 211.497C149.64 212.404 135.706 212.605 127.266 211.497C125.378 211.249 123.811 210.121 123.811 208.424C123.811 206.727 125.379 205.097 127.266 205.351C142.956 207.467 148.281 206.964 157.4 205.351C159.272 205.021 160.855 206.727 160.855 208.424C160.855 210.12 159.292 211.276 157.4 211.497Z" fill="url(#paint1_linear_28_12825)"/>
<path d="M157.934 202.658C150.053 203.565 135.902 203.768 127.332 202.658C125.414 202.41 123.822 201.282 123.822 199.585C123.832 199.147 123.934 198.715 124.119 198.318C124.305 197.921 124.572 197.566 124.902 197.278C125.232 196.989 125.618 196.771 126.036 196.64C126.455 196.508 126.896 196.465 127.332 196.512C143.266 198.628 148.673 198.124 157.934 196.512C159.835 196.182 161.444 197.888 161.444 199.585C161.443 201.282 159.855 202.437 157.934 202.658Z" fill="url(#paint2_linear_28_12825)"/>
<path d="M148.857 75.8843C126.794 74.5088 107.677 93.1388 106.158 117.494C104.64 141.85 121.295 162.711 143.358 164.087C151.397 164.567 159.375 162.428 166.095 157.992C165.057 154.904 165.182 151.314 166.789 148.515C166.279 146.528 164.657 145.048 163.467 143.45C162.582 142.26 161.252 140.613 161.268 139.337C161.269 139.195 161.308 139.055 161.38 138.932C161.452 138.809 161.555 138.707 161.678 138.636C161.802 138.565 161.942 138.528 162.084 138.528C162.227 138.527 162.367 138.564 162.491 138.635C163.788 139.317 164.958 140.217 165.951 141.294C166.299 141.679 166.61 142.096 166.877 142.54C166.555 141.878 166.174 141.255 165.99 140.905C165.289 139.572 164.27 138.378 163.674 137.005C163.261 136.054 164.154 135.431 164.87 136.292C165.144 136.58 165.399 136.885 165.635 137.205C165.744 137.268 165.837 137.355 165.907 137.46C166.761 138.707 167.814 139.928 168.504 141.234C168.447 141.018 168.288 140.712 168.218 140.5C167.607 138.666 166.31 136.949 166.289 134.969C166.282 134.369 167.133 134.029 167.655 134.362C169.39 135.47 170.262 137.628 170.731 139.552C170.918 140.32 170.847 141.333 170.895 142.176C172.543 141.142 174.611 140.004 176.452 140.595C176.833 140.717 177.186 141.174 177.02 141.594C176.426 143.094 174.579 143.978 173.032 144.65C174.647 144.813 176.627 145.584 177.66 146.762C182.649 139.598 185.555 131.192 186.057 122.477C187.576 98.1206 170.921 77.2601 148.857 75.8843ZM134.089 126.757C132.727 129.877 130.187 132.192 127.889 134.621C127.821 134.698 127.737 134.76 127.643 134.803C127.55 134.846 127.448 134.869 127.345 134.87C127.242 134.872 127.14 134.851 127.046 134.811C126.951 134.771 126.866 134.711 126.795 134.636C126.489 134.978 126.172 135.311 125.832 135.626C125.065 136.337 123.912 135.189 124.682 134.476C124.757 134.407 124.828 134.334 124.901 134.264C124.812 134.185 124.745 134.085 124.707 133.973C124.668 133.86 124.66 133.74 124.682 133.623C124.509 133.607 124.345 133.541 124.21 133.433C124.074 133.324 123.973 133.179 123.919 133.014C123.785 133.037 123.648 133.026 123.52 132.983C123.392 132.939 123.276 132.864 123.184 132.765C123.092 132.666 123.026 132.545 122.992 132.414C122.958 132.282 122.958 132.145 122.991 132.013C123.031 131.859 123.081 131.707 123.122 131.553C122.612 131.927 121.74 131.603 121.8 130.931C121.775 130.896 121.753 130.86 121.734 130.823C121.684 130.72 121.633 130.619 121.584 130.517C121.129 130.764 120.551 130.463 120.476 129.767C120.313 128.259 119.501 126.934 119.568 125.368C119.608 124.413 120.513 124.478 120.83 125.319V125.321C120.993 125.358 121.139 125.45 121.241 125.582C121.819 126.272 122.693 127.301 123.201 128.045C124.027 125.84 124.81 123.287 126.664 122.154C127.56 121.607 128.376 123.014 127.485 123.558C127.473 123.566 127.462 123.574 127.451 123.581C126.935 124.95 126.595 126.384 126.103 127.763C126.078 127.834 126.053 127.904 126.027 127.973C127.086 126.593 128.269 125.312 129.56 124.146C130.351 123.468 131.505 124.613 130.71 125.296C130.624 125.37 130.54 125.446 130.456 125.521C130.431 125.69 130.353 125.846 130.232 125.965C129.355 126.873 128.864 127.971 128.246 129.073C129.639 127.506 131.133 126.165 133.171 125.563C133.914 125.343 134.355 126.15 134.089 126.757Z" fill="url(#paint3_linear_28_12825)"/>
<path d="M259.511 233.01C259.184 232.58 258.831 232.171 258.454 231.785C258.264 231.587 258.069 231.395 257.871 231.205C256.071 229.476 253.978 228.081 251.69 227.084L251.638 227.121C250.996 226.23 250.18 225.478 249.24 224.91L249.275 224.85C249.965 224.093 250.74 223.419 251.585 222.84C252.438 222.259 253.466 221.991 254.495 222.081C255.875 222.261 256.985 223.263 257.969 224.244C260.7 226.958 263.225 229.872 265.521 232.962C266.126 233.772 266.73 234.634 266.915 235.628C267.128 236.794 266.735 237.975 266.351 239.097C265.852 240.547 265.213 242.154 263.804 242.757C262.514 243.308 261.026 242.812 259.771 242.183C258.476 241.532 257.255 240.743 256.129 239.831L256.256 239.677C257.109 239.926 258.025 239.846 258.822 239.453C259.619 239.06 260.24 238.383 260.562 237.555C260.881 236.511 260.799 235.386 260.332 234.4C260.111 233.908 259.835 233.441 259.511 233.01Z" fill="url(#paint4_linear_28_12825)"/>
<path d="M210.323 149.256L210.244 149.343C208.567 151.174 208.591 154.06 209.505 156.372C210.418 158.683 212.057 160.618 213.426 162.694C214.062 163.662 214.659 164.843 214.472 165.941C214.439 166.134 214.383 166.322 214.304 166.502C214.087 166.963 213.732 167.346 213.288 167.596C212.936 167.805 212.548 167.943 212.144 168.006C211.925 168.041 211.702 168.057 211.48 168.054C210.786 168.033 210.1 167.909 209.442 167.686C207.658 167.136 206.025 166.181 204.67 164.896C203.598 163.885 202.783 162.631 202.296 161.24C201.226 158.09 202.383 154.143 205.312 152.563C204.615 151.585 204.135 150.469 203.903 149.291C203.67 148.113 203.692 146.898 203.965 145.728C204.565 143.409 206.391 141.398 208.702 140.764C211.014 140.13 213.682 140.775 215.035 142.751L215.041 142.759C216.248 141.736 217.672 141.002 219.206 140.611C220.739 140.221 222.341 140.184 223.89 140.505C225.439 140.825 226.896 141.493 228.148 142.46C229.401 143.427 230.417 144.665 231.12 146.083C232.605 149.069 232.572 152.543 232.808 155.868C233.043 159.194 233.705 162.765 236.133 165.052C240.147 168.83 246.954 167.392 251.566 170.41C254.292 172.195 255.875 175.347 256.522 178.545C257.17 181.743 256.997 185.035 256.929 188.295C256.861 191.555 256.905 194.883 257.956 197.97C259.008 201.056 261.226 203.907 264.319 204.939C267.411 205.972 272.216 204.834 273.495 201.834C272.728 204.079 271.422 206.102 269.691 207.724C267.96 209.346 265.857 210.518 263.566 211.136C261.276 211.755 258.869 211.801 256.556 211.271C254.244 210.741 252.097 209.651 250.305 208.096C247.448 205.617 245.727 202.2 244.456 198.586C243.906 197.031 243.44 195.436 243.004 193.869C241.551 188.655 240.094 183.167 236.362 179.246C233.457 176.194 229.413 174.371 225.936 171.999C224.896 171.308 223.916 170.531 223.007 169.674C222.27 168.979 221.609 168.207 221.037 167.371C220.945 167.235 220.857 167.101 220.771 166.962C218.156 162.72 218.384 156.878 221.375 152.881L221.37 152.854C219.788 153.233 218.137 153.217 216.563 152.808C214.22 152.21 212.13 150.876 210.323 149.256Z" fill="url(#paint5_linear_28_12825)"/>
<path d="M212.732 173.808C211.963 171.992 211.652 170.019 211.48 168.055C211.703 168.057 211.925 168.041 212.144 168.006C212.548 167.944 212.936 167.805 213.288 167.597C213.517 168.832 213.87 170.042 214.342 171.206C214.825 172.39 215.657 173.4 216.727 174.1C217.813 174.756 219.233 174.932 220.363 174.355C221.17 173.903 221.805 173.197 222.171 172.347C222.531 171.502 222.797 170.621 222.965 169.718L223.005 169.675C223.914 170.531 224.894 171.309 225.935 172L225.929 172.008C225.277 174.39 224.463 176.994 222.363 178.29C220.651 179.349 218.371 179.244 216.596 178.298C214.822 177.352 213.518 175.661 212.732 173.808Z" fill="currentColor"/>
<path d="M180.148 265.845C180.551 265.537 180.922 265.19 181.258 264.81C181.802 264.183 182.28 263.501 182.683 262.775C183.109 262.032 183.486 261.257 183.857 260.487C185.16 260.54 186.459 260.302 187.659 259.791C188.293 259.511 188.89 259.151 189.433 258.721C189.816 260.585 190.176 262.303 190.103 264.206C190.03 266.108 189.739 268.398 188.146 269.438C186.181 270.723 181.246 271.612 178.147 271.712C176.122 271.774 175.978 271.525 174.003 271.072C172.027 270.62 170.496 269.799 168.412 268.536C166.678 267.486 167.727 264.081 169.03 262.528C169.897 261.496 170.683 261.314 171.865 260.658C173.046 260.002 174.217 259.2 174.369 257.859L174.377 257.84C174.617 257.97 174.87 258.089 175.125 258.2L174.94 258.764C175.127 259.016 175.312 259.27 175.498 259.522C174.923 259.97 174.404 260.487 173.954 261.061C173.659 261.449 173.423 261.877 173.252 262.332C172.994 262.976 172.928 263.681 173.062 264.362C173.422 266.018 175.184 267.123 176.878 267.092C178.073 267.035 179.218 266.598 180.148 265.845Z" fill="url(#paint6_linear_28_12825)"/>
<path d="M176.42 258.707C176.452 258.718 176.487 258.731 176.52 258.742C176.178 258.997 175.834 259.254 175.5 259.522C175.313 259.27 175.128 259.015 174.941 258.763L175.126 258.2C175.555 258.387 175.991 258.552 176.42 258.707Z" fill="url(#paint7_linear_28_12825)"/>
<path d="M90.8262 171.306C91.0482 179.458 91.3383 189.596 91.563 197.745C91.6254 200.015 91.6389 202.457 90.36 204.335C89.9517 204.923 89.4441 205.434 88.86 205.847C87.7059 206.698 86.2884 207.246 84.9117 207.704C79.5027 209.492 73.8741 210.531 68.1831 210.794C66.3813 210.875 64.5492 210.875 62.8041 210.422C62.5737 210.362 62.3433 210.292 62.1159 210.214C60.6093 209.744 59.2977 208.794 58.3815 207.509C56.5278 204.732 57.3915 201.016 58.4682 197.854C60.4077 192.152 62.8131 186.62 65.6604 181.313C59.0238 184.659 53.6718 190.619 52.0134 197.865C51.4929 200.141 51.1053 202.778 49.1409 204.041C48.1974 204.6 47.0991 204.84 46.0083 204.726C45.0414 204.649 44.0832 204.487 43.1439 204.244C41.9841 203.97 40.7346 203.626 39.7485 202.995C39.1335 202.621 38.6343 202.083 38.3067 201.442C37.6593 200.119 37.9653 198.548 38.3556 197.128C40.4322 189.652 44.5077 182.884 50.1435 177.552C55.7559 172.262 63.6735 168.207 71.2161 166.598L71.2131 166.579C71.6085 166.491 71.9955 166.369 72.3702 166.216C75.2346 165.135 78.0981 164.055 80.9607 162.976C81.8502 162.61 82.7049 162.163 83.5134 161.643C84.1908 161.216 84.9024 160.846 85.6407 160.537C87.4047 159.838 89.1366 159.049 90.8223 158.179C92.4969 157.317 94.1271 156.375 95.7123 155.353C97.3221 154.315 98.8785 153.202 100.382 152.014C106.37 147.302 111.385 141.47 115.148 134.844C115.828 133.636 116.476 132.392 117.392 131.351C118.193 130.381 119.291 129.701 120.516 129.416C120.653 129.389 120.79 129.37 120.928 129.359C122.866 129.199 124.608 130.435 126.156 131.611C127.046 132.248 127.873 132.967 128.627 133.76C129.209 134.381 129.65 135.119 129.923 135.925C130.493 137.7 129.974 139.632 129.305 141.372C126.183 149.488 119.798 156.017 112.541 160.805C109.906 162.528 107.168 164.086 104.341 165.471C99.9558 167.645 95.3925 169.502 90.8262 171.306Z" fill="currentColor"/>
<path d="M123.79 262.961C125.082 264.663 124.169 267.251 122.538 268.636C119.838 270.926 115.936 270.918 112.398 270.79C109.1 270.668 105.802 270.548 102.504 270.43C101.106 270.379 99.5987 270.289 98.5139 269.403C96.8852 268.067 96.8939 265.707 97.091 263.609L97.1045 263.59C99.2207 264.969 101.733 265.611 104.251 265.417C108.001 265.053 111.516 262.186 112.251 258.552L112.408 258.582C115.147 259.449 117.888 260.317 120.628 261.186C121.8 261.558 123.047 261.983 123.79 262.961Z" fill="currentColor"/>
<path d="M84.0869 159.074C84.4718 159.906 84.1196 160.925 83.48 161.583L83.5151 161.64C82.706 162.161 81.8516 162.607 80.9624 162.974C78.098 164.055 75.2345 165.135 72.3719 166.214C71.9969 166.367 71.6099 166.488 71.2151 166.577C71.0438 166.613 70.8695 166.633 70.6946 166.637C70.4042 166.655 70.1141 166.599 69.8513 166.475C69.5882 166.351 69.3611 166.162 69.1907 165.927C68.8274 165.347 69.0038 164.552 69.4262 164.011C69.8846 163.498 70.4423 163.084 71.0657 162.794C71.5211 162.545 71.9735 162.284 72.4262 162.022V162.018C73.4162 161.447 74.4062 160.867 75.4316 160.398C76.5536 159.883 77.7416 159.672 78.8516 159.065C79.0016 158.984 79.1471 158.902 79.2962 158.825C79.994 158.394 80.7644 158.095 81.5696 157.941C82.5449 157.808 83.6726 158.18 84.0869 159.074Z" fill="url(#paint8_linear_28_12825)"/>
<path d="M78.7694 137.527C78.7133 137.607 78.6632 137.691 78.6194 137.779C78.6692 137.695 78.7199 137.61 78.7694 137.527ZM79.8236 136.156C79.4084 136.555 79.0547 137.014 78.7736 137.517C79.1219 136.999 79.7999 136.26 79.8236 136.156ZM79.8236 136.153C79.9022 136.086 79.9834 136.02 80.0675 135.958C80.6975 135.5 81.6121 135.335 82.2574 135.777C83.1301 136.377 83.0519 137.777 82.3796 138.592C81.7073 139.408 80.6507 139.782 79.6478 140.122C78.9896 140.344 78.3278 140.569 77.6678 140.791L73.6598 142.149C71.8496 142.762 69.8902 143.491 68.9038 145.128C68.1121 146.439 68.1209 148.109 68.5739 149.572C69.0269 151.035 69.8774 152.332 70.7174 153.615C70.7642 154.069 70.8473 154.519 70.9667 154.959L70.9343 154.962C70.9151 155.843 70.7243 157.089 69.9587 157.523C69.6848 157.667 69.3686 157.71 69.0659 157.645C68.7632 157.579 68.4928 157.41 68.3026 157.165C68.1796 156.992 68.1032 156.791 68.0807 156.58C68.3546 156.203 68.5549 155.767 68.4682 155.477C68.3231 155.618 68.2124 155.791 68.1452 155.983C68.078 156.174 68.0558 156.378 68.0807 156.58C67.8983 156.844 67.6696 157.073 67.4059 157.257C67.1713 157.394 66.8989 157.452 66.6286 157.422C66.3586 157.392 66.1054 157.276 65.9059 157.092C65.7307 156.9 65.6023 156.67 65.5309 156.42C65.4595 156.17 65.4469 155.907 65.494 155.652C65.5315 155.41 65.597 155.174 65.6891 154.947C65.7962 154.854 65.8817 154.74 65.9399 154.611C65.9981 154.482 66.0277 154.341 66.0268 154.2C65.9068 154.444 65.7869 154.693 65.6882 154.948C65.4989 155.15 65.2615 155.301 64.9981 155.387C64.7665 155.439 64.5236 155.409 64.3118 155.3C64.1003 155.192 63.9338 155.013 63.8411 154.794C63.7358 154.408 63.7616 153.998 63.9143 153.628C64.2212 152.65 64.6835 151.728 65.2829 150.897C64.7444 149.214 64.4801 147.455 64.4999 145.688C64.5215 144.598 64.7684 143.524 65.2256 142.533C65.6828 141.543 66.34 140.659 67.1558 139.935C68.7926 138.504 71.0741 137.488 73.2341 137.751C72.9935 137.135 72.8912 136.473 72.9341 135.813C73.0241 135.157 73.487 134.507 74.1428 134.428C74.915 134.334 75.5828 135.079 75.6929 135.848C75.7222 136.055 75.7258 136.264 75.7036 136.472C75.5083 137.004 75.3532 137.55 75.2401 138.106C75.469 137.585 75.6247 137.035 75.7036 136.472C75.8329 136.138 76.0046 135.823 76.2137 135.534C76.7612 134.789 77.7286 134.274 78.6136 134.539C79.306 134.744 79.9799 135.45 79.8236 136.153Z" fill="currentColor"/>
<path d="M27.9722 228.055C28.8254 227.614 29.7472 227.322 30.6982 227.19C33.3268 226.835 35.9419 227.716 38.5651 228.093C44.0821 228.857 49.6768 227.401 54.1201 224.043C56.2984 222.384 58.126 220.31 59.4973 217.941C60.8686 215.571 61.7563 212.953 62.1091 210.238L62.1172 210.211C62.3446 210.29 62.575 210.361 62.8054 210.421C64.5505 210.874 66.3826 210.874 68.1844 210.793C73.8754 210.53 79.504 209.491 84.913 207.703C86.2897 207.245 87.7066 206.697 88.8613 205.846L88.864 205.852C94.7716 217.569 100.598 229.102 106.504 240.821C108.637 245.051 110.786 249.322 111.932 253.918C112.261 255.09 112.415 256.305 112.387 257.522C112.37 257.869 112.325 258.213 112.252 258.552C111.518 262.186 108.003 265.053 104.252 265.416C101.734 265.61 99.2221 264.968 97.1059 263.59C95.7403 262.734 94.5313 261.651 93.5314 260.386C91.5127 257.831 90.3421 254.728 89.2012 251.68C85.2013 240.973 80.9278 227.968 76.9252 217.261C74.923 225.981 69.9499 233.732 62.8582 239.187C55.7668 244.641 46.9984 247.459 38.0569 247.157C35.3605 247.067 32.6398 246.682 30.16 245.627C28.7956 245.053 27.5364 244.255 26.4341 243.267C25.5247 242.45 24.7661 241.48 24.1931 240.4C23.5305 239.119 23.1707 237.703 23.1416 236.261C23.1124 234.819 23.4147 233.39 24.0251 232.083C24.8738 230.351 26.2579 228.939 27.9722 228.055Z" fill="url(#paint9_linear_28_12825)"/>
<path d="M27.9725 228.055C26.258 228.938 24.8736 230.35 24.0239 232.082C23.4137 233.389 23.1115 234.818 23.1406 236.26C23.1697 237.702 23.5294 239.118 24.1919 240.399C24.765 241.478 25.5236 242.449 26.4329 243.266C25.1459 244.269 23.8614 245.27 22.5794 246.27C20.3168 248.031 17.753 249.89 14.8967 249.644C11.9915 249.394 9.55282 246.681 9.49672 243.766C9.44272 240.872 11.3669 238.362 13.193 236.118C14.819 234.124 16.4432 232.129 18.0656 230.135C18.9977 228.989 19.9895 227.796 21.3554 227.235C23.4656 226.364 25.8533 227.209 27.9725 228.055Z" fill="currentColor"/>
<path d="M79.2001 158.648C78.8113 158.204 78.5803 157.644 78.5437 157.054C78.5068 156.465 78.6664 155.88 78.997 155.391C79.3927 154.83 80.005 154.44 80.3521 153.846C80.8183 153.047 80.7151 152.053 80.5714 151.139C79.9696 147.606 78.9985 144.145 77.6743 140.814" stroke="currentColor" stroke-width="0.9027" stroke-linecap="round" stroke-linejoin="round"/>
<path d="M68.0791 156.578C68.1013 156.789 68.1778 156.991 68.3011 157.163C68.4913 157.408 68.7613 157.577 69.064 157.643C69.3667 157.708 69.6829 157.665 69.9571 157.521C70.7236 157.088 70.9135 155.841 70.9327 154.96" stroke="currentColor" stroke-width="0.9027" stroke-linecap="round" stroke-linejoin="round"/>
<path d="M68.0793 156.578C68.3532 156.201 68.5536 155.765 68.4669 155.475C68.3214 155.616 68.2107 155.79 68.1435 155.981C68.0763 156.172 68.0544 156.377 68.0793 156.578Z" stroke="currentColor" stroke-width="0.9027" stroke-linecap="round" stroke-linejoin="round"/>
<path d="M65.6887 154.946C65.5966 155.173 65.5312 155.409 65.4937 155.651C65.4466 155.907 65.4592 156.17 65.5306 156.419C65.602 156.669 65.7304 156.899 65.9056 157.091C66.1048 157.276 66.3583 157.391 66.6283 157.421C66.8983 157.451 67.1707 157.393 67.4056 157.256C67.669 157.072 67.8976 156.843 68.0803 156.579" stroke="currentColor" stroke-width="0.9027" stroke-linecap="round" stroke-linejoin="round"/>
<path d="M65.689 154.946C65.7958 154.854 65.8816 154.739 65.9401 154.61C65.9986 154.481 66.0283 154.342 66.0277 154.2C65.9101 154.442 65.7865 154.692 65.689 154.946Z" stroke="currentColor" stroke-width="0.9027" stroke-linecap="round" stroke-linejoin="round"/>
<path d="M65.2853 150.895C64.6859 151.726 64.2236 152.649 63.9167 153.626C63.7637 153.996 63.7382 154.406 63.8438 154.791C63.9362 155.01 64.103 155.19 64.3145 155.298C64.526 155.407 64.7687 155.438 65.0006 155.385C65.2634 155.299 65.5001 155.148 65.6891 154.946" stroke="currentColor" stroke-width="0.9027" stroke-linecap="round" stroke-linejoin="round"/>
<path d="M75.7048 136.47C75.727 136.263 75.7234 136.053 75.694 135.847C75.583 135.077 74.9164 134.332 74.1439 134.427C73.4881 134.505 73.0246 135.155 72.9352 135.811C72.8923 136.471 72.9946 137.133 73.2352 137.749C71.0752 137.486 68.7952 138.502 67.1569 139.933C66.3412 140.657 65.6839 141.542 65.2267 142.532C64.7698 143.522 64.5226 144.596 64.501 145.687C64.4815 147.454 64.7458 149.212 65.284 150.895" stroke="currentColor" stroke-width="0.9027" stroke-linecap="round" stroke-linejoin="round"/>
<path d="M75.7047 136.47C75.5091 137.002 75.3543 137.548 75.2412 138.104C75.4698 137.583 75.6258 137.033 75.7047 136.47Z" stroke="currentColor" stroke-width="0.9027" stroke-linecap="round" stroke-linejoin="round"/>
<path d="M79.824 136.153C79.9812 135.451 79.3065 134.743 78.6156 134.538C77.7294 134.272 76.7619 134.787 76.2156 135.532C76.0062 135.822 75.8349 136.137 75.7056 136.47" stroke="currentColor" stroke-width="0.9027" stroke-linecap="round" stroke-linejoin="round"/>
<path d="M78.7749 137.517C79.122 136.999 79.7994 136.259 79.8249 136.156" stroke="currentColor" stroke-width="0.9027" stroke-linecap="round" stroke-linejoin="round"/>
<path d="M78.7696 137.527C78.721 137.611 78.6694 137.695 78.6196 137.779C78.6634 137.691 78.7135 137.607 78.7696 137.527Z" stroke="currentColor" stroke-width="0.9027" stroke-linecap="round" stroke-linejoin="round"/>
<path d="M78.7695 137.527C78.7704 137.523 78.7722 137.519 78.7749 137.516" stroke="currentColor" stroke-width="0.9027" stroke-linecap="round" stroke-linejoin="round"/>
<path d="M79.8239 136.156C79.4087 136.555 79.055 137.013 78.7739 137.517" stroke="currentColor" stroke-width="0.9027" stroke-linecap="round" stroke-linejoin="round"/>
<path d="M79.8237 136.156V136.153" stroke="currentColor" stroke-width="0.9027" stroke-linecap="round" stroke-linejoin="round"/>
<path d="M72.3989 161.976C71.9111 159.811 70.9679 157.497 70.9889 155.28C70.9889 155.172 70.9808 155.064 70.9646 154.957C70.8452 154.517 70.7621 154.067 70.7153 153.613C69.8753 152.331 69.0245 151.03 68.5718 149.57C68.1191 148.109 68.1113 146.437 68.9018 145.125C69.8882 143.489 71.8475 142.76 73.6577 142.147L77.6657 140.789C78.3257 140.567 78.9884 140.342 79.6457 140.12C80.6486 139.781 81.7028 139.405 82.3775 138.59C83.0522 137.776 83.1275 136.373 82.2554 135.775C81.6107 135.333 80.6972 135.498 80.0654 135.956C79.9814 136.018 79.9001 136.083 79.8215 136.151" stroke="currentColor" stroke-width="0.9027" stroke-linecap="round" stroke-linejoin="round"/>
<path d="M83.4794 161.583C84.119 160.925 84.4712 159.906 84.0863 159.074C83.6717 158.179 82.5443 157.808 81.5687 157.941C80.7635 158.095 79.9931 158.394 79.2953 158.824C79.1453 158.903 78.9998 158.984 78.8507 159.064C77.7425 159.671 76.553 159.883 75.4307 160.398C74.4062 160.867 73.4144 161.448 72.4253 162.018V162.02C71.9726 162.283 71.5202 162.544 71.0648 162.793C70.4414 163.083 69.8837 163.497 69.4253 164.009C69.0026 164.552 68.8253 165.346 69.1898 165.926C69.3602 166.161 69.5873 166.35 69.8504 166.474C70.1132 166.598 70.4033 166.654 70.6937 166.635C70.8686 166.632 71.0429 166.612 71.2142 166.575C71.6093 166.487 71.9963 166.366 72.371 166.212C75.2354 165.131 78.0989 164.051 80.9615 162.972C81.851 162.606 82.7054 162.16 83.5142 161.639C84.1913 161.212 84.9029 160.842 85.6415 160.533C87.4055 159.834 89.1374 159.046 90.8231 158.176C92.4977 157.314 94.1276 156.372 95.7131 155.35C97.3229 154.312 98.8793 153.199 100.382 152.011C106.37 147.299 111.385 141.467 115.149 134.841C115.829 133.632 116.477 132.388 117.393 131.348C118.194 130.378 119.292 129.698 120.517 129.413C120.653 129.386 120.791 129.367 120.929 129.356C122.867 129.196 124.609 130.432 126.157 131.608C127.046 132.245 127.874 132.964 128.628 133.757C129.209 134.378 129.651 135.116 129.923 135.922C130.493 137.697 129.975 139.629 129.305 141.369C126.184 149.485 119.799 156.013 112.542 160.802C109.907 162.524 107.168 164.083 104.341 165.468C99.9542 167.644 95.3906 169.501 90.8243 171.305C90.2309 171.538 89.6345 171.774 89.0411 172.007" stroke="currentColor" stroke-width="0.9027" stroke-linecap="round" stroke-linejoin="round"/>
<path d="M90.8262 171.3V171.305C91.0482 179.457 91.3383 189.595 91.563 197.744C91.6254 200.014 91.6389 202.456 90.36 204.334C89.9517 204.922 89.4441 205.433 88.86 205.846C87.7059 206.697 86.2884 207.245 84.9117 207.703C79.5027 209.491 73.8741 210.53 68.1831 210.793C66.3813 210.874 64.5492 210.874 62.8041 210.421C62.5737 210.361 62.3433 210.291 62.1159 210.213C60.6093 209.744 59.2977 208.793 58.3815 207.508C56.5278 204.731 57.3915 201.015 58.4682 197.853C60.4077 192.151 62.8131 186.619 65.6604 181.312C59.0238 184.658 53.6718 190.618 52.0134 197.864C51.4929 200.14 51.1053 202.777 49.1409 204.04C48.1974 204.599 47.0991 204.839 46.0083 204.725C45.0414 204.648 44.0832 204.487 43.1439 204.243C41.9841 203.969 40.7346 203.625 39.7485 202.994C39.1335 202.62 38.6343 202.082 38.3067 201.441C37.6593 200.118 37.9653 198.547 38.3556 197.127C40.4322 189.651 44.5077 182.883 50.1435 177.551C55.7559 172.261 63.6735 168.206 71.2161 166.597" stroke="currentColor" stroke-width="0.9027" stroke-linecap="round" stroke-linejoin="round"/>
<path d="M42.2888 210.898C42.2459 212.234 42.3239 213.571 42.5219 214.893C42.5786 215.275 42.7763 215.76 43.1585 215.714C43.454 215.679 43.5977 215.337 43.6736 215.048C44.2931 212.689 44.501 210.241 44.2886 207.812C44.5064 209.039 44.9159 210.224 45.5024 211.324C45.6893 211.676 45.974 212.066 46.3751 212.056C46.5248 212.039 46.6664 211.978 46.7825 211.882C46.8983 211.786 46.9838 211.658 47.0282 211.514C47.1104 211.223 47.1308 210.918 47.0882 210.619C46.9361 208.643 46.5743 206.687 46.0082 204.788" stroke="currentColor" stroke-width="0.9027" stroke-linecap="round" stroke-linejoin="round"/>
<path d="M42.2886 210.898C42.4212 210.119 42.4893 209.329 42.4917 208.538C42.3822 209.321 42.3144 210.108 42.2886 210.898Z" stroke="currentColor" stroke-width="0.9027" stroke-linecap="round" stroke-linejoin="round"/>
<path d="M39.72 203.04C37.8417 206.28 37.4871 208.707 37.35 212.452C37.3338 212.921 37.4529 213.538 37.9218 213.59C38.3475 213.636 38.61 213.145 38.7513 212.739C39.3825 210.917 40.0128 209.096 40.6428 207.273C40.0164 209.553 39.7515 211.916 39.8571 214.278C39.8706 214.619 39.9471 215.034 40.2693 215.151C40.6704 215.297 41.025 214.844 41.2014 214.454C41.7165 213.321 42.0819 212.126 42.288 210.899" stroke="currentColor" stroke-width="0.9027" stroke-linecap="round" stroke-linejoin="round"/>
<path d="M120.519 129.408C119.913 128.248 119.582 126.965 119.552 125.658C119.541 125.284 119.638 124.81 120.004 124.734C120.299 124.674 120.557 124.929 120.749 125.162C121.581 126.154 122.414 127.146 123.248 128.138C123.344 127.007 123.684 125.91 124.243 124.922C124.802 123.934 125.568 123.079 126.488 122.414C126.824 122.176 127.296 121.964 127.626 122.214C127.984 122.484 127.859 123.041 127.702 123.458C127.019 125.265 126.336 127.072 125.653 128.878C126.486 127.079 127.751 125.515 129.336 124.325C129.546 124.149 129.791 124.019 130.054 123.943C130.186 123.907 130.326 123.91 130.457 123.951C130.588 123.992 130.704 124.069 130.794 124.173C131.057 124.528 130.81 125.021 130.566 125.389C129.542 126.937 128.516 128.484 127.49 130.032C128.78 128.377 130.369 126.981 132.176 125.915C132.474 125.714 132.812 125.58 133.168 125.522C133.345 125.496 133.527 125.521 133.691 125.595C133.855 125.669 133.994 125.789 134.092 125.939C134.325 126.365 134.067 126.885 133.807 127.297C132.349 129.591 130.65 131.723 128.739 133.657" stroke="currentColor" stroke-width="0.9027" stroke-linecap="round" stroke-linejoin="round"/>
<path d="M76.6315 142.811C76.0732 142.758 75.5104 142.776 74.9569 142.866C74.6602 142.901 74.3758 143.005 74.1256 143.168C73.8757 143.332 73.6666 143.551 73.5154 143.809C73.3639 144.066 73.2742 144.355 73.2529 144.653C73.2319 144.951 73.2799 145.25 73.3933 145.527C73.6 146.113 73.8913 146.666 74.2579 147.169C74.8243 148.033 75.3904 148.897 75.9568 149.76C76.1791 150.098 76.4095 150.518 76.2388 150.887C76.1806 150.996 76.0984 151.09 75.9982 151.162C75.8983 151.235 75.7831 151.283 75.6616 151.304C75.4186 151.344 75.1711 151.346 74.9275 151.312" stroke="currentColor" stroke-width="0.9027" stroke-linecap="round" stroke-linejoin="round"/>
<path d="M75.9024 146.258C75.7641 145.917 75.6231 145.576 75.4824 145.231" stroke="currentColor" stroke-width="0.9027" stroke-linecap="round" stroke-linejoin="round"/>
<path d="M71.3526 147.467C71.2278 147.142 71.1033 146.817 70.9785 146.494" stroke="currentColor" stroke-width="0.9027" stroke-linecap="round" stroke-linejoin="round"/>
<path d="M75.2398 154.45C75.061 154.651 74.8342 154.804 74.5804 154.893C74.3266 154.983 74.0545 155.007 73.789 154.963C73.5235 154.919 73.2736 154.808 73.0624 154.641C72.8515 154.474 72.6859 154.257 72.5815 154.009" stroke="currentColor" stroke-width="0.9027" stroke-linecap="round" stroke-linejoin="round"/>
<path d="M62.1091 210.24C61.756 212.955 60.8683 215.573 59.497 217.942C58.1257 220.312 56.2981 222.386 54.1201 224.044C49.6765 227.402 44.0818 228.859 38.5651 228.094C35.9419 227.718 33.3268 226.837 30.6982 227.192C29.747 227.323 28.8251 227.616 27.972 228.057C26.2576 228.94 24.8732 230.352 24.0234 232.084C23.4132 233.39 23.111 234.82 23.1401 236.261C23.1692 237.704 23.5289 239.12 24.1914 240.401C24.7645 241.48 25.5231 242.451 26.4324 243.268C27.5347 244.256 28.7939 245.053 30.1585 245.628C32.6383 246.685 35.359 247.069 38.0554 247.158C46.9972 247.46 55.7656 244.642 62.857 239.187C69.9487 233.732 74.9218 225.98 76.9237 217.26" stroke="currentColor" stroke-width="0.9027" stroke-linecap="round" stroke-linejoin="round"/>
<path d="M88.8641 205.853C94.7717 217.57 100.598 229.103 106.504 240.822C108.637 245.052 110.786 249.323 111.932 253.919C112.261 255.091 112.415 256.306 112.387 257.523C112.37 257.869 112.324 258.214 112.252 258.553C111.518 262.187 108.003 265.054 104.252 265.417C101.734 265.611 99.2222 264.969 97.106 263.591C95.7404 262.735 94.5314 261.652 93.5318 260.387C91.5128 257.832 90.3422 254.729 89.2013 251.681C85.2014 240.974 80.9279 227.969 76.9253 217.262" stroke="currentColor" stroke-width="0.9027" stroke-linecap="round" stroke-linejoin="round"/>
<path d="M97.0913 263.61C96.8936 265.707 96.8855 268.067 98.5142 269.404C99.5981 270.29 101.105 270.379 102.504 270.431C105.802 270.551 109.1 270.671 112.398 270.791C115.938 270.918 119.84 270.926 122.538 268.636C124.169 267.251 125.083 264.663 123.79 262.962C123.048 261.983 121.801 261.558 120.627 261.187C117.888 260.32 115.147 259.451 112.407 258.583" stroke="currentColor" stroke-width="0.9027" stroke-linecap="round" stroke-linejoin="round"/>
<path d="M27.9775 228.058C27.9748 228.058 27.9748 228.055 27.9721 228.055C25.8529 227.209 23.4652 226.364 21.3544 227.234C19.9882 227.795 18.9967 228.987 18.0646 230.133C16.4412 232.128 14.817 234.123 13.192 236.117C11.3659 238.361 9.44203 240.87 9.49573 243.765C9.55273 246.681 11.9917 249.393 14.8957 249.642C17.7517 249.889 20.3155 248.03 22.5784 246.269C23.8628 245.266 25.1473 244.265 26.4319 243.266L26.467 243.239" stroke="currentColor" stroke-width="0.9027" stroke-linecap="round" stroke-linejoin="round"/>
<path d="M213.307 153.594C213.194 153.473 213.05 153.385 212.891 153.34C212.732 153.295 212.563 153.294 212.404 153.339C212.245 153.383 212.101 153.471 211.988 153.592C211.875 153.713 211.798 153.863 211.765 154.025" stroke="currentColor" stroke-width="0.9027" stroke-linecap="round" stroke-linejoin="round"/>
<path d="M214.811 159.711C215.073 159.931 215.387 160.082 215.723 160.148C216.059 160.215 216.407 160.194 216.733 160.089C217.06 159.984 217.354 159.798 217.588 159.548C217.823 159.298 217.99 158.993 218.074 158.661" stroke="currentColor" stroke-width="0.9027" stroke-linecap="round" stroke-linejoin="round"/>
<path d="M215.924 153.448C216.308 153.314 216.722 153.298 217.115 153.399C217.508 153.501 217.862 153.717 218.133 154.019" stroke="currentColor" stroke-width="0.9027" stroke-linecap="round" stroke-linejoin="round"/>
<path d="M210.67 152.033C211.18 151.876 211.692 151.716 212.2 151.556" stroke="currentColor" stroke-width="0.9027" stroke-linecap="round" stroke-linejoin="round"/>
<path d="M215.035 142.749C213.683 140.774 211.011 140.129 208.702 140.763C206.394 141.397 204.564 143.408 203.965 145.727C203.692 146.897 203.67 148.111 203.903 149.29C204.135 150.468 204.615 151.583 205.312 152.562C202.383 154.142 201.226 158.087 202.296 161.239C202.783 162.63 203.598 163.883 204.67 164.894C206.025 166.18 207.658 167.135 209.442 167.684C210.1 167.907 210.786 168.032 211.48 168.053C211.702 168.056 211.925 168.039 212.144 168.004C212.548 167.942 212.936 167.803 213.288 167.595C213.732 167.345 214.087 166.962 214.304 166.5C214.383 166.321 214.439 166.133 214.472 165.939C214.659 164.842 214.062 163.659 213.426 162.693C212.057 160.617 210.417 158.682 209.505 156.371C208.592 154.059 208.567 151.173 210.244 149.341" stroke="currentColor" stroke-width="0.9027" stroke-linecap="round" stroke-linejoin="round"/>
<path d="M209.624 148.605C209.852 148.827 210.085 149.047 210.323 149.256C212.131 150.876 214.22 152.209 216.562 152.808C218.136 153.217 219.787 153.233 221.369 152.854C222.457 152.594 223.475 152.102 224.355 151.413" stroke="currentColor" stroke-width="0.9027" stroke-linecap="round" stroke-linejoin="round"/>
<path d="M221.374 152.881C218.382 156.878 218.154 162.721 220.77 166.962C220.856 167.1 220.943 167.236 221.035 167.371C221.607 168.208 222.268 168.98 223.005 169.674C223.914 170.531 224.894 171.309 225.935 171.999C229.412 174.371 233.455 176.194 236.36 179.246C240.092 183.167 241.55 188.655 243.002 193.869C243.439 195.438 243.905 197.031 244.455 198.587C245.726 202.199 247.447 205.616 250.303 208.097C252.095 209.651 254.242 210.741 256.555 211.271C258.867 211.801 261.274 211.755 263.565 211.137C265.855 210.518 267.958 209.346 269.689 207.724C271.421 206.102 272.727 204.08 273.493 201.834" stroke="currentColor" stroke-width="0.9027" stroke-linecap="round" stroke-linejoin="round"/>
<path d="M214.223 143.522C214.48 143.251 214.753 142.996 215.041 142.757C216.249 141.735 217.673 141.001 219.206 140.611C220.739 140.22 222.341 140.184 223.89 140.504C225.44 140.825 226.896 141.493 228.148 142.46C229.401 143.426 230.417 144.665 231.12 146.083C232.605 149.069 232.572 152.543 232.808 155.868C233.043 159.194 233.705 162.765 236.133 165.052C240.147 168.83 246.954 167.392 251.566 170.41C254.292 172.195 255.875 175.347 256.522 178.545C257.17 181.743 256.996 185.035 256.929 188.295C256.861 191.555 256.905 194.883 257.956 197.969C259.007 201.056 261.226 203.907 264.319 204.939C267.412 205.972 272.215 204.834 273.495 201.834" stroke="currentColor" stroke-width="0.9027" stroke-linecap="round" stroke-linejoin="round"/>
<path d="M214.607 165.965C214.761 166.612 215.103 167.2 215.59 167.654C216.077 168.108 216.687 168.408 217.343 168.515C218 168.623 218.674 168.534 219.28 168.26C219.887 167.985 220.398 167.538 220.751 166.973" stroke="currentColor" stroke-width="0.9027" stroke-linecap="round" stroke-linejoin="round"/>
<path d="M213.28 167.558C213.282 167.572 213.285 167.583 213.288 167.596C213.517 168.832 213.87 170.041 214.342 171.206C214.825 172.39 215.657 173.399 216.726 174.1C217.813 174.756 219.233 174.932 220.363 174.354C221.17 173.902 221.805 173.196 222.171 172.346C222.531 171.502 222.797 170.621 222.965 169.718" stroke="currentColor" stroke-width="0.9027" stroke-linecap="round" stroke-linejoin="round"/>
<path d="M211.47 167.93C211.472 167.971 211.478 168.014 211.481 168.055C211.651 170.019 211.963 171.992 212.732 173.808C213.518 175.662 214.819 177.35 216.597 178.298C218.374 179.247 220.651 179.348 222.364 178.29C224.464 176.995 225.277 174.39 225.93 172.008" stroke="currentColor" stroke-width="0.9027" stroke-linecap="round" stroke-linejoin="round"/>
<path d="M204.873 164.933C204.806 164.919 204.738 164.908 204.67 164.895C196.233 163.273 188.517 159.049 182.603 152.817C181.583 151.744 180.625 150.614 179.733 149.432C178.636 147.98 177.587 146.405 176.021 145.475C174.946 144.854 173.704 144.583 172.468 144.701C171.317 144.806 170.202 145.163 169.205 145.748C168.207 146.332 167.35 147.129 166.696 148.082C166.653 148.15 166.609 148.215 166.569 148.283C164.653 151.38 164.927 155.475 166.512 158.753C167.804 161.427 169.856 163.643 172.124 165.59C172.636 166.03 173.157 166.456 173.684 166.869C181.491 172.97 190.677 177.063 200.434 178.787C201.144 178.914 201.857 179.026 202.572 179.126" stroke="currentColor" stroke-width="0.9027" stroke-linecap="round" stroke-linejoin="round"/>
<path d="M200.435 178.786V178.788C198.918 186.636 194.882 193.775 188.94 199.121C187.44 200.474 185.674 202.07 185.913 204.071C186.143 205.998 188.124 207.158 189.913 207.914C190.309 208.082 190.712 208.244 191.119 208.401C196.247 210.344 201.619 211.569 207.083 212.044" stroke="currentColor" stroke-width="0.9027" stroke-linecap="round" stroke-linejoin="round"/>
<path d="M229.826 178.775C231.718 182.88 232.845 187.558 231.691 191.929C230.536 196.3 226.609 200.132 222.091 200.042C219.855 199.999 217.72 199.048 215.487 198.926C213.777 198.845 212.08 199.25 210.592 200.094C209.703 200.591 208.908 201.238 208.24 202.007C206.867 203.619 206.1 205.659 206.07 207.776C206.058 208.395 206.113 209.013 206.235 209.619C206.406 210.462 206.695 211.277 207.094 212.039C208.167 214.039 209.809 215.675 211.812 216.741C214.552 218.226 217.749 218.698 220.86 218.559C226.431 218.317 231.763 216.226 236.014 212.617C240.265 209.008 243.193 204.086 244.337 198.628" stroke="currentColor" stroke-width="0.9027" stroke-linecap="round" stroke-linejoin="round"/>
<path d="M206.022 207.776C202.954 206.853 200.077 205.388 197.524 203.451C197.212 203.213 196.868 202.851 197.009 202.486C197.174 202.05 197.797 202.102 198.242 202.232C200.003 202.75 201.765 203.268 203.529 203.788C201.425 202.984 199.506 201.759 197.892 200.188C197.643 199.974 197.442 199.708 197.304 199.41C197.237 199.26 197.213 199.095 197.236 198.932C197.258 198.77 197.326 198.617 197.431 198.491C197.765 198.152 198.329 198.274 198.776 198.431C201.079 199.257 203.207 200.508 205.05 202.118C203.451 200.595 202.226 198.722 201.47 196.647C201.264 196.084 201.191 195.281 201.744 195.051C202.177 194.871 202.638 195.214 202.982 195.531C204.482 196.924 205.854 198.628 207.356 200.021C206.806 198.273 206.692 196.417 207.026 194.615C207.065 194.326 207.161 194.048 207.308 193.797C207.383 193.672 207.49 193.569 207.616 193.497C207.743 193.425 207.885 193.386 208.031 193.385C208.476 193.409 208.755 193.862 208.944 194.266C209.789 196.092 210.334 198.041 210.561 200.04" stroke="currentColor" stroke-width="0.9027" stroke-linecap="round" stroke-linejoin="round"/>
<path d="M172.465 144.67C173.886 144.364 175.209 143.709 176.313 142.765C176.774 142.372 177.229 141.805 177.067 141.223C177 141.032 176.884 140.861 176.732 140.728C176.58 140.594 176.395 140.503 176.197 140.462C175.798 140.387 175.388 140.396 174.993 140.489C173.526 140.754 172.125 141.302 170.866 142.101C170.955 140.763 170.751 139.421 170.27 138.169C169.789 136.917 169.042 135.785 168.081 134.849C167.685 134.47 167.086 134.11 166.628 134.411C166.129 134.738 166.292 135.497 166.512 136.053C167.325 138.101 168.138 140.151 168.951 142.203C168.016 140.083 166.712 138.146 165.1 136.482C164.734 136.103 164.108 135.737 163.745 136.116C163.449 136.425 163.647 136.932 163.858 137.303C165.029 139.382 166.202 141.459 167.376 143.536C166.371 141.817 165.053 140.301 163.49 139.066C162.916 138.613 162.07 138.201 161.51 138.67C161.361 138.816 161.254 139 161.201 139.201C161.147 139.403 161.149 139.616 161.207 139.816C161.328 140.215 161.521 140.588 161.777 140.917C163.408 143.299 165.038 145.68 166.665 148.06" stroke="currentColor" stroke-width="0.9027" stroke-linecap="round" stroke-linejoin="round"/>
<path d="M227.317 217.37C227.32 217.381 227.323 217.394 227.325 217.405C227.61 218.794 228.174 220.111 228.984 221.275C229.795 222.439 230.833 223.426 232.037 224.176C233.241 224.925 234.585 225.422 235.987 225.635C237.389 225.848 238.82 225.773 240.192 225.415C241.875 224.976 243.457 224.114 245.189 223.941C246.608 223.818 248.029 224.157 249.239 224.908C250.18 225.476 250.995 226.228 251.637 227.119C252.24 227.939 252.674 228.869 252.916 229.856C253.36 231.841 253.166 233.915 252.364 235.783C252.345 235.829 252.325 235.875 252.304 235.921C251.725 237.274 250.902 238.509 249.875 239.563C247.407 242.1 244.003 243.558 240.542 244.306C236.713 245.111 232.76 245.128 228.925 244.356C225.089 243.583 221.45 242.037 218.232 239.812C211.836 235.338 207.378 227.51 206.313 219.778C202.69 230.298 198.726 240.693 194.419 250.961C193.222 253.817 191.802 256.863 189.433 258.72C188.89 259.151 188.293 259.51 187.658 259.79C186.458 260.301 185.159 260.539 183.856 260.486C181.406 260.435 178.873 259.595 176.518 258.741C176.485 258.73 176.45 258.717 176.417 258.706C175.989 258.552 175.553 258.386 175.125 258.199C174.87 258.088 174.618 257.969 174.377 257.839C173.393 257.324 172.543 256.644 172.106 255.645C171.377 253.962 172.114 252.037 172.846 250.355C178.938 236.372 185.028 222.387 191.116 208.402C191.137 208.351 191.162 208.299 191.183 208.248" stroke="currentColor" stroke-width="0.9027" stroke-linecap="round" stroke-linejoin="round"/>
<path d="M174.371 257.859C174.219 259.2 173.045 259.999 171.867 260.658C170.688 261.316 169.899 261.496 169.032 262.528C167.729 264.081 166.68 267.484 168.414 268.536C170.498 269.798 172.03 270.622 174.005 271.072C175.981 271.522 176.124 271.774 178.149 271.712C181.249 271.612 186.184 270.722 188.148 269.438C189.742 268.398 190.032 266.108 190.105 264.205C190.178 262.303 189.817 260.585 189.436 258.721" stroke="currentColor" stroke-width="0.9027" stroke-linecap="round" stroke-linejoin="round"/>
<path d="M176.565 258.709C176.549 258.72 176.535 258.731 176.519 258.742C176.178 258.997 175.834 259.254 175.499 259.522C174.924 259.97 174.405 260.487 173.955 261.061C173.661 261.448 173.424 261.877 173.253 262.332C172.995 262.976 172.929 263.681 173.063 264.362C173.423 266.017 175.185 267.123 176.879 267.092C178.073 267.035 179.218 266.598 180.147 265.845C180.55 265.538 180.922 265.191 181.257 264.81C181.802 264.183 182.279 263.501 182.683 262.775C183.108 262.033 183.485 261.257 183.856 260.488C183.859 260.48 183.864 260.474 183.867 260.466" stroke="currentColor" stroke-width="0.9027" stroke-linecap="round" stroke-linejoin="round"/>
<path d="M181.484 267.663C181.04 267.056 180.593 266.452 180.148 265.845C179.337 264.745 178.528 263.644 177.72 262.542C176.98 261.536 176.24 260.53 175.5 259.523C175.313 259.271 175.129 259.016 174.942 258.764" stroke="currentColor" stroke-width="0.9027" stroke-linecap="round" stroke-linejoin="round"/>
<path d="M171.194 262.235L173.254 262.333C174.742 262.403 176.23 262.473 177.72 262.541C179.373 262.62 181.028 262.697 182.684 262.774C183.404 262.807 184.126 262.842 184.847 262.874" stroke="currentColor" stroke-width="0.9027" stroke-linecap="round" stroke-linejoin="round"/>
<path d="M249.275 224.85C249.966 224.093 250.741 223.419 251.585 222.84C252.439 222.259 253.467 221.991 254.495 222.081C255.875 222.261 256.985 223.263 257.97 224.244C260.701 226.958 263.225 229.872 265.522 232.962C266.126 233.772 266.731 234.634 266.915 235.628C267.129 236.794 266.735 237.975 266.351 239.097C265.853 240.547 265.213 242.154 263.804 242.757C262.514 243.308 261.026 242.812 259.771 242.183C258.476 241.532 257.255 240.743 256.129 239.831C255.894 239.644 255.661 239.449 255.436 239.248C254.339 238.277 253.352 237.188 252.493 236.002" stroke="currentColor" stroke-width="0.9027" stroke-linecap="round" stroke-linejoin="round"/>
<path d="M256.256 239.675C257.109 239.924 258.025 239.844 258.822 239.451C259.619 239.058 260.24 238.381 260.562 237.553C260.881 236.51 260.799 235.385 260.332 234.398C260.111 233.906 259.836 233.44 259.511 233.008C259.184 232.579 258.831 232.169 258.454 231.783C258.264 231.586 258.069 231.393 257.871 231.203C256.071 229.475 253.978 228.079 251.69 227.082" stroke="currentColor" stroke-width="0.9027" stroke-linecap="round" stroke-linejoin="round"/>
<path d="M255.435 239.263V239.246C255.563 237.458 255.701 235.642 256.289 233.949C256.297 233.93 256.302 233.908 256.31 233.889C256.649 232.9 257.179 231.987 257.87 231.203C258.356 230.647 258.949 230.194 259.613 229.87" stroke="currentColor" stroke-width="0.9027" stroke-linecap="round" stroke-linejoin="round"/>
<path d="M252.356 235.789C252.359 235.787 252.362 235.787 252.365 235.784C254.561 234.438 256.982 233.498 259.511 233.009C260.332 232.851 261.162 232.739 261.996 232.675" stroke="currentColor" stroke-width="0.9027" stroke-linecap="round" stroke-linejoin="round"/>
<path d="M104.414 165.613C109.945 171.58 115.798 177.244 121.104 183.414C122.597 185.151 124.047 186.926 125.426 188.754C125.426 188.757 125.426 188.757 125.429 188.76" stroke="currentColor" stroke-width="0.9027" stroke-linecap="round" stroke-linejoin="round"/>
<path d="M182.665 152.757C184.351 150.879 185.706 148.982 187.332 147.085C190.313 143.02 193.023 139.225 195.462 134.89C195.732 134.62 200.34 125.947 201.695 121.612C203.05 117.276 203.863 112.94 203.592 108.333C203.592 104.539 203.322 100.746 202.237 96.6806C200.882 90.9896 198.443 86.3828 195.462 81.2342C194.649 79.8791 193.565 78.7949 192.752 77.4401C190.584 74.4593 188.145 72.0206 185.435 69.5801C181.051 65.9285 176.11 63.0017 170.802 60.9101C170.26 60.6401 169.989 60.9101 169.447 60.6401C168.634 60.3701 168.091 59.8271 167.279 59.5562C165.653 59.0144 164.027 59.0144 162.672 58.2011C160.233 57.3881 157.794 57.3881 155.355 56.846C140.45 54.9491 125.817 57.9299 112.809 66.602C104.409 72.0218 97.6334 78.5258 92.7557 86.9264L91.9424 87.7397C82.7285 103.728 80.2898 123.24 87.3356 140.312C87.6056 140.854 92.7554 150.61 95.5955 155.162" stroke="currentColor" stroke-width="0.9027" stroke-linecap="round" stroke-linejoin="round"/>
<path d="M158.7 187.89C159.256 186.158 159.95 184.475 160.776 182.855C164.299 176.893 167.551 170.931 172.076 165.649" stroke="currentColor" stroke-width="0.9027" stroke-linecap="round" stroke-linejoin="round"/>
<path d="M158.694 187.946C154.419 187.433 150.103 187.363 145.813 187.734C141.686 188.092 137.575 187.751 133.442 188.011C130.987 188.165 128.264 188.192 125.822 188.631C125.686 188.656 125.553 188.697 125.427 188.756C125.041 188.978 124.678 189.236 124.34 189.525C124.029 189.765 123.771 190.067 123.582 190.412C123.393 190.757 123.277 191.137 123.243 191.528C123.167 192.427 123.446 193.32 124.02 194.016C124.503 194.539 125.104 194.938 125.773 195.181C126.253 195.387 126.738 195.577 127.223 195.751C132.394 197.604 137.797 197.721 143.131 197.821C148.518 197.921 154.038 197.992 159.154 195.601C159.517 195.436 159.877 195.254 160.234 195.059C161.299 194.482 162.486 193.501 162.604 191.829C162.643 191.261 162.549 190.693 162.331 190.168C162.113 189.642 161.776 189.175 161.347 188.801C160.599 188.201 159.729 188.073 158.883 187.967C158.82 187.959 158.756 187.95 158.694 187.946Z" stroke="currentColor" stroke-width="0.9027" stroke-linecap="round" stroke-linejoin="round"/>
<path d="M127.164 195.913C126.365 195.703 125.524 195.712 124.73 195.938C123.936 196.164 123.217 196.599 122.648 197.198C122.079 197.797 121.682 198.537 121.497 199.342C121.312 200.147 121.347 200.987 121.598 201.774C122.148 203.5 123.689 204.769 125.375 205.43C125.516 205.484 125.66 205.535 125.803 205.584C127.372 206.113 129.055 206.237 130.711 206.34C137.255 206.749 143.81 206.896 150.377 206.779C153.122 206.733 155.954 206.617 158.504 205.669C158.923 205.515 159.332 205.337 159.731 205.135C161.582 204.198 163.254 202.547 163.465 200.485C163.705 198.103 161.605 195.748 159.211 195.724" stroke="currentColor" stroke-width="0.9027" stroke-linecap="round" stroke-linejoin="round"/>
<path d="M125.904 205.517C125.871 205.538 125.836 205.563 125.803 205.584C124.568 206.424 123.318 207.302 122.46 208.524C121.579 209.779 121.186 211.491 121.874 212.86C122.411 213.811 123.288 214.523 124.329 214.852C125.29 215.157 126.285 215.337 127.291 215.388C127.365 215.394 127.438 215.402 127.511 215.407C137.237 216.253 147.036 216.892 156.754 215.938C156.904 215.922 157.05 215.908 157.199 215.892C158.236 215.811 159.259 215.596 160.242 215.253C161.375 214.859 162.328 214.069 162.924 213.028C163.669 211.586 163.374 209.754 162.45 208.424C161.526 207.093 160.057 206.215 158.518 205.703" stroke="currentColor" stroke-width="0.9027" stroke-linecap="round" stroke-linejoin="round"/>
<path d="M127.282 215.473C127.304 217.79 127.865 220.286 129.635 221.776C131.068 222.979 133.022 223.306 134.878 223.537C137.858 223.909 140.854 224.141 143.864 224.234C146.333 224.309 148.874 224.28 151.168 223.356C152.708 222.718 154.067 221.708 155.121 220.416C156.175 219.123 156.891 217.59 157.205 215.952" stroke="currentColor" stroke-width="0.9027" stroke-linecap="round" stroke-linejoin="round"/>
<path d="M214.528 154.797C214.34 155.343 214.153 155.889 213.965 156.435C213.882 156.626 213.846 156.833 213.86 157.041C213.89 157.207 213.982 157.355 214.117 157.457C214.251 157.559 214.419 157.607 214.587 157.591" stroke="currentColor" stroke-width="0.9027" stroke-linecap="round" stroke-linejoin="round"/>
<path d="M178.335 156.621L177.195 152.888" stroke="url(#paint10_linear_28_12825)" stroke-width="0.9027" stroke-linecap="round" stroke-linejoin="round"/>
<path d="M179.846 154.462L175.282 155.212L175.452 155.269" stroke="url(#paint11_linear_28_12825)" stroke-width="0.9027" stroke-linecap="round" stroke-linejoin="round"/>
<path d="M185.31 159.789L182.539 157.335C182.464 158.673 182.389 160.011 182.315 161.349L185.255 159.932" stroke="url(#paint12_linear_28_12825)" stroke-width="0.9027" stroke-linecap="round" stroke-linejoin="round"/>
<path d="M183.505 170.19L183.111 165.965C183.162 165.872 183.324 166.025 183.234 166.082" stroke="url(#paint13_linear_28_12825)" stroke-width="0.9027" stroke-linecap="round" stroke-linejoin="round"/>
<path d="M181.02 168.962L185.063 167.81" stroke="url(#paint14_linear_28_12825)" stroke-width="0.9027" stroke-linecap="round" stroke-linejoin="round"/>
<path d="M190.305 172.596L192.067 169.442C192.584 170.607 193.101 171.773 193.618 172.939L190.236 172.451L190.488 172.304" stroke="url(#paint15_linear_28_12825)" stroke-width="0.9027" stroke-linecap="round" stroke-linejoin="round"/>
<path d="M200.408 174.273L203.607 172.251C203.553 172.384 203.299 172.3 203.335 172.161C203.37 172.021 203.635 172.071 203.617 172.212" stroke="url(#paint16_linear_28_12825)" stroke-width="0.9027" stroke-linecap="round" stroke-linejoin="round"/>
<path d="M203.107 175.272C202.469 173.71 201.832 172.148 201.194 170.585" stroke="url(#paint17_linear_28_12825)" stroke-width="0.9027" stroke-linecap="round" stroke-linejoin="round"/>
<path d="M208.234 177.43C208.338 177.378 208.455 177.36 208.57 177.379C208.684 177.398 208.79 177.452 208.871 177.535C208.953 177.618 209.005 177.724 209.023 177.839C209.039 177.954 209.019 178.071 208.965 178.174C208.774 179.365 208.582 180.556 208.391 181.748C207.777 180.632 206.468 179.734 205.953 178.661C205.325 177.349 207.235 177.585 208.234 177.43Z" stroke="url(#paint18_linear_28_12825)" stroke-width="0.9027" stroke-linecap="round" stroke-linejoin="round"/>
<path d="M225.93 184.62C224.978 183.835 224.073 182.995 223.22 182.104L226.7 181.195C226.427 182.383 226.154 183.572 225.881 184.76" stroke="url(#paint19_linear_28_12825)" stroke-width="0.9027" stroke-linecap="round" stroke-linejoin="round"/>
<path d="M210.126 189.33C210.094 187.8 210.062 186.27 210.03 184.74" stroke="url(#paint20_linear_28_12825)" stroke-width="0.9027" stroke-linecap="round" stroke-linejoin="round"/>
<path d="M207.409 187.377L211.903 186.604" stroke="url(#paint21_linear_28_12825)" stroke-width="0.9027" stroke-linecap="round" stroke-linejoin="round"/>
<path d="M225.369 195.046L223.98 190.758" stroke="url(#paint22_linear_28_12825)" stroke-width="0.9027" stroke-linecap="round" stroke-linejoin="round"/>
<path d="M222.311 193.856L227.09 191.936" stroke="url(#paint23_linear_28_12825)" stroke-width="0.9027" stroke-linecap="round" stroke-linejoin="round"/>
<path d="M217.92 196.414L216.517 193.167C215.981 194.156 215.445 195.146 214.909 196.135L218.023 196.568" stroke="url(#paint24_linear_28_12825)" stroke-width="0.9027" stroke-linecap="round" stroke-linejoin="round"/>
<path d="M200.783 188.84L203.289 191.799C201.967 192.182 200.845 192.856 199.632 193.455C199.606 192.706 201.176 189.304 200.783 188.84Z" stroke="url(#paint25_linear_28_12825)" stroke-width="0.9027" stroke-linecap="round" stroke-linejoin="round"/>
<path d="M194.452 204.427C193.997 202.964 193.541 201.5 193.086 200.036" stroke="url(#paint26_linear_28_12825)" stroke-width="0.9027" stroke-linecap="round" stroke-linejoin="round"/>
<path d="M191.432 203.562C192.767 202.728 194.103 201.894 195.439 201.06" stroke="url(#paint27_linear_28_12825)" stroke-width="0.9027" stroke-linecap="round" stroke-linejoin="round"/>
<path d="M225.292 211.23L222.399 208.02" stroke="url(#paint28_linear_28_12825)" stroke-width="0.9027" stroke-linecap="round" stroke-linejoin="round"/>
<path d="M221.856 211.611C223.066 210.558 224.276 209.504 225.486 208.45" stroke="url(#paint29_linear_28_12825)" stroke-width="0.9027" stroke-linecap="round" stroke-linejoin="round"/>
<path d="M232.286 201.997L235.514 204.536C234.36 204.984 233.171 205.586 231.97 205.869C231.652 204.847 232.165 203.097 232.286 201.997Z" stroke="url(#paint30_linear_28_12825)" stroke-width="0.9027" stroke-linecap="round" stroke-linejoin="round"/>
<path d="M239.264 194.207C239.036 192.997 238.808 191.786 238.581 190.576" stroke="url(#paint31_linear_28_12825)" stroke-width="0.9027" stroke-linecap="round" stroke-linejoin="round"/>
<path d="M236.97 192.96L240.891 191.716" stroke="url(#paint32_linear_28_12825)" stroke-width="0.9027" stroke-linecap="round" stroke-linejoin="round"/>
<path d="M165.54 155.916C166.609 153.379 168.469 151.255 170.843 149.861C173.217 148.468 175.977 147.879 178.714 148.182" stroke="currentColor" stroke-width="0.9027" stroke-linecap="round" stroke-linejoin="round"/>
<path d="M218.842 199.465C215.691 200.974 213.247 203.645 212.024 206.918C210.801 210.191 210.894 213.81 212.283 217.016" stroke="currentColor" stroke-width="0.9027" stroke-linecap="round" stroke-linejoin="round"/>
<path d="M117.48 135.863C117.386 137.336 117.292 138.81 117.198 140.284C117.803 139.997 120.378 139.157 120.356 138.504C120.324 137.576 117.426 136.71 117.48 135.863Z" stroke="url(#paint33_linear_28_12825)" stroke-width="0.9027" stroke-linecap="round" stroke-linejoin="round"/>
<path d="M116.242 151.375C116.569 149.966 116.896 148.558 117.223 147.15" stroke="url(#paint34_linear_28_12825)" stroke-width="0.9027" stroke-linecap="round" stroke-linejoin="round"/>
<path d="M118.725 149.891L115.22 148.286" stroke="url(#paint35_linear_28_12825)" stroke-width="0.9027" stroke-linecap="round" stroke-linejoin="round"/>
<path d="M99.1182 159.022L99.4674 162.975C99.4674 162.197 101.732 160.84 102.077 160.057C101.185 159.584 100.082 159.343 99.1182 159.022Z" stroke="url(#paint36_linear_28_12825)" stroke-width="0.9027" stroke-linecap="round" stroke-linejoin="round"/>
<path d="M85.8001 166.012C85.5448 166.401 85.453 166.875 85.5442 167.332C85.6357 167.789 85.903 168.191 86.2885 168.452C86.6932 168.683 87.1699 168.755 87.6247 168.653C88.0798 168.551 88.4806 168.284 88.7485 167.902C90.1327 165.812 87.2482 164.026 85.8001 166.012Z" stroke="url(#paint37_linear_28_12825)" stroke-width="0.9027" stroke-linecap="round" stroke-linejoin="round"/>
<path d="M83.3424 184.327L81.4671 181.01C80.9193 182.21 80.3712 183.41 79.8228 184.61L83.3145 184.315L83.2632 184.07" stroke="url(#paint38_linear_28_12825)" stroke-width="0.9027" stroke-linecap="round" stroke-linejoin="round"/>
<path d="M85.2548 196.62C84.2234 195.58 83.1917 194.54 82.1597 193.5" stroke="url(#paint39_linear_28_12825)" stroke-width="0.9027" stroke-linecap="round" stroke-linejoin="round"/>
<path d="M85.0335 192.931C84.1857 194.342 83.3379 195.753 82.4907 197.164" stroke="url(#paint40_linear_28_12825)" stroke-width="0.9027" stroke-linecap="round" stroke-linejoin="round"/>
<path d="M75.1501 176.043L74.9773 176.242L72.2314 173.402" stroke="url(#paint41_linear_28_12825)" stroke-width="0.9027" stroke-linecap="round" stroke-linejoin="round"/>
<path d="M74.95 172.975C73.9618 174.155 72.973 175.334 71.9839 176.513" stroke="url(#paint42_linear_28_12825)" stroke-width="0.9027" stroke-linecap="round" stroke-linejoin="round"/>
<path d="M65.8446 196.997C66.6246 197.639 67.9368 197.302 68.4546 196.435C69.1446 195.283 68.5521 193.227 66.9672 193.51C65.5029 193.772 64.6017 195.972 65.8446 196.997Z" stroke="url(#paint43_linear_28_12825)" stroke-width="0.9027" stroke-linecap="round" stroke-linejoin="round"/>
<path d="M56.6532 178.556C56.82 178.887 57.081 179.161 57.4032 179.344C57.771 179.564 58.2102 179.633 58.6275 179.536C60.4323 179.072 60.0561 176.926 58.7031 176.236C57.1032 175.42 55.8771 176.979 56.6532 178.556Z" stroke="url(#paint44_linear_28_12825)" stroke-width="0.9027" stroke-linecap="round" stroke-linejoin="round"/>
<path d="M48.3118 193.51C47.7019 192.395 47.092 191.279 46.4818 190.164C45.9217 191.37 45.3619 192.576 44.8018 193.782L48.0697 193.329" stroke="url(#paint45_linear_28_12825)" stroke-width="0.9027" stroke-linecap="round" stroke-linejoin="round"/>
<path d="M77.8768 164.286C80.6668 178.896 73.1494 194.016 75.9415 208.625" stroke="url(#paint46_linear_28_12825)" stroke-width="0.9027" stroke-linecap="round" stroke-linejoin="round"/>
<path d="M72.3872 166.176L71.2451 162.922" stroke="currentColor" stroke-width="0.9027" stroke-linecap="round" stroke-linejoin="round"/>
<path d="M74.6101 165.498C74.1901 164.289 73.7701 163.079 73.3501 161.869" stroke="currentColor" stroke-width="0.9027" stroke-linecap="round" stroke-linejoin="round"/>
<path d="M76.7286 164.537L75.4404 160.918" stroke="currentColor" stroke-width="0.9027" stroke-linecap="round" stroke-linejoin="round"/>
<path d="M79.7234 163.603C79.3448 162.231 78.9662 160.859 78.5879 159.487" stroke="currentColor" stroke-width="0.9027" stroke-linecap="round" stroke-linejoin="round"/>
<path d="M82.4044 162.455L81.0205 158.453" stroke="currentColor" stroke-width="0.9027" stroke-linecap="round" stroke-linejoin="round"/>
<path d="M93.774 244.68L93.0576 249.665C93.0576 249.137 96.0483 249.407 96.0453 248.354C96.0426 247.438 94.2711 245.481 93.774 244.68Z" stroke="currentColor" stroke-width="0.9027" stroke-linecap="round" stroke-linejoin="round"/>
<path d="M104.842 244.06L100.855 245.147C101.302 245.606 103.201 248.126 103.807 248.029C104.43 247.929 104.715 244.698 104.842 244.06Z" stroke="currentColor" stroke-width="0.9027" stroke-linecap="round" stroke-linejoin="round"/>
<path d="M94.552 226.544L90.9619 226.75C91.9153 227.823 92.9626 229.5 94.1698 230.234C94.2556 229.936 94.513 226.544 94.552 226.544Z" stroke="currentColor" stroke-width="0.9027" stroke-linecap="round" stroke-linejoin="round"/>
<path d="M89.8863 212.672L85.5879 214.316C86.3379 214.766 88.7907 216.823 89.6205 216.672C90.6645 216.482 89.2947 212.869 89.8863 212.672Z" stroke="currentColor" stroke-width="0.9027" stroke-linecap="round" stroke-linejoin="round"/>
<path d="M85.7853 224.15L82.98 223.2C83.2305 223.837 83.7879 226.32 84.4137 226.592C85.3119 226.983 85.4904 224.047 85.7853 224.15Z" stroke="currentColor" stroke-width="0.9027" stroke-linecap="round" stroke-linejoin="round"/>
<path d="M68.3943 217.752C67.7721 218.502 67.1502 219.252 66.5283 220.002C66.7305 219.732 68.949 221.562 69.4644 221.117C69.8628 220.773 68.5827 218.25 68.3943 217.752Z" stroke="currentColor" stroke-width="0.9027" stroke-linecap="round" stroke-linejoin="round"/>
<path d="M68.8152 214.107L70.9269 211.581L67.0059 211.706C67.6575 212.523 68.3091 213.34 68.9607 214.158C68.9484 214.044 68.9358 213.929 68.9235 213.814" stroke="currentColor" stroke-width="0.9027" stroke-linecap="round" stroke-linejoin="round"/>
<path d="M61.7497 225.291L63.8221 223.295L60.3901 222.106C60.7261 223.228 61.0621 224.35 61.3984 225.472" stroke="currentColor" stroke-width="0.9027" stroke-linecap="round" stroke-linejoin="round"/>
<path d="M61.7219 229.126L59.9888 230.836C60.5786 231.404 61.3769 232.501 62.1425 232.732C62.1602 231.555 61.8713 230.301 61.7219 229.126Z" stroke="currentColor" stroke-width="0.9027" stroke-linecap="round" stroke-linejoin="round"/>
<path d="M46.4385 236.289L43.8057 237.359C44.6322 238.229 45.5781 239.634 46.6068 240.199C46.7967 238.976 46.5099 237.534 46.4385 236.289Z" stroke="currentColor" stroke-width="0.9027" stroke-linecap="round" stroke-linejoin="round"/>
<path d="M33.4912 235.184C32.6668 234.334 31.8424 233.483 31.0183 232.631C30.8461 233.92 30.6739 235.208 30.502 236.496C31.6816 236.35 32.8249 235.99 33.8746 235.432L33.535 235.143" stroke="currentColor" stroke-width="0.9027" stroke-linecap="round" stroke-linejoin="round"/>
<path d="M136.92 187.627C139.793 162.503 142.669 137.347 143.538 112.076C143.705 107.212 143.737 102.086 141.388 97.8223C139.04 93.559 133.458 90.6793 129.154 92.9509C126.176 94.5232 124.661 98.1889 125.082 101.531C125.502 104.873 127.592 107.84 130.24 109.921C132.888 112.002 136.065 113.294 139.265 114.344C147.721 117.117 156.598 118.383 165.492 118.083C169.076 117.961 172.805 117.533 175.824 115.596C178.842 113.658 180.906 109.817 179.76 106.418C178.638 103.095 174.705 101.263 171.244 101.831C167.783 102.4 164.884 104.921 163.059 107.918C161.235 110.914 160.329 114.368 159.519 117.779C154.104 140.529 151.708 163.892 152.392 187.268" stroke="currentColor" stroke-width="0.9027" stroke-linecap="round" stroke-linejoin="round"/>
<path d="M74.0944 104.883C67.6828 105.303 61.2706 105.723 54.8584 106.142" stroke="currentColor" stroke-width="0.9027" stroke-linecap="round" stroke-linejoin="round"/>
<path d="M79.8183 80.9721C66.7362 67.7223 53.0601 55.0959 38.79 43.0935" stroke="currentColor" stroke-width="0.9027" stroke-linecap="round" stroke-linejoin="round"/>
<path d="M102.266 55.9586C100.195 53.0543 98.4583 49.9256 97.0894 46.6313" stroke="currentColor" stroke-width="0.9027" stroke-linecap="round" stroke-linejoin="round"/>
<path d="M132.397 46.8137C131.535 36.8075 130.152 26.8527 128.257 16.9897" stroke="currentColor" stroke-width="0.9027" stroke-linecap="round" stroke-linejoin="round"/>
<path d="M165.097 49.9961L168.182 42.5063" stroke="currentColor" stroke-width="0.9027" stroke-linecap="round" stroke-linejoin="round"/>
<path d="M190.661 61.1572L219.163 23.7771" stroke="currentColor" stroke-width="0.9027" stroke-linecap="round" stroke-linejoin="round"/>
<path d="M204.99 80.4735C208.109 78.1968 211.454 76.245 214.97 74.6484" stroke="currentColor" stroke-width="0.9027" stroke-linecap="round" stroke-linejoin="round"/>
<path d="M216.072 110.987L264.606 105.02" stroke="currentColor" stroke-width="0.9027" stroke-linecap="round" stroke-linejoin="round"/>
<path d="M32.4961 99.75C33.6697 101.176 34.3786 102.927 34.5274 104.768C34.6759 106.608 34.2574 108.451 33.3277 110.046C32.6407 111.174 31.6477 112.174 30.3928 112.582C29.1379 112.991 27.6028 112.69 26.7958 111.644C25.9888 110.599 26.212 108.831 27.3814 108.217C28.3714 107.696 29.6692 108.139 30.3793 109.004C31.0894 109.868 31.3048 111.044 31.2844 112.162C31.2244 115.383 29.4493 118.319 27.4339 120.832C25.4185 123.345 23.0881 125.65 21.5767 128.495C20.5276 130.5 19.9139 132.703 19.7756 134.962C19.6374 137.22 19.9778 139.482 20.7745 141.6" stroke="url(#paint47_linear_28_12825)" stroke-width="0.9027" stroke-linecap="round" stroke-linejoin="round"/>
<path d="M37.4034 148.276C35.673 144.699 33.9429 141.122 32.2134 137.545" stroke="currentColor" stroke-width="0.9027" stroke-linecap="round" stroke-linejoin="round"/>
<path d="M30.0112 145.95L39.8956 138.254" stroke="currentColor" stroke-width="0.9027" stroke-linecap="round" stroke-linejoin="round"/>
<path d="M86.9038 28.6467C83.728 27.1637 80.2705 26.3808 76.7656 26.3511" stroke="currentColor" stroke-width="0.9027" stroke-linecap="round" stroke-linejoin="round"/>
<path d="M83.2565 23.6699C82.4921 26.2835 81.7268 28.8975 80.9609 31.5118" stroke="currentColor" stroke-width="0.9027" stroke-linecap="round" stroke-linejoin="round"/>
<path d="M230.04 45.1138C228.696 47.0806 227.333 49.0846 226.626 51.3595C225.919 53.6344 225.953 56.2612 227.286 58.2364C228.618 60.2116 231.452 61.2256 233.526 60.0553C235.6 58.885 235.965 55.3783 233.923 54.1525C232.128 53.0761 229.607 54.2851 228.767 56.2015C227.927 58.1179 228.419 60.3847 229.402 62.2315C230.479 64.2577 232.088 65.9401 233.635 67.6354C235.182 69.3307 236.712 71.1079 237.578 73.2331C238.444 75.3583 238.549 77.9185 237.312 79.8511C236.075 81.7837 233.282 82.7449 231.337 81.5284" stroke="currentColor" stroke-width="0.9027" stroke-linecap="round" stroke-linejoin="round"/>
<path d="M254.569 67.7649C255.525 64.7997 256.481 61.8348 257.438 58.8699" stroke="currentColor" stroke-width="0.9027" stroke-linecap="round" stroke-linejoin="round"/>
<path d="M259.65 64.781L249.965 60.0449" stroke="currentColor" stroke-width="0.9027" stroke-linecap="round" stroke-linejoin="round"/>
<path d="M252.955 140.686C254.272 137.139 255.59 133.593 256.908 130.045" stroke="currentColor" stroke-width="0.9027" stroke-linecap="round" stroke-linejoin="round"/>
<path d="M258.696 137.516L249.645 132.407" stroke="currentColor" stroke-width="0.9027" stroke-linecap="round" stroke-linejoin="round"/>
<path d="M171.943 212.962L177.397 206.077" stroke="currentColor" stroke-width="0.9027" stroke-linecap="round" stroke-linejoin="round"/>
<path d="M176.577 212.329L171.426 206.864" stroke="currentColor" stroke-width="0.9027" stroke-linecap="round" stroke-linejoin="round"/>
<path d="M110.766 202.645L108.47 197.481" stroke="currentColor" stroke-width="0.9027" stroke-linecap="round" stroke-linejoin="round"/>
<path d="M106.695 202.233L111.315 197.673" stroke="currentColor" stroke-width="0.9027" stroke-linecap="round" stroke-linejoin="round"/>
<path d="M22.6052 61.9775L26.6384 65.7515L31.8701 64.5551L29.7164 69.5729L32.5652 74.3438L27.2009 73.6712L23.7299 77.816L22.5683 72.3821L17.5742 70.1735L22.2206 67.4879L22.6052 61.9775Z" stroke="currentColor" stroke-width="0.9027" stroke-linecap="round" stroke-linejoin="round"/>
<path d="M253.243 28.0579L252.41 33.5183L256.355 37.1573L250.997 38.2172L248.673 43.2641L246.195 38.459L240.814 37.9388L244.64 33.9092L243.638 28.5409L248.48 30.8555L253.243 28.0579Z" fill="url(#paint48_linear_28_12825)" stroke="currentColor" stroke-width="0.9027" stroke-linecap="round" stroke-linejoin="round"/>
<path d="M223.105 120.652L222.455 124.911L225.531 127.749L221.353 128.576L219.54 132.512L217.608 128.764L213.41 128.359L216.394 125.216L215.613 121.029L219.39 122.834L223.105 120.652Z" fill="url(#paint49_linear_28_12825)" stroke="currentColor" stroke-width="0.9027" stroke-linecap="round" stroke-linejoin="round"/>
<path d="M58.0795 119.265L60.5656 122.666L64.2271 122.423L62.3953 125.981L64.0003 129.992L60.382 128.79L57.7123 131.512L57.3082 127.211L54.0532 124.882L57.4216 123.426L58.0795 119.265Z" fill="url(#paint50_linear_28_12825)" stroke="currentColor" stroke-width="0.9027" stroke-linecap="round" stroke-linejoin="round"/>
<path d="M30.9082 170.872L25.2783 170.37" stroke="currentColor" stroke-width="0.9027" stroke-linecap="round" stroke-linejoin="round"/>
<path d="M28.5702 174.23C27.9902 172.145 27.4095 170.061 26.8281 167.976" stroke="currentColor" stroke-width="0.9027" stroke-linecap="round" stroke-linejoin="round"/>
<g opacity="0.1">
<path d="M26.1177 232.361C27.3777 230.498 30.1041 230.819 31.9353 231.373C34.1988 232.102 36.5322 232.592 38.8974 232.837C43.5093 233.24 48.1374 232.219 52.2951 230.232C58.1484 227.338 62.7309 222.39 65.1675 216.331C65.9811 214.351 67.0158 211.819 66.4446 209.677C65.8686 207.517 63.1281 207.427 61.9722 209.093C60.8922 210.65 60.7812 212.913 60.0282 214.663C59.2713 216.425 58.2891 218.081 57.1062 219.59C54.5643 222.814 51.1287 225.218 47.2284 226.502C42.9825 227.882 38.9316 227.709 34.5804 227.089C30.6444 226.527 25.8744 227.14 23.9808 231.112C23.8288 231.394 23.7924 231.725 23.8792 232.033C23.9661 232.342 24.1694 232.606 24.4464 232.768C24.7234 232.93 25.0524 232.978 25.3642 232.902C25.6759 232.826 25.9461 232.632 26.1177 232.361Z" fill="currentColor"/>
</g>
<g opacity="0.1">
<path d="M77.3505 217.211C77.3388 217.767 77.2074 218.185 77.2695 218.733C77.3649 219.218 77.4954 219.696 77.6595 220.162C77.943 221.21 78.183 222.271 78.4836 223.314C79.0836 225.399 79.7898 227.468 80.5098 229.514C81.8877 233.431 83.3544 237.323 84.8034 241.214C86.2251 245.032 87.7671 248.813 89.382 252.554C90.924 256.126 92.4303 259.88 94.9194 262.913C97.1556 265.638 100.769 267.728 104.262 266.004C105.086 265.598 106.047 264.8 105.458 263.792C105.101 263.183 104.471 263.18 103.871 263.017C102.999 262.779 102.29 262.29 101.528 261.831C98.388 259.941 97.0623 256.461 95.5728 253.248C93.8529 249.536 92.3283 245.74 90.837 241.931C89.1093 237.518 87.267 233.146 85.4553 228.766C84.5829 226.658 83.6445 224.574 82.6728 222.509C82.17 221.442 81.603 220.413 81.0528 219.369C80.8251 218.936 80.6187 218.487 80.3769 218.062C79.9698 217.345 79.5942 217.106 79.0308 216.516C78.4275 215.885 77.3676 216.38 77.3508 217.212L77.3505 217.211Z" fill="currentColor"/>
</g>
<g opacity="0.1">
<path d="M166.874 147.268C165.07 151.175 165.108 155.736 166.728 159.7C168.481 163.99 172.276 167.214 176.044 169.71C184.171 175.095 193.616 178.822 203.352 179.67L200.883 176.43C199.439 181.686 197.157 186.675 194.125 191.204C192.681 193.352 191.087 195.395 189.353 197.316C187.639 199.242 185.937 201.325 185.543 203.955C185.336 205.343 185.89 206.751 187.36 207.155C188.583 207.491 190.357 206.737 190.56 205.338C190.914 202.907 192.78 201.302 194.297 199.515C196.067 197.436 197.68 195.228 199.124 192.911C202.04 188.202 204.293 183.114 205.819 177.791C206.319 176.047 204.958 174.725 203.35 174.549C195.186 173.655 187.349 169.995 180.374 165.822C174.464 162.287 166.33 155.984 168.697 148.039C169.013 146.98 167.355 146.224 166.872 147.269L166.874 147.268Z" fill="currentColor"/>
</g>
<g opacity="0.1">
<path d="M206.656 204.57C203.213 206.867 206.044 212.232 208.259 214.359C211.262 217.243 215.56 218.693 219.655 218.929C228.035 219.411 236.1 215.059 240.676 208.116C243.274 204.175 244.456 199.994 244.595 195.306C244.649 193.513 242.029 193.232 241.529 194.891C239.323 202.207 234.409 209.997 226.849 212.572C223.117 213.866 219.072 213.944 215.293 212.796C213.436 212.251 211.71 211.333 210.221 210.099C208.578 208.676 208.481 206.674 207.599 204.817C207.506 204.66 207.355 204.546 207.179 204.499C207.002 204.453 206.814 204.478 206.656 204.57V204.57Z" fill="currentColor"/>
</g>
<g opacity="0.1">
<path d="M223.797 151.088C220.825 151.351 218.77 153.938 217.914 156.65C217.475 158.128 217.348 159.681 217.541 161.211C217.734 162.741 218.243 164.214 219.036 165.536C222.721 171.793 230.019 173.731 234.832 178.766C243.252 187.572 240.914 203.248 252.254 209.936C255.265 211.712 258.771 212.183 262.189 211.602C265.693 211.006 269.461 209.369 271.357 206.218C271.739 205.583 271.095 204.62 270.34 204.896C267.734 205.848 265.368 207.384 262.668 208.083C259.94 208.788 257.009 208.662 254.476 207.355C249.894 204.992 247.412 199.977 245.898 195.278C244.143 189.831 243.273 184.043 240.723 178.876C239.413 176.201 237.527 173.848 235.2 171.988C232.747 170.044 229.956 168.586 227.441 166.728C225.245 165.107 222.867 162.907 222.293 160.108C222.054 158.944 222.155 157.735 222.585 156.626C223.059 155.437 224.019 154.72 224.971 153.921C226.038 153.024 225.198 150.964 223.797 151.088H223.797Z" fill="currentColor"/>
</g>
</g>
</g>
<defs>
<linearGradient id="paint0_linear_28_12825" x1="141.836" y1="215.026" x2="141.836" y2="220.796" gradientUnits="userSpaceOnUse">
<stop stop-color="#FFB800"/>
<stop offset="1" stop-color="#FF7F0A"/>
</linearGradient>
<linearGradient id="paint1_linear_28_12825" x1="142.333" y1="205.31" x2="142.333" y2="212.254" gradientUnits="userSpaceOnUse">
<stop stop-color="#FFB800"/>
<stop offset="1" stop-color="#FF7F0A"/>
</linearGradient>
<linearGradient id="paint2_linear_28_12825" x1="142.633" y1="196.471" x2="142.633" y2="203.416" gradientUnits="userSpaceOnUse">
<stop stop-color="#FFB800"/>
<stop offset="1" stop-color="#FF7F0A"/>
</linearGradient>
<linearGradient id="paint3_linear_28_12825" x1="146.108" y1="75.8129" x2="146.108" y2="164.153" gradientUnits="userSpaceOnUse">
<stop stop-color="#FFB800"/>
<stop offset="1" stop-color="#FF7F0A"/>
</linearGradient>
<linearGradient id="paint4_linear_28_12825" x1="258.107" y1="222.064" x2="258.107" y2="242.995" gradientUnits="userSpaceOnUse">
<stop stop-color="#FFB800"/>
<stop offset="1" stop-color="#FF7F0A"/>
</linearGradient>
<linearGradient id="paint5_linear_28_12825" x1="237.699" y1="140.289" x2="237.699" y2="211.637" gradientUnits="userSpaceOnUse">
<stop stop-color="#FFB800"/>
<stop offset="1" stop-color="#FF7F0A"/>
</linearGradient>
<linearGradient id="paint6_linear_28_12825" x1="178.807" y1="257.84" x2="178.807" y2="271.721" gradientUnits="userSpaceOnUse">
<stop stop-color="#FFB800"/>
<stop offset="1" stop-color="#FF7F0A"/>
</linearGradient>
<linearGradient id="paint7_linear_28_12825" x1="175.73" y1="258.2" x2="175.73" y2="259.522" gradientUnits="userSpaceOnUse">
<stop stop-color="#FFB800"/>
<stop offset="1" stop-color="#FF7F0A"/>
</linearGradient>
<linearGradient id="paint8_linear_28_12825" x1="76.6202" y1="157.915" x2="76.6202" y2="166.64" gradientUnits="userSpaceOnUse">
<stop stop-color="#FFB800"/>
<stop offset="1" stop-color="#FF7F0A"/>
</linearGradient>
<linearGradient id="paint9_linear_28_12825" x1="67.765" y1="205.846" x2="67.765" y2="265.45" gradientUnits="userSpaceOnUse">
<stop stop-color="#FFB800"/>
<stop offset="1" stop-color="#FF7F0A"/>
</linearGradient>
<linearGradient id="paint10_linear_28_12825" x1="177.765" y1="152.888" x2="177.765" y2="156.621" gradientUnits="userSpaceOnUse">
<stop stop-color="#FFB800"/>
<stop offset="1" stop-color="#FF7F0A"/>
</linearGradient>
<linearGradient id="paint11_linear_28_12825" x1="177.564" y1="154.462" x2="177.564" y2="155.269" gradientUnits="userSpaceOnUse">
<stop stop-color="#FFB800"/>
<stop offset="1" stop-color="#FF7F0A"/>
</linearGradient>
<linearGradient id="paint12_linear_28_12825" x1="183.813" y1="157.335" x2="183.813" y2="161.349" gradientUnits="userSpaceOnUse">
<stop stop-color="#FFB800"/>
<stop offset="1" stop-color="#FF7F0A"/>
</linearGradient>
<linearGradient id="paint13_linear_28_12825" x1="183.308" y1="165.936" x2="183.308" y2="170.19" gradientUnits="userSpaceOnUse">
<stop stop-color="#FFB800"/>
<stop offset="1" stop-color="#FF7F0A"/>
</linearGradient>
<linearGradient id="paint14_linear_28_12825" x1="183.042" y1="167.81" x2="183.042" y2="168.962" gradientUnits="userSpaceOnUse">
<stop stop-color="#FFB800"/>
<stop offset="1" stop-color="#FF7F0A"/>
</linearGradient>
<linearGradient id="paint15_linear_28_12825" x1="191.927" y1="169.442" x2="191.927" y2="172.939" gradientUnits="userSpaceOnUse">
<stop stop-color="#FFB800"/>
<stop offset="1" stop-color="#FF7F0A"/>
</linearGradient>
<linearGradient id="paint16_linear_28_12825" x1="202.013" y1="172.078" x2="202.013" y2="174.273" gradientUnits="userSpaceOnUse">
<stop stop-color="#FFB800"/>
<stop offset="1" stop-color="#FF7F0A"/>
</linearGradient>
<linearGradient id="paint17_linear_28_12825" x1="202.151" y1="170.585" x2="202.151" y2="175.272" gradientUnits="userSpaceOnUse">
<stop stop-color="#FFB800"/>
<stop offset="1" stop-color="#FF7F0A"/>
</linearGradient>
<linearGradient id="paint18_linear_28_12825" x1="207.429" y1="177.371" x2="207.429" y2="181.748" gradientUnits="userSpaceOnUse">
<stop stop-color="#FFB800"/>
<stop offset="1" stop-color="#FF7F0A"/>
</linearGradient>
<linearGradient id="paint19_linear_28_12825" x1="224.96" y1="181.195" x2="224.96" y2="184.76" gradientUnits="userSpaceOnUse">
<stop stop-color="#FFB800"/>
<stop offset="1" stop-color="#FF7F0A"/>
</linearGradient>
<linearGradient id="paint20_linear_28_12825" x1="210.078" y1="184.74" x2="210.078" y2="189.33" gradientUnits="userSpaceOnUse">
<stop stop-color="#FFB800"/>
<stop offset="1" stop-color="#FF7F0A"/>
</linearGradient>
<linearGradient id="paint21_linear_28_12825" x1="209.656" y1="186.604" x2="209.656" y2="187.377" gradientUnits="userSpaceOnUse">
<stop stop-color="#FFB800"/>
<stop offset="1" stop-color="#FF7F0A"/>
</linearGradient>
<linearGradient id="paint22_linear_28_12825" x1="224.674" y1="190.758" x2="224.674" y2="195.046" gradientUnits="userSpaceOnUse">
<stop stop-color="#FFB800"/>
<stop offset="1" stop-color="#FF7F0A"/>
</linearGradient>
<linearGradient id="paint23_linear_28_12825" x1="224.701" y1="191.936" x2="224.701" y2="193.856" gradientUnits="userSpaceOnUse">
<stop stop-color="#FFB800"/>
<stop offset="1" stop-color="#FF7F0A"/>
</linearGradient>
<linearGradient id="paint24_linear_28_12825" x1="216.466" y1="193.167" x2="216.466" y2="196.568" gradientUnits="userSpaceOnUse">
<stop stop-color="#FFB800"/>
<stop offset="1" stop-color="#FF7F0A"/>
</linearGradient>
<linearGradient id="paint25_linear_28_12825" x1="201.461" y1="188.84" x2="201.461" y2="193.455" gradientUnits="userSpaceOnUse">
<stop stop-color="#FFB800"/>
<stop offset="1" stop-color="#FF7F0A"/>
</linearGradient>
<linearGradient id="paint26_linear_28_12825" x1="193.769" y1="200.036" x2="193.769" y2="204.427" gradientUnits="userSpaceOnUse">
<stop stop-color="#FFB800"/>
<stop offset="1" stop-color="#FF7F0A"/>
</linearGradient>
<linearGradient id="paint27_linear_28_12825" x1="193.436" y1="201.06" x2="193.436" y2="203.562" gradientUnits="userSpaceOnUse">
<stop stop-color="#FFB800"/>
<stop offset="1" stop-color="#FF7F0A"/>
</linearGradient>
<linearGradient id="paint28_linear_28_12825" x1="223.846" y1="208.02" x2="223.846" y2="211.23" gradientUnits="userSpaceOnUse">
<stop stop-color="#FFB800"/>
<stop offset="1" stop-color="#FF7F0A"/>
</linearGradient>
<linearGradient id="paint29_linear_28_12825" x1="223.671" y1="208.45" x2="223.671" y2="211.611" gradientUnits="userSpaceOnUse">
<stop stop-color="#FFB800"/>
<stop offset="1" stop-color="#FF7F0A"/>
</linearGradient>
<linearGradient id="paint30_linear_28_12825" x1="233.691" y1="201.997" x2="233.691" y2="205.869" gradientUnits="userSpaceOnUse">
<stop stop-color="#FFB800"/>
<stop offset="1" stop-color="#FF7F0A"/>
</linearGradient>
<linearGradient id="paint31_linear_28_12825" x1="238.922" y1="190.576" x2="238.922" y2="194.207" gradientUnits="userSpaceOnUse">
<stop stop-color="#FFB800"/>
<stop offset="1" stop-color="#FF7F0A"/>
</linearGradient>
<linearGradient id="paint32_linear_28_12825" x1="238.931" y1="191.716" x2="238.931" y2="192.96" gradientUnits="userSpaceOnUse">
<stop stop-color="#FFB800"/>
<stop offset="1" stop-color="#FF7F0A"/>
</linearGradient>
<linearGradient id="paint33_linear_28_12825" x1="118.777" y1="135.863" x2="118.777" y2="140.284" gradientUnits="userSpaceOnUse">
<stop stop-color="#FFB800"/>
<stop offset="1" stop-color="#FF7F0A"/>
</linearGradient>
<linearGradient id="paint34_linear_28_12825" x1="116.732" y1="147.15" x2="116.732" y2="151.375" gradientUnits="userSpaceOnUse">
<stop stop-color="#FFB800"/>
<stop offset="1" stop-color="#FF7F0A"/>
</linearGradient>
<linearGradient id="paint35_linear_28_12825" x1="116.973" y1="148.286" x2="116.973" y2="149.891" gradientUnits="userSpaceOnUse">
<stop stop-color="#FFB800"/>
<stop offset="1" stop-color="#FF7F0A"/>
</linearGradient>
<linearGradient id="paint36_linear_28_12825" x1="100.598" y1="159.022" x2="100.598" y2="162.975" gradientUnits="userSpaceOnUse">
<stop stop-color="#FFB800"/>
<stop offset="1" stop-color="#FF7F0A"/>
</linearGradient>
<linearGradient id="paint37_linear_28_12825" x1="87.3121" y1="165.149" x2="87.3121" y2="168.698" gradientUnits="userSpaceOnUse">
<stop stop-color="#FFB800"/>
<stop offset="1" stop-color="#FF7F0A"/>
</linearGradient>
<linearGradient id="paint38_linear_28_12825" x1="81.5826" y1="181.01" x2="81.5826" y2="184.61" gradientUnits="userSpaceOnUse">
<stop stop-color="#FFB800"/>
<stop offset="1" stop-color="#FF7F0A"/>
</linearGradient>
<linearGradient id="paint39_linear_28_12825" x1="83.7074" y1="193.5" x2="83.7074" y2="196.62" gradientUnits="userSpaceOnUse">
<stop stop-color="#FFB800"/>
<stop offset="1" stop-color="#FF7F0A"/>
</linearGradient>
<linearGradient id="paint40_linear_28_12825" x1="83.7621" y1="192.931" x2="83.7621" y2="197.164" gradientUnits="userSpaceOnUse">
<stop stop-color="#FFB800"/>
<stop offset="1" stop-color="#FF7F0A"/>
</linearGradient>
<linearGradient id="paint41_linear_28_12825" x1="73.6909" y1="173.402" x2="73.6909" y2="176.242" gradientUnits="userSpaceOnUse">
<stop stop-color="#FFB800"/>
<stop offset="1" stop-color="#FF7F0A"/>
</linearGradient>
<linearGradient id="paint42_linear_28_12825" x1="73.4671" y1="172.975" x2="73.4671" y2="176.513" gradientUnits="userSpaceOnUse">
<stop stop-color="#FFB800"/>
<stop offset="1" stop-color="#FF7F0A"/>
</linearGradient>
<linearGradient id="paint43_linear_28_12825" x1="66.9984" y1="193.483" x2="66.9984" y2="197.331" gradientUnits="userSpaceOnUse">
<stop stop-color="#FFB800"/>
<stop offset="1" stop-color="#FF7F0A"/>
</linearGradient>
<linearGradient id="paint44_linear_28_12825" x1="58.1331" y1="176.012" x2="58.1331" y2="179.579" gradientUnits="userSpaceOnUse">
<stop stop-color="#FFB800"/>
<stop offset="1" stop-color="#FF7F0A"/>
</linearGradient>
<linearGradient id="paint45_linear_28_12825" x1="46.5568" y1="190.164" x2="46.5568" y2="193.782" gradientUnits="userSpaceOnUse">
<stop stop-color="#FFB800"/>
<stop offset="1" stop-color="#FF7F0A"/>
</linearGradient>
<linearGradient id="paint46_linear_28_12825" x1="76.9087" y1="164.286" x2="76.9087" y2="208.625" gradientUnits="userSpaceOnUse">
<stop stop-color="#FFB800"/>
<stop offset="1" stop-color="#FF7F0A"/>
</linearGradient>
<linearGradient id="paint47_linear_28_12825" x1="27.1511" y1="99.75" x2="27.1511" y2="141.6" gradientUnits="userSpaceOnUse">
<stop stop-color="#FFB800"/>
<stop offset="1" stop-color="#FF7F0A"/>
</linearGradient>
<linearGradient id="paint48_linear_28_12825" x1="248.584" y1="28.0579" x2="248.584" y2="43.2641" gradientUnits="userSpaceOnUse">
<stop stop-color="#FFB800"/>
<stop offset="1" stop-color="#FF7F0A"/>
</linearGradient>
<linearGradient id="paint49_linear_28_12825" x1="219.471" y1="120.652" x2="219.471" y2="132.512" gradientUnits="userSpaceOnUse">
<stop stop-color="#FFB800"/>
<stop offset="1" stop-color="#FF7F0A"/>
</linearGradient>
<linearGradient id="paint50_linear_28_12825" x1="59.14" y1="119.265" x2="59.14" y2="131.512" gradientUnits="userSpaceOnUse">
<stop stop-color="#FFB800"/>
<stop offset="1" stop-color="#FF7F0A"/>
</linearGradient>
<clipPath id="clip0_28_12825">
<rect width="288" height="288" fill="white"/>
</clipPath>
</defs>
</svg>
