<svg width="288" height="288" viewBox="0 0 288 288" fill="none" xmlns="http://www.w3.org/2000/svg">
<g clip-path="url(#clip0_28_12851)">
<mask id="mask0_28_12851" style="mask-type:luminance" maskUnits="userSpaceOnUse" x="0" y="0" width="288" height="288">
<path d="M288 0H0V288H288V0Z" fill="white"/>
</mask>
<g mask="url(#mask0_28_12851)">
<mask id="mask1_28_12851" style="mask-type:luminance" maskUnits="userSpaceOnUse" x="11" y="38" width="266" height="212">
<path d="M276.9 38.1011H11.4004V249.901H276.9V38.1011Z" fill="white"/>
</mask>
<g mask="url(#mask1_28_12851)">
<path fill-rule="evenodd" clip-rule="evenodd" d="M189.619 234.536C189.593 234.555 189.57 234.572 189.543 234.589C183.988 238.349 177.998 241.426 171.706 243.751L171.543 243.316L165.271 232.741L165.198 232.611C160.225 235.446 154.686 237.447 149.08 236.723C147.767 236.552 146.477 236.239 145.233 235.787C138.575 233.381 133.39 227.3 130.037 220.874C120.488 202.572 121.757 180.344 127.435 160.495C131.04 147.902 136.397 135.644 144.639 125.465C152.88 115.285 164.194 107.281 177.001 104.536C189.807 101.792 204.069 104.772 213.698 113.651C222.41 121.691 226.622 133.576 228.308 145.313C233.164 179.128 217.856 215.311 189.619 234.536ZM167.016 111.753C167.153 111.991 167.071 112.296 166.833 112.433C149.626 122.34 136.824 139.613 132.35 158.957C132.288 159.225 132.021 159.392 131.753 159.33C131.485 159.268 131.318 159 131.38 158.733C135.916 139.12 148.89 121.615 166.336 111.57C166.574 111.433 166.879 111.515 167.016 111.753ZM159.953 136.835C164.101 134.126 169.204 132.724 174.009 133.658C174.279 133.71 174.54 133.534 174.593 133.264C174.645 132.994 174.469 132.733 174.199 132.68C169.084 131.686 163.721 133.185 159.408 136.001C155.096 138.817 151.736 142.865 149.035 147.184L149.035 147.185C141.773 158.891 138.897 172.792 140.915 186.418C140.956 186.69 141.209 186.878 141.481 186.838C141.753 186.797 141.941 186.544 141.9 186.272C139.916 172.879 142.744 159.216 149.88 147.711C152.537 143.462 155.804 139.544 159.953 136.835Z" fill="url(#paint0_linear_28_12851)"/>
<path d="M276.074 229.992C276.505 231.615 275.589 233.361 274.258 234.386C272.927 235.412 271.261 235.877 269.635 236.295C243.108 243.113 215.565 244.746 188.225 246.345C177.219 246.992 166.212 247.637 155.206 248.28L155.183 248.137C160.818 247.209 166.352 245.74 171.705 243.751C177.998 241.426 183.987 238.35 189.543 234.59C189.57 234.573 189.593 234.556 189.619 234.536C210.536 234.017 231.375 231.787 251.927 227.868C258.277 226.657 264.806 225.283 271.145 226.551C273.219 226.961 275.529 227.947 276.074 229.992Z" fill="var(--illustration-currentColor)"/>
<path d="M77.6565 82.6165C78.6258 83.7316 78.5394 87.1438 77.2515 87.3994C76.7637 87.499 76.2723 86.9314 76.0533 86.1214C75.5406 84.2407 76.4652 81.2389 77.6565 82.6165Z" fill="var(--illustration-currentColor)"/>
<path d="M76.0402 173.409C78.148 173.359 80.4049 175.049 80.2024 177.15C80.0929 178.315 79.2763 179.314 78.3004 179.961C77.5852 180.431 76.7806 180.748 75.937 180.891C76.5838 179.752 76.927 178.467 76.9339 177.157C76.9411 175.848 76.6114 174.559 75.9769 173.413C75.9979 173.41 76.0192 173.409 76.0402 173.409Z" fill="var(--illustration-currentColor)"/>
<path d="M28.9873 102.093C29.0371 103.069 28.6687 104.068 28.0846 104.523C27.9344 104.67 27.7332 104.754 27.523 104.756C27.3127 104.759 27.1097 104.68 26.956 104.537C26.6605 104.237 26.5312 103.684 26.4781 103.159C26.3879 102.466 26.4398 101.761 26.6308 101.089C27.3043 98.9934 28.8811 100.125 28.9873 102.093Z" fill="var(--illustration-currentColor)"/>
<path d="M145.172 236.553C125.871 239.033 105.607 232.633 91.2318 219.523C83.7735 212.718 77.6133 203.309 78.4362 193.248C79.6245 178.73 94.7766 167.242 93.1062 152.774C92.7534 149.885 91.7145 147.123 90.0762 144.718C86.3355 139.135 79.737 135.292 72.9294 134.781C67.7514 134.392 62.6199 135.879 58.2453 138.627C51.411 142.919 46.4124 150.288 45.9411 158.383C45.5493 165.075 47.8263 171.613 50.3457 177.823C59.457 200.278 72.7899 221.902 92.901 235.418C110.964 247.556 133.727 251.689 155.181 248.138C160.817 247.21 166.351 245.74 171.706 243.75C177.998 241.425 183.988 238.35 189.543 234.589C189.57 234.573 189.593 234.556 189.62 234.536C217.856 215.312 233.164 179.129 228.308 145.313C226.622 133.577 222.41 121.691 213.698 113.652C204.068 104.772 189.81 101.789 177.001 104.537C164.192 107.285 152.881 115.284 144.639 125.464C136.397 135.644 131.04 147.9 127.434 160.494C121.755 180.343 120.487 202.572 130.036 220.873C133.389 227.299 138.573 233.38 145.232 235.786C146.476 236.237 147.766 236.551 149.078 236.722C154.685 237.446 160.224 235.444 165.197 232.61C166.119 232.086 167.027 231.53 167.905 230.96C187.615 218.175 200.735 195.75 202.219 172.303C202.959 160.636 200.738 148.333 193.542 139.118C186.347 129.903 173.465 124.637 162.458 128.573C152.939 131.979 146.689 141.183 142.925 150.563C136.549 166.582 135.526 184.234 140.011 200.882C141.199 205.257 142.819 209.618 145.683 213.13C148.547 216.642 152.85 219.217 157.38 219.098C163.59 218.935 168.6 213.99 172.078 208.845C177.275 201.149 180.616 192.353 181.839 183.148C182.556 177.731 182.248 171.531 178.261 167.79C173.276 163.116 164.878 164.723 159.471 168.902C156.64 171.116 154.294 173.889 152.58 177.048C150.865 180.208 149.818 183.686 149.504 187.267C149.145 191.675 150.022 196.348 152.8 199.787C155.578 203.225 160.507 205.091 164.633 203.504C168.758 201.918 171.152 196.434 168.835 192.667C166.518 188.9 159.691 189.145 158.224 193.314" stroke="var(--illustration-currentColor)" stroke-width="0.9957" stroke-linecap="round" stroke-linejoin="round"/>
<path d="M57.2566 167.421C54.8401 169.851 54.4153 174.007 56.2906 176.871C58.1659 179.736 62.1424 181.014 65.3353 179.772C67.3003 179.009 68.8453 177.472 70.4503 176.105C72.0436 174.755 73.8922 173.489 75.9766 173.413C75.9976 173.41 76.0186 173.409 76.0396 173.409C78.1474 173.36 80.4043 175.049 80.2018 177.15C80.0923 178.315 79.2757 179.314 78.2998 179.961C77.5846 180.431 76.78 180.748 75.9364 180.891C74.6965 181.11 73.4191 180.953 72.2686 180.441" stroke="var(--illustration-currentColor)" stroke-width="0.9957" stroke-linecap="round" stroke-linejoin="round"/>
<path d="M66.2916 153.986C65.988 153.478 65.5425 153.07 65.01 152.813C64.4775 152.555 63.8814 152.458 63.2949 152.535C62.7084 152.611 62.157 152.858 61.7085 153.243C61.2603 153.629 60.9342 154.137 60.7707 154.706C60.6075 155.274 60.6139 155.878 60.7891 156.443C60.9643 157.008 61.3008 157.509 61.7571 157.886C62.2134 158.262 62.7699 158.497 63.3579 158.561C63.9459 158.625 64.5399 158.516 65.0667 158.247" stroke="var(--illustration-currentColor)" stroke-width="0.9957" stroke-linecap="round" stroke-linejoin="round"/>
<path d="M84.2251 151.291C86.3272 149.24 88.2826 147.044 90.0769 144.719C100.284 131.396 105.207 114.771 103.898 98.0385C103.619 94.6662 103.052 91.2108 101.286 88.3266C99.5599 85.5087 96.4597 83.3313 93.1738 83.4906C93.094 83.4906 93.0112 83.4972 92.9314 83.5038" stroke="var(--illustration-currentColor)" stroke-width="0.9957" stroke-linecap="round" stroke-linejoin="round"/>
<path d="M57.0243 145.1C57.5289 142.962 57.936 140.805 58.2459 138.627C59.5758 129.351 59.1399 119.907 56.9613 110.793C55.1856 103.398 51.8265 95.7602 45.228 91.9829C43.473 90.9842 41.547 90.3212 39.549 90.0278C35.3634 89.3939 30.9456 90.3299 27.5967 92.9123C22.6578 96.7223 20.6367 104.061 23.3448 109.684C23.4078 109.817 23.4741 109.946 23.544 110.076C26.4018 115.44 33.594 118.218 39.144 115.698C42.5364 114.159 44.9403 110.936 45.9303 107.325C46.3029 105.973 46.4697 104.573 46.425 103.172C46.2525 98.084 43.4577 93.2978 39.5511 90.0284L39.4848 89.972" stroke="var(--illustration-currentColor)" stroke-width="0.9957" stroke-linecap="round" stroke-linejoin="round"/>
<path d="M93.1742 83.4906C93.2438 79.1061 88.7231 76.1916 84.4946 75.8133C79.9541 75.405 75.191 77.3967 72.5654 81.1233C71.6066 82.5129 70.9583 84.093 70.6643 85.7556C70.3706 87.4182 70.4381 89.1246 70.8626 90.759C71.1611 91.9035 71.6564 92.9874 72.3263 93.9621C74.9219 97.7061 80.2724 99.3723 84.4181 97.4772C87.5648 96.0399 90.0707 92.5914 91.6208 89.0631C92.2226 87.6996 92.6906 86.2812 93.0182 84.8277C93.1154 84.3885 93.1679 83.9403 93.1742 83.4906Z" stroke="var(--illustration-currentColor)" stroke-width="0.9957" stroke-linecap="round" stroke-linejoin="round"/>
<path d="M71.0249 90.7153L91.6205 89.0623C91.6472 89.059 91.6703 89.059 91.6967 89.0557" stroke="var(--illustration-currentColor)" stroke-width="0.9957" stroke-linecap="round" stroke-linejoin="round"/>
<path d="M23.856 109.933C30.7426 107.613 38.0233 106.693 45.2707 107.228" stroke="var(--illustration-currentColor)" stroke-width="0.9957" stroke-linecap="round" stroke-linejoin="round"/>
<path d="M171.543 243.315L165.27 232.741" stroke="var(--illustration-currentColor)" stroke-width="0.9957" stroke-linecap="round" stroke-linejoin="round"/>
<path d="M155.206 248.281C166.212 247.637 177.219 246.992 188.225 246.346C215.565 244.746 243.108 243.113 269.635 236.296C271.261 235.878 272.931 235.416 274.259 234.387C275.586 233.358 276.506 231.616 276.074 229.992C275.53 227.948 273.22 226.963 271.145 226.551C264.806 225.283 258.277 226.657 251.927 227.868C231.375 231.787 210.536 234.017 189.619 234.536C189.536 234.54 189.453 234.54 189.37 234.543" stroke="var(--illustration-currentColor)" stroke-width="0.9957" stroke-linecap="round" stroke-linejoin="round"/>
<path d="M75.9204 180.921C75.9273 180.911 75.933 180.901 75.9369 180.891C76.5837 179.752 76.9269 178.466 76.9341 177.157C76.941 175.847 76.6113 174.558 75.9768 173.413C75.9702 173.403 75.9636 173.39 75.957 173.379" stroke="var(--illustration-currentColor)" stroke-width="0.9957" stroke-linecap="round" stroke-linejoin="round"/>
<path d="M76.0535 86.1215C76.2725 86.9315 76.7639 87.4991 77.2517 87.3995C78.5396 87.1439 78.6257 83.7317 77.6567 82.6166C76.4651 81.2387 75.5405 84.2405 76.0535 86.1215Z" stroke="var(--illustration-currentColor)" stroke-width="0.9957" stroke-linecap="round" stroke-linejoin="round"/>
<path d="M26.6304 101.088C26.4393 101.76 26.3874 102.464 26.4777 103.158C26.5308 103.682 26.6604 104.238 26.9556 104.535C27.1092 104.679 27.3123 104.757 27.5225 104.755C27.7327 104.752 27.9339 104.669 28.0842 104.522C28.6683 104.067 29.0367 103.068 28.9869 102.092C28.881 100.125 27.3042 98.9933 26.6304 101.088Z" stroke="var(--illustration-currentColor)" stroke-width="0.9957" stroke-linecap="round" stroke-linejoin="round"/>
<path d="M38.9488 146.306L34.7314 139.277" stroke="var(--illustration-currentColor)" stroke-width="0.9957" stroke-linecap="round" stroke-linejoin="round"/>
<path d="M31.6968 152.591L12.1802 147.218" stroke="var(--illustration-currentColor)" stroke-width="0.9957" stroke-linecap="round" stroke-linejoin="round"/>
<path d="M33.6003 159.081C31.2627 159.869 29.0922 161.085 27.1992 162.666" stroke="var(--illustration-currentColor)" stroke-width="0.9957" stroke-linecap="round" stroke-linejoin="round"/>
<path d="M180.645 112.41C180.591 109.703 180.537 106.996 180.483 104.288" stroke="var(--illustration-currentColor)" stroke-width="0.9957" stroke-linecap="round" stroke-linejoin="round"/>
<path d="M176.581 116.162C176.998 112.376 177.155 108.565 177.05 104.757" stroke="var(--illustration-currentColor)" stroke-width="0.9957" stroke-linecap="round" stroke-linejoin="round"/>
<path d="M209.838 124.301L197.648 123.457" stroke="var(--illustration-currentColor)" stroke-width="0.9957" stroke-linecap="round" stroke-linejoin="round"/>
<path d="M202.967 130.071L203.657 117.883" stroke="var(--illustration-currentColor)" stroke-width="0.9957" stroke-linecap="round" stroke-linejoin="round"/>
<path d="M221.566 159.318L228.872 155.808" stroke="var(--illustration-currentColor)" stroke-width="0.9957" stroke-linecap="round" stroke-linejoin="round"/>
<path d="M222.326 162.398L228.887 158.808" stroke="var(--illustration-currentColor)" stroke-width="0.9957" stroke-linecap="round" stroke-linejoin="round"/>
<path d="M206.115 169.457L212.366 163.057" stroke="var(--illustration-currentColor)" stroke-width="0.9957" stroke-linecap="round" stroke-linejoin="round"/>
<path d="M211.633 169.369L207.496 162.7" stroke="var(--illustration-currentColor)" stroke-width="0.9957" stroke-linecap="round" stroke-linejoin="round"/>
<path d="M199.364 188.309L213.11 188.568" stroke="var(--illustration-currentColor)" stroke-width="0.9957" stroke-linecap="round" stroke-linejoin="round"/>
<path d="M198.426 191.385L207.798 191.442" stroke="var(--illustration-currentColor)" stroke-width="0.9957" stroke-linecap="round" stroke-linejoin="round"/>
<path d="M201.716 219.407C201.909 216.856 201.851 214.292 201.54 211.753" stroke="var(--illustration-currentColor)" stroke-width="0.9957" stroke-linecap="round" stroke-linejoin="round"/>
<path d="M197.645 215.651C200.424 215.556 203.19 215.233 205.916 214.685" stroke="var(--illustration-currentColor)" stroke-width="0.9957" stroke-linecap="round" stroke-linejoin="round"/>
<path d="M176.78 241.18L169.299 230.234" stroke="var(--illustration-currentColor)" stroke-width="0.9957" stroke-linecap="round" stroke-linejoin="round"/>
<path d="M181.238 188.13L187.958 186.9" stroke="var(--illustration-currentColor)" stroke-width="0.9957" stroke-linecap="round" stroke-linejoin="round"/>
<path d="M181.389 184.863C184.255 183.4 187.402 182.569 190.618 182.427" stroke="var(--illustration-currentColor)" stroke-width="0.9957" stroke-linecap="round" stroke-linejoin="round"/>
<path d="M189.58 205.164C188.462 202.935 187.217 200.771 185.852 198.684" stroke="var(--illustration-currentColor)" stroke-width="0.9957" stroke-linecap="round" stroke-linejoin="round"/>
<path d="M184.822 204.55L191.118 199.297" stroke="var(--illustration-currentColor)" stroke-width="0.9957" stroke-linecap="round" stroke-linejoin="round"/>
<path d="M175.485 224.708C174.957 223.492 174.204 222.386 173.265 221.45" stroke="var(--illustration-currentColor)" stroke-width="0.9957" stroke-linecap="round" stroke-linejoin="round"/>
<path d="M172.971 226.591C172.62 225.16 171.797 223.889 170.634 222.985" stroke="var(--illustration-currentColor)" stroke-width="0.9957" stroke-linecap="round" stroke-linejoin="round"/>
<path d="M137.813 219.706C139.541 218.552 141.188 217.281 142.743 215.903" stroke="var(--illustration-currentColor)" stroke-width="0.9957" stroke-linecap="round" stroke-linejoin="round"/>
<path d="M141.32 220.71L138.065 215.072" stroke="var(--illustration-currentColor)" stroke-width="0.9957" stroke-linecap="round" stroke-linejoin="round"/>
<path d="M148.077 170.305C146.774 169.605 145.546 168.774 144.411 167.826" stroke="var(--illustration-currentColor)" stroke-width="0.9957" stroke-linecap="round" stroke-linejoin="round"/>
<path d="M144.69 171.919L147.84 166.467" stroke="var(--illustration-currentColor)" stroke-width="0.9957" stroke-linecap="round" stroke-linejoin="round"/>
<path d="M149.089 139.247C150.89 140.486 152.514 141.967 153.913 143.648" stroke="var(--illustration-currentColor)" stroke-width="0.9957" stroke-linecap="round" stroke-linejoin="round"/>
<path d="M151.289 136.43L156.411 141.306" stroke="var(--illustration-currentColor)" stroke-width="0.9957" stroke-linecap="round" stroke-linejoin="round"/>
<path d="M170.775 179.031L168.207 174.418" stroke="var(--illustration-currentColor)" stroke-width="0.9957" stroke-linecap="round" stroke-linejoin="round"/>
<path d="M166.951 178.557C168.619 177.481 170.144 176.199 171.492 174.742" stroke="var(--illustration-currentColor)" stroke-width="0.9957" stroke-linecap="round" stroke-linejoin="round"/>
<path d="M177.297 151.15L177.809 142.011" stroke="var(--illustration-currentColor)" stroke-width="0.9957" stroke-linecap="round" stroke-linejoin="round"/>
<path d="M173.414 147.566C176.41 146.663 179.521 146.195 182.65 146.176" stroke="var(--illustration-currentColor)" stroke-width="0.9957" stroke-linecap="round" stroke-linejoin="round"/>
<path d="M153.204 82.1681C151.993 80.2181 150.744 78.1511 150.651 75.8564C150.558 73.5617 152.091 71.0294 154.383 70.8818" stroke="var(--illustration-currentColor)" stroke-width="0.9957" stroke-linecap="round" stroke-linejoin="round"/>
<path d="M161.478 80.2583C159.859 76.8929 158.925 73.2398 158.73 69.5105L164.199 66.8354" stroke="var(--illustration-currentColor)" stroke-width="0.9957" stroke-linecap="round" stroke-linejoin="round"/>
<path d="M175.388 66.1726C170.882 65.6599 166.718 70.6726 168.048 75.0076C169.378 79.3426 175.636 81.1576 179.079 78.2074C182.523 75.2572 181.687 68.794 177.606 66.8158" stroke="var(--illustration-currentColor)" stroke-width="0.9957" stroke-linecap="round" stroke-linejoin="round"/>
<path d="M187.262 77.4552C186.436 73.2324 185.61 69.0093 184.784 64.7865L190.807 62.3169" stroke="var(--illustration-currentColor)" stroke-width="0.9957" stroke-linecap="round" stroke-linejoin="round"/>
<path d="M203.285 61.5092C206.826 62.2661 210.508 62.0402 213.93 60.8555" stroke="var(--illustration-currentColor)" stroke-width="0.9957" stroke-linecap="round" stroke-linejoin="round"/>
<path d="M198.844 55.3781L209.674 38.8091" stroke="var(--illustration-currentColor)" stroke-width="0.9957" stroke-linecap="round" stroke-linejoin="round"/>
<path d="M191.283 53.8419C191.38 51.882 191.477 49.9218 191.573 47.9619" stroke="var(--illustration-currentColor)" stroke-width="0.9957" stroke-linecap="round" stroke-linejoin="round"/>
<path d="M142.114 94.4517L142.971 100.979" stroke="var(--illustration-currentColor)" stroke-width="0.9957" stroke-linecap="round" stroke-linejoin="round"/>
<path d="M131.37 94.438L120.37 112.112" stroke="var(--illustration-currentColor)" stroke-width="0.9957" stroke-linecap="round" stroke-linejoin="round"/>
<path d="M126.039 88.5277C124.821 88.1875 123.542 88.1323 122.299 88.3666C121.056 88.6006 119.884 89.1178 118.874 89.8777" stroke="var(--illustration-currentColor)" stroke-width="0.9957" stroke-linecap="round" stroke-linejoin="round"/>
<path d="M147.863 84.6483C146.798 85.6479 145.709 86.6637 144.387 87.2853C143.066 87.9069 141.447 88.0803 140.168 87.3768C138.845 86.6499 138.147 85.1772 137.54 83.7951C134.823 77.6028 132.269 71.3424 129.878 65.0133L137.961 61.2993" stroke="var(--illustration-currentColor)" stroke-width="0.9957" stroke-linecap="round" stroke-linejoin="round"/>
<path d="M134.553 77.095L139.966 74.6851" stroke="var(--illustration-currentColor)" stroke-width="0.9957" stroke-linecap="round" stroke-linejoin="round"/>
<g opacity="0.1">
<path d="M151.183 217.121C152.626 218.645 155.304 218.743 157.273 218.626C159.499 218.473 161.671 217.871 163.658 216.856C167.998 214.696 171.2 210.773 173.457 206.569C176.021 201.792 177.71 196.516 179.22 191.329C179.976 188.65 180.535 185.919 180.893 183.158C181.263 180.483 181.63 177.728 181.461 175.024C181.281 172.163 180.417 169.432 178.535 167.234C177.183 165.653 174.199 163.394 172.28 165.34C172.107 165.524 171.996 165.759 171.964 166.01C171.931 166.261 171.979 166.516 172.1 166.738C172.794 168.315 174.931 168.714 175.99 170.081C177.249 171.706 177.64 173.831 177.745 175.835C177.99 180.559 177.142 185.324 176.353 189.961C175.567 194.561 174.181 199.037 172.23 203.276C170.465 207.104 168.114 210.926 164.632 213.422C162.814 214.73 160.744 215.643 158.553 216.105C157.384 216.356 156.184 216.437 154.99 216.345C153.865 216.255 152.806 215.873 151.669 215.946C151.534 215.951 151.404 215.993 151.293 216.07C151.183 216.146 151.096 216.253 151.045 216.377C150.993 216.501 150.979 216.638 151.003 216.77C151.027 216.902 151.089 217.025 151.181 217.123L151.183 217.121Z" fill="var(--illustration-currentColor)"/>
</g>
<g opacity="0.1">
<path d="M149.1 237.094C151.306 237.13 153.3 236.26 155.334 235.465C157.467 234.632 159.562 233.706 161.607 232.673C165.585 230.682 169.36 228.311 172.882 225.593C180.088 220.033 186.182 213.166 190.846 205.351C195.784 196.946 199.045 187.664 200.449 178.018C201.876 168.281 201.694 157.981 198.688 148.539C197.056 143.412 194.522 138.536 190.881 134.546C187.561 130.909 183.045 127.23 177.898 127.234C176.22 127.234 174.986 129.597 176.428 130.787C179.488 133.317 183.028 135.115 185.836 137.969C188.684 140.883 190.954 144.308 192.529 148.066C196.039 156.39 196.552 165.888 195.685 174.786C193.987 192.218 185.255 208.666 172.144 220.197C168.66 223.262 164.87 225.816 160.992 228.345C159.061 229.558 157.054 230.648 154.984 231.607C152.822 232.653 150.384 233.331 148.477 234.787C147.551 235.494 147.771 237.071 149.101 237.093L149.1 237.094Z" fill="var(--illustration-currentColor)"/>
</g>
<g opacity="0.1">
<path d="M170.912 243.129C181.532 240.151 190.772 233.772 198.735 226.273C206.754 218.744 213.354 209.835 218.222 199.971C223.615 188.96 226.824 177.009 227.67 164.777C228.48 152.934 227.209 140.342 222.844 129.237C220.48 123.221 217.103 117.052 212.161 112.748C209.88 110.744 207.378 109.009 204.702 107.574C203.289 106.831 201.792 106.061 200.213 105.779C198.665 105.517 197.09 105.447 195.525 105.569C194.109 105.662 193.237 107.748 194.737 108.477C196.968 109.562 199.145 110.792 201.351 111.934C203.567 113.044 205.598 114.488 207.375 116.215C211.155 119.979 214.167 124.009 216.413 128.877C221.049 138.931 222.51 150.673 222.221 161.648C221.674 183.553 212.876 204.444 197.587 220.141C189.475 228.431 179.733 234.659 169.839 240.584C168.498 241.387 169.37 243.561 170.912 243.129V243.129Z" fill="var(--illustration-currentColor)"/>
</g>
<g opacity="0.1">
<path d="M68.8352 209.906L68.7391 210.1C68.6029 210.327 68.5312 210.587 68.5312 210.852C68.5312 211.117 68.6029 211.377 68.7391 211.605C69.5968 212.935 70.2832 214.386 71.2252 215.658C72.2353 217.022 73.3339 218.32 74.4736 219.577C76.6228 221.948 78.9028 224.197 81.3028 226.315C86.2546 230.681 91.1873 234.781 97.0007 237.974C109.339 244.75 123.356 248.641 137.452 248.887C141.65 248.96 145.997 248.897 150.125 248.072C152.075 247.682 153.986 247.168 155.906 246.65C157.923 246.106 160.039 245.587 161.808 244.442C162.012 244.315 162.169 244.125 162.257 243.901C162.344 243.678 162.357 243.432 162.295 243.2C162.232 242.968 162.096 242.762 161.908 242.613C161.719 242.464 161.487 242.38 161.247 242.372C159.561 242.224 157.864 242.492 156.184 242.669C154.392 242.857 152.595 242.919 150.794 242.969C147.256 243.068 143.721 243.31 140.18 243.269C133.336 243.218 126.521 242.375 119.87 240.759C113.526 239.21 107.383 236.929 101.566 233.962C98.863 232.574 96.2369 231.033 93.6539 229.435C91.0829 227.845 88.4521 226.308 86.068 224.445C83.3395 222.271 80.7622 219.915 78.3541 217.39C77.1301 216.13 75.9367 214.836 74.7577 213.533C73.5787 212.231 72.2221 211.129 71.0794 209.797C70.8946 209.608 70.6624 209.473 70.4071 209.406C70.1518 209.338 69.883 209.341 69.6292 209.414L69.4579 209.43C69.3169 209.433 69.1807 209.48 69.0688 209.566C68.9566 209.651 68.8744 209.77 68.8342 209.905L68.8352 209.906Z" fill="var(--illustration-currentColor)"/>
</g>
</g>
</g>
</g>
<defs>
<linearGradient id="paint0_linear_28_12851" x1="176.107" y1="103.552" x2="176.107" y2="243.751" gradientUnits="userSpaceOnUse">
<stop stop-color="#FFB800"/>
<stop offset="1" stop-color="#FF7F0A"/>
</linearGradient>
<clipPath id="clip0_28_12851">
<rect width="288" height="288" fill="white"/>
</clipPath>
</defs>
</svg>
