<svg width="288" height="288" viewBox="0 0 288 288" fill="none" xmlns="http://www.w3.org/2000/svg">
<mask id="mask0_28_12844" style="mask-type:luminance" maskUnits="userSpaceOnUse" x="11" y="13" width="266" height="262">
<path d="M276.6 13.5H11.7002V274.8H276.6V13.5Z" fill="white"/>
</mask>
<g mask="url(#mask0_28_12844)">
<path fill-rule="evenodd" clip-rule="evenodd" d="M87.3017 131.873L101.38 140.014L100.303 129.142L92.7938 53.2703L108.803 48.3218C108.803 48.3218 110.118 60.4007 109.242 63.3131C108.832 64.6766 107.37 66.5822 105.916 68.4773C104.264 70.6301 102.623 72.7697 102.546 74.0855C102.479 76.0265 102.528 77.9699 102.691 79.9055C107.718 80.5709 112.795 80.7746 117.859 80.5148L117.829 79.9055L115.354 48.3209C115.354 48.3209 115.06 44.8235 113.461 43.3709C111.862 41.9183 108.658 39.5849 105.748 38.8583C102.837 38.1317 91.3409 36.9689 87.5552 39.5885C83.7695 42.2081 81.8054 44.537 81.1499 51.6692C80.8838 54.5765 80.6426 67.7432 80.4476 82.3169C80.1668 103.491 79.9868 127.643 79.9868 127.643L87.3017 131.873ZM105.105 39.2696C104.86 39.2249 104.626 39.3869 104.581 39.6314C104.537 39.8759 104.698 40.1102 104.943 40.1552C106.366 40.4153 107.723 40.9553 108.936 41.7437C110.149 42.5318 111.193 43.553 112.009 44.7476C112.825 45.9425 113.395 47.2871 113.688 48.7037C113.98 50.1206 113.989 51.581 113.713 53.0012C113.666 53.2451 113.825 53.4815 114.069 53.5286C114.313 53.576 114.549 53.4167 114.597 53.1728C114.895 51.6359 114.886 50.0552 114.569 48.5219C114.253 46.9886 113.635 45.5333 112.753 44.2403C111.87 42.9473 110.739 41.8421 109.426 40.9889C108.114 40.1357 106.645 39.5513 105.105 39.2696Z" fill="#171717"/>
<path d="M151.6 207.352H212.75L182.297 135.325L151.6 207.352ZM107.285 264.967C110.214 264.407 112.805 262.672 114.952 260.232L123.977 261.84L123.442 243.648L162.234 155.385C169.728 138.467 177.946 120.581 184.472 103.18H192.207L250.697 240.465C252.871 245.299 255.531 251.825 258.432 256.901C261.089 261.494 263.749 264.633 268.101 265.119L276.319 265.842L276.315 273.095C265.682 272.85 255.049 272.37 244.17 272.37C235.71 272.37 225.074 272.852 212.025 273.096V265.842L223.382 265.119C228.461 264.879 233.292 263.185 233.292 260.284C233.292 256.901 230.635 250.616 228.217 244.814L217.102 217.02H147.493L140.722 233.211C138.548 238.289 132.262 254.481 132.262 258.351C132.262 263.426 136.372 264.391 143.864 265.118L152.809 265.842V273.095C141.207 272.851 132.021 272.368 125.013 272.368C115.586 272.368 106.402 272.851 97.2168 273.095V265.842L106.161 265.119C106.538 265.087 106.913 265.036 107.285 264.967Z" fill="#171717"/>
<path d="M123.442 243.648L123.977 261.84L114.952 260.232C116.734 258.156 118.172 255.807 119.212 253.276L123.442 243.648Z" fill="#171717"/>
<path d="M120.022 127.29L123.442 243.648L119.212 253.276C118.172 255.807 116.734 258.155 114.952 260.232L107.328 258.874L106.623 258.748L99.7075 145.253L91.5475 261.584L87.907 260.631L75.9127 257.485H75.9097C75.415 251.89 74.7592 244.508 73.9897 235.869L76.4401 133.843C81.2743 133.621 87.3025 131.873 87.3025 131.873L101.381 140.014L100.305 129.139C100.305 129.139 111.375 129.25 119.246 127.206L120.022 127.29Z" fill="url(#paint0_linear_28_12844)"/>
<path d="M66.3224 149.926C69.0782 180.79 71.936 212.808 73.9898 235.869C74.7599 244.507 75.4157 251.889 75.9098 257.485H75.9128C76.5314 264.457 76.8995 268.654 76.9304 269.044C76.985 269.574 76.9034 270.11 76.6934 270.6C76.4834 271.09 76.1519 271.519 75.7304 271.846C75.2462 272.232 74.6885 272.516 74.0912 272.681C74.0912 272.681 66.5228 274.138 63.467 274.066C62.8325 274.056 62.2121 273.877 61.6703 273.546C61.1288 273.215 60.6854 272.746 60.3866 272.186C60.1091 271.718 59.9078 271.21 59.7896 270.68L58.9142 263.77L46.4444 165.18L46.4258 164.842C48.4565 164.66 50.4071 163.962 52.0931 162.815C53.7788 161.668 55.1444 160.11 56.0603 158.289C57.0047 156.322 57.4154 154.142 57.251 151.967L57.8261 151.937C60.1772 152.083 62.5289 151.661 64.6832 150.709C65.2364 150.467 65.7662 150.176 66.2666 149.839L66.3224 149.926Z" fill="#171717"/>
<path d="M65.1071 136.302C64.4207 128.598 63.7463 121.062 63.1031 113.869C62.3483 105.419 61.637 97.4338 60.9905 90.184C59.3105 71.4163 58.0739 57.5722 57.6935 53.3227C57.6134 52.4227 57.3344 51.5518 56.8769 50.7727L44.6879 30.0748C44.5448 29.8314 44.3357 29.6335 44.0846 29.5043C43.8335 29.3751 43.5509 29.3199 43.2695 29.345C42.9884 29.3702 42.7199 29.4747 42.4958 29.6464C42.2714 29.818 42.1007 30.0499 42.0032 30.3148L33.0932 54.5416C32.7761 55.3999 32.6711 56.3218 32.7869 57.2293L38.8337 106.301L42.9062 139.346L42.9095 139.373" stroke="#171717" stroke-width="0.9" stroke-linecap="round" stroke-linejoin="round"/>
<path d="M75.9102 257.485C75.4155 251.89 74.7597 244.508 73.9902 235.869C71.9364 212.809 69.0786 180.789 66.3228 149.927" stroke="#171717" stroke-width="0.9" stroke-linecap="round" stroke-linejoin="round"/>
<path d="M46.4443 165.18L58.9147 263.77L59.7901 270.679C59.9083 271.21 60.1099 271.718 60.3871 272.185C60.6862 272.745 61.1293 273.214 61.6711 273.545C62.2129 273.876 62.833 274.056 63.4675 274.066C66.5233 274.137 74.0917 272.68 74.0917 272.68C74.689 272.515 75.2467 272.231 75.7309 271.845C76.1527 271.518 76.4839 271.09 76.6939 270.599C76.9039 270.109 76.9855 269.573 76.9309 269.043C76.9009 268.653 76.5319 264.456 75.9133 257.485" stroke="#171717" stroke-width="0.9" stroke-linecap="round" stroke-linejoin="round"/>
<path d="M182.548 41.2884C181.375 40.4784 179.77 39.7851 177.577 39.3684C175.606 38.9499 173.568 38.9697 171.605 39.4269C170.289 39.7374 169.053 40.32 167.976 41.1372C166.899 41.9544 166.005 42.9879 165.351 44.1717C165.351 44.1717 158.584 63.165 147.666 70.1517C139.547 75.3507 130.89 79.7397 117.859 80.5128C112.796 80.7726 107.719 80.5686 102.692 79.9035C102.529 77.9679 102.48 76.0245 102.547 74.0835C102.692 71.6094 108.367 66.2235 109.243 63.3111C110.119 60.3987 108.804 48.3198 108.804 48.3198L92.7947 53.2683L100.304 129.14L101.38 140.015L87.3017 131.875L79.9868 127.645C79.9868 127.645 80.1668 103.492 80.4476 82.3182C80.6426 67.7445 80.8838 54.5778 81.1499 51.6705C81.8054 44.5383 83.7695 42.2094 87.5552 39.5898C91.3409 36.9702 102.837 38.133 105.748 38.8596C108.658 39.5862 111.862 41.9196 113.461 43.3722C115.06 44.8248 115.354 48.3222 115.354 48.3222L117.829 79.9068" stroke="#171717" stroke-width="0.9" stroke-linecap="round" stroke-linejoin="round"/>
<path d="M100.305 129.139C100.305 129.139 111.375 129.25 119.245 127.206C122.71 126.306 125.555 124.988 126.563 123.058C129.118 118.172 117.829 107.266 117.829 107.266C117.829 107.266 152.47 108.262 168.843 88.9869C185.217 69.7119 185.656 47.6655 185.656 47.6655C185.656 47.6655 186.286 43.8738 182.548 41.2911" stroke="#171717" stroke-width="0.9" stroke-linecap="round" stroke-linejoin="round"/>
<path d="M96.7256 80.4135L102.692 79.9032" stroke="#171717" stroke-width="0.9" stroke-linecap="round" stroke-linejoin="round"/>
<path d="M63.103 113.869L70.0897 111.414C70.0897 111.414 66.7648 129.174 71.2528 132.882C72.2764 133.729 74.2342 133.946 76.4395 133.843C81.2737 133.621 87.3019 131.873 87.3019 131.873" stroke="#171717" stroke-width="0.9" stroke-linecap="round" stroke-linejoin="round"/>
<path d="M114.952 260.232L107.328 258.874L106.623 258.748L99.7071 145.253L91.548 261.584L87.9075 260.631L75.9132 257.486H75.9102" stroke="#171717" stroke-width="0.9" stroke-linecap="round" stroke-linejoin="round"/>
<path d="M120.021 127.29L123.442 243.648" stroke="#171717" stroke-width="0.9" stroke-linecap="round" stroke-linejoin="round"/>
<path d="M76.4422 133.713L76.4392 133.843L73.9897 235.869" stroke="#171717" stroke-width="0.9" stroke-linecap="round" stroke-linejoin="round"/>
<path d="M171.605 39.4293V39.426C171.438 39.219 164.201 29.9679 165.568 28.8885C166.95 27.7968 174.302 34.8549 174.302 34.8549C174.302 34.8549 173.136 14.188 174.884 14.0428C176.631 13.8976 177.794 33.9825 177.794 33.9825C177.794 33.9825 178.449 14.4786 180.197 14.6982C181.944 14.9178 180.707 34.3482 180.707 34.3482C180.707 34.3482 184.2 16.7368 186.309 17.3182C188.406 17.8966 182.628 40.9725 182.548 41.2881V41.2911" stroke="#171717" stroke-width="0.9" stroke-linecap="round" stroke-linejoin="round"/>
<path d="M95.7051 66.2231C95.7051 66.2231 96.5247 69.551 100.617 69.3869" stroke="#171717" stroke-width="0.9" stroke-linecap="round" stroke-linejoin="round"/>
<path d="M101.437 62.6724L103.456 62.2362L102.148 59.4528" stroke="#171717" stroke-width="0.9" stroke-linecap="round" stroke-linejoin="round"/>
<path d="M103.456 55.4701C103.908 55.1401 104.452 54.9622 105.012 54.9622C105.571 54.9622 106.116 55.1401 106.568 55.4701" stroke="#171717" stroke-width="0.9" stroke-linecap="round" stroke-linejoin="round"/>
<path d="M95.105 56.1774C95.105 56.1774 96.305 54.9774 98.1608 55.905" stroke="#171717" stroke-width="0.9" stroke-linecap="round" stroke-linejoin="round"/>
<path d="M101.437 51.5939C101.437 51.5939 104.329 48.8102 107.551 51.266" stroke="#171717" stroke-width="0.9" stroke-linecap="round" stroke-linejoin="round"/>
<path d="M53.0698 143.187C50.3596 140.715 46.8289 139.335 43.1602 139.315" stroke="#171717" stroke-width="0.9" stroke-linecap="round" stroke-linejoin="round"/>
<path d="M38.8329 106.304C33.9273 110.801 29.7395 115.911 27.296 122.056C22.706 133.602 25.3847 147.403 33.012 157.207C36.0027 161.047 40.0854 164.519 44.9412 164.85C45.4356 164.883 45.9318 164.881 46.4259 164.844C48.4566 164.661 50.4072 163.963 52.0929 162.816C53.7789 161.669 55.1445 160.111 56.0604 158.29C57.0048 156.323 57.4152 154.143 57.2511 151.968C57.0906 149.57 56.2824 147.262 54.9129 145.287C54.3756 144.524 53.7576 143.821 53.0694 143.19" stroke="#171717" stroke-width="0.9" stroke-linecap="round" stroke-linejoin="round"/>
<path d="M80.2653 82.3125C73.3866 83.6082 67.0278 86.5683 60.9903 90.1839H60.9873" stroke="#171717" stroke-width="0.9" stroke-linecap="round" stroke-linejoin="round"/>
<path d="M53.0698 143.19V143.187C53.1409 141.179 53.6296 134.916 54.4957 133.107C54.6937 132.692 54.9721 132.241 55.4257 132.163C55.6258 132.147 55.8259 132.189 56.002 132.285C56.1784 132.38 56.323 132.525 56.4184 132.701C56.6056 133.055 56.7202 133.443 56.7556 133.841C57.0463 135.7 57.3364 137.559 57.6256 139.418C59.5357 138.407 61.5163 137.536 63.5518 136.811C64.0504 136.606 64.579 136.483 65.1166 136.446H65.1292C65.4001 136.431 65.6707 136.477 65.9212 136.581C66.1717 136.685 66.3958 136.844 66.5764 137.046C66.7591 137.312 66.8662 137.623 66.8857 137.945C66.9055 138.268 66.8371 138.589 66.688 138.876C66.532 139.192 66.3226 139.48 66.0694 139.726C65.8618 139.932 65.6416 140.124 65.4094 140.302C63.736 141.595 61.7752 142.448 59.836 143.293C59.8978 143.283 59.956 143.274 60.016 143.265" stroke="#171717" stroke-width="0.9" stroke-linecap="round" stroke-linejoin="round"/>
<path d="M66.0599 139.732C66.0629 139.732 66.0659 139.729 66.0692 139.729C66.4628 139.653 66.8705 139.698 67.238 139.858C67.6058 140.018 67.9163 140.286 68.129 140.626C68.3327 140.974 68.4587 141.361 68.4977 141.763C68.5367 142.164 68.4878 142.568 68.3549 142.949C68.2127 143.38 67.9982 143.784 67.7207 144.143C67.5107 144.422 67.2755 144.682 67.0187 144.919C65.1782 146.638 62.6204 147.307 60.1772 147.916C60.3194 147.888 60.4586 147.863 60.6008 147.835" stroke="#171717" stroke-width="0.9" stroke-linecap="round" stroke-linejoin="round"/>
<path d="M67.8102 144.21C68.7288 145.268 68.6577 146.94 67.9338 148.14C67.5072 148.82 66.9384 149.399 66.2667 149.838C65.7663 150.175 65.2365 150.467 64.6833 150.708C62.529 151.66 60.1773 152.081 57.8262 151.936" stroke="#171717" stroke-width="0.9" stroke-linecap="round" stroke-linejoin="round"/>
<path d="M60.1199 272.303C57.7571 272.359 55.394 272.414 53.0309 272.467C52.1402 272.485 51.2186 272.501 50.3927 272.195C49.5668 271.888 48.8525 271.168 48.8771 270.335C48.905 269.326 49.9163 268.618 50.8271 268.068C53.1218 266.676 56.6138 265.158 58.9148 263.769C58.9211 263.765 58.9304 263.759 58.9367 263.756" stroke="#171717" stroke-width="0.9" stroke-linecap="round" stroke-linejoin="round"/>
<path d="M87.8645 260.798C88.3688 262.496 88.8791 263.915 88.7492 265.672C88.6913 266.615 88.4111 267.53 87.9308 268.343C87.4508 269.156 86.7845 269.843 85.9871 270.349C84.0371 271.555 81.4217 271.679 78.9908 271.75C77.9054 271.784 76.8188 271.816 75.731 271.846" stroke="#171717" stroke-width="0.9" stroke-linecap="round" stroke-linejoin="round"/>
<path d="M107.285 259.119C106.444 259.91 105.748 262.604 107.285 264.964" stroke="#171717" stroke-width="0.9" stroke-linecap="round" stroke-linejoin="round"/>
<path d="M111.425 143.294L107.932 147.001L114.7 149.583L111.425 143.294Z" stroke="#171717" stroke-width="0.9" stroke-linecap="round" stroke-linejoin="round"/>
<path d="M86.0999 155.734L90.9029 161.41L83.48 164.875L86.0999 155.734Z" stroke="#171717" stroke-width="0.9" stroke-linecap="round" stroke-linejoin="round"/>
<path d="M117.756 183.243L111.316 190.011L119.285 194.565L117.756 183.243Z" stroke="#171717" stroke-width="0.9" stroke-linecap="round" stroke-linejoin="round"/>
<path d="M89.8111 192.631L80.2666 198.525L89.8111 204.857V192.631Z" stroke="#171717" stroke-width="0.9" stroke-linecap="round" stroke-linejoin="round"/>
<path d="M85.0391 218.393H90.9029L88.7687 227.126L85.0391 218.393Z" stroke="#171717" stroke-width="0.9" stroke-linecap="round" stroke-linejoin="round"/>
<path d="M80.2663 232.147L83.4796 240.225H73.9888L80.2663 232.147Z" stroke="#171717" stroke-width="0.9" stroke-linecap="round" stroke-linejoin="round"/>
<path d="M117.756 227.126V241.317L109.023 235.87L117.756 227.126Z" stroke="#171717" stroke-width="0.9" stroke-linecap="round" stroke-linejoin="round"/>
<path d="M114.7 169.052L112.201 173.637L107.284 162.502L114.7 169.052Z" stroke="#171717" stroke-width="0.9" stroke-linecap="round" stroke-linejoin="round"/>
<path d="M31.7813 100.745L28.1401 96.9615" stroke="#171717" stroke-width="0.9" stroke-linecap="round" stroke-linejoin="round"/>
<path d="M28.0073 101.577L31.9573 96.2067" stroke="#171717" stroke-width="0.9" stroke-linecap="round" stroke-linejoin="round"/>
<path d="M22.1967 144.82C19.751 138.867 19.5425 132.229 21.6099 126.133" stroke="#171717" stroke-width="0.9" stroke-linecap="round" stroke-linejoin="round"/>
<path d="M12.3169 156.662C18.0562 158.781 22.8085 163.107 26.1979 168.2C29.5873 173.293 31.7042 179.133 33.2408 185.055C34.0808 188.292 34.7582 191.692 34.0457 194.959C33.3332 198.226 30.8957 201.329 27.5899 201.838C24.2842 202.346 20.6416 199.282 21.3556 196.015C21.8623 193.697 24.3196 192.134 26.6926 192.182C29.0656 192.229 31.259 193.616 32.7848 195.434C35.9162 199.166 36.4376 204.873 34.0343 209.111C32.0816 212.555 28.6042 214.794 25.6873 217.47C22.7704 220.146 20.1973 223.924 21.0088 227.799C21.3597 229.301 22.1861 230.649 23.3651 231.643C24.5441 232.637 26.0126 233.225 27.5521 233.317C29.0941 233.339 30.602 232.863 31.8515 231.959C33.101 231.055 34.025 229.772 34.4867 228.3C35 226.521 34.6898 224.4 33.3059 223.169C31.922 221.937 29.4025 222.066 28.4797 223.672" stroke="#171717" stroke-width="0.9" stroke-linecap="round" stroke-linejoin="round"/>
<path d="M16.5637 223.851L14.9263 218.61" stroke="#171717" stroke-width="0.9" stroke-linecap="round" stroke-linejoin="round"/>
<path d="M12.9614 222.54C14.4665 222.384 15.8634 221.685 16.8914 220.575" stroke="#171717" stroke-width="0.9" stroke-linecap="round" stroke-linejoin="round"/>
<path d="M23.4408 175.71C23.1113 174.283 22.3019 173.012 21.1479 172.11" stroke="#171717" stroke-width="0.9" stroke-linecap="round" stroke-linejoin="round"/>
<path d="M20.2305 175.13L24.8019 171.185" stroke="#171717" stroke-width="0.9" stroke-linecap="round" stroke-linejoin="round"/>
<path d="M184.638 55.4742C181.888 52.7073 179.1 49.9095 175.745 47.9196C172.39 45.9297 168.351 44.8041 164.548 45.6717" stroke="#171717" stroke-width="0.9" stroke-linecap="round" stroke-linejoin="round"/>
<path d="M202.372 70.7349C198.592 88.287 203.154 107.45 214.44 121.414C216.944 124.513 219.812 127.406 223.325 129.285C226.837 131.164 231.076 131.941 234.866 130.717C238.657 129.492 241.808 126.021 242.009 122.043C242.21 118.064 238.937 114.04 234.953 114.003C231.167 113.967 228.031 117.238 226.789 120.816C224.204 128.264 227.989 136.598 233.503 142.233C239.017 147.868 246.11 151.653 252.295 156.543C262.632 164.715 270.688 177.215 269.475 190.336C269.135 194.013 268.046 197.682 265.887 200.677C263.728 203.673 260.427 205.936 256.761 206.389C253.095 206.842 249.141 205.294 247.117 202.205C245.094 199.116 245.4 194.57 248.114 192.067C250.828 189.563 255.734 189.82 257.88 192.826C258.714 193.996 259.105 195.553 258.62 196.906C258.136 198.259 256.642 199.263 255.243 198.935" stroke="#171717" stroke-width="0.9" stroke-linecap="round" stroke-linejoin="round"/>
<path d="M229.32 109.886L228.883 105.302" stroke="#171717" stroke-width="0.9" stroke-linecap="round" stroke-linejoin="round"/>
<path d="M231.066 107.485L226.481 107.048" stroke="#171717" stroke-width="0.9" stroke-linecap="round" stroke-linejoin="round"/>
<path d="M249.842 186.445L252.291 183.946" stroke="#171717" stroke-width="0.9" stroke-linecap="round" stroke-linejoin="round"/>
<path d="M251.722 186.89L249.644 184.156" stroke="#171717" stroke-width="0.9" stroke-linecap="round" stroke-linejoin="round"/>
<path d="M159.473 121.454C160.485 124.79 160.786 128.302 160.355 131.762C159.924 135.222 158.772 138.553 156.973 141.539C155.645 143.713 153.868 145.756 151.48 146.642C149.092 147.528 146.017 146.915 144.695 144.738C143.373 142.561 144.818 139.072 147.365 139.01C148.761 138.977 150.059 139.921 150.718 141.151C151.376 142.382 151.472 143.848 151.283 145.231C151.052 146.828 150.472 148.355 149.582 149.701C148.693 151.048 147.516 152.18 146.137 153.019C144.235 154.157 141.937 154.741 140.437 156.374C139.039 157.897 138.593 160.107 138.785 162.164C138.977 164.221 139.736 166.181 140.487 168.107" stroke="#171717" stroke-width="0.9" stroke-linecap="round" stroke-linejoin="round"/>
<path d="M146.836 125.153L145.518 121.663" stroke="#171717" stroke-width="0.9" stroke-linecap="round" stroke-linejoin="round"/>
<path d="M144.417 123.912L147.687 122.371" stroke="#171717" stroke-width="0.9" stroke-linecap="round" stroke-linejoin="round"/>
<path d="M176.506 65.1293L176.572 60.9824" stroke="#171717" stroke-width="0.9" stroke-linecap="round" stroke-linejoin="round"/>
<path d="M167.097 54.4326L170.154 53.3409" stroke="#171717" stroke-width="0.9" stroke-linecap="round" stroke-linejoin="round"/>
<path d="M169.06 77.1897C167.795 77.1414 166.532 77.3367 165.34 77.7648" stroke="#171717" stroke-width="0.9" stroke-linecap="round" stroke-linejoin="round"/>
<path d="M151.171 83.6895L152.044 78.6681" stroke="#171717" stroke-width="0.9" stroke-linecap="round" stroke-linejoin="round"/>
<path d="M141.553 97.8788L138.497 96.3503" stroke="#171717" stroke-width="0.9" stroke-linecap="round" stroke-linejoin="round"/>
<path d="M125.004 88.7276C125.587 87.3998 126.632 86.3282 127.944 85.7114" stroke="#171717" stroke-width="0.9" stroke-linecap="round" stroke-linejoin="round"/>
<path d="M122.755 103.792L120.994 101.62" stroke="#171717" stroke-width="0.9" stroke-linecap="round" stroke-linejoin="round"/>
<path d="M107.488 90.4493L109.609 87.9941" stroke="#171717" stroke-width="0.9" stroke-linecap="round" stroke-linejoin="round"/>
<path d="M108.587 103.991L106.622 101.808" stroke="#171717" stroke-width="0.9" stroke-linecap="round" stroke-linejoin="round"/>
<path d="M108.162 116.666L110.778 114.042" stroke="#171717" stroke-width="0.9" stroke-linecap="round" stroke-linejoin="round"/>
<path d="M117.975 120.803L116.228 118.838" stroke="#171717" stroke-width="0.9" stroke-linecap="round" stroke-linejoin="round"/>
<path d="M74.3096 128.226L76.493 126.042" stroke="#171717" stroke-width="0.9" stroke-linecap="round" stroke-linejoin="round"/>
<path d="M75.1834 114.907L73.2188 113.816" stroke="#171717" stroke-width="0.9" stroke-linecap="round" stroke-linejoin="round"/>
<path d="M73.873 103.992L75.838 100.717" stroke="#171717" stroke-width="0.9" stroke-linecap="round" stroke-linejoin="round"/>
<path d="M68.4024 100.536C67.5906 100.257 66.9039 99.6993 66.4644 98.9619" stroke="#171717" stroke-width="0.9" stroke-linecap="round" stroke-linejoin="round"/>
<path d="M73.2188 90.8925L74.9654 88.2726" stroke="#171717" stroke-width="0.9" stroke-linecap="round" stroke-linejoin="round"/>
<path d="M37.85 127.134L35.8853 125.387" stroke="#171717" stroke-width="0.9" stroke-linecap="round" stroke-linejoin="round"/>
<path d="M29.1172 138.05C29.4234 136.897 30.0254 135.843 30.8639 134.994" stroke="#171717" stroke-width="0.9" stroke-linecap="round" stroke-linejoin="round"/>
<path d="M40.0335 147.656C39.0147 147.329 38.1072 146.724 37.4136 145.91" stroke="#171717" stroke-width="0.9" stroke-linecap="round" stroke-linejoin="round"/>
<path d="M46.583 157.262L48.3296 155.079" stroke="#171717" stroke-width="0.9" stroke-linecap="round" stroke-linejoin="round"/>
<path d="M50.4963 163.587C52.1589 159.551 52.5222 155.099 51.5358 150.847C50.5491 146.596 48.2619 142.758 44.9922 139.868" stroke="#171717" stroke-width="0.9" stroke-linecap="round" stroke-linejoin="round"/>
<path fill-rule="evenodd" clip-rule="evenodd" d="M61.5349 96.297C61.3486 94.2078 61.1668 92.1681 60.9898 90.1836C60.0661 79.8642 59.2765 71.0331 58.6894 64.4679C58.2088 59.0931 57.8641 55.2366 57.6925 53.325C57.6124 52.425 57.3337 51.5541 56.8759 50.775L44.6869 30.0771C44.5438 29.8337 44.3347 29.6359 44.0836 29.5067C43.8325 29.3775 43.5499 29.3222 43.2685 29.3474C42.9874 29.3725 42.7189 29.477 42.4948 29.6487C42.2707 29.8204 42.0997 30.0522 42.0022 30.3171L33.0922 54.5439C32.7754 55.4022 32.6701 56.3241 32.7859 57.2316L38.8327 106.304L42.9055 139.346L43.1593 139.316C46.8277 139.336 50.3587 140.716 53.0689 143.188C53.14 141.181 53.6287 134.918 54.4948 133.108C54.6919 132.694 54.9703 132.242 55.4248 132.165C55.6246 132.149 55.8247 132.191 56.0011 132.287C56.1772 132.382 56.3221 132.527 56.4175 132.703C56.6044 133.057 56.7193 133.444 56.7547 133.843C57.0439 135.702 57.334 137.561 57.6247 139.42C59.5345 138.409 61.5151 137.537 63.5509 136.812C64.0495 136.607 64.5778 136.484 65.1157 136.447L65.1064 136.302C64.5469 130.024 63.9955 123.857 63.4624 117.895C63.3412 116.542 63.2212 115.2 63.1024 113.869C62.5543 107.732 62.029 101.84 61.5349 96.297ZM54.8368 52.0938C55.0846 52.0761 55.2712 51.8607 55.2538 51.6129C55.2361 51.3651 55.021 51.1782 54.7729 51.1959C48.0982 51.6702 41.4655 52.6146 34.9237 54.0228C34.6807 54.075 34.5262 54.3144 34.5784 54.5574C34.6306 54.8004 34.87 54.9549 35.113 54.9027C41.6134 53.5035 48.2044 52.5648 54.8368 52.0938Z" fill="#171717"/>
<g opacity="0.1">
<path d="M75.9647 242.693C77.6147 235.849 78.2126 228.87 78.932 221.876C79.6457 214.935 80.2781 207.97 80.7245 201.007C81.6158 187.106 82.1438 173.18 82.175 159.25C82.193 151.361 82.0445 143.474 81.7295 135.59C81.5753 131.748 75.5795 131.729 75.7391 135.59C76.8857 163.287 75.7412 191.011 73.6883 218.64C73.1051 226.49 72.2114 234.342 72.4283 242.215C72.4829 244.19 75.4745 244.726 75.9641 242.693H75.9647Z" fill="#171717"/>
</g>
<g opacity="0.1">
<path d="M99.0575 145.834C98.7401 149.696 99.0251 153.588 99.1496 157.459C99.2741 161.335 99.5225 165.209 99.7307 169.082C100.137 176.631 100.567 184.178 101.021 191.725C101.941 207.017 102.965 222.302 104.094 237.58C104.738 246.305 105.526 255.029 106.031 263.764C106.123 265.371 107.334 266.745 109.012 266.745C110.493 266.745 112.162 265.375 111.993 263.764C110.365 248.338 109.453 232.809 108.38 217.337C107.32 202.052 106.348 186.762 105.465 171.467C105.214 167.097 105.019 162.722 104.729 158.355C104.438 153.978 104.288 149.552 103.505 145.234C103.021 142.567 99.2534 143.455 99.0575 145.836V145.834Z" fill="#171717"/>
</g>
<g opacity="0.1">
<path d="M79.3064 82.1403C74.4605 82.8201 69.7811 85.0236 65.4569 87.2265C61.2938 89.3925 57.2675 91.8117 53.4002 94.4703C45.7631 99.6303 38.684 105.674 33.2531 113.173C27.9287 120.525 24.4997 129.943 24.6986 139.08C24.8861 147.708 28.2791 157.107 35.8724 161.893C37.7615 163.097 39.8885 163.878 42.1076 164.183C44.3267 164.488 46.5854 164.31 48.7292 163.661C52.2287 162.562 58.901 158.411 56.1578 154.022C55.9343 153.655 55.5992 153.371 55.202 153.209C54.8048 153.047 54.3662 153.017 53.9504 153.123C53.0717 153.357 52.376 153.573 51.7334 154.288C51.2075 154.871 50.9099 155.504 50.3681 156.051C49.37 157.023 48.1373 157.721 46.7897 158.076C43.9553 158.871 41.1653 158.301 38.6681 156.677C32.7302 152.814 30.5498 144.788 30.5981 138.103C30.7163 121.646 42.2681 108.718 55.0331 99.7458C58.8485 97.0602 62.8052 94.581 66.8855 92.3187C71.27 89.892 75.8036 88.0932 80.4296 86.2059C82.9646 85.1718 82.0052 81.7593 79.3082 82.1379L79.3064 82.1403Z" fill="#171717"/>
</g>
<g opacity="0.1">
<path d="M71.7524 111.698C69.8711 111.755 69.224 113.814 68.6423 115.292C67.9571 117.168 67.6217 119.154 67.6523 121.15C67.6646 123.089 67.9355 125.017 68.4581 126.884C68.9549 128.725 69.6203 131.278 71.1821 132.486C72.1259 133.216 73.1711 133.601 74.3465 133.086C75.3428 132.648 76.2026 131.594 76.1273 130.438C76.0073 128.608 74.9465 126.988 74.4212 125.241C73.9508 123.665 73.6529 122.043 73.5326 120.403C73.4099 118.759 73.379 117.098 73.4012 115.45C73.4174 114.256 73.6988 111.64 71.7512 111.7L71.7524 111.698Z" fill="#171717"/>
</g>
</g>
<defs>
<linearGradient id="paint0_linear_28_12844" x1="98.7157" y1="127.206" x2="98.7157" y2="261.584" gradientUnits="userSpaceOnUse">
<stop stop-color="#FF9A34"/>
<stop offset="1" stop-color="#EB6421"/>
</linearGradient>
</defs>
</svg>
