<svg width="1381" height="1228" viewBox="0 0 1381 1228" fill="none" xmlns="http://www.w3.org/2000/svg">
<g style="mix-blend-mode:difference" opacity="0.16">
<mask id="path-1-inside-1_28_3038" fill="white">
<path d="M0 0H51.1481V51.1667H0V0Z"/>
<path d="M0 614H51.1481V665.167H0V614Z"/>
<path d="M562.63 0H613.778V51.1667H562.63V0Z"/>
<path d="M562.63 614H613.778V665.167H562.63V614Z"/>
<path d="M1125.26 0H1176.41V51.1667H1125.26V0Z"/>
<path d="M1125.26 614H1176.41V665.167H1125.26V614Z"/>
<path d="M51.1481 0H102.296V51.1667H51.1481V0Z"/>
<path d="M51.1481 614H102.296V665.167H51.1481V614Z"/>
<path d="M613.778 0H664.926V51.1667H613.778V0Z"/>
<path d="M613.778 614H664.926V665.167H613.778V614Z"/>
<path d="M1176.41 0H1227.56V51.1667H1176.41V0Z"/>
<path d="M1176.41 614H1227.56V665.167H1176.41V614Z"/>
<path d="M102.296 0H153.444V51.1667H102.296V0Z"/>
<path d="M102.296 614H153.444V665.167H102.296V614Z"/>
<path d="M664.926 0H716.074V51.1667H664.926V0Z"/>
<path d="M664.926 614H716.074V665.167H664.926V614Z"/>
<path d="M1227.56 0H1278.7V51.1667H1227.56V0Z"/>
<path d="M1227.56 614H1278.7V665.167H1227.56V614Z"/>
<path d="M153.444 0H204.593V51.1667H153.444V0Z"/>
<path d="M153.444 614H204.593V665.167H153.444V614Z"/>
<path d="M716.074 0H767.222V51.1667H716.074V0Z"/>
<path d="M716.074 614H767.222V665.167H716.074V614Z"/>
<path d="M1278.7 0H1329.85V51.1667H1278.7V0Z"/>
<path d="M1278.7 614H1329.85V665.167H1278.7V614Z"/>
<path d="M204.593 0H255.741V51.1667H204.593V0Z"/>
<path d="M204.593 614H255.741V665.167H204.593V614Z"/>
<path d="M767.222 0H818.37V51.1667H767.222V0Z"/>
<path d="M767.222 614H818.37V665.167H767.222V614Z"/>
<path d="M1329.85 0H1381V51.1667H1329.85V0Z"/>
<path d="M1329.85 614H1381V665.167H1329.85V614Z"/>
<path d="M255.741 0H306.889V51.1667H255.741V0Z"/>
<path d="M255.741 614H306.889V665.167H255.741V614Z"/>
<path d="M818.37 0H869.518V51.1667H818.37V0Z"/>
<path d="M818.37 614H869.518V665.167H818.37V614Z"/>
<path d="M306.889 0H358.037V51.1667H306.889V0Z"/>
<path d="M306.889 614H358.037V665.167H306.889V614Z"/>
<path d="M869.518 0H920.667V51.1667H869.518V0Z"/>
<path d="M869.518 614H920.667V665.167H869.518V614Z"/>
<path d="M358.037 0H409.185V51.1667H358.037V0Z"/>
<path d="M358.037 614H409.185V665.167H358.037V614Z"/>
<path d="M920.667 0H971.815V51.1667H920.667V0Z"/>
<path d="M920.667 614H971.815V665.167H920.667V614Z"/>
<path d="M409.185 0H460.333V51.1667H409.185V0Z"/>
<path d="M409.185 614H460.333V665.167H409.185V614Z"/>
<path d="M971.815 0H1022.96V51.1667H971.815V0Z"/>
<path d="M971.815 614H1022.96V665.167H971.815V614Z"/>
<path d="M460.333 0H511.481V51.1667H460.333V0Z"/>
<path d="M460.333 614H511.481V665.167H460.333V614Z"/>
<path d="M1022.96 0H1074.11V51.1667H1022.96V0Z"/>
<path d="M1022.96 614H1074.11V665.167H1022.96V614Z"/>
<path d="M511.481 0H562.63V51.1667H511.481V0Z"/>
<path d="M511.481 614H562.63V665.167H511.481V614Z"/>
<path d="M1074.11 0H1125.26V51.1667H1074.11V0Z"/>
<path d="M1074.11 614H1125.26V665.167H1074.11V614Z"/>
<path d="M0 51.1667H51.1481V102.333H0V51.1667Z"/>
<path d="M0 665.167H51.1481V716.333H0V665.167Z"/>
<path d="M562.63 51.1667H613.778V102.333H562.63V51.1667Z"/>
<path d="M562.63 665.167H613.778V716.333H562.63V665.167Z"/>
<path d="M1125.26 51.1667H1176.41V102.333H1125.26V51.1667Z"/>
<path d="M1125.26 665.167H1176.41V716.333H1125.26V665.167Z"/>
<path d="M0 102.333H51.1481V153.5H0V102.333Z"/>
<path d="M0 716.333H51.1481V767.5H0V716.333Z"/>
<path d="M562.63 102.333H613.778V153.5H562.63V102.333Z"/>
<path d="M562.63 716.333H613.778V767.5H562.63V716.333Z"/>
<path d="M1125.26 102.333H1176.41V153.5H1125.26V102.333Z"/>
<path d="M1125.26 716.333H1176.41V767.5H1125.26V716.333Z"/>
<path d="M0 153.5H51.1481V204.667H0V153.5Z"/>
<path d="M0 767.5H51.1481V818.667H0V767.5Z"/>
<path d="M562.63 153.5H613.778V204.667H562.63V153.5Z"/>
<path d="M562.63 767.5H613.778V818.667H562.63V767.5Z"/>
<path d="M1125.26 153.5H1176.41V204.667H1125.26V153.5Z"/>
<path d="M1125.26 767.5H1176.41V818.667H1125.26V767.5Z"/>
<path d="M0 204.667H51.1481V255.833H0V204.667Z"/>
<path d="M0 818.667H51.1481V869.833H0V818.667Z"/>
<path d="M562.63 204.667H613.778V255.833H562.63V204.667Z"/>
<path d="M562.63 818.667H613.778V869.833H562.63V818.667Z"/>
<path d="M1125.26 204.667H1176.41V255.833H1125.26V204.667Z"/>
<path d="M1125.26 818.667H1176.41V869.833H1125.26V818.667Z"/>
<path d="M0 255.833H51.1481V307H0V255.833Z"/>
<path d="M0 869.833H51.1481V921H0V869.833Z"/>
<path d="M562.63 255.833H613.778V307H562.63V255.833Z"/>
<path d="M562.63 869.833H613.778V921H562.63V869.833Z"/>
<path d="M1125.26 255.833H1176.41V307H1125.26V255.833Z"/>
<path d="M1125.26 869.833H1176.41V921H1125.26V869.833Z"/>
<path d="M0 307H51.1481V358.167H0V307Z"/>
<path d="M0 921H51.1481V972.167H0V921Z"/>
<path d="M562.63 307H613.778V358.167H562.63V307Z"/>
<path d="M562.63 921H613.778V972.167H562.63V921Z"/>
<path d="M1125.26 307H1176.41V358.167H1125.26V307Z"/>
<path d="M1125.26 921H1176.41V972.167H1125.26V921Z"/>
<path d="M0 358.167H51.1481V409.333H0V358.167Z"/>
<path d="M0 972.167H51.1481V1023.33H0V972.167Z"/>
<path d="M562.63 358.167H613.778V409.333H562.63V358.167Z"/>
<path d="M562.63 972.167H613.778V1023.33H562.63V972.167Z"/>
<path d="M1125.26 358.167H1176.41V409.333H1125.26V358.167Z"/>
<path d="M1125.26 972.167H1176.41V1023.33H1125.26V972.167Z"/>
<path d="M0 409.333H51.1481V460.5H0V409.333Z"/>
<path d="M0 1023.33H51.1481V1074.5H0V1023.33Z"/>
<path d="M562.63 409.333H613.778V460.5H562.63V409.333Z"/>
<path d="M562.63 1023.33H613.778V1074.5H562.63V1023.33Z"/>
<path d="M1125.26 409.333H1176.41V460.5H1125.26V409.333Z"/>
<path d="M1125.26 1023.33H1176.41V1074.5H1125.26V1023.33Z"/>
<path d="M0 460.5H51.1481V511.667H0V460.5Z"/>
<path d="M0 1074.5H51.1481V1125.67H0V1074.5Z"/>
<path d="M562.63 460.5H613.778V511.667H562.63V460.5Z"/>
<path d="M562.63 1074.5H613.778V1125.67H562.63V1074.5Z"/>
<path d="M1125.26 460.5H1176.41V511.667H1125.26V460.5Z"/>
<path d="M1125.26 1074.5H1176.41V1125.67H1125.26V1074.5Z"/>
<path d="M0 511.667H51.1481V562.833H0V511.667Z"/>
<path d="M0 1125.67H51.1481V1176.83H0V1125.67Z"/>
<path d="M562.63 511.667H613.778V562.833H562.63V511.667Z"/>
<path d="M562.63 1125.67H613.778V1176.83H562.63V1125.67Z"/>
<path d="M1125.26 511.667H1176.41V562.833H1125.26V511.667Z"/>
<path d="M1125.26 1125.67H1176.41V1176.83H1125.26V1125.67Z"/>
<path d="M0 562.833H51.1481V614H0V562.833Z"/>
<path d="M0 1176.83H51.1481V1228H0V1176.83Z"/>
<path d="M562.63 562.833H613.778V614H562.63V562.833Z"/>
<path d="M562.63 1176.83H613.778V1228H562.63V1176.83Z"/>
<path d="M1125.26 562.833H1176.41V614H1125.26V562.833Z"/>
<path d="M1125.26 1176.83H1176.41V1228H1125.26V1176.83Z"/>
<path d="M51.1481 51.1667H102.296V102.333H51.1481V51.1667Z"/>
<path d="M51.1481 665.167H102.296V716.333H51.1481V665.167Z"/>
<path d="M613.778 51.1667H664.926V102.333H613.778V51.1667Z"/>
<path d="M613.778 665.167H664.926V716.333H613.778V665.167Z"/>
<path d="M1176.41 51.1667H1227.56V102.333H1176.41V51.1667Z"/>
<path d="M1176.41 665.167H1227.56V716.333H1176.41V665.167Z"/>
<path d="M51.1481 102.333H102.296V153.5H51.1481V102.333Z"/>
<path d="M51.1481 716.333H102.296V767.5H51.1481V716.333Z"/>
<path d="M613.778 102.333H664.926V153.5H613.778V102.333Z"/>
<path d="M613.778 716.333H664.926V767.5H613.778V716.333Z"/>
<path d="M1176.41 102.333H1227.56V153.5H1176.41V102.333Z"/>
<path d="M1176.41 716.333H1227.56V767.5H1176.41V716.333Z"/>
<path d="M51.1481 153.5H102.296V204.667H51.1481V153.5Z"/>
<path d="M51.1481 767.5H102.296V818.667H51.1481V767.5Z"/>
<path d="M613.778 153.5H664.926V204.667H613.778V153.5Z"/>
<path d="M613.778 767.5H664.926V818.667H613.778V767.5Z"/>
<path d="M1176.41 153.5H1227.56V204.667H1176.41V153.5Z"/>
<path d="M1176.41 767.5H1227.56V818.667H1176.41V767.5Z"/>
<path d="M51.1481 204.667H102.296V255.833H51.1481V204.667Z"/>
<path d="M51.1481 818.667H102.296V869.833H51.1481V818.667Z"/>
<path d="M613.778 204.667H664.926V255.833H613.778V204.667Z"/>
<path d="M613.778 818.667H664.926V869.833H613.778V818.667Z"/>
<path d="M1176.41 204.667H1227.56V255.833H1176.41V204.667Z"/>
<path d="M1176.41 818.667H1227.56V869.833H1176.41V818.667Z"/>
<path d="M51.1481 255.833H102.296V307H51.1481V255.833Z"/>
<path d="M51.1481 869.833H102.296V921H51.1481V869.833Z"/>
<path d="M613.778 255.833H664.926V307H613.778V255.833Z"/>
<path d="M613.778 869.833H664.926V921H613.778V869.833Z"/>
<path d="M1176.41 255.833H1227.56V307H1176.41V255.833Z"/>
<path d="M1176.41 869.833H1227.56V921H1176.41V869.833Z"/>
<path d="M51.1481 307H102.296V358.167H51.1481V307Z"/>
<path d="M51.1481 921H102.296V972.167H51.1481V921Z"/>
<path d="M613.778 307H664.926V358.167H613.778V307Z"/>
<path d="M613.778 921H664.926V972.167H613.778V921Z"/>
<path d="M1176.41 307H1227.56V358.167H1176.41V307Z"/>
<path d="M1176.41 921H1227.56V972.167H1176.41V921Z"/>
<path d="M51.1481 358.167H102.296V409.333H51.1481V358.167Z"/>
<path d="M51.1481 972.167H102.296V1023.33H51.1481V972.167Z"/>
<path d="M613.778 358.167H664.926V409.333H613.778V358.167Z"/>
<path d="M613.778 972.167H664.926V1023.33H613.778V972.167Z"/>
<path d="M1176.41 358.167H1227.56V409.333H1176.41V358.167Z"/>
<path d="M1176.41 972.167H1227.56V1023.33H1176.41V972.167Z"/>
<path d="M51.1481 409.333H102.296V460.5H51.1481V409.333Z"/>
<path d="M51.1481 1023.33H102.296V1074.5H51.1481V1023.33Z"/>
<path d="M613.778 409.333H664.926V460.5H613.778V409.333Z"/>
<path d="M613.778 1023.33H664.926V1074.5H613.778V1023.33Z"/>
<path d="M1176.41 409.333H1227.56V460.5H1176.41V409.333Z"/>
<path d="M1176.41 1023.33H1227.56V1074.5H1176.41V1023.33Z"/>
<path d="M51.1481 460.5H102.296V511.667H51.1481V460.5Z"/>
<path d="M51.1481 1074.5H102.296V1125.67H51.1481V1074.5Z"/>
<path d="M613.778 460.5H664.926V511.667H613.778V460.5Z"/>
<path d="M613.778 1074.5H664.926V1125.67H613.778V1074.5Z"/>
<path d="M1176.41 460.5H1227.56V511.667H1176.41V460.5Z"/>
<path d="M1176.41 1074.5H1227.56V1125.67H1176.41V1074.5Z"/>
<path d="M51.1481 511.667H102.296V562.833H51.1481V511.667Z"/>
<path d="M51.1481 1125.67H102.296V1176.83H51.1481V1125.67Z"/>
<path d="M613.778 511.667H664.926V562.833H613.778V511.667Z"/>
<path d="M613.778 1125.67H664.926V1176.83H613.778V1125.67Z"/>
<path d="M1176.41 511.667H1227.56V562.833H1176.41V511.667Z"/>
<path d="M1176.41 1125.67H1227.56V1176.83H1176.41V1125.67Z"/>
<path d="M51.1481 562.833H102.296V614H51.1481V562.833Z"/>
<path d="M51.1481 1176.83H102.296V1228H51.1481V1176.83Z"/>
<path d="M613.778 562.833H664.926V614H613.778V562.833Z"/>
<path d="M613.778 1176.83H664.926V1228H613.778V1176.83Z"/>
<path d="M1176.41 562.833H1227.56V614H1176.41V562.833Z"/>
<path d="M1176.41 1176.83H1227.56V1228H1176.41V1176.83Z"/>
<path d="M102.296 51.1667H153.444V102.333H102.296V51.1667Z"/>
<path d="M102.296 665.167H153.444V716.333H102.296V665.167Z"/>
<path d="M664.926 51.1667H716.074V102.333H664.926V51.1667Z"/>
<path d="M664.926 665.167H716.074V716.333H664.926V665.167Z"/>
<path d="M1227.56 51.1667H1278.7V102.333H1227.56V51.1667Z"/>
<path d="M1227.56 665.167H1278.7V716.333H1227.56V665.167Z"/>
<path d="M102.296 102.333H153.444V153.5H102.296V102.333Z"/>
<path d="M102.296 716.333H153.444V767.5H102.296V716.333Z"/>
<path d="M664.926 102.333H716.074V153.5H664.926V102.333Z"/>
<path d="M664.926 716.333H716.074V767.5H664.926V716.333Z"/>
<path d="M1227.56 102.333H1278.7V153.5H1227.56V102.333Z"/>
<path d="M1227.56 716.333H1278.7V767.5H1227.56V716.333Z"/>
<path d="M102.296 153.5H153.444V204.667H102.296V153.5Z"/>
<path d="M102.296 767.5H153.444V818.667H102.296V767.5Z"/>
<path d="M664.926 153.5H716.074V204.667H664.926V153.5Z"/>
<path d="M664.926 767.5H716.074V818.667H664.926V767.5Z"/>
<path d="M1227.56 153.5H1278.7V204.667H1227.56V153.5Z"/>
<path d="M1227.56 767.5H1278.7V818.667H1227.56V767.5Z"/>
<path d="M102.296 204.667H153.444V255.833H102.296V204.667Z"/>
<path d="M102.296 818.667H153.444V869.833H102.296V818.667Z"/>
<path d="M664.926 204.667H716.074V255.833H664.926V204.667Z"/>
<path d="M664.926 818.667H716.074V869.833H664.926V818.667Z"/>
<path d="M1227.56 204.667H1278.7V255.833H1227.56V204.667Z"/>
<path d="M1227.56 818.667H1278.7V869.833H1227.56V818.667Z"/>
<path d="M102.296 255.833H153.444V307H102.296V255.833Z"/>
<path d="M102.296 869.833H153.444V921H102.296V869.833Z"/>
<path d="M664.926 255.833H716.074V307H664.926V255.833Z"/>
<path d="M664.926 869.833H716.074V921H664.926V869.833Z"/>
<path d="M1227.56 255.833H1278.7V307H1227.56V255.833Z"/>
<path d="M1227.56 869.833H1278.7V921H1227.56V869.833Z"/>
<path d="M102.296 307H153.444V358.167H102.296V307Z"/>
<path d="M102.296 921H153.444V972.167H102.296V921Z"/>
<path d="M664.926 307H716.074V358.167H664.926V307Z"/>
<path d="M664.926 921H716.074V972.167H664.926V921Z"/>
<path d="M1227.56 307H1278.7V358.167H1227.56V307Z"/>
<path d="M1227.56 921H1278.7V972.167H1227.56V921Z"/>
<path d="M102.296 358.167H153.444V409.333H102.296V358.167Z"/>
<path d="M102.296 972.167H153.444V1023.33H102.296V972.167Z"/>
<path d="M664.926 358.167H716.074V409.333H664.926V358.167Z"/>
<path d="M664.926 972.167H716.074V1023.33H664.926V972.167Z"/>
<path d="M1227.56 358.167H1278.7V409.333H1227.56V358.167Z"/>
<path d="M1227.56 972.167H1278.7V1023.33H1227.56V972.167Z"/>
<path d="M102.296 409.333H153.444V460.5H102.296V409.333Z"/>
<path d="M102.296 1023.33H153.444V1074.5H102.296V1023.33Z"/>
<path d="M664.926 409.333H716.074V460.5H664.926V409.333Z"/>
<path d="M664.926 1023.33H716.074V1074.5H664.926V1023.33Z"/>
<path d="M1227.56 409.333H1278.7V460.5H1227.56V409.333Z"/>
<path d="M1227.56 1023.33H1278.7V1074.5H1227.56V1023.33Z"/>
<path d="M102.296 460.5H153.444V511.667H102.296V460.5Z"/>
<path d="M102.296 1074.5H153.444V1125.67H102.296V1074.5Z"/>
<path d="M664.926 460.5H716.074V511.667H664.926V460.5Z"/>
<path d="M664.926 1074.5H716.074V1125.67H664.926V1074.5Z"/>
<path d="M1227.56 460.5H1278.7V511.667H1227.56V460.5Z"/>
<path d="M1227.56 1074.5H1278.7V1125.67H1227.56V1074.5Z"/>
<path d="M102.296 511.667H153.444V562.833H102.296V511.667Z"/>
<path d="M102.296 1125.67H153.444V1176.83H102.296V1125.67Z"/>
<path d="M664.926 511.667H716.074V562.833H664.926V511.667Z"/>
<path d="M664.926 1125.67H716.074V1176.83H664.926V1125.67Z"/>
<path d="M1227.56 511.667H1278.7V562.833H1227.56V511.667Z"/>
<path d="M1227.56 1125.67H1278.7V1176.83H1227.56V1125.67Z"/>
<path d="M102.296 562.833H153.444V614H102.296V562.833Z"/>
<path d="M102.296 1176.83H153.444V1228H102.296V1176.83Z"/>
<path d="M664.926 562.833H716.074V614H664.926V562.833Z"/>
<path d="M664.926 1176.83H716.074V1228H664.926V1176.83Z"/>
<path d="M1227.56 562.833H1278.7V614H1227.56V562.833Z"/>
<path d="M1227.56 1176.83H1278.7V1228H1227.56V1176.83Z"/>
<path d="M153.444 51.1667H204.593V102.333H153.444V51.1667Z"/>
<path d="M153.444 665.167H204.593V716.333H153.444V665.167Z"/>
<path d="M716.074 51.1667H767.222V102.333H716.074V51.1667Z"/>
<path d="M716.074 665.167H767.222V716.333H716.074V665.167Z"/>
<path d="M1278.7 51.1667H1329.85V102.333H1278.7V51.1667Z"/>
<path d="M1278.7 665.167H1329.85V716.333H1278.7V665.167Z"/>
<path d="M153.444 102.333H204.593V153.5H153.444V102.333Z"/>
<path d="M153.444 716.333H204.593V767.5H153.444V716.333Z"/>
<path d="M716.074 102.333H767.222V153.5H716.074V102.333Z"/>
<path d="M716.074 716.333H767.222V767.5H716.074V716.333Z"/>
<path d="M1278.7 102.333H1329.85V153.5H1278.7V102.333Z"/>
<path d="M1278.7 716.333H1329.85V767.5H1278.7V716.333Z"/>
<path d="M153.444 153.5H204.593V204.667H153.444V153.5Z"/>
<path d="M153.444 767.5H204.593V818.667H153.444V767.5Z"/>
<path d="M716.074 153.5H767.222V204.667H716.074V153.5Z"/>
<path d="M716.074 767.5H767.222V818.667H716.074V767.5Z"/>
<path d="M1278.7 153.5H1329.85V204.667H1278.7V153.5Z"/>
<path d="M1278.7 767.5H1329.85V818.667H1278.7V767.5Z"/>
<path d="M153.444 204.667H204.593V255.833H153.444V204.667Z"/>
<path d="M153.444 818.667H204.593V869.833H153.444V818.667Z"/>
<path d="M716.074 204.667H767.222V255.833H716.074V204.667Z"/>
<path d="M716.074 818.667H767.222V869.833H716.074V818.667Z"/>
<path d="M1278.7 204.667H1329.85V255.833H1278.7V204.667Z"/>
<path d="M1278.7 818.667H1329.85V869.833H1278.7V818.667Z"/>
<path d="M153.444 255.833H204.593V307H153.444V255.833Z"/>
<path d="M153.444 869.833H204.593V921H153.444V869.833Z"/>
<path d="M716.074 255.833H767.222V307H716.074V255.833Z"/>
<path d="M716.074 869.833H767.222V921H716.074V869.833Z"/>
<path d="M1278.7 255.833H1329.85V307H1278.7V255.833Z"/>
<path d="M1278.7 869.833H1329.85V921H1278.7V869.833Z"/>
<path d="M153.444 307H204.593V358.167H153.444V307Z"/>
<path d="M153.444 921H204.593V972.167H153.444V921Z"/>
<path d="M716.074 307H767.222V358.167H716.074V307Z"/>
<path d="M716.074 921H767.222V972.167H716.074V921Z"/>
<path d="M1278.7 307H1329.85V358.167H1278.7V307Z"/>
<path d="M1278.7 921H1329.85V972.167H1278.7V921Z"/>
<path d="M153.444 358.167H204.593V409.333H153.444V358.167Z"/>
<path d="M153.444 972.167H204.593V1023.33H153.444V972.167Z"/>
<path d="M716.074 358.167H767.222V409.333H716.074V358.167Z"/>
<path d="M716.074 972.167H767.222V1023.33H716.074V972.167Z"/>
<path d="M1278.7 358.167H1329.85V409.333H1278.7V358.167Z"/>
<path d="M1278.7 972.167H1329.85V1023.33H1278.7V972.167Z"/>
<path d="M153.444 409.333H204.593V460.5H153.444V409.333Z"/>
<path d="M153.444 1023.33H204.593V1074.5H153.444V1023.33Z"/>
<path d="M716.074 409.333H767.222V460.5H716.074V409.333Z"/>
<path d="M716.074 1023.33H767.222V1074.5H716.074V1023.33Z"/>
<path d="M1278.7 409.333H1329.85V460.5H1278.7V409.333Z"/>
<path d="M1278.7 1023.33H1329.85V1074.5H1278.7V1023.33Z"/>
<path d="M153.444 460.5H204.593V511.667H153.444V460.5Z"/>
<path d="M153.444 1074.5H204.593V1125.67H153.444V1074.5Z"/>
<path d="M716.074 460.5H767.222V511.667H716.074V460.5Z"/>
<path d="M716.074 1074.5H767.222V1125.67H716.074V1074.5Z"/>
<path d="M1278.7 460.5H1329.85V511.667H1278.7V460.5Z"/>
<path d="M1278.7 1074.5H1329.85V1125.67H1278.7V1074.5Z"/>
<path d="M153.444 511.667H204.593V562.833H153.444V511.667Z"/>
<path d="M153.444 1125.67H204.593V1176.83H153.444V1125.67Z"/>
<path d="M716.074 511.667H767.222V562.833H716.074V511.667Z"/>
<path d="M716.074 1125.67H767.222V1176.83H716.074V1125.67Z"/>
<path d="M1278.7 511.667H1329.85V562.833H1278.7V511.667Z"/>
<path d="M1278.7 1125.67H1329.85V1176.83H1278.7V1125.67Z"/>
<path d="M153.444 562.833H204.593V614H153.444V562.833Z"/>
<path d="M153.444 1176.83H204.593V1228H153.444V1176.83Z"/>
<path d="M716.074 562.833H767.222V614H716.074V562.833Z"/>
<path d="M716.074 1176.83H767.222V1228H716.074V1176.83Z"/>
<path d="M1278.7 562.833H1329.85V614H1278.7V562.833Z"/>
<path d="M1278.7 1176.83H1329.85V1228H1278.7V1176.83Z"/>
<path d="M204.593 51.1667H255.741V102.333H204.593V51.1667Z"/>
<path d="M204.593 665.167H255.741V716.333H204.593V665.167Z"/>
<path d="M767.222 51.1667H818.37V102.333H767.222V51.1667Z"/>
<path d="M767.222 665.167H818.37V716.333H767.222V665.167Z"/>
<path d="M1329.85 51.1667H1381V102.333H1329.85V51.1667Z"/>
<path d="M1329.85 665.167H1381V716.333H1329.85V665.167Z"/>
<path d="M204.593 102.333H255.741V153.5H204.593V102.333Z"/>
<path d="M204.593 716.333H255.741V767.5H204.593V716.333Z"/>
<path d="M767.222 102.333H818.37V153.5H767.222V102.333Z"/>
<path d="M767.222 716.333H818.37V767.5H767.222V716.333Z"/>
<path d="M1329.85 102.333H1381V153.5H1329.85V102.333Z"/>
<path d="M1329.85 716.333H1381V767.5H1329.85V716.333Z"/>
<path d="M204.593 153.5H255.741V204.667H204.593V153.5Z"/>
<path d="M204.593 767.5H255.741V818.667H204.593V767.5Z"/>
<path d="M767.222 153.5H818.37V204.667H767.222V153.5Z"/>
<path d="M767.222 767.5H818.37V818.667H767.222V767.5Z"/>
<path d="M1329.85 153.5H1381V204.667H1329.85V153.5Z"/>
<path d="M1329.85 767.5H1381V818.667H1329.85V767.5Z"/>
<path d="M204.593 204.667H255.741V255.833H204.593V204.667Z"/>
<path d="M204.593 818.667H255.741V869.833H204.593V818.667Z"/>
<path d="M767.222 204.667H818.37V255.833H767.222V204.667Z"/>
<path d="M767.222 818.667H818.37V869.833H767.222V818.667Z"/>
<path d="M1329.85 204.667H1381V255.833H1329.85V204.667Z"/>
<path d="M1329.85 818.667H1381V869.833H1329.85V818.667Z"/>
<path d="M204.593 255.833H255.741V307H204.593V255.833Z"/>
<path d="M204.593 869.833H255.741V921H204.593V869.833Z"/>
<path d="M767.222 255.833H818.37V307H767.222V255.833Z"/>
<path d="M767.222 869.833H818.37V921H767.222V869.833Z"/>
<path d="M1329.85 255.833H1381V307H1329.85V255.833Z"/>
<path d="M1329.85 869.833H1381V921H1329.85V869.833Z"/>
<path d="M204.593 307H255.741V358.167H204.593V307Z"/>
<path d="M204.593 921H255.741V972.167H204.593V921Z"/>
<path d="M767.222 307H818.37V358.167H767.222V307Z"/>
<path d="M767.222 921H818.37V972.167H767.222V921Z"/>
<path d="M1329.85 307H1381V358.167H1329.85V307Z"/>
<path d="M1329.85 921H1381V972.167H1329.85V921Z"/>
<path d="M204.593 358.167H255.741V409.333H204.593V358.167Z"/>
<path d="M204.593 972.167H255.741V1023.33H204.593V972.167Z"/>
<path d="M767.222 358.167H818.37V409.333H767.222V358.167Z"/>
<path d="M767.222 972.167H818.37V1023.33H767.222V972.167Z"/>
<path d="M1329.85 358.167H1381V409.333H1329.85V358.167Z"/>
<path d="M1329.85 972.167H1381V1023.33H1329.85V972.167Z"/>
<path d="M204.593 409.333H255.741V460.5H204.593V409.333Z"/>
<path d="M204.593 1023.33H255.741V1074.5H204.593V1023.33Z"/>
<path d="M767.222 409.333H818.37V460.5H767.222V409.333Z"/>
<path d="M767.222 1023.33H818.37V1074.5H767.222V1023.33Z"/>
<path d="M1329.85 409.333H1381V460.5H1329.85V409.333Z"/>
<path d="M1329.85 1023.33H1381V1074.5H1329.85V1023.33Z"/>
<path d="M204.593 460.5H255.741V511.667H204.593V460.5Z"/>
<path d="M204.593 1074.5H255.741V1125.67H204.593V1074.5Z"/>
<path d="M767.222 460.5H818.37V511.667H767.222V460.5Z"/>
<path d="M767.222 1074.5H818.37V1125.67H767.222V1074.5Z"/>
<path d="M1329.85 460.5H1381V511.667H1329.85V460.5Z"/>
<path d="M1329.85 1074.5H1381V1125.67H1329.85V1074.5Z"/>
<path d="M204.593 511.667H255.741V562.833H204.593V511.667Z"/>
<path d="M204.593 1125.67H255.741V1176.83H204.593V1125.67Z"/>
<path d="M767.222 511.667H818.37V562.833H767.222V511.667Z"/>
<path d="M767.222 1125.67H818.37V1176.83H767.222V1125.67Z"/>
<path d="M1329.85 511.667H1381V562.833H1329.85V511.667Z"/>
<path d="M1329.85 1125.67H1381V1176.83H1329.85V1125.67Z"/>
<path d="M204.593 562.833H255.741V614H204.593V562.833Z"/>
<path d="M204.593 1176.83H255.741V1228H204.593V1176.83Z"/>
<path d="M767.222 562.833H818.37V614H767.222V562.833Z"/>
<path d="M767.222 1176.83H818.37V1228H767.222V1176.83Z"/>
<path d="M1329.85 562.833H1381V614H1329.85V562.833Z"/>
<path d="M1329.85 1176.83H1381V1228H1329.85V1176.83Z"/>
<path d="M255.741 51.1667H306.889V102.333H255.741V51.1667Z"/>
<path d="M255.741 665.167H306.889V716.333H255.741V665.167Z"/>
<path d="M818.37 51.1667H869.518V102.333H818.37V51.1667Z"/>
<path d="M818.37 665.167H869.518V716.333H818.37V665.167Z"/>
<path d="M255.741 102.333H306.889V153.5H255.741V102.333Z"/>
<path d="M255.741 716.333H306.889V767.5H255.741V716.333Z"/>
<path d="M818.37 102.333H869.518V153.5H818.37V102.333Z"/>
<path d="M818.37 716.333H869.518V767.5H818.37V716.333Z"/>
<path d="M255.741 153.5H306.889V204.667H255.741V153.5Z"/>
<path d="M255.741 767.5H306.889V818.667H255.741V767.5Z"/>
<path d="M818.37 153.5H869.518V204.667H818.37V153.5Z"/>
<path d="M818.37 767.5H869.518V818.667H818.37V767.5Z"/>
<path d="M255.741 204.667H306.889V255.833H255.741V204.667Z"/>
<path d="M255.741 818.667H306.889V869.833H255.741V818.667Z"/>
<path d="M818.37 204.667H869.518V255.833H818.37V204.667Z"/>
<path d="M818.37 818.667H869.518V869.833H818.37V818.667Z"/>
<path d="M255.741 255.833H306.889V307H255.741V255.833Z"/>
<path d="M255.741 869.833H306.889V921H255.741V869.833Z"/>
<path d="M818.37 255.833H869.518V307H818.37V255.833Z"/>
<path d="M818.37 869.833H869.518V921H818.37V869.833Z"/>
<path d="M255.741 307H306.889V358.167H255.741V307Z"/>
<path d="M255.741 921H306.889V972.167H255.741V921Z"/>
<path d="M818.37 307H869.518V358.167H818.37V307Z"/>
<path d="M818.37 921H869.518V972.167H818.37V921Z"/>
<path d="M255.741 358.167H306.889V409.333H255.741V358.167Z"/>
<path d="M255.741 972.167H306.889V1023.33H255.741V972.167Z"/>
<path d="M818.37 358.167H869.518V409.333H818.37V358.167Z"/>
<path d="M818.37 972.167H869.518V1023.33H818.37V972.167Z"/>
<path d="M255.741 409.333H306.889V460.5H255.741V409.333Z"/>
<path d="M255.741 1023.33H306.889V1074.5H255.741V1023.33Z"/>
<path d="M818.37 409.333H869.518V460.5H818.37V409.333Z"/>
<path d="M818.37 1023.33H869.518V1074.5H818.37V1023.33Z"/>
<path d="M255.741 460.5H306.889V511.667H255.741V460.5Z"/>
<path d="M255.741 1074.5H306.889V1125.67H255.741V1074.5Z"/>
<path d="M818.37 460.5H869.518V511.667H818.37V460.5Z"/>
<path d="M818.37 1074.5H869.518V1125.67H818.37V1074.5Z"/>
<path d="M255.741 511.667H306.889V562.833H255.741V511.667Z"/>
<path d="M255.741 1125.67H306.889V1176.83H255.741V1125.67Z"/>
<path d="M818.37 511.667H869.518V562.833H818.37V511.667Z"/>
<path d="M818.37 1125.67H869.518V1176.83H818.37V1125.67Z"/>
<path d="M255.741 562.833H306.889V614H255.741V562.833Z"/>
<path d="M255.741 1176.83H306.889V1228H255.741V1176.83Z"/>
<path d="M818.37 562.833H869.518V614H818.37V562.833Z"/>
<path d="M818.37 1176.83H869.518V1228H818.37V1176.83Z"/>
<path d="M306.889 51.1667H358.037V102.333H306.889V51.1667Z"/>
<path d="M306.889 665.167H358.037V716.333H306.889V665.167Z"/>
<path d="M869.518 51.1667H920.667V102.333H869.518V51.1667Z"/>
<path d="M869.518 665.167H920.667V716.333H869.518V665.167Z"/>
<path d="M306.889 102.333H358.037V153.5H306.889V102.333Z"/>
<path d="M306.889 716.333H358.037V767.5H306.889V716.333Z"/>
<path d="M869.518 102.333H920.667V153.5H869.518V102.333Z"/>
<path d="M869.518 716.333H920.667V767.5H869.518V716.333Z"/>
<path d="M306.889 153.5H358.037V204.667H306.889V153.5Z"/>
<path d="M306.889 767.5H358.037V818.667H306.889V767.5Z"/>
<path d="M869.518 153.5H920.667V204.667H869.518V153.5Z"/>
<path d="M869.518 767.5H920.667V818.667H869.518V767.5Z"/>
<path d="M306.889 204.667H358.037V255.833H306.889V204.667Z"/>
<path d="M306.889 818.667H358.037V869.833H306.889V818.667Z"/>
<path d="M869.518 204.667H920.667V255.833H869.518V204.667Z"/>
<path d="M869.518 818.667H920.667V869.833H869.518V818.667Z"/>
<path d="M306.889 255.833H358.037V307H306.889V255.833Z"/>
<path d="M306.889 869.833H358.037V921H306.889V869.833Z"/>
<path d="M869.518 255.833H920.667V307H869.518V255.833Z"/>
<path d="M869.518 869.833H920.667V921H869.518V869.833Z"/>
<path d="M306.889 307H358.037V358.167H306.889V307Z"/>
<path d="M306.889 921H358.037V972.167H306.889V921Z"/>
<path d="M869.518 307H920.667V358.167H869.518V307Z"/>
<path d="M869.518 921H920.667V972.167H869.518V921Z"/>
<path d="M306.889 358.167H358.037V409.333H306.889V358.167Z"/>
<path d="M306.889 972.167H358.037V1023.33H306.889V972.167Z"/>
<path d="M869.518 358.167H920.667V409.333H869.518V358.167Z"/>
<path d="M869.518 972.167H920.667V1023.33H869.518V972.167Z"/>
<path d="M306.889 409.333H358.037V460.5H306.889V409.333Z"/>
<path d="M306.889 1023.33H358.037V1074.5H306.889V1023.33Z"/>
<path d="M869.518 409.333H920.667V460.5H869.518V409.333Z"/>
<path d="M869.518 1023.33H920.667V1074.5H869.518V1023.33Z"/>
<path d="M306.889 460.5H358.037V511.667H306.889V460.5Z"/>
<path d="M306.889 1074.5H358.037V1125.67H306.889V1074.5Z"/>
<path d="M869.518 460.5H920.667V511.667H869.518V460.5Z"/>
<path d="M869.518 1074.5H920.667V1125.67H869.518V1074.5Z"/>
<path d="M306.889 511.667H358.037V562.833H306.889V511.667Z"/>
<path d="M306.889 1125.67H358.037V1176.83H306.889V1125.67Z"/>
<path d="M869.518 511.667H920.667V562.833H869.518V511.667Z"/>
<path d="M869.518 1125.67H920.667V1176.83H869.518V1125.67Z"/>
<path d="M306.889 562.833H358.037V614H306.889V562.833Z"/>
<path d="M306.889 1176.83H358.037V1228H306.889V1176.83Z"/>
<path d="M869.518 562.833H920.667V614H869.518V562.833Z"/>
<path d="M869.518 1176.83H920.667V1228H869.518V1176.83Z"/>
<path d="M358.037 51.1667H409.185V102.333H358.037V51.1667Z"/>
<path d="M358.037 665.167H409.185V716.333H358.037V665.167Z"/>
<path d="M920.667 51.1667H971.815V102.333H920.667V51.1667Z"/>
<path d="M920.667 665.167H971.815V716.333H920.667V665.167Z"/>
<path d="M358.037 102.333H409.185V153.5H358.037V102.333Z"/>
<path d="M358.037 716.333H409.185V767.5H358.037V716.333Z"/>
<path d="M920.667 102.333H971.815V153.5H920.667V102.333Z"/>
<path d="M920.667 716.333H971.815V767.5H920.667V716.333Z"/>
<path d="M358.037 153.5H409.185V204.667H358.037V153.5Z"/>
<path d="M358.037 767.5H409.185V818.667H358.037V767.5Z"/>
<path d="M920.667 153.5H971.815V204.667H920.667V153.5Z"/>
<path d="M920.667 767.5H971.815V818.667H920.667V767.5Z"/>
<path d="M358.037 204.667H409.185V255.833H358.037V204.667Z"/>
<path d="M358.037 818.667H409.185V869.833H358.037V818.667Z"/>
<path d="M920.667 204.667H971.815V255.833H920.667V204.667Z"/>
<path d="M920.667 818.667H971.815V869.833H920.667V818.667Z"/>
<path d="M358.037 255.833H409.185V307H358.037V255.833Z"/>
<path d="M358.037 869.833H409.185V921H358.037V869.833Z"/>
<path d="M920.667 255.833H971.815V307H920.667V255.833Z"/>
<path d="M920.667 869.833H971.815V921H920.667V869.833Z"/>
<path d="M358.037 307H409.185V358.167H358.037V307Z"/>
<path d="M358.037 921H409.185V972.167H358.037V921Z"/>
<path d="M920.667 307H971.815V358.167H920.667V307Z"/>
<path d="M920.667 921H971.815V972.167H920.667V921Z"/>
<path d="M358.037 358.167H409.185V409.333H358.037V358.167Z"/>
<path d="M358.037 972.167H409.185V1023.33H358.037V972.167Z"/>
<path d="M920.667 358.167H971.815V409.333H920.667V358.167Z"/>
<path d="M920.667 972.167H971.815V1023.33H920.667V972.167Z"/>
<path d="M358.037 409.333H409.185V460.5H358.037V409.333Z"/>
<path d="M358.037 1023.33H409.185V1074.5H358.037V1023.33Z"/>
<path d="M920.667 409.333H971.815V460.5H920.667V409.333Z"/>
<path d="M920.667 1023.33H971.815V1074.5H920.667V1023.33Z"/>
<path d="M358.037 460.5H409.185V511.667H358.037V460.5Z"/>
<path d="M358.037 1074.5H409.185V1125.67H358.037V1074.5Z"/>
<path d="M920.667 460.5H971.815V511.667H920.667V460.5Z"/>
<path d="M920.667 1074.5H971.815V1125.67H920.667V1074.5Z"/>
<path d="M358.037 511.667H409.185V562.833H358.037V511.667Z"/>
<path d="M358.037 1125.67H409.185V1176.83H358.037V1125.67Z"/>
<path d="M920.667 511.667H971.815V562.833H920.667V511.667Z"/>
<path d="M920.667 1125.67H971.815V1176.83H920.667V1125.67Z"/>
<path d="M358.037 562.833H409.185V614H358.037V562.833Z"/>
<path d="M358.037 1176.83H409.185V1228H358.037V1176.83Z"/>
<path d="M920.667 562.833H971.815V614H920.667V562.833Z"/>
<path d="M920.667 1176.83H971.815V1228H920.667V1176.83Z"/>
<path d="M409.185 51.1667H460.333V102.333H409.185V51.1667Z"/>
<path d="M409.185 665.167H460.333V716.333H409.185V665.167Z"/>
<path d="M971.815 51.1667H1022.96V102.333H971.815V51.1667Z"/>
<path d="M971.815 665.167H1022.96V716.333H971.815V665.167Z"/>
<path d="M409.185 102.333H460.333V153.5H409.185V102.333Z"/>
<path d="M409.185 716.333H460.333V767.5H409.185V716.333Z"/>
<path d="M971.815 102.333H1022.96V153.5H971.815V102.333Z"/>
<path d="M971.815 716.333H1022.96V767.5H971.815V716.333Z"/>
<path d="M409.185 153.5H460.333V204.667H409.185V153.5Z"/>
<path d="M409.185 767.5H460.333V818.667H409.185V767.5Z"/>
<path d="M971.815 153.5H1022.96V204.667H971.815V153.5Z"/>
<path d="M971.815 767.5H1022.96V818.667H971.815V767.5Z"/>
<path d="M409.185 204.667H460.333V255.833H409.185V204.667Z"/>
<path d="M409.185 818.667H460.333V869.833H409.185V818.667Z"/>
<path d="M971.815 204.667H1022.96V255.833H971.815V204.667Z"/>
<path d="M971.815 818.667H1022.96V869.833H971.815V818.667Z"/>
<path d="M409.185 255.833H460.333V307H409.185V255.833Z"/>
<path d="M409.185 869.833H460.333V921H409.185V869.833Z"/>
<path d="M971.815 255.833H1022.96V307H971.815V255.833Z"/>
<path d="M971.815 869.833H1022.96V921H971.815V869.833Z"/>
<path d="M409.185 307H460.333V358.167H409.185V307Z"/>
<path d="M409.185 921H460.333V972.167H409.185V921Z"/>
<path d="M971.815 307H1022.96V358.167H971.815V307Z"/>
<path d="M971.815 921H1022.96V972.167H971.815V921Z"/>
<path d="M409.185 358.167H460.333V409.333H409.185V358.167Z"/>
<path d="M409.185 972.167H460.333V1023.33H409.185V972.167Z"/>
<path d="M971.815 358.167H1022.96V409.333H971.815V358.167Z"/>
<path d="M971.815 972.167H1022.96V1023.33H971.815V972.167Z"/>
<path d="M409.185 409.333H460.333V460.5H409.185V409.333Z"/>
<path d="M409.185 1023.33H460.333V1074.5H409.185V1023.33Z"/>
<path d="M971.815 409.333H1022.96V460.5H971.815V409.333Z"/>
<path d="M971.815 1023.33H1022.96V1074.5H971.815V1023.33Z"/>
<path d="M409.185 460.5H460.333V511.667H409.185V460.5Z"/>
<path d="M409.185 1074.5H460.333V1125.67H409.185V1074.5Z"/>
<path d="M971.815 460.5H1022.96V511.667H971.815V460.5Z"/>
<path d="M971.815 1074.5H1022.96V1125.67H971.815V1074.5Z"/>
<path d="M409.185 511.667H460.333V562.833H409.185V511.667Z"/>
<path d="M409.185 1125.67H460.333V1176.83H409.185V1125.67Z"/>
<path d="M971.815 511.667H1022.96V562.833H971.815V511.667Z"/>
<path d="M971.815 1125.67H1022.96V1176.83H971.815V1125.67Z"/>
<path d="M409.185 562.833H460.333V614H409.185V562.833Z"/>
<path d="M409.185 1176.83H460.333V1228H409.185V1176.83Z"/>
<path d="M971.815 562.833H1022.96V614H971.815V562.833Z"/>
<path d="M971.815 1176.83H1022.96V1228H971.815V1176.83Z"/>
<path d="M460.333 51.1667H511.481V102.333H460.333V51.1667Z"/>
<path d="M460.333 665.167H511.481V716.333H460.333V665.167Z"/>
<path d="M1022.96 51.1667H1074.11V102.333H1022.96V51.1667Z"/>
<path d="M1022.96 665.167H1074.11V716.333H1022.96V665.167Z"/>
<path d="M460.333 102.333H511.481V153.5H460.333V102.333Z"/>
<path d="M460.333 716.333H511.481V767.5H460.333V716.333Z"/>
<path d="M1022.96 102.333H1074.11V153.5H1022.96V102.333Z"/>
<path d="M1022.96 716.333H1074.11V767.5H1022.96V716.333Z"/>
<path d="M460.333 153.5H511.481V204.667H460.333V153.5Z"/>
<path d="M460.333 767.5H511.481V818.667H460.333V767.5Z"/>
<path d="M1022.96 153.5H1074.11V204.667H1022.96V153.5Z"/>
<path d="M1022.96 767.5H1074.11V818.667H1022.96V767.5Z"/>
<path d="M460.333 204.667H511.481V255.833H460.333V204.667Z"/>
<path d="M460.333 818.667H511.481V869.833H460.333V818.667Z"/>
<path d="M1022.96 204.667H1074.11V255.833H1022.96V204.667Z"/>
<path d="M1022.96 818.667H1074.11V869.833H1022.96V818.667Z"/>
<path d="M460.333 255.833H511.481V307H460.333V255.833Z"/>
<path d="M460.333 869.833H511.481V921H460.333V869.833Z"/>
<path d="M1022.96 255.833H1074.11V307H1022.96V255.833Z"/>
<path d="M1022.96 869.833H1074.11V921H1022.96V869.833Z"/>
<path d="M460.333 307H511.481V358.167H460.333V307Z"/>
<path d="M460.333 921H511.481V972.167H460.333V921Z"/>
<path d="M1022.96 307H1074.11V358.167H1022.96V307Z"/>
<path d="M1022.96 921H1074.11V972.167H1022.96V921Z"/>
<path d="M460.333 358.167H511.481V409.333H460.333V358.167Z"/>
<path d="M460.333 972.167H511.481V1023.33H460.333V972.167Z"/>
<path d="M1022.96 358.167H1074.11V409.333H1022.96V358.167Z"/>
<path d="M1022.96 972.167H1074.11V1023.33H1022.96V972.167Z"/>
<path d="M460.333 409.333H511.481V460.5H460.333V409.333Z"/>
<path d="M460.333 1023.33H511.481V1074.5H460.333V1023.33Z"/>
<path d="M1022.96 409.333H1074.11V460.5H1022.96V409.333Z"/>
<path d="M1022.96 1023.33H1074.11V1074.5H1022.96V1023.33Z"/>
<path d="M460.333 460.5H511.481V511.667H460.333V460.5Z"/>
<path d="M460.333 1074.5H511.481V1125.67H460.333V1074.5Z"/>
<path d="M1022.96 460.5H1074.11V511.667H1022.96V460.5Z"/>
<path d="M1022.96 1074.5H1074.11V1125.67H1022.96V1074.5Z"/>
<path d="M460.333 511.667H511.481V562.833H460.333V511.667Z"/>
<path d="M460.333 1125.67H511.481V1176.83H460.333V1125.67Z"/>
<path d="M1022.96 511.667H1074.11V562.833H1022.96V511.667Z"/>
<path d="M1022.96 1125.67H1074.11V1176.83H1022.96V1125.67Z"/>
<path d="M460.333 562.833H511.481V614H460.333V562.833Z"/>
<path d="M460.333 1176.83H511.481V1228H460.333V1176.83Z"/>
<path d="M1022.96 562.833H1074.11V614H1022.96V562.833Z"/>
<path d="M1022.96 1176.83H1074.11V1228H1022.96V1176.83Z"/>
<path d="M511.481 51.1667H562.63V102.333H511.481V51.1667Z"/>
<path d="M511.481 665.167H562.63V716.333H511.481V665.167Z"/>
<path d="M1074.11 51.1667H1125.26V102.333H1074.11V51.1667Z"/>
<path d="M1074.11 665.167H1125.26V716.333H1074.11V665.167Z"/>
<path d="M511.481 102.333H562.63V153.5H511.481V102.333Z"/>
<path d="M511.481 716.333H562.63V767.5H511.481V716.333Z"/>
<path d="M1074.11 102.333H1125.26V153.5H1074.11V102.333Z"/>
<path d="M1074.11 716.333H1125.26V767.5H1074.11V716.333Z"/>
<path d="M511.481 153.5H562.63V204.667H511.481V153.5Z"/>
<path d="M511.481 767.5H562.63V818.667H511.481V767.5Z"/>
<path d="M1074.11 153.5H1125.26V204.667H1074.11V153.5Z"/>
<path d="M1074.11 767.5H1125.26V818.667H1074.11V767.5Z"/>
<path d="M511.481 204.667H562.63V255.833H511.481V204.667Z"/>
<path d="M511.481 818.667H562.63V869.833H511.481V818.667Z"/>
<path d="M1074.11 204.667H1125.26V255.833H1074.11V204.667Z"/>
<path d="M1074.11 818.667H1125.26V869.833H1074.11V818.667Z"/>
<path d="M511.481 255.833H562.63V307H511.481V255.833Z"/>
<path d="M511.481 869.833H562.63V921H511.481V869.833Z"/>
<path d="M1074.11 255.833H1125.26V307H1074.11V255.833Z"/>
<path d="M1074.11 869.833H1125.26V921H1074.11V869.833Z"/>
<path d="M511.481 307H562.63V358.167H511.481V307Z"/>
<path d="M511.481 921H562.63V972.167H511.481V921Z"/>
<path d="M1074.11 307H1125.26V358.167H1074.11V307Z"/>
<path d="M1074.11 921H1125.26V972.167H1074.11V921Z"/>
<path d="M511.481 358.167H562.63V409.333H511.481V358.167Z"/>
<path d="M511.481 972.167H562.63V1023.33H511.481V972.167Z"/>
<path d="M1074.11 358.167H1125.26V409.333H1074.11V358.167Z"/>
<path d="M1074.11 972.167H1125.26V1023.33H1074.11V972.167Z"/>
<path d="M511.481 409.333H562.63V460.5H511.481V409.333Z"/>
<path d="M511.481 1023.33H562.63V1074.5H511.481V1023.33Z"/>
<path d="M1074.11 409.333H1125.26V460.5H1074.11V409.333Z"/>
<path d="M1074.11 1023.33H1125.26V1074.5H1074.11V1023.33Z"/>
<path d="M511.481 460.5H562.63V511.667H511.481V460.5Z"/>
<path d="M511.481 1074.5H562.63V1125.67H511.481V1074.5Z"/>
<path d="M1074.11 460.5H1125.26V511.667H1074.11V460.5Z"/>
<path d="M1074.11 1074.5H1125.26V1125.67H1074.11V1074.5Z"/>
<path d="M511.481 511.667H562.63V562.833H511.481V511.667Z"/>
<path d="M511.481 1125.67H562.63V1176.83H511.481V1125.67Z"/>
<path d="M1074.11 511.667H1125.26V562.833H1074.11V511.667Z"/>
<path d="M1074.11 1125.67H1125.26V1176.83H1074.11V1125.67Z"/>
<path d="M511.481 562.833H562.63V614H511.481V562.833Z"/>
<path d="M511.481 1176.83H562.63V1228H511.481V1176.83Z"/>
<path d="M1074.11 562.833H1125.26V614H1074.11V562.833Z"/>
<path d="M1074.11 1176.83H1125.26V1228H1074.11V1176.83Z"/>
</mask>
<path d="M50.6481 0V51.1667H51.6481V0H50.6481ZM51.1481 50.6667H0V51.6667H51.1481V50.6667ZM0 614.5H51.1481V613.5H0V614.5ZM50.6481 614V665.167H51.6481V614H50.6481ZM51.1481 664.667H0V665.667H51.1481V664.667ZM613.278 0V51.1667H614.278V0H613.278ZM613.778 50.6667H562.63V51.6667H613.778V50.6667ZM563.13 51.1667V0H562.13V51.1667H563.13ZM562.63 614.5H613.778V613.5H562.63V614.5ZM613.278 614V665.167H614.278V614H613.278ZM613.778 664.667H562.63V665.667H613.778V664.667ZM563.13 665.167V614H562.13V665.167H563.13ZM1175.91 0V51.1667H1176.91V0H1175.91ZM1176.41 50.6667H1125.26V51.6667H1176.41V50.6667ZM1125.76 51.1667V0H1124.76V51.1667H1125.76ZM1125.26 614.5H1176.41V613.5H1125.26V614.5ZM1175.91 614V665.167H1176.91V614H1175.91ZM1176.41 664.667H1125.26V665.667H1176.41V664.667ZM1125.76 665.167V614H1124.76V665.167H1125.76ZM101.796 0V51.1667H102.796V0H101.796ZM102.296 50.6667H51.1481V51.6667H102.296V50.6667ZM51.1481 614.5H102.296V613.5H51.1481V614.5ZM101.796 614V665.167H102.796V614H101.796ZM102.296 664.667H51.1481V665.667H102.296V664.667ZM664.426 0V51.1667H665.426V0H664.426ZM664.926 50.6667H613.778V51.6667H664.926V50.6667ZM613.778 614.5H664.926V613.5H613.778V614.5ZM664.426 614V665.167H665.426V614H664.426ZM664.926 664.667H613.778V665.667H664.926V664.667ZM1227.06 0V51.1667H1228.06V0H1227.06ZM1227.56 50.6667H1176.41V51.6667H1227.56V50.6667ZM1176.41 614.5H1227.56V613.5H1176.41V614.5ZM1227.06 614V665.167H1228.06V614H1227.06ZM1227.56 664.667H1176.41V665.667H1227.56V664.667ZM152.944 0V51.1667H153.944V0H152.944ZM153.444 50.6667H102.296V51.6667H153.444V50.6667ZM102.296 614.5H153.444V613.5H102.296V614.5ZM152.944 614V665.167H153.944V614H152.944ZM153.444 664.667H102.296V665.667H153.444V664.667ZM715.574 0V51.1667H716.574V0H715.574ZM716.074 50.6667H664.926V51.6667H716.074V50.6667ZM664.926 614.5H716.074V613.5H664.926V614.5ZM715.574 614V665.167H716.574V614H715.574ZM716.074 664.667H664.926V665.667H716.074V664.667ZM1278.2 0V51.1667H1279.2V0H1278.2ZM1278.7 50.6667H1227.56V51.6667H1278.7V50.6667ZM1227.56 614.5H1278.7V613.5H1227.56V614.5ZM1278.2 614V665.167H1279.2V614H1278.2ZM1278.7 664.667H1227.56V665.667H1278.7V664.667ZM204.093 0V51.1667H205.093V0H204.093ZM204.593 50.6667H153.444V51.6667H204.593V50.6667ZM153.444 614.5H204.593V613.5H153.444V614.5ZM204.093 614V665.167H205.093V614H204.093ZM204.593 664.667H153.444V665.667H204.593V664.667ZM766.722 0V51.1667H767.722V0H766.722ZM767.222 50.6667H716.074V51.6667H767.222V50.6667ZM716.074 614.5H767.222V613.5H716.074V614.5ZM766.722 614V665.167H767.722V614H766.722ZM767.222 664.667H716.074V665.667H767.222V664.667ZM1329.35 0V51.1667H1330.35V0H1329.35ZM1329.85 50.6667H1278.7V51.6667H1329.85V50.6667ZM1278.7 614.5H1329.85V613.5H1278.7V614.5ZM1329.35 614V665.167H1330.35V614H1329.35ZM1329.85 664.667H1278.7V665.667H1329.85V664.667ZM255.241 0V51.1667H256.241V0H255.241ZM255.741 50.6667H204.593V51.6667H255.741V50.6667ZM204.593 614.5H255.741V613.5H204.593V614.5ZM255.241 614V665.167H256.241V614H255.241ZM255.741 664.667H204.593V665.667H255.741V664.667ZM817.87 0V51.1667H818.87V0H817.87ZM818.37 50.6667H767.222V51.6667H818.37V50.6667ZM767.222 614.5H818.37V613.5H767.222V614.5ZM817.87 614V665.167H818.87V614H817.87ZM818.37 664.667H767.222V665.667H818.37V664.667ZM1381 50.6667H1329.85V51.6667H1381V50.6667ZM1329.85 614.5H1381V613.5H1329.85V614.5ZM1381 664.667H1329.85V665.667H1381V664.667ZM306.389 0V51.1667H307.389V0H306.389ZM306.889 50.6667H255.741V51.6667H306.889V50.6667ZM255.741 614.5H306.889V613.5H255.741V614.5ZM306.389 614V665.167H307.389V614H306.389ZM306.889 664.667H255.741V665.667H306.889V664.667ZM869.018 0V51.1667H870.018V0H869.018ZM869.518 50.6667H818.37V51.6667H869.518V50.6667ZM818.37 614.5H869.518V613.5H818.37V614.5ZM869.018 614V665.167H870.018V614H869.018ZM869.518 664.667H818.37V665.667H869.518V664.667ZM357.537 0V51.1667H358.537V0H357.537ZM358.037 50.6667H306.889V51.6667H358.037V50.6667ZM306.889 614.5H358.037V613.5H306.889V614.5ZM357.537 614V665.167H358.537V614H357.537ZM358.037 664.667H306.889V665.667H358.037V664.667ZM920.167 0V51.1667H921.167V0H920.167ZM920.667 50.6667H869.518V51.6667H920.667V50.6667ZM869.518 614.5H920.667V613.5H869.518V614.5ZM920.167 614V665.167H921.167V614H920.167ZM920.667 664.667H869.518V665.667H920.667V664.667ZM408.685 0V51.1667H409.685V0H408.685ZM409.185 50.6667H358.037V51.6667H409.185V50.6667ZM358.037 614.5H409.185V613.5H358.037V614.5ZM408.685 614V665.167H409.685V614H408.685ZM409.185 664.667H358.037V665.667H409.185V664.667ZM971.315 0V51.1667H972.315V0H971.315ZM971.815 50.6667H920.667V51.6667H971.815V50.6667ZM920.667 614.5H971.815V613.5H920.667V614.5ZM971.315 614V665.167H972.315V614H971.315ZM971.815 664.667H920.667V665.667H971.815V664.667ZM459.833 0V51.1667H460.833V0H459.833ZM460.333 50.6667H409.185V51.6667H460.333V50.6667ZM409.185 614.5H460.333V613.5H409.185V614.5ZM459.833 614V665.167H460.833V614H459.833ZM460.333 664.667H409.185V665.667H460.333V664.667ZM1022.46 0V51.1667H1023.46V0H1022.46ZM1022.96 50.6667H971.815V51.6667H1022.96V50.6667ZM971.815 614.5H1022.96V613.5H971.815V614.5ZM1022.46 614V665.167H1023.46V614H1022.46ZM1022.96 664.667H971.815V665.667H1022.96V664.667ZM510.981 0V51.1667H511.981V0H510.981ZM511.481 50.6667H460.333V51.6667H511.481V50.6667ZM460.333 614.5H511.481V613.5H460.333V614.5ZM510.981 614V665.167H511.981V614H510.981ZM511.481 664.667H460.333V665.667H511.481V664.667ZM1073.61 0V51.1667H1074.61V0H1073.61ZM1074.11 50.6667H1022.96V51.6667H1074.11V50.6667ZM1022.96 614.5H1074.11V613.5H1022.96V614.5ZM1073.61 614V665.167H1074.61V614H1073.61ZM1074.11 664.667H1022.96V665.667H1074.11V664.667ZM562.63 50.6667H511.481V51.6667H562.63V50.6667ZM511.481 614.5H562.63V613.5H511.481V614.5ZM562.63 664.667H511.481V665.667H562.63V664.667ZM1125.26 50.6667H1074.11V51.6667H1125.26V50.6667ZM1074.11 614.5H1125.26V613.5H1074.11V614.5ZM1125.26 664.667H1074.11V665.667H1125.26V664.667ZM50.6481 51.1667V102.333H51.6481V51.1667H50.6481ZM51.1481 101.833H0V102.833H51.1481V101.833ZM50.6481 665.167V716.333H51.6481V665.167H50.6481ZM51.1481 715.833H0V716.833H51.1481V715.833ZM613.278 51.1667V102.333H614.278V51.1667H613.278ZM613.778 101.833H562.63V102.833H613.778V101.833ZM563.13 102.333V51.1667H562.13V102.333H563.13ZM613.278 665.167V716.333H614.278V665.167H613.278ZM613.778 715.833H562.63V716.833H613.778V715.833ZM563.13 716.333V665.167H562.13V716.333H563.13ZM1175.91 51.1667V102.333H1176.91V51.1667H1175.91ZM1176.41 101.833H1125.26V102.833H1176.41V101.833ZM1125.76 102.333V51.1667H1124.76V102.333H1125.76ZM1175.91 665.167V716.333H1176.91V665.167H1175.91ZM1176.41 715.833H1125.26V716.833H1176.41V715.833ZM1125.76 716.333V665.167H1124.76V716.333H1125.76ZM50.6481 102.333V153.5H51.6481V102.333H50.6481ZM51.1481 153H0V154H51.1481V153ZM50.6481 716.333V767.5H51.6481V716.333H50.6481ZM51.1481 767H0V768H51.1481V767ZM613.278 102.333V153.5H614.278V102.333H613.278ZM613.778 153H562.63V154H613.778V153ZM563.13 153.5V102.333H562.13V153.5H563.13ZM613.278 716.333V767.5H614.278V716.333H613.278ZM613.778 767H562.63V768H613.778V767ZM563.13 767.5V716.333H562.13V767.5H563.13ZM1175.91 102.333V153.5H1176.91V102.333H1175.91ZM1176.41 153H1125.26V154H1176.41V153ZM1125.76 153.5V102.333H1124.76V153.5H1125.76ZM1175.91 716.333V767.5H1176.91V716.333H1175.91ZM1176.41 767H1125.26V768H1176.41V767ZM1125.76 767.5V716.333H1124.76V767.5H1125.76ZM50.6481 153.5V204.667H51.6481V153.5H50.6481ZM51.1481 204.167H0V205.167H51.1481V204.167ZM50.6481 767.5V818.667H51.6481V767.5H50.6481ZM51.1481 818.167H0V819.167H51.1481V818.167ZM613.278 153.5V204.667H614.278V153.5H613.278ZM613.778 204.167H562.63V205.167H613.778V204.167ZM563.13 204.667V153.5H562.13V204.667H563.13ZM613.278 767.5V818.667H614.278V767.5H613.278ZM613.778 818.167H562.63V819.167H613.778V818.167ZM563.13 818.667V767.5H562.13V818.667H563.13ZM1175.91 153.5V204.667H1176.91V153.5H1175.91ZM1176.41 204.167H1125.26V205.167H1176.41V204.167ZM1125.76 204.667V153.5H1124.76V204.667H1125.76ZM1175.91 767.5V818.667H1176.91V767.5H1175.91ZM1176.41 818.167H1125.26V819.167H1176.41V818.167ZM1125.76 818.667V767.5H1124.76V818.667H1125.76ZM50.6481 204.667V255.833H51.6481V204.667H50.6481ZM51.1481 255.333H0V256.333H51.1481V255.333ZM50.6481 818.667V869.833H51.6481V818.667H50.6481ZM51.1481 869.333H0V870.333H51.1481V869.333ZM613.278 204.667V255.833H614.278V204.667H613.278ZM613.778 255.333H562.63V256.333H613.778V255.333ZM563.13 255.833V204.667H562.13V255.833H563.13ZM613.278 818.667V869.833H614.278V818.667H613.278ZM613.778 869.333H562.63V870.333H613.778V869.333ZM563.13 869.833V818.667H562.13V869.833H563.13ZM1175.91 204.667V255.833H1176.91V204.667H1175.91ZM1176.41 255.333H1125.26V256.333H1176.41V255.333ZM1125.76 255.833V204.667H1124.76V255.833H1125.76ZM1175.91 818.667V869.833H1176.91V818.667H1175.91ZM1176.41 869.333H1125.26V870.333H1176.41V869.333ZM1125.76 869.833V818.667H1124.76V869.833H1125.76ZM50.6481 255.833V307H51.6481V255.833H50.6481ZM51.1481 306.5H0V307.5H51.1481V306.5ZM50.6481 869.833V921H51.6481V869.833H50.6481ZM51.1481 920.5H0V921.5H51.1481V920.5ZM613.278 255.833V307H614.278V255.833H613.278ZM613.778 306.5H562.63V307.5H613.778V306.5ZM563.13 307V255.833H562.13V307H563.13ZM613.278 869.833V921H614.278V869.833H613.278ZM613.778 920.5H562.63V921.5H613.778V920.5ZM563.13 921V869.833H562.13V921H563.13ZM1175.91 255.833V307H1176.91V255.833H1175.91ZM1176.41 306.5H1125.26V307.5H1176.41V306.5ZM1125.76 307V255.833H1124.76V307H1125.76ZM1175.91 869.833V921H1176.91V869.833H1175.91ZM1176.41 920.5H1125.26V921.5H1176.41V920.5ZM1125.76 921V869.833H1124.76V921H1125.76ZM50.6481 307V358.167H51.6481V307H50.6481ZM51.1481 357.667H0V358.667H51.1481V357.667ZM50.6481 921V972.167H51.6481V921H50.6481ZM51.1481 971.667H0V972.667H51.1481V971.667ZM613.278 307V358.167H614.278V307H613.278ZM613.778 357.667H562.63V358.667H613.778V357.667ZM563.13 358.167V307H562.13V358.167H563.13ZM613.278 921V972.167H614.278V921H613.278ZM613.778 971.667H562.63V972.667H613.778V971.667ZM563.13 972.167V921H562.13V972.167H563.13ZM1175.91 307V358.167H1176.91V307H1175.91ZM1176.41 357.667H1125.26V358.667H1176.41V357.667ZM1125.76 358.167V307H1124.76V358.167H1125.76ZM1175.91 921V972.167H1176.91V921H1175.91ZM1176.41 971.667H1125.26V972.667H1176.41V971.667ZM1125.76 972.167V921H1124.76V972.167H1125.76ZM50.6481 358.167V409.333H51.6481V358.167H50.6481ZM51.1481 408.833H0V409.833H51.1481V408.833ZM50.6481 972.167V1023.33H51.6481V972.167H50.6481ZM51.1481 1022.83H0V1023.83H51.1481V1022.83ZM613.278 358.167V409.333H614.278V358.167H613.278ZM613.778 408.833H562.63V409.833H613.778V408.833ZM563.13 409.333V358.167H562.13V409.333H563.13ZM613.278 972.167V1023.33H614.278V972.167H613.278ZM613.778 1022.83H562.63V1023.83H613.778V1022.83ZM563.13 1023.33V972.167H562.13V1023.33H563.13ZM1175.91 358.167V409.333H1176.91V358.167H1175.91ZM1176.41 408.833H1125.26V409.833H1176.41V408.833ZM1125.76 409.333V358.167H1124.76V409.333H1125.76ZM1175.91 972.167V1023.33H1176.91V972.167H1175.91ZM1176.41 1022.83H1125.26V1023.83H1176.41V1022.83ZM1125.76 1023.33V972.167H1124.76V1023.33H1125.76ZM50.6481 409.333V460.5H51.6481V409.333H50.6481ZM51.1481 460H0V461H51.1481V460ZM50.6481 1023.33V1074.5H51.6481V1023.33H50.6481ZM51.1481 1074H0V1075H51.1481V1074ZM613.278 409.333V460.5H614.278V409.333H613.278ZM613.778 460H562.63V461H613.778V460ZM563.13 460.5V409.333H562.13V460.5H563.13ZM613.278 1023.33V1074.5H614.278V1023.33H613.278ZM613.778 1074H562.63V1075H613.778V1074ZM563.13 1074.5V1023.33H562.13V1074.5H563.13ZM1175.91 409.333V460.5H1176.91V409.333H1175.91ZM1176.41 460H1125.26V461H1176.41V460ZM1125.76 460.5V409.333H1124.76V460.5H1125.76ZM1175.91 1023.33V1074.5H1176.91V1023.33H1175.91ZM1176.41 1074H1125.26V1075H1176.41V1074ZM1125.76 1074.5V1023.33H1124.76V1074.5H1125.76ZM50.6481 460.5V511.667H51.6481V460.5H50.6481ZM51.1481 511.167H0V512.167H51.1481V511.167ZM50.6481 1074.5V1125.67H51.6481V1074.5H50.6481ZM51.1481 1125.17H0V1126.17H51.1481V1125.17ZM613.278 460.5V511.667H614.278V460.5H613.278ZM613.778 511.167H562.63V512.167H613.778V511.167ZM563.13 511.667V460.5H562.13V511.667H563.13ZM613.278 1074.5V1125.67H614.278V1074.5H613.278ZM613.778 1125.17H562.63V1126.17H613.778V1125.17ZM563.13 1125.67V1074.5H562.13V1125.67H563.13ZM1175.91 460.5V511.667H1176.91V460.5H1175.91ZM1176.41 511.167H1125.26V512.167H1176.41V511.167ZM1125.76 511.667V460.5H1124.76V511.667H1125.76ZM1175.91 1074.5V1125.67H1176.91V1074.5H1175.91ZM1176.41 1125.17H1125.26V1126.17H1176.41V1125.17ZM1125.76 1125.67V1074.5H1124.76V1125.67H1125.76ZM50.6481 511.667V562.833H51.6481V511.667H50.6481ZM51.1481 562.333H0V563.333H51.1481V562.333ZM50.6481 1125.67V1176.83H51.6481V1125.67H50.6481ZM51.1481 1176.33H0V1177.33H51.1481V1176.33ZM613.278 511.667V562.833H614.278V511.667H613.278ZM613.778 562.333H562.63V563.333H613.778V562.333ZM563.13 562.833V511.667H562.13V562.833H563.13ZM613.278 1125.67V1176.83H614.278V1125.67H613.278ZM613.778 1176.33H562.63V1177.33H613.778V1176.33ZM563.13 1176.83V1125.67H562.13V1176.83H563.13ZM1175.91 511.667V562.833H1176.91V511.667H1175.91ZM1176.41 562.333H1125.26V563.333H1176.41V562.333ZM1125.76 562.833V511.667H1124.76V562.833H1125.76ZM1175.91 1125.67V1176.83H1176.91V1125.67H1175.91ZM1176.41 1176.33H1125.26V1177.33H1176.41V1176.33ZM1125.76 1176.83V1125.67H1124.76V1176.83H1125.76ZM50.6481 562.833V614H51.6481V562.833H50.6481ZM50.6481 1176.83V1228H51.6481V1176.83H50.6481ZM613.278 562.833V614H614.278V562.833H613.278ZM563.13 614V562.833H562.13V614H563.13ZM613.278 1176.83V1228H614.278V1176.83H613.278ZM563.13 1228V1176.83H562.13V1228H563.13ZM1175.91 562.833V614H1176.91V562.833H1175.91ZM1125.76 614V562.833H1124.76V614H1125.76ZM1175.91 1176.83V1228H1176.91V1176.83H1175.91ZM1125.76 1228V1176.83H1124.76V1228H1125.76ZM101.796 51.1667V102.333H102.796V51.1667H101.796ZM102.296 101.833H51.1481V102.833H102.296V101.833ZM101.796 665.167V716.333H102.796V665.167H101.796ZM102.296 715.833H51.1481V716.833H102.296V715.833ZM664.426 51.1667V102.333H665.426V51.1667H664.426ZM664.926 101.833H613.778V102.833H664.926V101.833ZM664.426 665.167V716.333H665.426V665.167H664.426ZM664.926 715.833H613.778V716.833H664.926V715.833ZM1227.06 51.1667V102.333H1228.06V51.1667H1227.06ZM1227.56 101.833H1176.41V102.833H1227.56V101.833ZM1227.06 665.167V716.333H1228.06V665.167H1227.06ZM1227.56 715.833H1176.41V716.833H1227.56V715.833ZM101.796 102.333V153.5H102.796V102.333H101.796ZM102.296 153H51.1481V154H102.296V153ZM101.796 716.333V767.5H102.796V716.333H101.796ZM102.296 767H51.1481V768H102.296V767ZM664.426 102.333V153.5H665.426V102.333H664.426ZM664.926 153H613.778V154H664.926V153ZM664.426 716.333V767.5H665.426V716.333H664.426ZM664.926 767H613.778V768H664.926V767ZM1227.06 102.333V153.5H1228.06V102.333H1227.06ZM1227.56 153H1176.41V154H1227.56V153ZM1227.06 716.333V767.5H1228.06V716.333H1227.06ZM1227.56 767H1176.41V768H1227.56V767ZM101.796 153.5V204.667H102.796V153.5H101.796ZM102.296 204.167H51.1481V205.167H102.296V204.167ZM101.796 767.5V818.667H102.796V767.5H101.796ZM102.296 818.167H51.1481V819.167H102.296V818.167ZM664.426 153.5V204.667H665.426V153.5H664.426ZM664.926 204.167H613.778V205.167H664.926V204.167ZM664.426 767.5V818.667H665.426V767.5H664.426ZM664.926 818.167H613.778V819.167H664.926V818.167ZM1227.06 153.5V204.667H1228.06V153.5H1227.06ZM1227.56 204.167H1176.41V205.167H1227.56V204.167ZM1227.06 767.5V818.667H1228.06V767.5H1227.06ZM1227.56 818.167H1176.41V819.167H1227.56V818.167ZM101.796 204.667V255.833H102.796V204.667H101.796ZM102.296 255.333H51.1481V256.333H102.296V255.333ZM101.796 818.667V869.833H102.796V818.667H101.796ZM102.296 869.333H51.1481V870.333H102.296V869.333ZM664.426 204.667V255.833H665.426V204.667H664.426ZM664.926 255.333H613.778V256.333H664.926V255.333ZM664.426 818.667V869.833H665.426V818.667H664.426ZM664.926 869.333H613.778V870.333H664.926V869.333ZM1227.06 204.667V255.833H1228.06V204.667H1227.06ZM1227.56 255.333H1176.41V256.333H1227.56V255.333ZM1227.06 818.667V869.833H1228.06V818.667H1227.06ZM1227.56 869.333H1176.41V870.333H1227.56V869.333ZM101.796 255.833V307H102.796V255.833H101.796ZM102.296 306.5H51.1481V307.5H102.296V306.5ZM101.796 869.833V921H102.796V869.833H101.796ZM102.296 920.5H51.1481V921.5H102.296V920.5ZM664.426 255.833V307H665.426V255.833H664.426ZM664.926 306.5H613.778V307.5H664.926V306.5ZM664.426 869.833V921H665.426V869.833H664.426ZM664.926 920.5H613.778V921.5H664.926V920.5ZM1227.06 255.833V307H1228.06V255.833H1227.06ZM1227.56 306.5H1176.41V307.5H1227.56V306.5ZM1227.06 869.833V921H1228.06V869.833H1227.06ZM1227.56 920.5H1176.41V921.5H1227.56V920.5ZM101.796 307V358.167H102.796V307H101.796ZM102.296 357.667H51.1481V358.667H102.296V357.667ZM101.796 921V972.167H102.796V921H101.796ZM102.296 971.667H51.1481V972.667H102.296V971.667ZM664.426 307V358.167H665.426V307H664.426ZM664.926 357.667H613.778V358.667H664.926V357.667ZM664.426 921V972.167H665.426V921H664.426ZM664.926 971.667H613.778V972.667H664.926V971.667ZM1227.06 307V358.167H1228.06V307H1227.06ZM1227.56 357.667H1176.41V358.667H1227.56V357.667ZM1227.06 921V972.167H1228.06V921H1227.06ZM1227.56 971.667H1176.41V972.667H1227.56V971.667ZM101.796 358.167V409.333H102.796V358.167H101.796ZM102.296 408.833H51.1481V409.833H102.296V408.833ZM101.796 972.167V1023.33H102.796V972.167H101.796ZM102.296 1022.83H51.1481V1023.83H102.296V1022.83ZM664.426 358.167V409.333H665.426V358.167H664.426ZM664.926 408.833H613.778V409.833H664.926V408.833ZM664.426 972.167V1023.33H665.426V972.167H664.426ZM664.926 1022.83H613.778V1023.83H664.926V1022.83ZM1227.06 358.167V409.333H1228.06V358.167H1227.06ZM1227.56 408.833H1176.41V409.833H1227.56V408.833ZM1227.06 972.167V1023.33H1228.06V972.167H1227.06ZM1227.56 1022.83H1176.41V1023.83H1227.56V1022.83ZM101.796 409.333V460.5H102.796V409.333H101.796ZM102.296 460H51.1481V461H102.296V460ZM101.796 1023.33V1074.5H102.796V1023.33H101.796ZM102.296 1074H51.1481V1075H102.296V1074ZM664.426 409.333V460.5H665.426V409.333H664.426ZM664.926 460H613.778V461H664.926V460ZM664.426 1023.33V1074.5H665.426V1023.33H664.426ZM664.926 1074H613.778V1075H664.926V1074ZM1227.06 409.333V460.5H1228.06V409.333H1227.06ZM1227.56 460H1176.41V461H1227.56V460ZM1227.06 1023.33V1074.5H1228.06V1023.33H1227.06ZM1227.56 1074H1176.41V1075H1227.56V1074ZM101.796 460.5V511.667H102.796V460.5H101.796ZM102.296 511.167H51.1481V512.167H102.296V511.167ZM101.796 1074.5V1125.67H102.796V1074.5H101.796ZM102.296 1125.17H51.1481V1126.17H102.296V1125.17ZM664.426 460.5V511.667H665.426V460.5H664.426ZM664.926 511.167H613.778V512.167H664.926V511.167ZM664.426 1074.5V1125.67H665.426V1074.5H664.426ZM664.926 1125.17H613.778V1126.17H664.926V1125.17ZM1227.06 460.5V511.667H1228.06V460.5H1227.06ZM1227.56 511.167H1176.41V512.167H1227.56V511.167ZM1227.06 1074.5V1125.67H1228.06V1074.5H1227.06ZM1227.56 1125.17H1176.41V1126.17H1227.56V1125.17ZM101.796 511.667V562.833H102.796V511.667H101.796ZM102.296 562.333H51.1481V563.333H102.296V562.333ZM101.796 1125.67V1176.83H102.796V1125.67H101.796ZM102.296 1176.33H51.1481V1177.33H102.296V1176.33ZM664.426 511.667V562.833H665.426V511.667H664.426ZM664.926 562.333H613.778V563.333H664.926V562.333ZM664.426 1125.67V1176.83H665.426V1125.67H664.426ZM664.926 1176.33H613.778V1177.33H664.926V1176.33ZM1227.06 511.667V562.833H1228.06V511.667H1227.06ZM1227.56 562.333H1176.41V563.333H1227.56V562.333ZM1227.06 1125.67V1176.83H1228.06V1125.67H1227.06ZM1227.56 1176.33H1176.41V1177.33H1227.56V1176.33ZM101.796 562.833V614H102.796V562.833H101.796ZM101.796 1176.83V1228H102.796V1176.83H101.796ZM664.426 562.833V614H665.426V562.833H664.426ZM664.426 1176.83V1228H665.426V1176.83H664.426ZM1227.06 562.833V614H1228.06V562.833H1227.06ZM1227.06 1176.83V1228H1228.06V1176.83H1227.06ZM152.944 51.1667V102.333H153.944V51.1667H152.944ZM153.444 101.833H102.296V102.833H153.444V101.833ZM152.944 665.167V716.333H153.944V665.167H152.944ZM153.444 715.833H102.296V716.833H153.444V715.833ZM715.574 51.1667V102.333H716.574V51.1667H715.574ZM716.074 101.833H664.926V102.833H716.074V101.833ZM715.574 665.167V716.333H716.574V665.167H715.574ZM716.074 715.833H664.926V716.833H716.074V715.833ZM1278.2 51.1667V102.333H1279.2V51.1667H1278.2ZM1278.7 101.833H1227.56V102.833H1278.7V101.833ZM1278.2 665.167V716.333H1279.2V665.167H1278.2ZM1278.7 715.833H1227.56V716.833H1278.7V715.833ZM152.944 102.333V153.5H153.944V102.333H152.944ZM153.444 153H102.296V154H153.444V153ZM152.944 716.333V767.5H153.944V716.333H152.944ZM153.444 767H102.296V768H153.444V767ZM715.574 102.333V153.5H716.574V102.333H715.574ZM716.074 153H664.926V154H716.074V153ZM715.574 716.333V767.5H716.574V716.333H715.574ZM716.074 767H664.926V768H716.074V767ZM1278.2 102.333V153.5H1279.2V102.333H1278.2ZM1278.7 153H1227.56V154H1278.7V153ZM1278.2 716.333V767.5H1279.2V716.333H1278.2ZM1278.7 767H1227.56V768H1278.7V767ZM152.944 153.5V204.667H153.944V153.5H152.944ZM153.444 204.167H102.296V205.167H153.444V204.167ZM152.944 767.5V818.667H153.944V767.5H152.944ZM153.444 818.167H102.296V819.167H153.444V818.167ZM715.574 153.5V204.667H716.574V153.5H715.574ZM716.074 204.167H664.926V205.167H716.074V204.167ZM715.574 767.5V818.667H716.574V767.5H715.574ZM716.074 818.167H664.926V819.167H716.074V818.167ZM1278.2 153.5V204.667H1279.2V153.5H1278.2ZM1278.7 204.167H1227.56V205.167H1278.7V204.167ZM1278.2 767.5V818.667H1279.2V767.5H1278.2ZM1278.7 818.167H1227.56V819.167H1278.7V818.167ZM152.944 204.667V255.833H153.944V204.667H152.944ZM153.444 255.333H102.296V256.333H153.444V255.333ZM152.944 818.667V869.833H153.944V818.667H152.944ZM153.444 869.333H102.296V870.333H153.444V869.333ZM715.574 204.667V255.833H716.574V204.667H715.574ZM716.074 255.333H664.926V256.333H716.074V255.333ZM715.574 818.667V869.833H716.574V818.667H715.574ZM716.074 869.333H664.926V870.333H716.074V869.333ZM1278.2 204.667V255.833H1279.2V204.667H1278.2ZM1278.7 255.333H1227.56V256.333H1278.7V255.333ZM1278.2 818.667V869.833H1279.2V818.667H1278.2ZM1278.7 869.333H1227.56V870.333H1278.7V869.333ZM152.944 255.833V307H153.944V255.833H152.944ZM153.444 306.5H102.296V307.5H153.444V306.5ZM152.944 869.833V921H153.944V869.833H152.944ZM153.444 920.5H102.296V921.5H153.444V920.5ZM715.574 255.833V307H716.574V255.833H715.574ZM716.074 306.5H664.926V307.5H716.074V306.5ZM715.574 869.833V921H716.574V869.833H715.574ZM716.074 920.5H664.926V921.5H716.074V920.5ZM1278.2 255.833V307H1279.2V255.833H1278.2ZM1278.7 306.5H1227.56V307.5H1278.7V306.5ZM1278.2 869.833V921H1279.2V869.833H1278.2ZM1278.7 920.5H1227.56V921.5H1278.7V920.5ZM152.944 307V358.167H153.944V307H152.944ZM153.444 357.667H102.296V358.667H153.444V357.667ZM152.944 921V972.167H153.944V921H152.944ZM153.444 971.667H102.296V972.667H153.444V971.667ZM715.574 307V358.167H716.574V307H715.574ZM716.074 357.667H664.926V358.667H716.074V357.667ZM715.574 921V972.167H716.574V921H715.574ZM716.074 971.667H664.926V972.667H716.074V971.667ZM1278.2 307V358.167H1279.2V307H1278.2ZM1278.7 357.667H1227.56V358.667H1278.7V357.667ZM1278.2 921V972.167H1279.2V921H1278.2ZM1278.7 971.667H1227.56V972.667H1278.7V971.667ZM152.944 358.167V409.333H153.944V358.167H152.944ZM153.444 408.833H102.296V409.833H153.444V408.833ZM152.944 972.167V1023.33H153.944V972.167H152.944ZM153.444 1022.83H102.296V1023.83H153.444V1022.83ZM715.574 358.167V409.333H716.574V358.167H715.574ZM716.074 408.833H664.926V409.833H716.074V408.833ZM715.574 972.167V1023.33H716.574V972.167H715.574ZM716.074 1022.83H664.926V1023.83H716.074V1022.83ZM1278.2 358.167V409.333H1279.2V358.167H1278.2ZM1278.7 408.833H1227.56V409.833H1278.7V408.833ZM1278.2 972.167V1023.33H1279.2V972.167H1278.2ZM1278.7 1022.83H1227.56V1023.83H1278.7V1022.83ZM152.944 409.333V460.5H153.944V409.333H152.944ZM153.444 460H102.296V461H153.444V460ZM152.944 1023.33V1074.5H153.944V1023.33H152.944ZM153.444 1074H102.296V1075H153.444V1074ZM715.574 409.333V460.5H716.574V409.333H715.574ZM716.074 460H664.926V461H716.074V460ZM715.574 1023.33V1074.5H716.574V1023.33H715.574ZM716.074 1074H664.926V1075H716.074V1074ZM1278.2 409.333V460.5H1279.2V409.333H1278.2ZM1278.7 460H1227.56V461H1278.7V460ZM1278.2 1023.33V1074.5H1279.2V1023.33H1278.2ZM1278.7 1074H1227.56V1075H1278.7V1074ZM152.944 460.5V511.667H153.944V460.5H152.944ZM153.444 511.167H102.296V512.167H153.444V511.167ZM152.944 1074.5V1125.67H153.944V1074.5H152.944ZM153.444 1125.17H102.296V1126.17H153.444V1125.17ZM715.574 460.5V511.667H716.574V460.5H715.574ZM716.074 511.167H664.926V512.167H716.074V511.167ZM715.574 1074.5V1125.67H716.574V1074.5H715.574ZM716.074 1125.17H664.926V1126.17H716.074V1125.17ZM1278.2 460.5V511.667H1279.2V460.5H1278.2ZM1278.7 511.167H1227.56V512.167H1278.7V511.167ZM1278.2 1074.5V1125.67H1279.2V1074.5H1278.2ZM1278.7 1125.17H1227.56V1126.17H1278.7V1125.17ZM152.944 511.667V562.833H153.944V511.667H152.944ZM153.444 562.333H102.296V563.333H153.444V562.333ZM152.944 1125.67V1176.83H153.944V1125.67H152.944ZM153.444 1176.33H102.296V1177.33H153.444V1176.33ZM715.574 511.667V562.833H716.574V511.667H715.574ZM716.074 562.333H664.926V563.333H716.074V562.333ZM715.574 1125.67V1176.83H716.574V1125.67H715.574ZM716.074 1176.33H664.926V1177.33H716.074V1176.33ZM1278.2 511.667V562.833H1279.2V511.667H1278.2ZM1278.7 562.333H1227.56V563.333H1278.7V562.333ZM1278.2 1125.67V1176.83H1279.2V1125.67H1278.2ZM1278.7 1176.33H1227.56V1177.33H1278.7V1176.33ZM152.944 562.833V614H153.944V562.833H152.944ZM152.944 1176.83V1228H153.944V1176.83H152.944ZM715.574 562.833V614H716.574V562.833H715.574ZM715.574 1176.83V1228H716.574V1176.83H715.574ZM1278.2 562.833V614H1279.2V562.833H1278.2ZM1278.2 1176.83V1228H1279.2V1176.83H1278.2ZM204.093 51.1667V102.333H205.093V51.1667H204.093ZM204.593 101.833H153.444V102.833H204.593V101.833ZM204.093 665.167V716.333H205.093V665.167H204.093ZM204.593 715.833H153.444V716.833H204.593V715.833ZM766.722 51.1667V102.333H767.722V51.1667H766.722ZM767.222 101.833H716.074V102.833H767.222V101.833ZM766.722 665.167V716.333H767.722V665.167H766.722ZM767.222 715.833H716.074V716.833H767.222V715.833ZM1329.35 51.1667V102.333H1330.35V51.1667H1329.35ZM1329.85 101.833H1278.7V102.833H1329.85V101.833ZM1329.35 665.167V716.333H1330.35V665.167H1329.35ZM1329.85 715.833H1278.7V716.833H1329.85V715.833ZM204.093 102.333V153.5H205.093V102.333H204.093ZM204.593 153H153.444V154H204.593V153ZM204.093 716.333V767.5H205.093V716.333H204.093ZM204.593 767H153.444V768H204.593V767ZM766.722 102.333V153.5H767.722V102.333H766.722ZM767.222 153H716.074V154H767.222V153ZM766.722 716.333V767.5H767.722V716.333H766.722ZM767.222 767H716.074V768H767.222V767ZM1329.35 102.333V153.5H1330.35V102.333H1329.35ZM1329.85 153H1278.7V154H1329.85V153ZM1329.35 716.333V767.5H1330.35V716.333H1329.35ZM1329.85 767H1278.7V768H1329.85V767ZM204.093 153.5V204.667H205.093V153.5H204.093ZM204.593 204.167H153.444V205.167H204.593V204.167ZM204.093 767.5V818.667H205.093V767.5H204.093ZM204.593 818.167H153.444V819.167H204.593V818.167ZM766.722 153.5V204.667H767.722V153.5H766.722ZM767.222 204.167H716.074V205.167H767.222V204.167ZM766.722 767.5V818.667H767.722V767.5H766.722ZM767.222 818.167H716.074V819.167H767.222V818.167ZM1329.35 153.5V204.667H1330.35V153.5H1329.35ZM1329.85 204.167H1278.7V205.167H1329.85V204.167ZM1329.35 767.5V818.667H1330.35V767.5H1329.35ZM1329.85 818.167H1278.7V819.167H1329.85V818.167ZM204.093 204.667V255.833H205.093V204.667H204.093ZM204.593 255.333H153.444V256.333H204.593V255.333ZM204.093 818.667V869.833H205.093V818.667H204.093ZM204.593 869.333H153.444V870.333H204.593V869.333ZM766.722 204.667V255.833H767.722V204.667H766.722ZM767.222 255.333H716.074V256.333H767.222V255.333ZM766.722 818.667V869.833H767.722V818.667H766.722ZM767.222 869.333H716.074V870.333H767.222V869.333ZM1329.35 204.667V255.833H1330.35V204.667H1329.35ZM1329.85 255.333H1278.7V256.333H1329.85V255.333ZM1329.35 818.667V869.833H1330.35V818.667H1329.35ZM1329.85 869.333H1278.7V870.333H1329.85V869.333ZM204.093 255.833V307H205.093V255.833H204.093ZM204.593 306.5H153.444V307.5H204.593V306.5ZM204.093 869.833V921H205.093V869.833H204.093ZM204.593 920.5H153.444V921.5H204.593V920.5ZM766.722 255.833V307H767.722V255.833H766.722ZM767.222 306.5H716.074V307.5H767.222V306.5ZM766.722 869.833V921H767.722V869.833H766.722ZM767.222 920.5H716.074V921.5H767.222V920.5ZM1329.35 255.833V307H1330.35V255.833H1329.35ZM1329.85 306.5H1278.7V307.5H1329.85V306.5ZM1329.35 869.833V921H1330.35V869.833H1329.35ZM1329.85 920.5H1278.7V921.5H1329.85V920.5ZM204.093 307V358.167H205.093V307H204.093ZM204.593 357.667H153.444V358.667H204.593V357.667ZM204.093 921V972.167H205.093V921H204.093ZM204.593 971.667H153.444V972.667H204.593V971.667ZM766.722 307V358.167H767.722V307H766.722ZM767.222 357.667H716.074V358.667H767.222V357.667ZM766.722 921V972.167H767.722V921H766.722ZM767.222 971.667H716.074V972.667H767.222V971.667ZM1329.35 307V358.167H1330.35V307H1329.35ZM1329.85 357.667H1278.7V358.667H1329.85V357.667ZM1329.35 921V972.167H1330.35V921H1329.35ZM1329.85 971.667H1278.7V972.667H1329.85V971.667ZM204.093 358.167V409.333H205.093V358.167H204.093ZM204.593 408.833H153.444V409.833H204.593V408.833ZM204.093 972.167V1023.33H205.093V972.167H204.093ZM204.593 1022.83H153.444V1023.83H204.593V1022.83ZM766.722 358.167V409.333H767.722V358.167H766.722ZM767.222 408.833H716.074V409.833H767.222V408.833ZM766.722 972.167V1023.33H767.722V972.167H766.722ZM767.222 1022.83H716.074V1023.83H767.222V1022.83ZM1329.35 358.167V409.333H1330.35V358.167H1329.35ZM1329.85 408.833H1278.7V409.833H1329.85V408.833ZM1329.35 972.167V1023.33H1330.35V972.167H1329.35ZM1329.85 1022.83H1278.7V1023.83H1329.85V1022.83ZM204.093 409.333V460.5H205.093V409.333H204.093ZM204.593 460H153.444V461H204.593V460ZM204.093 1023.33V1074.5H205.093V1023.33H204.093ZM204.593 1074H153.444V1075H204.593V1074ZM766.722 409.333V460.5H767.722V409.333H766.722ZM767.222 460H716.074V461H767.222V460ZM766.722 1023.33V1074.5H767.722V1023.33H766.722ZM767.222 1074H716.074V1075H767.222V1074ZM1329.35 409.333V460.5H1330.35V409.333H1329.35ZM1329.85 460H1278.7V461H1329.85V460ZM1329.35 1023.33V1074.5H1330.35V1023.33H1329.35ZM1329.85 1074H1278.7V1075H1329.85V1074ZM204.093 460.5V511.667H205.093V460.5H204.093ZM204.593 511.167H153.444V512.167H204.593V511.167ZM204.093 1074.5V1125.67H205.093V1074.5H204.093ZM204.593 1125.17H153.444V1126.17H204.593V1125.17ZM766.722 460.5V511.667H767.722V460.5H766.722ZM767.222 511.167H716.074V512.167H767.222V511.167ZM766.722 1074.5V1125.67H767.722V1074.5H766.722ZM767.222 1125.17H716.074V1126.17H767.222V1125.17ZM1329.35 460.5V511.667H1330.35V460.5H1329.35ZM1329.85 511.167H1278.7V512.167H1329.85V511.167ZM1329.35 1074.5V1125.67H1330.35V1074.5H1329.35ZM1329.85 1125.17H1278.7V1126.17H1329.85V1125.17ZM204.093 511.667V562.833H205.093V511.667H204.093ZM204.593 562.333H153.444V563.333H204.593V562.333ZM204.093 1125.67V1176.83H205.093V1125.67H204.093ZM204.593 1176.33H153.444V1177.33H204.593V1176.33ZM766.722 511.667V562.833H767.722V511.667H766.722ZM767.222 562.333H716.074V563.333H767.222V562.333ZM766.722 1125.67V1176.83H767.722V1125.67H766.722ZM767.222 1176.33H716.074V1177.33H767.222V1176.33ZM1329.35 511.667V562.833H1330.35V511.667H1329.35ZM1329.85 562.333H1278.7V563.333H1329.85V562.333ZM1329.35 1125.67V1176.83H1330.35V1125.67H1329.35ZM1329.85 1176.33H1278.7V1177.33H1329.85V1176.33ZM204.093 562.833V614H205.093V562.833H204.093ZM204.093 1176.83V1228H205.093V1176.83H204.093ZM766.722 562.833V614H767.722V562.833H766.722ZM766.722 1176.83V1228H767.722V1176.83H766.722ZM1329.35 562.833V614H1330.35V562.833H1329.35ZM1329.35 1176.83V1228H1330.35V1176.83H1329.35ZM255.241 51.1667V102.333H256.241V51.1667H255.241ZM255.741 101.833H204.593V102.833H255.741V101.833ZM255.241 665.167V716.333H256.241V665.167H255.241ZM255.741 715.833H204.593V716.833H255.741V715.833ZM817.87 51.1667V102.333H818.87V51.1667H817.87ZM818.37 101.833H767.222V102.833H818.37V101.833ZM817.87 665.167V716.333H818.87V665.167H817.87ZM818.37 715.833H767.222V716.833H818.37V715.833ZM1381 101.833H1329.85V102.833H1381V101.833ZM1381 715.833H1329.85V716.833H1381V715.833ZM255.241 102.333V153.5H256.241V102.333H255.241ZM255.741 153H204.593V154H255.741V153ZM255.241 716.333V767.5H256.241V716.333H255.241ZM255.741 767H204.593V768H255.741V767ZM817.87 102.333V153.5H818.87V102.333H817.87ZM818.37 153H767.222V154H818.37V153ZM817.87 716.333V767.5H818.87V716.333H817.87ZM818.37 767H767.222V768H818.37V767ZM1381 153H1329.85V154H1381V153ZM1381 767H1329.85V768H1381V767ZM255.241 153.5V204.667H256.241V153.5H255.241ZM255.741 204.167H204.593V205.167H255.741V204.167ZM255.241 767.5V818.667H256.241V767.5H255.241ZM255.741 818.167H204.593V819.167H255.741V818.167ZM817.87 153.5V204.667H818.87V153.5H817.87ZM818.37 204.167H767.222V205.167H818.37V204.167ZM817.87 767.5V818.667H818.87V767.5H817.87ZM818.37 818.167H767.222V819.167H818.37V818.167ZM1381 204.167H1329.85V205.167H1381V204.167ZM1381 818.167H1329.85V819.167H1381V818.167ZM255.241 204.667V255.833H256.241V204.667H255.241ZM255.741 255.333H204.593V256.333H255.741V255.333ZM255.241 818.667V869.833H256.241V818.667H255.241ZM255.741 869.333H204.593V870.333H255.741V869.333ZM817.87 204.667V255.833H818.87V204.667H817.87ZM818.37 255.333H767.222V256.333H818.37V255.333ZM817.87 818.667V869.833H818.87V818.667H817.87ZM818.37 869.333H767.222V870.333H818.37V869.333ZM1381 255.333H1329.85V256.333H1381V255.333ZM1381 869.333H1329.85V870.333H1381V869.333ZM255.241 255.833V307H256.241V255.833H255.241ZM255.741 306.5H204.593V307.5H255.741V306.5ZM255.241 869.833V921H256.241V869.833H255.241ZM255.741 920.5H204.593V921.5H255.741V920.5ZM817.87 255.833V307H818.87V255.833H817.87ZM818.37 306.5H767.222V307.5H818.37V306.5ZM817.87 869.833V921H818.87V869.833H817.87ZM818.37 920.5H767.222V921.5H818.37V920.5ZM1381 306.5H1329.85V307.5H1381V306.5ZM1381 920.5H1329.85V921.5H1381V920.5ZM255.241 307V358.167H256.241V307H255.241ZM255.741 357.667H204.593V358.667H255.741V357.667ZM255.241 921V972.167H256.241V921H255.241ZM255.741 971.667H204.593V972.667H255.741V971.667ZM817.87 307V358.167H818.87V307H817.87ZM818.37 357.667H767.222V358.667H818.37V357.667ZM817.87 921V972.167H818.87V921H817.87ZM818.37 971.667H767.222V972.667H818.37V971.667ZM1381 357.667H1329.85V358.667H1381V357.667ZM1381 971.667H1329.85V972.667H1381V971.667ZM255.241 358.167V409.333H256.241V358.167H255.241ZM255.741 408.833H204.593V409.833H255.741V408.833ZM255.241 972.167V1023.33H256.241V972.167H255.241ZM255.741 1022.83H204.593V1023.83H255.741V1022.83ZM817.87 358.167V409.333H818.87V358.167H817.87ZM818.37 408.833H767.222V409.833H818.37V408.833ZM817.87 972.167V1023.33H818.87V972.167H817.87ZM818.37 1022.83H767.222V1023.83H818.37V1022.83ZM1381 408.833H1329.85V409.833H1381V408.833ZM1381 1022.83H1329.85V1023.83H1381V1022.83ZM255.241 409.333V460.5H256.241V409.333H255.241ZM255.741 460H204.593V461H255.741V460ZM255.241 1023.33V1074.5H256.241V1023.33H255.241ZM255.741 1074H204.593V1075H255.741V1074ZM817.87 409.333V460.5H818.87V409.333H817.87ZM818.37 460H767.222V461H818.37V460ZM817.87 1023.33V1074.5H818.87V1023.33H817.87ZM818.37 1074H767.222V1075H818.37V1074ZM1381 460H1329.85V461H1381V460ZM1381 1074H1329.85V1075H1381V1074ZM255.241 460.5V511.667H256.241V460.5H255.241ZM255.741 511.167H204.593V512.167H255.741V511.167ZM255.241 1074.5V1125.67H256.241V1074.5H255.241ZM255.741 1125.17H204.593V1126.17H255.741V1125.17ZM817.87 460.5V511.667H818.87V460.5H817.87ZM818.37 511.167H767.222V512.167H818.37V511.167ZM817.87 1074.5V1125.67H818.87V1074.5H817.87ZM818.37 1125.17H767.222V1126.17H818.37V1125.17ZM1381 511.167H1329.85V512.167H1381V511.167ZM1381 1125.17H1329.85V1126.17H1381V1125.17ZM255.241 511.667V562.833H256.241V511.667H255.241ZM255.741 562.333H204.593V563.333H255.741V562.333ZM255.241 1125.67V1176.83H256.241V1125.67H255.241ZM255.741 1176.33H204.593V1177.33H255.741V1176.33ZM817.87 511.667V562.833H818.87V511.667H817.87ZM818.37 562.333H767.222V563.333H818.37V562.333ZM817.87 1125.67V1176.83H818.87V1125.67H817.87ZM818.37 1176.33H767.222V1177.33H818.37V1176.33ZM1381 562.333H1329.85V563.333H1381V562.333ZM1381 1176.33H1329.85V1177.33H1381V1176.33ZM255.241 562.833V614H256.241V562.833H255.241ZM255.241 1176.83V1228H256.241V1176.83H255.241ZM817.87 562.833V614H818.87V562.833H817.87ZM817.87 1176.83V1228H818.87V1176.83H817.87ZM306.389 51.1667V102.333H307.389V51.1667H306.389ZM306.889 101.833H255.741V102.833H306.889V101.833ZM306.389 665.167V716.333H307.389V665.167H306.389ZM306.889 715.833H255.741V716.833H306.889V715.833ZM869.018 51.1667V102.333H870.018V51.1667H869.018ZM869.518 101.833H818.37V102.833H869.518V101.833ZM869.018 665.167V716.333H870.018V665.167H869.018ZM869.518 715.833H818.37V716.833H869.518V715.833ZM306.389 102.333V153.5H307.389V102.333H306.389ZM306.889 153H255.741V154H306.889V153ZM306.389 716.333V767.5H307.389V716.333H306.389ZM306.889 767H255.741V768H306.889V767ZM869.018 102.333V153.5H870.018V102.333H869.018ZM869.518 153H818.37V154H869.518V153ZM869.018 716.333V767.5H870.018V716.333H869.018ZM869.518 767H818.37V768H869.518V767ZM306.389 153.5V204.667H307.389V153.5H306.389ZM306.889 204.167H255.741V205.167H306.889V204.167ZM306.389 767.5V818.667H307.389V767.5H306.389ZM306.889 818.167H255.741V819.167H306.889V818.167ZM869.018 153.5V204.667H870.018V153.5H869.018ZM869.518 204.167H818.37V205.167H869.518V204.167ZM869.018 767.5V818.667H870.018V767.5H869.018ZM869.518 818.167H818.37V819.167H869.518V818.167ZM306.389 204.667V255.833H307.389V204.667H306.389ZM306.889 255.333H255.741V256.333H306.889V255.333ZM306.389 818.667V869.833H307.389V818.667H306.389ZM306.889 869.333H255.741V870.333H306.889V869.333ZM869.018 204.667V255.833H870.018V204.667H869.018ZM869.518 255.333H818.37V256.333H869.518V255.333ZM869.018 818.667V869.833H870.018V818.667H869.018ZM869.518 869.333H818.37V870.333H869.518V869.333ZM306.389 255.833V307H307.389V255.833H306.389ZM306.889 306.5H255.741V307.5H306.889V306.5ZM306.389 869.833V921H307.389V869.833H306.389ZM306.889 920.5H255.741V921.5H306.889V920.5ZM869.018 255.833V307H870.018V255.833H869.018ZM869.518 306.5H818.37V307.5H869.518V306.5ZM869.018 869.833V921H870.018V869.833H869.018ZM869.518 920.5H818.37V921.5H869.518V920.5ZM306.389 307V358.167H307.389V307H306.389ZM306.889 357.667H255.741V358.667H306.889V357.667ZM306.389 921V972.167H307.389V921H306.389ZM306.889 971.667H255.741V972.667H306.889V971.667ZM869.018 307V358.167H870.018V307H869.018ZM869.518 357.667H818.37V358.667H869.518V357.667ZM869.018 921V972.167H870.018V921H869.018ZM869.518 971.667H818.37V972.667H869.518V971.667ZM306.389 358.167V409.333H307.389V358.167H306.389ZM306.889 408.833H255.741V409.833H306.889V408.833ZM306.389 972.167V1023.33H307.389V972.167H306.389ZM306.889 1022.83H255.741V1023.83H306.889V1022.83ZM869.018 358.167V409.333H870.018V358.167H869.018ZM869.518 408.833H818.37V409.833H869.518V408.833ZM869.018 972.167V1023.33H870.018V972.167H869.018ZM869.518 1022.83H818.37V1023.83H869.518V1022.83ZM306.389 409.333V460.5H307.389V409.333H306.389ZM306.889 460H255.741V461H306.889V460ZM306.389 1023.33V1074.5H307.389V1023.33H306.389ZM306.889 1074H255.741V1075H306.889V1074ZM869.018 409.333V460.5H870.018V409.333H869.018ZM869.518 460H818.37V461H869.518V460ZM869.018 1023.33V1074.5H870.018V1023.33H869.018ZM869.518 1074H818.37V1075H869.518V1074ZM306.389 460.5V511.667H307.389V460.5H306.389ZM306.889 511.167H255.741V512.167H306.889V511.167ZM306.389 1074.5V1125.67H307.389V1074.5H306.389ZM306.889 1125.17H255.741V1126.17H306.889V1125.17ZM869.018 460.5V511.667H870.018V460.5H869.018ZM869.518 511.167H818.37V512.167H869.518V511.167ZM869.018 1074.5V1125.67H870.018V1074.5H869.018ZM869.518 1125.17H818.37V1126.17H869.518V1125.17ZM306.389 511.667V562.833H307.389V511.667H306.389ZM306.889 562.333H255.741V563.333H306.889V562.333ZM306.389 1125.67V1176.83H307.389V1125.67H306.389ZM306.889 1176.33H255.741V1177.33H306.889V1176.33ZM869.018 511.667V562.833H870.018V511.667H869.018ZM869.518 562.333H818.37V563.333H869.518V562.333ZM869.018 1125.67V1176.83H870.018V1125.67H869.018ZM869.518 1176.33H818.37V1177.33H869.518V1176.33ZM306.389 562.833V614H307.389V562.833H306.389ZM306.389 1176.83V1228H307.389V1176.83H306.389ZM869.018 562.833V614H870.018V562.833H869.018ZM869.018 1176.83V1228H870.018V1176.83H869.018ZM357.537 51.1667V102.333H358.537V51.1667H357.537ZM358.037 101.833H306.889V102.833H358.037V101.833ZM357.537 665.167V716.333H358.537V665.167H357.537ZM358.037 715.833H306.889V716.833H358.037V715.833ZM920.167 51.1667V102.333H921.167V51.1667H920.167ZM920.667 101.833H869.518V102.833H920.667V101.833ZM920.167 665.167V716.333H921.167V665.167H920.167ZM920.667 715.833H869.518V716.833H920.667V715.833ZM357.537 102.333V153.5H358.537V102.333H357.537ZM358.037 153H306.889V154H358.037V153ZM357.537 716.333V767.5H358.537V716.333H357.537ZM358.037 767H306.889V768H358.037V767ZM920.167 102.333V153.5H921.167V102.333H920.167ZM920.667 153H869.518V154H920.667V153ZM920.167 716.333V767.5H921.167V716.333H920.167ZM920.667 767H869.518V768H920.667V767ZM357.537 153.5V204.667H358.537V153.5H357.537ZM358.037 204.167H306.889V205.167H358.037V204.167ZM357.537 767.5V818.667H358.537V767.5H357.537ZM358.037 818.167H306.889V819.167H358.037V818.167ZM920.167 153.5V204.667H921.167V153.5H920.167ZM920.667 204.167H869.518V205.167H920.667V204.167ZM920.167 767.5V818.667H921.167V767.5H920.167ZM920.667 818.167H869.518V819.167H920.667V818.167ZM357.537 204.667V255.833H358.537V204.667H357.537ZM358.037 255.333H306.889V256.333H358.037V255.333ZM357.537 818.667V869.833H358.537V818.667H357.537ZM358.037 869.333H306.889V870.333H358.037V869.333ZM920.167 204.667V255.833H921.167V204.667H920.167ZM920.667 255.333H869.518V256.333H920.667V255.333ZM920.167 818.667V869.833H921.167V818.667H920.167ZM920.667 869.333H869.518V870.333H920.667V869.333ZM357.537 255.833V307H358.537V255.833H357.537ZM358.037 306.5H306.889V307.5H358.037V306.5ZM357.537 869.833V921H358.537V869.833H357.537ZM358.037 920.5H306.889V921.5H358.037V920.5ZM920.167 255.833V307H921.167V255.833H920.167ZM920.667 306.5H869.518V307.5H920.667V306.5ZM920.167 869.833V921H921.167V869.833H920.167ZM920.667 920.5H869.518V921.5H920.667V920.5ZM357.537 307V358.167H358.537V307H357.537ZM358.037 357.667H306.889V358.667H358.037V357.667ZM357.537 921V972.167H358.537V921H357.537ZM358.037 971.667H306.889V972.667H358.037V971.667ZM920.167 307V358.167H921.167V307H920.167ZM920.667 357.667H869.518V358.667H920.667V357.667ZM920.167 921V972.167H921.167V921H920.167ZM920.667 971.667H869.518V972.667H920.667V971.667ZM357.537 358.167V409.333H358.537V358.167H357.537ZM358.037 408.833H306.889V409.833H358.037V408.833ZM357.537 972.167V1023.33H358.537V972.167H357.537ZM358.037 1022.83H306.889V1023.83H358.037V1022.83ZM920.167 358.167V409.333H921.167V358.167H920.167ZM920.667 408.833H869.518V409.833H920.667V408.833ZM920.167 972.167V1023.33H921.167V972.167H920.167ZM920.667 1022.83H869.518V1023.83H920.667V1022.83ZM357.537 409.333V460.5H358.537V409.333H357.537ZM358.037 460H306.889V461H358.037V460ZM357.537 1023.33V1074.5H358.537V1023.33H357.537ZM358.037 1074H306.889V1075H358.037V1074ZM920.167 409.333V460.5H921.167V409.333H920.167ZM920.667 460H869.518V461H920.667V460ZM920.167 1023.33V1074.5H921.167V1023.33H920.167ZM920.667 1074H869.518V1075H920.667V1074ZM357.537 460.5V511.667H358.537V460.5H357.537ZM358.037 511.167H306.889V512.167H358.037V511.167ZM357.537 1074.5V1125.67H358.537V1074.5H357.537ZM358.037 1125.17H306.889V1126.17H358.037V1125.17ZM920.167 460.5V511.667H921.167V460.5H920.167ZM920.667 511.167H869.518V512.167H920.667V511.167ZM920.167 1074.5V1125.67H921.167V1074.5H920.167ZM920.667 1125.17H869.518V1126.17H920.667V1125.17ZM357.537 511.667V562.833H358.537V511.667H357.537ZM358.037 562.333H306.889V563.333H358.037V562.333ZM357.537 1125.67V1176.83H358.537V1125.67H357.537ZM358.037 1176.33H306.889V1177.33H358.037V1176.33ZM920.167 511.667V562.833H921.167V511.667H920.167ZM920.667 562.333H869.518V563.333H920.667V562.333ZM920.167 1125.67V1176.83H921.167V1125.67H920.167ZM920.667 1176.33H869.518V1177.33H920.667V1176.33ZM357.537 562.833V614H358.537V562.833H357.537ZM357.537 1176.83V1228H358.537V1176.83H357.537ZM920.167 562.833V614H921.167V562.833H920.167ZM920.167 1176.83V1228H921.167V1176.83H920.167ZM408.685 51.1667V102.333H409.685V51.1667H408.685ZM409.185 101.833H358.037V102.833H409.185V101.833ZM408.685 665.167V716.333H409.685V665.167H408.685ZM409.185 715.833H358.037V716.833H409.185V715.833ZM971.315 51.1667V102.333H972.315V51.1667H971.315ZM971.815 101.833H920.667V102.833H971.815V101.833ZM971.315 665.167V716.333H972.315V665.167H971.315ZM971.815 715.833H920.667V716.833H971.815V715.833ZM408.685 102.333V153.5H409.685V102.333H408.685ZM409.185 153H358.037V154H409.185V153ZM408.685 716.333V767.5H409.685V716.333H408.685ZM409.185 767H358.037V768H409.185V767ZM971.315 102.333V153.5H972.315V102.333H971.315ZM971.815 153H920.667V154H971.815V153ZM971.315 716.333V767.5H972.315V716.333H971.315ZM971.815 767H920.667V768H971.815V767ZM408.685 153.5V204.667H409.685V153.5H408.685ZM409.185 204.167H358.037V205.167H409.185V204.167ZM408.685 767.5V818.667H409.685V767.5H408.685ZM409.185 818.167H358.037V819.167H409.185V818.167ZM971.315 153.5V204.667H972.315V153.5H971.315ZM971.815 204.167H920.667V205.167H971.815V204.167ZM971.315 767.5V818.667H972.315V767.5H971.315ZM971.815 818.167H920.667V819.167H971.815V818.167ZM408.685 204.667V255.833H409.685V204.667H408.685ZM409.185 255.333H358.037V256.333H409.185V255.333ZM408.685 818.667V869.833H409.685V818.667H408.685ZM409.185 869.333H358.037V870.333H409.185V869.333ZM971.315 204.667V255.833H972.315V204.667H971.315ZM971.815 255.333H920.667V256.333H971.815V255.333ZM971.315 818.667V869.833H972.315V818.667H971.315ZM971.815 869.333H920.667V870.333H971.815V869.333ZM408.685 255.833V307H409.685V255.833H408.685ZM409.185 306.5H358.037V307.5H409.185V306.5ZM408.685 869.833V921H409.685V869.833H408.685ZM409.185 920.5H358.037V921.5H409.185V920.5ZM971.315 255.833V307H972.315V255.833H971.315ZM971.815 306.5H920.667V307.5H971.815V306.5ZM971.315 869.833V921H972.315V869.833H971.315ZM971.815 920.5H920.667V921.5H971.815V920.5ZM408.685 307V358.167H409.685V307H408.685ZM409.185 357.667H358.037V358.667H409.185V357.667ZM408.685 921V972.167H409.685V921H408.685ZM409.185 971.667H358.037V972.667H409.185V971.667ZM971.315 307V358.167H972.315V307H971.315ZM971.815 357.667H920.667V358.667H971.815V357.667ZM971.315 921V972.167H972.315V921H971.315ZM971.815 971.667H920.667V972.667H971.815V971.667ZM408.685 358.167V409.333H409.685V358.167H408.685ZM409.185 408.833H358.037V409.833H409.185V408.833ZM408.685 972.167V1023.33H409.685V972.167H408.685ZM409.185 1022.83H358.037V1023.83H409.185V1022.83ZM971.315 358.167V409.333H972.315V358.167H971.315ZM971.815 408.833H920.667V409.833H971.815V408.833ZM971.315 972.167V1023.33H972.315V972.167H971.315ZM971.815 1022.83H920.667V1023.83H971.815V1022.83ZM408.685 409.333V460.5H409.685V409.333H408.685ZM409.185 460H358.037V461H409.185V460ZM408.685 1023.33V1074.5H409.685V1023.33H408.685ZM409.185 1074H358.037V1075H409.185V1074ZM971.315 409.333V460.5H972.315V409.333H971.315ZM971.815 460H920.667V461H971.815V460ZM971.315 1023.33V1074.5H972.315V1023.33H971.315ZM971.815 1074H920.667V1075H971.815V1074ZM408.685 460.5V511.667H409.685V460.5H408.685ZM409.185 511.167H358.037V512.167H409.185V511.167ZM408.685 1074.5V1125.67H409.685V1074.5H408.685ZM409.185 1125.17H358.037V1126.17H409.185V1125.17ZM971.315 460.5V511.667H972.315V460.5H971.315ZM971.815 511.167H920.667V512.167H971.815V511.167ZM971.315 1074.5V1125.67H972.315V1074.5H971.315ZM971.815 1125.17H920.667V1126.17H971.815V1125.17ZM408.685 511.667V562.833H409.685V511.667H408.685ZM409.185 562.333H358.037V563.333H409.185V562.333ZM408.685 1125.67V1176.83H409.685V1125.67H408.685ZM409.185 1176.33H358.037V1177.33H409.185V1176.33ZM971.315 511.667V562.833H972.315V511.667H971.315ZM971.815 562.333H920.667V563.333H971.815V562.333ZM971.315 1125.67V1176.83H972.315V1125.67H971.315ZM971.815 1176.33H920.667V1177.33H971.815V1176.33ZM408.685 562.833V614H409.685V562.833H408.685ZM408.685 1176.83V1228H409.685V1176.83H408.685ZM971.315 562.833V614H972.315V562.833H971.315ZM971.315 1176.83V1228H972.315V1176.83H971.315ZM459.833 51.1667V102.333H460.833V51.1667H459.833ZM460.333 101.833H409.185V102.833H460.333V101.833ZM459.833 665.167V716.333H460.833V665.167H459.833ZM460.333 715.833H409.185V716.833H460.333V715.833ZM1022.46 51.1667V102.333H1023.46V51.1667H1022.46ZM1022.96 101.833H971.815V102.833H1022.96V101.833ZM1022.46 665.167V716.333H1023.46V665.167H1022.46ZM1022.96 715.833H971.815V716.833H1022.96V715.833ZM459.833 102.333V153.5H460.833V102.333H459.833ZM460.333 153H409.185V154H460.333V153ZM459.833 716.333V767.5H460.833V716.333H459.833ZM460.333 767H409.185V768H460.333V767ZM1022.46 102.333V153.5H1023.46V102.333H1022.46ZM1022.96 153H971.815V154H1022.96V153ZM1022.46 716.333V767.5H1023.46V716.333H1022.46ZM1022.96 767H971.815V768H1022.96V767ZM459.833 153.5V204.667H460.833V153.5H459.833ZM460.333 204.167H409.185V205.167H460.333V204.167ZM459.833 767.5V818.667H460.833V767.5H459.833ZM460.333 818.167H409.185V819.167H460.333V818.167ZM1022.46 153.5V204.667H1023.46V153.5H1022.46ZM1022.96 204.167H971.815V205.167H1022.96V204.167ZM1022.46 767.5V818.667H1023.46V767.5H1022.46ZM1022.96 818.167H971.815V819.167H1022.96V818.167ZM459.833 204.667V255.833H460.833V204.667H459.833ZM460.333 255.333H409.185V256.333H460.333V255.333ZM459.833 818.667V869.833H460.833V818.667H459.833ZM460.333 869.333H409.185V870.333H460.333V869.333ZM1022.46 204.667V255.833H1023.46V204.667H1022.46ZM1022.96 255.333H971.815V256.333H1022.96V255.333ZM1022.46 818.667V869.833H1023.46V818.667H1022.46ZM1022.96 869.333H971.815V870.333H1022.96V869.333ZM459.833 255.833V307H460.833V255.833H459.833ZM460.333 306.5H409.185V307.5H460.333V306.5ZM459.833 869.833V921H460.833V869.833H459.833ZM460.333 920.5H409.185V921.5H460.333V920.5ZM1022.46 255.833V307H1023.46V255.833H1022.46ZM1022.96 306.5H971.815V307.5H1022.96V306.5ZM1022.46 869.833V921H1023.46V869.833H1022.46ZM1022.96 920.5H971.815V921.5H1022.96V920.5ZM459.833 307V358.167H460.833V307H459.833ZM460.333 357.667H409.185V358.667H460.333V357.667ZM459.833 921V972.167H460.833V921H459.833ZM460.333 971.667H409.185V972.667H460.333V971.667ZM1022.46 307V358.167H1023.46V307H1022.46ZM1022.96 357.667H971.815V358.667H1022.96V357.667ZM1022.46 921V972.167H1023.46V921H1022.46ZM1022.96 971.667H971.815V972.667H1022.96V971.667ZM459.833 358.167V409.333H460.833V358.167H459.833ZM460.333 408.833H409.185V409.833H460.333V408.833ZM459.833 972.167V1023.33H460.833V972.167H459.833ZM460.333 1022.83H409.185V1023.83H460.333V1022.83ZM1022.46 358.167V409.333H1023.46V358.167H1022.46ZM1022.96 408.833H971.815V409.833H1022.96V408.833ZM1022.46 972.167V1023.33H1023.46V972.167H1022.46ZM1022.96 1022.83H971.815V1023.83H1022.96V1022.83ZM459.833 409.333V460.5H460.833V409.333H459.833ZM460.333 460H409.185V461H460.333V460ZM459.833 1023.33V1074.5H460.833V1023.33H459.833ZM460.333 1074H409.185V1075H460.333V1074ZM1022.46 409.333V460.5H1023.46V409.333H1022.46ZM1022.96 460H971.815V461H1022.96V460ZM1022.46 1023.33V1074.5H1023.46V1023.33H1022.46ZM1022.96 1074H971.815V1075H1022.96V1074ZM459.833 460.5V511.667H460.833V460.5H459.833ZM460.333 511.167H409.185V512.167H460.333V511.167ZM459.833 1074.5V1125.67H460.833V1074.5H459.833ZM460.333 1125.17H409.185V1126.17H460.333V1125.17ZM1022.46 460.5V511.667H1023.46V460.5H1022.46ZM1022.96 511.167H971.815V512.167H1022.96V511.167ZM1022.46 1074.5V1125.67H1023.46V1074.5H1022.46ZM1022.96 1125.17H971.815V1126.17H1022.96V1125.17ZM459.833 511.667V562.833H460.833V511.667H459.833ZM460.333 562.333H409.185V563.333H460.333V562.333ZM459.833 1125.67V1176.83H460.833V1125.67H459.833ZM460.333 1176.33H409.185V1177.33H460.333V1176.33ZM1022.46 511.667V562.833H1023.46V511.667H1022.46ZM1022.96 562.333H971.815V563.333H1022.96V562.333ZM1022.46 1125.67V1176.83H1023.46V1125.67H1022.46ZM1022.96 1176.33H971.815V1177.33H1022.96V1176.33ZM459.833 562.833V614H460.833V562.833H459.833ZM459.833 1176.83V1228H460.833V1176.83H459.833ZM1022.46 562.833V614H1023.46V562.833H1022.46ZM1022.46 1176.83V1228H1023.46V1176.83H1022.46ZM510.981 51.1667V102.333H511.981V51.1667H510.981ZM511.481 101.833H460.333V102.833H511.481V101.833ZM510.981 665.167V716.333H511.981V665.167H510.981ZM511.481 715.833H460.333V716.833H511.481V715.833ZM1073.61 51.1667V102.333H1074.61V51.1667H1073.61ZM1074.11 101.833H1022.96V102.833H1074.11V101.833ZM1073.61 665.167V716.333H1074.61V665.167H1073.61ZM1074.11 715.833H1022.96V716.833H1074.11V715.833ZM510.981 102.333V153.5H511.981V102.333H510.981ZM511.481 153H460.333V154H511.481V153ZM510.981 716.333V767.5H511.981V716.333H510.981ZM511.481 767H460.333V768H511.481V767ZM1073.61 102.333V153.5H1074.61V102.333H1073.61ZM1074.11 153H1022.96V154H1074.11V153ZM1073.61 716.333V767.5H1074.61V716.333H1073.61ZM1074.11 767H1022.96V768H1074.11V767ZM510.981 153.5V204.667H511.981V153.5H510.981ZM511.481 204.167H460.333V205.167H511.481V204.167ZM510.981 767.5V818.667H511.981V767.5H510.981ZM511.481 818.167H460.333V819.167H511.481V818.167ZM1073.61 153.5V204.667H1074.61V153.5H1073.61ZM1074.11 204.167H1022.96V205.167H1074.11V204.167ZM1073.61 767.5V818.667H1074.61V767.5H1073.61ZM1074.11 818.167H1022.96V819.167H1074.11V818.167ZM510.981 204.667V255.833H511.981V204.667H510.981ZM511.481 255.333H460.333V256.333H511.481V255.333ZM510.981 818.667V869.833H511.981V818.667H510.981ZM511.481 869.333H460.333V870.333H511.481V869.333ZM1073.61 204.667V255.833H1074.61V204.667H1073.61ZM1074.11 255.333H1022.96V256.333H1074.11V255.333ZM1073.61 818.667V869.833H1074.61V818.667H1073.61ZM1074.11 869.333H1022.96V870.333H1074.11V869.333ZM510.981 255.833V307H511.981V255.833H510.981ZM511.481 306.5H460.333V307.5H511.481V306.5ZM510.981 869.833V921H511.981V869.833H510.981ZM511.481 920.5H460.333V921.5H511.481V920.5ZM1073.61 255.833V307H1074.61V255.833H1073.61ZM1074.11 306.5H1022.96V307.5H1074.11V306.5ZM1073.61 869.833V921H1074.61V869.833H1073.61ZM1074.11 920.5H1022.96V921.5H1074.11V920.5ZM510.981 307V358.167H511.981V307H510.981ZM511.481 357.667H460.333V358.667H511.481V357.667ZM510.981 921V972.167H511.981V921H510.981ZM511.481 971.667H460.333V972.667H511.481V971.667ZM1073.61 307V358.167H1074.61V307H1073.61ZM1074.11 357.667H1022.96V358.667H1074.11V357.667ZM1073.61 921V972.167H1074.61V921H1073.61ZM1074.11 971.667H1022.96V972.667H1074.11V971.667ZM510.981 358.167V409.333H511.981V358.167H510.981ZM511.481 408.833H460.333V409.833H511.481V408.833ZM510.981 972.167V1023.33H511.981V972.167H510.981ZM511.481 1022.83H460.333V1023.83H511.481V1022.83ZM1073.61 358.167V409.333H1074.61V358.167H1073.61ZM1074.11 408.833H1022.96V409.833H1074.11V408.833ZM1073.61 972.167V1023.33H1074.61V972.167H1073.61ZM1074.11 1022.83H1022.96V1023.83H1074.11V1022.83ZM510.981 409.333V460.5H511.981V409.333H510.981ZM511.481 460H460.333V461H511.481V460ZM510.981 1023.33V1074.5H511.981V1023.33H510.981ZM511.481 1074H460.333V1075H511.481V1074ZM1073.61 409.333V460.5H1074.61V409.333H1073.61ZM1074.11 460H1022.96V461H1074.11V460ZM1073.61 1023.33V1074.5H1074.61V1023.33H1073.61ZM1074.11 1074H1022.96V1075H1074.11V1074ZM510.981 460.5V511.667H511.981V460.5H510.981ZM511.481 511.167H460.333V512.167H511.481V511.167ZM510.981 1074.5V1125.67H511.981V1074.5H510.981ZM511.481 1125.17H460.333V1126.17H511.481V1125.17ZM1073.61 460.5V511.667H1074.61V460.5H1073.61ZM1074.11 511.167H1022.96V512.167H1074.11V511.167ZM1073.61 1074.5V1125.67H1074.61V1074.5H1073.61ZM1074.11 1125.17H1022.96V1126.17H1074.11V1125.17ZM510.981 511.667V562.833H511.981V511.667H510.981ZM511.481 562.333H460.333V563.333H511.481V562.333ZM510.981 1125.67V1176.83H511.981V1125.67H510.981ZM511.481 1176.33H460.333V1177.33H511.481V1176.33ZM1073.61 511.667V562.833H1074.61V511.667H1073.61ZM1074.11 562.333H1022.96V563.333H1074.11V562.333ZM1073.61 1125.67V1176.83H1074.61V1125.67H1073.61ZM1074.11 1176.33H1022.96V1177.33H1074.11V1176.33ZM510.981 562.833V614H511.981V562.833H510.981ZM510.981 1176.83V1228H511.981V1176.83H510.981ZM1073.61 562.833V614H1074.61V562.833H1073.61ZM1073.61 1176.83V1228H1074.61V1176.83H1073.61ZM562.63 101.833H511.481V102.833H562.63V101.833ZM562.63 715.833H511.481V716.833H562.63V715.833ZM1125.26 101.833H1074.11V102.833H1125.26V101.833ZM1125.26 715.833H1074.11V716.833H1125.26V715.833ZM562.63 153H511.481V154H562.63V153ZM562.63 767H511.481V768H562.63V767ZM1125.26 153H1074.11V154H1125.26V153ZM1125.26 767H1074.11V768H1125.26V767ZM562.63 204.167H511.481V205.167H562.63V204.167ZM562.63 818.167H511.481V819.167H562.63V818.167ZM1125.26 204.167H1074.11V205.167H1125.26V204.167ZM1125.26 818.167H1074.11V819.167H1125.26V818.167ZM562.63 255.333H511.481V256.333H562.63V255.333ZM562.63 869.333H511.481V870.333H562.63V869.333ZM1125.26 255.333H1074.11V256.333H1125.26V255.333ZM1125.26 869.333H1074.11V870.333H1125.26V869.333ZM562.63 306.5H511.481V307.5H562.63V306.5ZM562.63 920.5H511.481V921.5H562.63V920.5ZM1125.26 306.5H1074.11V307.5H1125.26V306.5ZM1125.26 920.5H1074.11V921.5H1125.26V920.5ZM562.63 357.667H511.481V358.667H562.63V357.667ZM562.63 971.667H511.481V972.667H562.63V971.667ZM1125.26 357.667H1074.11V358.667H1125.26V357.667ZM1125.26 971.667H1074.11V972.667H1125.26V971.667ZM562.63 408.833H511.481V409.833H562.63V408.833ZM562.63 1022.83H511.481V1023.83H562.63V1022.83ZM1125.26 408.833H1074.11V409.833H1125.26V408.833ZM1125.26 1022.83H1074.11V1023.83H1125.26V1022.83ZM562.63 460H511.481V461H562.63V460ZM562.63 1074H511.481V1075H562.63V1074ZM1125.26 460H1074.11V461H1125.26V460ZM1125.26 1074H1074.11V1075H1125.26V1074ZM562.63 511.167H511.481V512.167H562.63V511.167ZM562.63 1125.17H511.481V1126.17H562.63V1125.17ZM1125.26 511.167H1074.11V512.167H1125.26V511.167ZM1125.26 1125.17H1074.11V1126.17H1125.26V1125.17ZM562.63 562.333H511.481V563.333H562.63V562.333ZM562.63 1176.33H511.481V1177.33H562.63V1176.33ZM1125.26 562.333H1074.11V563.333H1125.26V562.333ZM1125.26 1176.33H1074.11V1177.33H1125.26V1176.33ZM0 0V-1H-1V0H0ZM1381 0H1382V-1H1381V0ZM0 1228H-1V1229H0V1228ZM1381 1228V1229H1382V1228H1381ZM0 1H51.1481V-1H0V1ZM1 51.1667V0H-1V51.1667H1ZM1 665.167V614H-1V665.167H1ZM562.63 1H613.778V-1H562.63V1ZM1125.26 1H1176.41V-1H1125.26V1ZM51.1481 1H102.296V-1H51.1481V1ZM613.778 1H664.926V-1H613.778V1ZM1176.41 1H1227.56V-1H1176.41V1ZM102.296 1H153.444V-1H102.296V1ZM664.926 1H716.074V-1H664.926V1ZM1227.56 1H1278.7V-1H1227.56V1ZM153.444 1H204.593V-1H153.444V1ZM716.074 1H767.222V-1H716.074V1ZM1278.7 1H1329.85V-1H1278.7V1ZM204.593 1H255.741V-1H204.593V1ZM767.222 1H818.37V-1H767.222V1ZM1329.85 1H1381V-1H1329.85V1ZM1380 0V51.1667H1382V0H1380ZM1380 614V665.167H1382V614H1380ZM255.741 1H306.889V-1H255.741V1ZM818.37 1H869.518V-1H818.37V1ZM306.889 1H358.037V-1H306.889V1ZM869.518 1H920.667V-1H869.518V1ZM358.037 1H409.185V-1H358.037V1ZM920.667 1H971.815V-1H920.667V1ZM409.185 1H460.333V-1H409.185V1ZM971.815 1H1022.96V-1H971.815V1ZM460.333 1H511.481V-1H460.333V1ZM1022.96 1H1074.11V-1H1022.96V1ZM511.481 1H562.63V-1H511.481V1ZM1074.11 1H1125.26V-1H1074.11V1ZM1 102.333V51.1667H-1V102.333H1ZM1 716.333V665.167H-1V716.333H1ZM1 153.5V102.333H-1V153.5H1ZM1 767.5V716.333H-1V767.5H1ZM1 204.667V153.5H-1V204.667H1ZM1 818.667V767.5H-1V818.667H1ZM1 255.833V204.667H-1V255.833H1ZM1 869.833V818.667H-1V869.833H1ZM1 307V255.833H-1V307H1ZM1 921V869.833H-1V921H1ZM1 358.167V307H-1V358.167H1ZM1 972.167V921H-1V972.167H1ZM1 409.333V358.167H-1V409.333H1ZM1 1023.33V972.167H-1V1023.33H1ZM1 460.5V409.333H-1V460.5H1ZM1 1074.5V1023.33H-1V1074.5H1ZM1 511.667V460.5H-1V511.667H1ZM1 1125.67V1074.5H-1V1125.67H1ZM1 562.833V511.667H-1V562.833H1ZM1 1176.83V1125.67H-1V1176.83H1ZM1 614V562.833H-1V614H1ZM51.1481 1227H0V1229H51.1481V1227ZM1 1228V1176.83H-1V1228H1ZM613.778 1227H562.63V1229H613.778V1227ZM1176.41 1227H1125.26V1229H1176.41V1227ZM102.296 1227H51.1481V1229H102.296V1227ZM664.926 1227H613.778V1229H664.926V1227ZM1227.56 1227H1176.41V1229H1227.56V1227ZM153.444 1227H102.296V1229H153.444V1227ZM716.074 1227H664.926V1229H716.074V1227ZM1278.7 1227H1227.56V1229H1278.7V1227ZM204.593 1227H153.444V1229H204.593V1227ZM767.222 1227H716.074V1229H767.222V1227ZM1329.85 1227H1278.7V1229H1329.85V1227ZM1380 51.1667V102.333H1382V51.1667H1380ZM1380 665.167V716.333H1382V665.167H1380ZM1380 102.333V153.5H1382V102.333H1380ZM1380 716.333V767.5H1382V716.333H1380ZM1380 153.5V204.667H1382V153.5H1380ZM1380 767.5V818.667H1382V767.5H1380ZM1380 204.667V255.833H1382V204.667H1380ZM1380 818.667V869.833H1382V818.667H1380ZM1380 255.833V307H1382V255.833H1380ZM1380 869.833V921H1382V869.833H1380ZM1380 307V358.167H1382V307H1380ZM1380 921V972.167H1382V921H1380ZM1380 358.167V409.333H1382V358.167H1380ZM1380 972.167V1023.33H1382V972.167H1380ZM1380 409.333V460.5H1382V409.333H1380ZM1380 1023.33V1074.5H1382V1023.33H1380ZM1380 460.5V511.667H1382V460.5H1380ZM1380 1074.5V1125.67H1382V1074.5H1380ZM1380 511.667V562.833H1382V511.667H1380ZM1380 1125.67V1176.83H1382V1125.67H1380ZM255.741 1227H204.593V1229H255.741V1227ZM818.37 1227H767.222V1229H818.37V1227ZM1380 562.833V614H1382V562.833H1380ZM1380 1176.83V1228H1382V1176.83H1380ZM1381 1227H1329.85V1229H1381V1227ZM306.889 1227H255.741V1229H306.889V1227ZM869.518 1227H818.37V1229H869.518V1227ZM358.037 1227H306.889V1229H358.037V1227ZM920.667 1227H869.518V1229H920.667V1227ZM409.185 1227H358.037V1229H409.185V1227ZM971.815 1227H920.667V1229H971.815V1227ZM460.333 1227H409.185V1229H460.333V1227ZM1022.96 1227H971.815V1229H1022.96V1227ZM511.481 1227H460.333V1229H511.481V1227ZM1074.11 1227H1022.96V1229H1074.11V1227ZM562.63 1227H511.481V1229H562.63V1227ZM1125.26 1227H1074.11V1229H1125.26V1227Z" fill="#D1D5DB" mask="url(#path-1-inside-1_28_3038)"/>
</g>
</svg>
