<svg width="14" height="16" viewBox="0 0 14 16" fill="none" xmlns="http://www.w3.org/2000/svg">
<path d="M7.10746 8C7.10746 8.02108 7.10749 8.04214 7.10756 8.06318C7.08953 8.07359 7.07149 8.08404 7.05346 8.09453C7.03561 8.10491 7.01779 8.11531 7 8.12573C6.98221 8.11531 6.96439 8.10491 6.94654 8.09453C6.92851 8.08404 6.91048 8.0736 6.89244 8.06318C6.89251 8.04214 6.89254 8.02108 6.89254 8C6.89254 7.97892 6.89251 7.95786 6.89244 7.93682C6.91048 7.92641 6.92851 7.91596 6.94655 7.90547C6.9644 7.89509 6.98221 7.88469 7 7.87427C7.01779 7.88469 7.0356 7.89509 7.05346 7.90547C7.07149 7.91596 7.08953 7.92641 7.10756 7.93682C7.10749 7.95786 7.10746 7.97892 7.10746 8ZM7.30993 8.31115C7.30923 8.26708 7.30868 8.22291 7.30828 8.17866C7.34617 8.15709 7.38406 8.13568 7.42194 8.11445C8.72028 8.8327 10.0071 9.36003 11.0866 9.80242C11.4891 9.96736 11.8628 10.1205 12.1975 10.2673C12.8621 10.5588 13.3633 10.8213 13.6466 11.0966C13.7866 11.2326 13.8663 11.3652 13.8913 11.4989C13.916 11.631 13.8899 11.7783 13.7914 11.9503C13.6928 12.1223 13.5793 12.2183 13.4539 12.2627C13.3269 12.3076 13.1735 12.3044 12.9867 12.2504C12.6084 12.1409 12.1321 11.8349 11.5492 11.4009C11.2556 11.1823 10.9371 10.9329 10.594 10.6643C9.67377 9.94367 8.57683 9.08469 7.30993 8.31115ZM7 8.35794C7.03749 8.38021 7.07482 8.40256 7.11201 8.42498C7.14359 9.91691 7.33364 11.3033 7.49308 12.4664C7.55252 12.9 7.60771 13.3026 7.64885 13.668C7.73051 14.3935 7.75552 14.9623 7.66039 15.3473C7.61337 15.5377 7.53921 15.6733 7.43692 15.7618C7.336 15.8492 7.19679 15.9 7 15.9C6.80321 15.9 6.664 15.8492 6.56308 15.7618C6.46079 15.6733 6.38663 15.5377 6.33961 15.3473C6.24448 14.9623 6.26949 14.3935 6.35115 13.668C6.39229 13.3026 6.44748 12.9 6.50692 12.4664C6.66637 11.3033 6.85641 9.91691 6.888 8.42498C6.92518 8.40256 6.96252 8.38021 7 8.35794ZM6.69173 8.17866C6.69132 8.22291 6.69077 8.26708 6.69008 8.31115C5.42317 9.08469 4.32623 9.94366 3.40599 10.6643C3.06293 10.9329 2.74443 11.1823 2.45083 11.4009C1.86788 11.8349 1.39164 12.1409 1.01334 12.2504C0.826491 12.3044 0.673106 12.3075 0.546127 12.2627C0.420713 12.2183 0.307232 12.1223 0.208645 11.9503C0.110083 11.7783 0.0840486 11.631 0.108746 11.4989C0.133746 11.3651 0.213399 11.2326 0.353362 11.0966C0.636693 10.8213 1.13793 10.5588 1.8025 10.2673C2.13722 10.1205 2.51089 9.96736 2.91338 9.80242C3.99292 9.36003 5.27972 8.8327 6.57806 8.11445C6.61594 8.13568 6.65383 8.15709 6.69173 8.17866ZM6.69173 7.82135C6.65383 7.84292 6.61594 7.86432 6.57806 7.88555C5.27972 7.1673 3.99291 6.63997 2.91338 6.19758C2.51089 6.03264 2.13721 5.87951 1.80249 5.73269C1.13793 5.4412 0.636688 5.17874 0.353357 4.90339C0.213395 4.76737 0.133741 4.63485 0.108741 4.50111C0.0840437 4.36899 0.110079 4.22169 0.20864 4.04973C0.307227 3.87773 0.420708 3.78166 0.546122 3.73733C0.673101 3.69245 0.826487 3.69558 1.01334 3.74964C1.39163 3.85909 1.86788 4.16508 2.45083 4.59909C2.74443 4.81767 3.06293 5.06708 3.40599 5.33572C4.32623 6.05634 5.42317 6.91531 6.69008 7.68885C6.69077 7.73292 6.69132 7.77709 6.69173 7.82135ZM7 7.64206C6.96252 7.6198 6.92518 7.59745 6.888 7.57502C6.85641 6.08309 6.66637 4.69673 6.50692 3.5336C6.44748 3.1 6.39229 2.69742 6.35115 2.33196C6.26949 1.60648 6.24448 1.03775 6.33961 0.652663C6.38663 0.462349 6.46079 0.326662 6.56308 0.238152C6.664 0.15083 6.80321 0.1 7 0.1C7.19679 0.1 7.336 0.15083 7.43692 0.238152C7.53921 0.326662 7.61337 0.462349 7.66039 0.652664C7.75552 1.03775 7.73051 1.60648 7.64885 2.33196C7.60771 2.69742 7.55252 3.1 7.49308 3.53361C7.33364 4.69673 7.14359 6.08309 7.11201 7.57502C7.07482 7.59745 7.03749 7.61979 7 7.64206ZM7.30828 7.82135C7.30868 7.77709 7.30923 7.73292 7.30993 7.68885C8.57684 6.91531 9.67378 6.05633 10.594 5.33572C10.9371 5.06708 11.2556 4.81767 11.5492 4.59909C12.1321 4.16507 12.6084 3.85908 12.9867 3.74963C13.1735 3.69557 13.3269 3.69245 13.4539 3.73733C13.5793 3.78166 13.6928 3.87772 13.7914 4.04973C13.8899 4.22168 13.916 4.36899 13.8913 4.50111C13.8663 4.63485 13.7866 4.76737 13.6466 4.90339C13.3633 5.17874 12.8621 5.44119 12.1975 5.73269C11.8628 5.87951 11.4891 6.03264 11.0866 6.19758C10.0071 6.63997 8.72028 7.1673 7.42194 7.88555C7.38406 7.86432 7.34617 7.84292 7.30828 7.82135Z" stroke="#6B7280" stroke-width="0.2"/>
</svg>
